%TF.GenerationSoftware,Altium Limited,Altium Designer,21.6.1 (37)*%
G04 Layer_Physical_Order=2*
G04 Layer_Color=16711680*
%FSLAX43Y43*%
%MOMM*%
%TF.SameCoordinates,1F06128E-DADF-4999-8CD8-60C71D9D28CE*%
%TF.FilePolarity,Positive*%
%TF.FileFunction,Copper,L2,Bot,Signal*%
%TF.Part,Single*%
G01*
G75*
%TA.AperFunction,SMDPad,CuDef*%
%ADD11R,3.100X3.100*%
%ADD13R,1.200X1.400*%
%ADD15R,0.850X1.300*%
%ADD19R,3.930X3.930*%
%ADD20R,1.300X0.850*%
%TA.AperFunction,Conductor*%
%ADD21C,0.254*%
%ADD22C,0.500*%
%TA.AperFunction,ComponentPad*%
%ADD24C,1.200*%
%ADD25C,1.600*%
%ADD26R,1.600X1.600*%
%ADD27R,1.500X1.500*%
%ADD28C,1.500*%
%ADD29C,0.800*%
%ADD30O,1.150X1.800*%
%ADD31O,1.450X2.000*%
%ADD32C,1.800*%
%TA.AperFunction,ViaPad*%
%ADD33C,0.650*%
%ADD34C,0.750*%
%ADD35C,1.270*%
%TA.AperFunction,SMDPad,CuDef*%
%ADD36R,2.030X3.800*%
%ADD37R,3.800X2.030*%
G04:AMPARAMS|DCode=38|XSize=1.4mm|YSize=1mm|CornerRadius=0.2mm|HoleSize=0mm|Usage=FLASHONLY|Rotation=0.000|XOffset=0mm|YOffset=0mm|HoleType=Round|Shape=RoundedRectangle|*
%AMROUNDEDRECTD38*
21,1,1.400,0.600,0,0,0.0*
21,1,1.000,1.000,0,0,0.0*
1,1,0.400,0.500,-0.300*
1,1,0.400,-0.500,-0.300*
1,1,0.400,-0.500,0.300*
1,1,0.400,0.500,0.300*
%
%ADD38ROUNDEDRECTD38*%
%ADD39R,0.450X1.300*%
%ADD40O,2.000X0.450*%
%TA.AperFunction,Conductor*%
%ADD41C,0.381*%
G36*
X59690Y48515D02*
X55950D01*
Y47697D01*
X54723D01*
X54600Y47673D01*
X54595Y47675D01*
X54561D01*
X54373Y47863D01*
X54241Y47952D01*
X54084Y47983D01*
X54084Y47983D01*
X44740D01*
X44735Y48012D01*
X44657Y48127D01*
X44542Y48205D01*
X44405Y48232D01*
X43405D01*
X43268Y48205D01*
X43153Y48127D01*
X43075Y48012D01*
X43048Y47875D01*
Y47275D01*
X43075Y47138D01*
X43153Y47023D01*
X43268Y46945D01*
X43405Y46918D01*
X44405D01*
X44542Y46945D01*
X44657Y47023D01*
X44735Y47138D01*
X44740Y47167D01*
X53916D01*
X54059Y47024D01*
X54097Y46931D01*
X54231Y46797D01*
X54406Y46725D01*
X54595D01*
X54769Y46797D01*
X54903Y46931D01*
X54933Y47003D01*
X55950D01*
Y46185D01*
X59690D01*
Y42465D01*
X55950D01*
Y40135D01*
X56547D01*
X56605Y39996D01*
X55878Y39270D01*
X39866D01*
X39703Y39337D01*
X39515D01*
X39340Y39265D01*
X39206Y39131D01*
X39134Y38956D01*
Y38768D01*
X39206Y38593D01*
X39340Y38459D01*
X39515Y38387D01*
X39703D01*
X39866Y38454D01*
X56047D01*
X56047Y38454D01*
X56203Y38485D01*
X56335Y38574D01*
X57888Y40127D01*
X57888Y40127D01*
X57894Y40135D01*
X59690D01*
Y37479D01*
X59540Y37396D01*
X59439Y37454D01*
X59249Y37505D01*
X59051D01*
X58861Y37454D01*
X58689Y37355D01*
X58550Y37216D01*
X58451Y37044D01*
X58400Y36854D01*
Y36656D01*
X58451Y36466D01*
X58550Y36294D01*
X58689Y36155D01*
X58861Y36056D01*
X59051Y36005D01*
X59249D01*
X59439Y36056D01*
X59540Y36114D01*
X59690Y36031D01*
Y15479D01*
X59540Y15396D01*
X59439Y15454D01*
X59249Y15505D01*
X59051D01*
X58861Y15454D01*
X58689Y15355D01*
X58550Y15216D01*
X58451Y15044D01*
X58400Y14854D01*
Y14656D01*
X58451Y14466D01*
X58550Y14294D01*
X58689Y14155D01*
X58861Y14056D01*
X59051Y14005D01*
X59249D01*
X59439Y14056D01*
X59540Y14114D01*
X59690Y14031D01*
Y255D01*
X8255D01*
Y1352D01*
X8405Y1414D01*
X8487Y1332D01*
X8678Y1222D01*
X8890Y1165D01*
X8900D01*
Y2000D01*
Y2835D01*
X8890D01*
X8678Y2778D01*
X8487Y2668D01*
X8405Y2586D01*
X8255Y2648D01*
Y8000D01*
X8235Y8098D01*
X8180Y8180D01*
X8098Y8235D01*
X8000Y8255D01*
X6148D01*
X6086Y8405D01*
X6168Y8487D01*
X6278Y8678D01*
X6335Y8890D01*
Y8900D01*
X4665D01*
Y8890D01*
X4722Y8678D01*
X4832Y8487D01*
X4914Y8405D01*
X4852Y8255D01*
X255D01*
Y43245D01*
X8000D01*
X8098Y43265D01*
X8180Y43320D01*
X8224Y43385D01*
X8283Y43410D01*
X8393Y43426D01*
X8487Y43332D01*
X8678Y43222D01*
X8890Y43165D01*
X8900D01*
Y44000D01*
Y44835D01*
X8890D01*
X8678Y44778D01*
X8487Y44668D01*
X8405Y44586D01*
X8255Y44648D01*
Y51245D01*
X59690D01*
Y48515D01*
D02*
G37*
%LPC*%
G36*
X30650Y50794D02*
Y49800D01*
X31332D01*
Y50025D01*
X31305Y50227D01*
X31227Y50416D01*
X31103Y50578D01*
X30941Y50702D01*
X30752Y50780D01*
X30650Y50794D01*
D02*
G37*
G36*
X30450D02*
X30348Y50780D01*
X30159Y50702D01*
X29997Y50578D01*
X29873Y50416D01*
X29795Y50227D01*
X29768Y50025D01*
Y49800D01*
X30450D01*
Y50794D01*
D02*
G37*
G36*
X22900D02*
Y49800D01*
X23582D01*
Y50025D01*
X23555Y50227D01*
X23477Y50416D01*
X23353Y50578D01*
X23191Y50702D01*
X23002Y50780D01*
X22900Y50794D01*
D02*
G37*
G36*
X22700D02*
X22598Y50780D01*
X22409Y50702D01*
X22247Y50578D01*
X22123Y50416D01*
X22045Y50227D01*
X22018Y50025D01*
Y49800D01*
X22700D01*
Y50794D01*
D02*
G37*
G36*
X31332Y49600D02*
X30650D01*
Y48606D01*
X30752Y48620D01*
X30941Y48698D01*
X31103Y48822D01*
X31227Y48984D01*
X31305Y49173D01*
X31332Y49375D01*
Y49600D01*
D02*
G37*
G36*
X30450D02*
X29768D01*
Y49375D01*
X29795Y49173D01*
X29873Y48984D01*
X29997Y48822D01*
X30159Y48698D01*
X30348Y48620D01*
X30450Y48606D01*
Y49600D01*
D02*
G37*
G36*
X23582D02*
X22900D01*
Y48606D01*
X23002Y48620D01*
X23191Y48698D01*
X23353Y48822D01*
X23477Y48984D01*
X23555Y49173D01*
X23582Y49375D01*
Y49600D01*
D02*
G37*
G36*
X22700D02*
X22018D01*
Y49375D01*
X22045Y49173D01*
X22123Y48984D01*
X22247Y48822D01*
X22409Y48698D01*
X22598Y48620D01*
X22700Y48606D01*
Y49600D01*
D02*
G37*
G36*
X31819Y48326D02*
X31819Y48326D01*
X25993D01*
X25993Y48326D01*
X25837Y48295D01*
X25705Y48206D01*
X25705Y48206D01*
X25087Y47588D01*
X24998Y47456D01*
X24967Y47300D01*
X24967Y47300D01*
Y45900D01*
X24998Y45744D01*
X25000Y45741D01*
Y45100D01*
X25687D01*
Y44426D01*
X25563Y44302D01*
X25551Y44300D01*
X24775D01*
Y42849D01*
X24567D01*
X24225Y43191D01*
Y44300D01*
X23075D01*
Y42700D01*
X23734D01*
X24178Y42256D01*
X24290Y42181D01*
X24423Y42155D01*
X25405D01*
X25517Y42043D01*
Y34762D01*
X25517Y34762D01*
Y32767D01*
X25497Y32747D01*
X24004D01*
X23924Y32897D01*
X23928Y32904D01*
X23957Y33050D01*
X23928Y33196D01*
X23878Y33271D01*
X23857Y33375D01*
X23878Y33479D01*
X23928Y33554D01*
X23957Y33700D01*
X23928Y33846D01*
X23878Y33921D01*
X23857Y34025D01*
X23878Y34129D01*
X23928Y34204D01*
X23957Y34350D01*
X23928Y34496D01*
X23878Y34571D01*
X23857Y34675D01*
X23878Y34779D01*
X23928Y34854D01*
X23957Y35000D01*
X23928Y35146D01*
X23878Y35221D01*
X23857Y35325D01*
X23878Y35429D01*
X23928Y35504D01*
X23957Y35650D01*
X23928Y35796D01*
X23878Y35871D01*
X23857Y35975D01*
X23878Y36079D01*
X23928Y36154D01*
X23957Y36300D01*
X23928Y36446D01*
X23878Y36521D01*
X23857Y36625D01*
X23878Y36729D01*
X23928Y36804D01*
X23957Y36950D01*
X23928Y37096D01*
X23878Y37171D01*
X23857Y37275D01*
X23878Y37379D01*
X23928Y37454D01*
X23957Y37600D01*
X23928Y37746D01*
X23878Y37821D01*
X23857Y37925D01*
X23878Y38029D01*
X23928Y38104D01*
X23957Y38250D01*
X23928Y38396D01*
X23878Y38471D01*
X23857Y38575D01*
X23878Y38679D01*
X23928Y38754D01*
X23957Y38900D01*
X23928Y39046D01*
X23878Y39121D01*
X23857Y39225D01*
X23878Y39329D01*
X23928Y39404D01*
X23957Y39550D01*
X23928Y39696D01*
X23878Y39771D01*
X23857Y39875D01*
X23878Y39979D01*
X23928Y40054D01*
X23957Y40200D01*
X23928Y40346D01*
X23878Y40421D01*
X23857Y40525D01*
X23878Y40629D01*
X23928Y40704D01*
X23957Y40850D01*
X23928Y40996D01*
X23845Y41120D01*
X23721Y41203D01*
X23575Y41232D01*
X22025D01*
X21879Y41203D01*
X21806Y41154D01*
X20980D01*
X20977Y41163D01*
X20843Y41297D01*
X20668Y41369D01*
X20480D01*
X20305Y41297D01*
X20171Y41163D01*
X20099Y40988D01*
Y40800D01*
X20171Y40625D01*
X20305Y40491D01*
X20480Y40419D01*
X20668D01*
X20843Y40491D01*
X20941Y40590D01*
X21668D01*
X21697Y40549D01*
X21729Y40455D01*
X21722Y40421D01*
X21672Y40346D01*
X21643Y40200D01*
X21672Y40054D01*
X21722Y39979D01*
X21743Y39875D01*
X21722Y39771D01*
X21672Y39696D01*
X21643Y39550D01*
X21672Y39404D01*
X21722Y39329D01*
X21743Y39225D01*
X21722Y39121D01*
X21672Y39046D01*
X21643Y38900D01*
X21672Y38754D01*
X21719Y38682D01*
X21651Y38532D01*
X20896D01*
X20849Y38647D01*
X20716Y38780D01*
X20541Y38852D01*
X20352D01*
X20177Y38780D01*
X20044Y38647D01*
X19972Y38472D01*
Y38283D01*
X20044Y38108D01*
X20120Y38032D01*
X20058Y37882D01*
X16429D01*
X16429Y37882D01*
X16321Y37861D01*
X16229Y37800D01*
X14828Y36398D01*
X14766Y36307D01*
X14745Y36199D01*
X14745Y36199D01*
Y34821D01*
X14745Y34821D01*
X14766Y34713D01*
X14828Y34621D01*
X17371Y32078D01*
Y25152D01*
X17371Y25152D01*
X17392Y25044D01*
X17453Y24953D01*
X20164Y22242D01*
Y21979D01*
X20044Y21859D01*
X19972Y21684D01*
Y21496D01*
X20044Y21321D01*
X20164Y21201D01*
Y17060D01*
X20142Y17037D01*
X20080Y16946D01*
X20059Y16838D01*
X20059Y16838D01*
Y12298D01*
X20059Y12298D01*
X20080Y12190D01*
X20142Y12098D01*
X23340Y8900D01*
Y7007D01*
X21572D01*
Y4677D01*
X25672D01*
Y7007D01*
X23904D01*
Y9017D01*
X23904Y9017D01*
X23883Y9125D01*
X23822Y9217D01*
X20624Y12415D01*
Y16721D01*
X20646Y16743D01*
X20707Y16835D01*
X20729Y16943D01*
Y21201D01*
X20849Y21321D01*
X20922Y21496D01*
Y21684D01*
X20849Y21859D01*
X20729Y21979D01*
Y22359D01*
X20729Y22359D01*
X20707Y22467D01*
X20646Y22559D01*
X20059Y23146D01*
X20124Y23260D01*
X20140Y23277D01*
X20322D01*
X20497Y23350D01*
X20631Y23483D01*
X20648Y23487D01*
X21612Y22523D01*
Y22353D01*
X21684Y22178D01*
X21804Y22058D01*
Y17763D01*
X21804Y17763D01*
X21826Y17655D01*
X21887Y17564D01*
X23594Y15857D01*
Y15643D01*
X21572D01*
Y13313D01*
X25672D01*
Y15643D01*
X24158D01*
Y15974D01*
X24158Y15974D01*
X24137Y16082D01*
X24076Y16174D01*
X22369Y17880D01*
Y22058D01*
X22489Y22178D01*
X22562Y22353D01*
Y22542D01*
X22489Y22716D01*
X22356Y22850D01*
X22181Y22922D01*
X22011D01*
X21112Y23821D01*
Y29004D01*
X22148Y30040D01*
X29107D01*
X29107Y30040D01*
X29215Y30061D01*
X29307Y30123D01*
X29521Y30337D01*
X29648Y30252D01*
X29624Y30193D01*
Y30005D01*
X29696Y29830D01*
X29817Y29710D01*
Y12446D01*
X29817Y12446D01*
X29838Y12338D01*
X29899Y12246D01*
X39036Y3109D01*
X38993Y3034D01*
X38928Y2792D01*
Y2542D01*
X38993Y2300D01*
X39118Y2084D01*
X39295Y1907D01*
X39511Y1782D01*
X39753Y1717D01*
X40003D01*
X40245Y1782D01*
X40461Y1907D01*
X40638Y2084D01*
X40763Y2300D01*
X40828Y2542D01*
Y2792D01*
X40763Y3034D01*
X40760Y3040D01*
X40776Y3072D01*
X40863Y3161D01*
X40934Y3147D01*
X41425D01*
X41469Y3101D01*
X41523Y2997D01*
X41468Y2792D01*
Y2542D01*
X41533Y2300D01*
X41658Y2084D01*
X41835Y1907D01*
X42051Y1782D01*
X42293Y1717D01*
X42543D01*
X42785Y1782D01*
X43001Y1907D01*
X43031Y1937D01*
X43172Y1865D01*
X43222Y1678D01*
X43332Y1487D01*
X43487Y1332D01*
X43678Y1222D01*
X43890Y1165D01*
X43900D01*
Y2000D01*
Y2835D01*
X43890D01*
X43678Y2778D01*
X43518Y2686D01*
X43368Y2740D01*
Y2792D01*
X43303Y3034D01*
X43178Y3250D01*
X43001Y3427D01*
X42785Y3552D01*
X42543Y3617D01*
X42293D01*
X42051Y3552D01*
X41976Y3509D01*
X41856Y3629D01*
X41764Y3690D01*
X41656Y3711D01*
X41656Y3711D01*
X41051D01*
X35116Y9646D01*
X35178Y9796D01*
X35265D01*
X35507Y9861D01*
X35723Y9986D01*
X35900Y10163D01*
X36025Y10380D01*
X36090Y10621D01*
Y10871D01*
X36025Y11113D01*
X35900Y11330D01*
X35723Y11506D01*
X35507Y11631D01*
X35265Y11696D01*
X35015D01*
X34773Y11631D01*
X34557Y11506D01*
X34380Y11330D01*
X34255Y11113D01*
X34190Y10871D01*
Y10785D01*
X34040Y10723D01*
X30983Y13779D01*
Y13963D01*
X31127Y13994D01*
X31133Y13994D01*
X31266Y13861D01*
X31441Y13789D01*
X31611D01*
X32899Y12500D01*
X32991Y12439D01*
X33099Y12418D01*
X33099Y12418D01*
X49095D01*
X49095Y12418D01*
X49203Y12439D01*
X49295Y12500D01*
X49984Y13189D01*
X49984Y13189D01*
X50854Y14060D01*
X50861Y14056D01*
X51051Y14005D01*
X51249D01*
X51439Y14056D01*
X51611Y14155D01*
X51750Y14294D01*
X51849Y14466D01*
X51900Y14656D01*
Y14854D01*
X51849Y15044D01*
X51750Y15216D01*
X51611Y15355D01*
X51439Y15454D01*
X51249Y15505D01*
X51051D01*
X50861Y15454D01*
X50689Y15355D01*
X50550Y15216D01*
X50451Y15044D01*
X50400Y14854D01*
Y14656D01*
X50451Y14466D01*
X50455Y14459D01*
X49584Y13589D01*
X49584Y13589D01*
X48978Y12982D01*
X33216D01*
X32010Y14189D01*
Y14359D01*
X31938Y14533D01*
X31804Y14667D01*
X31629Y14739D01*
X31580D01*
X31475Y14851D01*
X31481Y14917D01*
X31613Y15025D01*
X31801D01*
X31976Y15097D01*
X32110Y15231D01*
X32182Y15406D01*
Y15594D01*
X32110Y15769D01*
X32089Y15790D01*
X32094Y15797D01*
X32115Y15905D01*
Y17944D01*
X32265Y18003D01*
X32418Y17940D01*
X32606D01*
X32781Y18012D01*
X32915Y18146D01*
X32987Y18321D01*
Y18509D01*
X32915Y18684D01*
X32814Y18785D01*
X32817Y18945D01*
X32908Y19026D01*
X33062Y18993D01*
X33097Y18908D01*
X33231Y18774D01*
X33406Y18702D01*
X33595D01*
X33769Y18774D01*
X33903Y18908D01*
X33975Y19083D01*
Y19253D01*
X41706Y26983D01*
X41706Y26983D01*
X41767Y27075D01*
X41788Y27183D01*
X41788Y27183D01*
Y28994D01*
X43048Y30254D01*
X43183Y30176D01*
X43165Y30110D01*
Y30100D01*
X43900D01*
Y30835D01*
X43890D01*
X43824Y30817D01*
X43746Y30952D01*
X48854Y36060D01*
X48861Y36056D01*
X49051Y36005D01*
X49249D01*
X49439Y36056D01*
X49611Y36155D01*
X49750Y36294D01*
X49849Y36466D01*
X49900Y36656D01*
Y36854D01*
X49849Y37044D01*
X49750Y37216D01*
X49611Y37355D01*
X49439Y37454D01*
X49249Y37505D01*
X49051D01*
X48861Y37454D01*
X48689Y37355D01*
X48550Y37216D01*
X48451Y37044D01*
X48400Y36854D01*
Y36656D01*
X48451Y36466D01*
X48455Y36459D01*
X41306Y29311D01*
X41245Y29219D01*
X41224Y29111D01*
X41224Y29111D01*
Y27417D01*
X41198Y27387D01*
X41119Y27406D01*
X41048Y27470D01*
Y32254D01*
X44854Y36060D01*
X44861Y36056D01*
X45051Y36005D01*
X45249D01*
X45439Y36056D01*
X45611Y36155D01*
X45750Y36294D01*
X45849Y36466D01*
X45900Y36656D01*
Y36854D01*
X45849Y37044D01*
X45750Y37216D01*
X45611Y37355D01*
X45439Y37454D01*
X45249Y37505D01*
X45051D01*
X44861Y37454D01*
X44689Y37355D01*
X44550Y37216D01*
X44451Y37044D01*
X44400Y36854D01*
Y36656D01*
X44451Y36466D01*
X44455Y36459D01*
X40566Y32570D01*
X40505Y32479D01*
X40483Y32371D01*
X40483Y32371D01*
Y27426D01*
X38819Y25761D01*
X38680Y25819D01*
Y25878D01*
X38612Y26132D01*
X38480Y26360D01*
X38294Y26546D01*
X38066Y26678D01*
X37812Y26746D01*
X37780D01*
Y25746D01*
X37680D01*
Y25646D01*
X36680D01*
Y25615D01*
X36748Y25360D01*
X36880Y25132D01*
X37066Y24946D01*
X37294Y24814D01*
X37548Y24746D01*
X37608D01*
X37665Y24608D01*
X33763Y20705D01*
X33754Y20707D01*
X33695Y20740D01*
X33199D01*
Y20244D01*
X33232Y20185D01*
X33234Y20176D01*
X32312Y19255D01*
X32265Y19185D01*
X32176Y19189D01*
X32115Y19210D01*
Y20840D01*
X32236Y20960D01*
X32308Y21135D01*
Y21324D01*
X32236Y21498D01*
X32102Y21632D01*
X31927Y21704D01*
X31739D01*
X31564Y21632D01*
X31537Y21605D01*
X31387Y21668D01*
Y25302D01*
X31899Y25814D01*
X32069D01*
X32244Y25886D01*
X32378Y26020D01*
X32450Y26195D01*
Y26383D01*
X32378Y26558D01*
X32244Y26692D01*
X32069Y26764D01*
X31881D01*
X31706Y26692D01*
X31572Y26558D01*
X31500Y26383D01*
Y26213D01*
X31122Y25835D01*
X30983Y25893D01*
Y28746D01*
X31104Y28866D01*
X31176Y29041D01*
Y29229D01*
X31104Y29404D01*
X30970Y29538D01*
X30795Y29610D01*
X30607D01*
X30479Y29720D01*
X30471Y29800D01*
X30502Y29830D01*
X30574Y30005D01*
Y30193D01*
X30502Y30368D01*
X30368Y30502D01*
X30193Y30574D01*
X30005D01*
X29946Y30550D01*
X29861Y30677D01*
X32175Y32990D01*
X32236Y33082D01*
X32257Y33190D01*
X32257Y33190D01*
Y38751D01*
X32236Y38859D01*
X32175Y38951D01*
X32175Y38951D01*
X32026Y39100D01*
X31934Y39161D01*
X31826Y39182D01*
X31826Y39182D01*
X30849D01*
X30781Y39332D01*
X30828Y39404D01*
X30857Y39550D01*
X30828Y39696D01*
X30745Y39820D01*
Y39930D01*
X30828Y40054D01*
X30857Y40200D01*
X30828Y40346D01*
X30745Y40470D01*
X30820Y40601D01*
X30875Y40684D01*
X30888Y40750D01*
X29700D01*
Y40850D01*
X29600D01*
Y41283D01*
X29244D01*
X29186Y41422D01*
X29525Y41760D01*
X32269D01*
Y41502D01*
X32269Y41502D01*
X32290Y41394D01*
X32351Y41302D01*
X35100Y38553D01*
Y37802D01*
X36700D01*
Y38952D01*
X35500D01*
X34737Y39716D01*
X34814Y39850D01*
X35015Y39796D01*
X35265D01*
X35507Y39861D01*
X35723Y39986D01*
X35900Y40163D01*
X36025Y40380D01*
X36090Y40621D01*
Y40871D01*
X36025Y41113D01*
X35900Y41330D01*
X35723Y41506D01*
X35507Y41631D01*
X35265Y41696D01*
X35015D01*
X34773Y41631D01*
X34557Y41506D01*
X34380Y41330D01*
X34255Y41113D01*
X34190Y40871D01*
Y40621D01*
X34244Y40420D01*
X34109Y40343D01*
X32833Y41619D01*
Y42043D01*
Y44539D01*
X33126D01*
Y46139D01*
X31976D01*
Y44539D01*
X32269D01*
Y42325D01*
X29408D01*
X29299Y42303D01*
X29208Y42242D01*
X29208Y42242D01*
X28216Y41250D01*
X28155Y41159D01*
X28133Y41051D01*
X28133Y41051D01*
Y37399D01*
X28133Y37399D01*
X28155Y37291D01*
X28216Y37200D01*
X28517Y36898D01*
X28517Y36898D01*
X28538Y36884D01*
X28560Y36862D01*
X28572Y36804D01*
X28622Y36729D01*
X28643Y36625D01*
X28622Y36521D01*
X28572Y36446D01*
X28543Y36300D01*
X28572Y36154D01*
X28622Y36079D01*
X28643Y35975D01*
X28622Y35871D01*
X28572Y35796D01*
X28543Y35650D01*
X28572Y35504D01*
X28622Y35429D01*
X28643Y35325D01*
X28622Y35221D01*
X28572Y35146D01*
X28543Y35000D01*
X28572Y34854D01*
X28622Y34779D01*
X28643Y34675D01*
X28622Y34571D01*
X28572Y34496D01*
X28543Y34350D01*
X28572Y34204D01*
X28622Y34129D01*
X28643Y34025D01*
X28622Y33921D01*
X28572Y33846D01*
X28543Y33700D01*
X28572Y33554D01*
X28655Y33430D01*
X28580Y33299D01*
X28525Y33216D01*
X28512Y33150D01*
X29700D01*
X30888D01*
X30875Y33216D01*
X30820Y33299D01*
X30745Y33430D01*
X30828Y33554D01*
X30857Y33700D01*
X30828Y33846D01*
X30778Y33921D01*
X30757Y34025D01*
X30778Y34129D01*
X30828Y34204D01*
X30857Y34350D01*
X30828Y34496D01*
X30778Y34571D01*
X30757Y34675D01*
X30778Y34779D01*
X30828Y34854D01*
X30857Y35000D01*
X30828Y35146D01*
X30778Y35221D01*
X30757Y35325D01*
X30778Y35429D01*
X30828Y35504D01*
X30857Y35650D01*
X30828Y35796D01*
X30781Y35868D01*
X30849Y36018D01*
X31281D01*
X31281Y36018D01*
X31389Y36039D01*
X31480Y36100D01*
X31543Y36162D01*
X31693Y36100D01*
Y33307D01*
X31011Y32625D01*
X30844Y32653D01*
X30793Y32755D01*
X30820Y32801D01*
X30875Y32884D01*
X30888Y32950D01*
X29700D01*
X28512D01*
X28522Y32897D01*
X28517Y32860D01*
X28457Y32747D01*
X26862D01*
X26842Y32767D01*
Y35024D01*
X26842Y35024D01*
Y42043D01*
X26862Y42062D01*
X27985D01*
X28117Y42089D01*
X28230Y42164D01*
X28666Y42600D01*
X29325D01*
Y43282D01*
X29475Y43344D01*
X29487Y43332D01*
X29678Y43222D01*
X29890Y43165D01*
X29900D01*
Y44000D01*
X30000D01*
Y44100D01*
X30835D01*
Y44110D01*
X30778Y44322D01*
X30668Y44513D01*
X30612Y44569D01*
X30630Y44662D01*
X30661Y44732D01*
X30866Y44817D01*
X31060Y44965D01*
X31208Y45159D01*
X31301Y45384D01*
X31333Y45625D01*
Y45800D01*
X29467D01*
Y45625D01*
X29499Y45384D01*
X29592Y45159D01*
X29740Y44965D01*
X29755Y44954D01*
X29722Y44790D01*
X29678Y44778D01*
X29487Y44668D01*
X29332Y44513D01*
X29222Y44322D01*
X29189Y44200D01*
X28175D01*
Y43091D01*
X27841Y42757D01*
X27625D01*
Y44200D01*
X27013D01*
Y45100D01*
X27550D01*
Y45050D01*
X27875D01*
Y45900D01*
Y46750D01*
X27550D01*
Y46700D01*
X25783D01*
Y47131D01*
X26162Y47510D01*
X28745D01*
X28807Y47360D01*
X28709Y47262D01*
X28625Y47059D01*
Y46841D01*
X28709Y46638D01*
X28863Y46484D01*
X29066Y46400D01*
X29284D01*
X29349Y46427D01*
X29486Y46321D01*
X29467Y46175D01*
Y46000D01*
X30300D01*
Y47095D01*
X30159Y47076D01*
X29934Y46983D01*
X29875Y46938D01*
X29725Y47012D01*
Y47059D01*
X29641Y47262D01*
X29543Y47360D01*
X29605Y47510D01*
X31650D01*
X31773Y47387D01*
X31824Y47312D01*
X31956Y47223D01*
X32112Y47192D01*
X33843D01*
Y46139D01*
X33676D01*
Y44539D01*
X34826D01*
Y46139D01*
X34659D01*
Y46914D01*
X34809Y46985D01*
X34868Y46945D01*
X35005Y46918D01*
X36005D01*
X36142Y46945D01*
X36257Y47023D01*
X36335Y47138D01*
X36362Y47275D01*
Y47875D01*
X36335Y48012D01*
X36257Y48127D01*
X36142Y48205D01*
X36005Y48232D01*
X35005D01*
X34868Y48205D01*
X34753Y48127D01*
X34675Y48012D01*
X34675Y48008D01*
X32306D01*
X32107Y48206D01*
X31975Y48295D01*
X31949Y48300D01*
X31819Y48326D01*
D02*
G37*
G36*
X41805Y48232D02*
X40805D01*
X40668Y48205D01*
X40553Y48127D01*
X40475Y48012D01*
X40470Y47983D01*
X38940D01*
X38935Y48012D01*
X38857Y48127D01*
X38742Y48205D01*
X38605Y48232D01*
X37605D01*
X37468Y48205D01*
X37353Y48127D01*
X37275Y48012D01*
X37248Y47875D01*
Y47275D01*
X37275Y47138D01*
X37353Y47023D01*
X37468Y46945D01*
X37605Y46918D01*
X37697D01*
Y46325D01*
X36946D01*
Y44625D01*
X38446D01*
Y45715D01*
X38482Y45769D01*
X38513Y45925D01*
Y46918D01*
X38605D01*
X38742Y46945D01*
X38857Y47023D01*
X38935Y47138D01*
X38940Y47167D01*
X40470D01*
X40475Y47138D01*
X40553Y47023D01*
X40668Y46945D01*
X40805Y46918D01*
X41805D01*
X41942Y46945D01*
X42057Y47023D01*
X42135Y47138D01*
X42162Y47275D01*
Y47875D01*
X42135Y48012D01*
X42057Y48127D01*
X41942Y48205D01*
X41805Y48232D01*
D02*
G37*
G36*
X24284Y47500D02*
X24066D01*
X23863Y47416D01*
X23709Y47262D01*
X23625Y47059D01*
Y47012D01*
X23475Y46938D01*
X23416Y46983D01*
X23191Y47076D01*
X23050Y47095D01*
Y46000D01*
X23883D01*
Y46175D01*
X23864Y46321D01*
X24001Y46427D01*
X24066Y46400D01*
X24284D01*
X24487Y46484D01*
X24641Y46638D01*
X24725Y46841D01*
Y47059D01*
X24641Y47262D01*
X24487Y47416D01*
X24284Y47500D01*
D02*
G37*
G36*
X30500Y47095D02*
Y46000D01*
X31333D01*
Y46175D01*
X31301Y46416D01*
X31208Y46641D01*
X31060Y46835D01*
X30866Y46983D01*
X30641Y47076D01*
X30500Y47095D01*
D02*
G37*
G36*
X28400Y46750D02*
X28075D01*
Y46000D01*
X28400D01*
Y46750D01*
D02*
G37*
G36*
X22850Y47095D02*
X22709Y47076D01*
X22484Y46983D01*
X22290Y46835D01*
X22142Y46641D01*
X22049Y46416D01*
X22017Y46175D01*
Y46000D01*
X22850D01*
Y47095D01*
D02*
G37*
G36*
X40296Y46375D02*
X39596D01*
Y45575D01*
X40296D01*
Y46375D01*
D02*
G37*
G36*
X39396D02*
X38696D01*
Y45575D01*
X39396D01*
Y46375D01*
D02*
G37*
G36*
X28400Y45800D02*
X28075D01*
Y45050D01*
X28400D01*
Y45800D01*
D02*
G37*
G36*
X23883D02*
X23050D01*
Y44705D01*
X23191Y44724D01*
X23416Y44817D01*
X23610Y44965D01*
X23758Y45159D01*
X23851Y45384D01*
X23883Y45625D01*
Y45800D01*
D02*
G37*
G36*
X22850D02*
X22017D01*
Y45625D01*
X22049Y45384D01*
X22142Y45159D01*
X22290Y44965D01*
X22484Y44817D01*
X22709Y44724D01*
X22850Y44705D01*
Y45800D01*
D02*
G37*
G36*
X40296Y45375D02*
X39596D01*
Y44575D01*
X40296D01*
Y45375D01*
D02*
G37*
G36*
X39396D02*
X38696D01*
Y44575D01*
X39396D01*
Y45375D01*
D02*
G37*
G36*
X16110Y44835D02*
X16100D01*
Y44100D01*
X16835D01*
Y44110D01*
X16778Y44322D01*
X16668Y44513D01*
X16513Y44668D01*
X16322Y44778D01*
X16110Y44835D01*
D02*
G37*
G36*
X15900D02*
X15890D01*
X15678Y44778D01*
X15487Y44668D01*
X15332Y44513D01*
X15222Y44322D01*
X15165Y44110D01*
Y44100D01*
X15900D01*
Y44835D01*
D02*
G37*
G36*
X9110D02*
X9100D01*
Y44100D01*
X9835D01*
Y44110D01*
X9778Y44322D01*
X9668Y44513D01*
X9513Y44668D01*
X9322Y44778D01*
X9110Y44835D01*
D02*
G37*
G36*
X30835Y43900D02*
X30100D01*
Y43165D01*
X30110D01*
X30322Y43222D01*
X30513Y43332D01*
X30668Y43487D01*
X30778Y43678D01*
X30835Y43890D01*
Y43900D01*
D02*
G37*
G36*
X16835D02*
X16100D01*
Y43165D01*
X16110D01*
X16322Y43222D01*
X16513Y43332D01*
X16668Y43487D01*
X16778Y43678D01*
X16835Y43890D01*
Y43900D01*
D02*
G37*
G36*
X15900D02*
X15165D01*
Y43890D01*
X15222Y43678D01*
X15332Y43487D01*
X15487Y43332D01*
X15678Y43222D01*
X15890Y43165D01*
X15900D01*
Y43900D01*
D02*
G37*
G36*
X9835D02*
X9100D01*
Y43165D01*
X9110D01*
X9322Y43222D01*
X9513Y43332D01*
X9668Y43487D01*
X9778Y43678D01*
X9835Y43890D01*
Y43900D01*
D02*
G37*
G36*
X49850Y44450D02*
X48200D01*
Y42800D01*
X49850D01*
Y44450D01*
D02*
G37*
G36*
X48000D02*
X46350D01*
Y42800D01*
X48000D01*
Y44450D01*
D02*
G37*
G36*
X49850Y42600D02*
X48200D01*
Y40950D01*
X49850D01*
Y42600D01*
D02*
G37*
G36*
X48000D02*
X46350D01*
Y40950D01*
X48000D01*
Y42600D01*
D02*
G37*
G36*
X30475Y41283D02*
X29800D01*
Y40950D01*
X30888D01*
X30875Y41016D01*
X30781Y41156D01*
X30641Y41250D01*
X30475Y41283D01*
D02*
G37*
G36*
X37812Y41746D02*
X37780D01*
Y40846D01*
X38680D01*
Y40878D01*
X38612Y41132D01*
X38480Y41360D01*
X38294Y41546D01*
X38066Y41678D01*
X37812Y41746D01*
D02*
G37*
G36*
X37580D02*
X37548D01*
X37294Y41678D01*
X37066Y41546D01*
X36880Y41360D01*
X36748Y41132D01*
X36680Y40878D01*
Y40846D01*
X37580D01*
Y41746D01*
D02*
G37*
G36*
X38680Y40646D02*
X37780D01*
Y39746D01*
X37812D01*
X38066Y39814D01*
X38294Y39946D01*
X38480Y40132D01*
X38612Y40360D01*
X38680Y40615D01*
Y40646D01*
D02*
G37*
G36*
X37580D02*
X36680D01*
Y40615D01*
X36748Y40360D01*
X36880Y40132D01*
X37066Y39946D01*
X37294Y39814D01*
X37548Y39746D01*
X37580D01*
Y40646D01*
D02*
G37*
G36*
X15403Y42915D02*
X15027D01*
X14659Y42842D01*
X14313Y42698D01*
X14001Y42490D01*
X13735Y42224D01*
X13527Y41912D01*
X13383Y41566D01*
X13310Y41198D01*
Y40822D01*
X13383Y40454D01*
X13527Y40108D01*
X13735Y39796D01*
X14001Y39530D01*
X14313Y39322D01*
X14659Y39178D01*
X15027Y39105D01*
X15403D01*
X15771Y39178D01*
X16117Y39322D01*
X16429Y39530D01*
X16695Y39796D01*
X16903Y40108D01*
X17047Y40454D01*
X17120Y40822D01*
Y41198D01*
X17047Y41566D01*
X16903Y41912D01*
X16695Y42224D01*
X16429Y42490D01*
X16117Y42698D01*
X15771Y42842D01*
X15403Y42915D01*
D02*
G37*
G36*
X33610Y37835D02*
X33600D01*
Y37100D01*
X34335D01*
Y37110D01*
X34278Y37322D01*
X34168Y37513D01*
X34013Y37668D01*
X33822Y37778D01*
X33610Y37835D01*
D02*
G37*
G36*
X33400D02*
X33390D01*
X33178Y37778D01*
X32987Y37668D01*
X32832Y37513D01*
X32722Y37322D01*
X32665Y37110D01*
Y37100D01*
X33400D01*
Y37835D01*
D02*
G37*
G36*
X12610D02*
X12600D01*
Y37100D01*
X13335D01*
Y37110D01*
X13278Y37322D01*
X13168Y37513D01*
X13013Y37668D01*
X12822Y37778D01*
X12610Y37835D01*
D02*
G37*
G36*
X12400D02*
X12390D01*
X12178Y37778D01*
X11987Y37668D01*
X11832Y37513D01*
X11722Y37322D01*
X11665Y37110D01*
Y37100D01*
X12400D01*
Y37835D01*
D02*
G37*
G36*
X9500Y38215D02*
X7500D01*
Y37100D01*
X9500D01*
Y38215D01*
D02*
G37*
G36*
X7300D02*
X5300D01*
Y37100D01*
X7300D01*
Y38215D01*
D02*
G37*
G36*
X36750Y37302D02*
X36000D01*
Y36777D01*
X36750D01*
Y37302D01*
D02*
G37*
G36*
X35800D02*
X35050D01*
Y36777D01*
X35800D01*
Y37302D01*
D02*
G37*
G36*
X34335Y36900D02*
X33600D01*
Y36165D01*
X33610D01*
X33822Y36222D01*
X34013Y36332D01*
X34168Y36487D01*
X34278Y36678D01*
X34335Y36890D01*
Y36900D01*
D02*
G37*
G36*
X33400D02*
X32665D01*
Y36890D01*
X32722Y36678D01*
X32832Y36487D01*
X32987Y36332D01*
X33178Y36222D01*
X33390Y36165D01*
X33400D01*
Y36900D01*
D02*
G37*
G36*
X13335D02*
X12600D01*
Y36165D01*
X12610D01*
X12822Y36222D01*
X13013Y36332D01*
X13168Y36487D01*
X13278Y36678D01*
X13335Y36890D01*
Y36900D01*
D02*
G37*
G36*
X12400D02*
X11665D01*
Y36890D01*
X11722Y36678D01*
X11832Y36487D01*
X11987Y36332D01*
X12178Y36222D01*
X12390Y36165D01*
X12400D01*
Y36900D01*
D02*
G37*
G36*
X36750Y36577D02*
X36000D01*
Y36052D01*
X36750D01*
Y36577D01*
D02*
G37*
G36*
X35800D02*
X35050D01*
Y36052D01*
X35800D01*
Y36577D01*
D02*
G37*
G36*
X57249Y37505D02*
X57051D01*
X56861Y37454D01*
X56689Y37355D01*
X56550Y37216D01*
X56451Y37044D01*
X56400Y36854D01*
Y36656D01*
X56451Y36466D01*
X56550Y36294D01*
X56689Y36155D01*
X56861Y36056D01*
X57051Y36005D01*
X57249D01*
X57439Y36056D01*
X57611Y36155D01*
X57750Y36294D01*
X57849Y36466D01*
X57900Y36656D01*
Y36854D01*
X57849Y37044D01*
X57750Y37216D01*
X57611Y37355D01*
X57439Y37454D01*
X57249Y37505D01*
D02*
G37*
G36*
X55249D02*
X55051D01*
X54861Y37454D01*
X54689Y37355D01*
X54550Y37216D01*
X54451Y37044D01*
X54400Y36854D01*
Y36656D01*
X54451Y36466D01*
X54550Y36294D01*
X54689Y36155D01*
X54861Y36056D01*
X55051Y36005D01*
X55249D01*
X55439Y36056D01*
X55611Y36155D01*
X55750Y36294D01*
X55849Y36466D01*
X55900Y36656D01*
Y36854D01*
X55849Y37044D01*
X55750Y37216D01*
X55611Y37355D01*
X55439Y37454D01*
X55249Y37505D01*
D02*
G37*
G36*
X53249D02*
X53051D01*
X52861Y37454D01*
X52689Y37355D01*
X52550Y37216D01*
X52451Y37044D01*
X52400Y36854D01*
Y36656D01*
X52451Y36466D01*
X52550Y36294D01*
X52689Y36155D01*
X52861Y36056D01*
X53051Y36005D01*
X53249D01*
X53439Y36056D01*
X53611Y36155D01*
X53750Y36294D01*
X53849Y36466D01*
X53900Y36656D01*
Y36854D01*
X53849Y37044D01*
X53750Y37216D01*
X53611Y37355D01*
X53439Y37454D01*
X53249Y37505D01*
D02*
G37*
G36*
X51249D02*
X51051D01*
X50861Y37454D01*
X50689Y37355D01*
X50550Y37216D01*
X50451Y37044D01*
X50400Y36854D01*
Y36656D01*
X50451Y36466D01*
X50550Y36294D01*
X50689Y36155D01*
X50861Y36056D01*
X51051Y36005D01*
X51249D01*
X51439Y36056D01*
X51611Y36155D01*
X51750Y36294D01*
X51849Y36466D01*
X51900Y36656D01*
Y36854D01*
X51849Y37044D01*
X51750Y37216D01*
X51611Y37355D01*
X51439Y37454D01*
X51249Y37505D01*
D02*
G37*
G36*
X47249D02*
X47051D01*
X46861Y37454D01*
X46689Y37355D01*
X46550Y37216D01*
X46451Y37044D01*
X46400Y36854D01*
Y36656D01*
X46451Y36466D01*
X46550Y36294D01*
X46689Y36155D01*
X46861Y36056D01*
X47051Y36005D01*
X47249D01*
X47439Y36056D01*
X47611Y36155D01*
X47750Y36294D01*
X47849Y36466D01*
X47900Y36656D01*
Y36854D01*
X47849Y37044D01*
X47750Y37216D01*
X47611Y37355D01*
X47439Y37454D01*
X47249Y37505D01*
D02*
G37*
G36*
X43249D02*
X43051D01*
X42861Y37454D01*
X42689Y37355D01*
X42550Y37216D01*
X42451Y37044D01*
X42400Y36854D01*
Y36656D01*
X42451Y36466D01*
X42550Y36294D01*
X42689Y36155D01*
X42861Y36056D01*
X43051Y36005D01*
X43249D01*
X43439Y36056D01*
X43611Y36155D01*
X43750Y36294D01*
X43849Y36466D01*
X43900Y36656D01*
Y36854D01*
X43849Y37044D01*
X43750Y37216D01*
X43611Y37355D01*
X43439Y37454D01*
X43249Y37505D01*
D02*
G37*
G36*
X41249D02*
X41051D01*
X40861Y37454D01*
X40689Y37355D01*
X40550Y37216D01*
X40451Y37044D01*
X40400Y36854D01*
Y36656D01*
X40451Y36466D01*
X40550Y36294D01*
X40689Y36155D01*
X40861Y36056D01*
X41051Y36005D01*
X41249D01*
X41439Y36056D01*
X41611Y36155D01*
X41750Y36294D01*
X41849Y36466D01*
X41900Y36656D01*
Y36854D01*
X41849Y37044D01*
X41750Y37216D01*
X41611Y37355D01*
X41439Y37454D01*
X41249Y37505D01*
D02*
G37*
G36*
X9500Y36900D02*
X7500D01*
Y35785D01*
X9500D01*
Y36900D01*
D02*
G37*
G36*
X7300D02*
X5300D01*
Y35785D01*
X7300D01*
Y36900D01*
D02*
G37*
G36*
X11148Y32546D02*
X10872D01*
X10605Y32475D01*
X10365Y32336D01*
X10170Y32141D01*
X10032Y31902D01*
X9960Y31634D01*
Y31358D01*
X10032Y31091D01*
X10170Y30852D01*
X10365Y30656D01*
X10605Y30518D01*
X10872Y30446D01*
X11148D01*
X11415Y30518D01*
X11655Y30656D01*
X11850Y30852D01*
X11988Y31091D01*
X12060Y31358D01*
Y31634D01*
X11988Y31902D01*
X11850Y32141D01*
X11655Y32336D01*
X11415Y32475D01*
X11148Y32546D01*
D02*
G37*
G36*
X51110Y30835D02*
X51100D01*
Y30100D01*
X51835D01*
Y30110D01*
X51778Y30322D01*
X51668Y30513D01*
X51513Y30668D01*
X51322Y30778D01*
X51110Y30835D01*
D02*
G37*
G36*
X50900D02*
X50890D01*
X50678Y30778D01*
X50487Y30668D01*
X50332Y30513D01*
X50222Y30322D01*
X50165Y30110D01*
Y30100D01*
X50900D01*
Y30835D01*
D02*
G37*
G36*
X44110D02*
X44100D01*
Y30100D01*
X44835D01*
Y30110D01*
X44778Y30322D01*
X44668Y30513D01*
X44513Y30668D01*
X44322Y30778D01*
X44110Y30835D01*
D02*
G37*
G36*
X9110D02*
X9100D01*
Y30100D01*
X9835D01*
Y30110D01*
X9778Y30322D01*
X9668Y30513D01*
X9513Y30668D01*
X9322Y30778D01*
X9110Y30835D01*
D02*
G37*
G36*
X8900D02*
X8890D01*
X8678Y30778D01*
X8487Y30668D01*
X8332Y30513D01*
X8222Y30322D01*
X8165Y30110D01*
Y30100D01*
X8900D01*
Y30835D01*
D02*
G37*
G36*
X2110D02*
X2100D01*
Y30100D01*
X2835D01*
Y30110D01*
X2778Y30322D01*
X2668Y30513D01*
X2513Y30668D01*
X2322Y30778D01*
X2110Y30835D01*
D02*
G37*
G36*
X1900D02*
X1890D01*
X1678Y30778D01*
X1487Y30668D01*
X1332Y30513D01*
X1222Y30322D01*
X1165Y30110D01*
Y30100D01*
X1900D01*
Y30835D01*
D02*
G37*
G36*
X51835Y29900D02*
X51100D01*
Y29165D01*
X51110D01*
X51322Y29222D01*
X51513Y29332D01*
X51668Y29487D01*
X51778Y29678D01*
X51835Y29890D01*
Y29900D01*
D02*
G37*
G36*
X50900D02*
X50165D01*
Y29890D01*
X50222Y29678D01*
X50332Y29487D01*
X50487Y29332D01*
X50678Y29222D01*
X50890Y29165D01*
X50900D01*
Y29900D01*
D02*
G37*
G36*
X44835D02*
X44100D01*
Y29165D01*
X44110D01*
X44322Y29222D01*
X44513Y29332D01*
X44668Y29487D01*
X44778Y29678D01*
X44835Y29890D01*
Y29900D01*
D02*
G37*
G36*
X43900D02*
X43165D01*
Y29890D01*
X43222Y29678D01*
X43332Y29487D01*
X43487Y29332D01*
X43678Y29222D01*
X43890Y29165D01*
X43900D01*
Y29900D01*
D02*
G37*
G36*
X9835D02*
X9100D01*
Y29165D01*
X9110D01*
X9322Y29222D01*
X9513Y29332D01*
X9668Y29487D01*
X9778Y29678D01*
X9835Y29890D01*
Y29900D01*
D02*
G37*
G36*
X8900D02*
X8165D01*
Y29890D01*
X8222Y29678D01*
X8332Y29487D01*
X8487Y29332D01*
X8678Y29222D01*
X8890Y29165D01*
X8900D01*
Y29900D01*
D02*
G37*
G36*
X2835D02*
X2100D01*
Y29165D01*
X2110D01*
X2322Y29222D01*
X2513Y29332D01*
X2668Y29487D01*
X2778Y29678D01*
X2835Y29890D01*
Y29900D01*
D02*
G37*
G36*
X1900D02*
X1165D01*
Y29890D01*
X1222Y29678D01*
X1332Y29487D01*
X1487Y29332D01*
X1678Y29222D01*
X1890Y29165D01*
X1900D01*
Y29900D01*
D02*
G37*
G36*
X37580Y26746D02*
X37548D01*
X37294Y26678D01*
X37066Y26546D01*
X36880Y26360D01*
X36748Y26132D01*
X36680Y25878D01*
Y25846D01*
X37580D01*
Y26746D01*
D02*
G37*
G36*
X35265Y26696D02*
X35015D01*
X34773Y26631D01*
X34557Y26506D01*
X34380Y26330D01*
X34255Y26113D01*
X34190Y25871D01*
Y25621D01*
X34255Y25380D01*
X34380Y25163D01*
X34557Y24986D01*
X34773Y24861D01*
X35015Y24796D01*
X35265D01*
X35507Y24861D01*
X35723Y24986D01*
X35900Y25163D01*
X36025Y25380D01*
X36090Y25621D01*
Y25871D01*
X36025Y26113D01*
X35900Y26330D01*
X35723Y26506D01*
X35507Y26631D01*
X35265Y26696D01*
D02*
G37*
G36*
X28117Y26567D02*
X26052D01*
Y24502D01*
X28117D01*
Y26567D01*
D02*
G37*
G36*
X25852D02*
X23787D01*
Y24502D01*
X25852D01*
Y26567D01*
D02*
G37*
G36*
X33215Y23587D02*
X33211D01*
Y23162D01*
X33636D01*
Y23167D01*
X33556Y23360D01*
X33408Y23507D01*
X33215Y23587D01*
D02*
G37*
G36*
X33011D02*
X33006D01*
X32813Y23507D01*
X32666Y23360D01*
X32586Y23167D01*
Y23162D01*
X33011D01*
Y23587D01*
D02*
G37*
G36*
X54610Y23835D02*
X54600D01*
Y23100D01*
X55335D01*
Y23110D01*
X55278Y23322D01*
X55168Y23513D01*
X55013Y23668D01*
X54822Y23778D01*
X54610Y23835D01*
D02*
G37*
G36*
X54400D02*
X54390D01*
X54178Y23778D01*
X53987Y23668D01*
X53832Y23513D01*
X53722Y23322D01*
X53665Y23110D01*
Y23100D01*
X54400D01*
Y23835D01*
D02*
G37*
G36*
X47610D02*
X47600D01*
Y23100D01*
X48335D01*
Y23110D01*
X48278Y23322D01*
X48168Y23513D01*
X48013Y23668D01*
X47822Y23778D01*
X47610Y23835D01*
D02*
G37*
G36*
X47400D02*
X47390D01*
X47178Y23778D01*
X46987Y23668D01*
X46832Y23513D01*
X46722Y23322D01*
X46665Y23110D01*
Y23100D01*
X47400D01*
Y23835D01*
D02*
G37*
G36*
X12610D02*
X12600D01*
Y23100D01*
X13335D01*
Y23110D01*
X13278Y23322D01*
X13168Y23513D01*
X13013Y23668D01*
X12822Y23778D01*
X12610Y23835D01*
D02*
G37*
G36*
X12400D02*
X12390D01*
X12178Y23778D01*
X11987Y23668D01*
X11832Y23513D01*
X11722Y23322D01*
X11665Y23110D01*
Y23100D01*
X12400D01*
Y23835D01*
D02*
G37*
G36*
X5610D02*
X5600D01*
Y23100D01*
X6335D01*
Y23110D01*
X6278Y23322D01*
X6168Y23513D01*
X6013Y23668D01*
X5822Y23778D01*
X5610Y23835D01*
D02*
G37*
G36*
X5400D02*
X5390D01*
X5178Y23778D01*
X4987Y23668D01*
X4832Y23513D01*
X4722Y23322D01*
X4665Y23110D01*
Y23100D01*
X5400D01*
Y23835D01*
D02*
G37*
G36*
X16148Y32546D02*
X15872D01*
X15605Y32475D01*
X15365Y32336D01*
X15170Y32141D01*
X15032Y31902D01*
X14960Y31634D01*
Y31358D01*
X15032Y31091D01*
X15170Y30852D01*
X15365Y30656D01*
X15605Y30518D01*
X15728Y30485D01*
Y25251D01*
X15728Y25251D01*
X15749Y25143D01*
X15810Y25052D01*
X17665Y23197D01*
X17648Y23157D01*
Y22968D01*
X17720Y22793D01*
X17854Y22660D01*
X18028Y22587D01*
X18217D01*
X18392Y22660D01*
X18526Y22793D01*
X18598Y22968D01*
Y23157D01*
X18526Y23331D01*
X18392Y23465D01*
X18217Y23537D01*
X18123D01*
X16292Y25368D01*
Y30485D01*
X16415Y30518D01*
X16655Y30656D01*
X16850Y30852D01*
X16988Y31091D01*
X17060Y31358D01*
Y31634D01*
X16988Y31902D01*
X16850Y32141D01*
X16655Y32336D01*
X16415Y32475D01*
X16148Y32546D01*
D02*
G37*
G36*
X33636Y22962D02*
X33211D01*
Y22537D01*
X33215D01*
X33408Y22617D01*
X33556Y22765D01*
X33636Y22958D01*
Y22962D01*
D02*
G37*
G36*
X33011D02*
X32586D01*
Y22958D01*
X32666Y22765D01*
X32813Y22617D01*
X33006Y22537D01*
X33011D01*
Y22962D01*
D02*
G37*
G36*
X28117Y24302D02*
X26052D01*
Y22237D01*
X28117D01*
Y24302D01*
D02*
G37*
G36*
X25852D02*
X23787D01*
Y22237D01*
X25852D01*
Y24302D01*
D02*
G37*
G36*
X55335Y22900D02*
X54600D01*
Y22165D01*
X54610D01*
X54822Y22222D01*
X55013Y22332D01*
X55168Y22487D01*
X55278Y22678D01*
X55335Y22890D01*
Y22900D01*
D02*
G37*
G36*
X54400D02*
X53665D01*
Y22890D01*
X53722Y22678D01*
X53832Y22487D01*
X53987Y22332D01*
X54178Y22222D01*
X54390Y22165D01*
X54400D01*
Y22900D01*
D02*
G37*
G36*
X48335D02*
X47600D01*
Y22165D01*
X47610D01*
X47822Y22222D01*
X48013Y22332D01*
X48168Y22487D01*
X48278Y22678D01*
X48335Y22890D01*
Y22900D01*
D02*
G37*
G36*
X47400D02*
X46665D01*
Y22890D01*
X46722Y22678D01*
X46832Y22487D01*
X46987Y22332D01*
X47178Y22222D01*
X47390Y22165D01*
X47400D01*
Y22900D01*
D02*
G37*
G36*
X13335D02*
X12600D01*
Y22165D01*
X12610D01*
X12822Y22222D01*
X13013Y22332D01*
X13168Y22487D01*
X13278Y22678D01*
X13335Y22890D01*
Y22900D01*
D02*
G37*
G36*
X12400D02*
X11665D01*
Y22890D01*
X11722Y22678D01*
X11832Y22487D01*
X11987Y22332D01*
X12178Y22222D01*
X12390Y22165D01*
X12400D01*
Y22900D01*
D02*
G37*
G36*
X6335D02*
X5600D01*
Y22165D01*
X5610D01*
X5822Y22222D01*
X6013Y22332D01*
X6168Y22487D01*
X6278Y22678D01*
X6335Y22890D01*
Y22900D01*
D02*
G37*
G36*
X5400D02*
X4665D01*
Y22890D01*
X4722Y22678D01*
X4832Y22487D01*
X4987Y22332D01*
X5178Y22222D01*
X5390Y22165D01*
X5400D01*
Y22900D01*
D02*
G37*
G36*
X33204Y21365D02*
X33199D01*
Y20940D01*
X33624D01*
Y20944D01*
X33544Y21137D01*
X33397Y21285D01*
X33204Y21365D01*
D02*
G37*
G36*
X32999D02*
X32995D01*
X32802Y21285D01*
X32654Y21137D01*
X32574Y20944D01*
Y20940D01*
X32999D01*
Y21365D01*
D02*
G37*
G36*
Y20740D02*
X32574D01*
Y20735D01*
X32654Y20543D01*
X32802Y20395D01*
X32995Y20315D01*
X32999D01*
Y20740D01*
D02*
G37*
G36*
X16148Y20046D02*
X15872D01*
X15605Y19975D01*
X15365Y19836D01*
X15170Y19641D01*
X15032Y19402D01*
X14960Y19134D01*
Y18858D01*
X15032Y18591D01*
X15170Y18352D01*
X15365Y18156D01*
X15605Y18018D01*
X15872Y17946D01*
X16148D01*
X16415Y18018D01*
X16655Y18156D01*
X16850Y18352D01*
X16988Y18591D01*
X17060Y18858D01*
Y19134D01*
X16988Y19402D01*
X16850Y19641D01*
X16655Y19836D01*
X16415Y19975D01*
X16148Y20046D01*
D02*
G37*
G36*
X11148D02*
X10872D01*
X10605Y19975D01*
X10365Y19836D01*
X10170Y19641D01*
X10032Y19402D01*
X9960Y19134D01*
Y18858D01*
X10032Y18591D01*
X10170Y18352D01*
X10365Y18156D01*
X10605Y18018D01*
X10872Y17946D01*
X11148D01*
X11415Y18018D01*
X11655Y18156D01*
X11850Y18352D01*
X11988Y18591D01*
X12060Y18858D01*
Y19134D01*
X11988Y19402D01*
X11850Y19641D01*
X11655Y19836D01*
X11415Y19975D01*
X11148Y20046D01*
D02*
G37*
G36*
X44110Y16835D02*
X44100D01*
Y16100D01*
X44835D01*
Y16110D01*
X44778Y16322D01*
X44668Y16513D01*
X44513Y16668D01*
X44322Y16778D01*
X44110Y16835D01*
D02*
G37*
G36*
X43900D02*
X43890D01*
X43678Y16778D01*
X43487Y16668D01*
X43332Y16513D01*
X43222Y16322D01*
X43165Y16110D01*
Y16100D01*
X43900D01*
Y16835D01*
D02*
G37*
G36*
X16110D02*
X16100D01*
Y16100D01*
X16835D01*
Y16110D01*
X16778Y16322D01*
X16668Y16513D01*
X16513Y16668D01*
X16322Y16778D01*
X16110Y16835D01*
D02*
G37*
G36*
X15900D02*
X15890D01*
X15678Y16778D01*
X15487Y16668D01*
X15332Y16513D01*
X15222Y16322D01*
X15165Y16110D01*
Y16100D01*
X15900D01*
Y16835D01*
D02*
G37*
G36*
X9110D02*
X9100D01*
Y16100D01*
X9835D01*
Y16110D01*
X9778Y16322D01*
X9668Y16513D01*
X9513Y16668D01*
X9322Y16778D01*
X9110Y16835D01*
D02*
G37*
G36*
X8900D02*
X8890D01*
X8678Y16778D01*
X8487Y16668D01*
X8332Y16513D01*
X8222Y16322D01*
X8165Y16110D01*
Y16100D01*
X8900D01*
Y16835D01*
D02*
G37*
G36*
X2110D02*
X2100D01*
Y16100D01*
X2835D01*
Y16110D01*
X2778Y16322D01*
X2668Y16513D01*
X2513Y16668D01*
X2322Y16778D01*
X2110Y16835D01*
D02*
G37*
G36*
X1900D02*
X1890D01*
X1678Y16778D01*
X1487Y16668D01*
X1332Y16513D01*
X1222Y16322D01*
X1165Y16110D01*
Y16100D01*
X1900D01*
Y16835D01*
D02*
G37*
G36*
X16835Y15900D02*
X16100D01*
Y15165D01*
X16110D01*
X16322Y15222D01*
X16513Y15332D01*
X16668Y15487D01*
X16778Y15678D01*
X16835Y15890D01*
Y15900D01*
D02*
G37*
G36*
X15900D02*
X15165D01*
Y15890D01*
X15222Y15678D01*
X15332Y15487D01*
X15487Y15332D01*
X15678Y15222D01*
X15890Y15165D01*
X15900D01*
Y15900D01*
D02*
G37*
G36*
X9835D02*
X9100D01*
Y15165D01*
X9110D01*
X9322Y15222D01*
X9513Y15332D01*
X9668Y15487D01*
X9778Y15678D01*
X9835Y15890D01*
Y15900D01*
D02*
G37*
G36*
X8900D02*
X8165D01*
Y15890D01*
X8222Y15678D01*
X8332Y15487D01*
X8487Y15332D01*
X8678Y15222D01*
X8890Y15165D01*
X8900D01*
Y15900D01*
D02*
G37*
G36*
X2835D02*
X2100D01*
Y15165D01*
X2110D01*
X2322Y15222D01*
X2513Y15332D01*
X2668Y15487D01*
X2778Y15678D01*
X2835Y15890D01*
Y15900D01*
D02*
G37*
G36*
X1900D02*
X1165D01*
Y15890D01*
X1222Y15678D01*
X1332Y15487D01*
X1487Y15332D01*
X1678Y15222D01*
X1890Y15165D01*
X1900D01*
Y15900D01*
D02*
G37*
G36*
X41255Y15555D02*
X41250D01*
Y14855D01*
X41950D01*
Y14860D01*
X41895Y15064D01*
X41790Y15246D01*
X41641Y15395D01*
X41459Y15500D01*
X41255Y15555D01*
D02*
G37*
G36*
X41050D02*
X41045D01*
X40841Y15500D01*
X40659Y15395D01*
X40510Y15246D01*
X40405Y15064D01*
X40350Y14860D01*
Y14855D01*
X41050D01*
Y15555D01*
D02*
G37*
G36*
X35527Y20287D02*
X35339D01*
X35164Y20215D01*
X35030Y20081D01*
X34958Y19906D01*
Y19718D01*
X35030Y19543D01*
X35164Y19409D01*
X35339Y19337D01*
X35527D01*
X35702Y19409D01*
X35822Y19530D01*
X51976D01*
X56455Y15051D01*
X56451Y15044D01*
X56400Y14854D01*
Y14656D01*
X56451Y14466D01*
X56493Y14393D01*
X52000Y9900D01*
X51939Y9808D01*
X51918Y9700D01*
X51918Y9700D01*
Y6244D01*
X51918Y6244D01*
X51939Y6136D01*
X52000Y6044D01*
X53194Y4851D01*
Y1150D01*
X55524D01*
Y5250D01*
X53593D01*
X52482Y6361D01*
Y9583D01*
X56935Y14036D01*
X57051Y14005D01*
X57249D01*
X57439Y14056D01*
X57611Y14155D01*
X57750Y14294D01*
X57849Y14466D01*
X57900Y14656D01*
Y14854D01*
X57849Y15044D01*
X57750Y15216D01*
X57611Y15355D01*
X57439Y15454D01*
X57249Y15505D01*
X57051D01*
X56861Y15454D01*
X56854Y15450D01*
X52293Y20012D01*
X52201Y20073D01*
X52093Y20094D01*
X52093Y20094D01*
X35822D01*
X35702Y20215D01*
X35527Y20287D01*
D02*
G37*
G36*
X38194Y18890D02*
X38006D01*
X37831Y18818D01*
X37697Y18684D01*
X37625Y18509D01*
Y18321D01*
X37697Y18146D01*
X37831Y18012D01*
X38006Y17940D01*
X38194D01*
X38369Y18012D01*
X38489Y18133D01*
X51373D01*
X54455Y15051D01*
X54451Y15044D01*
X54400Y14854D01*
Y14656D01*
X54451Y14466D01*
X54455Y14459D01*
X48300Y8305D01*
X48239Y8213D01*
X48218Y8105D01*
X48218Y8105D01*
Y5250D01*
X47335D01*
Y1150D01*
X49665D01*
Y5250D01*
X48782D01*
Y7988D01*
X54854Y14060D01*
X54861Y14056D01*
X55051Y14005D01*
X55249D01*
X55439Y14056D01*
X55611Y14155D01*
X55750Y14294D01*
X55849Y14466D01*
X55900Y14656D01*
Y14854D01*
X55849Y15044D01*
X55750Y15216D01*
X55611Y15355D01*
X55439Y15454D01*
X55249Y15505D01*
X55051D01*
X54861Y15454D01*
X54854Y15450D01*
X51690Y18615D01*
X51598Y18676D01*
X51490Y18697D01*
X51490Y18697D01*
X38489D01*
X38369Y18818D01*
X38194Y18890D01*
D02*
G37*
G36*
X53249Y15505D02*
X53051D01*
X52861Y15454D01*
X52689Y15355D01*
X52550Y15216D01*
X52451Y15044D01*
X52400Y14854D01*
Y14656D01*
X52451Y14466D01*
X52550Y14294D01*
X52689Y14155D01*
X52861Y14056D01*
X53051Y14005D01*
X53249D01*
X53439Y14056D01*
X53611Y14155D01*
X53750Y14294D01*
X53849Y14466D01*
X53900Y14656D01*
Y14854D01*
X53849Y15044D01*
X53750Y15216D01*
X53611Y15355D01*
X53439Y15454D01*
X53249Y15505D01*
D02*
G37*
G36*
X49249D02*
X49051D01*
X48861Y15454D01*
X48689Y15355D01*
X48550Y15216D01*
X48451Y15044D01*
X48400Y14854D01*
Y14656D01*
X48451Y14466D01*
X48550Y14294D01*
X48689Y14155D01*
X48861Y14056D01*
X49051Y14005D01*
X49249D01*
X49439Y14056D01*
X49611Y14155D01*
X49750Y14294D01*
X49849Y14466D01*
X49900Y14656D01*
Y14854D01*
X49849Y15044D01*
X49750Y15216D01*
X49611Y15355D01*
X49439Y15454D01*
X49249Y15505D01*
D02*
G37*
G36*
X47249D02*
X47051D01*
X46861Y15454D01*
X46689Y15355D01*
X46550Y15216D01*
X46451Y15044D01*
X46400Y14854D01*
Y14656D01*
X46451Y14466D01*
X46550Y14294D01*
X46689Y14155D01*
X46861Y14056D01*
X47051Y14005D01*
X47249D01*
X47439Y14056D01*
X47611Y14155D01*
X47750Y14294D01*
X47849Y14466D01*
X47900Y14656D01*
Y14854D01*
X47849Y15044D01*
X47750Y15216D01*
X47611Y15355D01*
X47439Y15454D01*
X47249Y15505D01*
D02*
G37*
G36*
X44835Y15900D02*
X44100D01*
Y15165D01*
X44110D01*
X44322Y15222D01*
X44409Y15272D01*
X44519Y15162D01*
X44451Y15044D01*
X44400Y14854D01*
Y14656D01*
X44451Y14466D01*
X44550Y14294D01*
X44689Y14155D01*
X44861Y14056D01*
X45051Y14005D01*
X45249D01*
X45439Y14056D01*
X45611Y14155D01*
X45750Y14294D01*
X45849Y14466D01*
X45900Y14656D01*
Y14854D01*
X45849Y15044D01*
X45750Y15216D01*
X45611Y15355D01*
X45439Y15454D01*
X45249Y15505D01*
X45051D01*
X44861Y15454D01*
X44803Y15421D01*
X44693Y15530D01*
X44778Y15678D01*
X44835Y15890D01*
Y15900D01*
D02*
G37*
G36*
X43900D02*
X43165D01*
Y15890D01*
X43222Y15678D01*
X43235Y15655D01*
X43148Y15505D01*
X43051D01*
X42861Y15454D01*
X42689Y15355D01*
X42550Y15216D01*
X42451Y15044D01*
X42400Y14854D01*
Y14656D01*
X42451Y14466D01*
X42550Y14294D01*
X42689Y14155D01*
X42861Y14056D01*
X43051Y14005D01*
X43249D01*
X43439Y14056D01*
X43611Y14155D01*
X43750Y14294D01*
X43849Y14466D01*
X43900Y14656D01*
Y14854D01*
X43855Y15021D01*
X43861Y15045D01*
X43886Y15087D01*
X43900Y15104D01*
Y15900D01*
D02*
G37*
G36*
X41950Y14655D02*
X41250D01*
Y13955D01*
X41255D01*
X41459Y14010D01*
X41641Y14115D01*
X41790Y14264D01*
X41895Y14446D01*
X41950Y14650D01*
Y14655D01*
D02*
G37*
G36*
X41050D02*
X40350D01*
Y14650D01*
X40405Y14446D01*
X40510Y14264D01*
X40659Y14115D01*
X40841Y14010D01*
X41045Y13955D01*
X41050D01*
Y14655D01*
D02*
G37*
G36*
X37812Y11746D02*
X37780D01*
Y10846D01*
X38680D01*
Y10878D01*
X38612Y11132D01*
X38480Y11360D01*
X38294Y11546D01*
X38066Y11678D01*
X37812Y11746D01*
D02*
G37*
G36*
X37580D02*
X37548D01*
X37294Y11678D01*
X37066Y11546D01*
X36880Y11360D01*
X36748Y11132D01*
X36680Y10878D01*
Y10846D01*
X37580D01*
Y11746D01*
D02*
G37*
G36*
X38680Y10646D02*
X37780D01*
Y9746D01*
X37812D01*
X38066Y9814D01*
X38294Y9946D01*
X38480Y10132D01*
X38612Y10360D01*
X38680Y10615D01*
Y10646D01*
D02*
G37*
G36*
X37580D02*
X36680D01*
Y10615D01*
X36748Y10360D01*
X36880Y10132D01*
X37066Y9946D01*
X37294Y9814D01*
X37548Y9746D01*
X37580D01*
Y10646D01*
D02*
G37*
G36*
X26610Y9835D02*
X26600D01*
Y9100D01*
X27335D01*
Y9110D01*
X27278Y9322D01*
X27168Y9513D01*
X27013Y9668D01*
X26822Y9778D01*
X26610Y9835D01*
D02*
G37*
G36*
X26400D02*
X26390D01*
X26178Y9778D01*
X25987Y9668D01*
X25832Y9513D01*
X25722Y9322D01*
X25665Y9110D01*
Y9100D01*
X26400D01*
Y9835D01*
D02*
G37*
G36*
X19610D02*
X19600D01*
Y9100D01*
X20335D01*
Y9110D01*
X20278Y9322D01*
X20168Y9513D01*
X20013Y9668D01*
X19822Y9778D01*
X19610Y9835D01*
D02*
G37*
G36*
X19400D02*
X19390D01*
X19178Y9778D01*
X18987Y9668D01*
X18832Y9513D01*
X18722Y9322D01*
X18665Y9110D01*
Y9100D01*
X19400D01*
Y9835D01*
D02*
G37*
G36*
X12610D02*
X12600D01*
Y9100D01*
X13335D01*
Y9110D01*
X13278Y9322D01*
X13168Y9513D01*
X13013Y9668D01*
X12822Y9778D01*
X12610Y9835D01*
D02*
G37*
G36*
X12400D02*
X12390D01*
X12178Y9778D01*
X11987Y9668D01*
X11832Y9513D01*
X11722Y9322D01*
X11665Y9110D01*
Y9100D01*
X12400D01*
Y9835D01*
D02*
G37*
G36*
X5610D02*
X5600D01*
Y9100D01*
X6335D01*
Y9110D01*
X6278Y9322D01*
X6168Y9513D01*
X6013Y9668D01*
X5822Y9778D01*
X5610Y9835D01*
D02*
G37*
G36*
X5400D02*
X5390D01*
X5178Y9778D01*
X4987Y9668D01*
X4832Y9513D01*
X4722Y9322D01*
X4665Y9110D01*
Y9100D01*
X5400D01*
Y9835D01*
D02*
G37*
G36*
X56764Y9586D02*
X56739D01*
Y8736D01*
X57589D01*
Y8761D01*
X57524Y9003D01*
X57399Y9219D01*
X57222Y9396D01*
X57006Y9521D01*
X56764Y9586D01*
D02*
G37*
G36*
X56539D02*
X56514D01*
X56272Y9521D01*
X56056Y9396D01*
X55879Y9219D01*
X55754Y9003D01*
X55689Y8761D01*
Y8736D01*
X56539D01*
Y9586D01*
D02*
G37*
G36*
X15403Y12405D02*
X15027D01*
X14659Y12332D01*
X14313Y12188D01*
X14001Y11980D01*
X13735Y11714D01*
X13527Y11402D01*
X13383Y11056D01*
X13310Y10688D01*
Y10312D01*
X13383Y9944D01*
X13527Y9598D01*
X13735Y9286D01*
X14001Y9020D01*
X14313Y8812D01*
X14659Y8668D01*
X15027Y8595D01*
X15403D01*
X15771Y8668D01*
X16117Y8812D01*
X16429Y9020D01*
X16695Y9286D01*
X16903Y9598D01*
X17047Y9944D01*
X17120Y10312D01*
Y10688D01*
X17047Y11056D01*
X16903Y11402D01*
X16695Y11714D01*
X16429Y11980D01*
X16117Y12188D01*
X15771Y12332D01*
X15403Y12405D01*
D02*
G37*
G36*
X27335Y8900D02*
X26600D01*
Y8165D01*
X26610D01*
X26822Y8222D01*
X27013Y8332D01*
X27168Y8487D01*
X27278Y8678D01*
X27335Y8890D01*
Y8900D01*
D02*
G37*
G36*
X26400D02*
X25665D01*
Y8890D01*
X25722Y8678D01*
X25832Y8487D01*
X25987Y8332D01*
X26178Y8222D01*
X26390Y8165D01*
X26400D01*
Y8900D01*
D02*
G37*
G36*
X20335D02*
X19600D01*
Y8165D01*
X19610D01*
X19822Y8222D01*
X20013Y8332D01*
X20168Y8487D01*
X20278Y8678D01*
X20335Y8890D01*
Y8900D01*
D02*
G37*
G36*
X19400D02*
X18665D01*
Y8890D01*
X18722Y8678D01*
X18832Y8487D01*
X18987Y8332D01*
X19178Y8222D01*
X19390Y8165D01*
X19400D01*
Y8900D01*
D02*
G37*
G36*
X13335D02*
X12600D01*
Y8165D01*
X12610D01*
X12822Y8222D01*
X13013Y8332D01*
X13168Y8487D01*
X13278Y8678D01*
X13335Y8890D01*
Y8900D01*
D02*
G37*
G36*
X12400D02*
X11665D01*
Y8890D01*
X11722Y8678D01*
X11832Y8487D01*
X11987Y8332D01*
X12178Y8222D01*
X12390Y8165D01*
X12400D01*
Y8900D01*
D02*
G37*
G36*
X55259Y9536D02*
X53459D01*
Y7736D01*
X55259D01*
Y9536D01*
D02*
G37*
G36*
X57589Y8536D02*
X56739D01*
Y7686D01*
X56764D01*
X57006Y7751D01*
X57222Y7876D01*
X57399Y8053D01*
X57524Y8269D01*
X57589Y8511D01*
Y8536D01*
D02*
G37*
G36*
X56539D02*
X55689D01*
Y8511D01*
X55754Y8269D01*
X55879Y8053D01*
X56056Y7876D01*
X56272Y7751D01*
X56514Y7686D01*
X56539D01*
Y8536D01*
D02*
G37*
G36*
X59515Y5200D02*
X58400D01*
Y3200D01*
X59515D01*
Y5200D01*
D02*
G37*
G36*
X58200D02*
X57085D01*
Y3200D01*
X58200D01*
Y5200D01*
D02*
G37*
G36*
X37470Y3667D02*
X37438D01*
Y2767D01*
X38338D01*
Y2799D01*
X38270Y3053D01*
X38138Y3281D01*
X37952Y3467D01*
X37724Y3599D01*
X37470Y3667D01*
D02*
G37*
G36*
X37238D02*
X37206D01*
X36952Y3599D01*
X36724Y3467D01*
X36538Y3281D01*
X36406Y3053D01*
X36338Y2799D01*
Y2767D01*
X37238D01*
Y3667D01*
D02*
G37*
G36*
X44110Y2835D02*
X44100D01*
Y2100D01*
X44835D01*
Y2110D01*
X44778Y2322D01*
X44668Y2513D01*
X44513Y2668D01*
X44322Y2778D01*
X44110Y2835D01*
D02*
G37*
G36*
X30110D02*
X30100D01*
Y2100D01*
X30835D01*
Y2110D01*
X30778Y2322D01*
X30668Y2513D01*
X30513Y2668D01*
X30322Y2778D01*
X30110Y2835D01*
D02*
G37*
G36*
X29900D02*
X29890D01*
X29678Y2778D01*
X29487Y2668D01*
X29332Y2513D01*
X29222Y2322D01*
X29165Y2110D01*
Y2100D01*
X29900D01*
Y2835D01*
D02*
G37*
G36*
X16110D02*
X16100D01*
Y2100D01*
X16835D01*
Y2110D01*
X16778Y2322D01*
X16668Y2513D01*
X16513Y2668D01*
X16322Y2778D01*
X16110Y2835D01*
D02*
G37*
G36*
X15900D02*
X15890D01*
X15678Y2778D01*
X15487Y2668D01*
X15332Y2513D01*
X15222Y2322D01*
X15165Y2110D01*
Y2100D01*
X15900D01*
Y2835D01*
D02*
G37*
G36*
X9110D02*
X9100D01*
Y2100D01*
X9835D01*
Y2110D01*
X9778Y2322D01*
X9668Y2513D01*
X9513Y2668D01*
X9322Y2778D01*
X9110Y2835D01*
D02*
G37*
G36*
X34923Y3617D02*
X34673D01*
X34431Y3552D01*
X34215Y3427D01*
X34038Y3250D01*
X33913Y3034D01*
X33848Y2792D01*
Y2542D01*
X33913Y2300D01*
X34038Y2084D01*
X34215Y1907D01*
X34431Y1782D01*
X34673Y1717D01*
X34923D01*
X35165Y1782D01*
X35381Y1907D01*
X35558Y2084D01*
X35683Y2300D01*
X35748Y2542D01*
Y2792D01*
X35683Y3034D01*
X35558Y3250D01*
X35381Y3427D01*
X35165Y3552D01*
X34923Y3617D01*
D02*
G37*
G36*
X33208D02*
X31308D01*
Y1717D01*
X33208D01*
Y3617D01*
D02*
G37*
G36*
X38338Y2567D02*
X37438D01*
Y1667D01*
X37470D01*
X37724Y1735D01*
X37952Y1867D01*
X38138Y2053D01*
X38270Y2281D01*
X38338Y2535D01*
Y2567D01*
D02*
G37*
G36*
X37238D02*
X36338D01*
Y2535D01*
X36406Y2281D01*
X36538Y2053D01*
X36724Y1867D01*
X36952Y1735D01*
X37206Y1667D01*
X37238D01*
Y2567D01*
D02*
G37*
G36*
X44835Y1900D02*
X44100D01*
Y1165D01*
X44110D01*
X44322Y1222D01*
X44513Y1332D01*
X44668Y1487D01*
X44778Y1678D01*
X44835Y1890D01*
Y1900D01*
D02*
G37*
G36*
X30835D02*
X30100D01*
Y1165D01*
X30110D01*
X30322Y1222D01*
X30513Y1332D01*
X30668Y1487D01*
X30778Y1678D01*
X30835Y1890D01*
Y1900D01*
D02*
G37*
G36*
X29900D02*
X29165D01*
Y1890D01*
X29222Y1678D01*
X29332Y1487D01*
X29487Y1332D01*
X29678Y1222D01*
X29890Y1165D01*
X29900D01*
Y1900D01*
D02*
G37*
G36*
X16835D02*
X16100D01*
Y1165D01*
X16110D01*
X16322Y1222D01*
X16513Y1332D01*
X16668Y1487D01*
X16778Y1678D01*
X16835Y1890D01*
Y1900D01*
D02*
G37*
G36*
X15900D02*
X15165D01*
Y1890D01*
X15222Y1678D01*
X15332Y1487D01*
X15487Y1332D01*
X15678Y1222D01*
X15890Y1165D01*
X15900D01*
Y1900D01*
D02*
G37*
G36*
X9835D02*
X9100D01*
Y1165D01*
X9110D01*
X9322Y1222D01*
X9513Y1332D01*
X9668Y1487D01*
X9778Y1678D01*
X9835Y1890D01*
Y1900D01*
D02*
G37*
G36*
X59515Y3000D02*
X58400D01*
Y1000D01*
X59515D01*
Y3000D01*
D02*
G37*
G36*
X58200D02*
X57085D01*
Y1000D01*
X58200D01*
Y3000D01*
D02*
G37*
%LPD*%
G36*
X19345Y37168D02*
X19319Y37150D01*
X19319Y37150D01*
X18783Y36614D01*
X18032D01*
Y35014D01*
X19002D01*
X19083Y34892D01*
Y34704D01*
X19155Y34529D01*
X19289Y34395D01*
X19464Y34323D01*
X19652D01*
X19827Y34395D01*
X19961Y34529D01*
X20033Y34704D01*
Y34874D01*
X21177Y36018D01*
X21651D01*
X21719Y35868D01*
X21672Y35796D01*
X21643Y35650D01*
X21672Y35504D01*
X21722Y35429D01*
X21743Y35325D01*
X21722Y35221D01*
X21672Y35146D01*
X21643Y35000D01*
X21672Y34854D01*
X21722Y34779D01*
X21743Y34675D01*
X21722Y34571D01*
X21672Y34496D01*
X21643Y34350D01*
X21672Y34204D01*
X21722Y34129D01*
X21743Y34025D01*
X21722Y33921D01*
X21672Y33846D01*
X21643Y33700D01*
X21672Y33554D01*
X21722Y33479D01*
X21726Y33458D01*
X21682Y33340D01*
X21663Y33317D01*
X18916D01*
X18811Y33423D01*
X18636Y33495D01*
X18448D01*
X18273Y33423D01*
X18139Y33289D01*
X18067Y33114D01*
Y32926D01*
X18139Y32751D01*
X18273Y32617D01*
X18448Y32545D01*
X18636D01*
X18811Y32617D01*
X18945Y32751D01*
X18945Y32753D01*
X21629D01*
X21709Y32603D01*
X21672Y32546D01*
X21643Y32400D01*
X21672Y32254D01*
X21755Y32130D01*
X21879Y32047D01*
X22025Y32018D01*
X23575D01*
X23721Y32047D01*
X23730Y32053D01*
X25641D01*
X25773Y32079D01*
X25886Y32155D01*
X26085Y32354D01*
X26179Y32367D01*
X26274Y32354D01*
X26472Y32155D01*
X26585Y32079D01*
X26718Y32053D01*
X28770D01*
X28779Y32047D01*
X28925Y32018D01*
X30207D01*
X30265Y31879D01*
X28990Y30605D01*
X22312D01*
X22250Y30755D01*
X22289Y30794D01*
X22369Y30987D01*
Y30991D01*
X21319D01*
Y30987D01*
X21399Y30794D01*
X21547Y30646D01*
X21686Y30588D01*
X21731Y30445D01*
X21730Y30420D01*
X20630Y29321D01*
X20569Y29229D01*
X20562Y29194D01*
X20424Y29107D01*
X20398Y29104D01*
X20322Y29135D01*
X20134D01*
X19959Y29063D01*
X19825Y28929D01*
X19753Y28754D01*
Y28566D01*
X19825Y28391D01*
X19946Y28271D01*
Y24142D01*
X19825Y24021D01*
X19753Y23847D01*
Y23664D01*
X19735Y23648D01*
X19621Y23583D01*
X17935Y25269D01*
Y32195D01*
X17935Y32195D01*
X17914Y32303D01*
X17853Y32395D01*
X17853Y32395D01*
X16588Y33659D01*
X16606Y33715D01*
X16637Y33761D01*
Y34223D01*
X16175D01*
X16129Y34192D01*
X16073Y34174D01*
X15310Y34938D01*
Y36082D01*
X16546Y37318D01*
X19300D01*
X19345Y37168D01*
D02*
G37*
%LPC*%
G36*
X17532Y36664D02*
X17007D01*
Y35914D01*
X17532D01*
Y36664D01*
D02*
G37*
G36*
X16807D02*
X16282D01*
Y35914D01*
X16807D01*
Y36664D01*
D02*
G37*
G36*
X17532Y35714D02*
X16907D01*
X16282D01*
Y34964D01*
X16521D01*
X16550Y34814D01*
X16440Y34768D01*
X16292Y34620D01*
X16212Y34427D01*
Y34423D01*
X17262D01*
Y34427D01*
X17182Y34620D01*
X17034Y34768D01*
X16923Y34814D01*
X16953Y34964D01*
X17532D01*
Y35714D01*
D02*
G37*
G36*
X17262Y34223D02*
X16837D01*
Y33798D01*
X16841D01*
X17034Y33878D01*
X17182Y34026D01*
X17262Y34219D01*
Y34223D01*
D02*
G37*
G36*
X26139Y31883D02*
X26135D01*
Y31458D01*
X26559D01*
Y31462D01*
X26480Y31655D01*
X26332Y31803D01*
X26139Y31883D01*
D02*
G37*
G36*
X25934D02*
X25930D01*
X25737Y31803D01*
X25589Y31655D01*
X25510Y31462D01*
Y31458D01*
X25934D01*
Y31883D01*
D02*
G37*
G36*
X21948Y31616D02*
X21944D01*
Y31191D01*
X22369D01*
Y31195D01*
X22289Y31388D01*
X22141Y31536D01*
X21948Y31616D01*
D02*
G37*
G36*
X21744D02*
X21740D01*
X21547Y31536D01*
X21399Y31388D01*
X21319Y31195D01*
Y31191D01*
X21744D01*
Y31616D01*
D02*
G37*
G36*
X26559Y31258D02*
X26135D01*
Y30833D01*
X26139D01*
X26332Y30913D01*
X26480Y31061D01*
X26559Y31254D01*
Y31258D01*
D02*
G37*
G36*
X25934D02*
X25510D01*
Y31254D01*
X25589Y31061D01*
X25737Y30913D01*
X25930Y30833D01*
X25934D01*
Y31258D01*
D02*
G37*
%LPD*%
D11*
X48100Y42700D02*
D03*
D13*
X37696Y45475D02*
D03*
X39496D02*
D03*
D15*
X27050Y43400D02*
D03*
X28750D02*
D03*
X25350Y43500D02*
D03*
X23650D02*
D03*
X32551Y45339D02*
D03*
X34251D02*
D03*
X16907Y35814D02*
D03*
X18607D02*
D03*
D19*
X25952Y24402D02*
D03*
D20*
X35900Y36677D02*
D03*
Y38377D02*
D03*
D21*
X15027Y36199D02*
X16429Y37600D01*
X15027Y34821D02*
Y36199D01*
Y34821D02*
X17653Y32195D01*
Y25152D02*
Y32195D01*
X16429Y37600D02*
X22800D01*
X20447Y16943D02*
Y21590D01*
Y22359D01*
X29107Y30322D02*
X31975Y33190D01*
X20830Y29121D02*
X22031Y30322D01*
X29107D01*
X35433Y19812D02*
X52093D01*
X57150Y14755D01*
X38100Y18415D02*
X51490D01*
X55150Y14755D01*
X52200Y6244D02*
X54359Y4085D01*
Y3200D02*
Y4085D01*
X52200Y6244D02*
Y9700D01*
X57150Y14650D01*
Y14755D01*
X48500Y3200D02*
Y8105D01*
X55150Y14755D01*
X23876Y14732D02*
Y15974D01*
X22087Y17763D02*
X23876Y15974D01*
X22087Y17763D02*
Y22447D01*
X20830Y23704D02*
X22087Y22447D01*
X20830Y23704D02*
Y29121D01*
X20228Y23752D02*
Y28660D01*
X30701Y13662D02*
X40934Y3429D01*
X41656D01*
X42418Y2667D01*
X31535Y14264D02*
X33099Y12700D01*
X31105Y25419D02*
X31975Y26289D01*
X31707Y15500D02*
X31783Y15576D01*
X31535Y14264D02*
Y14371D01*
X31783Y15576D02*
Y15855D01*
X31105Y14801D02*
X31535Y14371D01*
X30099Y12446D02*
Y30099D01*
Y12446D02*
X39878Y2667D01*
X31105Y14801D02*
Y25419D01*
X30701Y13662D02*
Y29135D01*
X31783Y15855D02*
X31833Y15905D01*
X49095Y12700D02*
X49784Y13389D01*
X33099Y12700D02*
X49095D01*
X49784Y13389D02*
Y13389D01*
X51150Y14755D01*
X32512Y19055D02*
X40766Y27309D01*
X32512Y18415D02*
Y19055D01*
X33500Y19177D02*
X41506Y27183D01*
Y29111D01*
X20447Y38377D02*
X20574Y38250D01*
X22800D01*
X17653Y25152D02*
X20447Y22359D01*
X18123Y23062D02*
Y23138D01*
X16010Y25251D02*
X18123Y23138D01*
X20341Y16838D02*
X20447Y16943D01*
X20341Y12298D02*
Y16838D01*
X16010Y25251D02*
Y31496D01*
X20341Y12298D02*
X23622Y9017D01*
Y5842D02*
Y9017D01*
Y14478D02*
X23876Y14732D01*
X32551Y42043D02*
Y45339D01*
X29408Y42043D02*
X32551D01*
Y41502D02*
Y42043D01*
X28416Y41051D02*
X29408Y42043D01*
X28717Y37098D02*
X28724D01*
X28872Y36950D02*
X29700D01*
X28724Y37098D02*
X28872Y36950D01*
X28416Y37399D02*
X28717Y37098D01*
X28416Y37399D02*
Y41051D01*
X35675Y38377D02*
X35900D01*
X32551Y41502D02*
X35675Y38377D01*
X18542Y33020D02*
X18557Y33035D01*
X22785D01*
X31833Y15905D02*
Y21229D01*
X40766Y27309D02*
Y32371D01*
X31281Y36300D02*
X31429Y36449D01*
Y38101D01*
X29700Y36300D02*
X31281D01*
X29700Y38250D02*
X31281D01*
X31429Y38101D01*
X31975Y33190D02*
Y38751D01*
X29700Y38900D02*
X31826D01*
X31975Y38751D01*
X19558Y34798D02*
X21060Y36300D01*
X22800D01*
X22785Y33035D02*
X22800Y33050D01*
X40766Y32371D02*
X45150Y36755D01*
X41506Y29111D02*
X49150Y36755D01*
X19518Y36950D02*
X22800D01*
X18607Y36039D02*
X19518Y36950D01*
X18607Y35814D02*
Y36039D01*
X20596Y40872D02*
X22778D01*
X22800Y40850D01*
X20574Y40894D02*
X20596Y40872D01*
D22*
X39609Y38862D02*
X56047D01*
X57600Y40415D01*
Y41300D01*
X54459Y47200D02*
X54500D01*
X43905Y47575D02*
X54084D01*
X54459Y47200D01*
X34290Y47600D02*
X35730D01*
X32112D02*
X34290D01*
X34251Y45339D02*
Y47561D01*
X34290Y47600D01*
X31819Y47918D02*
X32112Y47625D01*
X25375Y45900D02*
Y47300D01*
X25993Y47918D01*
X31819D01*
X38105Y47575D02*
X41305D01*
X41305Y47575D01*
X38105Y47575D02*
X38105Y47575D01*
X38105Y45925D02*
Y47575D01*
X37605Y45625D02*
X37805D01*
X38105Y45925D01*
D24*
X41150Y14755D02*
D03*
X43150D02*
D03*
X45150D02*
D03*
X47150D02*
D03*
X49150D02*
D03*
X51150D02*
D03*
X53150D02*
D03*
X55150D02*
D03*
X57150D02*
D03*
X59150D02*
D03*
X41150Y36755D02*
D03*
X43150D02*
D03*
X45150D02*
D03*
X47150D02*
D03*
X49150D02*
D03*
X51150D02*
D03*
X53150D02*
D03*
X55150D02*
D03*
X57150D02*
D03*
X59150D02*
D03*
D25*
X42418Y2667D02*
D03*
X39878D02*
D03*
X37338D02*
D03*
X34798D02*
D03*
X35140Y40746D02*
D03*
X37680D02*
D03*
X35140Y25746D02*
D03*
X37680D02*
D03*
X35140Y10746D02*
D03*
X37680D02*
D03*
D26*
X32258Y2667D02*
D03*
D27*
X54359Y8636D02*
D03*
D28*
X56639D02*
D03*
D29*
X29175Y46950D02*
D03*
X24175D02*
D03*
D30*
X30550Y49700D02*
D03*
X22800D02*
D03*
D31*
X30400Y45900D02*
D03*
X22950D02*
D03*
D32*
X11010Y18996D02*
D03*
Y31496D02*
D03*
X16010Y18996D02*
D03*
Y31496D02*
D03*
D33*
X16737Y34323D02*
D03*
X26035Y31358D02*
D03*
X33099Y20840D02*
D03*
X33111Y23062D02*
D03*
X54500Y47200D02*
D03*
X39609Y38862D02*
D03*
X20228Y28660D02*
D03*
Y23752D02*
D03*
X30701Y29135D02*
D03*
X31707Y15500D02*
D03*
X35433Y19812D02*
D03*
X38100Y18415D02*
D03*
X33500Y19177D02*
D03*
X32512Y18415D02*
D03*
X20447Y38377D02*
D03*
X31535Y14264D02*
D03*
X20447Y21590D02*
D03*
X18123Y23062D02*
D03*
X21844Y31091D02*
D03*
X18542Y33020D02*
D03*
X31833Y21229D02*
D03*
X19558Y34798D02*
D03*
X22087Y22447D02*
D03*
X31975Y26289D02*
D03*
X30099Y30099D02*
D03*
X20574Y40894D02*
D03*
D34*
X49100Y43700D02*
D03*
X48100D02*
D03*
X47100D02*
D03*
X49100Y42700D02*
D03*
Y41700D02*
D03*
X48100Y42700D02*
D03*
Y41700D02*
D03*
X47100Y42700D02*
D03*
Y41700D02*
D03*
X24852Y23302D02*
D03*
Y24402D02*
D03*
X25952Y23302D02*
D03*
X27052Y25502D02*
D03*
Y23302D02*
D03*
Y24402D02*
D03*
X24852Y25502D02*
D03*
X25952Y24402D02*
D03*
Y25502D02*
D03*
D35*
X51000Y30000D02*
D03*
X54500Y23000D02*
D03*
X44000Y30000D02*
D03*
X47500Y23000D02*
D03*
X44000Y16000D02*
D03*
Y2000D02*
D03*
X30000Y44000D02*
D03*
X33500Y37000D02*
D03*
X30000Y2000D02*
D03*
X26500Y9000D02*
D03*
X16000Y44000D02*
D03*
Y16000D02*
D03*
X19500Y9000D02*
D03*
X16000Y2000D02*
D03*
X9000Y44000D02*
D03*
X12500Y37000D02*
D03*
X9000Y30000D02*
D03*
X12500Y23000D02*
D03*
X9000Y16000D02*
D03*
X12500Y9000D02*
D03*
X9000Y2000D02*
D03*
X2000Y30000D02*
D03*
X5500Y23000D02*
D03*
X2000Y16000D02*
D03*
X5500Y9000D02*
D03*
D36*
X58300Y3100D02*
D03*
X48500Y3200D02*
D03*
X54359D02*
D03*
D37*
X58000Y41300D02*
D03*
Y47350D02*
D03*
X7400Y37000D02*
D03*
X23622Y5842D02*
D03*
Y14478D02*
D03*
D38*
X43905Y47575D02*
D03*
X41305D02*
D03*
X38105Y47575D02*
D03*
X35505D02*
D03*
D39*
X27325Y45900D02*
D03*
X26675D02*
D03*
X26025D02*
D03*
X27975D02*
D03*
X25375D02*
D03*
D40*
X22800Y32400D02*
D03*
Y33050D02*
D03*
Y33700D02*
D03*
Y34350D02*
D03*
Y35000D02*
D03*
Y35650D02*
D03*
Y36300D02*
D03*
Y36950D02*
D03*
Y37600D02*
D03*
Y38250D02*
D03*
Y38900D02*
D03*
Y39550D02*
D03*
Y40200D02*
D03*
Y40850D02*
D03*
X29700Y32400D02*
D03*
Y33050D02*
D03*
Y33700D02*
D03*
Y34350D02*
D03*
Y35000D02*
D03*
Y35650D02*
D03*
Y36300D02*
D03*
Y36950D02*
D03*
Y37600D02*
D03*
Y38250D02*
D03*
Y38900D02*
D03*
Y39550D02*
D03*
Y40200D02*
D03*
Y40850D02*
D03*
D41*
X58000Y47350D02*
X58800D01*
X54723D02*
X58000D01*
X54573Y47200D02*
X54723Y47350D01*
X54500Y47200D02*
X54573D01*
X26495Y35024D02*
Y42186D01*
X22800Y32400D02*
X25641D01*
X26495Y35024D02*
X26495Y35024D01*
X26718Y32400D02*
X29700D01*
X26495Y32623D02*
X26718Y32400D01*
X25641D02*
X25864Y32623D01*
X25864Y34762D02*
Y42186D01*
X25864Y32623D02*
Y34762D01*
X25864Y34762D02*
X25864Y34762D01*
X26495Y32623D02*
Y35024D01*
X25350Y43500D02*
Y43725D01*
X25584Y43959D01*
X25711D01*
X26666Y44009D02*
X27050Y43625D01*
Y43400D02*
Y43625D01*
X26666Y45890D02*
X26675Y45900D01*
X26035Y44283D02*
Y45890D01*
X26666Y44009D02*
Y45890D01*
X25711Y43959D02*
X26035Y44283D01*
X26025Y45900D02*
X26035Y45890D01*
X24423Y42502D02*
X25548D01*
X27985Y42410D02*
X28750Y43175D01*
X23650Y43275D02*
Y43500D01*
X28750Y43175D02*
Y43400D01*
X26718Y42410D02*
X27985D01*
X23650Y43275D02*
X24423Y42502D01*
X25548D02*
X25864Y42186D01*
X26495D02*
X26718Y42410D01*
%TF.MD5,5daa2a48e45bb4fd7d739d97a0f09c35*%
M02*
