M48
;Layer_Color=9474304
;FILE_FORMAT=4:3
METRIC,LZ
;TYPE=PLATED
T1F00S00C0.300
T2F00S00C0.350
T4F00S00C0.711
T5F00S00C0.800
T7F00S00C1.000
T8F00S00C1.100
T9F00S00C1.200
;TYPE=NON_PLATED
T10F00S00C0.800
T11F00S00C3.510
%
T01
X0018123Y0023062
X0020228Y0023752
X0020447Y002159
X0022087Y0022447
X0031833Y0021229
X0033099Y002084
X00335Y0019177
X0032512Y0018415
X0031707Y00155
X0031535Y0014264
X0035433Y0019812
X00381Y0018415
X0033111Y0023062
X0031975Y0026289
X0030701Y0029135
X0030099Y0030099
X0039609Y0038862
X00545Y00472
X0020574Y0040894
X0020447Y0038377
X0019558Y0034798
X0018542Y003302
X0016737Y0034323
X0021844Y0031091
X0020228Y002866
X0026035Y0031358
T02
X0024852Y0023302
Y0024402
Y0025502
X0025952
X0027052
Y0024402
Y0023302
X0025952
Y0024402
X00471Y00417
X00481
X00491
Y00427
Y00437
X00481
X00471
Y00427
X00481
T04
X0009Y0002
X0016
X00195Y0009
X00265
X00125
X00055
X0009Y0016
X0016
X00125Y0023
X00055
X0002Y0016
X0044
X00475Y0023
X00545
X0044Y0002
X003
X00335Y0037
X003Y0044
X0044Y003
X0051
X0009
X0002
X00125Y0037
X0016Y0044
X0009
T05
X004115Y0014755
X004315
X004515
X004715
X004915
X005115
X005315
X005515
X005715
X005915
Y0036755
X005715
X005515
X005315
X005115
X004915
X004715
X004515
X004315
X004115
T07
X003514Y0010746
X003768
Y0025746
X003514
X0054359Y0008636
X0056639
X003768Y0040746
X003514
T08
X0032258Y0002667
X0034798
X0037338
X0039878
X0042418
T09
X001101Y0018996
X001601
Y0031496
X001101
T10
X0029175Y004695
X0024175
T11
X0015215Y00105
X0065485
Y004101
X0015215
M30
