%TF.GenerationSoftware,Altium Limited,Altium Designer,21.6.1 (37)*%
G04 Layer_Color=255*
%FSLAX43Y43*%
%MOMM*%
%TF.SameCoordinates,1F06128E-DADF-4999-8CD8-60C71D9D28CE*%
%TF.FilePolarity,Positive*%
%TF.FileFunction,Pads,Top*%
%TF.Part,Single*%
G01*
G75*
%TA.AperFunction,SMDPad,CuDef*%
%ADD10O,1.400X0.450*%
%ADD11R,3.100X3.100*%
%ADD12R,1.400X1.200*%
%ADD13R,1.200X1.400*%
%ADD14R,5.500X2.000*%
%ADD15R,0.850X1.300*%
%ADD16R,1.300X1.550*%
%ADD17O,0.800X0.250*%
%ADD18O,0.250X0.800*%
%ADD19R,3.930X3.930*%
%ADD20R,1.300X0.850*%
%TA.AperFunction,ComponentPad*%
%ADD24C,1.200*%
%ADD25C,1.600*%
%ADD26R,1.600X1.600*%
%ADD27R,1.500X1.500*%
%ADD28C,1.500*%
%ADD29C,0.800*%
%ADD30O,1.150X1.800*%
%ADD31O,1.450X2.000*%
%ADD32C,1.800*%
D10*
X51050Y44325D02*
D03*
Y44975D02*
D03*
Y43025D02*
D03*
Y43675D02*
D03*
Y42375D02*
D03*
Y41725D02*
D03*
Y41075D02*
D03*
Y40425D02*
D03*
X45150Y44325D02*
D03*
Y44975D02*
D03*
Y43675D02*
D03*
Y43025D02*
D03*
Y42375D02*
D03*
Y41725D02*
D03*
Y41075D02*
D03*
Y40425D02*
D03*
D11*
X48100Y42700D02*
D03*
D12*
X31242Y22976D02*
D03*
Y24776D02*
D03*
X21285Y26837D02*
D03*
Y25037D02*
D03*
X29210Y4942D02*
D03*
Y6742D02*
D03*
X41402Y43702D02*
D03*
Y41902D02*
D03*
D13*
X23911Y19558D02*
D03*
X25711D02*
D03*
X22152Y29210D02*
D03*
X23952D02*
D03*
X27952Y29210D02*
D03*
X26152D02*
D03*
X49100Y47200D02*
D03*
X47300D02*
D03*
D14*
X23571Y34200D02*
D03*
X33071D02*
D03*
D15*
X21590Y2667D02*
D03*
X23290D02*
D03*
X33235Y5842D02*
D03*
X31535D02*
D03*
X54444Y5080D02*
D03*
X52744D02*
D03*
X36950Y15500D02*
D03*
X35250D02*
D03*
X37084Y29845D02*
D03*
X38784D02*
D03*
X8167Y34036D02*
D03*
X9867D02*
D03*
D16*
X26090Y15240D02*
D03*
X21590D02*
D03*
X26090Y7290D02*
D03*
X21590D02*
D03*
D17*
X28852Y26352D02*
D03*
Y25702D02*
D03*
Y25052D02*
D03*
Y24402D02*
D03*
Y23752D02*
D03*
Y23102D02*
D03*
Y22452D02*
D03*
X23052D02*
D03*
Y23102D02*
D03*
Y23752D02*
D03*
Y24402D02*
D03*
Y25052D02*
D03*
Y25702D02*
D03*
Y26352D02*
D03*
D18*
X27902Y21502D02*
D03*
X27252D02*
D03*
X26602D02*
D03*
X25952D02*
D03*
X25302D02*
D03*
X24652D02*
D03*
X24002D02*
D03*
Y27302D02*
D03*
X24652D02*
D03*
X25302D02*
D03*
X25952D02*
D03*
X26602D02*
D03*
X27252D02*
D03*
X27902D02*
D03*
D19*
X25952Y24402D02*
D03*
D20*
X37465Y36029D02*
D03*
Y34329D02*
D03*
D24*
X41150Y14755D02*
D03*
X43150D02*
D03*
X45150D02*
D03*
X47150D02*
D03*
X49150D02*
D03*
X51150D02*
D03*
X53150D02*
D03*
X55150D02*
D03*
X57150D02*
D03*
X59150D02*
D03*
X41150Y36755D02*
D03*
X43150D02*
D03*
X45150D02*
D03*
X47150D02*
D03*
X49150D02*
D03*
X51150D02*
D03*
X53150D02*
D03*
X55150D02*
D03*
X57150D02*
D03*
X59150D02*
D03*
D25*
X42418Y2667D02*
D03*
X39878D02*
D03*
X37338D02*
D03*
X34798D02*
D03*
X35140Y40746D02*
D03*
X37680D02*
D03*
X35140Y25746D02*
D03*
X37680D02*
D03*
X35140Y10746D02*
D03*
X37680D02*
D03*
D26*
X32258Y2667D02*
D03*
D27*
X54359Y8636D02*
D03*
D28*
X56639D02*
D03*
D29*
X29175Y46950D02*
D03*
X24175D02*
D03*
D30*
X30550Y49700D02*
D03*
X22800D02*
D03*
D31*
X30400Y45900D02*
D03*
X22950D02*
D03*
D32*
X11010Y18996D02*
D03*
Y31496D02*
D03*
X16010Y18996D02*
D03*
Y31496D02*
D03*
%TF.MD5,a86364f95b9a3ff383b750b19061dd83*%
M02*
