%TF.GenerationSoftware,Altium Limited,Altium Designer,21.6.1 (37)*%
G04 Layer_Physical_Order=1*
G04 Layer_Color=255*
%FSLAX43Y43*%
%MOMM*%
%TF.SameCoordinates,1F06128E-DADF-4999-8CD8-60C71D9D28CE*%
%TF.FilePolarity,Positive*%
%TF.FileFunction,Copper,L1,Top,Signal*%
%TF.Part,Single*%
G01*
G75*
%TA.AperFunction,SMDPad,CuDef*%
%ADD10O,1.400X0.450*%
%ADD11R,3.100X3.100*%
%ADD12R,1.400X1.200*%
%ADD13R,1.200X1.400*%
%ADD14R,5.500X2.000*%
%ADD15R,0.850X1.300*%
%ADD16R,1.300X1.550*%
%ADD17O,0.800X0.250*%
%ADD18O,0.250X0.800*%
%ADD19R,3.930X3.930*%
%ADD20R,1.300X0.850*%
%TA.AperFunction,Conductor*%
%ADD21C,0.254*%
%ADD22C,0.500*%
%ADD23C,0.200*%
%TA.AperFunction,ComponentPad*%
%ADD24C,1.200*%
%ADD25C,1.600*%
%ADD26R,1.600X1.600*%
%ADD27R,1.500X1.500*%
%ADD28C,1.500*%
%ADD29C,0.800*%
%ADD30O,1.150X1.800*%
%ADD31O,1.450X2.000*%
%ADD32C,1.800*%
%TA.AperFunction,ViaPad*%
%ADD33C,0.650*%
%ADD34C,0.750*%
%ADD35C,1.270*%
G36*
X59690Y37479D02*
X59540Y37396D01*
X59439Y37454D01*
X59249Y37505D01*
X59051D01*
X58861Y37454D01*
X58689Y37355D01*
X58550Y37216D01*
X58451Y37044D01*
X58400Y36854D01*
Y36656D01*
X58451Y36466D01*
X58550Y36294D01*
X58689Y36155D01*
X58861Y36056D01*
X59051Y36005D01*
X59249D01*
X59439Y36056D01*
X59540Y36114D01*
X59690Y36031D01*
Y15479D01*
X59540Y15396D01*
X59439Y15454D01*
X59249Y15505D01*
X59051D01*
X58861Y15454D01*
X58689Y15355D01*
X58550Y15216D01*
X58451Y15044D01*
X58400Y14854D01*
Y14656D01*
X58416Y14598D01*
X56545Y12727D01*
X55118D01*
X55118Y12727D01*
X54962Y12696D01*
X54830Y12607D01*
X52456Y10233D01*
X52367Y10101D01*
X52336Y9945D01*
X52336Y9945D01*
Y8757D01*
X42749D01*
X41500Y10006D01*
X41500Y10006D01*
X40373Y11133D01*
Y14201D01*
X40466Y14244D01*
X40523Y14251D01*
X40659Y14115D01*
X40841Y14010D01*
X41045Y13955D01*
X41050D01*
Y14755D01*
Y15555D01*
X41045D01*
X40841Y15500D01*
X40659Y15395D01*
X40523Y15259D01*
X40466Y15266D01*
X40373Y15309D01*
Y17882D01*
X40342Y18038D01*
X40253Y18170D01*
X40253Y18170D01*
X37927Y20497D01*
X39897Y22468D01*
X39897Y22468D01*
X39986Y22600D01*
X40017Y22756D01*
X40017Y22756D01*
Y38605D01*
X40084Y38768D01*
Y38956D01*
X40017Y39119D01*
Y41644D01*
X40552D01*
Y41152D01*
X42252D01*
Y41769D01*
X43279D01*
Y41368D01*
X43279Y41368D01*
X43300Y41260D01*
X43361Y41168D01*
X43654Y40875D01*
X43654Y40875D01*
X43746Y40814D01*
X43854Y40793D01*
X44301D01*
X44369Y40643D01*
X44322Y40571D01*
X44293Y40425D01*
X44322Y40279D01*
X44405Y40155D01*
X44529Y40072D01*
X44675Y40043D01*
X45625D01*
X45771Y40072D01*
X45895Y40155D01*
X45978Y40279D01*
X46007Y40425D01*
X45978Y40571D01*
X45928Y40646D01*
X45907Y40750D01*
X45928Y40854D01*
X45978Y40929D01*
X46007Y41075D01*
X45978Y41221D01*
X45928Y41296D01*
X45907Y41400D01*
X45928Y41504D01*
X45978Y41579D01*
X46007Y41725D01*
X45978Y41871D01*
X45928Y41946D01*
X45907Y42050D01*
X45928Y42154D01*
X45978Y42229D01*
X46007Y42375D01*
X45978Y42521D01*
X45895Y42645D01*
Y42755D01*
X45978Y42879D01*
X46007Y43025D01*
X45978Y43171D01*
X45895Y43295D01*
X45970Y43426D01*
X46025Y43509D01*
X46038Y43575D01*
X45150D01*
Y43775D01*
X46038D01*
X46025Y43841D01*
X45931Y43981D01*
Y44019D01*
X46025Y44159D01*
X46038Y44225D01*
X45150D01*
Y44425D01*
X46038D01*
X46025Y44491D01*
X45970Y44574D01*
X45895Y44705D01*
X45978Y44829D01*
X46007Y44975D01*
X45978Y45121D01*
X45895Y45245D01*
X45771Y45328D01*
X45625Y45357D01*
X44675D01*
X44529Y45328D01*
X44405Y45245D01*
X44322Y45121D01*
X44293Y44975D01*
X44322Y44829D01*
X44369Y44758D01*
X44303Y44630D01*
X44280Y44628D01*
X44136Y44760D01*
Y45583D01*
X45471Y46918D01*
X46500D01*
Y46300D01*
X47200D01*
Y47200D01*
Y48100D01*
X46500D01*
Y47482D01*
X45354D01*
X45246Y47461D01*
X45154Y47400D01*
X45154Y47400D01*
X43654Y45900D01*
X43593Y45808D01*
X43571Y45700D01*
X43571Y45700D01*
Y44527D01*
X43571Y44527D01*
X43593Y44419D01*
X43654Y44327D01*
X43856Y44125D01*
X43856Y44125D01*
X43883Y44107D01*
X43837Y43957D01*
X42302D01*
Y44502D01*
X41502D01*
Y43702D01*
Y42902D01*
X42302D01*
Y43393D01*
X43635D01*
X43667Y43337D01*
X43681Y43243D01*
X43654Y43225D01*
X43654Y43225D01*
X43361Y42932D01*
X43300Y42840D01*
X43279Y42732D01*
X43279Y42732D01*
Y42334D01*
X42252D01*
Y42652D01*
X40552D01*
Y42460D01*
X21732D01*
X21576Y42429D01*
X21443Y42340D01*
X21443Y42340D01*
X20467Y41364D01*
X20305Y41297D01*
X20171Y41163D01*
X20104Y41001D01*
X18254Y39150D01*
X18165Y39018D01*
X18134Y38862D01*
X18134Y38862D01*
Y33277D01*
X18067Y33114D01*
Y32926D01*
X18134Y32763D01*
Y25445D01*
X17051D01*
X17051Y25445D01*
X16895Y25414D01*
X16763Y25326D01*
X16763Y25326D01*
X11412Y19975D01*
X11148Y20046D01*
X10872D01*
X10605Y19975D01*
X10365Y19836D01*
X10170Y19641D01*
X10032Y19402D01*
X9960Y19134D01*
Y18858D01*
X10032Y18591D01*
X10170Y18352D01*
X10365Y18156D01*
X10605Y18018D01*
X10872Y17946D01*
X11148D01*
X11415Y18018D01*
X11655Y18156D01*
X11850Y18352D01*
X11988Y18591D01*
X12060Y18858D01*
Y19134D01*
X11989Y19399D01*
X17220Y24629D01*
X20435D01*
Y24343D01*
X20333Y24239D01*
X20310Y24227D01*
X20134D01*
X19959Y24155D01*
X19825Y24021D01*
X19753Y23847D01*
Y23658D01*
X19805Y23533D01*
X19730Y23383D01*
X18474D01*
X18392Y23465D01*
X18217Y23537D01*
X18028D01*
X17854Y23465D01*
X17720Y23331D01*
X17648Y23157D01*
Y22968D01*
X17720Y22793D01*
X17854Y22660D01*
X18028Y22587D01*
X18217D01*
X18392Y22660D01*
X18526Y22793D01*
X18536Y22818D01*
X20828D01*
X20828Y22818D01*
X20838Y22820D01*
X21592D01*
X21665Y22670D01*
X21612Y22542D01*
Y22353D01*
X21684Y22178D01*
X21818Y22044D01*
X21992Y21972D01*
X21977Y21829D01*
X20862D01*
X20849Y21859D01*
X20716Y21993D01*
X20541Y22065D01*
X20352D01*
X20177Y21993D01*
X20044Y21859D01*
X19972Y21684D01*
Y21496D01*
X20044Y21321D01*
X20177Y21187D01*
X20352Y21115D01*
X20541D01*
X20716Y21187D01*
X20792Y21264D01*
X23722D01*
Y21227D01*
X23743Y21120D01*
X23804Y21029D01*
X23895Y20968D01*
X24004Y20867D01*
X24005Y20805D01*
Y20458D01*
X23111D01*
Y19658D01*
X23911D01*
X24711D01*
Y20458D01*
X24569D01*
Y20749D01*
X24732Y20912D01*
X24779Y20921D01*
X24870Y20982D01*
X24944Y20963D01*
X25020Y20922D01*
Y20408D01*
X24961D01*
Y18708D01*
X26461D01*
Y20298D01*
X26611Y20360D01*
X28756Y18215D01*
X28756Y18215D01*
X28848Y18154D01*
X28956Y18133D01*
X32123D01*
X32243Y18012D01*
X32418Y17940D01*
X32606D01*
X32781Y18012D01*
X32915Y18146D01*
X32987Y18321D01*
Y18509D01*
X32915Y18684D01*
X32854Y18745D01*
X32916Y18895D01*
X33111D01*
X33231Y18774D01*
X33406Y18702D01*
X33595D01*
X33769Y18774D01*
X33903Y18908D01*
X33975Y19083D01*
Y19271D01*
X33930Y19380D01*
X34015Y19530D01*
X35044D01*
X35164Y19409D01*
X35339Y19337D01*
X35527D01*
X35702Y19409D01*
X35836Y19543D01*
X35908Y19718D01*
Y19906D01*
X35836Y20081D01*
X35951Y20164D01*
X37625Y18491D01*
Y18321D01*
X37697Y18146D01*
X37831Y18012D01*
X38006Y17940D01*
X38194D01*
X38369Y18012D01*
X38503Y18146D01*
X38575Y18321D01*
Y18483D01*
X38648Y18534D01*
X38714Y18557D01*
X39557Y17713D01*
Y10964D01*
X39557Y10964D01*
X39588Y10808D01*
X39677Y10676D01*
X40635Y9717D01*
X37041Y6123D01*
X33810D01*
Y6642D01*
X32660D01*
Y5042D01*
X33810D01*
Y5307D01*
X34390D01*
Y3529D01*
X34215Y3427D01*
X34038Y3250D01*
X33913Y3034D01*
X33848Y2792D01*
Y2542D01*
X33913Y2300D01*
X34038Y2084D01*
X34215Y1907D01*
X34431Y1782D01*
X34673Y1717D01*
X34923D01*
X35165Y1782D01*
X35381Y1907D01*
X35558Y2084D01*
X35683Y2300D01*
X35748Y2542D01*
Y2792D01*
X35683Y3034D01*
X35558Y3250D01*
X35381Y3427D01*
X35206Y3529D01*
Y5307D01*
X37210D01*
X37210Y5307D01*
X37366Y5338D01*
X37498Y5427D01*
X41212Y9140D01*
X42292Y8061D01*
X42292Y8061D01*
X42424Y7972D01*
X42580Y7941D01*
X52336D01*
Y5880D01*
X52169D01*
Y4280D01*
X53319D01*
Y5880D01*
X53152D01*
Y8349D01*
Y9776D01*
X55287Y11911D01*
X56714D01*
X56714Y11911D01*
X56870Y11942D01*
X57002Y12031D01*
X58993Y14021D01*
X59051Y14005D01*
X59249D01*
X59439Y14056D01*
X59540Y14114D01*
X59690Y14031D01*
Y255D01*
X8255D01*
Y1352D01*
X8405Y1414D01*
X8487Y1332D01*
X8678Y1222D01*
X8890Y1165D01*
X8900D01*
Y2000D01*
Y2835D01*
X8890D01*
X8678Y2778D01*
X8487Y2668D01*
X8405Y2586D01*
X8255Y2648D01*
Y8000D01*
X8235Y8098D01*
X8180Y8180D01*
X8098Y8235D01*
X8000Y8255D01*
X6148D01*
X6086Y8405D01*
X6168Y8487D01*
X6278Y8678D01*
X6335Y8890D01*
Y8900D01*
X4665D01*
Y8890D01*
X4722Y8678D01*
X4832Y8487D01*
X4914Y8405D01*
X4852Y8255D01*
X255D01*
Y43245D01*
X8000D01*
X8098Y43265D01*
X8180Y43320D01*
X8224Y43385D01*
X8283Y43410D01*
X8393Y43426D01*
X8487Y43332D01*
X8678Y43222D01*
X8890Y43165D01*
X8900D01*
Y44000D01*
Y44835D01*
X8890D01*
X8678Y44778D01*
X8487Y44668D01*
X8405Y44586D01*
X8255Y44648D01*
Y51245D01*
X59690D01*
Y37479D01*
D02*
G37*
G36*
X39201Y39119D02*
X39134Y38956D01*
Y38768D01*
X39201Y38605D01*
Y30645D01*
X38209D01*
Y29444D01*
X37809Y29044D01*
X37659Y29107D01*
Y30645D01*
X36509D01*
Y30127D01*
X33832D01*
X33756Y30277D01*
X33792Y30325D01*
X35226D01*
X35226Y30325D01*
X35334Y30346D01*
X35425Y30407D01*
X37665Y32647D01*
X37665Y32647D01*
X37726Y32738D01*
X37747Y32846D01*
X37747Y32846D01*
Y33754D01*
X38265D01*
Y34904D01*
X36665D01*
Y33754D01*
X37183D01*
Y32963D01*
X35109Y30889D01*
X33596D01*
X33596Y30889D01*
X33488Y30868D01*
X33396Y30807D01*
X33396Y30807D01*
X31724Y29135D01*
X31585Y29192D01*
Y29384D01*
X31564Y29492D01*
X31503Y29584D01*
X31503Y29584D01*
X31150Y29937D01*
X31058Y29998D01*
X30950Y30019D01*
X30950Y30019D01*
X30578D01*
X30574Y30023D01*
Y30193D01*
X30502Y30368D01*
X30368Y30502D01*
X30193Y30574D01*
X30005D01*
X29830Y30502D01*
X29696Y30368D01*
X29624Y30193D01*
Y30005D01*
X29696Y29830D01*
X29830Y29696D01*
X30005Y29624D01*
X30175D01*
X30240Y29558D01*
X30265Y29492D01*
X30167Y29342D01*
X30023D01*
X30023Y29342D01*
X29915Y29320D01*
X29824Y29259D01*
X29824Y29259D01*
X29041Y28476D01*
X28752D01*
Y29110D01*
X27952D01*
Y29310D01*
X28752D01*
Y30110D01*
X27987D01*
X27930Y30249D01*
X30731Y33050D01*
X35971D01*
Y35350D01*
X30171D01*
Y33210D01*
X27450Y30490D01*
X26227D01*
X26130Y30470D01*
X26047Y30415D01*
X25992Y30333D01*
X25973Y30235D01*
Y30060D01*
X25402D01*
Y29056D01*
X25389Y29047D01*
X24841Y28499D01*
X24702Y28556D01*
Y30060D01*
X23826D01*
Y33050D01*
X26471D01*
Y35350D01*
X20729D01*
Y37988D01*
X20849Y38108D01*
X20922Y38283D01*
Y38472D01*
X20849Y38647D01*
X20716Y38780D01*
X20541Y38852D01*
X20352D01*
X20177Y38780D01*
X20044Y38647D01*
X19972Y38472D01*
Y38283D01*
X20044Y38108D01*
X20164Y37988D01*
Y34968D01*
X20014Y34938D01*
X19961Y35067D01*
X19827Y35201D01*
X19652Y35273D01*
X19464D01*
X19289Y35201D01*
X19155Y35067D01*
X19100Y34933D01*
X18950Y34963D01*
Y38693D01*
X20681Y40424D01*
X20843Y40491D01*
X20977Y40625D01*
X21044Y40787D01*
X21901Y41644D01*
X34495D01*
X34538Y41548D01*
X34544Y41494D01*
X34380Y41330D01*
X34255Y41113D01*
X34190Y40871D01*
Y40621D01*
X34255Y40380D01*
X34380Y40163D01*
X34557Y39986D01*
X34773Y39861D01*
X35015Y39796D01*
X35265D01*
X35507Y39861D01*
X35582Y39905D01*
X37183Y38304D01*
Y36604D01*
X36665D01*
Y35454D01*
X38265D01*
Y36604D01*
X37747D01*
Y38421D01*
X37747Y38421D01*
X37726Y38529D01*
X37665Y38621D01*
X37665Y38621D01*
X35982Y40304D01*
X36025Y40380D01*
X36090Y40621D01*
Y40871D01*
X36025Y41113D01*
X35900Y41330D01*
X35736Y41494D01*
X35742Y41548D01*
X35785Y41644D01*
X36951D01*
X37014Y41494D01*
X36880Y41360D01*
X36748Y41132D01*
X36680Y40878D01*
Y40846D01*
X38680D01*
Y40878D01*
X38612Y41132D01*
X38480Y41360D01*
X38346Y41494D01*
X38409Y41644D01*
X39201D01*
Y39119D01*
D02*
G37*
G36*
X20164Y34628D02*
Y32824D01*
X19993Y32653D01*
X19932Y32562D01*
X19911Y32454D01*
X19911Y32454D01*
Y29014D01*
X19825Y28929D01*
X19753Y28754D01*
Y28566D01*
X19825Y28391D01*
X19959Y28257D01*
X20134Y28185D01*
X20322D01*
X20497Y28257D01*
X20631Y28391D01*
X20703Y28566D01*
Y28754D01*
X20631Y28929D01*
X20497Y29063D01*
X20475Y29072D01*
Y32337D01*
X20646Y32507D01*
X20646Y32507D01*
X20707Y32599D01*
X20729Y32707D01*
Y33050D01*
X23316D01*
Y30060D01*
X23202D01*
Y28360D01*
X23623D01*
Y28155D01*
X23642Y28058D01*
X23697Y27975D01*
X23748Y27924D01*
Y27692D01*
X23743Y27685D01*
X23722Y27577D01*
Y27138D01*
X23572Y27076D01*
X22948Y27700D01*
X22856Y27761D01*
X22748Y27782D01*
X22748Y27782D01*
X22007D01*
X21899Y27761D01*
X21807Y27700D01*
X21807Y27700D01*
X21745Y27637D01*
X21385D01*
Y26837D01*
X21285D01*
Y26737D01*
X20385D01*
Y26243D01*
X19964D01*
X19438Y26769D01*
Y34171D01*
X19590Y34323D01*
X19652D01*
X19827Y34395D01*
X19961Y34529D01*
X20014Y34658D01*
X20164Y34628D01*
D02*
G37*
G36*
X29206Y26988D02*
X29250Y26878D01*
X29004Y26633D01*
X28577D01*
X28470Y26611D01*
X28379Y26550D01*
X28318Y26460D01*
X28297Y26352D01*
X28318Y26245D01*
X28379Y26154D01*
X28446Y26109D01*
X28459Y26027D01*
Y26027D01*
X28446Y25945D01*
X28379Y25900D01*
X28318Y25810D01*
X28297Y25702D01*
X28318Y25595D01*
X28379Y25504D01*
X28446Y25459D01*
X28459Y25377D01*
Y25377D01*
X28446Y25295D01*
X28379Y25250D01*
X28318Y25160D01*
X28297Y25052D01*
X28318Y24945D01*
X28379Y24854D01*
X28446Y24809D01*
X28459Y24727D01*
Y24727D01*
X28446Y24645D01*
X28379Y24600D01*
X28318Y24510D01*
X28297Y24402D01*
X28318Y24295D01*
X28379Y24204D01*
X28399Y24191D01*
X28400Y24187D01*
X28390Y24018D01*
X28343Y23987D01*
X28271Y23879D01*
X28267Y23860D01*
X28117Y23874D01*
Y24302D01*
X26052D01*
Y22237D01*
X28117D01*
Y23630D01*
X28267Y23645D01*
X28271Y23625D01*
X28343Y23518D01*
X28390Y23487D01*
X28400Y23317D01*
X28399Y23314D01*
X28379Y23300D01*
X28318Y23210D01*
X28297Y23102D01*
X28318Y22995D01*
X28379Y22904D01*
X28446Y22859D01*
X28459Y22777D01*
Y22777D01*
X28446Y22695D01*
X28379Y22650D01*
X28318Y22560D01*
X28297Y22452D01*
X28318Y22345D01*
X28379Y22254D01*
X28470Y22193D01*
X28577Y22172D01*
X28842D01*
X28852Y22170D01*
X29007D01*
X30167Y21009D01*
X30167Y21009D01*
X30259Y20948D01*
X30367Y20927D01*
X30367Y20927D01*
X31464D01*
X31564Y20827D01*
X31739Y20754D01*
X31927D01*
X32102Y20827D01*
X32236Y20960D01*
X32308Y21135D01*
Y21324D01*
X32246Y21474D01*
X32306Y21624D01*
X34492D01*
X35785Y20330D01*
X35702Y20215D01*
X35527Y20287D01*
X35339D01*
X35164Y20215D01*
X35044Y20094D01*
X29073D01*
X28185Y20983D01*
Y21502D01*
X28183Y21512D01*
Y21777D01*
X28162Y21885D01*
X28101Y21975D01*
X28010Y22036D01*
X27902Y22058D01*
X27795Y22036D01*
X27704Y21975D01*
X27660Y21909D01*
X27578Y21895D01*
X27577D01*
X27495Y21909D01*
X27451Y21975D01*
X27360Y22036D01*
X27252Y22058D01*
X27145Y22036D01*
X27054Y21975D01*
X27010Y21909D01*
X26928Y21895D01*
X26927D01*
X26845Y21909D01*
X26801Y21975D01*
X26710Y22036D01*
X26602Y22058D01*
X26495Y22036D01*
X26404Y21975D01*
X26360Y21909D01*
X26278Y21895D01*
X26277D01*
X26195Y21909D01*
X26151Y21975D01*
X26060Y22036D01*
X25952Y22058D01*
X25845Y22036D01*
X25754Y21975D01*
X25710Y21909D01*
X25628Y21895D01*
X25627D01*
X25545Y21909D01*
X25501Y21975D01*
X25410Y22036D01*
X25302Y22058D01*
X25195Y22036D01*
X25104Y21975D01*
X25091Y21956D01*
X25088Y21954D01*
X24918Y21965D01*
X24887Y22012D01*
X24779Y22083D01*
X24760Y22087D01*
X24775Y22237D01*
X25852D01*
Y24302D01*
X23787D01*
Y22237D01*
X24530D01*
X24545Y22087D01*
X24526Y22083D01*
X24418Y22012D01*
X24387Y21965D01*
X24217Y21954D01*
X24214Y21956D01*
X24201Y21975D01*
X24110Y22036D01*
X24002Y22058D01*
X23895Y22036D01*
X23804Y21975D01*
X23743Y21885D01*
X23732Y21829D01*
X22197D01*
X22181Y21972D01*
X22356Y22044D01*
X22481Y22170D01*
X23052D01*
X23063Y22172D01*
X23327D01*
X23435Y22193D01*
X23526Y22254D01*
X23587Y22345D01*
X23608Y22452D01*
X23587Y22560D01*
X23526Y22650D01*
X23459Y22695D01*
X23446Y22777D01*
Y22777D01*
X23459Y22859D01*
X23526Y22904D01*
X23587Y22995D01*
X23608Y23102D01*
X23587Y23210D01*
X23526Y23300D01*
X23459Y23345D01*
X23446Y23427D01*
Y23427D01*
X23459Y23509D01*
X23526Y23554D01*
X23587Y23645D01*
X23608Y23752D01*
X23587Y23860D01*
X23526Y23950D01*
X23459Y23995D01*
X23446Y24077D01*
Y24077D01*
X23459Y24159D01*
X23526Y24204D01*
X23587Y24295D01*
X23608Y24402D01*
X23587Y24510D01*
X23526Y24600D01*
X23459Y24645D01*
X23446Y24727D01*
Y24727D01*
X23459Y24809D01*
X23526Y24854D01*
X23587Y24945D01*
X23608Y25052D01*
X23587Y25160D01*
X23526Y25250D01*
X23459Y25295D01*
X23446Y25377D01*
Y25377D01*
X23459Y25459D01*
X23526Y25504D01*
X23587Y25595D01*
X23608Y25702D01*
X23587Y25810D01*
X23526Y25900D01*
X23459Y25945D01*
X23446Y26027D01*
Y26027D01*
X23459Y26109D01*
X23526Y26154D01*
X23587Y26245D01*
X23607Y26346D01*
X23623Y26343D01*
X23787D01*
Y24502D01*
X25852D01*
Y26567D01*
X25695D01*
X25606Y26688D01*
X25626Y26751D01*
X25661Y26772D01*
X25792Y26803D01*
X25845Y26768D01*
X25952Y26747D01*
X26060Y26768D01*
X26151Y26829D01*
X26195Y26896D01*
X26277Y26909D01*
X26278D01*
X26360Y26896D01*
X26404Y26829D01*
X26495Y26768D01*
X26602Y26747D01*
X26710Y26768D01*
X26801Y26829D01*
X26845Y26896D01*
X26927Y26909D01*
X26928D01*
X27010Y26896D01*
X27054Y26829D01*
X27145Y26768D01*
X27252Y26747D01*
X27360Y26768D01*
X27451Y26829D01*
X27495Y26896D01*
X27577Y26909D01*
X27578D01*
X27660Y26896D01*
X27704Y26829D01*
X27795Y26768D01*
X27902Y26747D01*
X28010Y26768D01*
X28101Y26829D01*
X28162Y26920D01*
X28181Y27020D01*
X29180D01*
X29206Y26988D01*
D02*
G37*
G36*
X36509Y29045D02*
X37597D01*
X37660Y28895D01*
X35419Y26655D01*
X35265Y26696D01*
X35015D01*
X34773Y26631D01*
X34557Y26506D01*
X34380Y26330D01*
X34255Y26113D01*
X34190Y25871D01*
Y25621D01*
X34255Y25380D01*
X34380Y25163D01*
X34557Y24986D01*
X34773Y24861D01*
X35015Y24796D01*
X35265D01*
X35507Y24861D01*
X35723Y24986D01*
X35900Y25163D01*
X36025Y25380D01*
X36090Y25621D01*
Y25871D01*
X36025Y26113D01*
X35900Y26330D01*
X35897Y26333D01*
X38608Y29045D01*
X39201D01*
Y22925D01*
X37350Y21074D01*
X33359Y25064D01*
X33227Y25153D01*
X33071Y25184D01*
X33071Y25184D01*
X32092D01*
Y25526D01*
X30820D01*
X30763Y25665D01*
X31105Y26007D01*
X31586D01*
X31706Y25886D01*
X31881Y25814D01*
X32069D01*
X32244Y25886D01*
X32378Y26020D01*
X32450Y26195D01*
Y26383D01*
X32378Y26558D01*
X32244Y26692D01*
X32069Y26764D01*
X31881D01*
X31706Y26692D01*
X31586Y26571D01*
X30988D01*
X30880Y26550D01*
X30788Y26489D01*
X30788Y26489D01*
X29715Y25415D01*
X29694Y25420D01*
X29648Y25587D01*
X33624Y29563D01*
X36509D01*
Y29045D01*
D02*
G37*
G36*
X37062Y20209D02*
X38242Y19029D01*
X38219Y18963D01*
X38168Y18890D01*
X38024D01*
X34808Y22106D01*
X34717Y22167D01*
X34609Y22189D01*
X34609Y22189D01*
X32142D01*
Y22876D01*
X31242D01*
Y22976D01*
X31142D01*
Y23776D01*
X30741D01*
X30641Y23876D01*
X30704Y24026D01*
X32092D01*
Y24368D01*
X32902D01*
X37062Y20209D01*
D02*
G37*
%LPC*%
G36*
X30650Y50794D02*
Y49800D01*
X31332D01*
Y50025D01*
X31305Y50227D01*
X31227Y50416D01*
X31103Y50578D01*
X30941Y50702D01*
X30752Y50780D01*
X30650Y50794D01*
D02*
G37*
G36*
X30450D02*
X30348Y50780D01*
X30159Y50702D01*
X29997Y50578D01*
X29873Y50416D01*
X29795Y50227D01*
X29768Y50025D01*
Y49800D01*
X30450D01*
Y50794D01*
D02*
G37*
G36*
X22900D02*
Y49800D01*
X23582D01*
Y50025D01*
X23555Y50227D01*
X23477Y50416D01*
X23353Y50578D01*
X23191Y50702D01*
X23002Y50780D01*
X22900Y50794D01*
D02*
G37*
G36*
X22700D02*
X22598Y50780D01*
X22409Y50702D01*
X22247Y50578D01*
X22123Y50416D01*
X22045Y50227D01*
X22018Y50025D01*
Y49800D01*
X22700D01*
Y50794D01*
D02*
G37*
G36*
X31332Y49600D02*
X30650D01*
Y48606D01*
X30752Y48620D01*
X30941Y48698D01*
X31103Y48822D01*
X31227Y48984D01*
X31305Y49173D01*
X31332Y49375D01*
Y49600D01*
D02*
G37*
G36*
X30450D02*
X29768D01*
Y49375D01*
X29795Y49173D01*
X29873Y48984D01*
X29997Y48822D01*
X30159Y48698D01*
X30348Y48620D01*
X30450Y48606D01*
Y49600D01*
D02*
G37*
G36*
X23582D02*
X22900D01*
Y48606D01*
X23002Y48620D01*
X23191Y48698D01*
X23353Y48822D01*
X23477Y48984D01*
X23555Y49173D01*
X23582Y49375D01*
Y49600D01*
D02*
G37*
G36*
X22700D02*
X22018D01*
Y49375D01*
X22045Y49173D01*
X22123Y48984D01*
X22247Y48822D01*
X22409Y48698D01*
X22598Y48620D01*
X22700Y48606D01*
Y49600D01*
D02*
G37*
G36*
X48100Y48100D02*
X47400D01*
Y47300D01*
X48100D01*
Y48100D01*
D02*
G37*
G36*
X24284Y47500D02*
X24066D01*
X23863Y47416D01*
X23709Y47262D01*
X23625Y47059D01*
Y47012D01*
X23475Y46938D01*
X23416Y46983D01*
X23191Y47076D01*
X23050Y47095D01*
Y46000D01*
X23883D01*
Y46175D01*
X23864Y46321D01*
X24001Y46427D01*
X24066Y46400D01*
X24284D01*
X24487Y46484D01*
X24641Y46638D01*
X24725Y46841D01*
Y47059D01*
X24641Y47262D01*
X24487Y47416D01*
X24284Y47500D01*
D02*
G37*
G36*
X49850Y48050D02*
X48350D01*
Y46350D01*
X49850D01*
Y46918D01*
X52418D01*
Y44607D01*
X51899D01*
X51831Y44757D01*
X51878Y44829D01*
X51907Y44975D01*
X51878Y45121D01*
X51795Y45245D01*
X51671Y45328D01*
X51525Y45357D01*
X50575D01*
X50429Y45328D01*
X50305Y45245D01*
X50222Y45121D01*
X50193Y44975D01*
X50222Y44829D01*
X50272Y44754D01*
X50293Y44650D01*
X50272Y44546D01*
X50222Y44471D01*
X50193Y44325D01*
X50222Y44179D01*
X50272Y44104D01*
X50293Y44000D01*
X50272Y43896D01*
X50222Y43821D01*
X50193Y43675D01*
X50222Y43529D01*
X50272Y43454D01*
X50293Y43350D01*
X50272Y43246D01*
X50222Y43171D01*
X50193Y43025D01*
X50222Y42879D01*
X50272Y42804D01*
X50293Y42700D01*
X50272Y42596D01*
X50222Y42521D01*
X50193Y42375D01*
X50222Y42229D01*
X50272Y42154D01*
X50293Y42050D01*
X50272Y41946D01*
X50222Y41871D01*
X50193Y41725D01*
X50222Y41579D01*
X50305Y41455D01*
Y41345D01*
X50222Y41221D01*
X50193Y41075D01*
X50222Y40929D01*
X50272Y40854D01*
X50293Y40750D01*
X50272Y40646D01*
X50222Y40571D01*
X50193Y40425D01*
X50222Y40279D01*
X50305Y40155D01*
X50429Y40072D01*
X50575Y40043D01*
X51525D01*
X51671Y40072D01*
X51795Y40155D01*
X51878Y40279D01*
X51907Y40425D01*
X51878Y40571D01*
X51831Y40643D01*
X51899Y40793D01*
X52412D01*
X52412Y40793D01*
X52520Y40814D01*
X52612Y40875D01*
X52905Y41168D01*
X52905Y41168D01*
X52966Y41260D01*
X52987Y41368D01*
Y42375D01*
Y43025D01*
Y43785D01*
X52987Y43785D01*
X52982Y43810D01*
Y46918D01*
X54111D01*
X54231Y46797D01*
X54406Y46725D01*
X54595D01*
X54769Y46797D01*
X54903Y46931D01*
X54975Y47106D01*
Y47294D01*
X54903Y47469D01*
X54769Y47603D01*
X54595Y47675D01*
X54406D01*
X54231Y47603D01*
X54111Y47482D01*
X49850D01*
Y48050D01*
D02*
G37*
G36*
X48100Y47100D02*
X47400D01*
Y46300D01*
X48100D01*
Y47100D01*
D02*
G37*
G36*
X30500Y47095D02*
Y46000D01*
X31333D01*
Y46175D01*
X31301Y46416D01*
X31208Y46641D01*
X31060Y46835D01*
X30866Y46983D01*
X30641Y47076D01*
X30500Y47095D01*
D02*
G37*
G36*
X29284Y47500D02*
X29066D01*
X28863Y47416D01*
X28709Y47262D01*
X28625Y47059D01*
Y46841D01*
X28709Y46638D01*
X28863Y46484D01*
X29066Y46400D01*
X29284D01*
X29349Y46427D01*
X29486Y46321D01*
X29467Y46175D01*
Y46000D01*
X30300D01*
Y47095D01*
X30159Y47076D01*
X29934Y46983D01*
X29875Y46938D01*
X29725Y47012D01*
Y47059D01*
X29641Y47262D01*
X29487Y47416D01*
X29284Y47500D01*
D02*
G37*
G36*
X22850Y47095D02*
X22709Y47076D01*
X22484Y46983D01*
X22290Y46835D01*
X22142Y46641D01*
X22049Y46416D01*
X22017Y46175D01*
Y46000D01*
X22850D01*
Y47095D01*
D02*
G37*
G36*
X23883Y45800D02*
X23050D01*
Y44705D01*
X23191Y44724D01*
X23416Y44817D01*
X23610Y44965D01*
X23758Y45159D01*
X23851Y45384D01*
X23883Y45625D01*
Y45800D01*
D02*
G37*
G36*
X22850D02*
X22017D01*
Y45625D01*
X22049Y45384D01*
X22142Y45159D01*
X22290Y44965D01*
X22484Y44817D01*
X22709Y44724D01*
X22850Y44705D01*
Y45800D01*
D02*
G37*
G36*
X31333D02*
X29467D01*
Y45625D01*
X29499Y45384D01*
X29592Y45159D01*
X29740Y44965D01*
X29755Y44954D01*
X29722Y44790D01*
X29678Y44778D01*
X29487Y44668D01*
X29332Y44513D01*
X29222Y44322D01*
X29165Y44110D01*
Y44100D01*
X30835D01*
Y44110D01*
X30778Y44322D01*
X30668Y44513D01*
X30612Y44569D01*
X30630Y44662D01*
X30661Y44732D01*
X30866Y44817D01*
X31060Y44965D01*
X31208Y45159D01*
X31301Y45384D01*
X31333Y45625D01*
Y45800D01*
D02*
G37*
G36*
X16110Y44835D02*
X16100D01*
Y44100D01*
X16835D01*
Y44110D01*
X16778Y44322D01*
X16668Y44513D01*
X16513Y44668D01*
X16322Y44778D01*
X16110Y44835D01*
D02*
G37*
G36*
X15900D02*
X15890D01*
X15678Y44778D01*
X15487Y44668D01*
X15332Y44513D01*
X15222Y44322D01*
X15165Y44110D01*
Y44100D01*
X15900D01*
Y44835D01*
D02*
G37*
G36*
X9110D02*
X9100D01*
Y44100D01*
X9835D01*
Y44110D01*
X9778Y44322D01*
X9668Y44513D01*
X9513Y44668D01*
X9322Y44778D01*
X9110Y44835D01*
D02*
G37*
G36*
X41302Y44502D02*
X40502D01*
Y43802D01*
X41302D01*
Y44502D01*
D02*
G37*
G36*
X30835Y43900D02*
X30100D01*
Y43165D01*
X30110D01*
X30322Y43222D01*
X30513Y43332D01*
X30668Y43487D01*
X30778Y43678D01*
X30835Y43890D01*
Y43900D01*
D02*
G37*
G36*
X29900D02*
X29165D01*
Y43890D01*
X29222Y43678D01*
X29332Y43487D01*
X29487Y43332D01*
X29678Y43222D01*
X29890Y43165D01*
X29900D01*
Y43900D01*
D02*
G37*
G36*
X16835D02*
X16100D01*
Y43165D01*
X16110D01*
X16322Y43222D01*
X16513Y43332D01*
X16668Y43487D01*
X16778Y43678D01*
X16835Y43890D01*
Y43900D01*
D02*
G37*
G36*
X15900D02*
X15165D01*
Y43890D01*
X15222Y43678D01*
X15332Y43487D01*
X15487Y43332D01*
X15678Y43222D01*
X15890Y43165D01*
X15900D01*
Y43900D01*
D02*
G37*
G36*
X9835D02*
X9100D01*
Y43165D01*
X9110D01*
X9322Y43222D01*
X9513Y43332D01*
X9668Y43487D01*
X9778Y43678D01*
X9835Y43890D01*
Y43900D01*
D02*
G37*
G36*
X41302Y43602D02*
X40502D01*
Y42902D01*
X41302D01*
Y43602D01*
D02*
G37*
G36*
X49850Y44450D02*
X48200D01*
Y42800D01*
X49850D01*
Y44450D01*
D02*
G37*
G36*
X48000D02*
X46350D01*
Y42800D01*
X48000D01*
Y44450D01*
D02*
G37*
G36*
X49850Y42600D02*
X48200D01*
Y40950D01*
X49850D01*
Y42600D01*
D02*
G37*
G36*
X48000D02*
X46350D01*
Y40950D01*
X48000D01*
Y42600D01*
D02*
G37*
G36*
X15403Y42915D02*
X15027D01*
X14659Y42842D01*
X14313Y42698D01*
X14001Y42490D01*
X13735Y42224D01*
X13527Y41912D01*
X13383Y41566D01*
X13310Y41198D01*
Y40822D01*
X13383Y40454D01*
X13527Y40108D01*
X13735Y39796D01*
X14001Y39530D01*
X14313Y39322D01*
X14659Y39178D01*
X15027Y39105D01*
X15403D01*
X15771Y39178D01*
X16117Y39322D01*
X16429Y39530D01*
X16695Y39796D01*
X16903Y40108D01*
X17047Y40454D01*
X17120Y40822D01*
Y41198D01*
X17047Y41566D01*
X16903Y41912D01*
X16695Y42224D01*
X16429Y42490D01*
X16117Y42698D01*
X15771Y42842D01*
X15403Y42915D01*
D02*
G37*
G36*
X12610Y37835D02*
X12600D01*
Y37100D01*
X13335D01*
Y37110D01*
X13278Y37322D01*
X13168Y37513D01*
X13013Y37668D01*
X12822Y37778D01*
X12610Y37835D01*
D02*
G37*
G36*
X12400D02*
X12390D01*
X12178Y37778D01*
X11987Y37668D01*
X11832Y37513D01*
X11722Y37322D01*
X11665Y37110D01*
Y37100D01*
X12400D01*
Y37835D01*
D02*
G37*
G36*
X13335Y36900D02*
X12600D01*
Y36165D01*
X12610D01*
X12822Y36222D01*
X13013Y36332D01*
X13168Y36487D01*
X13278Y36678D01*
X13335Y36890D01*
Y36900D01*
D02*
G37*
G36*
X12400D02*
X11665D01*
Y36890D01*
X11722Y36678D01*
X11832Y36487D01*
X11987Y36332D01*
X12178Y36222D01*
X12390Y36165D01*
X12400D01*
Y36900D01*
D02*
G37*
G36*
X57249Y37505D02*
X57051D01*
X56861Y37454D01*
X56689Y37355D01*
X56550Y37216D01*
X56451Y37044D01*
X56400Y36854D01*
Y36656D01*
X56451Y36466D01*
X56550Y36294D01*
X56689Y36155D01*
X56861Y36056D01*
X57051Y36005D01*
X57249D01*
X57439Y36056D01*
X57611Y36155D01*
X57750Y36294D01*
X57849Y36466D01*
X57900Y36656D01*
Y36854D01*
X57849Y37044D01*
X57750Y37216D01*
X57611Y37355D01*
X57439Y37454D01*
X57249Y37505D01*
D02*
G37*
G36*
X55249D02*
X55051D01*
X54861Y37454D01*
X54689Y37355D01*
X54550Y37216D01*
X54451Y37044D01*
X54400Y36854D01*
Y36656D01*
X54451Y36466D01*
X54550Y36294D01*
X54689Y36155D01*
X54861Y36056D01*
X55051Y36005D01*
X55249D01*
X55439Y36056D01*
X55611Y36155D01*
X55750Y36294D01*
X55849Y36466D01*
X55900Y36656D01*
Y36854D01*
X55849Y37044D01*
X55750Y37216D01*
X55611Y37355D01*
X55439Y37454D01*
X55249Y37505D01*
D02*
G37*
G36*
X53249D02*
X53051D01*
X52861Y37454D01*
X52689Y37355D01*
X52550Y37216D01*
X52451Y37044D01*
X52400Y36854D01*
Y36656D01*
X52451Y36466D01*
X52550Y36294D01*
X52689Y36155D01*
X52861Y36056D01*
X53051Y36005D01*
X53249D01*
X53439Y36056D01*
X53611Y36155D01*
X53750Y36294D01*
X53849Y36466D01*
X53900Y36656D01*
Y36854D01*
X53849Y37044D01*
X53750Y37216D01*
X53611Y37355D01*
X53439Y37454D01*
X53249Y37505D01*
D02*
G37*
G36*
X51249D02*
X51051D01*
X50861Y37454D01*
X50689Y37355D01*
X50550Y37216D01*
X50451Y37044D01*
X50400Y36854D01*
Y36656D01*
X50451Y36466D01*
X50550Y36294D01*
X50689Y36155D01*
X50861Y36056D01*
X51051Y36005D01*
X51249D01*
X51439Y36056D01*
X51611Y36155D01*
X51750Y36294D01*
X51849Y36466D01*
X51900Y36656D01*
Y36854D01*
X51849Y37044D01*
X51750Y37216D01*
X51611Y37355D01*
X51439Y37454D01*
X51249Y37505D01*
D02*
G37*
G36*
X49249D02*
X49051D01*
X48861Y37454D01*
X48689Y37355D01*
X48550Y37216D01*
X48451Y37044D01*
X48400Y36854D01*
Y36656D01*
X48451Y36466D01*
X48550Y36294D01*
X48689Y36155D01*
X48861Y36056D01*
X49051Y36005D01*
X49249D01*
X49439Y36056D01*
X49611Y36155D01*
X49750Y36294D01*
X49849Y36466D01*
X49900Y36656D01*
Y36854D01*
X49849Y37044D01*
X49750Y37216D01*
X49611Y37355D01*
X49439Y37454D01*
X49249Y37505D01*
D02*
G37*
G36*
X47249D02*
X47051D01*
X46861Y37454D01*
X46689Y37355D01*
X46550Y37216D01*
X46451Y37044D01*
X46400Y36854D01*
Y36656D01*
X46451Y36466D01*
X46550Y36294D01*
X46689Y36155D01*
X46861Y36056D01*
X47051Y36005D01*
X47249D01*
X47439Y36056D01*
X47611Y36155D01*
X47750Y36294D01*
X47849Y36466D01*
X47900Y36656D01*
Y36854D01*
X47849Y37044D01*
X47750Y37216D01*
X47611Y37355D01*
X47439Y37454D01*
X47249Y37505D01*
D02*
G37*
G36*
X45249D02*
X45051D01*
X44861Y37454D01*
X44689Y37355D01*
X44550Y37216D01*
X44451Y37044D01*
X44400Y36854D01*
Y36656D01*
X44451Y36466D01*
X44550Y36294D01*
X44689Y36155D01*
X44861Y36056D01*
X45051Y36005D01*
X45249D01*
X45439Y36056D01*
X45611Y36155D01*
X45750Y36294D01*
X45849Y36466D01*
X45900Y36656D01*
Y36854D01*
X45849Y37044D01*
X45750Y37216D01*
X45611Y37355D01*
X45439Y37454D01*
X45249Y37505D01*
D02*
G37*
G36*
X43249D02*
X43051D01*
X42861Y37454D01*
X42689Y37355D01*
X42550Y37216D01*
X42451Y37044D01*
X42400Y36854D01*
Y36656D01*
X42451Y36466D01*
X42550Y36294D01*
X42689Y36155D01*
X42861Y36056D01*
X43051Y36005D01*
X43249D01*
X43439Y36056D01*
X43611Y36155D01*
X43750Y36294D01*
X43849Y36466D01*
X43900Y36656D01*
Y36854D01*
X43849Y37044D01*
X43750Y37216D01*
X43611Y37355D01*
X43439Y37454D01*
X43249Y37505D01*
D02*
G37*
G36*
X41249D02*
X41051D01*
X40861Y37454D01*
X40689Y37355D01*
X40550Y37216D01*
X40451Y37044D01*
X40400Y36854D01*
Y36656D01*
X40451Y36466D01*
X40550Y36294D01*
X40689Y36155D01*
X40861Y36056D01*
X41051Y36005D01*
X41249D01*
X41439Y36056D01*
X41611Y36155D01*
X41750Y36294D01*
X41849Y36466D01*
X41900Y36656D01*
Y36854D01*
X41849Y37044D01*
X41750Y37216D01*
X41611Y37355D01*
X41439Y37454D01*
X41249Y37505D01*
D02*
G37*
G36*
X16841Y34848D02*
X16837D01*
Y34423D01*
X17262D01*
Y34427D01*
X17182Y34620D01*
X17034Y34768D01*
X16841Y34848D01*
D02*
G37*
G36*
X16637D02*
X16633D01*
X16440Y34768D01*
X16292Y34620D01*
X16212Y34427D01*
Y34423D01*
X16637D01*
Y34848D01*
D02*
G37*
G36*
X8792Y34886D02*
X8267D01*
Y34136D01*
X8792D01*
Y34886D01*
D02*
G37*
G36*
X8067D02*
X7542D01*
Y34136D01*
X8067D01*
Y34886D01*
D02*
G37*
G36*
X17262Y34223D02*
X16837D01*
Y33798D01*
X16841D01*
X17034Y33878D01*
X17182Y34026D01*
X17262Y34219D01*
Y34223D01*
D02*
G37*
G36*
X16637D02*
X16212D01*
Y34219D01*
X16292Y34026D01*
X16440Y33878D01*
X16633Y33798D01*
X16637D01*
Y34223D01*
D02*
G37*
G36*
X8792Y33936D02*
X8267D01*
Y33186D01*
X8792D01*
Y33936D01*
D02*
G37*
G36*
X8067D02*
X7542D01*
Y33186D01*
X8067D01*
Y33936D01*
D02*
G37*
G36*
X10442Y34836D02*
X9292D01*
Y33236D01*
X10442D01*
Y33754D01*
X13353D01*
X15095Y32012D01*
X15032Y31902D01*
X14960Y31634D01*
Y31358D01*
X15032Y31091D01*
X15170Y30852D01*
X15365Y30656D01*
X15605Y30518D01*
X15872Y30446D01*
X16148D01*
X16415Y30518D01*
X16655Y30656D01*
X16850Y30852D01*
X16988Y31091D01*
X17060Y31358D01*
Y31634D01*
X16988Y31902D01*
X16850Y32141D01*
X16655Y32336D01*
X16415Y32475D01*
X16148Y32546D01*
X15872D01*
X15605Y32475D01*
X15495Y32411D01*
X13670Y34236D01*
X13578Y34297D01*
X13470Y34318D01*
X13470Y34318D01*
X10442D01*
Y34836D01*
D02*
G37*
G36*
X11148Y32546D02*
X10872D01*
X10605Y32475D01*
X10365Y32336D01*
X10170Y32141D01*
X10032Y31902D01*
X9960Y31634D01*
Y31358D01*
X10032Y31091D01*
X10170Y30852D01*
X10365Y30656D01*
X10605Y30518D01*
X10872Y30446D01*
X11148D01*
X11415Y30518D01*
X11655Y30656D01*
X11850Y30852D01*
X11988Y31091D01*
X12060Y31358D01*
Y31634D01*
X11988Y31902D01*
X11850Y32141D01*
X11655Y32336D01*
X11415Y32475D01*
X11148Y32546D01*
D02*
G37*
G36*
X51110Y30835D02*
X51100D01*
Y30100D01*
X51835D01*
Y30110D01*
X51778Y30322D01*
X51668Y30513D01*
X51513Y30668D01*
X51322Y30778D01*
X51110Y30835D01*
D02*
G37*
G36*
X50900D02*
X50890D01*
X50678Y30778D01*
X50487Y30668D01*
X50332Y30513D01*
X50222Y30322D01*
X50165Y30110D01*
Y30100D01*
X50900D01*
Y30835D01*
D02*
G37*
G36*
X44110D02*
X44100D01*
Y30100D01*
X44835D01*
Y30110D01*
X44778Y30322D01*
X44668Y30513D01*
X44513Y30668D01*
X44322Y30778D01*
X44110Y30835D01*
D02*
G37*
G36*
X43900D02*
X43890D01*
X43678Y30778D01*
X43487Y30668D01*
X43332Y30513D01*
X43222Y30322D01*
X43165Y30110D01*
Y30100D01*
X43900D01*
Y30835D01*
D02*
G37*
G36*
X9110D02*
X9100D01*
Y30100D01*
X9835D01*
Y30110D01*
X9778Y30322D01*
X9668Y30513D01*
X9513Y30668D01*
X9322Y30778D01*
X9110Y30835D01*
D02*
G37*
G36*
X8900D02*
X8890D01*
X8678Y30778D01*
X8487Y30668D01*
X8332Y30513D01*
X8222Y30322D01*
X8165Y30110D01*
Y30100D01*
X8900D01*
Y30835D01*
D02*
G37*
G36*
X2110D02*
X2100D01*
Y30100D01*
X2835D01*
Y30110D01*
X2778Y30322D01*
X2668Y30513D01*
X2513Y30668D01*
X2322Y30778D01*
X2110Y30835D01*
D02*
G37*
G36*
X1900D02*
X1890D01*
X1678Y30778D01*
X1487Y30668D01*
X1332Y30513D01*
X1222Y30322D01*
X1165Y30110D01*
Y30100D01*
X1900D01*
Y30835D01*
D02*
G37*
G36*
X51835Y29900D02*
X51100D01*
Y29165D01*
X51110D01*
X51322Y29222D01*
X51513Y29332D01*
X51668Y29487D01*
X51778Y29678D01*
X51835Y29890D01*
Y29900D01*
D02*
G37*
G36*
X50900D02*
X50165D01*
Y29890D01*
X50222Y29678D01*
X50332Y29487D01*
X50487Y29332D01*
X50678Y29222D01*
X50890Y29165D01*
X50900D01*
Y29900D01*
D02*
G37*
G36*
X44835D02*
X44100D01*
Y29165D01*
X44110D01*
X44322Y29222D01*
X44513Y29332D01*
X44668Y29487D01*
X44778Y29678D01*
X44835Y29890D01*
Y29900D01*
D02*
G37*
G36*
X43900D02*
X43165D01*
Y29890D01*
X43222Y29678D01*
X43332Y29487D01*
X43487Y29332D01*
X43678Y29222D01*
X43890Y29165D01*
X43900D01*
Y29900D01*
D02*
G37*
G36*
X9835D02*
X9100D01*
Y29165D01*
X9110D01*
X9322Y29222D01*
X9513Y29332D01*
X9668Y29487D01*
X9778Y29678D01*
X9835Y29890D01*
Y29900D01*
D02*
G37*
G36*
X8900D02*
X8165D01*
Y29890D01*
X8222Y29678D01*
X8332Y29487D01*
X8487Y29332D01*
X8678Y29222D01*
X8890Y29165D01*
X8900D01*
Y29900D01*
D02*
G37*
G36*
X2835D02*
X2100D01*
Y29165D01*
X2110D01*
X2322Y29222D01*
X2513Y29332D01*
X2668Y29487D01*
X2778Y29678D01*
X2835Y29890D01*
Y29900D01*
D02*
G37*
G36*
X1900D02*
X1165D01*
Y29890D01*
X1222Y29678D01*
X1332Y29487D01*
X1487Y29332D01*
X1678Y29222D01*
X1890Y29165D01*
X1900D01*
Y29900D01*
D02*
G37*
G36*
X54610Y23835D02*
X54600D01*
Y23100D01*
X55335D01*
Y23110D01*
X55278Y23322D01*
X55168Y23513D01*
X55013Y23668D01*
X54822Y23778D01*
X54610Y23835D01*
D02*
G37*
G36*
X54400D02*
X54390D01*
X54178Y23778D01*
X53987Y23668D01*
X53832Y23513D01*
X53722Y23322D01*
X53665Y23110D01*
Y23100D01*
X54400D01*
Y23835D01*
D02*
G37*
G36*
X47610D02*
X47600D01*
Y23100D01*
X48335D01*
Y23110D01*
X48278Y23322D01*
X48168Y23513D01*
X48013Y23668D01*
X47822Y23778D01*
X47610Y23835D01*
D02*
G37*
G36*
X47400D02*
X47390D01*
X47178Y23778D01*
X46987Y23668D01*
X46832Y23513D01*
X46722Y23322D01*
X46665Y23110D01*
Y23100D01*
X47400D01*
Y23835D01*
D02*
G37*
G36*
X12610D02*
X12600D01*
Y23100D01*
X13335D01*
Y23110D01*
X13278Y23322D01*
X13168Y23513D01*
X13013Y23668D01*
X12822Y23778D01*
X12610Y23835D01*
D02*
G37*
G36*
X12400D02*
X12390D01*
X12178Y23778D01*
X11987Y23668D01*
X11832Y23513D01*
X11722Y23322D01*
X11665Y23110D01*
Y23100D01*
X12400D01*
Y23835D01*
D02*
G37*
G36*
X5610D02*
X5600D01*
Y23100D01*
X6335D01*
Y23110D01*
X6278Y23322D01*
X6168Y23513D01*
X6013Y23668D01*
X5822Y23778D01*
X5610Y23835D01*
D02*
G37*
G36*
X5400D02*
X5390D01*
X5178Y23778D01*
X4987Y23668D01*
X4832Y23513D01*
X4722Y23322D01*
X4665Y23110D01*
Y23100D01*
X5400D01*
Y23835D01*
D02*
G37*
G36*
X55335Y22900D02*
X54600D01*
Y22165D01*
X54610D01*
X54822Y22222D01*
X55013Y22332D01*
X55168Y22487D01*
X55278Y22678D01*
X55335Y22890D01*
Y22900D01*
D02*
G37*
G36*
X54400D02*
X53665D01*
Y22890D01*
X53722Y22678D01*
X53832Y22487D01*
X53987Y22332D01*
X54178Y22222D01*
X54390Y22165D01*
X54400D01*
Y22900D01*
D02*
G37*
G36*
X48335D02*
X47600D01*
Y22165D01*
X47610D01*
X47822Y22222D01*
X48013Y22332D01*
X48168Y22487D01*
X48278Y22678D01*
X48335Y22890D01*
Y22900D01*
D02*
G37*
G36*
X47400D02*
X46665D01*
Y22890D01*
X46722Y22678D01*
X46832Y22487D01*
X46987Y22332D01*
X47178Y22222D01*
X47390Y22165D01*
X47400D01*
Y22900D01*
D02*
G37*
G36*
X13335D02*
X12600D01*
Y22165D01*
X12610D01*
X12822Y22222D01*
X13013Y22332D01*
X13168Y22487D01*
X13278Y22678D01*
X13335Y22890D01*
Y22900D01*
D02*
G37*
G36*
X12400D02*
X11665D01*
Y22890D01*
X11722Y22678D01*
X11832Y22487D01*
X11987Y22332D01*
X12178Y22222D01*
X12390Y22165D01*
X12400D01*
Y22900D01*
D02*
G37*
G36*
X6335D02*
X5600D01*
Y22165D01*
X5610D01*
X5822Y22222D01*
X6013Y22332D01*
X6168Y22487D01*
X6278Y22678D01*
X6335Y22890D01*
Y22900D01*
D02*
G37*
G36*
X5400D02*
X4665D01*
Y22890D01*
X4722Y22678D01*
X4832Y22487D01*
X4987Y22332D01*
X5178Y22222D01*
X5390Y22165D01*
X5400D01*
Y22900D01*
D02*
G37*
G36*
X24711Y19458D02*
X24011D01*
Y18658D01*
X24711D01*
Y19458D01*
D02*
G37*
G36*
X23811D02*
X23111D01*
Y18658D01*
X23811D01*
Y19458D01*
D02*
G37*
G36*
X16148Y20046D02*
X15872D01*
X15605Y19975D01*
X15365Y19836D01*
X15170Y19641D01*
X15032Y19402D01*
X14960Y19134D01*
Y18858D01*
X15032Y18591D01*
X15170Y18352D01*
X15365Y18156D01*
X15605Y18018D01*
X15872Y17946D01*
X16148D01*
X16415Y18018D01*
X16655Y18156D01*
X16850Y18352D01*
X16988Y18591D01*
X17060Y18858D01*
Y19134D01*
X16988Y19402D01*
X16850Y19641D01*
X16655Y19836D01*
X16415Y19975D01*
X16148Y20046D01*
D02*
G37*
G36*
X44110Y16835D02*
X44100D01*
Y16100D01*
X44835D01*
Y16110D01*
X44778Y16322D01*
X44668Y16513D01*
X44513Y16668D01*
X44322Y16778D01*
X44110Y16835D01*
D02*
G37*
G36*
X43900D02*
X43890D01*
X43678Y16778D01*
X43487Y16668D01*
X43332Y16513D01*
X43222Y16322D01*
X43165Y16110D01*
Y16100D01*
X43900D01*
Y16835D01*
D02*
G37*
G36*
X16110D02*
X16100D01*
Y16100D01*
X16835D01*
Y16110D01*
X16778Y16322D01*
X16668Y16513D01*
X16513Y16668D01*
X16322Y16778D01*
X16110Y16835D01*
D02*
G37*
G36*
X15900D02*
X15890D01*
X15678Y16778D01*
X15487Y16668D01*
X15332Y16513D01*
X15222Y16322D01*
X15165Y16110D01*
Y16100D01*
X15900D01*
Y16835D01*
D02*
G37*
G36*
X9110D02*
X9100D01*
Y16100D01*
X9835D01*
Y16110D01*
X9778Y16322D01*
X9668Y16513D01*
X9513Y16668D01*
X9322Y16778D01*
X9110Y16835D01*
D02*
G37*
G36*
X8900D02*
X8890D01*
X8678Y16778D01*
X8487Y16668D01*
X8332Y16513D01*
X8222Y16322D01*
X8165Y16110D01*
Y16100D01*
X8900D01*
Y16835D01*
D02*
G37*
G36*
X2110D02*
X2100D01*
Y16100D01*
X2835D01*
Y16110D01*
X2778Y16322D01*
X2668Y16513D01*
X2513Y16668D01*
X2322Y16778D01*
X2110Y16835D01*
D02*
G37*
G36*
X1900D02*
X1890D01*
X1678Y16778D01*
X1487Y16668D01*
X1332Y16513D01*
X1222Y16322D01*
X1165Y16110D01*
Y16100D01*
X1900D01*
Y16835D01*
D02*
G37*
G36*
X35825Y16300D02*
X34675D01*
Y15782D01*
X32096D01*
X31976Y15903D01*
X31801Y15975D01*
X31613D01*
X31438Y15903D01*
X31304Y15769D01*
X31232Y15594D01*
Y15406D01*
X31304Y15231D01*
X31438Y15097D01*
X31613Y15025D01*
X31801D01*
X31976Y15097D01*
X32096Y15218D01*
X34675D01*
Y14700D01*
X35825D01*
Y16300D01*
D02*
G37*
G36*
X26940Y16215D02*
X26190D01*
Y15340D01*
X26940D01*
Y16215D01*
D02*
G37*
G36*
X25990D02*
X25240D01*
Y15340D01*
X25990D01*
Y16215D01*
D02*
G37*
G36*
X16835Y15900D02*
X16100D01*
Y15165D01*
X16110D01*
X16322Y15222D01*
X16513Y15332D01*
X16668Y15487D01*
X16778Y15678D01*
X16835Y15890D01*
Y15900D01*
D02*
G37*
G36*
X15900D02*
X15165D01*
Y15890D01*
X15222Y15678D01*
X15332Y15487D01*
X15487Y15332D01*
X15678Y15222D01*
X15890Y15165D01*
X15900D01*
Y15900D01*
D02*
G37*
G36*
X9835D02*
X9100D01*
Y15165D01*
X9110D01*
X9322Y15222D01*
X9513Y15332D01*
X9668Y15487D01*
X9778Y15678D01*
X9835Y15890D01*
Y15900D01*
D02*
G37*
G36*
X8900D02*
X8165D01*
Y15890D01*
X8222Y15678D01*
X8332Y15487D01*
X8487Y15332D01*
X8678Y15222D01*
X8890Y15165D01*
X8900D01*
Y15900D01*
D02*
G37*
G36*
X2835D02*
X2100D01*
Y15165D01*
X2110D01*
X2322Y15222D01*
X2513Y15332D01*
X2668Y15487D01*
X2778Y15678D01*
X2835Y15890D01*
Y15900D01*
D02*
G37*
G36*
X1900D02*
X1165D01*
Y15890D01*
X1222Y15678D01*
X1332Y15487D01*
X1487Y15332D01*
X1678Y15222D01*
X1890Y15165D01*
X1900D01*
Y15900D01*
D02*
G37*
G36*
X41255Y15555D02*
X41250D01*
Y14855D01*
X41950D01*
Y14860D01*
X41895Y15064D01*
X41790Y15246D01*
X41641Y15395D01*
X41459Y15500D01*
X41255Y15555D01*
D02*
G37*
G36*
X22390Y16165D02*
X20790D01*
Y14315D01*
X22390D01*
Y16165D01*
D02*
G37*
G36*
X26940Y15140D02*
X26190D01*
Y14265D01*
X26940D01*
Y15140D01*
D02*
G37*
G36*
X25990D02*
X25240D01*
Y14265D01*
X25990D01*
Y15140D01*
D02*
G37*
G36*
X57249Y15505D02*
X57051D01*
X56861Y15454D01*
X56689Y15355D01*
X56550Y15216D01*
X56451Y15044D01*
X56400Y14854D01*
Y14656D01*
X56451Y14466D01*
X56550Y14294D01*
X56689Y14155D01*
X56861Y14056D01*
X57051Y14005D01*
X57249D01*
X57439Y14056D01*
X57611Y14155D01*
X57750Y14294D01*
X57849Y14466D01*
X57900Y14656D01*
Y14854D01*
X57849Y15044D01*
X57750Y15216D01*
X57611Y15355D01*
X57439Y15454D01*
X57249Y15505D01*
D02*
G37*
G36*
X55249D02*
X55051D01*
X54861Y15454D01*
X54689Y15355D01*
X54550Y15216D01*
X54451Y15044D01*
X54400Y14854D01*
Y14656D01*
X54451Y14466D01*
X54550Y14294D01*
X54689Y14155D01*
X54861Y14056D01*
X55051Y14005D01*
X55249D01*
X55439Y14056D01*
X55611Y14155D01*
X55750Y14294D01*
X55849Y14466D01*
X55900Y14656D01*
Y14854D01*
X55849Y15044D01*
X55750Y15216D01*
X55611Y15355D01*
X55439Y15454D01*
X55249Y15505D01*
D02*
G37*
G36*
X53249D02*
X53051D01*
X52861Y15454D01*
X52689Y15355D01*
X52550Y15216D01*
X52451Y15044D01*
X52400Y14854D01*
Y14656D01*
X52451Y14466D01*
X52550Y14294D01*
X52689Y14155D01*
X52861Y14056D01*
X53051Y14005D01*
X53249D01*
X53439Y14056D01*
X53611Y14155D01*
X53750Y14294D01*
X53849Y14466D01*
X53900Y14656D01*
Y14854D01*
X53849Y15044D01*
X53750Y15216D01*
X53611Y15355D01*
X53439Y15454D01*
X53249Y15505D01*
D02*
G37*
G36*
X51249D02*
X51051D01*
X50861Y15454D01*
X50689Y15355D01*
X50550Y15216D01*
X50451Y15044D01*
X50400Y14854D01*
Y14656D01*
X50451Y14466D01*
X50550Y14294D01*
X50689Y14155D01*
X50861Y14056D01*
X51051Y14005D01*
X51249D01*
X51439Y14056D01*
X51611Y14155D01*
X51750Y14294D01*
X51849Y14466D01*
X51900Y14656D01*
Y14854D01*
X51849Y15044D01*
X51750Y15216D01*
X51611Y15355D01*
X51439Y15454D01*
X51249Y15505D01*
D02*
G37*
G36*
X49249D02*
X49051D01*
X48861Y15454D01*
X48689Y15355D01*
X48550Y15216D01*
X48451Y15044D01*
X48400Y14854D01*
Y14656D01*
X48451Y14466D01*
X48550Y14294D01*
X48689Y14155D01*
X48861Y14056D01*
X49051Y14005D01*
X49249D01*
X49439Y14056D01*
X49611Y14155D01*
X49750Y14294D01*
X49849Y14466D01*
X49900Y14656D01*
Y14854D01*
X49849Y15044D01*
X49750Y15216D01*
X49611Y15355D01*
X49439Y15454D01*
X49249Y15505D01*
D02*
G37*
G36*
X47249D02*
X47051D01*
X46861Y15454D01*
X46689Y15355D01*
X46550Y15216D01*
X46451Y15044D01*
X46400Y14854D01*
Y14656D01*
X46451Y14466D01*
X46550Y14294D01*
X46689Y14155D01*
X46861Y14056D01*
X47051Y14005D01*
X47249D01*
X47439Y14056D01*
X47611Y14155D01*
X47750Y14294D01*
X47849Y14466D01*
X47900Y14656D01*
Y14854D01*
X47849Y15044D01*
X47750Y15216D01*
X47611Y15355D01*
X47439Y15454D01*
X47249Y15505D01*
D02*
G37*
G36*
X44835Y15900D02*
X44100D01*
Y15165D01*
X44110D01*
X44322Y15222D01*
X44409Y15272D01*
X44519Y15162D01*
X44451Y15044D01*
X44400Y14854D01*
Y14656D01*
X44451Y14466D01*
X44550Y14294D01*
X44689Y14155D01*
X44861Y14056D01*
X45051Y14005D01*
X45249D01*
X45439Y14056D01*
X45611Y14155D01*
X45750Y14294D01*
X45849Y14466D01*
X45900Y14656D01*
Y14854D01*
X45849Y15044D01*
X45750Y15216D01*
X45611Y15355D01*
X45439Y15454D01*
X45249Y15505D01*
X45051D01*
X44861Y15454D01*
X44803Y15421D01*
X44693Y15530D01*
X44778Y15678D01*
X44835Y15890D01*
Y15900D01*
D02*
G37*
G36*
X43900D02*
X43165D01*
Y15890D01*
X43222Y15678D01*
X43235Y15655D01*
X43148Y15505D01*
X43051D01*
X42861Y15454D01*
X42689Y15355D01*
X42550Y15216D01*
X42451Y15044D01*
X42400Y14854D01*
Y14656D01*
X42451Y14466D01*
X42550Y14294D01*
X42689Y14155D01*
X42861Y14056D01*
X43051Y14005D01*
X43249D01*
X43439Y14056D01*
X43611Y14155D01*
X43750Y14294D01*
X43849Y14466D01*
X43900Y14656D01*
Y14854D01*
X43855Y15021D01*
X43861Y15045D01*
X43886Y15087D01*
X43900Y15104D01*
Y15900D01*
D02*
G37*
G36*
X41950Y14655D02*
X41250D01*
Y13955D01*
X41255D01*
X41459Y14010D01*
X41641Y14115D01*
X41790Y14264D01*
X41895Y14446D01*
X41950Y14650D01*
Y14655D01*
D02*
G37*
G36*
X37525Y16300D02*
X36375D01*
Y14700D01*
X36668D01*
Y12673D01*
X35582Y11588D01*
X35507Y11631D01*
X35265Y11696D01*
X35015D01*
X34773Y11631D01*
X34557Y11506D01*
X34380Y11330D01*
X34255Y11113D01*
X34190Y10871D01*
Y10621D01*
X34255Y10380D01*
X34380Y10163D01*
X34557Y9986D01*
X34773Y9861D01*
X35015Y9796D01*
X35265D01*
X35507Y9861D01*
X35723Y9986D01*
X35900Y10163D01*
X36025Y10380D01*
X36090Y10621D01*
Y10871D01*
X36025Y11113D01*
X35982Y11188D01*
X37150Y12357D01*
X37211Y12448D01*
X37232Y12556D01*
Y14700D01*
X37525D01*
Y16300D01*
D02*
G37*
G36*
X37812Y11746D02*
X37780D01*
Y10846D01*
X38680D01*
Y10878D01*
X38612Y11132D01*
X38480Y11360D01*
X38294Y11546D01*
X38066Y11678D01*
X37812Y11746D01*
D02*
G37*
G36*
X37580D02*
X37548D01*
X37294Y11678D01*
X37066Y11546D01*
X36880Y11360D01*
X36748Y11132D01*
X36680Y10878D01*
Y10846D01*
X37580D01*
Y11746D01*
D02*
G37*
G36*
X38680Y10646D02*
X37780D01*
Y9746D01*
X37812D01*
X38066Y9814D01*
X38294Y9946D01*
X38480Y10132D01*
X38612Y10360D01*
X38680Y10615D01*
Y10646D01*
D02*
G37*
G36*
X37580D02*
X36680D01*
Y10615D01*
X36748Y10360D01*
X36880Y10132D01*
X37066Y9946D01*
X37294Y9814D01*
X37548Y9746D01*
X37580D01*
Y10646D01*
D02*
G37*
G36*
X26610Y9835D02*
X26600D01*
Y9100D01*
X27335D01*
Y9110D01*
X27278Y9322D01*
X27168Y9513D01*
X27013Y9668D01*
X26822Y9778D01*
X26610Y9835D01*
D02*
G37*
G36*
X26400D02*
X26390D01*
X26178Y9778D01*
X25987Y9668D01*
X25832Y9513D01*
X25722Y9322D01*
X25665Y9110D01*
Y9100D01*
X26400D01*
Y9835D01*
D02*
G37*
G36*
X19610D02*
X19600D01*
Y9100D01*
X20335D01*
Y9110D01*
X20278Y9322D01*
X20168Y9513D01*
X20013Y9668D01*
X19822Y9778D01*
X19610Y9835D01*
D02*
G37*
G36*
X19400D02*
X19390D01*
X19178Y9778D01*
X18987Y9668D01*
X18832Y9513D01*
X18722Y9322D01*
X18665Y9110D01*
Y9100D01*
X19400D01*
Y9835D01*
D02*
G37*
G36*
X12610D02*
X12600D01*
Y9100D01*
X13335D01*
Y9110D01*
X13278Y9322D01*
X13168Y9513D01*
X13013Y9668D01*
X12822Y9778D01*
X12610Y9835D01*
D02*
G37*
G36*
X12400D02*
X12390D01*
X12178Y9778D01*
X11987Y9668D01*
X11832Y9513D01*
X11722Y9322D01*
X11665Y9110D01*
Y9100D01*
X12400D01*
Y9835D01*
D02*
G37*
G36*
X5610D02*
X5600D01*
Y9100D01*
X6335D01*
Y9110D01*
X6278Y9322D01*
X6168Y9513D01*
X6013Y9668D01*
X5822Y9778D01*
X5610Y9835D01*
D02*
G37*
G36*
X5400D02*
X5390D01*
X5178Y9778D01*
X4987Y9668D01*
X4832Y9513D01*
X4722Y9322D01*
X4665Y9110D01*
Y9100D01*
X5400D01*
Y9835D01*
D02*
G37*
G36*
X56764Y9586D02*
X56739D01*
Y8736D01*
X57589D01*
Y8761D01*
X57524Y9003D01*
X57399Y9219D01*
X57222Y9396D01*
X57006Y9521D01*
X56764Y9586D01*
D02*
G37*
G36*
X56539D02*
X56514D01*
X56272Y9521D01*
X56056Y9396D01*
X55879Y9219D01*
X55754Y9003D01*
X55689Y8761D01*
Y8736D01*
X56539D01*
Y9586D01*
D02*
G37*
G36*
X15403Y12405D02*
X15027D01*
X14659Y12332D01*
X14313Y12188D01*
X14001Y11980D01*
X13735Y11714D01*
X13527Y11402D01*
X13383Y11056D01*
X13310Y10688D01*
Y10312D01*
X13383Y9944D01*
X13527Y9598D01*
X13735Y9286D01*
X14001Y9020D01*
X14313Y8812D01*
X14659Y8668D01*
X15027Y8595D01*
X15403D01*
X15771Y8668D01*
X16117Y8812D01*
X16429Y9020D01*
X16695Y9286D01*
X16903Y9598D01*
X17047Y9944D01*
X17120Y10312D01*
Y10688D01*
X17047Y11056D01*
X16903Y11402D01*
X16695Y11714D01*
X16429Y11980D01*
X16117Y12188D01*
X15771Y12332D01*
X15403Y12405D01*
D02*
G37*
G36*
X20335Y8900D02*
X19600D01*
Y8165D01*
X19610D01*
X19822Y8222D01*
X20013Y8332D01*
X20168Y8487D01*
X20278Y8678D01*
X20335Y8890D01*
Y8900D01*
D02*
G37*
G36*
X19400D02*
X18665D01*
Y8890D01*
X18722Y8678D01*
X18832Y8487D01*
X18987Y8332D01*
X19178Y8222D01*
X19390Y8165D01*
X19400D01*
Y8900D01*
D02*
G37*
G36*
X13335D02*
X12600D01*
Y8165D01*
X12610D01*
X12822Y8222D01*
X13013Y8332D01*
X13168Y8487D01*
X13278Y8678D01*
X13335Y8890D01*
Y8900D01*
D02*
G37*
G36*
X12400D02*
X11665D01*
Y8890D01*
X11722Y8678D01*
X11832Y8487D01*
X11987Y8332D01*
X12178Y8222D01*
X12390Y8165D01*
X12400D01*
Y8900D01*
D02*
G37*
G36*
X57589Y8536D02*
X56739D01*
Y7686D01*
X56764D01*
X57006Y7751D01*
X57222Y7876D01*
X57399Y8053D01*
X57524Y8269D01*
X57589Y8511D01*
Y8536D01*
D02*
G37*
G36*
X56539D02*
X55689D01*
Y8511D01*
X55754Y8269D01*
X55879Y8053D01*
X56056Y7876D01*
X56272Y7751D01*
X56514Y7686D01*
X56539D01*
Y8536D01*
D02*
G37*
G36*
X31629Y14739D02*
X31441D01*
X31266Y14667D01*
X31132Y14533D01*
X31060Y14359D01*
Y14170D01*
X31132Y13995D01*
X31253Y13875D01*
Y6642D01*
X30960D01*
Y6642D01*
X30860Y6601D01*
X30519Y6942D01*
X30428Y7003D01*
X30319Y7024D01*
X30319Y7024D01*
X30060D01*
Y7492D01*
X28360D01*
Y7024D01*
X28078D01*
X28078Y7024D01*
X27970Y7003D01*
X27878Y6942D01*
X27878Y6942D01*
X24015Y3079D01*
X23865Y3141D01*
Y3467D01*
X22715D01*
Y1867D01*
X23865D01*
Y2367D01*
X24003Y2385D01*
X24111Y2406D01*
X24202Y2467D01*
X28195Y6460D01*
X28360D01*
Y5992D01*
X30060D01*
Y6441D01*
X30210Y6452D01*
X30678Y5984D01*
X30678Y5984D01*
X30770Y5923D01*
X30878Y5901D01*
X30960D01*
Y5042D01*
X31711D01*
X31976Y4777D01*
Y3617D01*
X31308D01*
Y1717D01*
X33208D01*
Y3617D01*
X32540D01*
Y4894D01*
X32519Y5002D01*
X32458Y5094D01*
X32458Y5094D01*
X32110Y5441D01*
Y6642D01*
X31817D01*
Y13875D01*
X31938Y13995D01*
X32010Y14170D01*
Y14359D01*
X31938Y14533D01*
X31804Y14667D01*
X31629Y14739D01*
D02*
G37*
G36*
X27335Y8900D02*
X25665D01*
Y8890D01*
X25722Y8678D01*
X25832Y8487D01*
X25954Y8365D01*
X25911Y8227D01*
X25902Y8215D01*
X25290D01*
Y6365D01*
X26890D01*
Y8215D01*
X26995Y8322D01*
X27013Y8332D01*
X27168Y8487D01*
X27278Y8678D01*
X27335Y8890D01*
Y8900D01*
D02*
G37*
G36*
X30110Y5742D02*
X29310D01*
Y5042D01*
X30110D01*
Y5742D01*
D02*
G37*
G36*
X29110D02*
X28310D01*
Y5042D01*
X29110D01*
Y5742D01*
D02*
G37*
G36*
X55259Y9536D02*
X53459D01*
Y7736D01*
X54077D01*
Y5880D01*
X53869D01*
Y4280D01*
X55019D01*
Y5880D01*
X54641D01*
Y7736D01*
X55259D01*
Y9536D01*
D02*
G37*
G36*
X30110Y4842D02*
X29310D01*
Y4142D01*
X30110D01*
Y4842D01*
D02*
G37*
G36*
X29110D02*
X28310D01*
Y4142D01*
X29110D01*
Y4842D01*
D02*
G37*
G36*
X37470Y3667D02*
X37438D01*
Y2767D01*
X38338D01*
Y2799D01*
X38270Y3053D01*
X38138Y3281D01*
X37952Y3467D01*
X37724Y3599D01*
X37470Y3667D01*
D02*
G37*
G36*
X37238D02*
X37206D01*
X36952Y3599D01*
X36724Y3467D01*
X36538Y3281D01*
X36406Y3053D01*
X36338Y2799D01*
Y2767D01*
X37238D01*
Y3667D01*
D02*
G37*
G36*
X44110Y2835D02*
X44100D01*
Y2100D01*
X44835D01*
Y2110D01*
X44778Y2322D01*
X44668Y2513D01*
X44513Y2668D01*
X44322Y2778D01*
X44110Y2835D01*
D02*
G37*
G36*
X30110D02*
X30100D01*
Y2100D01*
X30835D01*
Y2110D01*
X30778Y2322D01*
X30668Y2513D01*
X30513Y2668D01*
X30322Y2778D01*
X30110Y2835D01*
D02*
G37*
G36*
X29900D02*
X29890D01*
X29678Y2778D01*
X29487Y2668D01*
X29332Y2513D01*
X29222Y2322D01*
X29165Y2110D01*
Y2100D01*
X29900D01*
Y2835D01*
D02*
G37*
G36*
X16110D02*
X16100D01*
Y2100D01*
X16835D01*
Y2110D01*
X16778Y2322D01*
X16668Y2513D01*
X16513Y2668D01*
X16322Y2778D01*
X16110Y2835D01*
D02*
G37*
G36*
X15900D02*
X15890D01*
X15678Y2778D01*
X15487Y2668D01*
X15332Y2513D01*
X15222Y2322D01*
X15165Y2110D01*
Y2100D01*
X15900D01*
Y2835D01*
D02*
G37*
G36*
X9110D02*
X9100D01*
Y2100D01*
X9835D01*
Y2110D01*
X9778Y2322D01*
X9668Y2513D01*
X9513Y2668D01*
X9322Y2778D01*
X9110Y2835D01*
D02*
G37*
G36*
X22390Y8215D02*
X20790D01*
Y6365D01*
X21308D01*
Y3467D01*
X21015D01*
Y1867D01*
X22165D01*
Y3467D01*
X21872D01*
Y6365D01*
X22390D01*
Y8215D01*
D02*
G37*
G36*
X40003Y3617D02*
X39753D01*
X39511Y3552D01*
X39295Y3427D01*
X39118Y3250D01*
X38993Y3034D01*
X38928Y2792D01*
Y2542D01*
X38993Y2300D01*
X39118Y2084D01*
X39295Y1907D01*
X39511Y1782D01*
X39753Y1717D01*
X40003D01*
X40245Y1782D01*
X40461Y1907D01*
X40638Y2084D01*
X40763Y2300D01*
X40828Y2542D01*
Y2792D01*
X40763Y3034D01*
X40638Y3250D01*
X40461Y3427D01*
X40245Y3552D01*
X40003Y3617D01*
D02*
G37*
G36*
X38338Y2567D02*
X37438D01*
Y1667D01*
X37470D01*
X37724Y1735D01*
X37952Y1867D01*
X38138Y2053D01*
X38270Y2281D01*
X38338Y2535D01*
Y2567D01*
D02*
G37*
G36*
X37238D02*
X36338D01*
Y2535D01*
X36406Y2281D01*
X36538Y2053D01*
X36724Y1867D01*
X36952Y1735D01*
X37206Y1667D01*
X37238D01*
Y2567D01*
D02*
G37*
G36*
X44835Y1900D02*
X44100D01*
Y1165D01*
X44110D01*
X44322Y1222D01*
X44513Y1332D01*
X44668Y1487D01*
X44778Y1678D01*
X44835Y1890D01*
Y1900D01*
D02*
G37*
G36*
X42543Y3617D02*
X42293D01*
X42051Y3552D01*
X41835Y3427D01*
X41658Y3250D01*
X41533Y3034D01*
X41468Y2792D01*
Y2542D01*
X41533Y2300D01*
X41658Y2084D01*
X41835Y1907D01*
X42051Y1782D01*
X42293Y1717D01*
X42543D01*
X42785Y1782D01*
X43001Y1907D01*
X43031Y1937D01*
X43172Y1865D01*
X43222Y1678D01*
X43332Y1487D01*
X43487Y1332D01*
X43678Y1222D01*
X43890Y1165D01*
X43900D01*
Y2000D01*
Y2835D01*
X43890D01*
X43678Y2778D01*
X43518Y2686D01*
X43368Y2740D01*
Y2792D01*
X43303Y3034D01*
X43178Y3250D01*
X43001Y3427D01*
X42785Y3552D01*
X42543Y3617D01*
D02*
G37*
G36*
X30835Y1900D02*
X30100D01*
Y1165D01*
X30110D01*
X30322Y1222D01*
X30513Y1332D01*
X30668Y1487D01*
X30778Y1678D01*
X30835Y1890D01*
Y1900D01*
D02*
G37*
G36*
X29900D02*
X29165D01*
Y1890D01*
X29222Y1678D01*
X29332Y1487D01*
X29487Y1332D01*
X29678Y1222D01*
X29890Y1165D01*
X29900D01*
Y1900D01*
D02*
G37*
G36*
X16835D02*
X16100D01*
Y1165D01*
X16110D01*
X16322Y1222D01*
X16513Y1332D01*
X16668Y1487D01*
X16778Y1678D01*
X16835Y1890D01*
Y1900D01*
D02*
G37*
G36*
X15900D02*
X15165D01*
Y1890D01*
X15222Y1678D01*
X15332Y1487D01*
X15487Y1332D01*
X15678Y1222D01*
X15890Y1165D01*
X15900D01*
Y1900D01*
D02*
G37*
G36*
X9835D02*
X9100D01*
Y1165D01*
X9110D01*
X9322Y1222D01*
X9513Y1332D01*
X9668Y1487D01*
X9778Y1678D01*
X9835Y1890D01*
Y1900D01*
D02*
G37*
G36*
X38680Y40646D02*
X37780D01*
Y39746D01*
X37812D01*
X38066Y39814D01*
X38294Y39946D01*
X38480Y40132D01*
X38612Y40360D01*
X38680Y40615D01*
Y40646D01*
D02*
G37*
G36*
X37580D02*
X36680D01*
Y40615D01*
X36748Y40360D01*
X36880Y40132D01*
X37066Y39946D01*
X37294Y39814D01*
X37548Y39746D01*
X37580D01*
Y40646D01*
D02*
G37*
G36*
X33610Y37835D02*
X33600D01*
Y37100D01*
X34335D01*
Y37110D01*
X34278Y37322D01*
X34168Y37513D01*
X34013Y37668D01*
X33822Y37778D01*
X33610Y37835D01*
D02*
G37*
G36*
X33400D02*
X33390D01*
X33178Y37778D01*
X32987Y37668D01*
X32832Y37513D01*
X32722Y37322D01*
X32665Y37110D01*
Y37100D01*
X33400D01*
Y37835D01*
D02*
G37*
G36*
X34335Y36900D02*
X33600D01*
Y36165D01*
X33610D01*
X33822Y36222D01*
X34013Y36332D01*
X34168Y36487D01*
X34278Y36678D01*
X34335Y36890D01*
Y36900D01*
D02*
G37*
G36*
X33400D02*
X32665D01*
Y36890D01*
X32722Y36678D01*
X32832Y36487D01*
X32987Y36332D01*
X33178Y36222D01*
X33390Y36165D01*
X33400D01*
Y36900D01*
D02*
G37*
G36*
X26139Y31883D02*
X26135D01*
Y31458D01*
X26559D01*
Y31462D01*
X26480Y31655D01*
X26332Y31803D01*
X26139Y31883D01*
D02*
G37*
G36*
X25934D02*
X25930D01*
X25737Y31803D01*
X25589Y31655D01*
X25510Y31462D01*
Y31458D01*
X25934D01*
Y31883D01*
D02*
G37*
G36*
X26559Y31258D02*
X26135D01*
Y30833D01*
X26139D01*
X26332Y30913D01*
X26480Y31061D01*
X26559Y31254D01*
Y31258D01*
D02*
G37*
G36*
X25934D02*
X25510D01*
Y31254D01*
X25589Y31061D01*
X25737Y30913D01*
X25930Y30833D01*
X25934D01*
Y31258D01*
D02*
G37*
G36*
X21948Y31616D02*
X21944D01*
Y31191D01*
X22369D01*
Y31195D01*
X22289Y31388D01*
X22141Y31536D01*
X21948Y31616D01*
D02*
G37*
G36*
X21744D02*
X21740D01*
X21547Y31536D01*
X21399Y31388D01*
X21319Y31195D01*
Y31191D01*
X21744D01*
Y31616D01*
D02*
G37*
G36*
X22369Y30991D02*
X21944D01*
Y30566D01*
X21948D01*
X22141Y30646D01*
X22289Y30794D01*
X22369Y30987D01*
Y30991D01*
D02*
G37*
G36*
X21744D02*
X21319D01*
Y30987D01*
X21399Y30794D01*
X21547Y30646D01*
X21740Y30566D01*
X21744D01*
Y30991D01*
D02*
G37*
G36*
X22952Y30110D02*
X22252D01*
Y29310D01*
X22952D01*
Y30110D01*
D02*
G37*
G36*
X22052D02*
X21352D01*
Y29310D01*
X22052D01*
Y30110D01*
D02*
G37*
G36*
X22952Y29110D02*
X22252D01*
Y28310D01*
X22952D01*
Y29110D01*
D02*
G37*
G36*
X22052D02*
X21352D01*
Y28310D01*
X22052D01*
Y29110D01*
D02*
G37*
G36*
X21185Y27637D02*
X20385D01*
Y26937D01*
X21185D01*
Y27637D01*
D02*
G37*
G36*
X28117Y26567D02*
X26052D01*
Y24502D01*
X28117D01*
Y26567D01*
D02*
G37*
G36*
X33204Y21365D02*
X33199D01*
Y20940D01*
X33624D01*
Y20944D01*
X33544Y21137D01*
X33397Y21285D01*
X33204Y21365D01*
D02*
G37*
G36*
X32999D02*
X32995D01*
X32802Y21285D01*
X32654Y21137D01*
X32574Y20944D01*
Y20940D01*
X32999D01*
Y21365D01*
D02*
G37*
G36*
X33624Y20740D02*
X33199D01*
Y20315D01*
X33204D01*
X33397Y20395D01*
X33544Y20543D01*
X33624Y20735D01*
Y20740D01*
D02*
G37*
G36*
X32999D02*
X32574D01*
Y20735D01*
X32654Y20543D01*
X32802Y20395D01*
X32995Y20315D01*
X32999D01*
Y20740D01*
D02*
G37*
G36*
X37812Y26746D02*
X37780D01*
Y25846D01*
X38680D01*
Y25878D01*
X38612Y26132D01*
X38480Y26360D01*
X38294Y26546D01*
X38066Y26678D01*
X37812Y26746D01*
D02*
G37*
G36*
X37580D02*
X37548D01*
X37294Y26678D01*
X37066Y26546D01*
X36880Y26360D01*
X36748Y26132D01*
X36680Y25878D01*
Y25846D01*
X37580D01*
Y26746D01*
D02*
G37*
G36*
X38680Y25646D02*
X37780D01*
Y24746D01*
X37812D01*
X38066Y24814D01*
X38294Y24946D01*
X38480Y25132D01*
X38612Y25360D01*
X38680Y25615D01*
Y25646D01*
D02*
G37*
G36*
X37580D02*
X36680D01*
Y25615D01*
X36748Y25360D01*
X36880Y25132D01*
X37066Y24946D01*
X37294Y24814D01*
X37548Y24746D01*
X37580D01*
Y25646D01*
D02*
G37*
G36*
X33215Y23587D02*
X33211D01*
Y23162D01*
X33636D01*
Y23167D01*
X33556Y23360D01*
X33408Y23507D01*
X33215Y23587D01*
D02*
G37*
G36*
X33011D02*
X33006D01*
X32813Y23507D01*
X32666Y23360D01*
X32586Y23167D01*
Y23162D01*
X33011D01*
Y23587D01*
D02*
G37*
G36*
X32142Y23776D02*
X31342D01*
Y23076D01*
X32142D01*
Y23776D01*
D02*
G37*
G36*
X33636Y22962D02*
X33211D01*
Y22537D01*
X33215D01*
X33408Y22617D01*
X33556Y22765D01*
X33636Y22958D01*
Y22962D01*
D02*
G37*
G36*
X33011D02*
X32586D01*
Y22958D01*
X32666Y22765D01*
X32813Y22617D01*
X33006Y22537D01*
X33011D01*
Y22962D01*
D02*
G37*
%LPD*%
D10*
X51050Y44325D02*
D03*
Y44975D02*
D03*
Y43025D02*
D03*
Y43675D02*
D03*
Y42375D02*
D03*
Y41725D02*
D03*
Y41075D02*
D03*
Y40425D02*
D03*
X45150Y44325D02*
D03*
Y44975D02*
D03*
Y43675D02*
D03*
Y43025D02*
D03*
Y42375D02*
D03*
Y41725D02*
D03*
Y41075D02*
D03*
Y40425D02*
D03*
D11*
X48100Y42700D02*
D03*
D12*
X31242Y22976D02*
D03*
Y24776D02*
D03*
X21285Y26837D02*
D03*
Y25037D02*
D03*
X29210Y4942D02*
D03*
Y6742D02*
D03*
X41402Y43702D02*
D03*
Y41902D02*
D03*
D13*
X23911Y19558D02*
D03*
X25711D02*
D03*
X22152Y29210D02*
D03*
X23952D02*
D03*
X27952Y29210D02*
D03*
X26152D02*
D03*
X49100Y47200D02*
D03*
X47300D02*
D03*
D14*
X23571Y34200D02*
D03*
X33071D02*
D03*
D15*
X21590Y2667D02*
D03*
X23290D02*
D03*
X33235Y5842D02*
D03*
X31535D02*
D03*
X54444Y5080D02*
D03*
X52744D02*
D03*
X36950Y15500D02*
D03*
X35250D02*
D03*
X37084Y29845D02*
D03*
X38784D02*
D03*
X8167Y34036D02*
D03*
X9867D02*
D03*
D16*
X26090Y15240D02*
D03*
X21590D02*
D03*
X26090Y7290D02*
D03*
X21590D02*
D03*
D17*
X28852Y26352D02*
D03*
Y25702D02*
D03*
Y25052D02*
D03*
Y24402D02*
D03*
Y23752D02*
D03*
Y23102D02*
D03*
Y22452D02*
D03*
X23052D02*
D03*
Y23102D02*
D03*
Y23752D02*
D03*
Y24402D02*
D03*
Y25052D02*
D03*
Y25702D02*
D03*
Y26352D02*
D03*
D18*
X27902Y21502D02*
D03*
X27252D02*
D03*
X26602D02*
D03*
X25952D02*
D03*
X25302D02*
D03*
X24652D02*
D03*
X24002D02*
D03*
Y27302D02*
D03*
X24652D02*
D03*
X25302D02*
D03*
X25952D02*
D03*
X26602D02*
D03*
X27252D02*
D03*
X27902D02*
D03*
D19*
X25952Y24402D02*
D03*
D20*
X37465Y36029D02*
D03*
Y34329D02*
D03*
D21*
X19155Y26652D02*
Y34288D01*
X19558Y34691D01*
X19155Y26652D02*
X19847Y25960D01*
X49100Y47200D02*
X52700D01*
Y43790D02*
Y47200D01*
X54500D01*
X43854Y44527D02*
X44056Y44325D01*
X45150D01*
X43854Y44527D02*
Y45700D01*
X45354Y47200D01*
X47300D01*
X51050Y44325D02*
X52700D01*
X52700Y44325D01*
Y43790D02*
X52705Y43785D01*
X41402Y43702D02*
X41429Y43675D01*
X45150D01*
X43561Y41725D02*
Y42052D01*
Y42263D01*
X41402Y42052D02*
X43503D01*
X20193Y28695D02*
Y32454D01*
Y28695D02*
X20228Y28660D01*
Y23752D02*
X23052D01*
X21858Y27110D02*
Y27351D01*
X22007Y27500D02*
X22748D01*
X21858Y27351D02*
X22007Y27500D01*
X21435Y26687D02*
X21858Y27110D01*
X22748Y27500D02*
X23623Y26625D01*
X21285Y26687D02*
X21435D01*
X35140Y25976D02*
X38784Y29620D01*
X37465Y32846D02*
Y34329D01*
X35140Y40746D02*
X37465Y38421D01*
Y36029D02*
Y38421D01*
X35226Y30607D02*
X37465Y32846D01*
X21420Y25052D02*
X23052D01*
X21285Y25187D02*
X21420Y25052D01*
X19847Y25960D02*
X22100D01*
X22492Y26352D01*
X23052D01*
X25302Y26774D02*
Y27302D01*
X25154Y26625D02*
X25302Y26774D01*
X23623Y26625D02*
X25154D01*
X29310Y6742D02*
X30319D01*
X30878Y6184D02*
X31237D01*
X31535Y5842D02*
Y5886D01*
X30319Y6742D02*
X30878Y6184D01*
X31237D02*
X31535Y5886D01*
X28078Y6742D02*
X29210D01*
X23290Y2667D02*
X24003D01*
X28078Y6742D01*
X30424Y28533D02*
X30950D01*
X30461Y29737D02*
X30950D01*
X30900Y28129D02*
X31118D01*
X28852Y25702D02*
X29364D01*
X33596Y30607D02*
X35226D01*
X29364Y25702D02*
X33507Y29845D01*
X31118Y28129D02*
X33596Y30607D01*
X31707Y15500D02*
X35250D01*
X30950Y29737D02*
X31303Y29384D01*
Y28886D02*
Y29384D01*
X33507Y29845D02*
X37084D01*
X30950Y28533D02*
X31303Y28886D01*
X30023Y29059D02*
X30625D01*
X30701Y29135D01*
X29193Y27302D02*
X30424Y28533D01*
X29158Y28194D02*
X30023Y29059D01*
X30099Y30099D02*
X30461Y29737D01*
X29125Y26354D02*
X30900Y28129D01*
X28956Y19812D02*
X35433D01*
X27902Y20866D02*
X28956Y19812D01*
X34609Y21906D02*
X38100Y18415D01*
X30319Y21906D02*
X34609D01*
X28797Y19177D02*
X33500D01*
X27252Y20721D02*
X28797Y19177D01*
X28956Y18415D02*
X32512D01*
X27252Y20721D02*
Y21502D01*
X26602Y20769D02*
Y21502D01*
Y20769D02*
X28956Y18415D01*
X27902Y20866D02*
Y21502D01*
X27252Y27842D02*
X27605Y28194D01*
X29158D01*
X20193Y32454D02*
X20447Y32707D01*
Y38377D01*
X31535Y5842D02*
Y14264D01*
Y5617D02*
Y5842D01*
X20447Y21590D02*
X20490Y21546D01*
X24000D01*
X18123Y23062D02*
X18161Y23100D01*
X20828D01*
X24000Y21546D02*
X24002Y21544D01*
Y21502D02*
Y21544D01*
X54359Y5165D02*
X54444Y5080D01*
X54359Y5165D02*
Y8636D01*
X27252Y27302D02*
Y27842D01*
X21844Y30988D02*
Y31091D01*
X19558Y34691D02*
Y34798D01*
X13470Y34036D02*
X16010Y31496D01*
X9867Y34036D02*
X13470D01*
X31813Y21209D02*
X31833Y21229D01*
X30367Y21209D02*
X31813D01*
X29125Y23100D02*
X30319Y21906D01*
X20828Y23100D02*
X20830Y23102D01*
X23052D01*
X22095Y22447D02*
X22100Y22452D01*
X22087Y22447D02*
X22095D01*
X22100Y22452D02*
X23052D01*
X30988Y26289D02*
X31975D01*
X29751Y25052D02*
X30988Y26289D01*
X28852Y25052D02*
X29751D01*
X27904Y27302D02*
X29193D01*
X21590Y2667D02*
Y7290D01*
X31535Y5617D02*
X32258Y4894D01*
Y2667D02*
Y4894D01*
X28852Y22452D02*
X29123D01*
X30367Y21209D01*
X35140Y10746D02*
X36950Y12556D01*
Y15500D01*
X35140Y25746D02*
Y25976D01*
X38784Y29620D02*
Y29845D01*
X43561Y41368D02*
X43854Y41075D01*
X43561Y41368D02*
Y41725D01*
Y42263D02*
Y42732D01*
Y41725D02*
X45150D01*
X43854Y41075D02*
X45150D01*
X43561Y42263D02*
X43673Y42375D01*
X45150D01*
X43854Y43025D02*
X45150D01*
X51050Y41075D02*
X52412D01*
X52705Y43025D02*
Y43785D01*
Y42375D02*
Y43025D01*
X51050D02*
X52705D01*
Y41725D02*
Y42375D01*
X51050D02*
X52705D01*
X51050Y41725D02*
X52705D01*
Y41368D02*
Y41725D01*
X52412Y41075D02*
X52705Y41368D01*
X31142Y22976D02*
X31242D01*
X28852Y23752D02*
X30366D01*
X31142Y22976D01*
X30868Y24402D02*
X31242Y24776D01*
X28852Y24402D02*
X30868D01*
X43561Y42732D02*
X43854Y43025D01*
X24287Y20866D02*
X24650Y21229D01*
X24287Y20031D02*
Y20866D01*
X23814Y19558D02*
X24287Y20031D01*
X25302Y19870D02*
Y21502D01*
D22*
X41252Y42052D02*
X41402Y41902D01*
X39609Y42052D02*
X41252D01*
X21732D02*
X39609D01*
X39609Y38862D02*
Y42052D01*
Y22756D02*
Y38862D01*
Y42052D02*
X39609Y42052D01*
X37350Y20497D02*
X39609Y22756D01*
X55118Y12319D02*
X56714D01*
X52744Y9945D02*
X55118Y12319D01*
X52744Y8349D02*
Y9945D01*
X56714Y12319D02*
X59150Y14755D01*
X37210Y5715D02*
X41212Y9717D01*
X42580Y8349D01*
X34798Y5715D02*
X37210D01*
X39965Y10964D02*
X41212Y9717D01*
X11010Y18996D02*
X17051Y25037D01*
X18542D01*
X39965Y10964D02*
Y17882D01*
X42580Y8349D02*
X52744D01*
Y5080D02*
Y8349D01*
X20574Y40894D02*
X21732Y42052D01*
X18542Y33020D02*
Y38862D01*
Y25037D02*
X21285D01*
X18542D02*
Y33020D01*
Y38862D02*
X20574Y40894D01*
X33071Y24776D02*
X37350Y20497D01*
X31242Y24776D02*
X33071D01*
X37350Y20497D02*
X39965Y17882D01*
X33362Y5715D02*
X34798D01*
Y2667D02*
Y5715D01*
X33235Y5842D02*
X33362Y5715D01*
D23*
X25570Y28867D02*
X26109D01*
X24858Y28155D02*
X25570Y28867D01*
X26109D02*
X26227Y28985D01*
X24858Y28155D02*
X24858D01*
X24652Y27950D02*
X24858Y28155D01*
X26227Y28985D02*
Y30235D01*
X23571Y33147D02*
Y34000D01*
Y29516D02*
Y33147D01*
Y29516D02*
X23877Y29210D01*
X27556Y30235D02*
X31321Y34000D01*
X26227Y30235D02*
X27556D01*
X31321Y34000D02*
X33071D01*
X24652Y27302D02*
Y27950D01*
X23877Y28155D02*
Y29210D01*
Y28155D02*
X24003Y28030D01*
X24002Y27302D02*
X24003Y27303D01*
Y28030D01*
X25302Y19870D02*
X25614Y19558D01*
D24*
X41150Y14755D02*
D03*
X43150D02*
D03*
X45150D02*
D03*
X47150D02*
D03*
X49150D02*
D03*
X51150D02*
D03*
X53150D02*
D03*
X55150D02*
D03*
X57150D02*
D03*
X59150D02*
D03*
X41150Y36755D02*
D03*
X43150D02*
D03*
X45150D02*
D03*
X47150D02*
D03*
X49150D02*
D03*
X51150D02*
D03*
X53150D02*
D03*
X55150D02*
D03*
X57150D02*
D03*
X59150D02*
D03*
D25*
X42418Y2667D02*
D03*
X39878D02*
D03*
X37338D02*
D03*
X34798D02*
D03*
X35140Y40746D02*
D03*
X37680D02*
D03*
X35140Y25746D02*
D03*
X37680D02*
D03*
X35140Y10746D02*
D03*
X37680D02*
D03*
D26*
X32258Y2667D02*
D03*
D27*
X54359Y8636D02*
D03*
D28*
X56639D02*
D03*
D29*
X29175Y46950D02*
D03*
X24175D02*
D03*
D30*
X30550Y49700D02*
D03*
X22800D02*
D03*
D31*
X30400Y45900D02*
D03*
X22950D02*
D03*
D32*
X11010Y18996D02*
D03*
Y31496D02*
D03*
X16010Y18996D02*
D03*
Y31496D02*
D03*
D33*
X16737Y34323D02*
D03*
X26035Y31358D02*
D03*
X33099Y20840D02*
D03*
X33111Y23062D02*
D03*
X54500Y47200D02*
D03*
X39609Y38862D02*
D03*
X20228Y28660D02*
D03*
Y23752D02*
D03*
X30701Y29135D02*
D03*
X31707Y15500D02*
D03*
X35433Y19812D02*
D03*
X38100Y18415D02*
D03*
X33500Y19177D02*
D03*
X32512Y18415D02*
D03*
X20447Y38377D02*
D03*
X31535Y14264D02*
D03*
X20447Y21590D02*
D03*
X18123Y23062D02*
D03*
X21844Y31091D02*
D03*
X18542Y33020D02*
D03*
X31833Y21229D02*
D03*
X19558Y34798D02*
D03*
X22087Y22447D02*
D03*
X31975Y26289D02*
D03*
X30099Y30099D02*
D03*
X20574Y40894D02*
D03*
D34*
X49100Y43700D02*
D03*
X48100D02*
D03*
X47100D02*
D03*
X49100Y42700D02*
D03*
Y41700D02*
D03*
X48100Y42700D02*
D03*
Y41700D02*
D03*
X47100Y42700D02*
D03*
Y41700D02*
D03*
X24852Y23302D02*
D03*
Y24402D02*
D03*
X25952Y23302D02*
D03*
X27052Y25502D02*
D03*
Y23302D02*
D03*
Y24402D02*
D03*
X24852Y25502D02*
D03*
X25952Y24402D02*
D03*
Y25502D02*
D03*
D35*
X51000Y30000D02*
D03*
X54500Y23000D02*
D03*
X44000Y30000D02*
D03*
X47500Y23000D02*
D03*
X44000Y16000D02*
D03*
Y2000D02*
D03*
X30000Y44000D02*
D03*
X33500Y37000D02*
D03*
X30000Y2000D02*
D03*
X26500Y9000D02*
D03*
X16000Y44000D02*
D03*
Y16000D02*
D03*
X19500Y9000D02*
D03*
X16000Y2000D02*
D03*
X9000Y44000D02*
D03*
X12500Y37000D02*
D03*
X9000Y30000D02*
D03*
X12500Y23000D02*
D03*
X9000Y16000D02*
D03*
X12500Y9000D02*
D03*
X9000Y2000D02*
D03*
X2000Y30000D02*
D03*
X5500Y23000D02*
D03*
X2000Y16000D02*
D03*
X5500Y9000D02*
D03*
%TF.MD5,fc253ed80361181388814a542cade31e*%
M02*
