M48
;Layer_Color=9474304
;FILE_FORMAT=4:3
METRIC,LZ
;TYPE=PLATED
T1F00S00C0.300
T2F00S00C0.350
T4F00S00C0.711
T5F00S00C0.800
T7F00S00C1.000
T8F00S00C1.100
T9F00S00C1.200
T10F00S00C1.600
;TYPE=NON_PLATED
T11F00S00C0.800
T12F00S00C3.510
%
T01
X00191Y0017143
X00181Y0019402
X00218Y00178
X00247Y0021916
X00273Y0022296
X00261Y00113
X003768Y0013
X0037338Y0014755
X003564Y00236
X00286Y00224
X0030476Y0030332
X0031448Y0029663
X0033845Y0028849
X0049159Y0039
X00614Y0049591
X0029084Y0050316
X0024612Y0049591
X0023312
X0022012
X0022Y00386
X0020013Y0028074
T02
X00549Y0042332
X00559
X00569
Y0043332
Y0044332
X00559
X00549
Y0043332
X00559
T04
X0009Y0002
X0016
X00195Y0009
X00265
X00125
X00055
X0009Y0016
X0002
X00055Y0023
X00125
X00475
X00545
X00475Y0009
X00405
X003Y0002
X0044Y003
X0051
X00265Y0037
X00125
X0016Y0044
X0009
Y003
X0002
T05
X004115Y0014755
X004315
X004515
X004715
X004915
X005115
X005315
X005515
X005715
X005915
Y0036755
X005715
X005515
X005315
X005115
X004915
X004715
X004515
X004315
X004115
T07
X003514Y0010746
X003768
Y0025746
X003514
X0054359Y0008636
X0056639
X003768Y0040746
X003514
T08
X00322Y00026
X003474
X003728
X003982
X004236
X00449
T09
X001101Y0018996
X001601
Y0031496
X001101
T10
X00583Y00031
X00074Y0037
T11
X00381Y0046841
X00431
T12
X0015215Y00105
X0065485
Y004101
X0015215
M30
