%TF.GenerationSoftware,Altium Limited,Altium Designer,21.6.1 (37)*%
G04 Layer_Color=65535*
%FSLAX43Y43*%
%MOMM*%
%TF.SameCoordinates,1E6E8873-E5BF-4629-9129-2C513CDE5FDC*%
%TF.FilePolarity,Positive*%
%TF.FileFunction,Legend,Top*%
%TF.Part,Single*%
G01*
G75*
%TA.AperFunction,NonConductor*%
%ADD41C,0.200*%
%ADD42C,0.250*%
%ADD43C,0.600*%
%ADD44C,0.400*%
%ADD45C,0.127*%
%ADD46C,0.100*%
%ADD47C,0.150*%
%ADD48C,0.152*%
%ADD49C,0.254*%
G36*
X53492Y21514D02*
Y21311D01*
Y21107D01*
Y20904D01*
Y20701D01*
Y20498D01*
Y20295D01*
Y20091D01*
Y19888D01*
Y19685D01*
Y19482D01*
Y19279D01*
X52680D01*
Y19482D01*
Y19685D01*
Y19888D01*
Y20091D01*
Y20295D01*
Y20498D01*
Y20701D01*
Y20904D01*
X49835D01*
Y20701D01*
Y20498D01*
Y20295D01*
Y20091D01*
Y19888D01*
Y19685D01*
Y19482D01*
Y19279D01*
X49022D01*
Y19482D01*
Y19685D01*
Y19888D01*
Y20091D01*
Y20295D01*
Y20498D01*
Y20701D01*
Y20904D01*
Y21107D01*
Y21311D01*
Y21514D01*
Y21717D01*
X53492D01*
Y21514D01*
D02*
G37*
G36*
X48006Y19685D02*
Y19482D01*
Y19279D01*
X45364D01*
Y19482D01*
Y19685D01*
Y19888D01*
X48006D01*
Y19685D01*
D02*
G37*
G36*
X57963Y21514D02*
X58369D01*
Y21311D01*
X58572D01*
Y21107D01*
X58776D01*
Y20904D01*
Y20701D01*
Y20498D01*
Y20295D01*
X58979D01*
Y20091D01*
Y19888D01*
Y19685D01*
Y19482D01*
Y19279D01*
Y19075D01*
Y18872D01*
Y18669D01*
Y18466D01*
Y18263D01*
Y18059D01*
Y17856D01*
Y17653D01*
Y17450D01*
X58166D01*
Y17653D01*
Y17856D01*
Y18059D01*
Y18263D01*
Y18466D01*
Y18669D01*
Y18872D01*
Y19075D01*
Y19279D01*
Y19482D01*
Y19685D01*
Y19888D01*
Y20091D01*
Y20295D01*
X57963D01*
Y20498D01*
Y20701D01*
X57760D01*
Y20904D01*
X55321D01*
Y20701D01*
Y20498D01*
Y20295D01*
Y20091D01*
Y19888D01*
Y19685D01*
Y19482D01*
Y19279D01*
Y19075D01*
Y18872D01*
Y18669D01*
Y18466D01*
Y18263D01*
Y18059D01*
Y17856D01*
Y17653D01*
Y17450D01*
X54508D01*
Y17653D01*
Y17856D01*
Y18059D01*
Y18263D01*
Y18466D01*
Y18669D01*
Y18872D01*
Y19075D01*
Y19279D01*
Y19482D01*
Y19685D01*
Y19888D01*
Y20091D01*
Y20295D01*
Y20498D01*
Y20701D01*
Y20904D01*
Y21107D01*
Y21311D01*
Y21514D01*
Y21717D01*
X57963D01*
Y21514D01*
D02*
G37*
G36*
X56947Y19685D02*
X57150D01*
Y19482D01*
Y19279D01*
Y19075D01*
Y18872D01*
Y18669D01*
Y18466D01*
Y18263D01*
Y18059D01*
Y17856D01*
Y17653D01*
Y17450D01*
X56337D01*
Y17653D01*
Y17856D01*
Y18059D01*
Y18263D01*
Y18466D01*
Y18669D01*
Y18872D01*
Y19075D01*
Y19279D01*
Y19482D01*
Y19685D01*
Y19888D01*
X56947D01*
Y19685D01*
D02*
G37*
G36*
X51664D02*
Y19482D01*
Y19279D01*
Y19075D01*
Y18872D01*
Y18669D01*
Y18466D01*
Y18263D01*
Y18059D01*
Y17856D01*
Y17653D01*
Y17450D01*
X50851D01*
Y17653D01*
Y17856D01*
Y18059D01*
Y18263D01*
Y18466D01*
Y18669D01*
Y18872D01*
Y19075D01*
Y19279D01*
Y19482D01*
Y19685D01*
Y19888D01*
X51664D01*
Y19685D01*
D02*
G37*
G36*
X48006Y21514D02*
Y21311D01*
Y21107D01*
Y20904D01*
X44348D01*
Y20701D01*
Y20498D01*
Y20295D01*
Y20091D01*
Y19888D01*
Y19685D01*
Y19482D01*
Y19279D01*
Y19075D01*
Y18872D01*
Y18669D01*
X44552D01*
Y18466D01*
X44755D01*
Y18263D01*
X48006D01*
Y18059D01*
Y17856D01*
Y17653D01*
Y17450D01*
X44552D01*
Y17653D01*
X44145D01*
Y17856D01*
X43942D01*
Y18059D01*
X43739D01*
Y18263D01*
X43536D01*
Y18466D01*
Y18669D01*
Y18872D01*
Y19075D01*
X43332D01*
Y19279D01*
Y19482D01*
Y19685D01*
Y19888D01*
Y20091D01*
Y20295D01*
Y20498D01*
Y20701D01*
Y20904D01*
Y21107D01*
Y21311D01*
Y21514D01*
Y21717D01*
X48006D01*
Y21514D01*
D02*
G37*
G36*
X75641D02*
Y21311D01*
Y21107D01*
Y20904D01*
X71577D01*
Y21107D01*
X71780D01*
Y21311D01*
Y21514D01*
X72187D01*
Y21717D01*
X75641D01*
Y21514D01*
D02*
G37*
G36*
X70561Y19685D02*
Y19482D01*
Y19279D01*
X67920D01*
Y19482D01*
Y19685D01*
Y19888D01*
X70561D01*
Y19685D01*
D02*
G37*
G36*
X65278D02*
Y19482D01*
Y19279D01*
Y19075D01*
X63246D01*
Y19279D01*
Y19482D01*
Y19685D01*
Y19888D01*
X65278D01*
Y19685D01*
D02*
G37*
G36*
X75641Y19888D02*
Y19685D01*
Y19482D01*
Y19279D01*
Y19075D01*
Y18872D01*
Y18669D01*
Y18466D01*
Y18263D01*
Y18059D01*
Y17856D01*
X75438D01*
Y17653D01*
X75235D01*
Y17450D01*
X71577D01*
Y17653D01*
Y17856D01*
Y18059D01*
Y18263D01*
X74828D01*
Y18466D01*
Y18669D01*
Y18872D01*
Y19075D01*
Y19279D01*
X71577D01*
Y19482D01*
Y19685D01*
Y19888D01*
Y20091D01*
X75641D01*
Y19888D01*
D02*
G37*
G36*
X70561Y21514D02*
Y21311D01*
Y21107D01*
Y20904D01*
X66904D01*
Y20701D01*
Y20498D01*
Y20295D01*
Y20091D01*
Y19888D01*
Y19685D01*
Y19482D01*
Y19279D01*
Y19075D01*
Y18872D01*
X67107D01*
Y18669D01*
Y18466D01*
X67513D01*
Y18263D01*
X70561D01*
Y18059D01*
Y17856D01*
Y17653D01*
Y17450D01*
X67107D01*
Y17653D01*
X66700D01*
Y17856D01*
X66497D01*
Y18059D01*
Y18263D01*
X66294D01*
Y18466D01*
Y18669D01*
Y18872D01*
X66091D01*
Y19075D01*
Y19279D01*
Y19482D01*
Y19685D01*
Y19888D01*
Y20091D01*
Y20295D01*
Y20498D01*
Y20701D01*
Y20904D01*
Y21107D01*
Y21311D01*
Y21514D01*
Y21717D01*
X70561D01*
Y21514D01*
D02*
G37*
G36*
X60198D02*
Y21311D01*
Y21107D01*
Y20904D01*
Y20701D01*
Y20498D01*
Y20295D01*
Y20091D01*
Y19888D01*
Y19685D01*
Y19482D01*
Y19279D01*
Y19075D01*
Y18872D01*
X60401D01*
Y18669D01*
Y18466D01*
X60604D01*
Y18263D01*
X62840D01*
Y18059D01*
Y17856D01*
Y17653D01*
Y17450D01*
X59995D01*
Y17653D01*
X59792D01*
Y17856D01*
X59588D01*
Y18059D01*
Y18263D01*
Y18466D01*
X59385D01*
Y18669D01*
Y18872D01*
Y19075D01*
Y19279D01*
Y19482D01*
Y19685D01*
Y19888D01*
Y20091D01*
Y20295D01*
Y20498D01*
Y20701D01*
Y20904D01*
Y21107D01*
Y21311D01*
Y21514D01*
Y21717D01*
X60198D01*
Y21514D01*
D02*
G37*
D41*
X31852Y27895D02*
G03*
X31852Y27895I-100J0D01*
G01*
X38638Y12603D02*
G03*
X33940Y12266I-2228J-1857D01*
G01*
X34041Y12419D02*
G03*
X38649Y8903I2369J-1672D01*
G01*
X38638Y27603D02*
G03*
X33940Y27266I-2228J-1857D01*
G01*
X34041Y27419D02*
G03*
X38649Y23903I2369J-1672D01*
G01*
X38638Y42603D02*
G03*
X33940Y42266I-2228J-1857D01*
G01*
X34041Y42419D02*
G03*
X38649Y38903I2369J-1672D01*
G01*
X57019Y9776D02*
G03*
X53987Y9787I-1520J-1140D01*
G01*
X53987Y7485D02*
G03*
X57019Y7496I1512J1151D01*
G01*
X57400Y11311D02*
Y12511D01*
X37884Y30395D02*
X37984D01*
X37884Y29295D02*
X37984D01*
X32335Y6392D02*
X32435D01*
X32335Y5292D02*
X32435D01*
X28610Y5842D02*
X29810D01*
X22390Y2117D02*
X22490D01*
X22390Y3217D02*
X22490D01*
X22300Y28849D02*
Y30049D01*
X27835Y28849D02*
Y30049D01*
X54050Y45882D02*
X57750D01*
X54050Y40782D02*
X57750D01*
X16250Y48763D02*
X16350D01*
X16250Y47662D02*
X16350D01*
X31150Y45350D02*
Y45450D01*
X32250Y45350D02*
Y45450D01*
X33657Y46750D02*
Y46850D01*
X34757Y46750D02*
Y46850D01*
X29487Y42350D02*
Y46450D01*
X19087Y42350D02*
Y46450D01*
X29487D01*
X19087Y42350D02*
X29487D01*
X7510Y19246D02*
Y31246D01*
X19510Y19246D02*
Y31246D01*
X7510Y19246D02*
X9950D01*
X12080D02*
X14940D01*
X17070D02*
X19510D01*
X17070Y31246D02*
X19510D01*
X12080D02*
X14940D01*
X7510D02*
X9950D01*
X22540Y8065D02*
X25140D01*
X22540Y14465D02*
X25140D01*
X20640Y8065D02*
Y14465D01*
X27040Y8065D02*
Y14465D01*
X8967Y33486D02*
X9067D01*
X8967Y34586D02*
X9067D01*
X29853Y11050D02*
X29953D01*
X29853Y9950D02*
X29953D01*
X36915Y35129D02*
Y35229D01*
X38015Y35129D02*
Y35229D01*
X53544Y5630D02*
X53644D01*
X53544Y4530D02*
X53644D01*
X45900Y41013D02*
Y41113D01*
X47000Y41013D02*
Y41113D01*
X43694Y42957D02*
Y43057D01*
X44794Y42957D02*
Y43057D01*
X38696Y8968D02*
Y12524D01*
Y23968D02*
Y27524D01*
Y38968D02*
Y42524D01*
X52709Y8136D02*
Y9136D01*
X52209Y8636D02*
X53209D01*
X57019Y9776D02*
X57023Y9721D01*
X57019Y7496D02*
X57023Y7551D01*
X28135Y15240D02*
X29335D01*
X36000Y20407D02*
X37200D01*
X33845Y16220D02*
Y17420D01*
X48684Y41963D02*
X49884D01*
X58300Y47200D02*
Y48400D01*
X48784Y47700D02*
X49984D01*
D42*
X58975Y40282D02*
G03*
X58975Y40282I-125J0D01*
G01*
X19412Y40950D02*
G03*
X19412Y40950I-125J0D01*
G01*
D43*
X20387Y43350D02*
G03*
X20387Y43350I-300J0D01*
G01*
D44*
X42783Y45891D02*
G03*
X42783Y45891I-141J0D01*
G01*
D45*
X32607Y20000D02*
Y25600D01*
X22107Y20000D02*
Y25600D01*
X32147D02*
X32607D01*
X32147Y20000D02*
X32607D01*
X22107Y25600D02*
X22567D01*
X22107Y20000D02*
X22567D01*
D46*
X22621Y31750D02*
X34021D01*
X22621Y36650D02*
X34021D01*
X40200Y9366D02*
Y8367D01*
X40866D01*
X41866Y9366D02*
X41200D01*
Y8367D01*
X41866D01*
X41200Y8866D02*
X41533D01*
X42199Y9366D02*
Y8367D01*
X42699D01*
X42866Y8533D01*
Y9200D01*
X42699Y9366D01*
X42199D01*
X43199Y8200D02*
X43865D01*
X44199Y9366D02*
Y8367D01*
X44865D01*
X45365D02*
X45698D01*
X45865Y8533D01*
Y8866D01*
X45698Y9033D01*
X45365D01*
X45198Y8866D01*
Y8533D01*
X45365Y8367D01*
X46198D02*
X46698D01*
X46865Y8533D01*
X46698Y8700D01*
X46365D01*
X46198Y8866D01*
X46365Y9033D01*
X46865D01*
X47364Y9200D02*
Y9033D01*
X47198D01*
X47531D01*
X47364D01*
Y8533D01*
X47531Y8367D01*
X40200Y27720D02*
Y26720D01*
X40866D01*
X41866Y27720D02*
X41200D01*
Y26720D01*
X41866D01*
X41200Y27220D02*
X41533D01*
X42199Y27720D02*
Y26720D01*
X42699D01*
X42866Y26887D01*
Y27553D01*
X42699Y27720D01*
X42199D01*
X43199Y26554D02*
X43865D01*
X44865Y27553D02*
X44699Y27720D01*
X44365D01*
X44199Y27553D01*
Y27387D01*
X44365Y27220D01*
X44699D01*
X44865Y27054D01*
Y26887D01*
X44699Y26720D01*
X44365D01*
X44199Y26887D01*
X45698Y26720D02*
X45365D01*
X45198Y26887D01*
Y27220D01*
X45365Y27387D01*
X45698D01*
X45865Y27220D01*
Y27054D01*
X45198D01*
X46198Y26720D02*
Y27387D01*
X46698D01*
X46865Y27220D01*
Y26720D01*
X47864Y27720D02*
Y26720D01*
X47364D01*
X47198Y26887D01*
Y27220D01*
X47364Y27387D01*
X47864D01*
X15100Y14500D02*
Y15500D01*
X15600D01*
X15766Y15333D01*
Y15000D01*
X15600Y14833D01*
X15100D01*
X15433D02*
X15766Y14500D01*
X16600D02*
X16266D01*
X16100Y14667D01*
Y15000D01*
X16266Y15166D01*
X16600D01*
X16766Y15000D01*
Y14833D01*
X16100D01*
X17099Y14500D02*
X17599D01*
X17766Y14667D01*
X17599Y14833D01*
X17266D01*
X17099Y15000D01*
X17266Y15166D01*
X17766D01*
X18599Y14500D02*
X18266D01*
X18099Y14667D01*
Y15000D01*
X18266Y15166D01*
X18599D01*
X18765Y15000D01*
Y14833D01*
X18099D01*
X19265Y15333D02*
Y15166D01*
X19099D01*
X19432D01*
X19265D01*
Y14667D01*
X19432Y14500D01*
X6766Y30500D02*
X5767D01*
Y30000D01*
X5933Y29834D01*
X6100D01*
X6266Y30000D01*
Y30500D01*
Y30000D01*
X6433Y29834D01*
X6600D01*
X6766Y30000D01*
Y30500D01*
X6600Y29334D02*
X6433D01*
Y29500D01*
Y29167D01*
Y29334D01*
X5933D01*
X5767Y29167D01*
Y28667D02*
X6433D01*
Y28167D01*
X6266Y28001D01*
X5767D01*
X5600Y27668D02*
Y27001D01*
X6766Y26001D02*
X5767D01*
Y26501D01*
X5933Y26668D01*
X6266D01*
X6433Y26501D01*
Y26001D01*
X5767Y25168D02*
Y25502D01*
X5933Y25668D01*
X6266D01*
X6433Y25502D01*
Y25168D01*
X6266Y25002D01*
X6100D01*
Y25668D01*
X5767Y24669D02*
X6433D01*
Y24502D01*
X6266Y24335D01*
X5767D01*
X6266D01*
X6433Y24169D01*
X6266Y24002D01*
X5767D01*
X6433Y23502D02*
Y23169D01*
X6266Y23002D01*
X5767D01*
Y23502D01*
X5933Y23669D01*
X6100Y23502D01*
Y23002D01*
X5767Y22669D02*
X6433D01*
Y22169D01*
X6266Y22003D01*
X5767D01*
X6766Y21003D02*
X5767D01*
Y21503D01*
X5933Y21670D01*
X6266D01*
X6433Y21503D01*
Y21003D01*
X5767Y20170D02*
Y20503D01*
X5933Y20670D01*
X6266D01*
X6433Y20503D01*
Y20170D01*
X6266Y20003D01*
X6100D01*
Y20670D01*
X39910Y39688D02*
Y38688D01*
X40577D01*
X41576Y39688D02*
X40910D01*
Y38688D01*
X41576D01*
X40910Y39188D02*
X41243D01*
X41909Y39688D02*
Y38688D01*
X42409D01*
X42576Y38854D01*
Y39521D01*
X42409Y39688D01*
X41909D01*
X42909Y38521D02*
X43576D01*
X44575Y38854D02*
Y39521D01*
X44409Y39688D01*
X44075D01*
X43909Y39521D01*
Y38854D01*
X44075Y38688D01*
X44409D01*
X44242Y39021D02*
X44575Y38688D01*
X44409D02*
X44575Y38854D01*
X44908Y39354D02*
Y38854D01*
X45075Y38688D01*
X45575D01*
Y39354D01*
X46408Y38688D02*
X46075D01*
X45908Y38854D01*
Y39188D01*
X46075Y39354D01*
X46408D01*
X46575Y39188D01*
Y39021D01*
X45908D01*
X46908Y38688D02*
X47408D01*
X47574Y38854D01*
X47408Y39021D01*
X47074D01*
X46908Y39188D01*
X47074Y39354D01*
X47574D01*
X56900Y6866D02*
Y5867D01*
X57566D01*
X58566Y6866D02*
X57900D01*
Y5867D01*
X58566D01*
X57900Y6366D02*
X58233D01*
X58899Y6866D02*
Y5867D01*
X59399D01*
X59566Y6033D01*
Y6700D01*
X59399Y6866D01*
X58899D01*
X59899Y5700D02*
X60565D01*
X61065Y6533D02*
X61399D01*
X61565Y6366D01*
Y5867D01*
X61065D01*
X60899Y6033D01*
X61065Y6200D01*
X61565D01*
X61898Y5867D02*
X62232D01*
X62065D01*
Y6866D01*
X61898D01*
X62731Y5867D02*
X63065D01*
X62898D01*
Y6533D01*
X62731D01*
X63565Y5867D02*
Y6533D01*
X63731D01*
X63898Y6366D01*
Y5867D01*
Y6366D01*
X64064Y6533D01*
X64231Y6366D01*
Y5867D01*
X33500Y21200D02*
Y20367D01*
X33667Y20200D01*
X34000D01*
X34166Y20367D01*
Y21200D01*
X34500Y21033D02*
X34666Y21200D01*
X35000D01*
X35166Y21033D01*
Y20866D01*
X35000Y20700D01*
X34833D01*
X35000D01*
X35166Y20533D01*
Y20367D01*
X35000Y20200D01*
X34666D01*
X34500Y20367D01*
X19396Y39200D02*
Y39033D01*
X19729Y38700D01*
X20062Y39033D01*
Y39200D01*
X19729Y38700D02*
Y38200D01*
X20395D02*
X20728D01*
X20562D01*
Y39200D01*
X20395Y39033D01*
X21033Y31747D02*
X20867Y31914D01*
X20534D01*
X20367Y31747D01*
Y31081D01*
X20534Y30914D01*
X20867D01*
X21033Y31081D01*
X22033Y31914D02*
X21700Y31747D01*
X21367Y31414D01*
Y31081D01*
X21533Y30914D01*
X21866D01*
X22033Y31081D01*
Y31248D01*
X21866Y31414D01*
X21367D01*
X31484Y29902D02*
X31318Y30069D01*
X30984D01*
X30818Y29902D01*
Y29236D01*
X30984Y29069D01*
X31318D01*
X31484Y29236D01*
X32484Y30069D02*
X31818D01*
Y29569D01*
X32151Y29736D01*
X32317D01*
X32484Y29569D01*
Y29236D01*
X32317Y29069D01*
X31984D01*
X31818Y29236D01*
X60167Y40700D02*
Y39867D01*
X60334Y39700D01*
X60667D01*
X60833Y39867D01*
Y40700D01*
X61833Y39700D02*
X61167D01*
X61833Y40367D01*
Y40533D01*
X61666Y40700D01*
X61333D01*
X61167Y40533D01*
X34981Y5088D02*
Y6088D01*
X35481D01*
X35647Y5921D01*
Y5588D01*
X35481Y5421D01*
X34981D01*
X35314D02*
X35647Y5088D01*
X36647Y6088D02*
X36314Y5921D01*
X35981Y5588D01*
Y5255D01*
X36147Y5088D01*
X36480D01*
X36647Y5255D01*
Y5421D01*
X36480Y5588D01*
X35981D01*
X15467Y49500D02*
Y50500D01*
X15967D01*
X16133Y50333D01*
Y50000D01*
X15967Y49833D01*
X15467D01*
X15800D02*
X16133Y49500D01*
X17133Y50500D02*
X16467D01*
Y50000D01*
X16800Y50167D01*
X16966D01*
X17133Y50000D01*
Y49667D01*
X16966Y49500D01*
X16633D01*
X16467Y49667D01*
X30667Y47400D02*
Y48400D01*
X31167D01*
X31333Y48233D01*
Y47900D01*
X31167Y47733D01*
X30667D01*
X31000D02*
X31333Y47400D01*
X32166D02*
Y48400D01*
X31667Y47900D01*
X32333D01*
X33374Y48645D02*
Y49645D01*
X33874D01*
X34040Y49478D01*
Y49145D01*
X33874Y48978D01*
X33374D01*
X33707D02*
X34040Y48645D01*
X34374Y49478D02*
X34540Y49645D01*
X34873D01*
X35040Y49478D01*
Y49311D01*
X34873Y49145D01*
X34707D01*
X34873D01*
X35040Y48978D01*
Y48812D01*
X34873Y48645D01*
X34540D01*
X34374Y48812D01*
X53334Y47900D02*
X52667D01*
Y47400D01*
X53000D01*
X52667D01*
Y46900D01*
X53667Y47900D02*
Y46900D01*
X54167D01*
X54333Y47067D01*
Y47233D01*
X54167Y47400D01*
X53667D01*
X54167D01*
X54333Y47567D01*
Y47733D01*
X54167Y47900D01*
X53667D01*
X55333Y46900D02*
X54666D01*
X55333Y47567D01*
Y47733D01*
X55166Y47900D01*
X54833D01*
X54666Y47733D01*
X46100Y51000D02*
X45434D01*
Y50500D01*
X45767D01*
X45434D01*
Y50000D01*
X46433Y51000D02*
Y50000D01*
X46933D01*
X47100Y50167D01*
Y50333D01*
X46933Y50500D01*
X46433D01*
X46933D01*
X47100Y50667D01*
Y50833D01*
X46933Y51000D01*
X46433D01*
X47433Y50000D02*
X47766D01*
X47600D01*
Y51000D01*
X47433Y50833D01*
X18900Y2000D02*
Y3000D01*
X19400D01*
X19566Y2833D01*
Y2500D01*
X19400Y2333D01*
X18900D01*
X19233D02*
X19566Y2000D01*
X19900Y2167D02*
X20066Y2000D01*
X20400D01*
X20566Y2167D01*
Y2833D01*
X20400Y3000D01*
X20066D01*
X19900Y2833D01*
Y2666D01*
X20066Y2500D01*
X20566D01*
X17200Y46900D02*
Y46067D01*
X17367Y45900D01*
X17700D01*
X17866Y46067D01*
Y46900D01*
X18200Y45900D02*
X18533D01*
X18366D01*
Y46900D01*
X18200Y46733D01*
X13167Y33853D02*
X13000Y34020D01*
X12667D01*
X12500Y33853D01*
Y33686D01*
X12667Y33520D01*
X13000D01*
X13167Y33353D01*
Y33187D01*
X13000Y33020D01*
X12667D01*
X12500Y33187D01*
X14166Y33020D02*
X13500D01*
X14166Y33686D01*
Y33853D01*
X14000Y34020D01*
X13666D01*
X13500Y33853D01*
X19166Y13233D02*
X19000Y13400D01*
X18667D01*
X18500Y13233D01*
Y13066D01*
X18667Y12900D01*
X19000D01*
X19166Y12733D01*
Y12567D01*
X19000Y12400D01*
X18667D01*
X18500Y12567D01*
X19500Y12400D02*
X19833D01*
X19666D01*
Y13400D01*
X19500Y13233D01*
X9700Y35100D02*
Y36100D01*
X10200D01*
X10366Y35933D01*
Y35600D01*
X10200Y35433D01*
X9700D01*
X10033D02*
X10366Y35100D01*
X10700D02*
X11033D01*
X10866D01*
Y36100D01*
X10700Y35933D01*
X12199Y35100D02*
X11533D01*
X12199Y35766D01*
Y35933D01*
X12033Y36100D01*
X11699D01*
X11533Y35933D01*
X29053Y11700D02*
Y12700D01*
X29553D01*
X29720Y12533D01*
Y12200D01*
X29553Y12033D01*
X29053D01*
X29386D02*
X29720Y11700D01*
X30053D02*
X30386D01*
X30220D01*
Y12700D01*
X30053Y12533D01*
X30886Y11700D02*
X31219D01*
X31053D01*
Y12700D01*
X30886Y12533D01*
X36703Y31091D02*
Y32091D01*
X37203D01*
X37369Y31924D01*
Y31591D01*
X37203Y31424D01*
X36703D01*
X37036D02*
X37369Y31091D01*
X37703D02*
X38036D01*
X37869D01*
Y32091D01*
X37703Y31924D01*
X38536D02*
X38702Y32091D01*
X39036D01*
X39202Y31924D01*
Y31258D01*
X39036Y31091D01*
X38702D01*
X38536Y31258D01*
Y31924D01*
X38700Y33000D02*
Y34000D01*
X39200D01*
X39366Y33833D01*
Y33500D01*
X39200Y33333D01*
X38700D01*
X39033D02*
X39366Y33000D01*
X39700Y33833D02*
X39866Y34000D01*
X40200D01*
X40366Y33833D01*
Y33666D01*
X40200Y33500D01*
X40366Y33333D01*
Y33167D01*
X40200Y33000D01*
X39866D01*
X39700Y33167D01*
Y33333D01*
X39866Y33500D01*
X39700Y33666D01*
Y33833D01*
X39866Y33500D02*
X40200D01*
X49800Y4600D02*
Y5600D01*
X50300D01*
X50466Y5433D01*
Y5100D01*
X50300Y4933D01*
X49800D01*
X50133D02*
X50466Y4600D01*
X50800Y5600D02*
X51466D01*
Y5433D01*
X50800Y4767D01*
Y4600D01*
X46000Y43100D02*
Y44100D01*
X46500D01*
X46666Y43933D01*
Y43600D01*
X46500Y43433D01*
X46000D01*
X46333D02*
X46666Y43100D01*
X47666D02*
X47000D01*
X47666Y43766D01*
Y43933D01*
X47500Y44100D01*
X47166D01*
X47000Y43933D01*
X41900Y41400D02*
Y42400D01*
X42400D01*
X42566Y42233D01*
Y41900D01*
X42400Y41733D01*
X41900D01*
X42233D02*
X42566Y41400D01*
X42900D02*
X43233D01*
X43066D01*
Y42400D01*
X42900Y42233D01*
X41066Y44600D02*
X40733D01*
X40900D01*
Y43767D01*
X40733Y43600D01*
X40567D01*
X40400Y43767D01*
X41400Y43600D02*
X41733D01*
X41566D01*
Y44600D01*
X41400Y44433D01*
X40600Y12700D02*
Y11700D01*
X41100D01*
X41266Y11867D01*
Y12533D01*
X41100Y12700D01*
X40600D01*
X42100Y11700D02*
Y12700D01*
X41600Y12200D01*
X42266D01*
X34128Y30300D02*
Y29300D01*
X34628D01*
X34795Y29467D01*
Y30133D01*
X34628Y30300D01*
X34128D01*
X35128Y30133D02*
X35295Y30300D01*
X35628D01*
X35794Y30133D01*
Y29966D01*
X35628Y29800D01*
X35461D01*
X35628D01*
X35794Y29633D01*
Y29467D01*
X35628Y29300D01*
X35295D01*
X35128Y29467D01*
X30900Y41746D02*
Y40746D01*
X31400D01*
X31566Y40913D01*
Y41579D01*
X31400Y41746D01*
X30900D01*
X32566Y40746D02*
X31900D01*
X32566Y41413D01*
Y41579D01*
X32400Y41746D01*
X32066D01*
X31900Y41579D01*
X58678Y9302D02*
Y8302D01*
X59178D01*
X59344Y8469D01*
Y9135D01*
X59178Y9302D01*
X58678D01*
X59678Y8302D02*
X60011D01*
X59844D01*
Y9302D01*
X59678Y9135D01*
X31115Y15034D02*
X31282Y15200D01*
Y15533D01*
X31115Y15700D01*
X30449D01*
X30282Y15533D01*
Y15200D01*
X30449Y15034D01*
X31282Y14700D02*
Y14034D01*
X31115D01*
X30449Y14700D01*
X30282D01*
X39133Y20734D02*
X39300Y20900D01*
Y21233D01*
X39133Y21400D01*
X38467D01*
X38300Y21233D01*
Y20900D01*
X38467Y20734D01*
Y20400D02*
X38300Y20234D01*
Y19900D01*
X38467Y19734D01*
X39133D01*
X39300Y19900D01*
Y20234D01*
X39133Y20400D01*
X38966D01*
X38800Y20234D01*
Y19734D01*
X36766Y17133D02*
X36600Y17300D01*
X36267D01*
X36100Y17133D01*
Y16467D01*
X36267Y16300D01*
X36600D01*
X36766Y16467D01*
X37100Y17133D02*
X37266Y17300D01*
X37600D01*
X37766Y17133D01*
Y16966D01*
X37600Y16800D01*
X37766Y16633D01*
Y16467D01*
X37600Y16300D01*
X37266D01*
X37100Y16467D01*
Y16633D01*
X37266Y16800D01*
X37100Y16966D01*
Y17133D01*
X37266Y16800D02*
X37600D01*
X29568Y2634D02*
X29735Y2800D01*
Y3133D01*
X29568Y3300D01*
X28902D01*
X28735Y3133D01*
Y2800D01*
X28902Y2634D01*
X28735Y1800D02*
X29735D01*
X29235Y2300D01*
Y1634D01*
X49366Y45233D02*
X49200Y45400D01*
X48867D01*
X48700Y45233D01*
Y44567D01*
X48867Y44400D01*
X49200D01*
X49366Y44567D01*
X49700Y45233D02*
X49866Y45400D01*
X50200D01*
X50366Y45233D01*
Y45066D01*
X50200Y44900D01*
X50033D01*
X50200D01*
X50366Y44733D01*
Y44567D01*
X50200Y44400D01*
X49866D01*
X49700Y44567D01*
X62066Y48133D02*
X61900Y48300D01*
X61567D01*
X61400Y48133D01*
Y47467D01*
X61567Y47300D01*
X61900D01*
X62066Y47467D01*
X63066Y47300D02*
X62400D01*
X63066Y47966D01*
Y48133D01*
X62900Y48300D01*
X62566D01*
X62400Y48133D01*
X49666Y50933D02*
X49500Y51100D01*
X49167D01*
X49000Y50933D01*
Y50267D01*
X49167Y50100D01*
X49500D01*
X49666Y50267D01*
X50000Y50100D02*
X50333D01*
X50166D01*
Y51100D01*
X50000Y50933D01*
X67800Y44500D02*
Y45500D01*
X68133Y45166D01*
X68466Y45500D01*
Y44500D01*
X68800D02*
Y45500D01*
X69300D01*
X69466Y45333D01*
Y45000D01*
X69300Y44833D01*
X68800D01*
X69799Y44500D02*
X70133D01*
X69966D01*
Y45500D01*
X69799Y45333D01*
X62649Y14058D02*
Y15058D01*
X62982Y14725D01*
X63315Y15058D01*
Y14058D01*
X63648D02*
Y15058D01*
X64148D01*
X64315Y14891D01*
Y14558D01*
X64148Y14392D01*
X63648D01*
X65314Y14058D02*
X64648D01*
X65314Y14725D01*
Y14891D01*
X65148Y15058D01*
X64815D01*
X64648Y14891D01*
X8165Y10500D02*
Y11500D01*
X8498Y11166D01*
X8832Y11500D01*
Y10500D01*
X9165D02*
Y11500D01*
X9665D01*
X9831Y11333D01*
Y11000D01*
X9665Y10833D01*
X9165D01*
X10164Y11333D02*
X10331Y11500D01*
X10664D01*
X10831Y11333D01*
Y11166D01*
X10664Y11000D01*
X10498D01*
X10664D01*
X10831Y10833D01*
Y10667D01*
X10664Y10500D01*
X10331D01*
X10164Y10667D01*
X12382Y44564D02*
Y45563D01*
X12715Y45230D01*
X13048Y45563D01*
Y44564D01*
X13382D02*
Y45563D01*
X13882D01*
X14048Y45397D01*
Y45064D01*
X13882Y44897D01*
X13382D01*
X14881Y44564D02*
Y45563D01*
X14381Y45064D01*
X15048D01*
D47*
X36600Y50651D02*
Y50791D01*
Y46921D02*
Y48521D01*
X44600Y46921D02*
Y48521D01*
Y50651D02*
Y50791D01*
X42300Y45391D02*
X43430D01*
X37770D02*
X38900D01*
X44300Y50791D02*
X44600D01*
X44300D02*
Y51991D01*
X36900D02*
X44300D01*
X36900Y50791D02*
Y51991D01*
X36600Y50791D02*
X36900D01*
D48*
X39458Y11127D02*
Y10365D01*
Y10619D01*
X39966Y11127D01*
X39585Y10746D01*
X39966Y10365D01*
X39458Y26127D02*
Y25365D01*
Y25619D01*
X39966Y26127D01*
X39585Y25746D01*
X39966Y25365D01*
X39458Y41127D02*
Y40365D01*
Y40619D01*
X39966Y41127D01*
X39585Y40746D01*
X39966Y40365D01*
D49*
X3000Y38700D02*
Y38282D01*
Y38491D01*
X4254D01*
X4045Y38700D01*
Y37655D02*
X4254Y37446D01*
Y37029D01*
X4045Y36820D01*
X3836D01*
X3627Y37029D01*
X3418Y36820D01*
X3209D01*
X3000Y37029D01*
Y37446D01*
X3209Y37655D01*
X3418D01*
X3627Y37446D01*
X3836Y37655D01*
X4045D01*
X3627Y37446D02*
Y37029D01*
X3000Y36402D02*
Y35984D01*
Y36193D01*
X4254D01*
X4045Y36402D01*
X3000Y35357D02*
Y34939D01*
Y35148D01*
X4254D01*
X4045Y35357D01*
X3000Y33477D02*
Y34312D01*
X3836Y33477D01*
X4045D01*
X4254Y33686D01*
Y34103D01*
X4045Y34312D01*
Y32223D02*
X4254Y32432D01*
Y32850D01*
X4045Y33059D01*
X3209D01*
X3000Y32850D01*
Y32432D01*
X3209Y32223D01*
X2791Y31805D02*
Y30969D01*
X4254Y30552D02*
Y29716D01*
Y30134D01*
X3000D01*
Y29298D02*
Y28880D01*
Y29089D01*
X3836D01*
Y29298D01*
Y27418D02*
Y28044D01*
X3627Y28253D01*
X3209D01*
X3000Y28044D01*
Y27418D01*
Y27000D02*
X4254D01*
X3418D02*
X3836Y26373D01*
X3418Y27000D02*
X3000Y26373D01*
Y25119D02*
Y25537D01*
X3209Y25746D01*
X3627D01*
X3836Y25537D01*
Y25119D01*
X3627Y24910D01*
X3418D01*
Y25746D01*
X4045Y24284D02*
X3836D01*
Y24493D01*
Y24075D01*
Y24284D01*
X3209D01*
X3000Y24075D01*
Y23448D02*
Y23030D01*
Y23239D01*
X3836D01*
Y23448D01*
X3000Y22403D02*
X3836D01*
Y21776D01*
X3627Y21568D01*
X3000D01*
X2582Y20732D02*
Y20523D01*
X2791Y20314D01*
X3836D01*
Y20941D01*
X3627Y21150D01*
X3209D01*
X3000Y20941D01*
Y20314D01*
X2791Y19896D02*
Y19060D01*
X4045Y17807D02*
X4254Y18016D01*
Y18434D01*
X4045Y18642D01*
X3836D01*
X3627Y18434D01*
Y18016D01*
X3418Y17807D01*
X3209D01*
X3000Y18016D01*
Y18434D01*
X3209Y18642D01*
X3000Y17389D02*
Y16971D01*
Y17180D01*
X4254D01*
Y17389D01*
X3836Y16135D02*
Y15717D01*
X3627Y15508D01*
X3000D01*
Y16135D01*
X3209Y16344D01*
X3418Y16135D01*
Y15508D01*
X3836Y15091D02*
X3000Y14673D01*
X3836Y14255D01*
X3000Y13210D02*
Y13628D01*
X3209Y13837D01*
X3627D01*
X3836Y13628D01*
Y13210D01*
X3627Y13001D01*
X3418D01*
Y13837D01*
X51711Y12508D02*
X51457Y12762D01*
X50950D01*
X50696Y12508D01*
Y11492D01*
X50950Y11238D01*
X51457D01*
X51711Y11492D01*
X52219Y11238D02*
X52727D01*
X52473D01*
Y12762D01*
X52219Y12508D01*
X53489D02*
X53743Y12762D01*
X54250D01*
X54504Y12508D01*
Y11492D01*
X54250Y11238D01*
X53743D01*
X53489Y11492D01*
Y12508D01*
%TF.MD5,74c0e5139bb8a7a532130b5e35540ab2*%
M02*
