M48
;Layer_Color=9474304
;FILE_FORMAT=4:4
METRIC,LZ
;TYPE=PLATED
T1F00S00C0.2000
T3F00S00C0.7112
T4F00S00C0.7500
T5F00S00C0.8000
T7F00S00C0.9000
T8F00S00C1.0000
T9F00S00C1.1000
T10F00S00C1.2000
;TYPE=NON_PLATED
T11F00S00C0.8000
T12F00S00C3.7000
%
T01
X016Y0055
X0162877Y0063182
X01675Y006
X01667579Y0067373
X01639991Y00716701
X0163131Y007258
X016021Y0070929
X0159829Y007385
X0158432Y0075755
X01575Y007
X0153479Y0071183
X0153606Y0072707
X0145605Y0072834
X0146367Y0071056
X0147637Y0067627
X01475Y006
X01425
X01375
X01325
X01275
X01225
X0122491Y0065976
X01225Y007
X01275
X013Y0075
X014
X0140652Y0077152
X0142049Y007893
X0143827
X0146875Y0079184
X014751Y0077787
X01479545Y0076898
X0147764Y0076047
X0145351Y0075755
X0145Y0075
X0141287Y0065849
X0132905Y0065976
X013Y0055
X012
Y0075
X01575Y006
X0155Y0055
X0115
X011
X0105
X01
X0095
X009
X0085
X008
X00825Y006
X00875
X00925
X00975
X01025
X01075
X01175
X0114871Y0065849
X01125Y007
X01175
X0115Y0075
X011
X0105
X01
X01025Y007
X01075
X00975
X009Y0075
X0085
X008
X0075
X007
X0065
X006
X00575Y007
X00525
X0055Y0065
X005
X00525Y006
X00575
X00625
X00675
X007Y0055
X0075
X00775Y006
X0065Y0055
X006
X0055
X005Y0075
X00525Y008
X00575
X00625
X00675
X00725
X00775
X0075Y0085
X007
X0065
X006
X00625Y009
X00675
X00725
X00775
X0075Y0095
X007
X0065
X006
X00625Y01
X00675
X00725
X00775
X0075Y0105
X007
X0065
X006
X00625Y011
X00675
X00725
X00775
X0075Y0115
X007
X0065
X006
X0055
X005
X00525Y011
X00575
Y01
X00525
X005Y0105
Y0095
X00525Y009
X00575
X005Y0085
X008
X0085
X009
X00925Y009
X00975
X01025
X01075
X011Y0085
X0115
X01175Y008
X01125
X01075
X01025
X00975
X00925
X00875
X00825
Y009
X00875
X009Y0095
X0085
X008
X00825Y01
X00875
X00925
X00975
X01025
X01075
X01125
X0115Y0105
X011
X0105
X01
X0095
X009
X0085
X008
X00825Y011
X00875
X00925
X00975
X01025
X01075
X01125
X01175
X0115Y0115
X011
X0105
X01
X0095
X009
X0085
X008
X01Y0095
X0105
X0115
X01Y0085
X012
X0125666Y0085661
X01225Y009
X0119189Y0090614
X012Y0095
Y0105
X0125
X013
X0135
X0137985Y0105219
X0136969Y0107759
X01375Y011
X01425
X01475
X015Y0115
X0145
X0144335Y0117411
X014Y0115
X0135
X013
X0125
X012
X01225Y011
X01275
X01425Y01
X01475
X0147383Y0097218
X0145Y0095
X014
X0137604Y0092011
X0136969Y0092519
Y0084137
X0138239Y008401
Y0081724
X0134937Y0081597
X01453Y0081978
X01461
X0147383Y0082867
X0146621Y008401
X0145Y0085
X0150685Y0084391
X0149542Y0082232
X015005Y0080581
X0150939Y0079946
X0156654Y0079692
X01575Y008
X0155Y0085
X01575Y009
X01525
X0155Y0095
X01575Y01
X0155726Y0105219
X0153821Y0108521
X014878Y0102806
X01225Y008
X01625
X0165544Y0082232
X016Y0085
X01625Y009
X01675
X0165Y0095
X016
X01625Y01
X01675
X0165Y0105
X016
X01625Y011
X01675
X0165Y0115
X016
X01625Y012
X01675
X0165Y0125
X016
X01625Y013
X0155Y0125
X0156908Y0122491
X01525Y012
X015Y0125
X0145
X014
X0135
X013
X0125
X012
X01225Y013
X01275
X01325
X01375
X01425
Y012
X01375
X01325
X01275
X01225
X01175
X01125
X01075
X01025
X00975
X00925
X00875
X00825
X008Y0125
X009
X0095
X01
X0105
X011
X0115
X01175Y013
X01125
X01025
X00975
X00775
X0075Y0125
X007
X0065
X006
X00625Y013
X00575
X00525
X005Y0125
X00525Y012
X00575
X00625
X00675
X00725
X00775
T03
X0132055Y0056158
X0136299Y0065757
X0140652Y0073469
X0151701Y0077533
X0149542Y0067119
X0151384Y0065024
X0128079Y0078422
X0142938Y0094043
X0151701Y0106362
X0076517Y0127444
T04
X0162496Y01151389
X0165036Y01176789
X0159956
T05
X0094889Y0078945
X0116889
Y0080945
Y0082945
Y0084945
Y0086945
Y0088945
Y0090945
Y0092945
Y0094945
Y0096945
X0094889
Y0094945
Y0092945
Y0090945
Y0088945
Y0086945
Y0084945
Y0082945
Y0080945
X0160649Y012774
X0155649
T07
X0131889Y007553
Y007807
X0055679
Y007553
Y008061
Y008315
Y008569
Y008823
Y009077
Y009331
Y009585
Y009839
Y010093
Y010347
Y010601
Y010855
Y011109
Y011363
Y011617
Y011871
X0131889
Y011617
Y011363
Y011109
Y010855
Y010601
Y010347
Y010093
Y009839
Y009585
Y009331
Y009077
Y008823
Y008569
Y008315
Y008061
Y012125
Y012379
X0055679
Y012125
T08
X0161988Y0058864
X0163766Y0060388
X0165544Y0062039
X0167449Y0063563
X0144369Y012647
Y012901
X0108521Y0130619
X0104584Y0130746
X0100774
X0077529Y013199
X0075249
T09
X0119824Y0062928
X0122364
X0124904
X0127444
X0129984
T10
X0136299Y005653
Y006153
X0148799
Y005653
X0107299
Y006153
X0094799
Y005653
X0066049
Y006153
X0053549
Y005653
T11
X0066529Y0130674
X0071529
T12
X0166434Y00548
X0049339
X0166434Y013189
X0049339
M30
