G04 ================== begin FILE IDENTIFICATION RECORD ==================*
G04 Layout Name:  MODULE_RADIO_868M.brd*
G04 Film Name:    SilkScreenTop*
G04 File Format:  Gerber RS274X*
G04 File Origin:  Cadence Allegro 16.6-2015-S058*
G04 Origin Date:  Fri Feb 17 15:46:40 2017*
G04 *
G04 Layer:  USER PART NUMBER/SILKSCREEN_TOP*
G04 Layer:  REF DES/SILKSCREEN_TOP*
G04 Layer:  PACKAGE GEOMETRY/SILKSCREEN_TOP*
G04 Layer:  COMPONENT VALUE/SILKSCREEN_TOP*
G04 Layer:  BOARD GEOMETRY/SILKSCREEN_TOP*
G04 *
G04 Offset:    (0.000 0.000)*
G04 Mirror:    No*
G04 Mode:      Positive*
G04 Rotation:  0*
G04 FullContactRelief:  No*
G04 UndefLineWidth:     0.000*
G04 ================== end FILE IDENTIFICATION RECORD ====================*
%FSLAX25Y25*MOMM*%
%IR0*IPPOS*OFA0.00000B0.00000*MIA0B0*SFA1.00000B1.00000*%
%ADD10C,.2*%
%ADD11C,.15*%
%ADD12C,.25*%
%ADD13C,.152*%
%ADD14C,.17*%
%ADD15C,.127*%
%ADD16C,.381*%
%ADD17C,.508*%
G75*
%LPD*%
G75*
G54D10*
G01X290000Y1882000D02*
Y1828600D01*
X416000Y1702600D01*
X893100D01*
X939800Y1749300D01*
Y1994800D01*
X892900Y2041700D01*
X398000D01*
X289900Y1933600D01*
Y1882100D01*
X290000Y1882000D01*
G01X870000Y395000D02*
X815000D01*
Y365000D01*
X870000D01*
Y395000D01*
G01Y460000D02*
Y300000D01*
X590000D01*
Y460000D01*
X870000D01*
G54D11*
G01X682900Y277000D02*
Y186000D01*
X689300Y166900D01*
X702200Y154200D01*
X718200Y150000D01*
X734300Y154200D01*
X747200Y166900D01*
X753600Y186000D01*
Y277000D01*
G01X847700Y150000D02*
X859000Y152100D01*
X871900Y158500D01*
X879900Y169000D01*
X883100Y183900D01*
X879900Y198700D01*
X870300Y211400D01*
X855800Y217700D01*
X839700D01*
X830100Y222000D01*
X822000Y232500D01*
X818800Y247400D01*
X823600Y262200D01*
X834900Y272800D01*
X847700Y277000D01*
X860600Y272800D01*
X871900Y262200D01*
X876700Y247400D01*
X873500Y232500D01*
X865400Y222000D01*
X855800Y217700D01*
X839700D01*
X825200Y211400D01*
X815600Y198700D01*
X812400Y183900D01*
X815600Y169000D01*
X823600Y158500D01*
X836500Y152100D01*
X847700Y150000D01*
G54D12*
G01X2026100Y-44600D02*
X2034100Y-57300D01*
X2043800Y-65800D01*
X2055000Y-70000D01*
X2067900Y-65800D01*
X2077600Y-57300D01*
X2087200Y-44600D01*
X2090400Y-27700D01*
Y57000D01*
G01X2187700Y-70000D02*
Y57000D01*
X2168400Y31600D01*
G01Y-70000D02*
X2207000D01*
G01X2317200D02*
Y57000D01*
X2297900Y31600D01*
G01Y-70000D02*
X2336500D01*
G01X2118200Y640000D02*
X2105400Y642100D01*
X2094100Y650600D01*
X2084500Y663300D01*
X2078000Y678100D01*
X2074800Y695000D01*
Y712000D01*
X2078000Y728900D01*
X2084500Y743700D01*
X2094100Y756400D01*
X2105400Y764900D01*
X2118200Y767000D01*
X2131100Y764900D01*
X2142400Y756400D01*
X2152000Y743700D01*
X2158500Y728900D01*
X2161700Y712000D01*
Y695000D01*
X2158500Y678100D01*
X2152000Y663300D01*
X2142400Y650600D01*
X2131100Y642100D01*
X2118200Y640000D01*
G01X2131100Y673900D02*
X2150400Y640000D01*
G01X2212400Y665400D02*
X2222000Y650600D01*
X2234900Y642100D01*
X2249400Y640000D01*
X2262200Y642100D01*
X2275100Y652700D01*
X2283100Y665400D01*
X2284700Y678100D01*
X2281500Y692900D01*
X2270300Y703500D01*
X2259000Y707700D01*
X2244500D01*
G01X2259000D02*
X2268700Y714100D01*
X2276700Y724700D01*
X2279900Y737400D01*
X2276700Y750100D01*
X2268700Y760600D01*
X2254200Y767000D01*
X2239700Y764900D01*
X2225200Y756400D01*
G01X1727500Y820000D02*
X2327500D01*
Y500000D01*
X1727500D01*
Y820000D01*
G01X1986100Y2165400D02*
X1994100Y2152700D01*
X2003800Y2144200D01*
X2015000Y2140000D01*
X2027900Y2144200D01*
X2037600Y2152700D01*
X2047200Y2165400D01*
X2050400Y2182300D01*
Y2267000D01*
G01X2147700Y2140000D02*
Y2267000D01*
X2128400Y2241600D01*
G01Y2140000D02*
X2167000D01*
G01X2277200Y2267000D02*
X2264400Y2262800D01*
X2254700Y2252200D01*
X2248300Y2239500D01*
X2243500Y2222500D01*
X2241900Y2203500D01*
X2243500Y2184400D01*
X2248300Y2167500D01*
X2254700Y2154800D01*
X2264400Y2144200D01*
X2277200Y2140000D01*
X2290100Y2144200D01*
X2299800Y2154800D01*
X2306200Y2167500D01*
X2311000Y2184400D01*
X2312600Y2203500D01*
X2311000Y2222500D01*
X2306200Y2239500D01*
X2299800Y2252200D01*
X2290100Y2262800D01*
X2277200Y2267000D01*
G54D13*
G01X433100Y705100D02*
X480000Y658200D01*
X526900Y705100D01*
G01X85100Y1146900D02*
X38200Y1100000D01*
X85100Y1053100D01*
G01X526900Y1494900D02*
X480000Y1541800D01*
X433100Y1494900D01*
G01X874900Y1053100D02*
X921800Y1100000D01*
X874900Y1146900D01*
G01X1759500Y986500D02*
Y942000D01*
X1804000D01*
G01X2251000D02*
X2295500D01*
Y986500D01*
G01X1804000Y1478000D02*
X1759500D01*
Y1433500D01*
G01X2295500D02*
Y1478000D01*
X2251000D01*
G54D14*
G01X-75000Y315000D02*
X255000D01*
Y145000D01*
X-75000D01*
Y315000D01*
G01X-95000Y375000D02*
Y705000D01*
X75000D01*
Y375000D01*
X-95000D01*
G01X137500Y1725000D02*
Y1395000D01*
X-32500D01*
Y1725000D01*
X137500D01*
G01X-55000Y1875000D02*
X275000D01*
Y1705000D01*
X-55000D01*
Y1875000D01*
G01X905000Y565000D02*
X575000D01*
Y735000D01*
X905000D01*
Y565000D01*
G01X415000Y655000D02*
Y325000D01*
X245000D01*
Y655000D01*
X415000D01*
G01X55000Y335000D02*
Y665000D01*
X225000D01*
Y335000D01*
X55000D01*
G01X585000Y605000D02*
Y275000D01*
X415000D01*
Y605000D01*
X585000D01*
G01X272500Y1725000D02*
Y1395000D01*
X102500D01*
Y1725000D01*
X272500D01*
G01X895000Y255000D02*
Y585000D01*
X1065000D01*
Y255000D01*
X895000D01*
G01X1872500Y325000D02*
X1542500D01*
Y495000D01*
X1872500D01*
Y325000D01*
G01X1145000Y1275000D02*
X1475000D01*
Y1105000D01*
X1145000D01*
Y1275000D01*
G01X1952500Y1575000D02*
X1622500D01*
Y1745000D01*
X1952500D01*
Y1575000D01*
G01X2202500Y495000D02*
X2532500D01*
Y325000D01*
X2202500D01*
Y495000D01*
G01Y325000D02*
X1872500D01*
Y495000D01*
X2202500D01*
Y325000D01*
G01X1952500Y1745000D02*
X2282500D01*
Y1575000D01*
X1952500D01*
Y1745000D01*
G01Y1915000D02*
X2282500D01*
Y1745000D01*
X1952500D01*
Y1915000D01*
G01X2762500Y535000D02*
Y865000D01*
X2932500D01*
Y535000D01*
X2762500D01*
G01X2592500D02*
Y865000D01*
X2762500D01*
Y535000D01*
X2592500D01*
G01X2932500Y1035000D02*
X2602500D01*
Y1205000D01*
X2932500D01*
Y1035000D01*
G01Y1205000D02*
X2602500D01*
Y1375000D01*
X2932500D01*
Y1205000D01*
G01X2602500Y1365000D02*
Y1035000D01*
X2432500D01*
Y1365000D01*
X2602500D01*
G01Y1035000D02*
X2932500D01*
Y865000D01*
X2602500D01*
Y1035000D01*
G01X2932500Y1375000D02*
X2602500D01*
Y1545000D01*
X2932500D01*
Y1375000D01*
G01X2452500Y1905000D02*
Y1575000D01*
X2282500D01*
Y1905000D01*
X2452500D01*
G01X3262500Y1375000D02*
Y1705000D01*
X3432500D01*
Y1375000D01*
X3262500D01*
G01X2932500Y1545000D02*
X3262500D01*
Y1375000D01*
X2932500D01*
Y1545000D01*
G54D15*
G01X86400Y954200D02*
X92800Y963800D01*
X97000Y975100D01*
Y987900D01*
X90600Y1002400D01*
X80100Y1013700D01*
X67400Y1021700D01*
X46200Y1028200D01*
X27100Y1029800D01*
X8100Y1026500D01*
X-4600Y1021700D01*
X-17300Y1012100D01*
X-25800Y1000800D01*
X-30000Y989600D01*
Y978300D01*
X-25800Y967000D01*
X-19400Y957400D01*
X-11000Y949300D01*
G01Y895400D02*
X-21500Y885800D01*
X-27900Y874500D01*
X-30000Y860100D01*
X-25800Y845600D01*
X-17300Y834300D01*
X-2500Y826300D01*
X14400Y824700D01*
X31400Y827900D01*
X42000Y835900D01*
X50400Y847200D01*
X52500Y858400D01*
X50400Y869700D01*
X42000Y884200D01*
X97000Y879400D01*
Y835900D01*
G01X-30000Y711200D02*
X97000D01*
X6000Y770800D01*
Y690300D01*
G01X66400Y1304200D02*
X72800Y1313800D01*
X77000Y1325100D01*
Y1337900D01*
X70600Y1352400D01*
X60100Y1363700D01*
X47400Y1371700D01*
X26200Y1378200D01*
X7100Y1379800D01*
X-11900Y1376500D01*
X-24600Y1371700D01*
X-37300Y1362100D01*
X-45800Y1350800D01*
X-50000Y1339600D01*
Y1328300D01*
X-45800Y1317000D01*
X-39400Y1307400D01*
X-31000Y1299300D01*
G01X-50000Y1190700D02*
X77000D01*
X-14000Y1250300D01*
Y1169800D01*
G01X-50000Y1083800D02*
X-22500Y1080600D01*
X800Y1075700D01*
X22000Y1069300D01*
X45200Y1061200D01*
X77000Y1048400D01*
Y1112700D01*
G01X15800Y2026400D02*
X6200Y2032800D01*
X-5100Y2037000D01*
X-17900D01*
X-32400Y2030600D01*
X-43700Y2020100D01*
X-51700Y2007400D01*
X-58200Y1986200D01*
X-59800Y1967100D01*
X-56500Y1948100D01*
X-51700Y1935400D01*
X-42100Y1922700D01*
X-30800Y1914200D01*
X-19600Y1910000D01*
X-8300D01*
X3000Y1914200D01*
X12600Y1920600D01*
X20700Y1929000D01*
G01X129300Y1910000D02*
Y2037000D01*
X69700Y1946000D01*
X150200D01*
G01X239400Y1910000D02*
X250700Y1912100D01*
X263600Y1918500D01*
X271600Y1929000D01*
X274800Y1943900D01*
X271600Y1958700D01*
X262000Y1971400D01*
X247500Y1977700D01*
X231400D01*
X221800Y1982000D01*
X213700Y1992500D01*
X210500Y2007400D01*
X215300Y2022200D01*
X226600Y2032800D01*
X239400Y2037000D01*
X252300Y2032800D01*
X263600Y2022200D01*
X268400Y2007400D01*
X265200Y1992500D01*
X257100Y1982000D01*
X247500Y1977700D01*
X231400D01*
X216900Y1971400D01*
X207300Y1958700D01*
X204100Y1943900D01*
X207300Y1929000D01*
X215300Y1918500D01*
X228200Y1912100D01*
X239400Y1910000D01*
G01X288300Y130000D02*
Y257000D01*
X328500D01*
X341400Y250600D01*
X349400Y242200D01*
X352600Y225200D01*
X349400Y208300D01*
X339800Y197700D01*
X328500Y191400D01*
X288300D01*
G01X328500D02*
X352600Y130000D01*
G01X449900D02*
Y257000D01*
X430600Y231600D01*
G01Y130000D02*
X469200D01*
G01X552100Y144800D02*
X563400Y134200D01*
X576200Y130000D01*
X589100Y134200D01*
X600400Y146900D01*
X608400Y166000D01*
X611600Y185000D01*
Y208300D01*
X608400Y227400D01*
X600400Y244300D01*
X590700Y252800D01*
X579400Y257000D01*
X566600Y252800D01*
X556900Y244300D01*
X550500Y231600D01*
X547300Y214700D01*
X550500Y199900D01*
X558500Y185000D01*
X568200Y176600D01*
X579400Y174400D01*
X592300Y178700D01*
X602000Y189300D01*
X611600Y208300D01*
G01X416400Y934200D02*
X422800Y943800D01*
X427000Y955100D01*
Y967900D01*
X420600Y982400D01*
X410100Y993700D01*
X397400Y1001700D01*
X376200Y1008200D01*
X357100Y1009800D01*
X338100Y1006500D01*
X325400Y1001700D01*
X312700Y992100D01*
X304200Y980800D01*
X300000Y969600D01*
Y958300D01*
X304200Y947000D01*
X310600Y937400D01*
X319000Y929300D01*
G01Y875400D02*
X308500Y865800D01*
X302100Y854500D01*
X300000Y840100D01*
X304200Y825600D01*
X312700Y814300D01*
X327500Y806300D01*
X344400Y804700D01*
X361400Y807900D01*
X372000Y815900D01*
X380400Y827200D01*
X382500Y838400D01*
X380400Y849700D01*
X372000Y864200D01*
X427000Y859400D01*
Y815900D01*
G01X300000Y710600D02*
X427000D01*
X401600Y729900D01*
G01X300000D02*
Y691300D01*
G01X130000Y1011700D02*
X257000D01*
Y971500D01*
X250600Y958600D01*
X242200Y950600D01*
X225200Y947400D01*
X208300Y950600D01*
X197700Y960200D01*
X191400Y971500D01*
Y1011700D01*
G01Y971500D02*
X130000Y947400D01*
G01Y850100D02*
X257000D01*
X231600Y869400D01*
G01X130000D02*
Y830800D01*
G01X149000Y755900D02*
X138500Y746300D01*
X132100Y735000D01*
X130000Y720600D01*
X134200Y706100D01*
X142700Y694800D01*
X157500Y686800D01*
X174400Y685200D01*
X191400Y688400D01*
X202000Y696400D01*
X210400Y707700D01*
X212500Y718900D01*
X210400Y730200D01*
X202000Y744700D01*
X257000Y739900D01*
Y696400D01*
G01X450000Y1071700D02*
X577000D01*
Y1031500D01*
X570600Y1018600D01*
X562200Y1010600D01*
X545200Y1007400D01*
X528300Y1010600D01*
X517700Y1020200D01*
X511400Y1031500D01*
Y1071700D01*
G01Y1031500D02*
X450000Y1007400D01*
G01Y910100D02*
X577000D01*
X551600Y929400D01*
G01X450000D02*
Y890800D01*
G01Y783800D02*
X477500Y780600D01*
X500800Y775700D01*
X522000Y769300D01*
X545200Y761200D01*
X577000Y748400D01*
Y812700D01*
G01X416400Y1614200D02*
X422800Y1623800D01*
X427000Y1635100D01*
Y1647900D01*
X420600Y1662400D01*
X410100Y1673700D01*
X397400Y1681700D01*
X376200Y1688200D01*
X357100Y1689800D01*
X338100Y1686500D01*
X325400Y1681700D01*
X312700Y1672100D01*
X304200Y1660800D01*
X300000Y1649600D01*
Y1638300D01*
X304200Y1627000D01*
X310600Y1617400D01*
X319000Y1609300D01*
G01X300000Y1500700D02*
X427000D01*
X336000Y1560300D01*
Y1479800D01*
G01X314800Y1417900D02*
X304200Y1406600D01*
X300000Y1393800D01*
X304200Y1380900D01*
X316900Y1369600D01*
X336000Y1361600D01*
X355000Y1358400D01*
X378300D01*
X397400Y1361600D01*
X414300Y1369600D01*
X422800Y1379300D01*
X427000Y1390600D01*
X422800Y1403400D01*
X414300Y1413100D01*
X401600Y1419500D01*
X384700Y1422700D01*
X369900Y1419500D01*
X355000Y1411500D01*
X346600Y1401800D01*
X344400Y1390600D01*
X348700Y1377700D01*
X359300Y1368000D01*
X378300Y1358400D01*
G01X735800Y906400D02*
X726200Y912800D01*
X714900Y917000D01*
X702100D01*
X687600Y910600D01*
X676300Y900100D01*
X668300Y887400D01*
X661800Y866200D01*
X660200Y847100D01*
X663500Y828100D01*
X668300Y815400D01*
X677900Y802700D01*
X689200Y794200D01*
X700400Y790000D01*
X711700D01*
X723000Y794200D01*
X732600Y800600D01*
X740700Y809000D01*
G01X794600D02*
X804200Y798500D01*
X815500Y792100D01*
X829900Y790000D01*
X844400Y794200D01*
X855700Y802700D01*
X863700Y817500D01*
X865300Y834400D01*
X862100Y851400D01*
X854100Y862000D01*
X842800Y870400D01*
X831600Y872500D01*
X820300Y870400D01*
X805800Y862000D01*
X810600Y917000D01*
X854100D01*
G01X959400D02*
X946600Y912800D01*
X936900Y902200D01*
X930500Y889500D01*
X925700Y872500D01*
X924100Y853500D01*
X925700Y834400D01*
X930500Y817500D01*
X936900Y804800D01*
X946600Y794200D01*
X959400Y790000D01*
X972300Y794200D01*
X982000Y804800D01*
X988400Y817500D01*
X993200Y834400D01*
X994800Y853500D01*
X993200Y872500D01*
X988400Y889500D01*
X982000Y902200D01*
X972300Y912800D01*
X959400Y917000D01*
G01X1088300Y390000D02*
Y517000D01*
X1128500D01*
X1141400Y510600D01*
X1149400Y502200D01*
X1152600Y485200D01*
X1149400Y468300D01*
X1139800Y457700D01*
X1128500Y451400D01*
X1088300D01*
G01X1128500D02*
X1152600Y390000D01*
G01X1249900D02*
Y517000D01*
X1230600Y491600D01*
G01Y390000D02*
X1269200D01*
G01X1348900Y442900D02*
X1360100Y457700D01*
X1369800Y466200D01*
X1382700Y470400D01*
X1393900Y466200D01*
X1402000Y457700D01*
X1408400Y445000D01*
X1410000Y430200D01*
X1408400Y417500D01*
X1402000Y404800D01*
X1392300Y394200D01*
X1381100Y390000D01*
X1368200Y394200D01*
X1356900Y406900D01*
X1350500Y426000D01*
X1348900Y447100D01*
X1352100Y474700D01*
X1356900Y489500D01*
X1365000Y504300D01*
X1376200Y514900D01*
X1387500Y517000D01*
X1398800Y512800D01*
X1406800Y502200D01*
G01X919000Y1350600D02*
X854600Y1286200D01*
X845700Y1268200D01*
X845800Y1250100D01*
X854200Y1235800D01*
X868600Y1227400D01*
X886700Y1227300D01*
X904700Y1236200D01*
X969000Y1300600D01*
G01X937000Y1174000D02*
X937400Y1158500D01*
X943500Y1146500D01*
X955600Y1140400D01*
X972600Y1141400D01*
X991700Y1149200D01*
X1007500Y1160400D01*
X1023900Y1176800D01*
X1035100Y1192600D01*
X1041400Y1210200D01*
X1040600Y1223000D01*
X1035600Y1234000D01*
X1023500Y1240100D01*
X1010700Y1240900D01*
X997200Y1236500D01*
X982900Y1226800D01*
X974700Y1214000D01*
X969900Y1197900D01*
X970800Y1185100D01*
X977200Y1175600D01*
X989300Y1169500D01*
X1003600Y1170200D01*
X1023900Y1176800D01*
G01X1595800Y266400D02*
X1586200Y272800D01*
X1574900Y277000D01*
X1562100D01*
X1547600Y270600D01*
X1536300Y260100D01*
X1528300Y247400D01*
X1521800Y226200D01*
X1520200Y207100D01*
X1523500Y188100D01*
X1528300Y175400D01*
X1537900Y162700D01*
X1549200Y154200D01*
X1560400Y150000D01*
X1571700D01*
X1583000Y154200D01*
X1592600Y160600D01*
X1600700Y169000D01*
G01X1659400Y255800D02*
X1669000Y268500D01*
X1680300Y274900D01*
X1693200Y277000D01*
X1709300Y272800D01*
X1720500Y262200D01*
X1723700Y249500D01*
X1722100Y236800D01*
X1715700Y226200D01*
X1683500Y205000D01*
X1669000Y190200D01*
X1659400Y169000D01*
X1656200Y150000D01*
X1723700D01*
G01X1816200D02*
X1819400Y177500D01*
X1824300Y200800D01*
X1830700Y222000D01*
X1838800Y245200D01*
X1851600Y277000D01*
X1787300D01*
G01X1629900Y1277000D02*
Y1186000D01*
X1636300Y1166900D01*
X1649200Y1154200D01*
X1665200Y1150000D01*
X1681300Y1154200D01*
X1694200Y1166900D01*
X1700600Y1186000D01*
Y1277000D01*
G01X1814100Y1150000D02*
Y1277000D01*
X1754500Y1186000D01*
X1835000D01*
G01X1225800Y1066400D02*
X1216200Y1072800D01*
X1204900Y1077000D01*
X1192100D01*
X1177600Y1070600D01*
X1166300Y1060100D01*
X1158300Y1047400D01*
X1151800Y1026200D01*
X1150200Y1007100D01*
X1153500Y988100D01*
X1158300Y975400D01*
X1167900Y962700D01*
X1179200Y954200D01*
X1190400Y950000D01*
X1201700D01*
X1213000Y954200D01*
X1222600Y960600D01*
X1230700Y969000D01*
G01X1284600Y975400D02*
X1294200Y960600D01*
X1307100Y952100D01*
X1321600Y950000D01*
X1334400Y952100D01*
X1347300Y962700D01*
X1355300Y975400D01*
X1356900Y988100D01*
X1353700Y1002900D01*
X1342500Y1013500D01*
X1331200Y1017700D01*
X1316700D01*
G01X1331200D02*
X1340900Y1024100D01*
X1348900Y1034700D01*
X1352100Y1047400D01*
X1348900Y1060100D01*
X1340900Y1070600D01*
X1326400Y1077000D01*
X1311900Y1074900D01*
X1297400Y1066400D01*
G01X1449400Y950000D02*
X1460700Y952100D01*
X1473600Y958500D01*
X1481600Y969000D01*
X1484800Y983900D01*
X1481600Y998700D01*
X1472000Y1011400D01*
X1457500Y1017700D01*
X1441400D01*
X1431800Y1022000D01*
X1423700Y1032500D01*
X1420500Y1047400D01*
X1425300Y1062200D01*
X1436600Y1072800D01*
X1449400Y1077000D01*
X1462300Y1072800D01*
X1473600Y1062200D01*
X1478400Y1047400D01*
X1475200Y1032500D01*
X1467100Y1022000D01*
X1457500Y1017700D01*
X1441400D01*
X1426900Y1011400D01*
X1417300Y998700D01*
X1414100Y983900D01*
X1417300Y969000D01*
X1425300Y958500D01*
X1438200Y952100D01*
X1449400Y950000D01*
G01X1595800Y1856400D02*
X1586200Y1862800D01*
X1574900Y1867000D01*
X1562100D01*
X1547600Y1860600D01*
X1536300Y1850100D01*
X1528300Y1837400D01*
X1521800Y1816200D01*
X1520200Y1797100D01*
X1523500Y1778100D01*
X1528300Y1765400D01*
X1537900Y1752700D01*
X1549200Y1744200D01*
X1560400Y1740000D01*
X1571700D01*
X1583000Y1744200D01*
X1592600Y1750600D01*
X1600700Y1759000D01*
G01X1659400Y1845800D02*
X1669000Y1858500D01*
X1680300Y1864900D01*
X1693200Y1867000D01*
X1709300Y1862800D01*
X1720500Y1852200D01*
X1723700Y1839500D01*
X1722100Y1826800D01*
X1715700Y1816200D01*
X1683500Y1795000D01*
X1669000Y1780200D01*
X1659400Y1759000D01*
X1656200Y1740000D01*
X1723700D01*
G01X1788900Y1792900D02*
X1800100Y1807700D01*
X1809800Y1816200D01*
X1822700Y1820400D01*
X1833900Y1816200D01*
X1842000Y1807700D01*
X1848400Y1795000D01*
X1850000Y1780200D01*
X1848400Y1767500D01*
X1842000Y1754800D01*
X1832300Y1744200D01*
X1821100Y1740000D01*
X1808200Y1744200D01*
X1796900Y1756900D01*
X1790500Y1776000D01*
X1788900Y1797100D01*
X1792100Y1824700D01*
X1796900Y1839500D01*
X1805000Y1854300D01*
X1816200Y1864900D01*
X1827500Y1867000D01*
X1838800Y1862800D01*
X1846800Y1852200D01*
G01X2283300Y286400D02*
X2273700Y292800D01*
X2262400Y297000D01*
X2249600D01*
X2235100Y290600D01*
X2223800Y280100D01*
X2215800Y267400D01*
X2209300Y246200D01*
X2207700Y227100D01*
X2211000Y208100D01*
X2215800Y195400D01*
X2225400Y182700D01*
X2236700Y174200D01*
X2247900Y170000D01*
X2259200D01*
X2270500Y174200D01*
X2280100Y180600D01*
X2288200Y189000D01*
G01X2346900Y275800D02*
X2356500Y288500D01*
X2367800Y294900D01*
X2380700Y297000D01*
X2396800Y292800D01*
X2408000Y282200D01*
X2411200Y269500D01*
X2409600Y256800D01*
X2403200Y246200D01*
X2371000Y225000D01*
X2356500Y210200D01*
X2346900Y189000D01*
X2343700Y170000D01*
X2411200D01*
G01X2506900D02*
X2518200Y172100D01*
X2531100Y178500D01*
X2539100Y189000D01*
X2542300Y203900D01*
X2539100Y218700D01*
X2529500Y231400D01*
X2515000Y237700D01*
X2498900D01*
X2489300Y242000D01*
X2481200Y252500D01*
X2478000Y267400D01*
X2482800Y282200D01*
X2494100Y292800D01*
X2506900Y297000D01*
X2519800Y292800D01*
X2531100Y282200D01*
X2535900Y267400D01*
X2532700Y252500D01*
X2524600Y242000D01*
X2515000Y237700D01*
X2498900D01*
X2484400Y231400D01*
X2474800Y218700D01*
X2471600Y203900D01*
X2474800Y189000D01*
X2482800Y178500D01*
X2495700Y172100D01*
X2506900Y170000D01*
G01X1963100Y150000D02*
Y277000D01*
X2003300D01*
X2016200Y270600D01*
X2024200Y262200D01*
X2027400Y245200D01*
X2024200Y228300D01*
X2014600Y217700D01*
X2003300Y211400D01*
X1963100D01*
G01X2003300D02*
X2027400Y150000D01*
G01X2097400Y164800D02*
X2108700Y154200D01*
X2121500Y150000D01*
X2134400Y154200D01*
X2145700Y166900D01*
X2153700Y186000D01*
X2156900Y205000D01*
Y228300D01*
X2153700Y247400D01*
X2145700Y264300D01*
X2136000Y272800D01*
X2124700Y277000D01*
X2111900Y272800D01*
X2102200Y264300D01*
X2095800Y251600D01*
X2092600Y234700D01*
X2095800Y219900D01*
X2103800Y205000D01*
X2113500Y196600D01*
X2124700Y194400D01*
X2137600Y198700D01*
X2147300Y209300D01*
X2156900Y228300D01*
G01X2397000Y1296900D02*
X2270000D01*
Y1232600D01*
G01Y1115900D02*
X2397000D01*
X2306000Y1175500D01*
Y1095000D01*
G01X1814700Y1438600D02*
G03I-18340J0D01*
G01X2055800Y1546400D02*
X2046200Y1552800D01*
X2034900Y1557000D01*
X2022100D01*
X2007600Y1550600D01*
X1996300Y1540100D01*
X1988300Y1527400D01*
X1981800Y1506200D01*
X1980200Y1487100D01*
X1983500Y1468100D01*
X1988300Y1455400D01*
X1997900Y1442700D01*
X2009200Y1434200D01*
X2020400Y1430000D01*
X2031700D01*
X2043000Y1434200D01*
X2052600Y1440600D01*
X2060700Y1449000D01*
G01X2114600Y1455400D02*
X2124200Y1440600D01*
X2137100Y1432100D01*
X2151600Y1430000D01*
X2164400Y1432100D01*
X2177300Y1442700D01*
X2185300Y1455400D01*
X2186900Y1468100D01*
X2183700Y1482900D01*
X2172500Y1493500D01*
X2161200Y1497700D01*
X2146700D01*
G01X2161200D02*
X2170900Y1504100D01*
X2178900Y1514700D01*
X2182100Y1527400D01*
X2178900Y1540100D01*
X2170900Y1550600D01*
X2156400Y1557000D01*
X2141900Y1554900D01*
X2127400Y1546400D01*
G01X2248900Y1482900D02*
X2260100Y1497700D01*
X2269800Y1506200D01*
X2282700Y1510400D01*
X2293900Y1506200D01*
X2302000Y1497700D01*
X2308400Y1485000D01*
X2310000Y1470200D01*
X2308400Y1457500D01*
X2302000Y1444800D01*
X2292300Y1434200D01*
X2281100Y1430000D01*
X2268200Y1434200D01*
X2256900Y1446900D01*
X2250500Y1466000D01*
X2248900Y1487100D01*
X2252100Y1514700D01*
X2256900Y1529500D01*
X2265000Y1544300D01*
X2276200Y1554900D01*
X2287500Y1557000D01*
X2298800Y1552800D01*
X2306800Y1542200D01*
G01X2015800Y2046400D02*
X2006200Y2052800D01*
X1994900Y2057000D01*
X1982100D01*
X1967600Y2050600D01*
X1956300Y2040100D01*
X1948300Y2027400D01*
X1941800Y2006200D01*
X1940200Y1987100D01*
X1943500Y1968100D01*
X1948300Y1955400D01*
X1957900Y1942700D01*
X1969200Y1934200D01*
X1980400Y1930000D01*
X1991700D01*
X2003000Y1934200D01*
X2012600Y1940600D01*
X2020700Y1949000D01*
G01X2074600Y1955400D02*
X2084200Y1940600D01*
X2097100Y1932100D01*
X2111600Y1930000D01*
X2124400Y1932100D01*
X2137300Y1942700D01*
X2145300Y1955400D01*
X2146900Y1968100D01*
X2143700Y1982900D01*
X2132500Y1993500D01*
X2121200Y1997700D01*
X2106700D01*
G01X2121200D02*
X2130900Y2004100D01*
X2138900Y2014700D01*
X2142100Y2027400D01*
X2138900Y2040100D01*
X2130900Y2050600D01*
X2116400Y2057000D01*
X2101900Y2054900D01*
X2087400Y2046400D01*
G01X2236200Y1930000D02*
X2239400Y1957500D01*
X2244300Y1980800D01*
X2250700Y2002000D01*
X2258800Y2025200D01*
X2271600Y2057000D01*
X2207300D01*
G01X2956400Y424200D02*
X2962800Y433800D01*
X2967000Y445100D01*
Y457900D01*
X2960600Y472400D01*
X2950100Y483700D01*
X2937400Y491700D01*
X2916200Y498200D01*
X2897100Y499800D01*
X2878100Y496500D01*
X2865400Y491700D01*
X2852700Y482100D01*
X2844200Y470800D01*
X2840000Y459600D01*
Y448300D01*
X2844200Y437000D01*
X2850600Y427400D01*
X2859000Y419300D01*
G01X2865400Y365400D02*
X2850600Y355800D01*
X2842100Y342900D01*
X2840000Y328400D01*
X2842100Y315600D01*
X2852700Y302700D01*
X2865400Y294700D01*
X2878100Y293100D01*
X2892900Y296300D01*
X2903500Y307500D01*
X2907700Y318800D01*
Y333300D01*
G01Y318800D02*
X2914100Y309100D01*
X2924700Y301100D01*
X2937400Y297900D01*
X2950100Y301100D01*
X2960600Y309100D01*
X2967000Y323600D01*
X2964900Y338100D01*
X2956400Y352600D01*
G01X2945800Y231100D02*
X2958500Y221500D01*
X2964900Y210200D01*
X2967000Y197300D01*
X2962800Y181200D01*
X2952200Y170000D01*
X2939500Y166800D01*
X2926800Y168400D01*
X2916200Y174800D01*
X2895000Y207000D01*
X2880200Y221500D01*
X2859000Y231100D01*
X2840000Y234300D01*
Y166800D01*
G01X2746400Y414200D02*
X2752800Y423800D01*
X2757000Y435100D01*
Y447900D01*
X2750600Y462400D01*
X2740100Y473700D01*
X2727400Y481700D01*
X2706200Y488200D01*
X2687100Y489800D01*
X2668100Y486500D01*
X2655400Y481700D01*
X2642700Y472100D01*
X2634200Y460800D01*
X2630000Y449600D01*
Y438300D01*
X2634200Y427000D01*
X2640600Y417400D01*
X2649000Y409300D01*
G01X2655400Y355400D02*
X2640600Y345800D01*
X2632100Y332900D01*
X2630000Y318400D01*
X2632100Y305600D01*
X2642700Y292700D01*
X2655400Y284700D01*
X2668100Y283100D01*
X2682900Y286300D01*
X2693500Y297500D01*
X2697700Y308800D01*
Y323300D01*
G01Y308800D02*
X2704100Y299100D01*
X2714700Y291100D01*
X2727400Y287900D01*
X2740100Y291100D01*
X2750600Y299100D01*
X2757000Y313600D01*
X2754900Y328100D01*
X2746400Y342600D01*
G01X2649000Y225900D02*
X2638500Y216300D01*
X2632100Y205000D01*
X2630000Y190600D01*
X2634200Y176100D01*
X2642700Y164800D01*
X2657500Y156800D01*
X2674400Y155200D01*
X2691400Y158400D01*
X2702000Y166400D01*
X2710400Y177700D01*
X2712500Y188900D01*
X2710400Y200200D01*
X2702000Y214700D01*
X2757000Y209900D01*
Y166400D01*
G01X2675800Y1696400D02*
X2666200Y1702800D01*
X2654900Y1707000D01*
X2642100D01*
X2627600Y1700600D01*
X2616300Y1690100D01*
X2608300Y1677400D01*
X2601800Y1656200D01*
X2600200Y1637100D01*
X2603500Y1618100D01*
X2608300Y1605400D01*
X2617900Y1592700D01*
X2629200Y1584200D01*
X2640400Y1580000D01*
X2651700D01*
X2663000Y1584200D01*
X2672600Y1590600D01*
X2680700Y1599000D01*
G01X2734600Y1605400D02*
X2744200Y1590600D01*
X2757100Y1582100D01*
X2771600Y1580000D01*
X2784400Y1582100D01*
X2797300Y1592700D01*
X2805300Y1605400D01*
X2806900Y1618100D01*
X2803700Y1632900D01*
X2792500Y1643500D01*
X2781200Y1647700D01*
X2766700D01*
G01X2781200D02*
X2790900Y1654100D01*
X2798900Y1664700D01*
X2802100Y1677400D01*
X2798900Y1690100D01*
X2790900Y1700600D01*
X2776400Y1707000D01*
X2761900Y1704900D01*
X2747400Y1696400D01*
G01X2899400Y1580000D02*
Y1707000D01*
X2880100Y1681600D01*
G01Y1580000D02*
X2918700D01*
G01X2393100Y1930000D02*
Y2057000D01*
X2433300D01*
X2446200Y2050600D01*
X2454200Y2042200D01*
X2457400Y2025200D01*
X2454200Y2008300D01*
X2444600Y1997700D01*
X2433300Y1991400D01*
X2393100D01*
G01X2433300D02*
X2457400Y1930000D01*
G01X2554700D02*
X2566000Y1932100D01*
X2578900Y1938500D01*
X2586900Y1949000D01*
X2590100Y1963900D01*
X2586900Y1978700D01*
X2577300Y1991400D01*
X2562800Y1997700D01*
X2546700D01*
X2537100Y2002000D01*
X2529000Y2012500D01*
X2525800Y2027400D01*
X2530600Y2042200D01*
X2541900Y2052800D01*
X2554700Y2057000D01*
X2567600Y2052800D01*
X2578900Y2042200D01*
X2583700Y2027400D01*
X2580500Y2012500D01*
X2572400Y2002000D01*
X2562800Y1997700D01*
X2546700D01*
X2532200Y1991400D01*
X2522600Y1978700D01*
X2519400Y1963900D01*
X2522600Y1949000D01*
X2530600Y1938500D01*
X2543500Y1932100D01*
X2554700Y1930000D01*
G01X3035800Y1166400D02*
X3026200Y1172800D01*
X3014900Y1177000D01*
X3002100D01*
X2987600Y1170600D01*
X2976300Y1160100D01*
X2968300Y1147400D01*
X2961800Y1126200D01*
X2960200Y1107100D01*
X2963500Y1088100D01*
X2968300Y1075400D01*
X2977900Y1062700D01*
X2989200Y1054200D01*
X3000400Y1050000D01*
X3011700D01*
X3023000Y1054200D01*
X3032600Y1060600D01*
X3040700Y1069000D01*
G01X3099400Y1155800D02*
X3109000Y1168500D01*
X3120300Y1174900D01*
X3133200Y1177000D01*
X3149300Y1172800D01*
X3160500Y1162200D01*
X3163700Y1149500D01*
X3162100Y1136800D01*
X3155700Y1126200D01*
X3123500Y1105000D01*
X3109000Y1090200D01*
X3099400Y1069000D01*
X3096200Y1050000D01*
X3163700D01*
G01X3232100Y1064800D02*
X3243400Y1054200D01*
X3256200Y1050000D01*
X3269100Y1054200D01*
X3280400Y1066900D01*
X3288400Y1086000D01*
X3291600Y1105000D01*
Y1128300D01*
X3288400Y1147400D01*
X3280400Y1164300D01*
X3270700Y1172800D01*
X3259400Y1177000D01*
X3246600Y1172800D01*
X3236900Y1164300D01*
X3230500Y1151600D01*
X3227300Y1134700D01*
X3230500Y1119900D01*
X3238500Y1105000D01*
X3248200Y1096600D01*
X3259400Y1094400D01*
X3272300Y1098700D01*
X3282000Y1109300D01*
X3291600Y1128300D01*
G01X3045800Y1336400D02*
X3036200Y1342800D01*
X3024900Y1347000D01*
X3012100D01*
X2997600Y1340600D01*
X2986300Y1330100D01*
X2978300Y1317400D01*
X2971800Y1296200D01*
X2970200Y1277100D01*
X2973500Y1258100D01*
X2978300Y1245400D01*
X2987900Y1232700D01*
X2999200Y1224200D01*
X3010400Y1220000D01*
X3021700D01*
X3033000Y1224200D01*
X3042600Y1230600D01*
X3050700Y1239000D01*
G01X3104600Y1245400D02*
X3114200Y1230600D01*
X3127100Y1222100D01*
X3141600Y1220000D01*
X3154400Y1222100D01*
X3167300Y1232700D01*
X3175300Y1245400D01*
X3176900Y1258100D01*
X3173700Y1272900D01*
X3162500Y1283500D01*
X3151200Y1287700D01*
X3136700D01*
G01X3151200D02*
X3160900Y1294100D01*
X3168900Y1304700D01*
X3172100Y1317400D01*
X3168900Y1330100D01*
X3160900Y1340600D01*
X3146400Y1347000D01*
X3131900Y1344900D01*
X3117400Y1336400D01*
G01X3269400Y1347000D02*
X3256600Y1342800D01*
X3246900Y1332200D01*
X3240500Y1319500D01*
X3235700Y1302500D01*
X3234100Y1283500D01*
X3235700Y1264400D01*
X3240500Y1247500D01*
X3246900Y1234800D01*
X3256600Y1224200D01*
X3269400Y1220000D01*
X3282300Y1224200D01*
X3292000Y1234800D01*
X3298400Y1247500D01*
X3303200Y1264400D01*
X3304800Y1283500D01*
X3303200Y1302500D01*
X3298400Y1319500D01*
X3292000Y1332200D01*
X3282300Y1342800D01*
X3269400Y1347000D01*
G01X2973100Y1007000D02*
Y880000D01*
X3037400D01*
G01X3104200Y932900D02*
X3115400Y947700D01*
X3125100Y956200D01*
X3138000Y960400D01*
X3149200Y956200D01*
X3157300Y947700D01*
X3163700Y935000D01*
X3165300Y920200D01*
X3163700Y907500D01*
X3157300Y894800D01*
X3147600Y884200D01*
X3136400Y880000D01*
X3123500Y884200D01*
X3112200Y896900D01*
X3105800Y916000D01*
X3104200Y937100D01*
X3107400Y964700D01*
X3112200Y979500D01*
X3120300Y994300D01*
X3131500Y1004900D01*
X3142800Y1007000D01*
X3154100Y1002800D01*
X3162100Y992200D01*
G01X2983100Y1717000D02*
Y1590000D01*
X3047400D01*
G01X3109400Y1609000D02*
X3119000Y1598500D01*
X3130300Y1592100D01*
X3144700Y1590000D01*
X3159200Y1594200D01*
X3170500Y1602700D01*
X3178500Y1617500D01*
X3180100Y1634400D01*
X3176900Y1651400D01*
X3168900Y1662000D01*
X3157600Y1670400D01*
X3146400Y1672500D01*
X3135100Y1670400D01*
X3120600Y1662000D01*
X3125400Y1717000D01*
X3168900D01*
G01X3535800Y1606400D02*
X3526200Y1612800D01*
X3514900Y1617000D01*
X3502100D01*
X3487600Y1610600D01*
X3476300Y1600100D01*
X3468300Y1587400D01*
X3461800Y1566200D01*
X3460200Y1547100D01*
X3463500Y1528100D01*
X3468300Y1515400D01*
X3477900Y1502700D01*
X3489200Y1494200D01*
X3500400Y1490000D01*
X3511700D01*
X3523000Y1494200D01*
X3532600Y1500600D01*
X3540700Y1509000D01*
G01X3594600Y1515400D02*
X3604200Y1500600D01*
X3617100Y1492100D01*
X3631600Y1490000D01*
X3644400Y1492100D01*
X3657300Y1502700D01*
X3665300Y1515400D01*
X3666900Y1528100D01*
X3663700Y1542900D01*
X3652500Y1553500D01*
X3641200Y1557700D01*
X3626700D01*
G01X3641200D02*
X3650900Y1564100D01*
X3658900Y1574700D01*
X3662100Y1587400D01*
X3658900Y1600100D01*
X3650900Y1610600D01*
X3636400Y1617000D01*
X3621900Y1614900D01*
X3607400Y1606400D01*
G01X3724100Y1515400D02*
X3733700Y1500600D01*
X3746600Y1492100D01*
X3761100Y1490000D01*
X3773900Y1492100D01*
X3786800Y1502700D01*
X3794800Y1515400D01*
X3796400Y1528100D01*
X3793200Y1542900D01*
X3782000Y1553500D01*
X3770700Y1557700D01*
X3756200D01*
G01X3770700D02*
X3780400Y1564100D01*
X3788400Y1574700D01*
X3791600Y1587400D01*
X3788400Y1600100D01*
X3780400Y1610600D01*
X3765900Y1617000D01*
X3751400Y1614900D01*
X3736900Y1606400D01*
G54D16*
G01X1900000Y-100000D02*
X-100000D01*
Y100000D01*
X1900000D01*
Y-100000D01*
G01Y2100000D02*
X-100000D01*
Y2300000D01*
X1900000D01*
Y2100000D01*
G54D17*
G01X2259800Y900000D02*
G03I-38168J0D01*
M02*
