G04 ================== begin FILE IDENTIFICATION RECORD ==================*
G04 Layout Name:  MODULE_RADIO_868M.brd*
G04 Film Name:    SolderMaskTop*
G04 File Format:  Gerber RS274X*
G04 File Origin:  Cadence Allegro 16.6-2015-S058*
G04 Origin Date:  Fri Feb 17 15:46:40 2017*
G04 *
G04 Layer:  VIA CLASS/SOLDERMASK_TOP*
G04 Layer:  PIN/SOLDERMASK_TOP*
G04 *
G04 Offset:    (0.000 0.000)*
G04 Mirror:    No*
G04 Mode:      Positive*
G04 Rotation:  0*
G04 FullContactRelief:  No*
G04 UndefLineWidth:     0.000*
G04 ================== end FILE IDENTIFICATION RECORD ====================*
%FSLAX25Y25*MOMM*%
%IR0*IPPOS*OFA0.00000B0.00000*MIA0B0*SFA1.00000B1.00000*%
%ADD16C,1.1*%
%ADD11C,1.702*%
%AMMACRO13*
21,1,.356,1.016,0.0,0.0,45.*%
%ADD13MACRO13*%
%AMMACRO15*
21,1,4.191,4.191,0.0,0.0,45.*%
%ADD15MACRO15*%
%ADD18R,.762X1.397*%
%ADD12R,1.3X1.2*%
%ADD10R,1.2X1.3*%
%ADD19R,1.9X2.4*%
%AMMACRO14*
21,1,.356,1.016,0.0,0.0,135.*%
%ADD14MACRO14*%
%ADD20R,.813X.305*%
%ADD21R,.305X.813*%
%ADD17C,.937*%
%LPD*%
G75*
G54D10*
X5000Y230000D03*
X25000Y1790000D03*
X175000Y230000D03*
X195000Y1790000D03*
X655000Y650000D03*
X825000D03*
X1622500Y410000D03*
X1395000Y1190000D03*
X1225000D03*
X1702500Y1660000D03*
X1792500Y410000D03*
X2282500D03*
X1952500D03*
X2122500D03*
X1872500Y1660000D03*
X2202500D03*
X2032500D03*
X2202500Y1830000D03*
X2032500D03*
X2452500Y410000D03*
X2682500Y1120000D03*
X2852500D03*
X2682500Y1290000D03*
X2852500D03*
Y950000D03*
X2682500D03*
Y1460000D03*
X2852500D03*
X3182500D03*
X3012500D03*
G54D20*
X1782500Y1335000D03*
Y1285000D03*
Y1235000D03*
Y1185000D03*
Y1135000D03*
Y1085000D03*
Y1035000D03*
X2272500D03*
Y1085000D03*
Y1135000D03*
Y1185000D03*
Y1235000D03*
Y1285000D03*
Y1335000D03*
X1782500Y1385000D03*
X2272500D03*
G54D11*
X0Y0D03*
Y2200000D03*
X200000Y0D03*
X400000D03*
X600000D03*
X200000Y2200000D03*
X400000D03*
X600000D03*
X800000Y0D03*
X1000000D03*
X1200000D03*
X800000Y2200000D03*
X1000000D03*
X1200000D03*
X1400000Y0D03*
X1600000D03*
X1400000Y2200000D03*
X1600000D03*
X1800000Y0D03*
Y2200000D03*
G54D21*
X1852500Y965000D03*
X1902500D03*
X1952500D03*
X2002500D03*
X2052500D03*
X2102500D03*
X2152500D03*
X2202500D03*
Y1455000D03*
X2152500D03*
X2102500D03*
X2052500D03*
X2002500D03*
X1952500D03*
X1902500D03*
X1852500D03*
G54D12*
X-10000Y625000D03*
Y455000D03*
X52500Y1475000D03*
Y1645000D03*
X330000Y405000D03*
Y575000D03*
X140000Y585000D03*
Y415000D03*
X500000Y355000D03*
Y525000D03*
X187500Y1475000D03*
Y1645000D03*
X980000Y505000D03*
Y335000D03*
X2847500Y785000D03*
Y615000D03*
X2677500Y785000D03*
Y615000D03*
X2517500Y1115000D03*
Y1285000D03*
X2367500Y1655000D03*
Y1825000D03*
X3347500Y1625000D03*
Y1455000D03*
G54D13*
X585600Y810500D03*
X539700Y764500D03*
X144500Y1159700D03*
X190500Y1205600D03*
X236500Y1251600D03*
X282400Y1297600D03*
X328400Y1343500D03*
X374400Y1389500D03*
X420300Y1435500D03*
X815500Y1040300D03*
X769500Y994400D03*
X723500Y948400D03*
X677600Y902400D03*
X631600Y856500D03*
G54D14*
X420300Y764500D03*
X374400Y810500D03*
X328400Y856500D03*
X282400Y902400D03*
X236500Y948400D03*
X190500Y994400D03*
X144500Y1040300D03*
X585600Y1389500D03*
X539700Y1435500D03*
X631600Y1343500D03*
X677600Y1297600D03*
X723500Y1251600D03*
X769500Y1205600D03*
X815500Y1159700D03*
G54D15*
X480000Y1100000D03*
G54D16*
X353000Y1873500D03*
X861000Y1771900D03*
Y1975100D03*
G54D17*
X607000Y1937000D03*
Y1810000D03*
X480000Y1937000D03*
Y1810000D03*
X734000Y1937000D03*
Y1810000D03*
G54D18*
X830000Y245000D03*
X640000D03*
Y515000D03*
X735000D03*
X830000D03*
G54D19*
X1837500Y660000D03*
X2217500D03*
M02*
