G04 ================== begin FILE IDENTIFICATION RECORD ==================*
G04 Layout Name:  MODULE_RADIO_868M.brd*
G04 Film Name:    SolderMaskBottom*
G04 File Format:  Gerber RS274X*
G04 File Origin:  Cadence Allegro 16.6-2015-S058*
G04 Origin Date:  Fri Feb 17 15:46:40 2017*
G04 *
G04 Layer:  VIA CLASS/SOLDERMASK_BOTTOM*
G04 Layer:  PIN/SOLDERMASK_BOTTOM*
G04 *
G04 Offset:    (0.000 0.000)*
G04 Mirror:    No*
G04 Mode:      Positive*
G04 Rotation:  0*
G04 FullContactRelief:  No*
G04 UndefLineWidth:     0.000*
G04 ================== end FILE IDENTIFICATION RECORD ====================*
%FSLAX25Y25*MOMM*%
%IR0*IPPOS*OFA0.00000B0.00000*MIA0B0*SFA1.00000B1.00000*%
%ADD13C,1.1*%
%ADD10C,1.702*%
%ADD12R,.711X2.083*%
%ADD14R,1.9X2.4*%
%ADD11R,1.295X3.404*%
%LPD*%
G75*
G54D10*
X0Y0D03*
Y2200000D03*
X200000Y0D03*
X400000D03*
X600000D03*
X200000Y2200000D03*
X400000D03*
X600000D03*
X800000Y0D03*
X1000000D03*
X1200000D03*
X800000Y2200000D03*
X1000000D03*
X1200000D03*
X1400000Y0D03*
X1600000D03*
X1400000Y2200000D03*
X1600000D03*
X1800000Y0D03*
Y2200000D03*
G54D11*
X55000Y1095600D03*
X2125100D03*
G54D12*
X340000Y900000D03*
X390000Y1291200D03*
X440000Y900000D03*
X490000Y1291200D03*
X540000Y900000D03*
X590000Y1291200D03*
X640000Y900000D03*
X690000Y1291200D03*
X740000Y900000D03*
X790000Y1291200D03*
X840000Y900000D03*
X890000Y1291200D03*
X940000Y900000D03*
X990000Y1291200D03*
X1040000Y900000D03*
X1090000Y1291200D03*
X1140000Y900000D03*
X1190000Y1291200D03*
X1240000Y900000D03*
X1290000Y1291200D03*
X1340000Y900000D03*
X1390000Y1291200D03*
X1440000Y900000D03*
X1490000Y1291200D03*
X1540000Y900000D03*
X1590000Y1291200D03*
X1640000Y900000D03*
X1690000Y1291200D03*
X1740000Y900000D03*
X1790000Y1291200D03*
X1840000Y900000D03*
G54D13*
X353000Y1873500D03*
X861000Y1771900D03*
Y1975100D03*
G54D14*
X1837500Y660000D03*
X2217500D03*
M02*
