G04 ================== begin FILE IDENTIFICATION RECORD ==================*
G04 Layout Name:  MODULE_RADIO_868M.brd*
G04 Film Name:    VCC*
G04 File Format:  Gerber RS274X*
G04 File Origin:  Cadence Allegro 16.6-2015-S058*
G04 Origin Date:  Fri Feb 17 15:46:40 2017*
G04 *
G04 Layer:  ETCH/VCC*
G04 Layer:  PIN/VCC*
G04 Layer:  VIA CLASS/VCC*
G04 *
G04 Offset:    (0.000 0.000)*
G04 Mirror:    No*
G04 Mode:      Positive*
G04 Rotation:  0*
G04 FullContactRelief:  No*
G04 UndefLineWidth:     0.000*
G04 ================== end FILE IDENTIFICATION RECORD ====================*
%FSLAX25Y25*MOMM*%
%IR0*IPPOS*OFA0.00000B0.00000*MIA0B0*SFA1.00000B1.00000*%
%ADD10C,1.575*%
%ADD11C,.6*%
%ADD12C,.8*%
%ADD13C,.15*%
%ADD15C,1.41*%
%ADD17C,1.834*%
%ADD16C,1.88*%
%ADD14C,.904*%
G75*
%LPD*%
G75*
G36*
G01X3367500Y2309900D02*
Y1567500D01*
X3268100D01*
G02X3260200Y1584100I16J10187D01*
G03X3189800I-35200J28400D01*
G02X3181900Y1567500I-7916J-6413D01*
G01X3073100D01*
G02X3065200Y1584100I16J10187D01*
G03X2994800I-35200J28400D01*
G02X2986900Y1567500I-7916J-6413D01*
G01X2795600D01*
G02X2787700Y1584100I16J10187D01*
G03X2717300I-35200J28400D01*
G02X2709400Y1567500I-7916J-6413D01*
G01X2530700D01*
G02X2521800Y1582700I-7J10202D01*
G03X2443200I-39300J22300D01*
G02X2434300Y1567500I-8893J-4998D01*
G01X2345300D01*
X2343900Y1570600D01*
G03X2280000Y1513300I-41412J-18098D01*
G01Y1502900D01*
G02X2269800Y1492700I-10197J-3D01*
G03Y1402300I200J-45200D01*
G02X2280000Y1392100I3J-10197D01*
G01Y1015300D01*
G02X2270300Y1005100I-10212J-1D01*
G03Y914900I2200J-45100D01*
G02X2280000Y904700I-512J-10199D01*
G01Y895300D01*
G02X2270300Y885100I-10212J-1D01*
G03Y794900I2200J-45100D01*
G02X2280000Y784700I-512J-10199D01*
G01Y705000D01*
X2403500D01*
G03X2411500I4000J45000D01*
G01X2520300D01*
X2521200Y701200D01*
G03X2608800I43800J11300D01*
G01X2609700Y705000D01*
X2910300D01*
X2911200Y701200D01*
G03X2998800I43800J11300D01*
G01X2999700Y705000D01*
X3150300D01*
X3151200Y701200D01*
G03X3238800I43800J11300D01*
G01X3239700Y705000D01*
X3367500D01*
Y-99900D01*
X1853000D01*
G02X1847800Y-80900I-13J10208D01*
G03X1752200I-47800J80900D01*
G02X1747000Y-99900I-5187J-8792D01*
G01X1653000D01*
G02X1647800Y-80900I-13J10208D01*
G03X1552200I-47800J80900D01*
G02X1547000Y-99900I-5187J-8792D01*
G01X1453000D01*
G02X1447800Y-80900I-13J10208D01*
G03X1352200I-47800J80900D01*
G02X1347000Y-99900I-5187J-8792D01*
G01X1253000D01*
G02X1247800Y-80900I-13J10208D01*
G03X1152200I-47800J80900D01*
G02X1147000Y-99900I-5187J-8792D01*
G01X1053000D01*
G02X1047800Y-80900I-13J10208D01*
G03X952200I-47800J80900D01*
G02X947000Y-99900I-5187J-8792D01*
G01X853000D01*
G02X847800Y-80900I-13J10208D01*
G03X752200I-47800J80900D01*
G02X747000Y-99900I-5187J-8792D01*
G01X653000D01*
G02X647800Y-80900I-13J10208D01*
G03X552200I-47800J80900D01*
G02X547000Y-99900I-5187J-8792D01*
G01X453000D01*
G02X447800Y-80900I-13J10208D01*
G03X352200I-47800J80900D01*
G02X347000Y-99900I-5187J-8792D01*
G01X253000D01*
G02X247800Y-80900I-13J10208D01*
G03X152200I-47800J80900D01*
G02X147000Y-99900I-5187J-8792D01*
G01X53000D01*
G02X47800Y-80900I-13J10208D01*
G03X-71900Y60500I-47750J80943D01*
G02X-89900Y67100I-7792J6594D01*
G01Y1261800D01*
G02X-73300Y1269800I10208J40D01*
G03Y1340200I28300J35200D01*
G02X-89900Y1348200I-6392J7960D01*
G01Y2132900D01*
G02X-71900Y2139500I10208J6D01*
G03Y2260500I71900J60500D01*
G02X-89900Y2267100I-7792J6594D01*
G01Y2309900D01*
X3367500D01*
G37*
%LPC*%
G75*
G36*
G01X630200Y1396900D02*
X873300Y1153800D01*
X876000Y1154300D01*
G02X840700Y1119000I9000J-44300D01*
G01X841200Y1121700D01*
X584800Y1378100D01*
Y1875900D01*
X680300Y1971400D01*
Y1980100D01*
X680000Y1980400D01*
X674800D01*
X674400Y1980300D01*
G02X711800Y2016000I-6911J44680D01*
G01X711300Y2013300D01*
X725700Y1998900D01*
Y1952600D01*
X630200Y1857100D01*
Y1510800D01*
G03X645400Y1501900I10205J-1D01*
G02Y1423100I22100J-39400D01*
G03X630200Y1414200I-4995J-8899D01*
G01Y1396900D01*
G37*
G36*
G01X2066900Y1320300D02*
G03X2062600Y1315000I792J-5037D01*
G02X2010600Y1357200I-45132J-2475D01*
G03X2014900Y1362500I-792J5037D01*
G02X2066900Y1320300I45132J2475D01*
G37*
G36*
G01X218300Y790800D02*
G03X212600Y804800I-9150J4435D01*
G02X268200Y827700I14932J42693D01*
G03X273900Y813700I9150J-4435D01*
G02X304100Y768500I-14927J-42662D01*
G03X314400Y757700I10189J-595D01*
G02X269900Y715000I623J-45187D01*
G03X259600Y725800I-10189J595D01*
G02X218300Y790800I-635J45217D01*
G37*
G36*
G01X1005000Y2088800D02*
G02X958100Y2096900I-29988J-33807D01*
G03X958700Y2115500I-3842J9434D01*
G02X1010600Y2106600I41205J84507D01*
G03X1005000Y2088800I1130J-10136D01*
G37*
G36*
G01X1271200Y1439800D02*
G02Y1500200I-33700J30200D01*
G03X1286300I7550J6776D01*
G02X1323500Y1515100I33677J-30192D01*
G03X1333200Y1530300I818J10173D01*
G02X1416300Y1541200I39350J22220D01*
G03X1428700Y1528800I9833J-2567D01*
G02X1396200Y1496300I11300J-43800D01*
G03X1383800Y1508700I-9833J2567D01*
G02X1369000Y1507400I-11303J43788D01*
G03X1359300Y1492200I-818J-10173D01*
G02X1286300Y1439800I-39357J-22220D01*
G03X1271200I-7550J-6776D01*
G37*
G36*
G01X886000Y1446300D02*
G02Y1493700I-38500J23700D01*
G03X903400I8700J5300D01*
G02Y1446300I38500J-23700D01*
G03X886000I-8700J-5300D01*
G37*
G36*
G01X2148800Y1218800D02*
G02X2116300Y1251300I-43800J-11300D01*
G03X2128700Y1263700I2567J9833D01*
G02X2161200Y1231200I43800J11300D01*
G03X2148800Y1218800I-2567J-9833D01*
G37*
G36*
G01X1901500Y1104800D02*
G02X1858500I-21500J-39800D01*
G03Y1122700I-4811J8950D01*
G02X1901500I21500J39800D01*
G03Y1104800I4811J-8950D01*
G37*
G36*
G01X1380800Y880500D02*
G02Y919500I-40800J19500D01*
G03X1399200I9200J4350D01*
G02Y880500I40800J-19500D01*
G03X1380800I-9200J-4350D01*
G37*
G36*
G01X1270600Y611400D02*
G02X1228300Y608100I-18048J-41411D01*
G03X1226900Y626100I-5485J8628D01*
G02X1218200Y703900I18104J41411D01*
G03X1219500Y719100I-6088J8176D01*
G02X1279300Y713600I32995J30898D01*
G03X1278000Y698400I6088J-8176D01*
G02X1269200Y629400I-33008J-30851D01*
G03X1270600Y611400I5485J-8628D01*
G37*
G36*
G01X779300Y508600D02*
G02X726100Y561800I-44300J8900D01*
G03X731400Y579000I-1944J10016D01*
G01X712300Y598100D01*
Y673100D01*
X679200Y706200D01*
X676500Y705700D01*
G02X711800Y741000I-9000J44300D01*
G01X711300Y738300D01*
X757700Y691900D01*
Y616900D01*
X924400Y450200D01*
X1453100D01*
X1570500Y567600D01*
G03X1564000Y584900I-7261J7143D01*
G02X1612600Y633500I3500J45100D01*
G03X1629900Y627000I10157J761D01*
G01X1753100Y750200D01*
X1947700D01*
G02X1960300Y764100I39059J-22745D01*
G03X1961800Y779300I-5972J8263D01*
G02X1951400Y821800I33215J30650D01*
G03X1944500Y834200I-9858J2634D01*
G02X2001100Y865700I12973J43291D01*
G03X2008000Y853300I9858J-2634D01*
G02X2021500Y773400I-13004J-43288D01*
G03X2020000Y758200I5972J-8263D01*
G02X1947700Y704800I-33225J-30661D01*
G01X1771900D01*
X1471900Y404800D01*
X905600D01*
X796500Y513900D01*
G03X779300Y508600I-7184J-7244D01*
G37*
G54D15*
X353000Y1873500D03*
X861000Y1771900D03*
Y1975100D03*
G54D17*
X1800000Y2200000D03*
G54D16*
X200000D03*
X400000D03*
X600000D03*
X800000D03*
X1200000D03*
X1400000D03*
X1600000D03*
G54D14*
X-22500Y847500D03*
X-7500Y457500D03*
X525000Y240000D03*
X735000Y255000D03*
X315000Y232500D03*
X330000Y405000D03*
X352500Y975000D03*
X487500Y1140000D03*
X645000Y1125000D03*
X300000Y1155000D03*
X525000Y637500D03*
X457500Y727500D03*
X30000Y742500D03*
X27500Y1790000D03*
X375000Y1642500D03*
X180000D03*
X52500Y1650000D03*
X97500Y1312500D03*
X165000Y1980000D03*
X930000Y232500D03*
X1485000Y307500D03*
X1245000Y300000D03*
X930000Y652500D03*
X1035000Y1110000D03*
X1395000Y712500D03*
X1260000Y1087500D03*
X1155000D03*
X1455000D03*
X1485000Y570000D03*
X1072500Y1695000D03*
X1492500Y1290000D03*
X1072500Y1507500D03*
X1050000Y1942500D03*
X1335000Y2062500D03*
X1252500Y1987500D03*
X2062500Y157500D03*
X1725000Y217500D03*
X1612500Y1102500D03*
X1640000Y900000D03*
X2180000Y1132500D03*
X2045000Y1065000D03*
X2002500Y607500D03*
X1567500Y1702500D03*
X1875000Y1365000D03*
X1690000Y1291200D03*
X1567500Y1447500D03*
X1605000Y1560000D03*
X1985000Y1552500D03*
X2112500D03*
X1672500Y1980000D03*
X2107500Y2085000D03*
X3007500Y112500D03*
X2482500Y150000D03*
X2812500Y457500D03*
X2587500Y427500D03*
X2865000Y1732500D03*
X2490000Y1830000D03*
X2752500Y2115000D03*
X3307500Y562500D03*
X3067500D03*
X3240000Y2092500D03*
%LPD*%
G75*
G54D10*
X0Y0D03*
Y2200000D03*
X200000Y0D03*
X400000D03*
X600000D03*
X200000Y2200000D03*
X400000D03*
X600000D03*
X800000Y0D03*
X1000000D03*
X1200000D03*
X800000Y2200000D03*
X1000000D03*
X1200000D03*
X1400000Y0D03*
X1600000D03*
X1400000Y2200000D03*
X1600000D03*
X1800000Y0D03*
Y2200000D03*
G54D11*
X-7500Y457500D03*
X30000Y742500D03*
X-22500Y847500D03*
X-45000Y1305000D03*
X52500Y1477500D03*
X27500Y1790000D03*
X52500Y1650000D03*
X175000Y230000D03*
X525000Y240000D03*
X315000Y232500D03*
X502500Y352500D03*
X330000Y405000D03*
X525000Y637500D03*
X457500Y727500D03*
X315000Y712500D03*
X259000Y771000D03*
X352500Y975000D03*
X487500Y1140000D03*
X300000Y1155000D03*
X97500Y1312500D03*
X227500Y847500D03*
X192500Y1790000D03*
X457500Y1650000D03*
X375000Y1642500D03*
X180000D03*
X506200Y2036200D03*
X165000Y1980000D03*
X735000Y255000D03*
X930000Y232500D03*
X652500Y630000D03*
X982500Y502500D03*
X930000Y652500D03*
X735000Y517500D03*
X667500Y750000D03*
X645000Y1125000D03*
X1155000Y1087500D03*
X885000Y1110000D03*
X1035000D03*
X1050000Y1942500D03*
X941900Y1470000D03*
X847500D03*
X667500Y1462500D03*
X1072500Y1695000D03*
Y1507500D03*
X975000Y2055000D03*
X667500Y2025000D03*
X1725000Y217500D03*
X1485000Y307500D03*
X1245000Y300000D03*
X1395000Y712500D03*
X1485000Y570000D03*
X1252500D03*
Y750000D03*
X1245000Y667500D03*
X1567500Y630000D03*
X1492500Y1290000D03*
X1440000Y900000D03*
X1690000Y1291200D03*
X1455000Y1087500D03*
X1640000Y900000D03*
X1612500Y1102500D03*
X1260000Y1087500D03*
X1340000Y900000D03*
X1567500Y1702500D03*
X1320000Y1470000D03*
X1605000Y1560000D03*
X1567500Y1447500D03*
X1440000Y1485000D03*
X1372500Y1552500D03*
X1237500Y1470000D03*
X1672500Y1980000D03*
X1335000Y2062500D03*
X1252500Y1987500D03*
X2062500Y157500D03*
X2002500Y607500D03*
X1995000Y810000D03*
X1986800Y727500D03*
X2172500Y1275000D03*
X2180000Y1132500D03*
X2105000Y1207500D03*
X2060000Y1365000D03*
X1875000D03*
X2017500Y1312500D03*
X2272500Y840000D03*
Y960000D03*
X1880000Y1162500D03*
X2045000Y1065000D03*
X1880000D03*
X1957500Y877500D03*
X2205000Y1657500D03*
X2197500Y1830000D03*
X2270000Y1447500D03*
X2112500Y1552500D03*
X1985000D03*
X2107500Y2085000D03*
X2482500Y150000D03*
X2407500Y750000D03*
X2587500Y427500D03*
X2812500Y457500D03*
X2565000Y712500D03*
X2490000Y1830000D03*
X2752500Y1612500D03*
X2482500Y1605000D03*
X2302500Y1552500D03*
X2752500Y2115000D03*
X3007500Y112500D03*
X3307500Y562500D03*
X3067500D03*
X3195000Y712500D03*
X3322500Y802500D03*
X2955000Y712500D03*
X2940000Y1290000D03*
Y1117500D03*
X3322500Y1327500D03*
Y982500D03*
Y1155000D03*
X3225000Y1612500D03*
X2865000Y1732500D03*
X3030000Y1612500D03*
X3240000Y2092500D03*
G54D12*
X353000Y1873500D03*
X861000Y1771900D03*
Y1975100D03*
G54D13*
G01X667500Y750000D02*
X735000Y682500D01*
Y607500D01*
X915000Y427500D01*
X1462500D01*
X1762500Y727500D01*
X1986800D01*
G01X667500Y2025000D02*
X703000Y1989500D01*
Y1962000D01*
X607500Y1866500D01*
Y1387500D01*
X885000Y1110000D01*
G01X1800000Y2103200D02*
Y2200000D01*
G01D02*
Y2296800D01*
G01X1703200Y2200000D02*
X1800000D01*
G01D02*
X1896800D01*
M02*
