G04 ================== begin FILE IDENTIFICATION RECORD ==================*
G04 Layout Name:  MODULE_RADIO_868M.brd*
G04 Film Name:    NONAME_1*
G04 File Format:  Gerber RS274X*
G04 File Origin:  Cadence Allegro 16.6-2015-S058*
G04 Origin Date:  Wed Apr 12 14:11:36 2017*
G04 *
G04 Layer:  ETCH/NONAME_1*
G04 Layer:  PIN/NONAME_1*
G04 Layer:  VIA CLASS/NONAME_1*
G04 *
G04 Offset:    (0.000 0.000)*
G04 Mirror:    No*
G04 Mode:      Positive*
G04 Rotation:  0*
G04 FullContactRelief:  No*
G04 UndefLineWidth:     0.000*
G04 ================== end FILE IDENTIFICATION RECORD ====================*
%FSLAX25Y25*MOMM*%
%IR0*IPPOS*OFA0.00000B0.00000*MIA0B0*SFA1.00000B1.00000*%
%ADD10C,1.575*%
%ADD11C,.6*%
%ADD12C,.8*%
%ADD13C,.15*%
%ADD15C,1.41*%
%ADD16C,1.88*%
%ADD14C,.904*%
G75*
%LPD*%
G75*
G36*
G01X1653000Y-99900D02*
G02X1647800Y-80900I-13J10208D01*
G03X1552200I-47800J80900D01*
G02X1547000Y-99900I-5187J-8792D01*
G01X1453000D01*
G02X1447800Y-80900I-13J10208D01*
G03X1352200I-47800J80900D01*
G02X1347000Y-99900I-5187J-8792D01*
G01X1253000D01*
G02X1247800Y-80900I-13J10208D01*
G03X1152200I-47800J80900D01*
G02X1147000Y-99900I-5187J-8792D01*
G01X1053000D01*
G02X1047800Y-80900I-13J10208D01*
G03X952200I-47800J80900D01*
G02X947000Y-99900I-5187J-8792D01*
G01X853000D01*
G02X847800Y-80900I-13J10208D01*
G03X752200I-47800J80900D01*
G02X747000Y-99900I-5187J-8792D01*
G01X653000D01*
G02X647800Y-80900I-13J10208D01*
G03X552200I-47800J80900D01*
G02X547000Y-99900I-5187J-8792D01*
G01X453000D01*
G02X447800Y-80900I-13J10208D01*
G03X352200I-47800J80900D01*
G02X347000Y-99900I-5187J-8792D01*
G01X253000D01*
G02X247800Y-80900I-13J10208D01*
G03X152200I-47800J80900D01*
G02X147000Y-99900I-5187J-8792D01*
G01X53000D01*
G02X47800Y-80900I-13J10208D01*
G03X-71900Y60500I-47750J80943D01*
G02X-89900Y67100I-7792J6594D01*
G01Y1261800D01*
G02X-73300Y1269800I10208J40D01*
G03X-700Y1314000I28310J35223D01*
G01X-1200Y1316700D01*
X54400Y1372300D01*
X106900D01*
X279400Y1544800D01*
X1024200D01*
G02X1033100Y1529600I1J-10205D01*
G03X1097800Y1470100I39427J-22055D01*
G01X1203100Y1364800D01*
X1528100D01*
X1624400Y1268500D01*
X1650900D01*
G03X1652300Y1316200I39091J22723D01*
G01X1650800Y1313900D01*
X1643200D01*
X1571100Y1386000D01*
G02X1576400Y1403200I7244J7184D01*
G03X1528100Y1425400I-8889J44304D01*
G02X1519200Y1410200I-8899J-4995D01*
G01X1221900D01*
X1209900Y1422200D01*
X1215900Y1430200D01*
X1219600Y1428600D01*
G03X1267900Y1503400I17787J41509D01*
G02X1267600Y1518200I6881J7543D01*
G01X1275200Y1525800D01*
Y1948400D01*
G03X1229800I-22700J39100D01*
G01Y1544600D01*
X1214800Y1529600D01*
Y1509100D01*
G03X1192600Y1465200I22729J-39057D01*
G02X1175200Y1456900I-10152J-1106D01*
G01X1147700Y1484400D01*
Y1538700D01*
X1096200Y1590200D01*
X260600D01*
X88100Y1417700D01*
X35600D01*
X-33300Y1348800D01*
X-36000Y1349300D01*
G03X-73300Y1340200I-8954J-44294D01*
G02X-89900Y1348200I-6392J7960D01*
G01Y2136500D01*
G02X-71700Y2142900I10211J42D01*
G03Y2257100I71700J57100D01*
G02X-89900Y2263500I-7989J6358D01*
G01Y2309900D01*
X3367500D01*
Y1567500D01*
X2280000D01*
Y705000D01*
X3367500D01*
Y-99900D01*
X1853000D01*
G02X1847800Y-80900I-13J10208D01*
G03X1752200I-47800J80900D01*
G02X1747000Y-99900I-5187J-8792D01*
G01X1653000D01*
G37*
%LPC*%
G75*
G36*
G01X2015200Y802700D02*
G02X2003200Y850700I-42704J14824D01*
G03X2019800Y854800I6969J7439D01*
G02X2031800Y806800I42704J-14824D01*
G03X2015200Y802700I-6969J-7439D01*
G37*
G36*
G01X1270600Y611400D02*
G02X1228300Y608100I-18048J-41411D01*
G03X1226900Y626100I-5485J8628D01*
G02X1269200Y629400I18048J41411D01*
G03X1270600Y611400I5485J-8628D01*
G37*
G36*
G01X662700Y557900D02*
Y284100D01*
G02X617300I-22700J-39100D01*
G01Y576700D01*
X622400Y581800D01*
G03X622100Y596600I-7181J7257D01*
G02X617200Y658200I30412J33414D01*
G03X609300Y674800I-7949J6397D01*
G01X576800D01*
G03X567300Y661000I27J-10189D01*
G02X485900Y622400I-42283J-15961D01*
G03X469800Y624500I-8851J-5090D01*
G01X407600Y562300D01*
X238100D01*
X119800Y680600D01*
Y771900D01*
X157300Y809400D01*
Y811200D01*
X183400Y837300D01*
X182900Y839800D01*
G02X272400Y842200I44578J7616D01*
G03X289700Y833800I10128J-1156D01*
G01X356100Y900200D01*
X1040600D01*
X1216200Y1075800D01*
X1215700Y1078500D01*
G02X1251000Y1043200I44300J9000D01*
G01X1248300Y1043700D01*
X1059400Y854800D01*
X374900D01*
X302800Y782700D01*
X303300Y780000D01*
G02X304100Y768500I-44314J-8861D01*
G03X314400Y757700I10189J-595D01*
G02X269900Y715000I623J-45187D01*
G03X259600Y725800I-10189J595D01*
G02X221100Y795500I-559J45174D01*
G03X218100Y803200I-4289J2763D01*
G02X217500Y803400I13965J42895D01*
G01X214600Y804300D01*
X202700Y792400D01*
Y790600D01*
X165200Y753100D01*
Y699400D01*
X256900Y607700D01*
X388800D01*
X449800Y668700D01*
Y679000D01*
X422400Y706400D01*
Y768800D01*
X466400Y812800D01*
X528800D01*
X572800Y768800D01*
Y725100D01*
X577700Y720200D01*
X615700D01*
G03X625200Y734000I-27J10189D01*
G02X712400Y754800I42260J16016D01*
G01X712900Y750200D01*
X1033100D01*
X1190600Y907700D01*
X1295300D01*
X1296300Y911500D01*
G02X1380800Y919500I43717J-11494D01*
G03X1399200I9200J4350D01*
G02X1417300Y939100I40786J-19507D01*
G01Y1018800D01*
X1379800Y1056300D01*
Y1130700D01*
X1273200Y1237300D01*
X1133100D01*
X998100Y1372300D01*
X913100D01*
X859200Y1426200D01*
X856500Y1425700D01*
G02X886000Y1493700I-8995J44301D01*
G03X903400I8700J5300D01*
G02X981000Y1492700I38501J-23693D01*
G01X1001500D01*
X1181500Y1312700D01*
X1304500D01*
X1319500Y1297700D01*
X1417900D01*
X1432900Y1312700D01*
X1453400D01*
G02X1459100Y1259600I39101J-22659D01*
G03X1444300Y1259900I-7543J-6881D01*
G01X1436700Y1252300D01*
X1347000D01*
G03X1339800Y1234900I19J-10197D01*
G01X1425200Y1149500D01*
Y1139300D01*
G03X1439000Y1129800I10189J27D01*
G02X1466500Y1043800I15955J-42295D01*
G01X1462700Y1042800D01*
Y939100D01*
G02X1483700Y911500I-22719J-39075D01*
G01X1484700Y907700D01*
X1520600D01*
X1522300Y909400D01*
Y1044400D01*
X1568700Y1090800D01*
X1568200Y1093500D01*
G02X1603500Y1058200I44300J9000D01*
G01X1600800Y1058700D01*
X1567700Y1025600D01*
Y890600D01*
X1539400Y862300D01*
X1508700D01*
X1471200Y824800D01*
X1308800D01*
X1271300Y862300D01*
X1209400D01*
X1051900Y704800D01*
X728700D01*
X698700Y674800D01*
X695700D01*
G03X687800Y658200I49J-10203D01*
G02X675200Y590900I-35306J-28220D01*
G01Y570400D01*
X662700Y557900D01*
G37*
G36*
G01X1578200Y570700D02*
G02X1503800Y521500I-33166J-30700D01*
G03X1488600Y525600I-9293J-4228D01*
G02X1503700Y581000I-26115J36876D01*
G03X1518900Y576900I9293J4228D01*
G02X1530200Y582700I26084J-36910D01*
G03X1534300Y599300I-3339J9631D01*
G02X1582300Y587300I33176J30704D01*
G03X1578200Y570700I3339J-9631D01*
G37*
G36*
G01X1428700Y1528800D02*
G02X1396200Y1496300I11300J-43800D01*
G03X1383800Y1508700I-9833J2567D01*
G02X1349800Y1591600I-11348J43768D01*
G01Y2007300D01*
G03X1338800Y2017500I-10210J20D01*
G02X1379300Y2053500I-3777J45030D01*
G01X1378800Y2050800D01*
X1395200Y2034400D01*
Y1591600D01*
G02X1416300Y1541200I-22684J-39113D01*
G03X1428700Y1528800I9833J-2567D01*
G37*
G54D15*
X353000Y1873500D03*
X861000Y1771900D03*
Y1975100D03*
G54D16*
X200000Y2200000D03*
X400000D03*
X600000D03*
X800000D03*
X1000000D03*
X1200000D03*
X1400000D03*
X1600000D03*
X1800000D03*
G54D14*
X1680000Y555000D03*
X175000Y230000D03*
X502500Y352500D03*
X30000Y742500D03*
X127500Y1320000D03*
X52500Y1477500D03*
X192500Y1790000D03*
X457500Y1650000D03*
X506200Y2036200D03*
X982500Y502500D03*
X885000Y1110000D03*
X1035000D03*
X667500Y1462500D03*
X1072500Y1695000D03*
X667500Y2025000D03*
X1395000Y712500D03*
X1365000Y300000D03*
X1380000Y450000D03*
X1640000Y900000D03*
X1605000Y1560000D03*
X2205000Y1657500D03*
X2197500Y1830000D03*
%LPD*%
G75*
G54D10*
X0Y0D03*
Y2200000D03*
X200000Y0D03*
X400000D03*
X600000D03*
X200000Y2200000D03*
X400000D03*
X600000D03*
X800000Y0D03*
X1000000D03*
X800000Y2200000D03*
X1000000D03*
X1200000Y0D03*
X1400000D03*
X1600000D03*
X1200000Y2200000D03*
X1400000D03*
X1600000D03*
X1800000Y0D03*
Y2200000D03*
G54D11*
X-7500Y457500D03*
X-22500Y847500D03*
X-45000Y1305000D03*
X175000Y230000D03*
X525000Y240000D03*
X315000Y232500D03*
X502500Y352500D03*
X330000Y405000D03*
X30000Y742500D03*
X525000Y645000D03*
X497600Y737600D03*
X315000Y712500D03*
X259000Y771000D03*
X352500Y975000D03*
X487500Y1140000D03*
X300000Y1155000D03*
X127500Y1320000D03*
X227500Y847500D03*
X52500Y1477500D03*
X192500Y1790000D03*
X457500Y1650000D03*
X375000Y1642500D03*
X27500Y1790000D03*
X180000Y1642500D03*
X52500Y1650000D03*
X506200Y2036200D03*
X165000Y1980000D03*
X930000Y232500D03*
X652500Y630000D03*
X640000Y245000D03*
X982500Y502500D03*
X945000Y667500D03*
X735000Y517500D03*
Y255000D03*
X667500Y750000D03*
X645000Y1125000D03*
X885000Y1110000D03*
X1035000D03*
X941900Y1470000D03*
X847500D03*
X667500Y1462500D03*
X1072500Y1695000D03*
Y1507500D03*
X1050000Y1942500D03*
X975000Y2055000D03*
X667500Y2025000D03*
X1252500Y750000D03*
X1485000Y307500D03*
X1245000Y300000D03*
X1395000Y712500D03*
X1462500Y562500D03*
X1252500Y570000D03*
X1545000Y540000D03*
X1680000Y555000D03*
X1365000Y300000D03*
X1380000Y450000D03*
X1245000Y667500D03*
X1567500Y630000D03*
X1155000Y1087500D03*
X1492500Y1290000D03*
X1440000Y900000D03*
X1690000Y1291200D03*
X1455000Y1087500D03*
X1640000Y900000D03*
X1612500Y1102500D03*
X1260000Y1087500D03*
X1340000Y900000D03*
X1567500Y1702500D03*
X1320000Y1470000D03*
X1605000Y1560000D03*
X1567500Y1447500D03*
X1440000Y1485000D03*
X1372500Y1552500D03*
X1237500Y1470000D03*
X1672500Y1980000D03*
X1335000Y2062500D03*
X1252500Y1987500D03*
X2062500Y157500D03*
X1725000Y217500D03*
X2002500Y607500D03*
X2172500Y1275000D03*
X2180000Y1132500D03*
X2105000Y1207500D03*
X2017500Y1312500D03*
X1880000Y1162500D03*
X2045000Y1065000D03*
X1880000D03*
X1972500Y817500D03*
X2062500Y840000D03*
X2205000Y1657500D03*
X2197500Y1830000D03*
X2112500Y1552500D03*
X1985000D03*
X2060000Y1365000D03*
X1875000D03*
X2107500Y2085000D03*
X2482500Y150000D03*
X2407500Y750000D03*
X2587500Y427500D03*
X2565000Y712500D03*
X2272500Y840000D03*
Y960000D03*
X2490000Y1830000D03*
X2752500Y1612500D03*
X2482500Y1605000D03*
X2302500Y1552500D03*
X2270000Y1447500D03*
X2752500Y2115000D03*
X3007500Y112500D03*
X3307500Y562500D03*
X3067500D03*
X3195000Y712500D03*
X2812500Y457500D03*
X2955000Y712500D03*
X2940000Y1290000D03*
Y1117500D03*
X3322500Y1327500D03*
Y802500D03*
Y982500D03*
Y1155000D03*
X3225000Y1612500D03*
X2865000Y1732500D03*
X3030000Y1612500D03*
X3240000Y2092500D03*
G54D12*
X353000Y1873500D03*
X861000Y1771900D03*
Y1975100D03*
G54D13*
G01X1690000Y1291200D02*
X1633800D01*
X1537500Y1387500D01*
X1212500D01*
X1125000Y1475000D01*
Y1529300D01*
X1086800Y1567500D01*
X270000D01*
X97500Y1395000D01*
X45000D01*
X-45000Y1305000D01*
G01X1612500Y1102500D02*
X1545000Y1035000D01*
Y900000D01*
X1530000Y885000D01*
X1499300D01*
X1461800Y847500D01*
X1318200D01*
X1280700Y885000D01*
X1200000D01*
X1042500Y727500D01*
X719300D01*
X689300Y697500D01*
X568300D01*
X550100Y715700D01*
Y759400D01*
X519400Y790100D01*
X475800D01*
X445100Y759400D01*
Y715800D01*
X475800Y685100D01*
Y670100D01*
X472500Y666800D01*
Y659300D01*
X398200Y585000D01*
X247500D01*
X142500Y690000D01*
Y762500D01*
X180000Y800000D01*
Y801800D01*
X210700Y832500D01*
X212500D01*
X227500Y847500D01*
G01X259000Y771000D02*
X365500Y877500D01*
X1050000D01*
X1260000Y1087500D01*
G01X640000Y245000D02*
Y567300D01*
X652500Y579800D01*
Y630000D01*
G01X1440000Y900000D02*
Y1028200D01*
X1402500Y1065700D01*
Y1140100D01*
X1282600Y1260000D01*
X1142500D01*
X1007500Y1395000D01*
X922500D01*
X847500Y1470000D01*
G01X1492500Y1290000D02*
X1442300D01*
X1427300Y1275000D01*
X1310100D01*
X1295100Y1290000D01*
X1172100D01*
X992100Y1470000D01*
X941900D01*
G01X1335000Y2062500D02*
X1372500Y2025000D01*
Y1552500D01*
G01X1237500Y1470000D02*
Y1520200D01*
X1252500Y1535200D01*
Y1987500D01*
M02*
