G04 ================== begin FILE IDENTIFICATION RECORD ==================*
G04 Layout Name:  MODULE_RADIO_868M.brd*
G04 Film Name:    VCC*
G04 File Format:  Gerber RS274X*
G04 File Origin:  Cadence Allegro 16.6-2015-S058*
G04 Origin Date:  Fri Apr 07 17:16:19 2017*
G04 *
G04 Layer:  ETCH/VCC*
G04 Layer:  PIN/VCC*
G04 Layer:  VIA CLASS/VCC*
G04 *
G04 Offset:    (0.000 0.000)*
G04 Mirror:    No*
G04 Mode:      Positive*
G04 Rotation:  0*
G04 FullContactRelief:  No*
G04 UndefLineWidth:     0.100*
G04 ================== end FILE IDENTIFICATION RECORD ====================*
%FSLAX25Y25*MOMM*%
%IR0*IPPOS*OFA0.00000B0.00000*MIA0B0*SFA1.00000B1.00000*%
%ADD10C,1.575*%
%ADD11C,.6*%
%ADD12C,.8*%
%ADD13C,.15*%
%ADD15C,1.41*%
%ADD17C,1.834*%
%ADD16C,1.88*%
%ADD14C,.904*%
G75*
%LPD*%
G75*
G36*
G01X-89900Y1261800D02*
G02X-73300Y1269800I10208J40D01*
G03Y1340200I28300J35200D01*
G02X-89900Y1348200I-6392J7960D01*
G01Y2132900D01*
G02X-71900Y2139500I10208J6D01*
G03Y2260500I71900J60500D01*
G02X-89900Y2267100I-7792J6594D01*
G01Y2309900D01*
X3367500D01*
Y1567500D01*
X3268100D01*
G02X3260200Y1584100I16J10187D01*
G03X3189800I-35200J28400D01*
G02X3181900Y1567500I-7916J-6413D01*
G01X3073100D01*
G02X3065200Y1584100I16J10187D01*
G03X2994800I-35200J28400D01*
G02X2986900Y1567500I-7916J-6413D01*
G01X2795600D01*
G02X2787700Y1584100I16J10187D01*
G03X2717300I-35200J28400D01*
G02X2709400Y1567500I-7916J-6413D01*
G01X2530700D01*
G02X2521800Y1582700I-7J10202D01*
G03X2443200I-39300J22300D01*
G02X2434300Y1567500I-8893J-4998D01*
G01X2345300D01*
X2343900Y1570600D01*
G03X2280000Y1513300I-41412J-18098D01*
G01Y1502900D01*
G02X2269800Y1492700I-10197J-3D01*
G03Y1402300I200J-45200D01*
G02X2280000Y1392100I3J-10197D01*
G01Y1015300D01*
G02X2270300Y1005100I-10212J-1D01*
G03Y914900I2200J-45100D01*
G02X2280000Y904700I-512J-10199D01*
G01Y895300D01*
G02X2270300Y885100I-10212J-1D01*
G03Y794900I2200J-45100D01*
G02X2280000Y784700I-512J-10199D01*
G01Y705000D01*
X2405300D01*
G03X2409700I2200J45000D01*
G01X2520200D01*
X2521200Y701200D01*
G03X2608800I43800J11300D01*
G01X2609800Y705000D01*
X2910200D01*
X2911200Y701200D01*
G03X2998800I43800J11300D01*
G01X2999800Y705000D01*
X3150200D01*
X3151200Y701200D01*
G03X3238800I43800J11300D01*
G01X3239800Y705000D01*
X3367500D01*
Y-99900D01*
X1853000D01*
G02X1847800Y-80900I-13J10208D01*
G03X1752200I-47800J80900D01*
G02X1747000Y-99900I-5187J-8792D01*
G01X1653000D01*
G02X1647800Y-80900I-13J10208D01*
G03X1552200I-47800J80900D01*
G02X1547000Y-99900I-5187J-8792D01*
G01X1453000D01*
G02X1447800Y-80900I-13J10208D01*
G03X1352200I-47800J80900D01*
G02X1347000Y-99900I-5187J-8792D01*
G01X1253000D01*
G02X1247800Y-80900I-13J10208D01*
G03X1152200I-47800J80900D01*
G02X1147000Y-99900I-5187J-8792D01*
G01X1053000D01*
G02X1047800Y-80900I-13J10208D01*
G03X952200I-47800J80900D01*
G02X947000Y-99900I-5187J-8792D01*
G01X853000D01*
G02X847800Y-80900I-13J10208D01*
G03X752200I-47800J80900D01*
G02X747000Y-99900I-5187J-8792D01*
G01X653000D01*
G02X647800Y-80900I-13J10208D01*
G03X552200I-47800J80900D01*
G02X547000Y-99900I-5187J-8792D01*
G01X453000D01*
G02X447800Y-80900I-13J10208D01*
G03X352200I-47800J80900D01*
G02X347000Y-99900I-5187J-8792D01*
G01X253000D01*
G02X247800Y-80900I-13J10208D01*
G03X152200I-47800J80900D01*
G02X147000Y-99900I-5187J-8792D01*
G01X53000D01*
G02X47800Y-80900I-13J10208D01*
G03X-71900Y60500I-47750J80943D01*
G02X-89900Y67100I-7792J6594D01*
G01Y1261800D01*
G37*
%LPC*%
G75*
G36*
G01X2066900Y1320300D02*
G03X2062600Y1315000I792J-5037D01*
G02X2010600Y1357200I-45132J-2475D01*
G03X2014900Y1362500I-792J5037D01*
G02X2066900Y1320300I45132J2475D01*
G37*
G36*
G01X218300Y790800D02*
G03X212600Y804800I-9150J4435D01*
G02X268200Y827700I14932J42693D01*
G03X273900Y813700I9150J-4435D01*
G02X304100Y768500I-14927J-42662D01*
G03X314400Y757700I10189J-595D01*
G02X269900Y715000I623J-45187D01*
G03X259600Y725800I-10189J595D01*
G02X218300Y790800I-635J45217D01*
G37*
G36*
G01X1901500Y1104800D02*
G02X1858500I-21500J-39800D01*
G03Y1122700I-4811J8950D01*
G02X1901500I21500J39800D01*
G03Y1104800I4811J-8950D01*
G37*
G36*
G01X2148800Y1218800D02*
G02X2116300Y1251300I-43800J-11300D01*
G03X2128700Y1263700I2567J9833D01*
G02X2161200Y1231200I43800J11300D01*
G03X2148800Y1218800I-2567J-9833D01*
G37*
G36*
G01X886000Y1446300D02*
G02Y1493700I-38500J23700D01*
G03X903400I8700J5300D01*
G02Y1446300I38500J-23700D01*
G03X886000I-8700J-5300D01*
G37*
G36*
G01X1271200Y1439800D02*
G02Y1500200I-33700J30200D01*
G03X1286300I7550J6776D01*
G02X1323500Y1515100I33677J-30192D01*
G03X1333200Y1530300I818J10173D01*
G02X1416300Y1541200I39350J22220D01*
G03X1428700Y1528800I9833J-2567D01*
G02X1396200Y1496300I11300J-43800D01*
G03X1383800Y1508700I-9833J2567D01*
G02X1369000Y1507400I-11303J43788D01*
G03X1359300Y1492200I-818J-10173D01*
G02X1286300Y1439800I-39357J-22220D01*
G03X1271200I-7550J-6776D01*
G37*
G36*
G01X1005000Y2088800D02*
G02X958100Y2096900I-29988J-33807D01*
G03X958700Y2115500I-3842J9434D01*
G02X1010600Y2106600I41205J84507D01*
G03X1005000Y2088800I1130J-10136D01*
G37*
G36*
G01X630200Y1378100D02*
X612200Y1360100D01*
G03X619400Y1342700I7219J-7203D01*
G01X1006200D01*
X1228700Y1120200D01*
G02X1244000Y1045200I31267J-32682D01*
G03X1230200Y1035700I-3611J-9527D01*
G01Y967600D01*
X1282300Y915500D01*
G03X1298800Y918600I7181J7238D01*
G02X1380800Y919500I41209J-18590D01*
G03X1399200I9200J4350D01*
G02X1477500Y874700I40742J-19618D01*
G01X1475200Y871200D01*
X1702700Y643700D01*
Y594100D01*
G02X1695600Y512600I-22702J-39082D01*
G01X1692300Y511400D01*
Y502700D01*
X1710600D01*
X1949800Y741900D01*
Y778400D01*
G02X2003200Y850700I22739J39075D01*
G03X2019800Y854800I6969J7439D01*
G02X2080700Y798600I42708J-14817D01*
G01X2077700Y797300D01*
Y763100D01*
X1546900Y232300D01*
X1400600D01*
X1376700Y256200D01*
X1374000Y255700D01*
G02X1409300Y291000I-9000J44300D01*
G01X1408800Y288300D01*
X1419400Y277700D01*
X1433200D01*
G03X1442700Y291500I-27J10189D01*
G02X1530100Y304900I42275J15996D01*
G03X1547500Y297100I10190J-577D01*
G01X1690300Y439900D01*
G03X1683100Y457300I-7219J7203D01*
G01X1663100D01*
X1604800Y515600D01*
Y581700D01*
G03X1589600Y590600I-10205J1D01*
G02X1582300Y587300I-22191J39365D01*
G03X1578200Y570700I3339J-9631D01*
G02X1567700Y500900I-33191J-30697D01*
G01Y480400D01*
X1484600Y397300D01*
X1433700D01*
X1411200Y374800D01*
X1348800D01*
X1326300Y397300D01*
X1318800D01*
X1100600Y615500D01*
X999400D01*
X976200Y592300D01*
X883800D01*
X838800Y637300D01*
X766200D01*
X683700Y554800D01*
X621300D01*
X577300Y598800D01*
Y610800D01*
X573200Y614900D01*
G03X558400Y614600I-7257J-7181D01*
G02X492600Y676500I-33409J30409D01*
G03X487500Y693500I-7341J7063D01*
G02X542800Y737800I10086J44075D01*
G03X553000Y727700I10196J97D01*
G01X613500D01*
G03X623400Y740100I-57J10198D01*
G02X674400Y794700I44107J9920D01*
G01X674800Y794600D01*
X679900D01*
X680300Y795000D01*
Y802400D01*
X733100Y855200D01*
X1253800D01*
G03X1261000Y872600I-19J10197D01*
G01X1184800Y948800D01*
Y1035700D01*
G03X1171000Y1045200I-10189J-27D01*
G02X1136400Y1128700I-15996J42290D01*
G03X1139500Y1145200I-4138J9319D01*
G01X987400Y1297300D01*
X754400D01*
G03X747200Y1279900I19J-10197D01*
G01X873300Y1153800D01*
X876000Y1154300D01*
G02X840700Y1119000I9000J-44300D01*
G01X841200Y1121700D01*
X695600Y1267300D01*
X181200D01*
X158700Y1244800D01*
X96300D01*
X52300Y1288800D01*
Y1351200D01*
X96300Y1395200D01*
X583100D01*
X584800Y1396900D01*
Y1875900D01*
X680300Y1971400D01*
Y1980000D01*
X679900Y1980400D01*
X674800D01*
X674400Y1980300D01*
G02X711800Y2016000I-6911J44680D01*
G01X711300Y2013400D01*
X719100Y2005600D01*
G02X720500Y2004100I-15935J-16276D01*
G01X725700Y1998900D01*
Y1991500D01*
G02Y1987500I-22700J-2000D01*
G01Y1952600D01*
X630200Y1857100D01*
Y1510800D01*
G03X645400Y1501900I10205J-1D01*
G02Y1423100I22100J-39400D01*
G03X630200Y1414200I-4995J-8899D01*
G01Y1378100D01*
G37*
G54D15*
X353000Y1873500D03*
X861000Y1771900D03*
Y1975100D03*
G54D17*
X1800000Y2200000D03*
G54D16*
X200000D03*
X400000D03*
X600000D03*
X800000D03*
X1200000D03*
X1400000D03*
X1600000D03*
G54D14*
X-7500Y457500D03*
X-22500Y847500D03*
X525000Y240000D03*
X315000Y232500D03*
X330000Y405000D03*
X30000Y742500D03*
X352500Y975000D03*
X487500Y1140000D03*
X300000Y1155000D03*
X375000Y1642500D03*
X27500Y1790000D03*
X180000Y1642500D03*
X52500Y1650000D03*
X165000Y1980000D03*
X930000Y232500D03*
X735000Y517500D03*
Y255000D03*
X645000Y1125000D03*
X1035000Y1110000D03*
X1072500Y1695000D03*
Y1507500D03*
X1050000Y1942500D03*
X1245000Y300000D03*
X1492500Y1290000D03*
X1690000Y1291200D03*
X1455000Y1087500D03*
X1640000Y900000D03*
X1612500Y1102500D03*
X1567500Y1702500D03*
X1605000Y1560000D03*
X1567500Y1447500D03*
X1672500Y1980000D03*
X1335000Y2062500D03*
X1252500Y1987500D03*
X2062500Y157500D03*
X1725000Y217500D03*
X2002500Y607500D03*
X2180000Y1132500D03*
X2045000Y1065000D03*
X2112500Y1552500D03*
X1985000D03*
X1875000Y1365000D03*
X2107500Y2085000D03*
X2482500Y150000D03*
X2587500Y427500D03*
X2490000Y1830000D03*
X2752500Y2115000D03*
X3007500Y112500D03*
X3307500Y562500D03*
X3067500D03*
X2812500Y457500D03*
X2865000Y1732500D03*
X3240000Y2092500D03*
%LPD*%
G75*
G36*
G01X640100Y600200D02*
X622700Y617600D01*
Y629600D01*
X584600Y667700D01*
X564100D01*
G03X560900Y672500I-39141J-22628D01*
G01X558200Y676000D01*
X564500Y682300D01*
X628800D01*
X643800Y667300D01*
X707400D01*
G02X714600Y649900I-19J-10197D01*
G01X664900Y600200D01*
X640100D01*
G37*
G36*
G01X1211300Y588600D02*
G02X1194800Y585500I-9319J4138D01*
G01X1119400Y660900D01*
X1000300D01*
G02X990100Y670400I-25J10199D01*
G03X899800Y665500I-45126J-2901D01*
G02X882400Y657900I-10174J-425D01*
G01X857600Y682700D01*
X851900D01*
G02X844700Y700100I19J10197D01*
G01X924400Y779800D01*
X1200700D01*
G02X1210200Y766000I-27J-10189D01*
G03X1219500Y719100I42291J-15986D01*
G02X1218200Y703900I-7388J-7024D01*
G03X1226900Y626100I26804J-36389D01*
G02X1228300Y608100I-4085J-9372D01*
G03X1211300Y588600I24130J-38197D01*
G37*
G36*
G01X751900Y809800D02*
X865600D01*
G02X872800Y792400I-19J-10197D01*
G01X793100Y712700D01*
X715800D01*
G02X706900Y727900I-1J10205D01*
G03X711800Y759000I-39397J22143D01*
G01X711300Y761700D01*
X725700Y776100D01*
Y783600D01*
X751900Y809800D01*
G37*
G36*
G01X1518900Y576900D02*
G02X1503700Y581000I-5907J8328D01*
G03X1459900Y607600I-41216J-18505D01*
G02X1452100Y625000I-577J10190D01*
G01X1519600Y692500D01*
Y695500D01*
G02X1537000Y702700I10197J-19D01*
G01X1552000Y687700D01*
G02X1548900Y671200I-7238J-7181D01*
G03X1534300Y599300I18592J-41208D01*
G02X1530200Y582700I-7439J-6969D01*
G03X1518900Y576900I14784J-42710D01*
G37*
G36*
G01X1337100Y464100D02*
G02X1320200Y460100I-9688J3229D01*
G01X1268000Y512300D01*
G02X1271100Y528800I7238J7181D01*
G03X1270600Y611400I-18605J41189D01*
G02X1269200Y629400I4085J9372D01*
G03X1278000Y698400I-24208J38149D01*
G02X1279300Y713600I7388J7024D01*
G03X1296200Y738500I-26813J36384D01*
G01X1297200Y742300D01*
X1343200D01*
G02X1352700Y728500I-27J-10189D01*
G03X1427800Y743600I42284J-15995D01*
G01X1424300Y747200D01*
X1431300Y754200D01*
X1433700D01*
X1474200Y713700D01*
Y711300D01*
X1357300Y594400D01*
Y489100D01*
G03X1337100Y464100I22752J-39044D01*
G37*
G36*
G01X1435300Y442700D02*
G02X1425100Y452400I-4J10209D01*
G03X1402700Y489100I-45130J-2359D01*
G01Y575600D01*
X1416000Y588900D01*
X1422000Y582900D01*
X1420700Y579700D01*
G03X1488600Y525600I41800J-17198D01*
G02X1503800Y521500I5907J-8328D01*
G03X1514600Y506600I41211J18507D01*
G02X1514900Y491800I-6881J-7543D01*
G01X1465800Y442700D01*
X1435300D01*
G37*
G54D10*
X0Y0D03*
Y2200000D03*
X200000Y0D03*
X400000D03*
X600000D03*
X200000Y2200000D03*
X400000D03*
X600000D03*
X800000Y0D03*
X1000000D03*
X800000Y2200000D03*
X1000000D03*
X1200000Y0D03*
X1400000D03*
X1600000D03*
X1200000Y2200000D03*
X1400000D03*
X1600000D03*
X1800000Y0D03*
Y2200000D03*
G54D11*
X-7500Y457500D03*
X-22500Y847500D03*
X-45000Y1305000D03*
X175000Y230000D03*
X525000Y240000D03*
X315000Y232500D03*
X502500Y352500D03*
X330000Y405000D03*
X30000Y742500D03*
X525000Y645000D03*
X497600Y737600D03*
X315000Y712500D03*
X259000Y771000D03*
X352500Y975000D03*
X487500Y1140000D03*
X300000Y1155000D03*
X127500Y1320000D03*
X227500Y847500D03*
X52500Y1477500D03*
X192500Y1790000D03*
X457500Y1650000D03*
X375000Y1642500D03*
X27500Y1790000D03*
X180000Y1642500D03*
X52500Y1650000D03*
X506200Y2036200D03*
X165000Y1980000D03*
X930000Y232500D03*
X652500Y630000D03*
X640000Y245000D03*
X982500Y502500D03*
X945000Y667500D03*
X735000Y517500D03*
Y255000D03*
X667500Y750000D03*
X645000Y1125000D03*
X885000Y1110000D03*
X1035000D03*
X941900Y1470000D03*
X847500D03*
X667500Y1462500D03*
X1072500Y1695000D03*
Y1507500D03*
X1050000Y1942500D03*
X975000Y2055000D03*
X667500Y2025000D03*
X1252500Y750000D03*
X1485000Y307500D03*
X1245000Y300000D03*
X1395000Y712500D03*
X1462500Y562500D03*
X1252500Y570000D03*
X1545000Y540000D03*
X1680000Y555000D03*
X1365000Y300000D03*
X1380000Y450000D03*
X1245000Y667500D03*
X1567500Y630000D03*
X1155000Y1087500D03*
X1492500Y1290000D03*
X1440000Y900000D03*
X1690000Y1291200D03*
X1455000Y1087500D03*
X1640000Y900000D03*
X1612500Y1102500D03*
X1260000Y1087500D03*
X1340000Y900000D03*
X1567500Y1702500D03*
X1320000Y1470000D03*
X1605000Y1560000D03*
X1567500Y1447500D03*
X1440000Y1485000D03*
X1372500Y1552500D03*
X1237500Y1470000D03*
X1672500Y1980000D03*
X1335000Y2062500D03*
X1252500Y1987500D03*
X2062500Y157500D03*
X1725000Y217500D03*
X2002500Y607500D03*
X2172500Y1275000D03*
X2180000Y1132500D03*
X2105000Y1207500D03*
X2017500Y1312500D03*
X1880000Y1162500D03*
X2045000Y1065000D03*
X1880000D03*
X1972500Y817500D03*
X2062500Y840000D03*
X2205000Y1657500D03*
X2197500Y1830000D03*
X2112500Y1552500D03*
X1985000D03*
X2060000Y1365000D03*
X1875000D03*
X2107500Y2085000D03*
X2482500Y150000D03*
X2407500Y750000D03*
X2587500Y427500D03*
X2565000Y712500D03*
X2272500Y840000D03*
Y960000D03*
X2490000Y1830000D03*
X2752500Y1612500D03*
X2482500Y1605000D03*
X2302500Y1552500D03*
X2270000Y1447500D03*
X2752500Y2115000D03*
X3007500Y112500D03*
X3307500Y562500D03*
X3067500D03*
X3195000Y712500D03*
X2812500Y457500D03*
X2955000Y712500D03*
X2940000Y1290000D03*
Y1117500D03*
X3322500Y1327500D03*
Y802500D03*
Y982500D03*
Y1155000D03*
X3225000Y1612500D03*
X2865000Y1732500D03*
X3030000Y1612500D03*
X3240000Y2092500D03*
G54D12*
X353000Y1873500D03*
X861000Y1771900D03*
Y1975100D03*
G54D13*
G01X1545000Y540000D02*
Y489800D01*
X1475200Y420000D01*
X1424300D01*
X1401800Y397500D01*
X1358200D01*
X1335700Y420000D01*
X1328200D01*
X1110000Y638200D01*
X990000D01*
X966800Y615000D01*
X893200D01*
X848200Y660000D01*
X756800D01*
X674300Y577500D01*
X630700D01*
X600000Y608200D01*
Y620200D01*
X575200Y645000D01*
X525000D01*
G01X1380000Y450000D02*
Y585000D01*
X1496900Y701900D01*
Y723100D01*
X1443100Y776900D01*
X1421900D01*
X1410000Y765000D01*
X1311800D01*
X1274300Y802500D01*
X915000D01*
X802500Y690000D01*
X653200D01*
X638200Y705000D01*
X555100D01*
X552200Y702100D01*
X533100D01*
X497600Y737600D01*
G01X885000Y1110000D02*
X705000Y1290000D01*
X171800D01*
X149300Y1267500D01*
X105700D01*
X75000Y1298200D01*
Y1341800D01*
X105700Y1372500D01*
X592500D01*
X607500Y1387500D01*
Y1866500D01*
X703000Y1962000D01*
Y1989500D01*
X667500Y2025000D01*
G01X1680000Y555000D02*
Y634300D01*
X1466800Y847500D01*
X1318200D01*
X1207500Y958200D01*
Y1109300D01*
X996800Y1320000D01*
X127500D01*
G01X1972500Y817500D02*
Y732500D01*
X1720000Y480000D01*
X1672500D01*
X1627500Y525000D01*
Y644300D01*
X1454300Y817500D01*
X1301800D01*
X1286800Y832500D01*
X742500D01*
X703000Y793000D01*
Y785500D01*
X667500Y750000D01*
G01X2062500Y840000D02*
X2055000Y832500D01*
Y772500D01*
X1537500Y255000D01*
X1410000D01*
X1365000Y300000D01*
G01X1800000Y2103200D02*
Y2200000D01*
G01D02*
Y2296800D01*
G01X1703200Y2200000D02*
X1800000D01*
G01D02*
X1896800D01*
M02*
