M48
;Layer_Color=9474304
;FILE_FORMAT=4:4
METRIC,LZ
;TYPE=PLATED
T1F00S00C0.2000
T3F00S00C0.7112
T4F00S00C0.8000
T6F00S00C1.0000
T7F00S00C1.1000
T8F00S00C1.2000
;TYPE=NON_PLATED
T9F00S00C0.8000
T10F00S00C3.7000
%
T01
X0039228Y000309
X0041728Y000809
X0046728
X0044228Y001309
X0039228
X0041728Y001809
X0046164Y002051
X0046728Y002809
X0041728
X003067Y0027114
X00294Y0028765
X0029228Y003309
X0024066Y0030289
X0024744Y00256425
X0024701Y0024828
X0024744Y00234425
X0025844
X0026944
Y00245425
X0026098Y0024574
X0025844Y0025844
X0027114Y002559
X0021653Y0026479
Y0027368
X0011728Y002809
X0006728
X0004228Y003309
X0014228
Y002309
X0011728Y001809
X0006728
X0004228Y001309
X0009228
X0006728Y000809
X0011728
X0009228Y000309
X0019228
X0024228
X0029228
X0034228
X0031728Y000809
X0026728
X0021728
X0019228Y001309
X0024228
X0029228
X0034228
X0016728Y001809
X0011728Y003809
X0006728
X0004228Y004309
X0009228
X0014228
X0019228
X0021728Y003809
X0026728
X0031728
X0034228Y004309
X0039228
X0044228
X0041728Y003809
X0046728
T03
X0045021Y0010223
X0043243Y0020129
X0030543Y0020256
X0025209Y0018097
X0022034Y0018605
X0019748Y0022923
X0019621Y003575
X0036385Y0035115
X0033083Y0031178
X0036639Y0042989
T04
X0014Y0003844
Y0005844
Y0007844
Y0009844
Y0011844
Y0013844
Y0015844
Y0017844
Y0019844
Y0021844
X0036
Y0019844
Y0017844
Y0015844
Y0013844
Y0011844
Y0009844
Y0007844
Y0005844
Y0003844
T06
X00395Y003373
Y003627
X00245
Y003373
X00095
Y003627
X003161Y0047
X003389
X0044308Y0039638
X0047307Y0039687
T07
X0008191Y0018351
Y0020891
Y0023431
Y0025971
Y0028511
T08
X001875Y00096
Y00146
X003125
Y00096
T09
X00225Y0044759
X00275
T10
X0046038Y0004
X0004
Y0046038
X0046038
M30
