%TF.GenerationSoftware,Altium Limited,Altium Designer,21.6.1 (37)*%
G04 Layer_Color=255*
%FSLAX43Y43*%
%MOMM*%
%TF.SameCoordinates,4DA2BED1-4599-47CA-9C3E-D857DBAA41EB*%
%TF.FilePolarity,Positive*%
%TF.FileFunction,Pads,Top*%
%TF.Part,Single*%
G01*
G75*
%TA.AperFunction,SMDPad,CuDef*%
%ADD10R,1.700X1.680*%
%ADD11O,0.550X1.600*%
%ADD12O,1.600X0.550*%
%ADD13R,1.400X1.200*%
%ADD14R,1.500X0.800*%
%ADD15R,1.400X1.800*%
%ADD16R,0.900X0.800*%
%ADD17R,0.850X1.300*%
%ADD18R,1.300X0.850*%
%ADD19R,1.450X1.200*%
%ADD20R,1.300X1.550*%
%ADD21R,0.450X1.300*%
G04:AMPARAMS|DCode=22|XSize=1.4mm|YSize=1mm|CornerRadius=0.2mm|HoleSize=0mm|Usage=FLASHONLY|Rotation=90.000|XOffset=0mm|YOffset=0mm|HoleType=Round|Shape=RoundedRectangle|*
%AMROUNDEDRECTD22*
21,1,1.400,0.600,0,0,90.0*
21,1,1.000,1.000,0,0,90.0*
1,1,0.400,0.300,0.500*
1,1,0.400,0.300,-0.500*
1,1,0.400,-0.300,-0.500*
1,1,0.400,-0.300,0.500*
%
%ADD22ROUNDEDRECTD22*%
%ADD23R,2.000X5.500*%
%ADD24R,1.900X1.400*%
G04:AMPARAMS|DCode=25|XSize=1.4mm|YSize=1mm|CornerRadius=0.2mm|HoleSize=0mm|Usage=FLASHONLY|Rotation=0.000|XOffset=0mm|YOffset=0mm|HoleType=Round|Shape=RoundedRectangle|*
%AMROUNDEDRECTD25*
21,1,1.400,0.600,0,0,0.0*
21,1,1.000,1.000,0,0,0.0*
1,1,0.400,0.500,-0.300*
1,1,0.400,-0.500,-0.300*
1,1,0.400,-0.500,0.300*
1,1,0.400,0.500,0.300*
%
%ADD25ROUNDEDRECTD25*%
%ADD26O,1.400X0.450*%
%ADD27R,3.100X3.100*%
%ADD28O,2.000X0.450*%
%ADD29R,1.200X1.400*%
%TA.AperFunction,ComponentPad*%
%ADD33C,2.100*%
%ADD34C,1.500*%
%ADD35C,1.200*%
%ADD36C,1.600*%
%ADD37C,1.800*%
%ADD38C,1.400*%
%ADD39R,1.500X1.500*%
%ADD40O,1.450X2.000*%
%ADD41O,1.150X1.800*%
%ADD42C,0.800*%
%ADD43R,1.250X1.250*%
%ADD44C,1.250*%
D10*
X135215Y78295D02*
D03*
X138795D02*
D03*
D11*
X132500Y37925D02*
D03*
X125300Y26625D02*
D03*
X126100D02*
D03*
X132500D02*
D03*
X126900Y37925D02*
D03*
X124500D02*
D03*
X129300Y26625D02*
D03*
X126900D02*
D03*
X131700Y37925D02*
D03*
X124500Y26625D02*
D03*
X127700D02*
D03*
X128500D02*
D03*
X130100D02*
D03*
X130900D02*
D03*
X131700D02*
D03*
X130900Y37925D02*
D03*
X130100D02*
D03*
X129300D02*
D03*
X128500D02*
D03*
X127700D02*
D03*
X126100D02*
D03*
X125300D02*
D03*
D12*
X134150Y30675D02*
D03*
X122850Y29075D02*
D03*
Y28275D02*
D03*
X134150D02*
D03*
Y29075D02*
D03*
Y29875D02*
D03*
Y31475D02*
D03*
Y35475D02*
D03*
X122850Y36275D02*
D03*
Y35475D02*
D03*
Y34675D02*
D03*
Y33875D02*
D03*
Y33075D02*
D03*
Y32275D02*
D03*
Y31475D02*
D03*
Y30675D02*
D03*
Y29875D02*
D03*
X134150Y32275D02*
D03*
Y33075D02*
D03*
Y33875D02*
D03*
Y34675D02*
D03*
Y36275D02*
D03*
D13*
X152200Y41350D02*
D03*
Y43150D02*
D03*
X71250Y83070D02*
D03*
Y84870D02*
D03*
X104250Y22150D02*
D03*
X116100Y91416D02*
D03*
Y89616D02*
D03*
X119387Y32725D02*
D03*
Y30925D02*
D03*
X137491Y33369D02*
D03*
Y31569D02*
D03*
X104250Y20350D02*
D03*
X132164Y92259D02*
D03*
Y94059D02*
D03*
D14*
X162000Y28040D02*
D03*
Y25840D02*
D03*
X161800Y31340D02*
D03*
X161400Y30240D02*
D03*
X161800Y29140D02*
D03*
Y26940D02*
D03*
Y24740D02*
D03*
Y23640D02*
D03*
D15*
X151500Y30150D02*
D03*
Y24450D02*
D03*
D16*
X138630Y72739D02*
D03*
X140630Y73689D02*
D03*
X138630Y74639D02*
D03*
D17*
X125834Y98750D02*
D03*
X135900Y59985D02*
D03*
X132561D02*
D03*
X130861D02*
D03*
X137600D02*
D03*
X124134Y98750D02*
D03*
X93900Y88400D02*
D03*
X92200D02*
D03*
X102883Y97500D02*
D03*
X101183D02*
D03*
X102757Y95359D02*
D03*
X104457D02*
D03*
X111150Y88075D02*
D03*
X112850D02*
D03*
X112850Y89900D02*
D03*
X111150D02*
D03*
D18*
X134161Y61455D02*
D03*
X134161Y58495D02*
D03*
X53250Y9335D02*
D03*
X94000D02*
D03*
X134150Y9050D02*
D03*
X163900Y42250D02*
D03*
X154299Y43100D02*
D03*
X156099D02*
D03*
X157899D02*
D03*
X159700D02*
D03*
X161500D02*
D03*
X148750Y25400D02*
D03*
X107750Y23700D02*
D03*
X134150Y21408D02*
D03*
X161500Y41400D02*
D03*
X159700D02*
D03*
X157899D02*
D03*
X156099D02*
D03*
X148750Y27100D02*
D03*
X134150Y10750D02*
D03*
X122034Y83475D02*
D03*
Y81775D02*
D03*
X154299Y41400D02*
D03*
X163900Y43950D02*
D03*
X94000Y11035D02*
D03*
X53250D02*
D03*
X134161Y56795D02*
D03*
X134150Y19708D02*
D03*
X134161Y63155D02*
D03*
X107750Y22000D02*
D03*
D19*
X149500Y85700D02*
D03*
X139500Y65125D02*
D03*
Y67125D02*
D03*
X149500Y83700D02*
D03*
D20*
X142841Y56870D02*
D03*
X131711Y67100D02*
D03*
X121641Y56870D02*
D03*
X131711Y45900D02*
D03*
X126141Y64820D02*
D03*
X121641D02*
D03*
X126141Y56870D02*
D03*
X147341Y64820D02*
D03*
Y56870D02*
D03*
X142841Y64820D02*
D03*
X141991Y18868D02*
D03*
X137491Y10918D02*
D03*
Y18868D02*
D03*
X141991Y10918D02*
D03*
X136211Y75050D02*
D03*
X131711D02*
D03*
X136211Y67100D02*
D03*
Y45900D02*
D03*
X131711Y53850D02*
D03*
X136211D02*
D03*
D21*
X102950Y100850D02*
D03*
X104900D02*
D03*
X104250D02*
D03*
X105550D02*
D03*
X103600D02*
D03*
D22*
X116100Y93900D02*
D03*
Y96500D02*
D03*
D23*
X146691Y41300D02*
D03*
Y31800D02*
D03*
D24*
X165650Y36000D02*
D03*
X164650Y22850D02*
D03*
D25*
X113300Y92100D02*
D03*
X110700D02*
D03*
D26*
X122734Y92759D02*
D03*
Y92109D02*
D03*
Y94059D02*
D03*
Y93409D02*
D03*
Y94709D02*
D03*
Y95359D02*
D03*
Y96009D02*
D03*
Y96659D02*
D03*
X128634Y92759D02*
D03*
Y92109D02*
D03*
Y93409D02*
D03*
Y94059D02*
D03*
Y94709D02*
D03*
Y95359D02*
D03*
Y96009D02*
D03*
Y96659D02*
D03*
D27*
X125684Y94384D02*
D03*
D28*
X105333Y83525D02*
D03*
Y84175D02*
D03*
Y84825D02*
D03*
Y85475D02*
D03*
Y86125D02*
D03*
Y86775D02*
D03*
Y87425D02*
D03*
Y88075D02*
D03*
Y88725D02*
D03*
Y89375D02*
D03*
Y90025D02*
D03*
Y90675D02*
D03*
Y91325D02*
D03*
Y91975D02*
D03*
X98433Y83525D02*
D03*
Y84175D02*
D03*
Y84825D02*
D03*
Y85475D02*
D03*
Y86125D02*
D03*
Y86775D02*
D03*
Y87425D02*
D03*
Y88075D02*
D03*
Y88725D02*
D03*
Y89375D02*
D03*
Y90025D02*
D03*
Y90675D02*
D03*
Y91325D02*
D03*
Y91975D02*
D03*
D29*
X128875Y41750D02*
D03*
X127075D02*
D03*
X127075Y23550D02*
D03*
X128875D02*
D03*
X139600Y37925D02*
D03*
X141400D02*
D03*
X139600Y35669D02*
D03*
X141400D02*
D03*
X124795Y90009D02*
D03*
X126595D02*
D03*
D33*
X92200Y99469D02*
D03*
X157899Y53324D02*
D03*
X103400Y4750D02*
D03*
D34*
X114341Y42735D02*
D03*
X119600Y102540D02*
D03*
X114341Y50355D02*
D03*
X112250Y11248D02*
D03*
Y13788D02*
D03*
Y16328D02*
D03*
Y18868D02*
D03*
Y21408D02*
D03*
X38131Y75755D02*
D03*
Y73215D02*
D03*
Y70675D02*
D03*
Y68135D02*
D03*
Y65595D02*
D03*
Y63055D02*
D03*
Y60515D02*
D03*
Y57975D02*
D03*
Y55435D02*
D03*
Y52895D02*
D03*
Y50355D02*
D03*
Y47815D02*
D03*
Y45275D02*
D03*
Y42735D02*
D03*
Y40195D02*
D03*
Y37655D02*
D03*
Y35115D02*
D03*
Y32575D02*
D03*
Y30035D02*
D03*
X114341D02*
D03*
Y32575D02*
D03*
Y35115D02*
D03*
Y37655D02*
D03*
Y40195D02*
D03*
Y45275D02*
D03*
Y47815D02*
D03*
Y52895D02*
D03*
Y55435D02*
D03*
Y57975D02*
D03*
Y60515D02*
D03*
Y63055D02*
D03*
Y65595D02*
D03*
Y68135D02*
D03*
Y70675D02*
D03*
Y73215D02*
D03*
Y75755D02*
D03*
D35*
X66750Y82870D02*
D03*
Y84870D02*
D03*
Y66870D02*
D03*
Y76870D02*
D03*
X44750Y84870D02*
D03*
Y82870D02*
D03*
Y80870D02*
D03*
Y78870D02*
D03*
Y76870D02*
D03*
Y72870D02*
D03*
Y68870D02*
D03*
Y66870D02*
D03*
X66750Y78870D02*
D03*
Y74870D02*
D03*
Y72870D02*
D03*
Y70870D02*
D03*
Y68870D02*
D03*
Y80870D02*
D03*
X44750Y70870D02*
D03*
Y74870D02*
D03*
D36*
X126821Y80975D02*
D03*
Y83515D02*
D03*
D37*
X36001Y16035D02*
D03*
X77251D02*
D03*
X118751Y15750D02*
D03*
X89751Y11035D02*
D03*
Y16035D02*
D03*
X77251Y11035D02*
D03*
X131251Y10750D02*
D03*
Y15750D02*
D03*
X118751Y10750D02*
D03*
X48501Y16035D02*
D03*
X36001Y11035D02*
D03*
X48501D02*
D03*
D38*
X137500Y87000D02*
D03*
X142500D02*
D03*
D39*
X112250Y23948D02*
D03*
X38131Y78295D02*
D03*
X119600Y100260D02*
D03*
X114341Y78295D02*
D03*
D40*
X107975Y100850D02*
D03*
X100525D02*
D03*
D41*
X108125Y104650D02*
D03*
X100375D02*
D03*
D42*
X106750Y101900D02*
D03*
X101750D02*
D03*
D43*
X147488Y72184D02*
D03*
D44*
X142408D02*
D03*
X144948Y69644D02*
D03*
%TF.MD5,2c1f5e85643a81448616185e5a2b4a98*%
M02*
