G04 ================== begin FILE IDENTIFICATION RECORD ==================*
G04 Layout Name:  MODULE_RADIO_868M.brd*
G04 Film Name:    BOTTOM*
G04 File Format:  Gerber RS274X*
G04 File Origin:  Cadence Allegro 16.6-2015-S058*
G04 Origin Date:  Wed Apr 12 14:11:36 2017*
G04 *
G04 Layer:  BOARD GEOMETRY/OUTLINE*
G04 Layer:  ETCH/BOTTOM*
G04 Layer:  PIN/BOTTOM*
G04 Layer:  VIA CLASS/BOTTOM*
G04 *
G04 Offset:    (0.000 0.000)*
G04 Mirror:    No*
G04 Mode:      Positive*
G04 Rotation:  0*
G04 FullContactRelief:  No*
G04 UndefLineWidth:     0.100*
G04 ================== end FILE IDENTIFICATION RECORD ====================*
%FSLAX25Y25*MOMM*%
%IR0*IPPOS*OFA0.00000B0.00000*MIA0B0*SFA1.00000B1.00000*%
%ADD13R,.711X2.083*%
%ADD10C,1.575*%
%ADD11C,.6*%
%ADD14C,.8*%
%ADD12R,1.295X3.404*%
%ADD15C,.3*%
%ADD16C,.1*%
%ADD17C,.15*%
%ADD18C,1.41*%
%ADD20C,1.88*%
%ADD19C,.904*%
G75*
%LPD*%
G75*
G36*
G01X47800Y-80900D02*
G03X-71900Y60500I-47750J80943D01*
G02X-89900Y67100I-7792J6594D01*
G01Y1261800D01*
G02X-73300Y1269800I10208J40D01*
G03X-35100Y1260900I28337J35198D01*
G02X-22600Y1251000I2286J-9955D01*
G01Y912500D01*
X119700D01*
Y882300D01*
X119800Y882200D01*
Y864400D01*
X41700Y786300D01*
X39000Y786800D01*
G03X74300Y751500I-9000J-44300D01*
G01X73800Y754200D01*
X132400Y812800D01*
G02X149800Y805600I7203J-7219D01*
G01Y691200D01*
X52300Y593700D01*
Y193100D01*
X150700Y94700D01*
G02X149000Y79000I-7249J-7157D01*
G03X152200Y-80900I51000J-78961D01*
G02X147000Y-99900I-5187J-8792D01*
G01X53000D01*
G02X47800Y-80900I-13J10208D01*
G37*
G36*
G01X1847800D02*
G03X1882400Y45200I-47808J80915D01*
G01X1880600Y48500D01*
X1897700Y65600D01*
Y754000D01*
X1920800Y777100D01*
Y780800D01*
G02X1938600Y787600I10196J7D01*
G03X2015200Y802700I33894J29901D01*
G02X2031800Y806800I9631J-3339D01*
G03X2019800Y854800I30704J33176D01*
G02X2003200Y850700I-9631J3339D01*
G03X1938600Y847400I-30689J-33194D01*
G02X1920800Y854200I-7604J6793D01*
G01Y956900D01*
X1985200Y1021300D01*
Y1218800D01*
X1985300Y1218900D01*
Y1262500D01*
X1977700Y1270100D01*
Y1318800D01*
X1980200Y1321300D01*
Y1408700D01*
X1918700Y1470200D01*
X1911900D01*
X1746900Y1635200D01*
X1550600D01*
X1471400Y1556000D01*
G02X1462700Y1559600I-3601J3610D01*
G01Y1568700D01*
X1422700Y1608700D01*
Y2108700D01*
X1426400Y2109800D01*
G03X1373600I-26400J90200D01*
G01X1377300Y2108700D01*
Y2091300D01*
X1369900D01*
X1368400Y2092900D01*
G03X1361200Y2025700I-33416J-30405D01*
G02X1377300Y2017400I5894J-8331D01*
G01Y1602800D01*
G02X1372200Y1597700I-5098J-2D01*
G03X1349800Y1513400I291J-45203D01*
G01Y1423700D01*
X1354200Y1419300D01*
G02X1350600Y1410600I-3570J-3618D01*
G01X812700D01*
Y1420400D01*
G02X827400Y1429500I10192J-41D01*
G03X886000Y1446300I20099J40494D01*
G02X903400I8700J-5300D01*
G03X984200Y1486000I38534J23648D01*
G02X993700Y1499800I9527J3611D01*
G01X1027800D01*
X1028800Y1496000D01*
G03X1111600Y1484800I43713J11498D01*
G01X1149400D01*
X1222700Y1558100D01*
Y1935700D01*
G02X1236500Y1945200I10189J-27D01*
G03Y2029800I16000J42300D01*
G02X1222700Y2039300I-3611J9527D01*
G01Y2108700D01*
X1226400Y2109800D01*
G03X1173600I-26400J90200D01*
G01X1177300Y2108700D01*
Y1576900D01*
X1130600Y1530200D01*
X1124600D01*
G02X1121000Y1538900I10J5099D01*
G01X1162700Y1580600D01*
Y2069400D01*
X1080600Y2151600D01*
G03X1048400Y2119400I-80600J48400D01*
G01X1117300Y2050600D01*
Y1738300D01*
G02X1100700Y1730300I-10203J-51D01*
G03X1033400Y1717700I-28220J-35306D01*
G01X928100D01*
X892600Y1682200D01*
X855100D01*
X679200Y1506300D01*
X676500Y1506800D01*
G03X637800Y1428400I-9019J-44300D01*
G02X631100Y1410600I-6733J-7627D01*
G01X520200D01*
Y1630000D01*
X502700Y1647500D01*
Y1649700D01*
G03X455000Y1604900I-45189J320D01*
G02X459800Y1599800I-309J-5099D01*
G01Y1410600D01*
X439200D01*
Y1408200D01*
X341600D01*
Y1174200D01*
X439200D01*
Y1171800D01*
X738300D01*
G02X745500Y1154400I21J-10181D01*
G01X701300Y1110200D01*
X672400D01*
X657400Y1095200D01*
X632600D01*
X617600Y1110200D01*
X304000D01*
X150100Y956300D01*
G02X132600Y963500I-7286J7159D01*
G01Y1274900D01*
X136700Y1275700D01*
G03X90100Y1294600I-9175J44278D01*
G02X81700Y1278700I-8447J-5706D01*
G01X8000D01*
G02X-1800Y1291900I-29J10216D01*
G03X-73300Y1340200I-43239J13064D01*
G02X-89900Y1348200I-6392J7960D01*
G01Y2136500D01*
G02X-71700Y2142900I10211J42D01*
G03Y2257100I71700J57100D01*
G02X-89900Y2263500I-7989J6358D01*
G01Y2309900D01*
X3367500D01*
Y-99900D01*
X1853000D01*
G02X1847800Y-80900I-13J10208D01*
G37*
G36*
G01X447800D02*
G03X354800Y82400I-47804J80907D01*
G01X351500Y80600D01*
X308100Y124000D01*
X185600D01*
X97700Y211900D01*
Y574900D01*
X195200Y672400D01*
Y796700D01*
G02X209500Y806100I10216J36D01*
G03X212600Y804800I19007J40978D01*
G02X218300Y790800I-3450J-9565D01*
G03X259600Y725800I40665J-19783D01*
G02X269900Y715000I111J-10205D01*
G03X324000Y668200I45122J-2509D01*
G01X326700Y668700D01*
X404800Y590600D01*
Y587600D01*
X505200Y487200D01*
X616100D01*
X616200Y487300D01*
X647400D01*
X722400Y562300D01*
X1171900D01*
X1190000Y580400D01*
G02X1207400Y572600I7210J-7223D01*
G03X1229800Y530900I45119J-2630D01*
G01Y461900D01*
X848500Y80600D01*
X845200Y82400D01*
G03X752200Y-80900I-45196J-82393D01*
G02X747000Y-99900I-5187J-8792D01*
G01X653000D01*
G02X647800Y-80900I-13J10208D01*
G03X552200I-47800J80900D01*
G02X547000Y-99900I-5187J-8792D01*
G01X453000D01*
G02X447800Y-80900I-13J10208D01*
G37*
G36*
G01X847800D02*
G03X882400Y45200I-47808J80915D01*
G01X880600Y48500D01*
X1275200Y443100D01*
Y530900D01*
G03X1270600Y611400I-22701J39084D01*
G02X1269200Y629400I4085J9372D01*
G03X1200700Y658500I-24232J38132D01*
G01X1201200Y655800D01*
X1153100Y607700D01*
X703600D01*
X698600Y602700D01*
X692600Y608800D01*
X693900Y612000D01*
G03X607300Y629700I-41420J18049D01*
G01Y627500D01*
X557500Y577700D01*
X542600D01*
X535100Y585200D01*
G02X539200Y602100I7237J7192D01*
G03X535100Y689100I-14182J42928D01*
G02X530000Y706100I2241J9937D01*
G03X542800Y739600I-32369J31563D01*
G02X552900Y750200I10174J418D01*
G01X602600D01*
X605100Y747700D01*
G03X613300Y744700I7274J7176D01*
G02X624100Y737400I1016J-10136D01*
G03X712500Y745600I43412J12595D01*
G01X712900Y750200D01*
X1170400D01*
X1183400Y763200D01*
G03X1186400Y770400I-7180J7217D01*
G02X1196600Y780600I10181J19D01*
G01X1317300D01*
Y493700D01*
X1304800Y481200D01*
Y418800D01*
X1317300Y406300D01*
Y358700D01*
X1289800Y331200D01*
Y268800D01*
X1317300Y241300D01*
Y149400D01*
X1248500Y80600D01*
X1245200Y82400D01*
G03X1152200Y-80900I-45196J-82393D01*
G02X1147000Y-99900I-5187J-8792D01*
G01X1053000D01*
G02X1047800Y-80900I-13J10208D01*
G03X952200I-47800J80900D01*
G02X947000Y-99900I-5187J-8792D01*
G01X853000D01*
G02X847800Y-80900I-13J10208D01*
G37*
G36*
G01X195200Y894700D02*
X274100Y973600D01*
G02X291600Y966400I7286J-7159D01*
G01Y821700D01*
G02X277200Y812400I-10206J4D01*
G03X273900Y813700I-18210J-41387D01*
G02X268200Y827700I3450J9565D01*
G03X203100Y885500I-40652J19774D01*
G01X201800Y884700D01*
X195200D01*
Y894700D01*
G37*
G36*
G01X1447800Y-80900D02*
G03X1426400Y90200I-47822J80907D01*
G01X1422700Y91300D01*
Y251300D01*
X1440200Y268800D01*
Y331200D01*
X1422700Y348700D01*
Y386300D01*
X1458400Y422000D01*
X1577300Y303100D01*
Y91300D01*
X1573600Y90200D01*
G03X1552200Y-80900I26422J-90193D01*
G02X1547000Y-99900I-5187J-8792D01*
G01X1453000D01*
G02X1447800Y-80900I-13J10208D01*
G37*
G36*
G01X1653000Y-99900D02*
G02X1647800Y-80900I-13J10208D01*
G03X1626400Y90200I-47822J80907D01*
G01X1622700Y91300D01*
Y321900D01*
X1485200Y459400D01*
Y493700D01*
X1475300Y503600D01*
G02X1478800Y520300I7194J7209D01*
G03X1488600Y525600I-16439J42107D01*
G02X1503800Y521400I5873J-8349D01*
G03X1578200Y570700I41193J18624D01*
G02X1582300Y587300I7442J6968D01*
G03X1611800Y639000I-14794J42708D01*
G01X1611300Y641700D01*
X1662700Y693100D01*
Y780600D01*
X1852300D01*
Y95300D01*
G02X1838000Y86000I-10190J24D01*
G03X1752200Y-80900I-37956J-85992D01*
G02X1747000Y-99900I-5187J-8792D01*
G01X1653000D01*
G37*
G36*
G01X1662700Y1019400D02*
Y1033800D01*
X1642400Y1054100D01*
G02X1642800Y1068900I7189J7211D01*
G03X1615000Y1147600I-30281J33564D01*
G01X1613000Y1147700D01*
X1608000Y1152700D01*
X1612700Y1157400D01*
Y1171800D01*
X1840800D01*
Y1410600D01*
X1774400D01*
X1762500Y1422400D01*
G02X1769700Y1439800I7219J7203D01*
G01X1835600D01*
X1880600Y1394800D01*
X1887400D01*
X1904800Y1377400D01*
Y1352600D01*
X1902300Y1350100D01*
Y1238800D01*
X1909800Y1231300D01*
Y1052600D01*
X1876500Y1019400D01*
X1662700D01*
G37*
G36*
G01X1142600Y1057700D02*
X1109200Y1091100D01*
X1111300Y1099000D01*
G02X1197300Y1071500I43705J-11545D01*
G03X1196600Y1067900I9501J-3715D01*
G02X1186400Y1057700I-10184J-16D01*
G01X1142600D01*
G37*
%LPC*%
G75*
G36*
G01X2202800Y1096100D02*
Y912500D01*
X2047400D01*
Y1278700D01*
X2202800D01*
Y1168900D01*
G02Y1096100I-22800J-36400D01*
G37*
G54D18*
X353000Y1873500D03*
X861000Y1771900D03*
Y1975100D03*
G54D20*
X200000Y2200000D03*
X400000D03*
X600000D03*
X800000D03*
X1600000D03*
X1800000D03*
G54D19*
X52500Y1477500D03*
X192500Y1790000D03*
X506200Y2036200D03*
X667500Y2025000D03*
X1237500Y1470000D03*
X2205000Y1657500D03*
X2197500Y1830000D03*
X175000Y230000D03*
X502500Y352500D03*
X640000Y245000D03*
X982500Y502500D03*
X1680000Y555000D03*
%LPD*%
G75*
G54D10*
X0Y0D03*
Y2200000D03*
X200000Y0D03*
X400000D03*
X600000D03*
X200000Y2200000D03*
X400000D03*
X600000D03*
X800000Y0D03*
X1000000D03*
X800000Y2200000D03*
X1000000D03*
X1200000Y0D03*
X1400000D03*
X1600000D03*
X1200000Y2200000D03*
X1400000D03*
X1600000D03*
X1800000Y0D03*
Y2200000D03*
G54D11*
X-7500Y457500D03*
X-22500Y847500D03*
X-45000Y1305000D03*
X175000Y230000D03*
X525000Y240000D03*
X315000Y232500D03*
X502500Y352500D03*
X330000Y405000D03*
X30000Y742500D03*
X525000Y645000D03*
X497600Y737600D03*
X315000Y712500D03*
X259000Y771000D03*
X352500Y975000D03*
X487500Y1140000D03*
X300000Y1155000D03*
X127500Y1320000D03*
X227500Y847500D03*
X52500Y1477500D03*
X192500Y1790000D03*
X457500Y1650000D03*
X375000Y1642500D03*
X27500Y1790000D03*
X180000Y1642500D03*
X52500Y1650000D03*
X506200Y2036200D03*
X165000Y1980000D03*
X930000Y232500D03*
X652500Y630000D03*
X640000Y245000D03*
X982500Y502500D03*
X945000Y667500D03*
X735000Y517500D03*
Y255000D03*
X667500Y750000D03*
X645000Y1125000D03*
X885000Y1110000D03*
X1035000D03*
X941900Y1470000D03*
X847500D03*
X667500Y1462500D03*
X1072500Y1695000D03*
Y1507500D03*
X1050000Y1942500D03*
X975000Y2055000D03*
X667500Y2025000D03*
X1252500Y750000D03*
X1485000Y307500D03*
X1245000Y300000D03*
X1395000Y712500D03*
X1462500Y562500D03*
X1252500Y570000D03*
X1545000Y540000D03*
X1680000Y555000D03*
X1365000Y300000D03*
X1380000Y450000D03*
X1245000Y667500D03*
X1567500Y630000D03*
X1155000Y1087500D03*
X1492500Y1290000D03*
X1440000Y900000D03*
X1690000Y1291200D03*
X1455000Y1087500D03*
X1640000Y900000D03*
X1612500Y1102500D03*
X1260000Y1087500D03*
X1340000Y900000D03*
X1567500Y1702500D03*
X1320000Y1470000D03*
X1605000Y1560000D03*
X1567500Y1447500D03*
X1440000Y1485000D03*
X1372500Y1552500D03*
X1237500Y1470000D03*
X1672500Y1980000D03*
X1335000Y2062500D03*
X1252500Y1987500D03*
X2062500Y157500D03*
X1725000Y217500D03*
X2002500Y607500D03*
X2172500Y1275000D03*
X2180000Y1132500D03*
X2105000Y1207500D03*
X2017500Y1312500D03*
X1880000Y1162500D03*
X2045000Y1065000D03*
X1880000D03*
X1972500Y817500D03*
X2062500Y840000D03*
X2205000Y1657500D03*
X2197500Y1830000D03*
X2112500Y1552500D03*
X1985000D03*
X2060000Y1365000D03*
X1875000D03*
X2107500Y2085000D03*
X2482500Y150000D03*
X2407500Y750000D03*
X2587500Y427500D03*
X2565000Y712500D03*
X2272500Y840000D03*
Y960000D03*
X2490000Y1830000D03*
X2752500Y1612500D03*
X2482500Y1605000D03*
X2302500Y1552500D03*
X2270000Y1447500D03*
X2752500Y2115000D03*
X3007500Y112500D03*
X3307500Y562500D03*
X3067500D03*
X3195000Y712500D03*
X2812500Y457500D03*
X2955000Y712500D03*
X2940000Y1290000D03*
Y1117500D03*
X3322500Y1327500D03*
Y802500D03*
Y982500D03*
Y1155000D03*
X3225000Y1612500D03*
X2865000Y1732500D03*
X3030000Y1612500D03*
X3240000Y2092500D03*
G54D12*
X55000Y1095600D03*
X2125100D03*
G54D13*
X340000Y900000D03*
X390000Y1291200D03*
X440000Y900000D03*
X490000Y1291200D03*
X540000Y900000D03*
X590000Y1291200D03*
X640000Y900000D03*
X690000Y1291200D03*
X740000Y900000D03*
X790000Y1291200D03*
X840000Y900000D03*
X890000Y1291200D03*
X940000Y900000D03*
X990000Y1291200D03*
X1040000Y900000D03*
X1090000Y1291200D03*
X1140000Y900000D03*
X1190000Y1291200D03*
X1240000Y900000D03*
X1290000Y1291200D03*
X1340000Y900000D03*
X1390000Y1291200D03*
X1440000Y900000D03*
X1490000Y1291200D03*
X1540000Y900000D03*
X1590000Y1291200D03*
X1640000Y900000D03*
X1690000Y1291200D03*
X1740000Y900000D03*
X1790000Y1291200D03*
X1840000Y900000D03*
G54D14*
X353000Y1873500D03*
X861000Y1771900D03*
Y1975100D03*
G54D15*
G01X-27800Y1095600D02*
X55000D01*
G01X32500Y1790000D02*
X0Y1822500D01*
G01X652500Y630000D02*
X570000Y547500D01*
X530100D01*
X465000Y612600D01*
Y635100D01*
X397500Y702600D01*
Y752400D01*
X440000Y794900D01*
Y900000D01*
G01X490000Y1291200D02*
Y1617500D01*
X457500Y1650000D01*
G01X390000Y1169000D02*
Y1291200D01*
G01D02*
Y1413400D01*
G01X336400Y1291200D02*
X390000D01*
G01X55000Y907400D02*
Y1095600D01*
G01D02*
Y1283800D01*
G01Y1095600D02*
X137800D01*
G01X32500Y1790000D02*
X27500D01*
G01X37500Y1785000D02*
X32500Y1790000D01*
G01X0Y1822500D02*
Y2200000D01*
G01X2125100Y907400D02*
Y1095600D01*
G01D02*
Y1283800D01*
G01X2042300Y1095600D02*
X2125100D01*
G01D02*
X2207900D01*
G54D16*
G01X-110000Y-120000D02*
Y2330000D01*
X4030000D01*
Y-120000D01*
X-110000D01*
G54D17*
G01X400000Y0D02*
X298700Y101300D01*
X176200D01*
X75000Y202500D01*
Y584300D01*
X172500Y681800D01*
Y904100D01*
X325900Y1057500D01*
X595700D01*
X610700Y1042500D01*
X679300D01*
X694300Y1057500D01*
X906800D01*
X921800Y1072500D01*
X998200D01*
X1013200Y1057500D01*
X1056800D01*
X1071800Y1072500D01*
X1095700D01*
X1133200Y1035000D01*
X1281800D01*
X1319300Y1072500D01*
X1372600D01*
X1402500Y1102400D01*
Y1109300D01*
X1433200Y1140000D01*
X1440100D01*
X1459000Y1158900D01*
X1480400D01*
X1491700Y1147600D01*
X1570800D01*
X1590000Y1166800D01*
Y1291200D01*
G01X30000Y742500D02*
X142500Y855000D01*
Y891600D01*
X142400Y891700D01*
Y916500D01*
X313400Y1087500D01*
X608200D01*
X623200Y1072500D01*
X666800D01*
X681800Y1087500D01*
X710700D01*
X790000Y1166800D01*
Y1291200D01*
G01X1245000Y667500D02*
X1162500Y585000D01*
X713000D01*
X638000Y510000D01*
X606800D01*
X606700Y509900D01*
X514600D01*
X427500Y597000D01*
Y600000D01*
X315000Y712500D01*
G01X800000Y0D02*
X1252500Y452500D01*
Y570000D01*
G01X1000000Y2200000D02*
X1140000Y2060000D01*
Y1590000D01*
X1110000Y1560000D01*
X1050700D01*
X1013200Y1522500D01*
X825700D01*
X795000Y1491800D01*
Y1448200D01*
X790000Y1443200D01*
Y1291200D01*
G01X1035000Y1110000D02*
X885000D01*
G01X1072500Y1695000D02*
X937500D01*
X902000Y1659500D01*
X864500D01*
X667500Y1462500D01*
G01X1200000Y2200000D02*
Y1567500D01*
X1140000Y1507500D01*
X1072500D01*
G01X1440000Y900000D02*
Y775600D01*
X1470000Y745600D01*
Y696800D01*
X1402500Y629300D01*
Y532500D01*
X1414300D01*
X1462500Y484300D01*
Y450000D01*
X1600000Y312500D01*
Y0D01*
G01X1400000D02*
Y260700D01*
X1417500Y278200D01*
Y321800D01*
X1400000Y339300D01*
Y395700D01*
X1432500Y428200D01*
Y471800D01*
X1401800Y502500D01*
X1373400D01*
X1372500Y503400D01*
Y641800D01*
X1395000Y664300D01*
Y712500D01*
G01X1207500Y7500D02*
X1340000Y140000D01*
Y250700D01*
X1312500Y278200D01*
Y321800D01*
X1340000Y349300D01*
Y415700D01*
X1327500Y428200D01*
Y471800D01*
X1340000Y484300D01*
Y900000D01*
G01X1207500Y-7500D02*
Y7500D01*
G01X1200000Y0D02*
X1207500Y7500D01*
G01X1540000Y900000D02*
Y692500D01*
X1498000Y650500D01*
Y598000D01*
X1462500Y562500D01*
G01X1640000Y900000D02*
Y702500D01*
X1567500Y630000D01*
G01X1800000Y0D02*
X1875000Y75000D01*
Y763400D01*
X1898100Y786500D01*
Y966300D01*
X1962500Y1030700D01*
Y1228200D01*
X1962600Y1228300D01*
Y1253100D01*
X1955000Y1260700D01*
Y1328200D01*
X1957500Y1330700D01*
Y1399300D01*
X1909300Y1447500D01*
X1902500D01*
X1737500Y1612500D01*
X1560000D01*
X1492500Y1545000D01*
Y1418100D01*
X1490000Y1415600D01*
Y1291200D01*
G01X1390000D02*
Y1415600D01*
X1372500Y1433100D01*
Y1552500D01*
G01X1640000Y900000D02*
Y1024400D01*
X1614400Y1050000D01*
X1590700D01*
X1553200Y1087500D01*
X1455000D01*
G01X1840000Y900000D02*
Y950700D01*
X1932500Y1043200D01*
Y1240700D01*
X1925000Y1248200D01*
Y1340700D01*
X1927500Y1343200D01*
Y1386800D01*
X1896800Y1417500D01*
X1890000D01*
X1845000Y1462500D01*
X1680000D01*
X1640500Y1502000D01*
Y1524500D01*
X1605000Y1560000D01*
G01X1400000Y2200000D02*
Y1599300D01*
X1440000Y1559300D01*
Y1485000D01*
G01X1790000Y1291200D02*
Y1362800D01*
X1734900Y1417900D01*
X1677300D01*
X1655200Y1440000D01*
X1625200D01*
X1617700Y1447500D01*
X1567500D01*
M02*
