M48
;Layer_Color=9474304
;FILE_FORMAT=4:3
METRIC,LZ
;TYPE=PLATED
T1F00S00C0.300
T2F00S00C0.350
T4F00S00C0.711
T5F00S00C0.800
T7F00S00C1.000
T8F00S00C1.100
T9F00S00C1.200
;TYPE=NON_PLATED
T10F00S00C0.800
T11F00S00C3.510
%
T01
X0015181Y002093
X00163Y0023062
X0018542Y0023302
X0019683Y0020943
X0021Y0021731
X0031833Y0021229
X003317Y0021209
X003307Y0022904
X00335Y0019177
X0032512Y0018415
X0031707Y00155
X0031535Y0014264
X0035433Y0019812
X00381Y0018415
X0031975Y0026289
X00313Y00293
X0031975Y0031358
X00291Y00503
X00491Y00388
X00614Y0049591
X0024612
X0023312
X0022012
X0025154Y0038421
X00184Y00379
X0019Y00331
X0020597Y0031264
X0011Y00341
T02
X0024852Y0023302
X0025952
Y0024402
Y0025502
X0024852
Y0024402
X0027052
Y0023302
Y0025502
X00549Y0042332
Y0043332
X00559
Y0042332
X00569
Y0043332
Y0044332
X00559
X00549
T04
X0009Y0002
X0016
X00195Y0009
X00265
X00125
X00055
X0009Y0016
X0002
X00055Y0023
X00125
X00475
X00545
X0044Y0016
Y0002
X0051
X003
X00335Y0037
X0044Y003
X0051
X00265Y0037
X00125
X0016Y0044
X0009
Y003
X0002
T05
X004115Y0014755
X004315
X004515
X004715
X004915
X005115
X005315
X005515
X005715
X005915
Y0036755
X005715
X005515
X005315
X005115
X004915
X004715
X004515
X004315
X004115
T07
X003514Y0010746
X003768
Y0025746
X003514
X0054359Y0008636
X0056639
X003768Y0040746
X003514
T08
X0032258Y0002667
X0034798
X0037338
X0039878
X0042418
T09
X001101Y0018996
X001601
Y0031496
X001101
T10
X00381Y0046841
X00431
T11
X0015215Y00105
X0065485
Y004101
X0015215
M30
