%TF.GenerationSoftware,Altium Limited,Altium Designer,21.6.1 (37)*%
G04 Layer_Color=16711935*
%FSLAX43Y43*%
%MOMM*%
%TF.SameCoordinates,722F286E-688C-4CC3-9CBB-BCC5CCC684D6*%
%TF.FilePolarity,Negative*%
%TF.FileFunction,Soldermask,Bot*%
%TF.Part,Single*%
G01*
G75*
%TA.AperFunction,SMDPad,CuDef*%
%ADD15R,3.100X3.100*%
%ADD20R,3.930X3.930*%
%TA.AperFunction,ComponentPad*%
%ADD29O,1.450X2.000*%
%ADD30O,1.150X1.800*%
%ADD31C,0.800*%
%ADD32C,1.200*%
%ADD33C,1.600*%
%ADD34R,1.600X1.600*%
%ADD35R,1.500X1.500*%
%ADD36C,1.500*%
%ADD37C,1.800*%
%TA.AperFunction,ViaPad*%
%ADD40C,0.750*%
%TA.AperFunction,SMDPad,CuDef*%
%ADD41R,2.030X3.800*%
%ADD42R,3.800X2.030*%
D15*
X55900Y43332D02*
D03*
D20*
X25952Y24402D02*
D03*
D29*
X44325Y45791D02*
D03*
X36875D02*
D03*
D30*
X44475Y49591D02*
D03*
X36725D02*
D03*
D31*
X43100Y46841D02*
D03*
X38100D02*
D03*
D32*
X41150Y14755D02*
D03*
X43150D02*
D03*
X45150D02*
D03*
X47150D02*
D03*
X49150D02*
D03*
X51150D02*
D03*
X53150D02*
D03*
X55150D02*
D03*
X57150D02*
D03*
X59150D02*
D03*
X41150Y36755D02*
D03*
X43150D02*
D03*
X45150D02*
D03*
X47150D02*
D03*
X49150D02*
D03*
X51150D02*
D03*
X53150D02*
D03*
X55150D02*
D03*
X57150D02*
D03*
X59150D02*
D03*
D33*
X42418Y2667D02*
D03*
X39878D02*
D03*
X37338D02*
D03*
X34798D02*
D03*
X35140Y40746D02*
D03*
X37680D02*
D03*
X35140Y25746D02*
D03*
X37680D02*
D03*
X35140Y10746D02*
D03*
X37680D02*
D03*
D34*
X32258Y2667D02*
D03*
D35*
X54359Y8636D02*
D03*
D36*
X56639D02*
D03*
D37*
X11010Y18996D02*
D03*
Y31496D02*
D03*
X16010Y18996D02*
D03*
Y31496D02*
D03*
D40*
X54900Y42332D02*
D03*
Y43332D02*
D03*
X55900Y42332D02*
D03*
Y43332D02*
D03*
X56900Y42332D02*
D03*
Y43332D02*
D03*
X54900Y44332D02*
D03*
X55900D02*
D03*
X56900D02*
D03*
X25952Y25502D02*
D03*
Y24402D02*
D03*
X24852Y25502D02*
D03*
X27052Y24402D02*
D03*
Y23302D02*
D03*
Y25502D02*
D03*
X25952Y23302D02*
D03*
X24852Y24402D02*
D03*
Y23302D02*
D03*
D41*
X58300Y3100D02*
D03*
X48500Y3200D02*
D03*
X54359D02*
D03*
D42*
X48952Y48300D02*
D03*
X56900Y48400D02*
D03*
X7400Y37000D02*
D03*
X23622Y5842D02*
D03*
Y14478D02*
D03*
%TF.MD5,5658960f1fb8293f65d310340663164d*%
M02*
