%TF.GenerationSoftware,Altium Limited,Altium Designer,21.6.1 (37)*%
G04 Layer_Physical_Order=2*
G04 Layer_Color=16711680*
%FSLAX43Y43*%
%MOMM*%
%TF.SameCoordinates,722F286E-688C-4CC3-9CBB-BCC5CCC684D6*%
%TF.FilePolarity,Positive*%
%TF.FileFunction,Copper,L2,Bot,Signal*%
%TF.Part,Single*%
G01*
G75*
%TA.AperFunction,SMDPad,CuDef*%
%ADD15R,3.100X3.100*%
%ADD20R,3.930X3.930*%
%TA.AperFunction,Conductor*%
%ADD25C,0.254*%
%ADD26C,0.500*%
%TA.AperFunction,ComponentPad*%
%ADD29O,1.450X2.000*%
%ADD30O,1.150X1.800*%
%ADD31C,0.800*%
%ADD32C,1.200*%
%ADD33C,1.600*%
%ADD34R,1.600X1.600*%
%ADD35R,1.500X1.500*%
%ADD36C,1.500*%
%ADD37C,1.800*%
%TA.AperFunction,ViaPad*%
%ADD38C,0.650*%
%ADD39C,1.270*%
%ADD40C,0.750*%
%TA.AperFunction,SMDPad,CuDef*%
%ADD41R,2.030X3.800*%
%ADD42R,3.800X2.030*%
G36*
X59690Y48808D02*
X58950D01*
Y49565D01*
X54850D01*
Y47235D01*
X58950D01*
Y47992D01*
X59690D01*
Y37479D01*
X59540Y37396D01*
X59439Y37454D01*
X59249Y37505D01*
X59051D01*
X58861Y37454D01*
X58689Y37355D01*
X58550Y37216D01*
X58451Y37044D01*
X58400Y36854D01*
Y36656D01*
X58451Y36466D01*
X58550Y36294D01*
X58689Y36155D01*
X58861Y36056D01*
X59051Y36005D01*
X59249D01*
X59439Y36056D01*
X59540Y36114D01*
X59690Y36031D01*
Y15479D01*
X59540Y15396D01*
X59439Y15454D01*
X59249Y15505D01*
X59051D01*
X58861Y15454D01*
X58689Y15355D01*
X58550Y15216D01*
X58451Y15044D01*
X58400Y14854D01*
Y14656D01*
X58451Y14466D01*
X58550Y14294D01*
X58689Y14155D01*
X58861Y14056D01*
X59051Y14005D01*
X59249D01*
X59439Y14056D01*
X59540Y14114D01*
X59690Y14031D01*
Y255D01*
X8255D01*
Y1352D01*
X8405Y1414D01*
X8487Y1332D01*
X8678Y1222D01*
X8890Y1165D01*
X8900D01*
Y2000D01*
Y2835D01*
X8890D01*
X8678Y2778D01*
X8487Y2668D01*
X8405Y2586D01*
X8255Y2648D01*
Y8000D01*
X8235Y8098D01*
X8180Y8180D01*
X8098Y8235D01*
X8000Y8255D01*
X6148D01*
X6086Y8405D01*
X6168Y8487D01*
X6278Y8678D01*
X6335Y8890D01*
Y8900D01*
X4665D01*
Y8890D01*
X4722Y8678D01*
X4832Y8487D01*
X4914Y8405D01*
X4852Y8255D01*
X255D01*
Y43245D01*
X8000D01*
X8098Y43265D01*
X8180Y43320D01*
X8224Y43385D01*
X8283Y43410D01*
X8393Y43426D01*
X8487Y43332D01*
X8678Y43222D01*
X8890Y43165D01*
X8900D01*
Y44000D01*
Y44835D01*
X8890D01*
X8678Y44778D01*
X8487Y44668D01*
X8405Y44586D01*
X8255Y44648D01*
Y51245D01*
X59690D01*
Y48808D01*
D02*
G37*
%LPC*%
G36*
X44575Y50685D02*
Y49691D01*
X45257D01*
Y49916D01*
X45230Y50118D01*
X45152Y50307D01*
X45028Y50469D01*
X44866Y50593D01*
X44677Y50671D01*
X44575Y50685D01*
D02*
G37*
G36*
X36825Y50685D02*
Y49691D01*
X37507D01*
Y49916D01*
X37480Y50118D01*
X37402Y50307D01*
X37278Y50469D01*
X37116Y50593D01*
X36927Y50671D01*
X36825Y50685D01*
D02*
G37*
G36*
X36625Y50685D02*
X36523Y50671D01*
X36334Y50593D01*
X36172Y50469D01*
X36048Y50307D01*
X35970Y50118D01*
X35943Y49916D01*
Y49691D01*
X36625D01*
Y50685D01*
D02*
G37*
G36*
X44375Y50685D02*
X44273Y50671D01*
X44084Y50593D01*
X43922Y50469D01*
X43798Y50307D01*
X43720Y50118D01*
X43693Y49916D01*
Y49691D01*
X44375D01*
Y50685D01*
D02*
G37*
G36*
X38209Y47391D02*
X37991D01*
X37788Y47307D01*
X37634Y47153D01*
X37550Y46950D01*
Y46903D01*
X37400Y46829D01*
X37341Y46874D01*
X37116Y46967D01*
X36975Y46986D01*
Y45891D01*
X37808D01*
Y46066D01*
X37789Y46212D01*
X37926Y46318D01*
X37991Y46291D01*
X38209D01*
X38412Y46375D01*
X38566Y46529D01*
X38650Y46732D01*
Y46950D01*
X38566Y47153D01*
X38412Y47307D01*
X38209Y47391D01*
D02*
G37*
G36*
X44425Y46986D02*
Y45891D01*
X45258D01*
Y46066D01*
X45226Y46307D01*
X45133Y46532D01*
X44985Y46726D01*
X44791Y46874D01*
X44566Y46967D01*
X44425Y46986D01*
D02*
G37*
G36*
X36775Y46986D02*
X36634Y46967D01*
X36409Y46874D01*
X36215Y46726D01*
X36067Y46532D01*
X35974Y46307D01*
X35942Y46066D01*
Y45891D01*
X36775D01*
Y46986D01*
D02*
G37*
G36*
X43209Y47391D02*
X42991D01*
X42788Y47307D01*
X42634Y47153D01*
X42550Y46950D01*
Y46732D01*
X42634Y46529D01*
X42788Y46375D01*
X42991Y46291D01*
X43209D01*
X43274Y46318D01*
X43411Y46212D01*
X43392Y46066D01*
Y45891D01*
X44225D01*
Y46986D01*
X44084Y46967D01*
X43859Y46874D01*
X43800Y46829D01*
X43650Y46903D01*
Y46950D01*
X43566Y47153D01*
X43412Y47307D01*
X43209Y47391D01*
D02*
G37*
G36*
X36775Y45691D02*
X35942D01*
Y45516D01*
X35974Y45275D01*
X36067Y45050D01*
X36215Y44856D01*
X36409Y44708D01*
X36634Y44615D01*
X36775Y44596D01*
Y45691D01*
D02*
G37*
G36*
X45258D02*
X44425D01*
Y44596D01*
X44566Y44615D01*
X44791Y44708D01*
X44985Y44856D01*
X45133Y45050D01*
X45226Y45275D01*
X45258Y45516D01*
Y45691D01*
D02*
G37*
G36*
X44225D02*
X43392D01*
Y45516D01*
X43424Y45275D01*
X43517Y45050D01*
X43665Y44856D01*
X43859Y44708D01*
X44084Y44615D01*
X44225Y44596D01*
Y45691D01*
D02*
G37*
G36*
X37808D02*
X36975D01*
Y44596D01*
X37116Y44615D01*
X37341Y44708D01*
X37535Y44856D01*
X37683Y45050D01*
X37776Y45275D01*
X37808Y45516D01*
Y45691D01*
D02*
G37*
G36*
X16110Y44835D02*
X16100D01*
Y44100D01*
X16835D01*
Y44110D01*
X16778Y44322D01*
X16668Y44513D01*
X16513Y44668D01*
X16322Y44778D01*
X16110Y44835D01*
D02*
G37*
G36*
X15900D02*
X15890D01*
X15678Y44778D01*
X15487Y44668D01*
X15332Y44513D01*
X15222Y44322D01*
X15165Y44110D01*
Y44100D01*
X15900D01*
Y44835D01*
D02*
G37*
G36*
X9110D02*
X9100D01*
Y44100D01*
X9835D01*
Y44110D01*
X9778Y44322D01*
X9668Y44513D01*
X9513Y44668D01*
X9322Y44778D01*
X9110Y44835D01*
D02*
G37*
G36*
X57650Y45082D02*
X56000D01*
Y43432D01*
X57650D01*
Y45082D01*
D02*
G37*
G36*
X55800D02*
X54150D01*
Y43432D01*
X55800D01*
Y45082D01*
D02*
G37*
G36*
X16835Y43900D02*
X16100D01*
Y43165D01*
X16110D01*
X16322Y43222D01*
X16513Y43332D01*
X16668Y43487D01*
X16778Y43678D01*
X16835Y43890D01*
Y43900D01*
D02*
G37*
G36*
X15900D02*
X15165D01*
Y43890D01*
X15222Y43678D01*
X15332Y43487D01*
X15487Y43332D01*
X15678Y43222D01*
X15890Y43165D01*
X15900D01*
Y43900D01*
D02*
G37*
G36*
X9835D02*
X9100D01*
Y43165D01*
X9110D01*
X9322Y43222D01*
X9513Y43332D01*
X9668Y43487D01*
X9778Y43678D01*
X9835Y43890D01*
Y43900D01*
D02*
G37*
G36*
X57650Y43232D02*
X56000D01*
Y41582D01*
X57650D01*
Y43232D01*
D02*
G37*
G36*
X55800D02*
X54150D01*
Y41582D01*
X55800D01*
Y43232D01*
D02*
G37*
G36*
X37812Y41746D02*
X37780D01*
Y40846D01*
X38680D01*
Y40878D01*
X38612Y41132D01*
X38480Y41360D01*
X38294Y41546D01*
X38066Y41678D01*
X37812Y41746D01*
D02*
G37*
G36*
X37580D02*
X37548D01*
X37294Y41678D01*
X37066Y41546D01*
X36880Y41360D01*
X36748Y41132D01*
X36680Y40878D01*
Y40846D01*
X37580D01*
Y41746D01*
D02*
G37*
G36*
X35265Y41696D02*
X35015D01*
X34773Y41631D01*
X34557Y41506D01*
X34380Y41330D01*
X34255Y41113D01*
X34190Y40871D01*
Y40621D01*
X34255Y40380D01*
X34380Y40163D01*
X34557Y39986D01*
X34773Y39861D01*
X35015Y39796D01*
X35265D01*
X35507Y39861D01*
X35723Y39986D01*
X35900Y40163D01*
X36025Y40380D01*
X36090Y40621D01*
Y40871D01*
X36025Y41113D01*
X35900Y41330D01*
X35723Y41506D01*
X35507Y41631D01*
X35265Y41696D01*
D02*
G37*
G36*
X38680Y40646D02*
X37780D01*
Y39746D01*
X37812D01*
X38066Y39814D01*
X38294Y39946D01*
X38480Y40132D01*
X38612Y40360D01*
X38680Y40615D01*
Y40646D01*
D02*
G37*
G36*
X37580D02*
X36680D01*
Y40615D01*
X36748Y40360D01*
X36880Y40132D01*
X37066Y39946D01*
X37294Y39814D01*
X37548Y39746D01*
X37580D01*
Y40646D01*
D02*
G37*
G36*
X15403Y42915D02*
X15027D01*
X14659Y42842D01*
X14313Y42698D01*
X14001Y42490D01*
X13735Y42224D01*
X13527Y41912D01*
X13383Y41566D01*
X13310Y41198D01*
Y40822D01*
X13383Y40454D01*
X13527Y40108D01*
X13735Y39796D01*
X14001Y39530D01*
X14313Y39322D01*
X14659Y39178D01*
X15027Y39105D01*
X15403D01*
X15771Y39178D01*
X16117Y39322D01*
X16429Y39530D01*
X16695Y39796D01*
X16903Y40108D01*
X17047Y40454D01*
X17120Y40822D01*
Y41198D01*
X17047Y41566D01*
X16903Y41912D01*
X16695Y42224D01*
X16429Y42490D01*
X16117Y42698D01*
X15771Y42842D01*
X15403Y42915D01*
D02*
G37*
G36*
X29194Y50775D02*
X29006D01*
X28831Y50703D01*
X28697Y50569D01*
X28625Y50394D01*
Y50206D01*
X28697Y50031D01*
X28831Y49897D01*
X29006Y49825D01*
X29098D01*
X30921Y48003D01*
X30921Y48003D01*
X31053Y47914D01*
X31209Y47883D01*
X31209Y47883D01*
X44879D01*
X44879Y47883D01*
X44924Y47892D01*
X46902D01*
Y47135D01*
X48544D01*
Y38989D01*
X48544Y38989D01*
X48575Y38833D01*
X48625Y38758D01*
Y38706D01*
X48697Y38531D01*
X48831Y38397D01*
X49006Y38325D01*
X49194D01*
X49369Y38397D01*
X49503Y38531D01*
X49575Y38706D01*
Y38894D01*
X49503Y39069D01*
X49369Y39203D01*
X49360Y39207D01*
Y47135D01*
X51002D01*
Y49465D01*
X46902D01*
Y48708D01*
X45213D01*
X45139Y48858D01*
X45152Y48875D01*
X45230Y49064D01*
X45257Y49266D01*
Y49491D01*
X44475D01*
X43693D01*
Y49266D01*
X43720Y49064D01*
X43798Y48875D01*
X43818Y48849D01*
X43744Y48699D01*
X37456D01*
X37382Y48849D01*
X37402Y48875D01*
X37480Y49064D01*
X37507Y49266D01*
Y49491D01*
X36725D01*
X35943D01*
Y49266D01*
X35970Y49064D01*
X36048Y48875D01*
X36068Y48849D01*
X35994Y48699D01*
X31378D01*
X29488Y50588D01*
X29473Y50598D01*
X29369Y50703D01*
X29194Y50775D01*
D02*
G37*
G36*
X22107Y50066D02*
X21918D01*
X21743Y49994D01*
X21609Y49860D01*
X21537Y49685D01*
Y49497D01*
X21609Y49322D01*
X21730Y49202D01*
Y41629D01*
X18476Y38375D01*
X18306D01*
X18131Y38303D01*
X17997Y38169D01*
X17925Y37994D01*
Y37806D01*
X17997Y37631D01*
X18131Y37497D01*
X18306Y37425D01*
X18494D01*
X18669Y37497D01*
X18803Y37631D01*
X18875Y37806D01*
Y37976D01*
X22212Y41312D01*
X22212Y41312D01*
X22273Y41404D01*
X22294Y41512D01*
X22294Y41512D01*
Y49202D01*
X22415Y49322D01*
X22487Y49497D01*
Y49685D01*
X22415Y49860D01*
X22281Y49994D01*
X22107Y50066D01*
D02*
G37*
G36*
X33610Y37835D02*
X33600D01*
Y37100D01*
X34335D01*
Y37110D01*
X34278Y37322D01*
X34168Y37513D01*
X34013Y37668D01*
X33822Y37778D01*
X33610Y37835D01*
D02*
G37*
G36*
X33400D02*
X33390D01*
X33178Y37778D01*
X32987Y37668D01*
X32832Y37513D01*
X32722Y37322D01*
X32665Y37110D01*
Y37100D01*
X33400D01*
Y37835D01*
D02*
G37*
G36*
X26610D02*
X26600D01*
Y37100D01*
X27335D01*
Y37110D01*
X27278Y37322D01*
X27168Y37513D01*
X27013Y37668D01*
X26822Y37778D01*
X26610Y37835D01*
D02*
G37*
G36*
X26400D02*
X26390D01*
X26178Y37778D01*
X25987Y37668D01*
X25832Y37513D01*
X25722Y37322D01*
X25665Y37110D01*
Y37100D01*
X26400D01*
Y37835D01*
D02*
G37*
G36*
X12610D02*
X12600D01*
Y37100D01*
X13335D01*
Y37110D01*
X13278Y37322D01*
X13168Y37513D01*
X13013Y37668D01*
X12822Y37778D01*
X12610Y37835D01*
D02*
G37*
G36*
X12400D02*
X12390D01*
X12178Y37778D01*
X11987Y37668D01*
X11832Y37513D01*
X11722Y37322D01*
X11665Y37110D01*
Y37100D01*
X12400D01*
Y37835D01*
D02*
G37*
G36*
X9500Y38215D02*
X7500D01*
Y37100D01*
X9500D01*
Y38215D01*
D02*
G37*
G36*
X7300D02*
X5300D01*
Y37100D01*
X7300D01*
Y38215D01*
D02*
G37*
G36*
X34335Y36900D02*
X33600D01*
Y36165D01*
X33610D01*
X33822Y36222D01*
X34013Y36332D01*
X34168Y36487D01*
X34278Y36678D01*
X34335Y36890D01*
Y36900D01*
D02*
G37*
G36*
X33400D02*
X32665D01*
Y36890D01*
X32722Y36678D01*
X32832Y36487D01*
X32987Y36332D01*
X33178Y36222D01*
X33390Y36165D01*
X33400D01*
Y36900D01*
D02*
G37*
G36*
X27335D02*
X26600D01*
Y36165D01*
X26610D01*
X26822Y36222D01*
X27013Y36332D01*
X27168Y36487D01*
X27278Y36678D01*
X27335Y36890D01*
Y36900D01*
D02*
G37*
G36*
X26400D02*
X25665D01*
Y36890D01*
X25722Y36678D01*
X25832Y36487D01*
X25987Y36332D01*
X26178Y36222D01*
X26390Y36165D01*
X26400D01*
Y36900D01*
D02*
G37*
G36*
X13335D02*
X12600D01*
Y36165D01*
X12610D01*
X12822Y36222D01*
X13013Y36332D01*
X13168Y36487D01*
X13278Y36678D01*
X13335Y36890D01*
Y36900D01*
D02*
G37*
G36*
X12400D02*
X11665D01*
Y36890D01*
X11722Y36678D01*
X11832Y36487D01*
X11987Y36332D01*
X12178Y36222D01*
X12390Y36165D01*
X12400D01*
Y36900D01*
D02*
G37*
G36*
X57249Y37505D02*
X57051D01*
X56861Y37454D01*
X56689Y37355D01*
X56550Y37216D01*
X56451Y37044D01*
X56400Y36854D01*
Y36656D01*
X56451Y36466D01*
X56550Y36294D01*
X56689Y36155D01*
X56861Y36056D01*
X57051Y36005D01*
X57249D01*
X57439Y36056D01*
X57611Y36155D01*
X57750Y36294D01*
X57849Y36466D01*
X57900Y36656D01*
Y36854D01*
X57849Y37044D01*
X57750Y37216D01*
X57611Y37355D01*
X57439Y37454D01*
X57249Y37505D01*
D02*
G37*
G36*
X55249D02*
X55051D01*
X54861Y37454D01*
X54689Y37355D01*
X54550Y37216D01*
X54451Y37044D01*
X54400Y36854D01*
Y36656D01*
X54451Y36466D01*
X54550Y36294D01*
X54689Y36155D01*
X54861Y36056D01*
X55051Y36005D01*
X55249D01*
X55439Y36056D01*
X55611Y36155D01*
X55750Y36294D01*
X55849Y36466D01*
X55900Y36656D01*
Y36854D01*
X55849Y37044D01*
X55750Y37216D01*
X55611Y37355D01*
X55439Y37454D01*
X55249Y37505D01*
D02*
G37*
G36*
X53249D02*
X53051D01*
X52861Y37454D01*
X52689Y37355D01*
X52550Y37216D01*
X52451Y37044D01*
X52400Y36854D01*
Y36656D01*
X52451Y36466D01*
X52550Y36294D01*
X52689Y36155D01*
X52861Y36056D01*
X53051Y36005D01*
X53249D01*
X53439Y36056D01*
X53611Y36155D01*
X53750Y36294D01*
X53849Y36466D01*
X53900Y36656D01*
Y36854D01*
X53849Y37044D01*
X53750Y37216D01*
X53611Y37355D01*
X53439Y37454D01*
X53249Y37505D01*
D02*
G37*
G36*
X51249D02*
X51051D01*
X50861Y37454D01*
X50689Y37355D01*
X50550Y37216D01*
X50451Y37044D01*
X50400Y36854D01*
Y36656D01*
X50451Y36466D01*
X50550Y36294D01*
X50689Y36155D01*
X50861Y36056D01*
X51051Y36005D01*
X51249D01*
X51439Y36056D01*
X51611Y36155D01*
X51750Y36294D01*
X51849Y36466D01*
X51900Y36656D01*
Y36854D01*
X51849Y37044D01*
X51750Y37216D01*
X51611Y37355D01*
X51439Y37454D01*
X51249Y37505D01*
D02*
G37*
G36*
X47249D02*
X47051D01*
X46861Y37454D01*
X46689Y37355D01*
X46550Y37216D01*
X46451Y37044D01*
X46400Y36854D01*
Y36656D01*
X46451Y36466D01*
X46550Y36294D01*
X46689Y36155D01*
X46861Y36056D01*
X47051Y36005D01*
X47249D01*
X47439Y36056D01*
X47611Y36155D01*
X47750Y36294D01*
X47849Y36466D01*
X47900Y36656D01*
Y36854D01*
X47849Y37044D01*
X47750Y37216D01*
X47611Y37355D01*
X47439Y37454D01*
X47249Y37505D01*
D02*
G37*
G36*
X49249D02*
X49051D01*
X48861Y37454D01*
X48689Y37355D01*
X48550Y37216D01*
X48451Y37044D01*
X48400Y36854D01*
Y36656D01*
X48451Y36466D01*
X48455Y36459D01*
X41306Y29311D01*
X41245Y29219D01*
X41224Y29111D01*
X41224Y29111D01*
Y27417D01*
X41198Y27387D01*
X41119Y27406D01*
X41048Y27470D01*
Y32254D01*
X44854Y36060D01*
X44861Y36056D01*
X45051Y36005D01*
X45249D01*
X45439Y36056D01*
X45611Y36155D01*
X45750Y36294D01*
X45849Y36466D01*
X45900Y36656D01*
Y36854D01*
X45849Y37044D01*
X45750Y37216D01*
X45611Y37355D01*
X45439Y37454D01*
X45249Y37505D01*
X45051D01*
X44861Y37454D01*
X44689Y37355D01*
X44550Y37216D01*
X44451Y37044D01*
X44400Y36854D01*
Y36656D01*
X44451Y36466D01*
X44455Y36459D01*
X40566Y32570D01*
X40505Y32479D01*
X40483Y32371D01*
X40483Y32371D01*
Y27426D01*
X38819Y25761D01*
X38680Y25819D01*
Y25878D01*
X38612Y26132D01*
X38480Y26360D01*
X38294Y26546D01*
X38066Y26678D01*
X37812Y26746D01*
X37780D01*
Y25746D01*
X37680D01*
Y25646D01*
X36680D01*
Y25615D01*
X36748Y25360D01*
X36880Y25132D01*
X37066Y24946D01*
X37294Y24814D01*
X37548Y24746D01*
X37608D01*
X37665Y24608D01*
X32312Y19255D01*
X32265Y19185D01*
X32176Y19189D01*
X32115Y19210D01*
Y20840D01*
X32236Y20960D01*
X32308Y21135D01*
Y21324D01*
X32236Y21498D01*
X32102Y21632D01*
X31927Y21704D01*
X31739D01*
X31564Y21632D01*
X31537Y21605D01*
X31387Y21668D01*
Y25302D01*
X31899Y25814D01*
X32069D01*
X32244Y25886D01*
X32378Y26020D01*
X32450Y26195D01*
Y26383D01*
X32378Y26558D01*
X32244Y26692D01*
X32069Y26764D01*
X31881D01*
X31706Y26692D01*
X31572Y26558D01*
X31500Y26383D01*
Y26213D01*
X31122Y25835D01*
X30983Y25893D01*
Y28584D01*
X31224Y28825D01*
X31394D01*
X31569Y28897D01*
X31703Y29031D01*
X31775Y29206D01*
Y29394D01*
X31703Y29569D01*
X31569Y29703D01*
X31394Y29775D01*
X31206D01*
X31031Y29703D01*
X30897Y29569D01*
X30825Y29394D01*
Y29224D01*
X30531Y28931D01*
X30413Y28964D01*
X30381Y28987D01*
Y29365D01*
X31899Y30883D01*
X32069D01*
X32244Y30955D01*
X32378Y31089D01*
X32450Y31264D01*
Y31452D01*
X32378Y31627D01*
X32244Y31761D01*
X32069Y31833D01*
X31881D01*
X31706Y31761D01*
X31572Y31627D01*
X31500Y31452D01*
Y31282D01*
X29899Y29682D01*
X29838Y29590D01*
X29817Y29482D01*
X29817Y29482D01*
Y12446D01*
X29817Y12446D01*
X29838Y12338D01*
X29899Y12246D01*
X39036Y3109D01*
X38993Y3034D01*
X38928Y2792D01*
Y2542D01*
X38993Y2300D01*
X39118Y2084D01*
X39295Y1907D01*
X39511Y1782D01*
X39753Y1717D01*
X40003D01*
X40245Y1782D01*
X40461Y1907D01*
X40638Y2084D01*
X40763Y2300D01*
X40828Y2542D01*
Y2792D01*
X40763Y3034D01*
X40760Y3040D01*
X40776Y3072D01*
X40863Y3161D01*
X40934Y3147D01*
X41425D01*
X41469Y3101D01*
X41523Y2997D01*
X41468Y2792D01*
Y2542D01*
X41533Y2300D01*
X41658Y2084D01*
X41835Y1907D01*
X42051Y1782D01*
X42293Y1717D01*
X42543D01*
X42785Y1782D01*
X43001Y1907D01*
X43031Y1937D01*
X43172Y1865D01*
X43222Y1678D01*
X43332Y1487D01*
X43487Y1332D01*
X43678Y1222D01*
X43890Y1165D01*
X43900D01*
Y2000D01*
Y2835D01*
X43890D01*
X43678Y2778D01*
X43518Y2686D01*
X43368Y2740D01*
Y2792D01*
X43303Y3034D01*
X43178Y3250D01*
X43001Y3427D01*
X42785Y3552D01*
X42543Y3617D01*
X42293D01*
X42051Y3552D01*
X41976Y3509D01*
X41856Y3629D01*
X41764Y3690D01*
X41656Y3711D01*
X41656Y3711D01*
X41051D01*
X35116Y9646D01*
X35178Y9796D01*
X35265D01*
X35507Y9861D01*
X35723Y9986D01*
X35900Y10163D01*
X36025Y10380D01*
X36090Y10621D01*
Y10871D01*
X36025Y11113D01*
X35900Y11330D01*
X35723Y11506D01*
X35507Y11631D01*
X35265Y11696D01*
X35015D01*
X34773Y11631D01*
X34557Y11506D01*
X34380Y11330D01*
X34255Y11113D01*
X34190Y10871D01*
Y10785D01*
X34040Y10723D01*
X30983Y13779D01*
Y13963D01*
X31127Y13994D01*
X31133Y13994D01*
X31266Y13861D01*
X31441Y13789D01*
X31611D01*
X32899Y12500D01*
X32991Y12439D01*
X33099Y12418D01*
X33099Y12418D01*
X49095D01*
X49095Y12418D01*
X49203Y12439D01*
X49295Y12500D01*
X49984Y13189D01*
X49984Y13189D01*
X50854Y14060D01*
X50861Y14056D01*
X51051Y14005D01*
X51249D01*
X51439Y14056D01*
X51611Y14155D01*
X51750Y14294D01*
X51849Y14466D01*
X51900Y14656D01*
Y14854D01*
X51849Y15044D01*
X51750Y15216D01*
X51611Y15355D01*
X51439Y15454D01*
X51249Y15505D01*
X51051D01*
X50861Y15454D01*
X50689Y15355D01*
X50550Y15216D01*
X50451Y15044D01*
X50400Y14854D01*
Y14656D01*
X50451Y14466D01*
X50455Y14459D01*
X49584Y13589D01*
X49584Y13589D01*
X48978Y12982D01*
X33216D01*
X32010Y14189D01*
Y14359D01*
X31938Y14533D01*
X31804Y14667D01*
X31629Y14739D01*
X31580D01*
X31475Y14851D01*
X31481Y14917D01*
X31613Y15025D01*
X31801D01*
X31976Y15097D01*
X32110Y15231D01*
X32182Y15406D01*
Y15594D01*
X32110Y15769D01*
X32089Y15790D01*
X32094Y15797D01*
X32115Y15905D01*
Y17944D01*
X32265Y18003D01*
X32418Y17940D01*
X32606D01*
X32781Y18012D01*
X32915Y18146D01*
X32987Y18321D01*
Y18509D01*
X32915Y18684D01*
X32814Y18785D01*
X32817Y18945D01*
X32908Y19026D01*
X33062Y18993D01*
X33097Y18908D01*
X33231Y18774D01*
X33406Y18702D01*
X33595D01*
X33769Y18774D01*
X33903Y18908D01*
X33975Y19083D01*
Y19253D01*
X41706Y26983D01*
X41706Y26983D01*
X41767Y27075D01*
X41788Y27183D01*
X41788Y27183D01*
Y28994D01*
X43048Y30254D01*
X43183Y30176D01*
X43165Y30110D01*
Y30100D01*
X43900D01*
Y30835D01*
X43890D01*
X43824Y30817D01*
X43746Y30952D01*
X48854Y36060D01*
X48861Y36056D01*
X49051Y36005D01*
X49249D01*
X49439Y36056D01*
X49611Y36155D01*
X49750Y36294D01*
X49849Y36466D01*
X49900Y36656D01*
Y36854D01*
X49849Y37044D01*
X49750Y37216D01*
X49611Y37355D01*
X49439Y37454D01*
X49249Y37505D01*
D02*
G37*
G36*
X43249D02*
X43051D01*
X42861Y37454D01*
X42689Y37355D01*
X42550Y37216D01*
X42451Y37044D01*
X42400Y36854D01*
Y36656D01*
X42451Y36466D01*
X42550Y36294D01*
X42689Y36155D01*
X42861Y36056D01*
X43051Y36005D01*
X43249D01*
X43439Y36056D01*
X43611Y36155D01*
X43750Y36294D01*
X43849Y36466D01*
X43900Y36656D01*
Y36854D01*
X43849Y37044D01*
X43750Y37216D01*
X43611Y37355D01*
X43439Y37454D01*
X43249Y37505D01*
D02*
G37*
G36*
X41249D02*
X41051D01*
X40861Y37454D01*
X40689Y37355D01*
X40550Y37216D01*
X40451Y37044D01*
X40400Y36854D01*
Y36656D01*
X40451Y36466D01*
X40550Y36294D01*
X40689Y36155D01*
X40861Y36056D01*
X41051Y36005D01*
X41249D01*
X41439Y36056D01*
X41611Y36155D01*
X41750Y36294D01*
X41849Y36466D01*
X41900Y36656D01*
Y36854D01*
X41849Y37044D01*
X41750Y37216D01*
X41611Y37355D01*
X41439Y37454D01*
X41249Y37505D01*
D02*
G37*
G36*
X9500Y36900D02*
X7500D01*
Y35785D01*
X9500D01*
Y36900D01*
D02*
G37*
G36*
X7300D02*
X5300D01*
Y35785D01*
X7300D01*
Y36900D01*
D02*
G37*
G36*
X24706Y50066D02*
X24518D01*
X24343Y49994D01*
X24209Y49860D01*
X24137Y49685D01*
Y49497D01*
X24209Y49322D01*
X24330Y49202D01*
Y39829D01*
X18800Y34300D01*
X18739Y34208D01*
X18718Y34100D01*
X18718Y34100D01*
Y33489D01*
X18597Y33369D01*
X18525Y33194D01*
Y33006D01*
X18597Y32831D01*
X18731Y32697D01*
X18906Y32625D01*
X19094D01*
X19269Y32697D01*
X19403Y32831D01*
X19475Y33006D01*
Y33194D01*
X19403Y33369D01*
X19282Y33489D01*
Y33983D01*
X24812Y39512D01*
X24812Y39512D01*
X24873Y39604D01*
X24894Y39712D01*
X24894Y39712D01*
Y49202D01*
X25015Y49322D01*
X25087Y49497D01*
Y49685D01*
X25015Y49860D01*
X24881Y49994D01*
X24706Y50066D01*
D02*
G37*
G36*
X11148Y32546D02*
X10872D01*
X10605Y32475D01*
X10365Y32336D01*
X10170Y32141D01*
X10032Y31902D01*
X9960Y31634D01*
Y31358D01*
X10032Y31091D01*
X10170Y30852D01*
X10365Y30656D01*
X10605Y30518D01*
X10872Y30446D01*
X11148D01*
X11415Y30518D01*
X11655Y30656D01*
X11850Y30852D01*
X11988Y31091D01*
X12060Y31358D01*
Y31634D01*
X11988Y31902D01*
X11850Y32141D01*
X11655Y32336D01*
X11415Y32475D01*
X11148Y32546D01*
D02*
G37*
G36*
X51110Y30835D02*
X51100D01*
Y30100D01*
X51835D01*
Y30110D01*
X51778Y30322D01*
X51668Y30513D01*
X51513Y30668D01*
X51322Y30778D01*
X51110Y30835D01*
D02*
G37*
G36*
X50900D02*
X50890D01*
X50678Y30778D01*
X50487Y30668D01*
X50332Y30513D01*
X50222Y30322D01*
X50165Y30110D01*
Y30100D01*
X50900D01*
Y30835D01*
D02*
G37*
G36*
X44110D02*
X44100D01*
Y30100D01*
X44835D01*
Y30110D01*
X44778Y30322D01*
X44668Y30513D01*
X44513Y30668D01*
X44322Y30778D01*
X44110Y30835D01*
D02*
G37*
G36*
X9110D02*
X9100D01*
Y30100D01*
X9835D01*
Y30110D01*
X9778Y30322D01*
X9668Y30513D01*
X9513Y30668D01*
X9322Y30778D01*
X9110Y30835D01*
D02*
G37*
G36*
X8900D02*
X8890D01*
X8678Y30778D01*
X8487Y30668D01*
X8332Y30513D01*
X8222Y30322D01*
X8165Y30110D01*
Y30100D01*
X8900D01*
Y30835D01*
D02*
G37*
G36*
X2110D02*
X2100D01*
Y30100D01*
X2835D01*
Y30110D01*
X2778Y30322D01*
X2668Y30513D01*
X2513Y30668D01*
X2322Y30778D01*
X2110Y30835D01*
D02*
G37*
G36*
X1900D02*
X1890D01*
X1678Y30778D01*
X1487Y30668D01*
X1332Y30513D01*
X1222Y30322D01*
X1165Y30110D01*
Y30100D01*
X1900D01*
Y30835D01*
D02*
G37*
G36*
X51835Y29900D02*
X51100D01*
Y29165D01*
X51110D01*
X51322Y29222D01*
X51513Y29332D01*
X51668Y29487D01*
X51778Y29678D01*
X51835Y29890D01*
Y29900D01*
D02*
G37*
G36*
X50900D02*
X50165D01*
Y29890D01*
X50222Y29678D01*
X50332Y29487D01*
X50487Y29332D01*
X50678Y29222D01*
X50890Y29165D01*
X50900D01*
Y29900D01*
D02*
G37*
G36*
X44835D02*
X44100D01*
Y29165D01*
X44110D01*
X44322Y29222D01*
X44513Y29332D01*
X44668Y29487D01*
X44778Y29678D01*
X44835Y29890D01*
Y29900D01*
D02*
G37*
G36*
X43900D02*
X43165D01*
Y29890D01*
X43222Y29678D01*
X43332Y29487D01*
X43487Y29332D01*
X43678Y29222D01*
X43890Y29165D01*
X43900D01*
Y29900D01*
D02*
G37*
G36*
X9835D02*
X9100D01*
Y29165D01*
X9110D01*
X9322Y29222D01*
X9513Y29332D01*
X9668Y29487D01*
X9778Y29678D01*
X9835Y29890D01*
Y29900D01*
D02*
G37*
G36*
X8900D02*
X8165D01*
Y29890D01*
X8222Y29678D01*
X8332Y29487D01*
X8487Y29332D01*
X8678Y29222D01*
X8890Y29165D01*
X8900D01*
Y29900D01*
D02*
G37*
G36*
X2835D02*
X2100D01*
Y29165D01*
X2110D01*
X2322Y29222D01*
X2513Y29332D01*
X2668Y29487D01*
X2778Y29678D01*
X2835Y29890D01*
Y29900D01*
D02*
G37*
G36*
X1900D02*
X1165D01*
Y29890D01*
X1222Y29678D01*
X1332Y29487D01*
X1487Y29332D01*
X1678Y29222D01*
X1890Y29165D01*
X1900D01*
Y29900D01*
D02*
G37*
G36*
X37580Y26746D02*
X37548D01*
X37294Y26678D01*
X37066Y26546D01*
X36880Y26360D01*
X36748Y26132D01*
X36680Y25878D01*
Y25846D01*
X37580D01*
Y26746D01*
D02*
G37*
G36*
X35265Y26696D02*
X35015D01*
X34773Y26631D01*
X34557Y26506D01*
X34380Y26330D01*
X34255Y26113D01*
X34190Y25871D01*
Y25621D01*
X34255Y25380D01*
X34380Y25163D01*
X34557Y24986D01*
X34773Y24861D01*
X35015Y24796D01*
X35265D01*
X35507Y24861D01*
X35723Y24986D01*
X35900Y25163D01*
X36025Y25380D01*
X36090Y25621D01*
Y25871D01*
X36025Y26113D01*
X35900Y26330D01*
X35723Y26506D01*
X35507Y26631D01*
X35265Y26696D01*
D02*
G37*
G36*
X28117Y26567D02*
X26052D01*
Y24502D01*
X28117D01*
Y26567D01*
D02*
G37*
G36*
X25852D02*
X23787D01*
Y24502D01*
X25852D01*
Y26567D01*
D02*
G37*
G36*
X54610Y23835D02*
X54600D01*
Y23100D01*
X55335D01*
Y23110D01*
X55278Y23322D01*
X55168Y23513D01*
X55013Y23668D01*
X54822Y23778D01*
X54610Y23835D01*
D02*
G37*
G36*
X54400D02*
X54390D01*
X54178Y23778D01*
X53987Y23668D01*
X53832Y23513D01*
X53722Y23322D01*
X53665Y23110D01*
Y23100D01*
X54400D01*
Y23835D01*
D02*
G37*
G36*
X47610D02*
X47600D01*
Y23100D01*
X48335D01*
Y23110D01*
X48278Y23322D01*
X48168Y23513D01*
X48013Y23668D01*
X47822Y23778D01*
X47610Y23835D01*
D02*
G37*
G36*
X47400D02*
X47390D01*
X47178Y23778D01*
X46987Y23668D01*
X46832Y23513D01*
X46722Y23322D01*
X46665Y23110D01*
Y23100D01*
X47400D01*
Y23835D01*
D02*
G37*
G36*
X12610D02*
X12600D01*
Y23100D01*
X13335D01*
Y23110D01*
X13278Y23322D01*
X13168Y23513D01*
X13013Y23668D01*
X12822Y23778D01*
X12610Y23835D01*
D02*
G37*
G36*
X12400D02*
X12390D01*
X12178Y23778D01*
X11987Y23668D01*
X11832Y23513D01*
X11722Y23322D01*
X11665Y23110D01*
Y23100D01*
X12400D01*
Y23835D01*
D02*
G37*
G36*
X5610D02*
X5600D01*
Y23100D01*
X6335D01*
Y23110D01*
X6278Y23322D01*
X6168Y23513D01*
X6013Y23668D01*
X5822Y23778D01*
X5610Y23835D01*
D02*
G37*
G36*
X5400D02*
X5390D01*
X5178Y23778D01*
X4987Y23668D01*
X4832Y23513D01*
X4722Y23322D01*
X4665Y23110D01*
Y23100D01*
X5400D01*
Y23835D01*
D02*
G37*
G36*
X33175Y23429D02*
X33170D01*
Y23004D01*
X33595D01*
Y23008D01*
X33515Y23201D01*
X33368Y23349D01*
X33175Y23429D01*
D02*
G37*
G36*
X32970D02*
X32966D01*
X32773Y23349D01*
X32625Y23201D01*
X32545Y23008D01*
Y23004D01*
X32970D01*
Y23429D01*
D02*
G37*
G36*
X11094Y34575D02*
X10906D01*
X10731Y34503D01*
X10597Y34369D01*
X10525Y34194D01*
Y34006D01*
X10597Y33831D01*
X10731Y33697D01*
X10906Y33625D01*
X11076D01*
X13404Y31297D01*
X13404Y31297D01*
X13496Y31235D01*
X13604Y31214D01*
X13604Y31214D01*
X14999D01*
X15032Y31091D01*
X15170Y30852D01*
X15365Y30656D01*
X15605Y30518D01*
X15728Y30485D01*
Y23459D01*
X15728Y23459D01*
X15749Y23351D01*
X15810Y23260D01*
X15851Y23219D01*
X15825Y23157D01*
Y22968D01*
X15897Y22793D01*
X16031Y22660D01*
X16206Y22587D01*
X16394D01*
X16569Y22660D01*
X16703Y22793D01*
X16775Y22968D01*
Y23157D01*
X16703Y23331D01*
X16569Y23465D01*
X16394Y23537D01*
X16332D01*
X16292Y23576D01*
Y30485D01*
X16415Y30518D01*
X16655Y30656D01*
X16850Y30852D01*
X16988Y31091D01*
X17060Y31358D01*
Y31634D01*
X16988Y31902D01*
X16850Y32141D01*
X16655Y32336D01*
X16415Y32475D01*
X16148Y32546D01*
X15872D01*
X15605Y32475D01*
X15365Y32336D01*
X15170Y32141D01*
X15032Y31902D01*
X14999Y31779D01*
X13721D01*
X11475Y34024D01*
Y34194D01*
X11403Y34369D01*
X11269Y34503D01*
X11094Y34575D01*
D02*
G37*
G36*
X33595Y22804D02*
X33170D01*
Y22379D01*
X33175D01*
X33368Y22459D01*
X33515Y22607D01*
X33595Y22800D01*
Y22804D01*
D02*
G37*
G36*
X32970D02*
X32545D01*
Y22800D01*
X32625Y22607D01*
X32773Y22459D01*
X32966Y22379D01*
X32970D01*
Y22804D01*
D02*
G37*
G36*
X28117Y24302D02*
X26052D01*
Y22237D01*
X28117D01*
Y24302D01*
D02*
G37*
G36*
X25852D02*
X23787D01*
Y22237D01*
X25852D01*
Y24302D01*
D02*
G37*
G36*
X55335Y22900D02*
X54600D01*
Y22165D01*
X54610D01*
X54822Y22222D01*
X55013Y22332D01*
X55168Y22487D01*
X55278Y22678D01*
X55335Y22890D01*
Y22900D01*
D02*
G37*
G36*
X54400D02*
X53665D01*
Y22890D01*
X53722Y22678D01*
X53832Y22487D01*
X53987Y22332D01*
X54178Y22222D01*
X54390Y22165D01*
X54400D01*
Y22900D01*
D02*
G37*
G36*
X48335D02*
X47600D01*
Y22165D01*
X47610D01*
X47822Y22222D01*
X48013Y22332D01*
X48168Y22487D01*
X48278Y22678D01*
X48335Y22890D01*
Y22900D01*
D02*
G37*
G36*
X47400D02*
X46665D01*
Y22890D01*
X46722Y22678D01*
X46832Y22487D01*
X46987Y22332D01*
X47178Y22222D01*
X47390Y22165D01*
X47400D01*
Y22900D01*
D02*
G37*
G36*
X13335D02*
X12600D01*
Y22165D01*
X12610D01*
X12822Y22222D01*
X13013Y22332D01*
X13168Y22487D01*
X13278Y22678D01*
X13335Y22890D01*
Y22900D01*
D02*
G37*
G36*
X12400D02*
X11665D01*
Y22890D01*
X11722Y22678D01*
X11832Y22487D01*
X11987Y22332D01*
X12178Y22222D01*
X12390Y22165D01*
X12400D01*
Y22900D01*
D02*
G37*
G36*
X6335D02*
X5600D01*
Y22165D01*
X5610D01*
X5822Y22222D01*
X6013Y22332D01*
X6168Y22487D01*
X6278Y22678D01*
X6335Y22890D01*
Y22900D01*
D02*
G37*
G36*
X5400D02*
X4665D01*
Y22890D01*
X4722Y22678D01*
X4832Y22487D01*
X4987Y22332D01*
X5178Y22222D01*
X5390Y22165D01*
X5400D01*
Y22900D01*
D02*
G37*
G36*
X33275Y21734D02*
X33270D01*
Y21309D01*
X33695D01*
Y21313D01*
X33615Y21506D01*
X33468Y21654D01*
X33275Y21734D01*
D02*
G37*
G36*
X33070D02*
X33066D01*
X32873Y21654D01*
X32725Y21506D01*
X32645Y21313D01*
Y21309D01*
X33070D01*
Y21734D01*
D02*
G37*
G36*
X15286Y21455D02*
X15281D01*
Y21030D01*
X15706D01*
Y21035D01*
X15626Y21228D01*
X15479Y21375D01*
X15286Y21455D01*
D02*
G37*
G36*
X15081D02*
X15077D01*
X14884Y21375D01*
X14736Y21228D01*
X14656Y21035D01*
Y21030D01*
X15081D01*
Y21455D01*
D02*
G37*
G36*
X33695Y21109D02*
X33270D01*
Y20684D01*
X33275D01*
X33468Y20764D01*
X33615Y20912D01*
X33695Y21105D01*
Y21109D01*
D02*
G37*
G36*
X33070D02*
X32645D01*
Y21105D01*
X32725Y20912D01*
X32873Y20764D01*
X33066Y20684D01*
X33070D01*
Y21109D01*
D02*
G37*
G36*
X15706Y20830D02*
X15281D01*
Y20405D01*
X15286D01*
X15479Y20485D01*
X15626Y20633D01*
X15706Y20826D01*
Y20830D01*
D02*
G37*
G36*
X15081D02*
X14656D01*
Y20826D01*
X14736Y20633D01*
X14884Y20485D01*
X15077Y20405D01*
X15081D01*
Y20830D01*
D02*
G37*
G36*
X16148Y20046D02*
X15872D01*
X15605Y19975D01*
X15365Y19836D01*
X15170Y19641D01*
X15032Y19402D01*
X14960Y19134D01*
Y18858D01*
X15032Y18591D01*
X15170Y18352D01*
X15365Y18156D01*
X15605Y18018D01*
X15872Y17946D01*
X16148D01*
X16415Y18018D01*
X16655Y18156D01*
X16850Y18352D01*
X16988Y18591D01*
X17060Y18858D01*
Y19134D01*
X16988Y19402D01*
X16850Y19641D01*
X16655Y19836D01*
X16415Y19975D01*
X16148Y20046D01*
D02*
G37*
G36*
X11148D02*
X10872D01*
X10605Y19975D01*
X10365Y19836D01*
X10170Y19641D01*
X10032Y19402D01*
X9960Y19134D01*
Y18858D01*
X10032Y18591D01*
X10170Y18352D01*
X10365Y18156D01*
X10605Y18018D01*
X10872Y17946D01*
X11148D01*
X11415Y18018D01*
X11655Y18156D01*
X11850Y18352D01*
X11988Y18591D01*
X12060Y18858D01*
Y19134D01*
X11988Y19402D01*
X11850Y19641D01*
X11655Y19836D01*
X11415Y19975D01*
X11148Y20046D01*
D02*
G37*
G36*
X44110Y16835D02*
X44100D01*
Y16100D01*
X44835D01*
Y16110D01*
X44778Y16322D01*
X44668Y16513D01*
X44513Y16668D01*
X44322Y16778D01*
X44110Y16835D01*
D02*
G37*
G36*
X43900D02*
X43890D01*
X43678Y16778D01*
X43487Y16668D01*
X43332Y16513D01*
X43222Y16322D01*
X43165Y16110D01*
Y16100D01*
X43900D01*
Y16835D01*
D02*
G37*
G36*
X9110D02*
X9100D01*
Y16100D01*
X9835D01*
Y16110D01*
X9778Y16322D01*
X9668Y16513D01*
X9513Y16668D01*
X9322Y16778D01*
X9110Y16835D01*
D02*
G37*
G36*
X8900D02*
X8890D01*
X8678Y16778D01*
X8487Y16668D01*
X8332Y16513D01*
X8222Y16322D01*
X8165Y16110D01*
Y16100D01*
X8900D01*
Y16835D01*
D02*
G37*
G36*
X2110D02*
X2100D01*
Y16100D01*
X2835D01*
Y16110D01*
X2778Y16322D01*
X2668Y16513D01*
X2513Y16668D01*
X2322Y16778D01*
X2110Y16835D01*
D02*
G37*
G36*
X1900D02*
X1890D01*
X1678Y16778D01*
X1487Y16668D01*
X1332Y16513D01*
X1222Y16322D01*
X1165Y16110D01*
Y16100D01*
X1900D01*
Y16835D01*
D02*
G37*
G36*
X9835Y15900D02*
X9100D01*
Y15165D01*
X9110D01*
X9322Y15222D01*
X9513Y15332D01*
X9668Y15487D01*
X9778Y15678D01*
X9835Y15890D01*
Y15900D01*
D02*
G37*
G36*
X8900D02*
X8165D01*
Y15890D01*
X8222Y15678D01*
X8332Y15487D01*
X8487Y15332D01*
X8678Y15222D01*
X8890Y15165D01*
X8900D01*
Y15900D01*
D02*
G37*
G36*
X2835D02*
X2100D01*
Y15165D01*
X2110D01*
X2322Y15222D01*
X2513Y15332D01*
X2668Y15487D01*
X2778Y15678D01*
X2835Y15890D01*
Y15900D01*
D02*
G37*
G36*
X1900D02*
X1165D01*
Y15890D01*
X1222Y15678D01*
X1332Y15487D01*
X1487Y15332D01*
X1678Y15222D01*
X1890Y15165D01*
X1900D01*
Y15900D01*
D02*
G37*
G36*
X41255Y15555D02*
X41250D01*
Y14855D01*
X41950D01*
Y14860D01*
X41895Y15064D01*
X41790Y15246D01*
X41641Y15395D01*
X41459Y15500D01*
X41255Y15555D01*
D02*
G37*
G36*
X41050D02*
X41045D01*
X40841Y15500D01*
X40659Y15395D01*
X40510Y15246D01*
X40405Y15064D01*
X40350Y14860D01*
Y14855D01*
X41050D01*
Y15555D01*
D02*
G37*
G36*
X35527Y20287D02*
X35339D01*
X35164Y20215D01*
X35030Y20081D01*
X34958Y19906D01*
Y19718D01*
X35030Y19543D01*
X35164Y19409D01*
X35339Y19337D01*
X35527D01*
X35702Y19409D01*
X35822Y19530D01*
X51976D01*
X56455Y15051D01*
X56451Y15044D01*
X56400Y14854D01*
Y14656D01*
X56451Y14466D01*
X56493Y14393D01*
X52000Y9900D01*
X51939Y9808D01*
X51918Y9700D01*
X51918Y9700D01*
Y6244D01*
X51918Y6244D01*
X51939Y6136D01*
X52000Y6044D01*
X53194Y4851D01*
Y1150D01*
X55524D01*
Y5250D01*
X53593D01*
X52482Y6361D01*
Y9583D01*
X56935Y14036D01*
X57051Y14005D01*
X57249D01*
X57439Y14056D01*
X57611Y14155D01*
X57750Y14294D01*
X57849Y14466D01*
X57900Y14656D01*
Y14854D01*
X57849Y15044D01*
X57750Y15216D01*
X57611Y15355D01*
X57439Y15454D01*
X57249Y15505D01*
X57051D01*
X56861Y15454D01*
X56854Y15450D01*
X52293Y20012D01*
X52201Y20073D01*
X52093Y20094D01*
X52093Y20094D01*
X35822D01*
X35702Y20215D01*
X35527Y20287D01*
D02*
G37*
G36*
X38194Y18890D02*
X38006D01*
X37831Y18818D01*
X37697Y18684D01*
X37625Y18509D01*
Y18321D01*
X37697Y18146D01*
X37831Y18012D01*
X38006Y17940D01*
X38194D01*
X38369Y18012D01*
X38489Y18133D01*
X51373D01*
X54455Y15051D01*
X54451Y15044D01*
X54400Y14854D01*
Y14656D01*
X54451Y14466D01*
X54455Y14459D01*
X48300Y8305D01*
X48239Y8213D01*
X48218Y8105D01*
X48218Y8105D01*
Y5250D01*
X47335D01*
Y1150D01*
X49665D01*
Y5250D01*
X48782D01*
Y7988D01*
X54854Y14060D01*
X54861Y14056D01*
X55051Y14005D01*
X55249D01*
X55439Y14056D01*
X55611Y14155D01*
X55750Y14294D01*
X55849Y14466D01*
X55900Y14656D01*
Y14854D01*
X55849Y15044D01*
X55750Y15216D01*
X55611Y15355D01*
X55439Y15454D01*
X55249Y15505D01*
X55051D01*
X54861Y15454D01*
X54854Y15450D01*
X51690Y18615D01*
X51598Y18676D01*
X51490Y18697D01*
X51490Y18697D01*
X38489D01*
X38369Y18818D01*
X38194Y18890D01*
D02*
G37*
G36*
X53249Y15505D02*
X53051D01*
X52861Y15454D01*
X52689Y15355D01*
X52550Y15216D01*
X52451Y15044D01*
X52400Y14854D01*
Y14656D01*
X52451Y14466D01*
X52550Y14294D01*
X52689Y14155D01*
X52861Y14056D01*
X53051Y14005D01*
X53249D01*
X53439Y14056D01*
X53611Y14155D01*
X53750Y14294D01*
X53849Y14466D01*
X53900Y14656D01*
Y14854D01*
X53849Y15044D01*
X53750Y15216D01*
X53611Y15355D01*
X53439Y15454D01*
X53249Y15505D01*
D02*
G37*
G36*
X49249D02*
X49051D01*
X48861Y15454D01*
X48689Y15355D01*
X48550Y15216D01*
X48451Y15044D01*
X48400Y14854D01*
Y14656D01*
X48451Y14466D01*
X48550Y14294D01*
X48689Y14155D01*
X48861Y14056D01*
X49051Y14005D01*
X49249D01*
X49439Y14056D01*
X49611Y14155D01*
X49750Y14294D01*
X49849Y14466D01*
X49900Y14656D01*
Y14854D01*
X49849Y15044D01*
X49750Y15216D01*
X49611Y15355D01*
X49439Y15454D01*
X49249Y15505D01*
D02*
G37*
G36*
X47249D02*
X47051D01*
X46861Y15454D01*
X46689Y15355D01*
X46550Y15216D01*
X46451Y15044D01*
X46400Y14854D01*
Y14656D01*
X46451Y14466D01*
X46550Y14294D01*
X46689Y14155D01*
X46861Y14056D01*
X47051Y14005D01*
X47249D01*
X47439Y14056D01*
X47611Y14155D01*
X47750Y14294D01*
X47849Y14466D01*
X47900Y14656D01*
Y14854D01*
X47849Y15044D01*
X47750Y15216D01*
X47611Y15355D01*
X47439Y15454D01*
X47249Y15505D01*
D02*
G37*
G36*
X44835Y15900D02*
X44100D01*
Y15165D01*
X44110D01*
X44322Y15222D01*
X44409Y15272D01*
X44519Y15162D01*
X44451Y15044D01*
X44400Y14854D01*
Y14656D01*
X44451Y14466D01*
X44550Y14294D01*
X44689Y14155D01*
X44861Y14056D01*
X45051Y14005D01*
X45249D01*
X45439Y14056D01*
X45611Y14155D01*
X45750Y14294D01*
X45849Y14466D01*
X45900Y14656D01*
Y14854D01*
X45849Y15044D01*
X45750Y15216D01*
X45611Y15355D01*
X45439Y15454D01*
X45249Y15505D01*
X45051D01*
X44861Y15454D01*
X44803Y15421D01*
X44693Y15530D01*
X44778Y15678D01*
X44835Y15890D01*
Y15900D01*
D02*
G37*
G36*
X43900D02*
X43165D01*
Y15890D01*
X43222Y15678D01*
X43235Y15655D01*
X43148Y15505D01*
X43051D01*
X42861Y15454D01*
X42689Y15355D01*
X42550Y15216D01*
X42451Y15044D01*
X42400Y14854D01*
Y14656D01*
X42451Y14466D01*
X42550Y14294D01*
X42689Y14155D01*
X42861Y14056D01*
X43051Y14005D01*
X43249D01*
X43439Y14056D01*
X43611Y14155D01*
X43750Y14294D01*
X43849Y14466D01*
X43900Y14656D01*
Y14854D01*
X43855Y15021D01*
X43861Y15045D01*
X43886Y15087D01*
X43900Y15104D01*
Y15900D01*
D02*
G37*
G36*
X41950Y14655D02*
X41250D01*
Y13955D01*
X41255D01*
X41459Y14010D01*
X41641Y14115D01*
X41790Y14264D01*
X41895Y14446D01*
X41950Y14650D01*
Y14655D01*
D02*
G37*
G36*
X41050D02*
X40350D01*
Y14650D01*
X40405Y14446D01*
X40510Y14264D01*
X40659Y14115D01*
X40841Y14010D01*
X41045Y13955D01*
X41050D01*
Y14655D01*
D02*
G37*
G36*
X23406Y50066D02*
X23218D01*
X23043Y49994D01*
X22909Y49860D01*
X22837Y49685D01*
Y49497D01*
X22909Y49322D01*
X23030Y49202D01*
Y39580D01*
X17500Y34051D01*
X17439Y33959D01*
X17418Y33851D01*
X17418Y33851D01*
Y22100D01*
X17418Y22100D01*
X17439Y21992D01*
X17500Y21900D01*
X18657Y20744D01*
X18748Y20683D01*
X18857Y20661D01*
X18857Y20661D01*
X19294D01*
X19414Y20541D01*
X19518Y20498D01*
Y10900D01*
X19518Y10900D01*
X19539Y10792D01*
X19600Y10700D01*
X21567Y8734D01*
Y6730D01*
X21567Y6730D01*
X21572Y6703D01*
Y4677D01*
X25672D01*
Y7007D01*
X22131D01*
Y8851D01*
X22131Y8851D01*
X22110Y8959D01*
X22049Y9051D01*
X22049Y9051D01*
X20082Y11017D01*
Y20671D01*
X20086Y20674D01*
X20158Y20849D01*
Y21038D01*
X20086Y21213D01*
X19952Y21346D01*
X19778Y21418D01*
X19589D01*
X19414Y21346D01*
X19294Y21226D01*
X18974D01*
X17982Y22217D01*
Y23020D01*
X18132Y23050D01*
X18139Y23033D01*
X18273Y22900D01*
X18448Y22827D01*
X18636D01*
X18811Y22900D01*
X18945Y23033D01*
X19017Y23208D01*
Y23397D01*
X18945Y23571D01*
X18824Y23692D01*
Y30236D01*
X19569Y30981D01*
X20208D01*
X20328Y30861D01*
X20503Y30789D01*
X20692D01*
X20718Y30771D01*
Y22120D01*
X20597Y22000D01*
X20525Y21825D01*
Y21636D01*
X20597Y21462D01*
X20731Y21328D01*
X20906Y21256D01*
X21076D01*
X21567Y20765D01*
Y15366D01*
X21567Y15366D01*
X21572Y15339D01*
Y13313D01*
X25672D01*
Y15643D01*
X22131D01*
Y20882D01*
X22110Y20990D01*
X22049Y21082D01*
X22049Y21082D01*
X21475Y21655D01*
Y21825D01*
X21403Y22000D01*
X21282Y22120D01*
Y30698D01*
X21399Y30814D01*
X21399Y30814D01*
X21460Y30906D01*
X21482Y31014D01*
Y34350D01*
X25078Y37946D01*
X25248D01*
X25423Y38019D01*
X25556Y38152D01*
X25629Y38327D01*
Y38516D01*
X25556Y38690D01*
X25423Y38824D01*
X25248Y38896D01*
X25059D01*
X24885Y38824D01*
X24751Y38690D01*
X24679Y38516D01*
Y38346D01*
X21000Y34667D01*
X20938Y34575D01*
X20917Y34467D01*
X20917Y34467D01*
Y31808D01*
X20767Y31707D01*
X20692Y31739D01*
X20503D01*
X20328Y31666D01*
X20208Y31546D01*
X19452D01*
X19452Y31546D01*
X19344Y31524D01*
X19252Y31463D01*
X18342Y30553D01*
X18281Y30462D01*
X18260Y30353D01*
X18260Y30353D01*
Y23692D01*
X18139Y23571D01*
X18132Y23555D01*
X17982Y23585D01*
Y33734D01*
X23512Y39264D01*
X23512Y39264D01*
X23573Y39355D01*
X23594Y39463D01*
X23594Y39463D01*
Y49202D01*
X23715Y49322D01*
X23787Y49497D01*
Y49685D01*
X23715Y49860D01*
X23581Y49994D01*
X23406Y50066D01*
D02*
G37*
G36*
X37812Y11746D02*
X37780D01*
Y10846D01*
X38680D01*
Y10878D01*
X38612Y11132D01*
X38480Y11360D01*
X38294Y11546D01*
X38066Y11678D01*
X37812Y11746D01*
D02*
G37*
G36*
X37580D02*
X37548D01*
X37294Y11678D01*
X37066Y11546D01*
X36880Y11360D01*
X36748Y11132D01*
X36680Y10878D01*
Y10846D01*
X37580D01*
Y11746D01*
D02*
G37*
G36*
X38680Y10646D02*
X37780D01*
Y9746D01*
X37812D01*
X38066Y9814D01*
X38294Y9946D01*
X38480Y10132D01*
X38612Y10360D01*
X38680Y10615D01*
Y10646D01*
D02*
G37*
G36*
X37580D02*
X36680D01*
Y10615D01*
X36748Y10360D01*
X36880Y10132D01*
X37066Y9946D01*
X37294Y9814D01*
X37548Y9746D01*
X37580D01*
Y10646D01*
D02*
G37*
G36*
X26610Y9835D02*
X26600D01*
Y9100D01*
X27335D01*
Y9110D01*
X27278Y9322D01*
X27168Y9513D01*
X27013Y9668D01*
X26822Y9778D01*
X26610Y9835D01*
D02*
G37*
G36*
X26400D02*
X26390D01*
X26178Y9778D01*
X25987Y9668D01*
X25832Y9513D01*
X25722Y9322D01*
X25665Y9110D01*
Y9100D01*
X26400D01*
Y9835D01*
D02*
G37*
G36*
X19610D02*
X19600D01*
Y9100D01*
X20335D01*
Y9110D01*
X20278Y9322D01*
X20168Y9513D01*
X20013Y9668D01*
X19822Y9778D01*
X19610Y9835D01*
D02*
G37*
G36*
X19400D02*
X19390D01*
X19178Y9778D01*
X18987Y9668D01*
X18832Y9513D01*
X18722Y9322D01*
X18665Y9110D01*
Y9100D01*
X19400D01*
Y9835D01*
D02*
G37*
G36*
X12610D02*
X12600D01*
Y9100D01*
X13335D01*
Y9110D01*
X13278Y9322D01*
X13168Y9513D01*
X13013Y9668D01*
X12822Y9778D01*
X12610Y9835D01*
D02*
G37*
G36*
X12400D02*
X12390D01*
X12178Y9778D01*
X11987Y9668D01*
X11832Y9513D01*
X11722Y9322D01*
X11665Y9110D01*
Y9100D01*
X12400D01*
Y9835D01*
D02*
G37*
G36*
X5610D02*
X5600D01*
Y9100D01*
X6335D01*
Y9110D01*
X6278Y9322D01*
X6168Y9513D01*
X6013Y9668D01*
X5822Y9778D01*
X5610Y9835D01*
D02*
G37*
G36*
X5400D02*
X5390D01*
X5178Y9778D01*
X4987Y9668D01*
X4832Y9513D01*
X4722Y9322D01*
X4665Y9110D01*
Y9100D01*
X5400D01*
Y9835D01*
D02*
G37*
G36*
X56764Y9586D02*
X56739D01*
Y8736D01*
X57589D01*
Y8761D01*
X57524Y9003D01*
X57399Y9219D01*
X57222Y9396D01*
X57006Y9521D01*
X56764Y9586D01*
D02*
G37*
G36*
X56539D02*
X56514D01*
X56272Y9521D01*
X56056Y9396D01*
X55879Y9219D01*
X55754Y9003D01*
X55689Y8761D01*
Y8736D01*
X56539D01*
Y9586D01*
D02*
G37*
G36*
X15403Y12405D02*
X15027D01*
X14659Y12332D01*
X14313Y12188D01*
X14001Y11980D01*
X13735Y11714D01*
X13527Y11402D01*
X13383Y11056D01*
X13310Y10688D01*
Y10312D01*
X13383Y9944D01*
X13527Y9598D01*
X13735Y9286D01*
X14001Y9020D01*
X14313Y8812D01*
X14659Y8668D01*
X15027Y8595D01*
X15403D01*
X15771Y8668D01*
X16117Y8812D01*
X16429Y9020D01*
X16695Y9286D01*
X16903Y9598D01*
X17047Y9944D01*
X17120Y10312D01*
Y10688D01*
X17047Y11056D01*
X16903Y11402D01*
X16695Y11714D01*
X16429Y11980D01*
X16117Y12188D01*
X15771Y12332D01*
X15403Y12405D01*
D02*
G37*
G36*
X27335Y8900D02*
X26600D01*
Y8165D01*
X26610D01*
X26822Y8222D01*
X27013Y8332D01*
X27168Y8487D01*
X27278Y8678D01*
X27335Y8890D01*
Y8900D01*
D02*
G37*
G36*
X26400D02*
X25665D01*
Y8890D01*
X25722Y8678D01*
X25832Y8487D01*
X25987Y8332D01*
X26178Y8222D01*
X26390Y8165D01*
X26400D01*
Y8900D01*
D02*
G37*
G36*
X20335D02*
X19600D01*
Y8165D01*
X19610D01*
X19822Y8222D01*
X20013Y8332D01*
X20168Y8487D01*
X20278Y8678D01*
X20335Y8890D01*
Y8900D01*
D02*
G37*
G36*
X19400D02*
X18665D01*
Y8890D01*
X18722Y8678D01*
X18832Y8487D01*
X18987Y8332D01*
X19178Y8222D01*
X19390Y8165D01*
X19400D01*
Y8900D01*
D02*
G37*
G36*
X13335D02*
X12600D01*
Y8165D01*
X12610D01*
X12822Y8222D01*
X13013Y8332D01*
X13168Y8487D01*
X13278Y8678D01*
X13335Y8890D01*
Y8900D01*
D02*
G37*
G36*
X12400D02*
X11665D01*
Y8890D01*
X11722Y8678D01*
X11832Y8487D01*
X11987Y8332D01*
X12178Y8222D01*
X12390Y8165D01*
X12400D01*
Y8900D01*
D02*
G37*
G36*
X55259Y9536D02*
X53459D01*
Y7736D01*
X55259D01*
Y9536D01*
D02*
G37*
G36*
X57589Y8536D02*
X56739D01*
Y7686D01*
X56764D01*
X57006Y7751D01*
X57222Y7876D01*
X57399Y8053D01*
X57524Y8269D01*
X57589Y8511D01*
Y8536D01*
D02*
G37*
G36*
X56539D02*
X55689D01*
Y8511D01*
X55754Y8269D01*
X55879Y8053D01*
X56056Y7876D01*
X56272Y7751D01*
X56514Y7686D01*
X56539D01*
Y8536D01*
D02*
G37*
G36*
X59515Y5200D02*
X58400D01*
Y3200D01*
X59515D01*
Y5200D01*
D02*
G37*
G36*
X58200D02*
X57085D01*
Y3200D01*
X58200D01*
Y5200D01*
D02*
G37*
G36*
X37470Y3667D02*
X37438D01*
Y2767D01*
X38338D01*
Y2799D01*
X38270Y3053D01*
X38138Y3281D01*
X37952Y3467D01*
X37724Y3599D01*
X37470Y3667D01*
D02*
G37*
G36*
X37238D02*
X37206D01*
X36952Y3599D01*
X36724Y3467D01*
X36538Y3281D01*
X36406Y3053D01*
X36338Y2799D01*
Y2767D01*
X37238D01*
Y3667D01*
D02*
G37*
G36*
X51110Y2835D02*
X51100D01*
Y2100D01*
X51835D01*
Y2110D01*
X51778Y2322D01*
X51668Y2513D01*
X51513Y2668D01*
X51322Y2778D01*
X51110Y2835D01*
D02*
G37*
G36*
X50900D02*
X50890D01*
X50678Y2778D01*
X50487Y2668D01*
X50332Y2513D01*
X50222Y2322D01*
X50165Y2110D01*
Y2100D01*
X50900D01*
Y2835D01*
D02*
G37*
G36*
X44110D02*
X44100D01*
Y2100D01*
X44835D01*
Y2110D01*
X44778Y2322D01*
X44668Y2513D01*
X44513Y2668D01*
X44322Y2778D01*
X44110Y2835D01*
D02*
G37*
G36*
X30110D02*
X30100D01*
Y2100D01*
X30835D01*
Y2110D01*
X30778Y2322D01*
X30668Y2513D01*
X30513Y2668D01*
X30322Y2778D01*
X30110Y2835D01*
D02*
G37*
G36*
X29900D02*
X29890D01*
X29678Y2778D01*
X29487Y2668D01*
X29332Y2513D01*
X29222Y2322D01*
X29165Y2110D01*
Y2100D01*
X29900D01*
Y2835D01*
D02*
G37*
G36*
X16110D02*
X16100D01*
Y2100D01*
X16835D01*
Y2110D01*
X16778Y2322D01*
X16668Y2513D01*
X16513Y2668D01*
X16322Y2778D01*
X16110Y2835D01*
D02*
G37*
G36*
X15900D02*
X15890D01*
X15678Y2778D01*
X15487Y2668D01*
X15332Y2513D01*
X15222Y2322D01*
X15165Y2110D01*
Y2100D01*
X15900D01*
Y2835D01*
D02*
G37*
G36*
X9110D02*
X9100D01*
Y2100D01*
X9835D01*
Y2110D01*
X9778Y2322D01*
X9668Y2513D01*
X9513Y2668D01*
X9322Y2778D01*
X9110Y2835D01*
D02*
G37*
G36*
X34923Y3617D02*
X34673D01*
X34431Y3552D01*
X34215Y3427D01*
X34038Y3250D01*
X33913Y3034D01*
X33848Y2792D01*
Y2542D01*
X33913Y2300D01*
X34038Y2084D01*
X34215Y1907D01*
X34431Y1782D01*
X34673Y1717D01*
X34923D01*
X35165Y1782D01*
X35381Y1907D01*
X35558Y2084D01*
X35683Y2300D01*
X35748Y2542D01*
Y2792D01*
X35683Y3034D01*
X35558Y3250D01*
X35381Y3427D01*
X35165Y3552D01*
X34923Y3617D01*
D02*
G37*
G36*
X33208D02*
X31308D01*
Y1717D01*
X33208D01*
Y3617D01*
D02*
G37*
G36*
X38338Y2567D02*
X37438D01*
Y1667D01*
X37470D01*
X37724Y1735D01*
X37952Y1867D01*
X38138Y2053D01*
X38270Y2281D01*
X38338Y2535D01*
Y2567D01*
D02*
G37*
G36*
X37238D02*
X36338D01*
Y2535D01*
X36406Y2281D01*
X36538Y2053D01*
X36724Y1867D01*
X36952Y1735D01*
X37206Y1667D01*
X37238D01*
Y2567D01*
D02*
G37*
G36*
X51835Y1900D02*
X51100D01*
Y1165D01*
X51110D01*
X51322Y1222D01*
X51513Y1332D01*
X51668Y1487D01*
X51778Y1678D01*
X51835Y1890D01*
Y1900D01*
D02*
G37*
G36*
X50900D02*
X50165D01*
Y1890D01*
X50222Y1678D01*
X50332Y1487D01*
X50487Y1332D01*
X50678Y1222D01*
X50890Y1165D01*
X50900D01*
Y1900D01*
D02*
G37*
G36*
X44835D02*
X44100D01*
Y1165D01*
X44110D01*
X44322Y1222D01*
X44513Y1332D01*
X44668Y1487D01*
X44778Y1678D01*
X44835Y1890D01*
Y1900D01*
D02*
G37*
G36*
X30835D02*
X30100D01*
Y1165D01*
X30110D01*
X30322Y1222D01*
X30513Y1332D01*
X30668Y1487D01*
X30778Y1678D01*
X30835Y1890D01*
Y1900D01*
D02*
G37*
G36*
X29900D02*
X29165D01*
Y1890D01*
X29222Y1678D01*
X29332Y1487D01*
X29487Y1332D01*
X29678Y1222D01*
X29890Y1165D01*
X29900D01*
Y1900D01*
D02*
G37*
G36*
X16835D02*
X16100D01*
Y1165D01*
X16110D01*
X16322Y1222D01*
X16513Y1332D01*
X16668Y1487D01*
X16778Y1678D01*
X16835Y1890D01*
Y1900D01*
D02*
G37*
G36*
X15900D02*
X15165D01*
Y1890D01*
X15222Y1678D01*
X15332Y1487D01*
X15487Y1332D01*
X15678Y1222D01*
X15890Y1165D01*
X15900D01*
Y1900D01*
D02*
G37*
G36*
X9835D02*
X9100D01*
Y1165D01*
X9110D01*
X9322Y1222D01*
X9513Y1332D01*
X9668Y1487D01*
X9778Y1678D01*
X9835Y1890D01*
Y1900D01*
D02*
G37*
G36*
X59515Y3000D02*
X58400D01*
Y1000D01*
X59515D01*
Y3000D01*
D02*
G37*
G36*
X58200D02*
X57085D01*
Y1000D01*
X58200D01*
Y3000D01*
D02*
G37*
%LPD*%
D15*
X55900Y43332D02*
D03*
D20*
X25952Y24402D02*
D03*
D25*
X18542Y30353D02*
X19452Y31264D01*
X21199Y34467D02*
X25154Y38421D01*
X21199Y31014D02*
Y34467D01*
X19452Y31264D02*
X20597D01*
X21000Y30815D02*
X21199Y31014D01*
X21000Y21731D02*
Y30815D01*
X18542Y23302D02*
Y30353D01*
X21849Y15366D02*
Y20882D01*
Y15366D02*
X22737Y14478D01*
X23622D01*
X21000Y21731D02*
X21849Y20882D01*
X18857Y20943D02*
X19683D01*
X18400Y37900D02*
X22012Y41512D01*
Y49591D01*
X17700Y33851D02*
X23312Y39463D01*
Y49591D01*
X19000Y34100D02*
X24612Y39712D01*
X19000Y33100D02*
Y34100D01*
X24612Y39712D02*
Y49591D01*
X17700Y22100D02*
X18857Y20943D01*
X17700Y22100D02*
Y33851D01*
X19800Y10900D02*
Y20943D01*
X21849Y6730D02*
X22737Y5842D01*
X21849Y6730D02*
Y8851D01*
X22737Y5842D02*
X23622D01*
X19800Y10900D02*
X21849Y8851D01*
X11000Y34100D02*
X13604Y31496D01*
X16010D01*
X30701Y13662D02*
Y28701D01*
X31300Y29300D01*
X30701Y13662D02*
X40934Y3429D01*
X31535Y14264D02*
Y14371D01*
X31707Y15500D02*
X31783Y15576D01*
X30099Y29482D02*
X31975Y31358D01*
X30099Y12446D02*
X39878Y2667D01*
X31783Y15576D02*
Y15855D01*
X31105Y14801D02*
Y25419D01*
X30099Y12446D02*
Y29482D01*
X31105Y25419D02*
X31975Y26289D01*
X31105Y14801D02*
X31535Y14371D01*
Y14264D02*
X33099Y12700D01*
X16010Y23459D02*
X16300Y23169D01*
X16010Y23459D02*
Y31496D01*
X16300Y23062D02*
Y23169D01*
X35433Y19812D02*
X52093D01*
X57150Y14755D01*
X38100Y18415D02*
X51490D01*
X55150Y14755D01*
X52200Y6244D02*
X54359Y4085D01*
Y3200D02*
Y4085D01*
X52200Y6244D02*
Y9700D01*
X57150Y14650D01*
Y14755D01*
X48500Y3200D02*
Y8105D01*
X55150Y14755D01*
X40934Y3429D02*
X41656D01*
X42418Y2667D01*
X31783Y15855D02*
X31833Y15905D01*
X49095Y12700D02*
X49784Y13389D01*
X33099Y12700D02*
X49095D01*
X49784Y13389D02*
Y13389D01*
X51150Y14755D01*
X32512Y19055D02*
X40766Y27309D01*
X32512Y18415D02*
Y19055D01*
X33500Y19177D02*
X41506Y27183D01*
Y29111D01*
X31833Y15905D02*
Y21229D01*
X40766Y27309D02*
Y32371D01*
X45150Y36755D01*
X41506Y29111D02*
X49150Y36755D01*
D26*
X49100Y38800D02*
Y38841D01*
X48952Y38989D02*
X49100Y38841D01*
X48952Y38989D02*
Y48300D01*
X29100Y50300D02*
X29200D01*
X31209Y48291D01*
X44879D01*
X44888Y48300D01*
X48952D01*
X56900Y48400D02*
X60209D01*
X61400Y49591D01*
D29*
X44325Y45791D02*
D03*
X36875D02*
D03*
D30*
X44475Y49591D02*
D03*
X36725D02*
D03*
D31*
X43100Y46841D02*
D03*
X38100D02*
D03*
D32*
X41150Y14755D02*
D03*
X43150D02*
D03*
X45150D02*
D03*
X47150D02*
D03*
X49150D02*
D03*
X51150D02*
D03*
X53150D02*
D03*
X55150D02*
D03*
X57150D02*
D03*
X59150D02*
D03*
X41150Y36755D02*
D03*
X43150D02*
D03*
X45150D02*
D03*
X47150D02*
D03*
X49150D02*
D03*
X51150D02*
D03*
X53150D02*
D03*
X55150D02*
D03*
X57150D02*
D03*
X59150D02*
D03*
D33*
X42418Y2667D02*
D03*
X39878D02*
D03*
X37338D02*
D03*
X34798D02*
D03*
X35140Y40746D02*
D03*
X37680D02*
D03*
X35140Y25746D02*
D03*
X37680D02*
D03*
X35140Y10746D02*
D03*
X37680D02*
D03*
D34*
X32258Y2667D02*
D03*
D35*
X54359Y8636D02*
D03*
D36*
X56639D02*
D03*
D37*
X11010Y18996D02*
D03*
Y31496D02*
D03*
X16010Y18996D02*
D03*
Y31496D02*
D03*
D38*
X20597Y31264D02*
D03*
X33170Y21209D02*
D03*
X15181Y20930D02*
D03*
X21000Y21731D02*
D03*
X19683Y20943D02*
D03*
X33070Y22904D02*
D03*
X49100Y38800D02*
D03*
X25154Y38421D02*
D03*
X19000Y33100D02*
D03*
X18400Y37900D02*
D03*
X22012Y49591D02*
D03*
X23312D02*
D03*
X24612D02*
D03*
X29100Y50300D02*
D03*
X61400Y49591D02*
D03*
X11000Y34100D02*
D03*
X31300Y29300D02*
D03*
X31707Y15500D02*
D03*
X31975Y31358D02*
D03*
X18542Y23302D02*
D03*
X16300Y23062D02*
D03*
X35433Y19812D02*
D03*
X38100Y18415D02*
D03*
X33500Y19177D02*
D03*
X32512Y18415D02*
D03*
X31535Y14264D02*
D03*
X31833Y21229D02*
D03*
X31975Y26289D02*
D03*
D39*
X51000Y30000D02*
D03*
X54500Y23000D02*
D03*
X51000Y2000D02*
D03*
X44000Y30000D02*
D03*
X47500Y23000D02*
D03*
X44000Y16000D02*
D03*
Y2000D02*
D03*
X33500Y37000D02*
D03*
X30000Y2000D02*
D03*
X26500Y37000D02*
D03*
Y9000D02*
D03*
X16000Y44000D02*
D03*
X19500Y9000D02*
D03*
X16000Y2000D02*
D03*
X9000Y44000D02*
D03*
X12500Y37000D02*
D03*
X9000Y30000D02*
D03*
X12500Y23000D02*
D03*
X9000Y16000D02*
D03*
X12500Y9000D02*
D03*
X9000Y2000D02*
D03*
X2000Y30000D02*
D03*
X5500Y23000D02*
D03*
X2000Y16000D02*
D03*
X5500Y9000D02*
D03*
D40*
X54900Y42332D02*
D03*
Y43332D02*
D03*
X55900Y42332D02*
D03*
Y43332D02*
D03*
X56900Y42332D02*
D03*
Y43332D02*
D03*
X54900Y44332D02*
D03*
X55900D02*
D03*
X56900D02*
D03*
X25952Y25502D02*
D03*
Y24402D02*
D03*
X24852Y25502D02*
D03*
X27052Y24402D02*
D03*
Y23302D02*
D03*
Y25502D02*
D03*
X25952Y23302D02*
D03*
X24852Y24402D02*
D03*
Y23302D02*
D03*
D41*
X58300Y3100D02*
D03*
X48500Y3200D02*
D03*
X54359D02*
D03*
D42*
X48952Y48300D02*
D03*
X56900Y48400D02*
D03*
X7400Y37000D02*
D03*
X23622Y5842D02*
D03*
Y14478D02*
D03*
%TF.MD5,20899d99130bbea0e61e4a483b72d033*%
M02*
