%TF.GenerationSoftware,Altium Limited,Altium Designer,21.6.1 (37)*%
G04 Layer_Color=65535*
%FSLAX43Y43*%
%MOMM*%
%TF.SameCoordinates,722F286E-688C-4CC3-9CBB-BCC5CCC684D6*%
%TF.FilePolarity,Positive*%
%TF.FileFunction,Legend,Top*%
%TF.Part,Single*%
G01*
G75*
%TA.AperFunction,NonConductor*%
%ADD43C,0.250*%
%ADD44C,0.600*%
%ADD45C,0.400*%
%ADD46C,0.200*%
%ADD47C,0.150*%
%ADD48C,0.100*%
%ADD49C,0.254*%
%ADD50C,0.152*%
G36*
X53492Y21514D02*
Y21311D01*
Y21107D01*
Y20904D01*
Y20701D01*
Y20498D01*
Y20295D01*
Y20091D01*
Y19888D01*
Y19685D01*
Y19482D01*
Y19279D01*
X52680D01*
Y19482D01*
Y19685D01*
Y19888D01*
Y20091D01*
Y20295D01*
Y20498D01*
Y20701D01*
Y20904D01*
X49835D01*
Y20701D01*
Y20498D01*
Y20295D01*
Y20091D01*
Y19888D01*
Y19685D01*
Y19482D01*
Y19279D01*
X49022D01*
Y19482D01*
Y19685D01*
Y19888D01*
Y20091D01*
Y20295D01*
Y20498D01*
Y20701D01*
Y20904D01*
Y21107D01*
Y21311D01*
Y21514D01*
Y21717D01*
X53492D01*
Y21514D01*
D02*
G37*
G36*
X48006Y19685D02*
Y19482D01*
Y19279D01*
X45364D01*
Y19482D01*
Y19685D01*
Y19888D01*
X48006D01*
Y19685D01*
D02*
G37*
G36*
X57963Y21514D02*
X58369D01*
Y21311D01*
X58572D01*
Y21107D01*
X58776D01*
Y20904D01*
Y20701D01*
Y20498D01*
Y20295D01*
X58979D01*
Y20091D01*
Y19888D01*
Y19685D01*
Y19482D01*
Y19279D01*
Y19075D01*
Y18872D01*
Y18669D01*
Y18466D01*
Y18263D01*
Y18059D01*
Y17856D01*
Y17653D01*
Y17450D01*
X58166D01*
Y17653D01*
Y17856D01*
Y18059D01*
Y18263D01*
Y18466D01*
Y18669D01*
Y18872D01*
Y19075D01*
Y19279D01*
Y19482D01*
Y19685D01*
Y19888D01*
Y20091D01*
Y20295D01*
X57963D01*
Y20498D01*
Y20701D01*
X57760D01*
Y20904D01*
X55321D01*
Y20701D01*
Y20498D01*
Y20295D01*
Y20091D01*
Y19888D01*
Y19685D01*
Y19482D01*
Y19279D01*
Y19075D01*
Y18872D01*
Y18669D01*
Y18466D01*
Y18263D01*
Y18059D01*
Y17856D01*
Y17653D01*
Y17450D01*
X54508D01*
Y17653D01*
Y17856D01*
Y18059D01*
Y18263D01*
Y18466D01*
Y18669D01*
Y18872D01*
Y19075D01*
Y19279D01*
Y19482D01*
Y19685D01*
Y19888D01*
Y20091D01*
Y20295D01*
Y20498D01*
Y20701D01*
Y20904D01*
Y21107D01*
Y21311D01*
Y21514D01*
Y21717D01*
X57963D01*
Y21514D01*
D02*
G37*
G36*
X56947Y19685D02*
X57150D01*
Y19482D01*
Y19279D01*
Y19075D01*
Y18872D01*
Y18669D01*
Y18466D01*
Y18263D01*
Y18059D01*
Y17856D01*
Y17653D01*
Y17450D01*
X56337D01*
Y17653D01*
Y17856D01*
Y18059D01*
Y18263D01*
Y18466D01*
Y18669D01*
Y18872D01*
Y19075D01*
Y19279D01*
Y19482D01*
Y19685D01*
Y19888D01*
X56947D01*
Y19685D01*
D02*
G37*
G36*
X51664D02*
Y19482D01*
Y19279D01*
Y19075D01*
Y18872D01*
Y18669D01*
Y18466D01*
Y18263D01*
Y18059D01*
Y17856D01*
Y17653D01*
Y17450D01*
X50851D01*
Y17653D01*
Y17856D01*
Y18059D01*
Y18263D01*
Y18466D01*
Y18669D01*
Y18872D01*
Y19075D01*
Y19279D01*
Y19482D01*
Y19685D01*
Y19888D01*
X51664D01*
Y19685D01*
D02*
G37*
G36*
X48006Y21514D02*
Y21311D01*
Y21107D01*
Y20904D01*
X44348D01*
Y20701D01*
Y20498D01*
Y20295D01*
Y20091D01*
Y19888D01*
Y19685D01*
Y19482D01*
Y19279D01*
Y19075D01*
Y18872D01*
Y18669D01*
X44552D01*
Y18466D01*
X44755D01*
Y18263D01*
X48006D01*
Y18059D01*
Y17856D01*
Y17653D01*
Y17450D01*
X44552D01*
Y17653D01*
X44145D01*
Y17856D01*
X43942D01*
Y18059D01*
X43739D01*
Y18263D01*
X43536D01*
Y18466D01*
Y18669D01*
Y18872D01*
Y19075D01*
X43332D01*
Y19279D01*
Y19482D01*
Y19685D01*
Y19888D01*
Y20091D01*
Y20295D01*
Y20498D01*
Y20701D01*
Y20904D01*
Y21107D01*
Y21311D01*
Y21514D01*
Y21717D01*
X48006D01*
Y21514D01*
D02*
G37*
G36*
X75641D02*
Y21311D01*
Y21107D01*
Y20904D01*
X71577D01*
Y21107D01*
X71780D01*
Y21311D01*
Y21514D01*
X72187D01*
Y21717D01*
X75641D01*
Y21514D01*
D02*
G37*
G36*
X70561Y19685D02*
Y19482D01*
Y19279D01*
X67920D01*
Y19482D01*
Y19685D01*
Y19888D01*
X70561D01*
Y19685D01*
D02*
G37*
G36*
X65278D02*
Y19482D01*
Y19279D01*
Y19075D01*
X63246D01*
Y19279D01*
Y19482D01*
Y19685D01*
Y19888D01*
X65278D01*
Y19685D01*
D02*
G37*
G36*
X75641Y19888D02*
Y19685D01*
Y19482D01*
Y19279D01*
Y19075D01*
Y18872D01*
Y18669D01*
Y18466D01*
Y18263D01*
Y18059D01*
Y17856D01*
X75438D01*
Y17653D01*
X75235D01*
Y17450D01*
X71577D01*
Y17653D01*
Y17856D01*
Y18059D01*
Y18263D01*
X74828D01*
Y18466D01*
Y18669D01*
Y18872D01*
Y19075D01*
Y19279D01*
X71577D01*
Y19482D01*
Y19685D01*
Y19888D01*
Y20091D01*
X75641D01*
Y19888D01*
D02*
G37*
G36*
X70561Y21514D02*
Y21311D01*
Y21107D01*
Y20904D01*
X66904D01*
Y20701D01*
Y20498D01*
Y20295D01*
Y20091D01*
Y19888D01*
Y19685D01*
Y19482D01*
Y19279D01*
Y19075D01*
Y18872D01*
X67107D01*
Y18669D01*
Y18466D01*
X67513D01*
Y18263D01*
X70561D01*
Y18059D01*
Y17856D01*
Y17653D01*
Y17450D01*
X67107D01*
Y17653D01*
X66700D01*
Y17856D01*
X66497D01*
Y18059D01*
Y18263D01*
X66294D01*
Y18466D01*
Y18669D01*
Y18872D01*
X66091D01*
Y19075D01*
Y19279D01*
Y19482D01*
Y19685D01*
Y19888D01*
Y20091D01*
Y20295D01*
Y20498D01*
Y20701D01*
Y20904D01*
Y21107D01*
Y21311D01*
Y21514D01*
Y21717D01*
X70561D01*
Y21514D01*
D02*
G37*
G36*
X60198D02*
Y21311D01*
Y21107D01*
Y20904D01*
Y20701D01*
Y20498D01*
Y20295D01*
Y20091D01*
Y19888D01*
Y19685D01*
Y19482D01*
Y19279D01*
Y19075D01*
Y18872D01*
X60401D01*
Y18669D01*
Y18466D01*
X60604D01*
Y18263D01*
X62840D01*
Y18059D01*
Y17856D01*
Y17653D01*
Y17450D01*
X59995D01*
Y17653D01*
X59792D01*
Y17856D01*
X59588D01*
Y18059D01*
Y18263D01*
Y18466D01*
X59385D01*
Y18669D01*
Y18872D01*
Y19075D01*
Y19279D01*
Y19482D01*
Y19685D01*
Y19888D01*
Y20091D01*
Y20295D01*
Y20498D01*
Y20701D01*
Y20904D01*
Y21107D01*
Y21311D01*
Y21514D01*
Y21717D01*
X60198D01*
Y21514D01*
D02*
G37*
D43*
X19412Y40950D02*
G03*
X19412Y40950I-125J0D01*
G01*
X58975Y40282D02*
G03*
X58975Y40282I-125J0D01*
G01*
X29077Y28202D02*
G03*
X29077Y28202I-125J0D01*
G01*
D44*
X20387Y43350D02*
G03*
X20387Y43350I-300J0D01*
G01*
D45*
X42783Y45891D02*
G03*
X42783Y45891I-141J0D01*
G01*
D46*
X53987Y7485D02*
G03*
X57019Y7496I1512J1151D01*
G01*
Y9776D02*
G03*
X53987Y9787I-1520J-1140D01*
G01*
X34041Y42419D02*
G03*
X38649Y38903I2369J-1672D01*
G01*
X38638Y42603D02*
G03*
X33940Y42266I-2228J-1857D01*
G01*
X34041Y27419D02*
G03*
X38649Y23903I2369J-1672D01*
G01*
X38638Y27603D02*
G03*
X33940Y27266I-2228J-1857D01*
G01*
X34041Y12419D02*
G03*
X38649Y8903I2369J-1672D01*
G01*
X38638Y12603D02*
G03*
X33940Y12266I-2228J-1857D01*
G01*
X16250Y47662D02*
X16350D01*
X16250Y48763D02*
X16350D01*
X19087Y42350D02*
X29487D01*
X19087Y46450D02*
X29487D01*
X19087Y42350D02*
Y46450D01*
X29487Y42350D02*
Y46450D01*
X58300Y47200D02*
Y48400D01*
X34757Y46750D02*
Y46850D01*
X33657Y46750D02*
Y46850D01*
X32250Y45350D02*
Y45450D01*
X31150Y45350D02*
Y45450D01*
X54050Y40782D02*
X57750D01*
X54050Y45882D02*
X57750D01*
X47000Y41013D02*
Y41113D01*
X45900Y41013D02*
Y41113D01*
X44794Y42957D02*
Y43057D01*
X43694Y42957D02*
Y43057D01*
X48784Y47700D02*
X49984D01*
X22300Y28535D02*
Y29735D01*
X28427Y27552D02*
X29102D01*
Y26877D02*
Y27552D01*
Y21252D02*
Y21927D01*
X28427Y21252D02*
X29102D01*
X22802D02*
X23477D01*
X22802D02*
Y21927D01*
Y27552D02*
X23477D01*
X22802Y26877D02*
Y27552D01*
X24811Y18958D02*
Y20158D01*
X27052Y28610D02*
Y29810D01*
X30642Y23876D02*
X31842D01*
X20400Y25400D02*
X21600D01*
X28610Y5842D02*
X29810D01*
X48684Y41963D02*
X49884D01*
X22390Y3217D02*
X22490D01*
X22390Y2117D02*
X22490D01*
X27040Y8065D02*
Y14465D01*
X20640Y8065D02*
Y14465D01*
X22540D02*
X25140D01*
X22540Y8065D02*
X25140D01*
X32335Y5292D02*
X32435D01*
X32335Y6392D02*
X32435D01*
X53544Y4530D02*
X53644D01*
X53544Y5630D02*
X53644D01*
X36050Y14950D02*
X36150D01*
X36050Y16050D02*
X36150D01*
X38015Y35129D02*
Y35229D01*
X36915Y35129D02*
Y35229D01*
X57019Y7496D02*
X57023Y7551D01*
X57019Y9776D02*
X57023Y9721D01*
X52209Y8636D02*
X53209D01*
X52709Y8136D02*
Y9136D01*
X38696Y38968D02*
Y42524D01*
Y23968D02*
Y27524D01*
Y8968D02*
Y12524D01*
X37884Y30395D02*
X37984D01*
X37884Y29295D02*
X37984D01*
X8967Y34586D02*
X9067D01*
X8967Y33486D02*
X9067D01*
X7510Y31246D02*
X9950D01*
X12080D02*
X14940D01*
X17070D02*
X19510D01*
X17070Y19246D02*
X19510D01*
X12080D02*
X14940D01*
X7510D02*
X9950D01*
X19510D02*
Y31246D01*
X7510Y19246D02*
Y31246D01*
D47*
X36600Y50791D02*
X36900D01*
Y51991D01*
X44300D01*
Y50791D02*
Y51991D01*
Y50791D02*
X44600D01*
X37770Y45391D02*
X38900D01*
X42300D02*
X43430D01*
X44600Y50651D02*
Y50791D01*
Y46921D02*
Y48521D01*
X36600Y46921D02*
Y48521D01*
Y50651D02*
Y50791D01*
D48*
X22621Y36650D02*
X34021D01*
X22621Y31750D02*
X34021D01*
X40800Y10966D02*
Y9967D01*
X41466D01*
X42466Y10966D02*
X41800D01*
Y9967D01*
X42466D01*
X41800Y10466D02*
X42133D01*
X42799Y10966D02*
Y9967D01*
X43299D01*
X43466Y10133D01*
Y10800D01*
X43299Y10966D01*
X42799D01*
X43799Y9800D02*
X44465D01*
X44799Y10966D02*
Y9967D01*
X45465D01*
X45965D02*
X46298D01*
X46465Y10133D01*
Y10466D01*
X46298Y10633D01*
X45965D01*
X45798Y10466D01*
Y10133D01*
X45965Y9967D01*
X46798D02*
X47298D01*
X47465Y10133D01*
X47298Y10300D01*
X46965D01*
X46798Y10466D01*
X46965Y10633D01*
X47465D01*
X47964Y10800D02*
Y10633D01*
X47798D01*
X48131D01*
X47964D01*
Y10133D01*
X48131Y9967D01*
X57250Y6160D02*
Y5161D01*
X57916D01*
X58916Y6160D02*
X58250D01*
Y5161D01*
X58916D01*
X58250Y5660D02*
X58583D01*
X59249Y6160D02*
Y5161D01*
X59749D01*
X59916Y5327D01*
Y5994D01*
X59749Y6160D01*
X59249D01*
X60249Y4994D02*
X60915D01*
X61415Y5827D02*
X61749D01*
X61915Y5660D01*
Y5161D01*
X61415D01*
X61249Y5327D01*
X61415Y5494D01*
X61915D01*
X62248Y5161D02*
X62582D01*
X62415D01*
Y6160D01*
X62248D01*
X63081Y5161D02*
X63415D01*
X63248D01*
Y5827D01*
X63081D01*
X63915Y5161D02*
Y5827D01*
X64081D01*
X64248Y5660D01*
Y5161D01*
Y5660D01*
X64414Y5827D01*
X64581Y5660D01*
Y5161D01*
X41100Y26466D02*
Y25467D01*
X41766D01*
X42766Y26466D02*
X42100D01*
Y25467D01*
X42766D01*
X42100Y25966D02*
X42433D01*
X43099Y26466D02*
Y25467D01*
X43599D01*
X43766Y25633D01*
Y26300D01*
X43599Y26466D01*
X43099D01*
X44099Y25300D02*
X44765D01*
X45765Y26300D02*
X45599Y26466D01*
X45265D01*
X45099Y26300D01*
Y26133D01*
X45265Y25966D01*
X45599D01*
X45765Y25800D01*
Y25633D01*
X45599Y25467D01*
X45265D01*
X45099Y25633D01*
X46598Y25467D02*
X46265D01*
X46098Y25633D01*
Y25966D01*
X46265Y26133D01*
X46598D01*
X46765Y25966D01*
Y25800D01*
X46098D01*
X47098Y25467D02*
Y26133D01*
X47598D01*
X47765Y25966D01*
Y25467D01*
X48764Y26466D02*
Y25467D01*
X48264D01*
X48098Y25633D01*
Y25966D01*
X48264Y26133D01*
X48764D01*
X39910Y39688D02*
Y38688D01*
X40577D01*
X41576Y39688D02*
X40910D01*
Y38688D01*
X41576D01*
X40910Y39188D02*
X41243D01*
X41909Y39688D02*
Y38688D01*
X42409D01*
X42576Y38854D01*
Y39521D01*
X42409Y39688D01*
X41909D01*
X42909Y38521D02*
X43576D01*
X44575Y38854D02*
Y39521D01*
X44409Y39688D01*
X44075D01*
X43909Y39521D01*
Y38854D01*
X44075Y38688D01*
X44409D01*
X44242Y39021D02*
X44575Y38688D01*
X44409D02*
X44575Y38854D01*
X44908Y39354D02*
Y38854D01*
X45075Y38688D01*
X45575D01*
Y39354D01*
X46408Y38688D02*
X46075D01*
X45908Y38854D01*
Y39188D01*
X46075Y39354D01*
X46408D01*
X46575Y39188D01*
Y39021D01*
X45908D01*
X46908Y38688D02*
X47408D01*
X47574Y38854D01*
X47408Y39021D01*
X47074D01*
X46908Y39188D01*
X47074Y39354D01*
X47574D01*
X6766Y30500D02*
X5767D01*
Y30000D01*
X5933Y29834D01*
X6100D01*
X6266Y30000D01*
Y30500D01*
Y30000D01*
X6433Y29834D01*
X6600D01*
X6766Y30000D01*
Y30500D01*
X6600Y29334D02*
X6433D01*
Y29500D01*
Y29167D01*
Y29334D01*
X5933D01*
X5767Y29167D01*
Y28667D02*
X6433D01*
Y28167D01*
X6266Y28001D01*
X5767D01*
X5600Y27668D02*
Y27001D01*
X6766Y26001D02*
X5767D01*
Y26501D01*
X5933Y26668D01*
X6266D01*
X6433Y26501D01*
Y26001D01*
X5767Y25168D02*
Y25502D01*
X5933Y25668D01*
X6266D01*
X6433Y25502D01*
Y25168D01*
X6266Y25002D01*
X6100D01*
Y25668D01*
X5767Y24669D02*
X6433D01*
Y24502D01*
X6266Y24335D01*
X5767D01*
X6266D01*
X6433Y24169D01*
X6266Y24002D01*
X5767D01*
X6433Y23502D02*
Y23169D01*
X6266Y23002D01*
X5767D01*
Y23502D01*
X5933Y23669D01*
X6100Y23502D01*
Y23002D01*
X5767Y22669D02*
X6433D01*
Y22169D01*
X6266Y22003D01*
X5767D01*
X6766Y21003D02*
X5767D01*
Y21503D01*
X5933Y21670D01*
X6266D01*
X6433Y21503D01*
Y21003D01*
X5767Y20170D02*
Y20503D01*
X5933Y20670D01*
X6266D01*
X6433Y20503D01*
Y20170D01*
X6266Y20003D01*
X6100D01*
Y20670D01*
X15700Y13700D02*
Y14700D01*
X16200D01*
X16366Y14533D01*
Y14200D01*
X16200Y14033D01*
X15700D01*
X16033D02*
X16366Y13700D01*
X17200D02*
X16866D01*
X16700Y13867D01*
Y14200D01*
X16866Y14366D01*
X17200D01*
X17366Y14200D01*
Y14033D01*
X16700D01*
X17699Y13700D02*
X18199D01*
X18366Y13867D01*
X18199Y14033D01*
X17866D01*
X17699Y14200D01*
X17866Y14366D01*
X18366D01*
X19199Y13700D02*
X18866D01*
X18699Y13867D01*
Y14200D01*
X18866Y14366D01*
X19199D01*
X19365Y14200D01*
Y14033D01*
X18699D01*
X19865Y14533D02*
Y14366D01*
X19699D01*
X20032D01*
X19865D01*
Y13867D01*
X20032Y13700D01*
X12382Y44564D02*
Y45563D01*
X12715Y45230D01*
X13048Y45563D01*
Y44564D01*
X13382D02*
Y45563D01*
X13882D01*
X14048Y45397D01*
Y45064D01*
X13882Y44897D01*
X13382D01*
X14881Y44564D02*
Y45563D01*
X14381Y45064D01*
X15048D01*
X8165Y10500D02*
Y11500D01*
X8498Y11166D01*
X8832Y11500D01*
Y10500D01*
X9165D02*
Y11500D01*
X9665D01*
X9831Y11333D01*
Y11000D01*
X9665Y10833D01*
X9165D01*
X10164Y11333D02*
X10331Y11500D01*
X10664D01*
X10831Y11333D01*
Y11166D01*
X10664Y11000D01*
X10498D01*
X10664D01*
X10831Y10833D01*
Y10667D01*
X10664Y10500D01*
X10331D01*
X10164Y10667D01*
X62649Y14058D02*
Y15058D01*
X62982Y14725D01*
X63315Y15058D01*
Y14058D01*
X63648D02*
Y15058D01*
X64148D01*
X64315Y14891D01*
Y14558D01*
X64148Y14392D01*
X63648D01*
X65314Y14058D02*
X64648D01*
X65314Y14725D01*
Y14891D01*
X65148Y15058D01*
X64815D01*
X64648Y14891D01*
X67800Y44500D02*
Y45500D01*
X68133Y45166D01*
X68466Y45500D01*
Y44500D01*
X68800D02*
Y45500D01*
X69300D01*
X69466Y45333D01*
Y45000D01*
X69300Y44833D01*
X68800D01*
X69799Y44500D02*
X70133D01*
X69966D01*
Y45500D01*
X69799Y45333D01*
X49866Y50833D02*
X49700Y51000D01*
X49367D01*
X49200Y50833D01*
Y50167D01*
X49367Y50000D01*
X49700D01*
X49866Y50167D01*
X50200Y50000D02*
X50533D01*
X50366D01*
Y51000D01*
X50200Y50833D01*
X62066Y48133D02*
X61900Y48300D01*
X61567D01*
X61400Y48133D01*
Y47467D01*
X61567Y47300D01*
X61900D01*
X62066Y47467D01*
X63066Y47300D02*
X62400D01*
X63066Y47966D01*
Y48133D01*
X62900Y48300D01*
X62566D01*
X62400Y48133D01*
X49366Y45233D02*
X49200Y45400D01*
X48867D01*
X48700Y45233D01*
Y44567D01*
X48867Y44400D01*
X49200D01*
X49366Y44567D01*
X49700Y45233D02*
X49866Y45400D01*
X50200D01*
X50366Y45233D01*
Y45066D01*
X50200Y44900D01*
X50033D01*
X50200D01*
X50366Y44733D01*
Y44567D01*
X50200Y44400D01*
X49866D01*
X49700Y44567D01*
X29633Y9134D02*
X29800Y9300D01*
Y9633D01*
X29633Y9800D01*
X28967D01*
X28800Y9633D01*
Y9300D01*
X28967Y9134D01*
X28800Y8300D02*
X29800D01*
X29300Y8800D01*
Y8134D01*
X20666Y23033D02*
X20500Y23200D01*
X20167D01*
X20000Y23033D01*
Y22367D01*
X20167Y22200D01*
X20500D01*
X20666Y22367D01*
X21000Y23033D02*
X21166Y23200D01*
X21500D01*
X21666Y23033D01*
Y22866D01*
X21500Y22700D01*
X21666Y22533D01*
Y22367D01*
X21500Y22200D01*
X21166D01*
X21000Y22367D01*
Y22533D01*
X21166Y22700D01*
X21000Y22866D01*
Y23033D01*
X21166Y22700D02*
X21500D01*
X31166Y27533D02*
X31000Y27700D01*
X30667D01*
X30500Y27533D01*
Y26867D01*
X30667Y26700D01*
X31000D01*
X31166Y26867D01*
X31500D02*
X31666Y26700D01*
X32000D01*
X32166Y26867D01*
Y27533D01*
X32000Y27700D01*
X31666D01*
X31500Y27533D01*
Y27366D01*
X31666Y27200D01*
X32166D01*
X20835Y18105D02*
X20668Y18272D01*
X20335D01*
X20168Y18105D01*
Y17439D01*
X20335Y17272D01*
X20668D01*
X20835Y17439D01*
X21168Y18272D02*
X21834D01*
Y18105D01*
X21168Y17439D01*
Y17272D01*
X58678Y9302D02*
Y8302D01*
X59178D01*
X59344Y8469D01*
Y9135D01*
X59178Y9302D01*
X58678D01*
X59678Y8302D02*
X60011D01*
X59844D01*
Y9302D01*
X59678Y9135D01*
X35582Y46625D02*
Y45625D01*
X36082D01*
X36249Y45792D01*
Y46458D01*
X36082Y46625D01*
X35582D01*
X37248Y45625D02*
X36582D01*
X37248Y46291D01*
Y46458D01*
X37082Y46625D01*
X36749D01*
X36582Y46458D01*
X34128Y30300D02*
Y29300D01*
X34628D01*
X34795Y29467D01*
Y30133D01*
X34628Y30300D01*
X34128D01*
X35128Y30133D02*
X35295Y30300D01*
X35628D01*
X35794Y30133D01*
Y29966D01*
X35628Y29800D01*
X35461D01*
X35628D01*
X35794Y29633D01*
Y29467D01*
X35628Y29300D01*
X35295D01*
X35128Y29467D01*
X30353Y12557D02*
Y11557D01*
X30853D01*
X31019Y11724D01*
Y12390D01*
X30853Y12557D01*
X30353D01*
X31853Y11557D02*
Y12557D01*
X31353Y12057D01*
X32019D01*
X41066Y44600D02*
X40733D01*
X40900D01*
Y43767D01*
X40733Y43600D01*
X40567D01*
X40400Y43767D01*
X41400Y43600D02*
X41733D01*
X41566D01*
Y44600D01*
X41400Y44433D01*
X41900Y41400D02*
Y42400D01*
X42400D01*
X42566Y42233D01*
Y41900D01*
X42400Y41733D01*
X41900D01*
X42233D02*
X42566Y41400D01*
X42900D02*
X43233D01*
X43066D01*
Y42400D01*
X42900Y42233D01*
X46000Y43100D02*
Y44100D01*
X46500D01*
X46666Y43933D01*
Y43600D01*
X46500Y43433D01*
X46000D01*
X46333D02*
X46666Y43100D01*
X47666D02*
X47000D01*
X47666Y43766D01*
Y43933D01*
X47500Y44100D01*
X47166D01*
X47000Y43933D01*
X48278Y4064D02*
Y5064D01*
X48778D01*
X48945Y4897D01*
Y4564D01*
X48778Y4397D01*
X48278D01*
X48611D02*
X48945Y4064D01*
X49278Y5064D02*
X49944D01*
Y4897D01*
X49278Y4231D01*
Y4064D01*
X38700Y33000D02*
Y34000D01*
X39200D01*
X39366Y33833D01*
Y33500D01*
X39200Y33333D01*
X38700D01*
X39033D02*
X39366Y33000D01*
X39700Y33833D02*
X39866Y34000D01*
X40200D01*
X40366Y33833D01*
Y33666D01*
X40200Y33500D01*
X40366Y33333D01*
Y33167D01*
X40200Y33000D01*
X39866D01*
X39700Y33167D01*
Y33333D01*
X39866Y33500D01*
X39700Y33666D01*
Y33833D01*
X39866Y33500D02*
X40200D01*
X36703Y31091D02*
Y32091D01*
X37203D01*
X37369Y31924D01*
Y31591D01*
X37203Y31424D01*
X36703D01*
X37036D02*
X37369Y31091D01*
X37703D02*
X38036D01*
X37869D01*
Y32091D01*
X37703Y31924D01*
X38536D02*
X38702Y32091D01*
X39036D01*
X39202Y31924D01*
Y31258D01*
X39036Y31091D01*
X38702D01*
X38536Y31258D01*
Y31924D01*
X34575Y16835D02*
Y17835D01*
X35075D01*
X35241Y17668D01*
Y17335D01*
X35075Y17168D01*
X34575D01*
X34908D02*
X35241Y16835D01*
X35575D02*
X35908D01*
X35741D01*
Y17835D01*
X35575Y17668D01*
X36408Y16835D02*
X36741D01*
X36574D01*
Y17835D01*
X36408Y17668D01*
X6731Y36068D02*
Y37068D01*
X7231D01*
X7397Y36901D01*
Y36568D01*
X7231Y36401D01*
X6731D01*
X7064D02*
X7397Y36068D01*
X7731D02*
X8064D01*
X7897D01*
Y37068D01*
X7731Y36901D01*
X9230Y36068D02*
X8564D01*
X9230Y36734D01*
Y36901D01*
X9064Y37068D01*
X8730D01*
X8564Y36901D01*
X28733Y15184D02*
X28567Y15351D01*
X28234D01*
X28067Y15184D01*
Y15017D01*
X28234Y14851D01*
X28567D01*
X28733Y14684D01*
Y14518D01*
X28567Y14351D01*
X28234D01*
X28067Y14518D01*
X29067Y14351D02*
X29400D01*
X29233D01*
Y15351D01*
X29067Y15184D01*
X13167Y33853D02*
X13000Y34020D01*
X12667D01*
X12500Y33853D01*
Y33686D01*
X12667Y33520D01*
X13000D01*
X13167Y33353D01*
Y33187D01*
X13000Y33020D01*
X12667D01*
X12500Y33187D01*
X14166Y33020D02*
X13500D01*
X14166Y33686D01*
Y33853D01*
X14000Y34020D01*
X13666D01*
X13500Y33853D01*
X17200Y46900D02*
Y46067D01*
X17367Y45900D01*
X17700D01*
X17866Y46067D01*
Y46900D01*
X18200Y45900D02*
X18533D01*
X18366D01*
Y46900D01*
X18200Y46733D01*
X27512Y19415D02*
Y18582D01*
X27678Y18415D01*
X28011D01*
X28178Y18582D01*
Y19415D01*
X28511Y19248D02*
X28678Y19415D01*
X29011D01*
X29178Y19248D01*
Y19081D01*
X29011Y18915D01*
X28844D01*
X29011D01*
X29178Y18748D01*
Y18582D01*
X29011Y18415D01*
X28678D01*
X28511Y18582D01*
X25140Y2117D02*
Y3117D01*
X25640D01*
X25806Y2950D01*
Y2617D01*
X25640Y2450D01*
X25140D01*
X25473D02*
X25806Y2117D01*
X26140Y2284D02*
X26306Y2117D01*
X26640D01*
X26806Y2284D01*
Y2950D01*
X26640Y3117D01*
X26306D01*
X26140Y2950D01*
Y2783D01*
X26306Y2617D01*
X26806D01*
X46100Y51000D02*
X45434D01*
Y50500D01*
X45767D01*
X45434D01*
Y50000D01*
X46433Y51000D02*
Y50000D01*
X46933D01*
X47100Y50167D01*
Y50333D01*
X46933Y50500D01*
X46433D01*
X46933D01*
X47100Y50667D01*
Y50833D01*
X46933Y51000D01*
X46433D01*
X47433Y50000D02*
X47766D01*
X47600D01*
Y51000D01*
X47433Y50833D01*
X53334Y47900D02*
X52667D01*
Y47400D01*
X53000D01*
X52667D01*
Y46900D01*
X53667Y47900D02*
Y46900D01*
X54167D01*
X54333Y47067D01*
Y47233D01*
X54167Y47400D01*
X53667D01*
X54167D01*
X54333Y47567D01*
Y47733D01*
X54167Y47900D01*
X53667D01*
X55333Y46900D02*
X54666D01*
X55333Y47567D01*
Y47733D01*
X55166Y47900D01*
X54833D01*
X54666Y47733D01*
X32767Y48900D02*
Y49900D01*
X33267D01*
X33433Y49733D01*
Y49400D01*
X33267Y49233D01*
X32767D01*
X33100D02*
X33433Y48900D01*
X33767Y49733D02*
X33933Y49900D01*
X34266D01*
X34433Y49733D01*
Y49567D01*
X34266Y49400D01*
X34100D01*
X34266D01*
X34433Y49233D01*
Y49067D01*
X34266Y48900D01*
X33933D01*
X33767Y49067D01*
X30667Y47400D02*
Y48400D01*
X31167D01*
X31333Y48233D01*
Y47900D01*
X31167Y47733D01*
X30667D01*
X31000D02*
X31333Y47400D01*
X32166D02*
Y48400D01*
X31667Y47900D01*
X32333D01*
X15467Y49500D02*
Y50500D01*
X15967D01*
X16133Y50333D01*
Y50000D01*
X15967Y49833D01*
X15467D01*
X15800D02*
X16133Y49500D01*
X17133Y50500D02*
X16467D01*
Y50000D01*
X16800Y50167D01*
X16966D01*
X17133Y50000D01*
Y49667D01*
X16966Y49500D01*
X16633D01*
X16467Y49667D01*
X34981Y5088D02*
Y6088D01*
X35481D01*
X35647Y5921D01*
Y5588D01*
X35481Y5421D01*
X34981D01*
X35314D02*
X35647Y5088D01*
X36647Y6088D02*
X36314Y5921D01*
X35981Y5588D01*
Y5255D01*
X36147Y5088D01*
X36480D01*
X36647Y5255D01*
Y5421D01*
X36480Y5588D01*
X35981D01*
X60167Y40700D02*
Y39867D01*
X60334Y39700D01*
X60667D01*
X60833Y39867D01*
Y40700D01*
X61833Y39700D02*
X61167D01*
X61833Y40367D01*
Y40533D01*
X61666Y40700D01*
X61333D01*
X61167Y40533D01*
X30702Y29663D02*
X30535Y29830D01*
X30202D01*
X30035Y29663D01*
Y28997D01*
X30202Y28830D01*
X30535D01*
X30702Y28997D01*
X31701Y29830D02*
X31035D01*
Y29330D01*
X31368Y29496D01*
X31535D01*
X31701Y29330D01*
Y28997D01*
X31535Y28830D01*
X31201D01*
X31035Y28997D01*
X22298Y31201D02*
X22131Y31368D01*
X21798D01*
X21631Y31201D01*
Y30535D01*
X21798Y30368D01*
X22131D01*
X22298Y30535D01*
X23297Y31368D02*
X22964Y31201D01*
X22631Y30868D01*
Y30535D01*
X22797Y30368D01*
X23131D01*
X23297Y30535D01*
Y30701D01*
X23131Y30868D01*
X22631D01*
X21623Y39534D02*
Y39367D01*
X21956Y39034D01*
X22289Y39367D01*
Y39534D01*
X21956Y39034D02*
Y38534D01*
X22622D02*
X22956D01*
X22789D01*
Y39534D01*
X22622Y39367D01*
D49*
X3500Y38421D02*
Y38003D01*
Y38212D01*
X4754D01*
X4545Y38421D01*
Y37377D02*
X4754Y37168D01*
Y36750D01*
X4545Y36541D01*
X4336D01*
X4127Y36750D01*
X3918Y36541D01*
X3709D01*
X3500Y36750D01*
Y37168D01*
X3709Y37377D01*
X3918D01*
X4127Y37168D01*
X4336Y37377D01*
X4545D01*
X4127Y37168D02*
Y36750D01*
X3500Y36123D02*
Y35705D01*
Y35914D01*
X4754D01*
X4545Y36123D01*
X3500Y35078D02*
Y34660D01*
Y34869D01*
X4754D01*
X4545Y35078D01*
X3500Y33198D02*
Y34034D01*
X4336Y33198D01*
X4545D01*
X4754Y33407D01*
Y33825D01*
X4545Y34034D01*
Y31944D02*
X4754Y32153D01*
Y32571D01*
X4545Y32780D01*
X3709D01*
X3500Y32571D01*
Y32153D01*
X3709Y31944D01*
X3291Y31526D02*
Y30691D01*
X4754Y30273D02*
Y29437D01*
Y29855D01*
X3500D01*
Y29019D02*
Y28601D01*
Y28810D01*
X4336D01*
Y29019D01*
Y27139D02*
Y27766D01*
X4127Y27975D01*
X3709D01*
X3500Y27766D01*
Y27139D01*
Y26721D02*
X4754D01*
X3918D02*
X4336Y26094D01*
X3918Y26721D02*
X3500Y26094D01*
Y24841D02*
Y25258D01*
X3709Y25467D01*
X4127D01*
X4336Y25258D01*
Y24841D01*
X4127Y24632D01*
X3918D01*
Y25467D01*
X4545Y24005D02*
X4336D01*
Y24214D01*
Y23796D01*
Y24005D01*
X3709D01*
X3500Y23796D01*
Y23169D02*
Y22751D01*
Y22960D01*
X4336D01*
Y23169D01*
X3500Y22125D02*
X4336D01*
Y21498D01*
X4127Y21289D01*
X3500D01*
X3082Y20453D02*
Y20244D01*
X3291Y20035D01*
X4336D01*
Y20662D01*
X4127Y20871D01*
X3709D01*
X3500Y20662D01*
Y20035D01*
X3291Y19617D02*
Y18782D01*
X4545Y17528D02*
X4754Y17737D01*
Y18155D01*
X4545Y18364D01*
X4336D01*
X4127Y18155D01*
Y17737D01*
X3918Y17528D01*
X3709D01*
X3500Y17737D01*
Y18155D01*
X3709Y18364D01*
X3500Y17110D02*
Y16692D01*
Y16901D01*
X4754D01*
Y17110D01*
X4336Y15857D02*
Y15439D01*
X4127Y15230D01*
X3500D01*
Y15857D01*
X3709Y16065D01*
X3918Y15857D01*
Y15230D01*
X4336Y14812D02*
X3500Y14394D01*
X4336Y13976D01*
X3500Y12931D02*
Y13349D01*
X3709Y13558D01*
X4127D01*
X4336Y13349D01*
Y12931D01*
X4127Y12723D01*
X3918D01*
Y13558D01*
D50*
X39458Y41127D02*
Y40365D01*
Y40619D01*
X39966Y41127D01*
X39585Y40746D01*
X39966Y40365D01*
X39458Y26127D02*
Y25365D01*
Y25619D01*
X39966Y26127D01*
X39585Y25746D01*
X39966Y25365D01*
X39458Y11127D02*
Y10365D01*
Y10619D01*
X39966Y11127D01*
X39585Y10746D01*
X39966Y10365D01*
%TF.MD5,a711c8c1a18be0ae2da184e5b571098d*%
M02*
