%TF.GenerationSoftware,Altium Limited,Altium Designer,21.6.1 (37)*%
G04 Layer_Color=32896*
%FSLAX43Y43*%
%MOMM*%
%TF.SameCoordinates,722F286E-688C-4CC3-9CBB-BCC5CCC684D6*%
%TF.FilePolarity,Positive*%
%TF.FileFunction,Legend,Bot*%
%TF.Part,Single*%
G01*
G75*
%TA.AperFunction,NonConductor*%
%ADD46C,0.200*%
%ADD48C,0.100*%
%ADD49C,0.254*%
D46*
X30838Y1397D02*
Y3937D01*
X43838D01*
Y1397D02*
Y3937D01*
X30838Y1397D02*
X43838D01*
X42194Y5572D02*
X42861D01*
Y5072D01*
X42527Y5238D01*
X42361D01*
X42194Y5072D01*
Y4739D01*
X42361Y4572D01*
X42694D01*
X42861Y4739D01*
X32308Y4445D02*
X31975D01*
X32141D01*
Y5445D01*
X32308Y5278D01*
D48*
X49900Y46433D02*
X49733Y46600D01*
X49400D01*
X49234Y46433D01*
Y46266D01*
X49400Y46100D01*
X49567D01*
X49400D01*
X49234Y45933D01*
Y45767D01*
X49400Y45600D01*
X49733D01*
X49900Y45767D01*
X48900Y46600D02*
Y45933D01*
X48567Y45600D01*
X48234Y45933D01*
Y46600D01*
X47901Y46433D02*
X47734Y46600D01*
X47401D01*
X47234Y46433D01*
Y46266D01*
X47401Y46100D01*
X47567D01*
X47401D01*
X47234Y45933D01*
Y45767D01*
X47401Y45600D01*
X47734D01*
X47901Y45767D01*
X59544Y46891D02*
X60210D01*
Y46391D01*
X59877Y46557D01*
X59710D01*
X59544Y46391D01*
Y46058D01*
X59710Y45891D01*
X60043D01*
X60210Y46058D01*
X59210Y46891D02*
Y46224D01*
X58877Y45891D01*
X58544Y46224D01*
Y46891D01*
X9134Y39311D02*
X9300Y39477D01*
X9633D01*
X9800Y39311D01*
Y38644D01*
X9633Y38477D01*
X9300D01*
X9134Y38644D01*
Y38977D01*
X9467D01*
X8800Y38477D02*
Y39477D01*
X8134Y38477D01*
Y39477D01*
X7801D02*
Y38477D01*
X7301D01*
X7134Y38644D01*
Y39311D01*
X7301Y39477D01*
X7801D01*
X60833Y1666D02*
X61000Y1500D01*
Y1167D01*
X60833Y1000D01*
X60167D01*
X60000Y1167D01*
Y1500D01*
X60167Y1666D01*
X60500D01*
Y1333D01*
X60000Y2000D02*
X61000D01*
X60000Y2666D01*
X61000D01*
Y2999D02*
X60000D01*
Y3499D01*
X60167Y3666D01*
X60833D01*
X61000Y3499D01*
Y2999D01*
X26600Y9266D02*
Y8433D01*
X26433Y8267D01*
X26100D01*
X25934Y8433D01*
Y9266D01*
X24934Y9100D02*
X25100Y9266D01*
X25434D01*
X25600Y9100D01*
Y8933D01*
X25434Y8766D01*
X25100D01*
X24934Y8600D01*
Y8433D01*
X25100Y8267D01*
X25434D01*
X25600Y8433D01*
X24601Y9266D02*
Y8267D01*
X24101D01*
X23934Y8433D01*
Y8600D01*
X24101Y8766D01*
X24601D01*
X24101D01*
X23934Y8933D01*
Y9100D01*
X24101Y9266D01*
X24601D01*
X23601Y8100D02*
X22935D01*
X22601Y9266D02*
X21935D01*
X22268D01*
Y8267D01*
X21602Y9266D02*
X20935Y8267D01*
Y9266D02*
X21602Y8267D01*
X28094Y17522D02*
Y16689D01*
X27927Y16523D01*
X27594D01*
X27428Y16689D01*
Y17522D01*
X26428Y17356D02*
X26594Y17522D01*
X26928D01*
X27094Y17356D01*
Y17189D01*
X26928Y17022D01*
X26594D01*
X26428Y16856D01*
Y16689D01*
X26594Y16523D01*
X26928D01*
X27094Y16689D01*
X26095Y17522D02*
Y16523D01*
X25595D01*
X25428Y16689D01*
Y16856D01*
X25595Y17022D01*
X26095D01*
X25595D01*
X25428Y17189D01*
Y17356D01*
X25595Y17522D01*
X26095D01*
X25095Y16356D02*
X24429D01*
X24095Y16523D02*
Y17522D01*
X23595D01*
X23429Y17356D01*
Y17022D01*
X23595Y16856D01*
X24095D01*
X23762D02*
X23429Y16523D01*
X23096Y17522D02*
X22429Y16523D01*
Y17522D02*
X23096Y16523D01*
X51766Y1700D02*
X50767Y2366D01*
X51766D02*
X50767Y1700D01*
X51766Y2700D02*
X50767D01*
Y3200D01*
X50933Y3366D01*
X51100D01*
X51266D01*
X51433Y3200D01*
Y2700D01*
X50767Y4199D02*
Y3866D01*
X50933Y3699D01*
X51266D01*
X51433Y3866D01*
Y4199D01*
X51266Y4366D01*
X51100D01*
Y3699D01*
X50767Y5199D02*
Y4866D01*
X50933Y4699D01*
X51266D01*
X51433Y4866D01*
Y5199D01*
X51266Y5365D01*
X51100D01*
Y4699D01*
X50600Y5699D02*
Y6365D01*
X50767Y6698D02*
X51766D01*
Y7198D01*
X51600Y7365D01*
X51266D01*
X51100Y7198D01*
Y6698D01*
Y7032D02*
X50767Y7365D01*
X51766Y7698D02*
X50767Y8365D01*
X51766D02*
X50767Y7698D01*
X46166Y1500D02*
X45167Y2166D01*
X46166D02*
X45167Y1500D01*
X46166Y2500D02*
X45167D01*
Y3000D01*
X45333Y3166D01*
X45500D01*
X45666D01*
X45833Y3000D01*
Y2500D01*
X45167Y3999D02*
Y3666D01*
X45333Y3499D01*
X45666D01*
X45833Y3666D01*
Y3999D01*
X45666Y4166D01*
X45500D01*
Y3499D01*
X45167Y4999D02*
Y4666D01*
X45333Y4499D01*
X45666D01*
X45833Y4666D01*
Y4999D01*
X45666Y5165D01*
X45500D01*
Y4499D01*
X45000Y5499D02*
Y6165D01*
X46166Y6498D02*
Y7165D01*
Y6832D01*
X45167D01*
X46166Y7498D02*
X45167Y8165D01*
X46166D02*
X45167Y7498D01*
X37014Y6334D02*
X37347D01*
X37180D01*
Y5501D01*
X37347Y5334D01*
X37513D01*
X37680Y5501D01*
X36014Y5334D02*
X36680D01*
X36014Y6000D01*
Y6167D01*
X36180Y6334D01*
X36514D01*
X36680Y6167D01*
X43611Y40370D02*
X42944Y39370D01*
Y40370D02*
X43611Y39370D01*
X42611D02*
X42278D01*
X42444D01*
Y40370D01*
X42611Y40203D01*
D49*
X60310Y14833D02*
Y15849D01*
Y13563D02*
Y14833D01*
X39990Y15849D02*
X60310D01*
X39990Y13563D02*
Y15849D01*
Y13563D02*
X60310D01*
Y35661D02*
Y37820D01*
X39990D02*
X60310D01*
X39990Y35661D02*
Y37820D01*
Y35661D02*
X60310D01*
X3300Y13000D02*
Y13418D01*
Y13209D01*
X4554D01*
X4345Y13000D01*
Y14045D02*
X4554Y14254D01*
Y14671D01*
X4345Y14880D01*
X4136D01*
X3927Y14671D01*
X3718Y14880D01*
X3509D01*
X3300Y14671D01*
Y14254D01*
X3509Y14045D01*
X3718D01*
X3927Y14254D01*
X4136Y14045D01*
X4345D01*
X3927Y14254D02*
Y14671D01*
X3300Y15298D02*
Y15716D01*
Y15507D01*
X4554D01*
X4345Y15298D01*
X3300Y16343D02*
Y16761D01*
Y16552D01*
X4554D01*
X4345Y16343D01*
X3300Y18223D02*
Y17388D01*
X4136Y18223D01*
X4345D01*
X4554Y18014D01*
Y17597D01*
X4345Y17388D01*
Y19477D02*
X4554Y19268D01*
Y18850D01*
X4345Y18641D01*
X3509D01*
X3300Y18850D01*
Y19268D01*
X3509Y19477D01*
X3091Y19895D02*
Y20730D01*
X4554Y21148D02*
Y21984D01*
Y21566D01*
X3300D01*
Y22402D02*
Y22820D01*
Y22611D01*
X4136D01*
Y22402D01*
Y24282D02*
Y23656D01*
X3927Y23447D01*
X3509D01*
X3300Y23656D01*
Y24282D01*
Y24700D02*
X4554D01*
X3718D02*
X4136Y25327D01*
X3718Y24700D02*
X3300Y25327D01*
Y26581D02*
Y26163D01*
X3509Y25954D01*
X3927D01*
X4136Y26163D01*
Y26581D01*
X3927Y26790D01*
X3718D01*
Y25954D01*
X4345Y27416D02*
X4136D01*
Y27207D01*
Y27625D01*
Y27416D01*
X3509D01*
X3300Y27625D01*
Y28252D02*
Y28670D01*
Y28461D01*
X4136D01*
Y28252D01*
X3300Y29297D02*
X4136D01*
Y29924D01*
X3927Y30132D01*
X3300D01*
X2882Y30968D02*
Y31177D01*
X3091Y31386D01*
X4136D01*
Y30759D01*
X3927Y30550D01*
X3509D01*
X3300Y30759D01*
Y31386D01*
X3091Y31804D02*
Y32640D01*
X4345Y33893D02*
X4554Y33684D01*
Y33266D01*
X4345Y33058D01*
X4136D01*
X3927Y33266D01*
Y33684D01*
X3718Y33893D01*
X3509D01*
X3300Y33684D01*
Y33266D01*
X3509Y33058D01*
X3300Y34311D02*
Y34729D01*
Y34520D01*
X4554D01*
Y34311D01*
X4136Y35565D02*
Y35983D01*
X3927Y36192D01*
X3300D01*
Y35565D01*
X3509Y35356D01*
X3718Y35565D01*
Y36192D01*
X4136Y36609D02*
X3300Y37027D01*
X4136Y37445D01*
X3300Y38490D02*
Y38072D01*
X3509Y37863D01*
X3927D01*
X4136Y38072D01*
Y38490D01*
X3927Y38699D01*
X3718D01*
Y37863D01*
%TF.MD5,8fba0bc1e961b01a1239c23ebaf1fed0*%
M02*
