%TF.GenerationSoftware,Altium Limited,Altium Designer,21.6.1 (37)*%
G04 Layer_Physical_Order=1*
G04 Layer_Color=255*
%FSLAX43Y43*%
%MOMM*%
%TF.SameCoordinates,722F286E-688C-4CC3-9CBB-BCC5CCC684D6*%
%TF.FilePolarity,Positive*%
%TF.FileFunction,Copper,L1,Top,Signal*%
%TF.Part,Single*%
G01*
G75*
%TA.AperFunction,SMDPad,CuDef*%
%ADD10R,0.850X1.300*%
%ADD11O,0.450X2.000*%
%ADD12R,1.200X1.400*%
%ADD13R,1.300X0.850*%
%ADD14O,1.400X0.450*%
%ADD15R,3.100X3.100*%
%ADD16R,0.450X1.300*%
%ADD17R,1.400X1.200*%
G04:AMPARAMS|DCode=18|XSize=1.4mm|YSize=1mm|CornerRadius=0.2mm|HoleSize=0mm|Usage=FLASHONLY|Rotation=90.000|XOffset=0mm|YOffset=0mm|HoleType=Round|Shape=RoundedRectangle|*
%AMROUNDEDRECTD18*
21,1,1.400,0.600,0,0,90.0*
21,1,1.000,1.000,0,0,90.0*
1,1,0.400,0.300,0.500*
1,1,0.400,0.300,-0.500*
1,1,0.400,-0.300,-0.500*
1,1,0.400,-0.300,0.500*
%
%ADD18ROUNDEDRECTD18*%
G04:AMPARAMS|DCode=19|XSize=1.4mm|YSize=1mm|CornerRadius=0.2mm|HoleSize=0mm|Usage=FLASHONLY|Rotation=0.000|XOffset=0mm|YOffset=0mm|HoleType=Round|Shape=RoundedRectangle|*
%AMROUNDEDRECTD19*
21,1,1.400,0.600,0,0,0.0*
21,1,1.000,1.000,0,0,0.0*
1,1,0.400,0.500,-0.300*
1,1,0.400,-0.500,-0.300*
1,1,0.400,-0.500,0.300*
1,1,0.400,0.500,0.300*
%
%ADD19ROUNDEDRECTD19*%
%ADD20R,3.930X3.930*%
%ADD21O,0.250X0.800*%
%ADD22O,0.800X0.250*%
%ADD23R,5.500X2.000*%
%ADD24R,1.300X1.550*%
%TA.AperFunction,Conductor*%
%ADD25C,0.254*%
%ADD26C,0.500*%
%ADD27C,0.200*%
%ADD28C,0.381*%
%TA.AperFunction,ComponentPad*%
%ADD29O,1.450X2.000*%
%ADD30O,1.150X1.800*%
%ADD31C,0.800*%
%ADD32C,1.200*%
%ADD33C,1.600*%
%ADD34R,1.600X1.600*%
%ADD35R,1.500X1.500*%
%ADD36C,1.500*%
%ADD37C,1.800*%
%TA.AperFunction,ViaPad*%
%ADD38C,0.650*%
%ADD39C,1.270*%
%ADD40C,0.750*%
G36*
X59690Y49999D02*
X54950D01*
X54794Y49968D01*
X54662Y49879D01*
X54662Y49879D01*
X54439Y49657D01*
X53659D01*
X53523Y49630D01*
X53407Y49552D01*
X53330Y49436D01*
X53302Y49300D01*
Y48700D01*
X53330Y48563D01*
X53407Y48448D01*
X53523Y48370D01*
X53659Y48343D01*
X54659D01*
X54796Y48370D01*
X54912Y48448D01*
X54989Y48563D01*
X55016Y48700D01*
Y49080D01*
X55119Y49183D01*
X58792D01*
Y48650D01*
X58450D01*
Y46950D01*
X59690D01*
Y45985D01*
X59540Y45914D01*
X59471Y45960D01*
X59325Y45989D01*
X58375D01*
X58229Y45960D01*
X58105Y45877D01*
X58022Y45753D01*
X57993Y45607D01*
X58022Y45461D01*
X58072Y45386D01*
X58093Y45282D01*
X58072Y45178D01*
X58022Y45103D01*
X57993Y44957D01*
X58022Y44811D01*
X58105Y44687D01*
Y44577D01*
X58022Y44453D01*
X57993Y44307D01*
X58022Y44161D01*
X58072Y44086D01*
X58093Y43982D01*
X58072Y43878D01*
X58022Y43803D01*
X57993Y43657D01*
X58022Y43511D01*
X58072Y43436D01*
X58093Y43332D01*
X58072Y43228D01*
X58022Y43153D01*
X57993Y43007D01*
X58022Y42861D01*
X58072Y42786D01*
X58093Y42682D01*
X58072Y42578D01*
X58022Y42503D01*
X57993Y42357D01*
X58022Y42211D01*
X58072Y42136D01*
X58093Y42032D01*
X58072Y41928D01*
X58022Y41853D01*
X57993Y41707D01*
X58022Y41561D01*
X58072Y41486D01*
X58093Y41382D01*
X58072Y41278D01*
X58022Y41203D01*
X57993Y41057D01*
X58022Y40911D01*
X58105Y40787D01*
X58229Y40704D01*
X58375Y40675D01*
X59325D01*
X59471Y40704D01*
X59540Y40750D01*
X59690Y40679D01*
Y37479D01*
X59540Y37396D01*
X59439Y37454D01*
X59249Y37505D01*
X59051D01*
X58861Y37454D01*
X58689Y37355D01*
X58550Y37216D01*
X58451Y37044D01*
X58400Y36854D01*
Y36656D01*
X58451Y36466D01*
X58550Y36294D01*
X58689Y36155D01*
X58861Y36056D01*
X59051Y36005D01*
X59249D01*
X59439Y36056D01*
X59540Y36114D01*
X59690Y36031D01*
Y15479D01*
X59540Y15396D01*
X59439Y15454D01*
X59249Y15505D01*
X59051D01*
X58861Y15454D01*
X58689Y15355D01*
X58550Y15216D01*
X58451Y15044D01*
X58400Y14854D01*
Y14656D01*
X58416Y14598D01*
X56545Y12727D01*
X55118D01*
X55118Y12727D01*
X54962Y12696D01*
X54830Y12607D01*
X52456Y10233D01*
X52367Y10101D01*
X52336Y9945D01*
X52336Y9945D01*
Y8757D01*
X42749D01*
X41500Y10006D01*
X41500Y10006D01*
X40373Y11133D01*
Y14201D01*
X40466Y14244D01*
X40523Y14251D01*
X40659Y14115D01*
X40841Y14010D01*
X41045Y13955D01*
X41050D01*
Y14755D01*
Y15555D01*
X41045D01*
X40841Y15500D01*
X40659Y15395D01*
X40523Y15259D01*
X40466Y15266D01*
X40373Y15309D01*
Y16800D01*
Y17882D01*
X40342Y18038D01*
X40253Y18170D01*
X40253Y18170D01*
X37927Y20497D01*
X40238Y22809D01*
X40238Y22809D01*
X40327Y22941D01*
X40358Y23097D01*
X40358Y23097D01*
Y36327D01*
X40508Y36367D01*
X40550Y36294D01*
X40689Y36155D01*
X40861Y36056D01*
X41051Y36005D01*
X41249D01*
X41439Y36056D01*
X41611Y36155D01*
X41750Y36294D01*
X41849Y36466D01*
X41900Y36656D01*
Y36854D01*
X41849Y37044D01*
X41750Y37216D01*
X41611Y37355D01*
X41439Y37454D01*
X41249Y37505D01*
X41051D01*
X40861Y37454D01*
X40689Y37355D01*
X40550Y37216D01*
X40508Y37143D01*
X40358Y37183D01*
Y37731D01*
X41019Y38392D01*
X48843D01*
X49006Y38325D01*
X49194D01*
X49369Y38397D01*
X49503Y38531D01*
X49575Y38706D01*
Y38894D01*
X49537Y38987D01*
Y40313D01*
X50134D01*
Y40931D01*
X50799D01*
X50799Y40931D01*
X50907Y40952D01*
X50999Y41014D01*
X51418Y41433D01*
X51446Y41414D01*
X51554Y41393D01*
X51554Y41393D01*
X52068D01*
X52148Y41243D01*
X52122Y41203D01*
X52093Y41057D01*
X52122Y40911D01*
X52205Y40787D01*
X52329Y40704D01*
X52475Y40675D01*
X53425D01*
X53571Y40704D01*
X53695Y40787D01*
X53778Y40911D01*
X53807Y41057D01*
X53778Y41203D01*
X53728Y41278D01*
X53707Y41382D01*
X53728Y41486D01*
X53778Y41561D01*
X53807Y41707D01*
X53778Y41853D01*
X53728Y41928D01*
X53707Y42032D01*
X53728Y42136D01*
X53778Y42211D01*
X53807Y42357D01*
X53778Y42503D01*
X53728Y42578D01*
X53707Y42682D01*
X53728Y42786D01*
X53778Y42861D01*
X53807Y43007D01*
X53778Y43153D01*
X53695Y43277D01*
Y43387D01*
X53778Y43511D01*
X53807Y43657D01*
X53778Y43803D01*
X53695Y43927D01*
X53770Y44058D01*
X53825Y44141D01*
X53838Y44207D01*
X52950D01*
Y44407D01*
X53838D01*
X53825Y44473D01*
X53731Y44614D01*
Y44651D01*
X53825Y44791D01*
X53838Y44857D01*
X52950D01*
Y45057D01*
X53838D01*
X53825Y45123D01*
X53770Y45206D01*
X53695Y45337D01*
X53778Y45461D01*
X53807Y45607D01*
X53778Y45753D01*
X53695Y45877D01*
X53571Y45960D01*
X53425Y45989D01*
X52475D01*
X52329Y45960D01*
X52205Y45877D01*
X52122Y45753D01*
X52093Y45607D01*
X52122Y45461D01*
X52205Y45337D01*
X52131Y45207D01*
X51873D01*
X51836Y45244D01*
Y46183D01*
X51871Y46218D01*
X56100D01*
X56100Y46218D01*
X56208Y46239D01*
X56300Y46300D01*
X56899Y46900D01*
X57300D01*
Y47700D01*
X56600D01*
Y47399D01*
X55983Y46782D01*
X51754D01*
X51754Y46782D01*
X51646Y46761D01*
X51554Y46700D01*
X51554Y46700D01*
X51354Y46500D01*
X51293Y46408D01*
X51271Y46300D01*
X51271Y46300D01*
Y45127D01*
X51271Y45127D01*
X51293Y45019D01*
X51354Y44927D01*
X51542Y44740D01*
X51534Y44680D01*
X51489Y44590D01*
X50828D01*
X50828Y44590D01*
X50720Y44568D01*
X50628Y44507D01*
X50628Y44507D01*
X49785Y43663D01*
X49384D01*
Y42963D01*
X50184D01*
Y43264D01*
X50945Y44025D01*
X51318D01*
X51341Y43996D01*
X51354Y43825D01*
X51354Y43825D01*
X51061Y43532D01*
X51000Y43440D01*
X50979Y43332D01*
X50979Y43332D01*
Y42863D01*
X50979Y42863D01*
X50979Y42863D01*
Y41968D01*
X50979Y41968D01*
X51000Y41860D01*
X51019Y41832D01*
X50682Y41496D01*
X50134D01*
Y41813D01*
X48434D01*
Y40313D01*
X48721D01*
Y39208D01*
X40850D01*
X40850Y39208D01*
X40694Y39177D01*
X40562Y39088D01*
X40562Y39088D01*
X39662Y38188D01*
X39573Y38056D01*
X39542Y37900D01*
X39542Y37900D01*
Y23266D01*
X37350Y21074D01*
X33359Y25064D01*
X33227Y25153D01*
X33071Y25184D01*
X33071Y25184D01*
X32092D01*
Y25526D01*
X31807D01*
X31750Y25665D01*
X31899Y25814D01*
X32069D01*
X32244Y25886D01*
X32378Y26020D01*
X32450Y26195D01*
Y26383D01*
X32378Y26558D01*
X32244Y26692D01*
X32069Y26764D01*
X31881D01*
X31758Y26713D01*
X31673Y26840D01*
X34395Y29563D01*
X36509D01*
Y29045D01*
X37525D01*
X37597Y29045D01*
X37660Y28895D01*
X35419Y26655D01*
X35265Y26696D01*
X35015D01*
X34773Y26631D01*
X34557Y26506D01*
X34380Y26330D01*
X34255Y26113D01*
X34190Y25871D01*
Y25621D01*
X34255Y25380D01*
X34380Y25163D01*
X34557Y24986D01*
X34773Y24861D01*
X35015Y24796D01*
X35265D01*
X35507Y24861D01*
X35723Y24986D01*
X35900Y25163D01*
X36025Y25380D01*
X36090Y25621D01*
Y25871D01*
X36025Y26113D01*
X35900Y26330D01*
X35897Y26333D01*
X38608Y29045D01*
X39359D01*
Y30645D01*
X38209D01*
Y29444D01*
X37809Y29044D01*
X37659Y29107D01*
X37659Y29170D01*
Y30645D01*
X36509D01*
Y30127D01*
X34466D01*
X34386Y30277D01*
X34419Y30325D01*
X35226D01*
X35226Y30325D01*
X35334Y30346D01*
X35425Y30407D01*
X37665Y32647D01*
X37665Y32647D01*
X37726Y32738D01*
X37747Y32846D01*
X37747Y32846D01*
Y33754D01*
X38265D01*
Y34904D01*
X36665D01*
Y33754D01*
X37183D01*
Y32963D01*
X35109Y30889D01*
X34207D01*
X34099Y30868D01*
X34007Y30807D01*
X34007Y30807D01*
X32407Y29207D01*
X32257Y29269D01*
Y30969D01*
X32378Y31089D01*
X32450Y31264D01*
Y31452D01*
X32378Y31627D01*
X32244Y31761D01*
X32069Y31833D01*
X31881D01*
X31706Y31761D01*
X31572Y31627D01*
X31500Y31452D01*
Y31264D01*
X31572Y31089D01*
X31693Y30969D01*
Y29775D01*
X31543Y29714D01*
X31394Y29775D01*
X31206D01*
X31031Y29703D01*
X30897Y29569D01*
X30825Y29394D01*
Y29224D01*
X29983Y28382D01*
X28752D01*
Y29110D01*
X27952D01*
X27152D01*
Y28310D01*
X27152Y28310D01*
X27152D01*
X27171Y28160D01*
X27053Y28041D01*
X26992Y27950D01*
X26970Y27842D01*
X26970Y27842D01*
Y27792D01*
X26820Y27747D01*
X26801Y27775D01*
X26710Y27836D01*
X26602Y27858D01*
X26495Y27836D01*
X26404Y27775D01*
X26360Y27709D01*
X26278Y27695D01*
X26277D01*
X26195Y27709D01*
X26151Y27775D01*
X26060Y27836D01*
X25952Y27858D01*
X25845Y27836D01*
X25754Y27775D01*
X25741Y27756D01*
X25738Y27754D01*
X25568Y27765D01*
X25537Y27812D01*
X25429Y27883D01*
X25402Y27889D01*
Y27302D01*
X25202D01*
Y27889D01*
X25176Y27883D01*
X25124Y27849D01*
X25029Y27966D01*
X25423Y28360D01*
X26902D01*
Y30060D01*
X26653D01*
X26595Y30199D01*
X29942Y33545D01*
X30171D01*
Y33050D01*
X35971D01*
Y35350D01*
X30171D01*
Y34055D01*
X29836D01*
X29739Y34035D01*
X29656Y33980D01*
X25972Y30296D01*
X25917Y30214D01*
X25898Y30116D01*
Y30060D01*
X25402D01*
Y29056D01*
X25389Y29047D01*
X24678Y28336D01*
X24678Y28336D01*
X24472Y28130D01*
X24417Y28047D01*
X24408Y28002D01*
X24258Y28016D01*
Y28030D01*
X24238Y28127D01*
X24183Y28210D01*
X23955Y28438D01*
Y29387D01*
X23950Y29412D01*
Y29985D01*
X23826D01*
Y33050D01*
X26471D01*
Y35350D01*
X20826D01*
Y35756D01*
X20826Y35756D01*
X20805Y35864D01*
X20744Y35956D01*
X20744Y35956D01*
X18875Y37824D01*
Y37994D01*
X18803Y38169D01*
X18669Y38303D01*
X18494Y38375D01*
X18306D01*
X18131Y38303D01*
X17997Y38169D01*
X17925Y37994D01*
Y37806D01*
X17997Y37631D01*
X18131Y37497D01*
X18306Y37425D01*
X18476D01*
X20262Y35639D01*
Y31600D01*
X20195Y31533D01*
X20122Y31358D01*
Y31169D01*
X20195Y30994D01*
X20328Y30861D01*
X20503Y30789D01*
X20692D01*
X20866Y30861D01*
X21000Y30994D01*
X21072Y31169D01*
Y31358D01*
X21000Y31533D01*
X20866Y31666D01*
X20826Y31683D01*
Y33050D01*
X23316D01*
Y29985D01*
X22450D01*
Y28285D01*
X23455D01*
X23465Y28235D01*
X23520Y28153D01*
X23748Y27924D01*
Y27692D01*
X23743Y27685D01*
X23722Y27577D01*
Y27138D01*
X23572Y27076D01*
X23379Y27269D01*
X23288Y27330D01*
X23179Y27351D01*
X23179Y27351D01*
X21722D01*
X21614Y27330D01*
X21522Y27269D01*
X21522Y27268D01*
X21373Y27120D01*
X21360Y27100D01*
X21100D01*
Y26300D01*
X21000D01*
Y26200D01*
X20100D01*
Y26104D01*
X19961Y26046D01*
X19282Y26725D01*
Y32711D01*
X19403Y32831D01*
X19475Y33006D01*
Y33194D01*
X19403Y33369D01*
X19269Y33503D01*
X19094Y33575D01*
X18906D01*
X18731Y33503D01*
X18597Y33369D01*
X18525Y33194D01*
Y33006D01*
X18597Y32831D01*
X18718Y32711D01*
Y26608D01*
X18718Y26608D01*
X18739Y26500D01*
X18800Y26409D01*
X19986Y25223D01*
X19986Y25223D01*
X20077Y25162D01*
X20150Y25148D01*
Y24908D01*
X16514D01*
X16514Y24908D01*
X16358Y24877D01*
X16225Y24788D01*
X16225Y24788D01*
X11412Y19975D01*
X11148Y20046D01*
X10872D01*
X10605Y19975D01*
X10365Y19836D01*
X10170Y19641D01*
X10032Y19402D01*
X9960Y19134D01*
Y18858D01*
X10032Y18591D01*
X10170Y18352D01*
X10365Y18156D01*
X10605Y18018D01*
X10872Y17946D01*
X11148D01*
X11412Y18017D01*
X12918Y16512D01*
X12918Y16512D01*
X13050Y16423D01*
X13206Y16392D01*
X34563D01*
X34675Y16300D01*
X34675Y16242D01*
Y15782D01*
X32096D01*
X31976Y15903D01*
X31801Y15975D01*
X31613D01*
X31438Y15903D01*
X31304Y15769D01*
X31232Y15594D01*
Y15406D01*
X31304Y15231D01*
X31438Y15097D01*
X31613Y15025D01*
X31801D01*
X31976Y15097D01*
X32096Y15218D01*
X34675D01*
Y14700D01*
X35825D01*
Y16242D01*
X35825Y16300D01*
X35937Y16392D01*
X36263D01*
X36375Y16300D01*
X36375Y16242D01*
Y14700D01*
X36668D01*
Y12673D01*
X35582Y11588D01*
X35507Y11631D01*
X35265Y11696D01*
X35015D01*
X34773Y11631D01*
X34557Y11506D01*
X34380Y11330D01*
X34255Y11113D01*
X34190Y10871D01*
Y10621D01*
X34255Y10380D01*
X34380Y10163D01*
X34557Y9986D01*
X34773Y9861D01*
X35015Y9796D01*
X35265D01*
X35507Y9861D01*
X35723Y9986D01*
X35900Y10163D01*
X36025Y10380D01*
X36090Y10621D01*
Y10871D01*
X36025Y11113D01*
X35982Y11188D01*
X37150Y12357D01*
X37211Y12448D01*
X37232Y12556D01*
Y14700D01*
X37525D01*
Y16242D01*
X37525Y16300D01*
X37637Y16392D01*
X39557D01*
Y10964D01*
X39557Y10964D01*
X39588Y10808D01*
X39677Y10676D01*
X40635Y9717D01*
X37041Y6123D01*
X33810D01*
Y6642D01*
X32660D01*
Y5042D01*
X33810D01*
Y5307D01*
X34390D01*
Y3529D01*
X34215Y3427D01*
X34038Y3250D01*
X33913Y3034D01*
X33848Y2792D01*
Y2542D01*
X33913Y2300D01*
X34038Y2084D01*
X34215Y1907D01*
X34431Y1782D01*
X34673Y1717D01*
X34923D01*
X35165Y1782D01*
X35381Y1907D01*
X35558Y2084D01*
X35683Y2300D01*
X35748Y2542D01*
Y2792D01*
X35683Y3034D01*
X35558Y3250D01*
X35381Y3427D01*
X35206Y3529D01*
Y5307D01*
X37210D01*
X37210Y5307D01*
X37366Y5338D01*
X37498Y5427D01*
X41212Y9140D01*
X42292Y8061D01*
X42292Y8061D01*
X42424Y7972D01*
X42580Y7941D01*
X52336D01*
Y5880D01*
X52169D01*
Y4280D01*
X53319D01*
Y5880D01*
X53152D01*
Y8349D01*
Y9776D01*
X55287Y11911D01*
X56714D01*
X56714Y11911D01*
X56870Y11942D01*
X57002Y12031D01*
X58993Y14021D01*
X59051Y14005D01*
X59249D01*
X59439Y14056D01*
X59540Y14114D01*
X59690Y14031D01*
Y255D01*
X8255D01*
Y1352D01*
X8405Y1414D01*
X8487Y1332D01*
X8678Y1222D01*
X8890Y1165D01*
X8900D01*
Y2000D01*
Y2835D01*
X8890D01*
X8678Y2778D01*
X8487Y2668D01*
X8405Y2586D01*
X8255Y2648D01*
Y8000D01*
X8235Y8098D01*
X8180Y8180D01*
X8098Y8235D01*
X8000Y8255D01*
X6148D01*
X6086Y8405D01*
X6168Y8487D01*
X6278Y8678D01*
X6335Y8890D01*
Y8900D01*
X4665D01*
Y8890D01*
X4722Y8678D01*
X4832Y8487D01*
X4914Y8405D01*
X4852Y8255D01*
X255D01*
Y43245D01*
X8000D01*
X8098Y43265D01*
X8180Y43320D01*
X8224Y43385D01*
X8283Y43410D01*
X8393Y43426D01*
X8487Y43332D01*
X8678Y43222D01*
X8890Y43165D01*
X8900D01*
Y44000D01*
Y44835D01*
X8890D01*
X8678Y44778D01*
X8487Y44668D01*
X8405Y44586D01*
X8255Y44648D01*
Y51245D01*
X59690D01*
Y49999D01*
D02*
G37*
G36*
X30071Y26870D02*
X29835Y26635D01*
X28852D01*
X28842Y26633D01*
X28577D01*
X28470Y26611D01*
X28379Y26550D01*
X28318Y26460D01*
X28297Y26352D01*
X28318Y26245D01*
X28379Y26154D01*
X28446Y26109D01*
X28459Y26027D01*
Y26027D01*
X28446Y25945D01*
X28379Y25900D01*
X28318Y25810D01*
X28297Y25702D01*
X28318Y25595D01*
X28379Y25504D01*
X28446Y25459D01*
X28459Y25377D01*
Y25377D01*
X28446Y25295D01*
X28379Y25250D01*
X28318Y25160D01*
X28297Y25052D01*
X28318Y24945D01*
X28379Y24854D01*
X28446Y24809D01*
X28459Y24727D01*
Y24727D01*
X28446Y24645D01*
X28379Y24600D01*
X28318Y24510D01*
X28297Y24402D01*
X28318Y24295D01*
X28379Y24204D01*
X28399Y24191D01*
X28400Y24187D01*
X28390Y24018D01*
X28343Y23987D01*
X28271Y23879D01*
X28267Y23860D01*
X28117Y23874D01*
Y24302D01*
X26052D01*
Y22237D01*
X28117D01*
Y23630D01*
X28267Y23645D01*
X28271Y23625D01*
X28343Y23518D01*
X28390Y23487D01*
X28400Y23317D01*
X28399Y23314D01*
X28379Y23300D01*
X28318Y23210D01*
X28297Y23102D01*
X28318Y22995D01*
X28379Y22904D01*
X28446Y22859D01*
X28459Y22777D01*
Y22777D01*
X28446Y22695D01*
X28379Y22650D01*
X28318Y22560D01*
X28297Y22452D01*
X28318Y22345D01*
X28379Y22254D01*
X28470Y22193D01*
X28577Y22172D01*
X28842D01*
X28852Y22170D01*
X29007D01*
X30167Y21009D01*
X30167Y21009D01*
X30259Y20948D01*
X30367Y20927D01*
X30367Y20927D01*
X31464D01*
X31564Y20827D01*
X31739Y20754D01*
X31927D01*
X32102Y20827D01*
X32236Y20960D01*
X32308Y21135D01*
Y21324D01*
X32246Y21474D01*
X32306Y21624D01*
X32647D01*
X32712Y21474D01*
X32645Y21313D01*
Y21309D01*
X33695D01*
Y21313D01*
X33629Y21474D01*
X33694Y21624D01*
X34492D01*
X35785Y20330D01*
X35702Y20215D01*
X35527Y20287D01*
X35339D01*
X35164Y20215D01*
X35044Y20094D01*
X29073D01*
X28185Y20983D01*
Y21502D01*
X28183Y21512D01*
Y21777D01*
X28162Y21885D01*
X28101Y21975D01*
X28010Y22036D01*
X27902Y22058D01*
X27795Y22036D01*
X27704Y21975D01*
X27660Y21909D01*
X27578Y21895D01*
X27577D01*
X27495Y21909D01*
X27451Y21975D01*
X27360Y22036D01*
X27252Y22058D01*
X27145Y22036D01*
X27054Y21975D01*
X27010Y21909D01*
X26928Y21895D01*
X26927D01*
X26845Y21909D01*
X26801Y21975D01*
X26710Y22036D01*
X26602Y22058D01*
X26495Y22036D01*
X26404Y21975D01*
X26360Y21909D01*
X26278Y21895D01*
X26277D01*
X26195Y21909D01*
X26151Y21975D01*
X26060Y22036D01*
X25952Y22058D01*
X25845Y22036D01*
X25754Y21975D01*
X25710Y21909D01*
X25628Y21895D01*
X25627D01*
X25545Y21909D01*
X25501Y21975D01*
X25410Y22036D01*
X25302Y22058D01*
X25195Y22036D01*
X25104Y21975D01*
X25091Y21956D01*
X25088Y21954D01*
X24918Y21965D01*
X24887Y22012D01*
X24779Y22083D01*
X24760Y22087D01*
X24775Y22237D01*
X25852D01*
Y24302D01*
X23787D01*
Y22237D01*
X24530D01*
X24545Y22087D01*
X24526Y22083D01*
X24418Y22012D01*
X24387Y21965D01*
X24217Y21954D01*
X24214Y21956D01*
X24201Y21975D01*
X24110Y22036D01*
X24002Y22058D01*
X23895Y22036D01*
X23804Y21975D01*
X23743Y21885D01*
X23732Y21829D01*
X23243D01*
X23135Y21807D01*
X23044Y21746D01*
X23044Y21746D01*
X22524Y21226D01*
X21457D01*
X21384Y21376D01*
X21440Y21448D01*
X22060D01*
X22060Y21448D01*
X22168Y21470D01*
X22260Y21531D01*
X22901Y22172D01*
X23327D01*
X23435Y22193D01*
X23526Y22254D01*
X23587Y22345D01*
X23608Y22452D01*
X23587Y22560D01*
X23526Y22650D01*
X23459Y22695D01*
X23446Y22777D01*
Y22777D01*
X23459Y22859D01*
X23526Y22904D01*
X23587Y22995D01*
X23608Y23102D01*
X23587Y23210D01*
X23526Y23300D01*
X23459Y23345D01*
X23446Y23427D01*
Y23427D01*
X23459Y23509D01*
X23526Y23554D01*
X23587Y23645D01*
X23608Y23752D01*
X23587Y23860D01*
X23526Y23950D01*
X23459Y23995D01*
X23446Y24077D01*
Y24077D01*
X23459Y24159D01*
X23526Y24204D01*
X23587Y24295D01*
X23608Y24402D01*
X23587Y24510D01*
X23526Y24600D01*
X23459Y24645D01*
X23446Y24727D01*
Y24727D01*
X23459Y24809D01*
X23526Y24854D01*
X23587Y24945D01*
X23608Y25052D01*
X23587Y25160D01*
X23526Y25250D01*
X23459Y25295D01*
X23446Y25377D01*
Y25377D01*
X23459Y25459D01*
X23526Y25504D01*
X23587Y25595D01*
X23608Y25702D01*
X23587Y25810D01*
X23526Y25900D01*
X23459Y25945D01*
X23446Y26027D01*
Y26027D01*
X23459Y26109D01*
X23526Y26154D01*
X23587Y26245D01*
X23603Y26330D01*
X23623Y26343D01*
X23623Y26343D01*
X23787D01*
Y24502D01*
X25852D01*
Y26567D01*
X25695D01*
X25606Y26688D01*
X25626Y26751D01*
X25661Y26772D01*
X25792Y26803D01*
X25845Y26768D01*
X25952Y26747D01*
X26060Y26768D01*
X26151Y26829D01*
X26195Y26896D01*
X26277Y26909D01*
X26278D01*
X26360Y26896D01*
X26404Y26829D01*
X26495Y26768D01*
X26602Y26747D01*
X26710Y26768D01*
X26801Y26829D01*
X26845Y26896D01*
X26927Y26909D01*
X26928D01*
X27010Y26896D01*
X27054Y26829D01*
X27145Y26768D01*
X27252Y26747D01*
X27360Y26768D01*
X27451Y26829D01*
X27495Y26896D01*
X27577Y26909D01*
X27578D01*
X27660Y26896D01*
X27704Y26829D01*
X27795Y26768D01*
X27902Y26747D01*
X28010Y26768D01*
X28101Y26829D01*
X28162Y26920D01*
X28181Y27020D01*
X30009D01*
X30071Y26870D01*
D02*
G37*
G36*
X15825Y23022D02*
Y22968D01*
X15897Y22793D01*
X16031Y22660D01*
X16206Y22587D01*
X16376D01*
X16562Y22400D01*
X16562Y22400D01*
X16654Y22339D01*
X16762Y22318D01*
X16762Y22318D01*
X20783D01*
X20813Y22168D01*
X20731Y22134D01*
X20597Y22000D01*
X20525Y21825D01*
Y21636D01*
X20597Y21462D01*
X20683Y21376D01*
X20621Y21226D01*
X20072D01*
X19952Y21346D01*
X19778Y21418D01*
X19589D01*
X19414Y21346D01*
X19280Y21213D01*
X19208Y21038D01*
Y20849D01*
X19280Y20674D01*
X19414Y20541D01*
X19589Y20468D01*
X19778D01*
X19952Y20541D01*
X20072Y20661D01*
X22641D01*
X22641Y20661D01*
X22749Y20683D01*
X22840Y20744D01*
X23360Y21264D01*
X23722D01*
Y21227D01*
X23743Y21120D01*
X23804Y21029D01*
X23895Y20968D01*
X24004Y20867D01*
X24005Y20805D01*
Y20458D01*
X23111D01*
Y19658D01*
X23911D01*
X24711D01*
Y20458D01*
X24569D01*
Y20749D01*
X24732Y20912D01*
X24779Y20921D01*
X24870Y20982D01*
X24944Y20963D01*
X25020Y20922D01*
Y20408D01*
X24961D01*
Y18708D01*
X26461D01*
Y20298D01*
X26611Y20360D01*
X28756Y18215D01*
X28756Y18215D01*
X28848Y18154D01*
X28956Y18133D01*
X32123D01*
X32243Y18012D01*
X32418Y17940D01*
X32606D01*
X32781Y18012D01*
X32915Y18146D01*
X32987Y18321D01*
Y18509D01*
X32915Y18684D01*
X32854Y18745D01*
X32916Y18895D01*
X33111D01*
X33231Y18774D01*
X33406Y18702D01*
X33595D01*
X33769Y18774D01*
X33903Y18908D01*
X33975Y19083D01*
Y19271D01*
X33930Y19380D01*
X34015Y19530D01*
X35044D01*
X35164Y19409D01*
X35339Y19337D01*
X35527D01*
X35702Y19409D01*
X35836Y19543D01*
X35908Y19718D01*
Y19906D01*
X35836Y20081D01*
X35951Y20164D01*
X37625Y18491D01*
Y18321D01*
X37697Y18146D01*
X37831Y18012D01*
X38006Y17940D01*
X38194D01*
X38369Y18012D01*
X38503Y18146D01*
X38575Y18321D01*
Y18483D01*
X38648Y18534D01*
X38714Y18557D01*
X39557Y17713D01*
Y17208D01*
X13375D01*
X11989Y18594D01*
X12060Y18858D01*
Y19134D01*
X11989Y19399D01*
X15675Y23084D01*
X15825Y23022D01*
D02*
G37*
G36*
X37062Y20209D02*
X38242Y19029D01*
X38219Y18963D01*
X38168Y18890D01*
X38024D01*
X34808Y22106D01*
X34717Y22167D01*
X34609Y22189D01*
X34609Y22189D01*
X32142D01*
Y22876D01*
X31242D01*
Y22976D01*
X31142D01*
Y23776D01*
X30741D01*
X30641Y23876D01*
X30704Y24026D01*
X32092D01*
Y24368D01*
X32902D01*
X37062Y20209D01*
D02*
G37*
%LPC*%
G36*
X29194Y50775D02*
X29006D01*
X28843Y50708D01*
X27951D01*
X27871Y50724D01*
X27871Y50724D01*
X21519D01*
X21363Y50693D01*
X21231Y50604D01*
X21231Y50604D01*
X19774Y49147D01*
X19685Y49015D01*
X19654Y48859D01*
X19654Y48859D01*
Y47850D01*
X19680Y47722D01*
Y47075D01*
X19709Y46929D01*
X19792Y46805D01*
X19916Y46722D01*
X20062Y46693D01*
X20208Y46722D01*
X20283Y46772D01*
X20387Y46793D01*
X20491Y46772D01*
X20566Y46722D01*
X20712Y46693D01*
X20858Y46722D01*
X20982Y46805D01*
X21092D01*
X21216Y46722D01*
X21362Y46693D01*
X21508Y46722D01*
X21583Y46772D01*
X21687Y46793D01*
X21791Y46772D01*
X21866Y46722D01*
X22012Y46693D01*
X22158Y46722D01*
X22282Y46805D01*
X22392D01*
X22516Y46722D01*
X22662Y46693D01*
X22808Y46722D01*
X22883Y46772D01*
X22987Y46793D01*
X23091Y46772D01*
X23166Y46722D01*
X23312Y46693D01*
X23458Y46722D01*
X23530Y46769D01*
X23680Y46701D01*
Y46532D01*
X19004D01*
X17725Y47812D01*
Y49013D01*
X16575D01*
Y47412D01*
X17326D01*
X18688Y46050D01*
X18779Y45989D01*
X18887Y45968D01*
X18888Y45968D01*
X23813D01*
X23813Y45968D01*
X23921Y45989D01*
X24013Y46050D01*
X24162Y46199D01*
X24162Y46199D01*
X24223Y46291D01*
X24244Y46399D01*
Y46701D01*
X24394Y46769D01*
X24466Y46722D01*
X24612Y46693D01*
X24758Y46722D01*
X24882Y46805D01*
X24992D01*
X25116Y46722D01*
X25262Y46693D01*
X25408Y46722D01*
X25483Y46772D01*
X25587Y46793D01*
X25691Y46772D01*
X25766Y46722D01*
X25912Y46693D01*
X26058Y46722D01*
X26182Y46805D01*
X26292D01*
X26416Y46722D01*
X26562Y46693D01*
X26708Y46722D01*
X26783Y46772D01*
X26887Y46793D01*
X26991Y46772D01*
X27066Y46722D01*
X27212Y46693D01*
X27358Y46722D01*
X27482Y46805D01*
X27592D01*
X27716Y46722D01*
X27862Y46693D01*
X28008Y46722D01*
X28015Y46726D01*
X28165Y46646D01*
Y44939D01*
X28191Y44806D01*
X28267Y44693D01*
X28466Y44494D01*
X28479Y44400D01*
X28466Y44306D01*
X28267Y44107D01*
X28191Y43994D01*
X28165Y43861D01*
Y42193D01*
X28052Y42133D01*
X28015Y42128D01*
X27962Y42138D01*
Y40950D01*
X27762D01*
Y42138D01*
X27696Y42125D01*
X27613Y42070D01*
X27482Y41995D01*
X27358Y42078D01*
X27212Y42107D01*
X27066Y42078D01*
X26991Y42028D01*
X26887Y42007D01*
X26783Y42028D01*
X26708Y42078D01*
X26562Y42107D01*
X26416Y42078D01*
X26292Y41995D01*
X26182D01*
X26058Y42078D01*
X25912Y42107D01*
X25766Y42078D01*
X25691Y42028D01*
X25587Y42007D01*
X25483Y42028D01*
X25408Y42078D01*
X25262Y42107D01*
X25116Y42078D01*
X25044Y42031D01*
X24894Y42099D01*
Y42863D01*
X24894Y42863D01*
X24873Y42971D01*
X24812Y43063D01*
X24812Y43063D01*
X24175Y43700D01*
X24084Y43761D01*
X23975Y43782D01*
X23975Y43782D01*
X23300D01*
X23300Y43782D01*
X23192Y43761D01*
X23100Y43700D01*
X23100Y43700D01*
X22462Y43062D01*
X22401Y42970D01*
X22380Y42862D01*
X22380Y42862D01*
Y42099D01*
X22230Y42031D01*
X22158Y42078D01*
X22012Y42107D01*
X21866Y42078D01*
X21791Y42028D01*
X21687Y42007D01*
X21583Y42028D01*
X21508Y42078D01*
X21362Y42107D01*
X21216Y42078D01*
X21092Y41995D01*
X20982D01*
X20858Y42078D01*
X20712Y42107D01*
X20566Y42078D01*
X20442Y41995D01*
X20311Y42070D01*
X20228Y42125D01*
X20162Y42138D01*
Y40950D01*
Y39762D01*
X20228Y39775D01*
X20311Y39830D01*
X20442Y39905D01*
X20566Y39822D01*
X20712Y39793D01*
X20858Y39822D01*
X20982Y39905D01*
X21092D01*
X21216Y39822D01*
X21362Y39793D01*
X21508Y39822D01*
X21583Y39872D01*
X21687Y39893D01*
X21791Y39872D01*
X21866Y39822D01*
X21924Y39810D01*
X21946Y39788D01*
X21960Y39767D01*
X23506Y38222D01*
X23598Y38160D01*
X23706Y38139D01*
X23706Y38139D01*
X24764D01*
X24885Y38019D01*
X25059Y37946D01*
X25248D01*
X25423Y38019D01*
X25556Y38152D01*
X25629Y38327D01*
Y38516D01*
X25556Y38690D01*
X25479Y38768D01*
X25541Y38918D01*
X28300D01*
X28300Y38918D01*
X28408Y38939D01*
X28500Y39000D01*
X31672Y42173D01*
X43444D01*
Y41582D01*
X45044D01*
Y41631D01*
X45650D01*
Y41338D01*
X47250D01*
Y42488D01*
X45650D01*
Y42196D01*
X45044D01*
Y42732D01*
X43973D01*
X43946Y42738D01*
X43946Y42738D01*
X31555D01*
X31447Y42716D01*
X31355Y42655D01*
X31355Y42655D01*
X29033Y40332D01*
X28894Y40390D01*
Y41725D01*
X28865Y41871D01*
X28859Y41880D01*
Y43718D01*
X28879Y43737D01*
X29312D01*
X29445Y43764D01*
X29558Y43839D01*
X30724Y45005D01*
X30733Y45019D01*
X30872Y45007D01*
X30900Y44999D01*
X30900Y44997D01*
Y43975D01*
X32500D01*
Y44437D01*
X34598D01*
X34731Y44464D01*
X34844Y44539D01*
X35794Y45490D01*
X35953Y45436D01*
X35974Y45275D01*
X36067Y45050D01*
X36215Y44856D01*
X36409Y44708D01*
X36634Y44615D01*
X36775Y44596D01*
Y45791D01*
X36875D01*
Y45891D01*
X37808D01*
Y46066D01*
X37789Y46212D01*
X37926Y46318D01*
X37991Y46291D01*
X38209D01*
X38412Y46375D01*
X38566Y46529D01*
X38650Y46732D01*
Y46950D01*
X38595Y47084D01*
X38680Y47234D01*
X39890D01*
X40262Y46862D01*
Y46591D01*
X39725D01*
Y46641D01*
X39400D01*
Y45791D01*
Y44941D01*
X39725D01*
Y44991D01*
X41492D01*
Y44500D01*
X41492Y44500D01*
X41523Y44344D01*
X41612Y44212D01*
X42255Y43569D01*
X42255Y43569D01*
X42387Y43480D01*
X42543Y43449D01*
X42543Y43449D01*
X43444D01*
Y43282D01*
X45044D01*
Y43692D01*
X45120Y43744D01*
X46720Y45343D01*
X47100D01*
X47237Y45370D01*
X47352Y45448D01*
X47430Y45563D01*
X47457Y45700D01*
Y46700D01*
X47430Y46837D01*
X47352Y46952D01*
X47237Y47030D01*
X47100Y47057D01*
X46500D01*
X46363Y47030D01*
X46248Y46952D01*
X46170Y46837D01*
X46143Y46700D01*
Y45920D01*
X45311Y45088D01*
X45184Y45173D01*
X45226Y45275D01*
X45258Y45516D01*
Y45691D01*
X44425D01*
Y44596D01*
X44566Y44615D01*
X44591Y44625D01*
X44685Y44502D01*
X44638Y44440D01*
X44419D01*
X44379Y44432D01*
X43444D01*
Y44265D01*
X42712D01*
X42308Y44669D01*
Y45791D01*
X42277Y45947D01*
X42275Y45950D01*
Y46591D01*
X41588D01*
Y47267D01*
X41561Y47400D01*
X41486Y47513D01*
X40541Y48458D01*
X40428Y48533D01*
X40295Y48560D01*
X37324D01*
X37273Y48710D01*
X37278Y48713D01*
X37402Y48875D01*
X37480Y49064D01*
X37507Y49266D01*
Y49491D01*
X36725D01*
X35943D01*
Y49266D01*
X35970Y49064D01*
X36048Y48875D01*
X36172Y48713D01*
X36320Y48600D01*
X36336Y48561D01*
X36342Y48423D01*
X35146Y47227D01*
X35007Y47284D01*
Y48225D01*
X33407D01*
Y47763D01*
X33214D01*
X32760Y48217D01*
X32647Y48292D01*
X32515Y48318D01*
X30757D01*
X30624Y48292D01*
X30512Y48217D01*
X29602Y47307D01*
X29527Y47194D01*
X29500Y47062D01*
Y45656D01*
X29009Y45165D01*
X28859Y45227D01*
Y46920D01*
X28865Y46929D01*
X28894Y47075D01*
Y48625D01*
X28865Y48771D01*
X28782Y48895D01*
X28658Y48978D01*
X28512Y49007D01*
X28420Y48989D01*
X28270Y49081D01*
Y49892D01*
X28843D01*
X29006Y49825D01*
X29194D01*
X29369Y49897D01*
X29503Y50031D01*
X29575Y50206D01*
Y50394D01*
X29503Y50569D01*
X29369Y50703D01*
X29194Y50775D01*
D02*
G37*
G36*
X44575Y50685D02*
Y49691D01*
X45257D01*
Y49916D01*
X45230Y50118D01*
X45152Y50307D01*
X45028Y50469D01*
X44866Y50593D01*
X44677Y50671D01*
X44575Y50685D01*
D02*
G37*
G36*
X36825Y50685D02*
Y49691D01*
X37507D01*
Y49916D01*
X37480Y50118D01*
X37402Y50307D01*
X37278Y50469D01*
X37116Y50593D01*
X36927Y50671D01*
X36825Y50685D01*
D02*
G37*
G36*
X36625Y50685D02*
X36523Y50671D01*
X36334Y50593D01*
X36172Y50469D01*
X36048Y50307D01*
X35970Y50118D01*
X35943Y49916D01*
Y49691D01*
X36625D01*
Y50685D01*
D02*
G37*
G36*
X44375Y50685D02*
X44273Y50671D01*
X44084Y50593D01*
X43922Y50469D01*
X43798Y50307D01*
X43720Y50118D01*
X43693Y49916D01*
Y49691D01*
X44375D01*
Y50685D01*
D02*
G37*
G36*
X45257Y49491D02*
X44575D01*
Y48497D01*
X44677Y48511D01*
X44866Y48589D01*
X45028Y48713D01*
X45152Y48875D01*
X45230Y49064D01*
X45257Y49266D01*
Y49491D01*
D02*
G37*
G36*
X44375D02*
X43693D01*
Y49266D01*
X43720Y49064D01*
X43798Y48875D01*
X43922Y48713D01*
X44084Y48589D01*
X44273Y48511D01*
X44375Y48497D01*
Y49491D01*
D02*
G37*
G36*
X47100Y49657D02*
X46500D01*
X46363Y49630D01*
X46248Y49552D01*
X46170Y49437D01*
X46143Y49300D01*
Y49061D01*
X46073Y48956D01*
X46042Y48800D01*
X46073Y48644D01*
X46143Y48539D01*
Y48300D01*
X46170Y48163D01*
X46248Y48048D01*
X46363Y47970D01*
X46500Y47943D01*
X47100D01*
X47237Y47970D01*
X47352Y48048D01*
X47430Y48163D01*
X47455Y48292D01*
X48368D01*
X48451Y48191D01*
X48482Y48035D01*
X48534Y47957D01*
Y47850D01*
X48649D01*
X48703Y47814D01*
X48859Y47783D01*
X49015Y47814D01*
X49068Y47850D01*
X50234D01*
Y48592D01*
X50724D01*
X50730Y48563D01*
X50807Y48448D01*
X50923Y48370D01*
X51059Y48343D01*
X52059D01*
X52196Y48370D01*
X52312Y48448D01*
X52389Y48563D01*
X52416Y48700D01*
Y49300D01*
X52389Y49436D01*
X52312Y49552D01*
X52196Y49630D01*
X52059Y49657D01*
X51059D01*
X50923Y49630D01*
X50807Y49552D01*
X50730Y49436D01*
X50724Y49408D01*
X49884D01*
X49728Y49377D01*
X49688Y49350D01*
X48534D01*
Y49108D01*
X47457D01*
Y49300D01*
X47430Y49437D01*
X47352Y49552D01*
X47237Y49630D01*
X47100Y49657D01*
D02*
G37*
G36*
X16075Y49062D02*
X15550D01*
Y48312D01*
X16075D01*
Y49062D01*
D02*
G37*
G36*
X15350D02*
X14825D01*
Y48312D01*
X15350D01*
Y49062D01*
D02*
G37*
G36*
X58200Y48700D02*
X57500D01*
Y47900D01*
X58200D01*
Y48700D01*
D02*
G37*
G36*
X57300D02*
X56600D01*
Y47900D01*
X57300D01*
Y48700D01*
D02*
G37*
G36*
X58200Y47700D02*
X57500D01*
Y46900D01*
X58200D01*
Y47700D01*
D02*
G37*
G36*
X50284Y47600D02*
X49484D01*
Y46900D01*
X50284D01*
Y47600D01*
D02*
G37*
G36*
X49284D02*
X48484D01*
Y46900D01*
X49284D01*
Y47600D01*
D02*
G37*
G36*
X50284Y46700D02*
X49484D01*
Y46000D01*
X50284D01*
Y46700D01*
D02*
G37*
G36*
X49284D02*
X48484D01*
Y46000D01*
X49284D01*
Y46700D01*
D02*
G37*
G36*
X44425Y46986D02*
Y45891D01*
X45258D01*
Y46066D01*
X45226Y46307D01*
X45133Y46532D01*
X44985Y46726D01*
X44791Y46874D01*
X44566Y46967D01*
X44425Y46986D01*
D02*
G37*
G36*
X39200Y46641D02*
X38875D01*
Y45891D01*
X39200D01*
Y46641D01*
D02*
G37*
G36*
X43209Y47391D02*
X42991D01*
X42788Y47307D01*
X42634Y47153D01*
X42550Y46950D01*
Y46732D01*
X42634Y46529D01*
X42788Y46375D01*
X42991Y46291D01*
X43209D01*
X43274Y46318D01*
X43411Y46212D01*
X43392Y46066D01*
Y45891D01*
X44225D01*
Y46986D01*
X44084Y46967D01*
X43859Y46874D01*
X43800Y46829D01*
X43650Y46903D01*
Y46950D01*
X43566Y47153D01*
X43412Y47307D01*
X43209Y47391D01*
D02*
G37*
G36*
X39200Y45691D02*
X38875D01*
Y44941D01*
X39200D01*
Y45691D01*
D02*
G37*
G36*
X16075Y48112D02*
X15450D01*
X14825D01*
Y47362D01*
X15168D01*
Y46337D01*
X15168Y46337D01*
X15189Y46229D01*
X15250Y46137D01*
X16609Y44778D01*
X16513Y44668D01*
X16322Y44778D01*
X16110Y44835D01*
X16100D01*
Y44100D01*
X16835D01*
Y44110D01*
X16778Y44322D01*
X16668Y44513D01*
X16778Y44609D01*
X19634Y41753D01*
X19629Y41725D01*
Y41050D01*
X19962D01*
Y42224D01*
X15732Y46454D01*
Y47362D01*
X16075D01*
Y48112D01*
D02*
G37*
G36*
X44225Y45691D02*
X43392D01*
Y45516D01*
X43424Y45275D01*
X43517Y45050D01*
X43665Y44856D01*
X43859Y44708D01*
X44084Y44615D01*
X44225Y44596D01*
Y45691D01*
D02*
G37*
G36*
X37808D02*
X36975D01*
Y44596D01*
X37116Y44615D01*
X37341Y44708D01*
X37535Y44856D01*
X37683Y45050D01*
X37776Y45275D01*
X37808Y45516D01*
Y45691D01*
D02*
G37*
G36*
X15900Y44835D02*
X15890D01*
X15678Y44778D01*
X15487Y44668D01*
X15332Y44513D01*
X15222Y44322D01*
X15165Y44110D01*
Y44100D01*
X15900D01*
Y44835D01*
D02*
G37*
G36*
X9110D02*
X9100D01*
Y44100D01*
X9835D01*
Y44110D01*
X9778Y44322D01*
X9668Y44513D01*
X9513Y44668D01*
X9322Y44778D01*
X9110Y44835D01*
D02*
G37*
G36*
X57650Y45082D02*
X56000D01*
Y43432D01*
X57650D01*
Y45082D01*
D02*
G37*
G36*
X55800D02*
X54150D01*
Y43432D01*
X55800D01*
Y45082D01*
D02*
G37*
G36*
X16835Y43900D02*
X16100D01*
Y43165D01*
X16110D01*
X16322Y43222D01*
X16513Y43332D01*
X16668Y43487D01*
X16778Y43678D01*
X16835Y43890D01*
Y43900D01*
D02*
G37*
G36*
X15900D02*
X15165D01*
Y43890D01*
X15222Y43678D01*
X15332Y43487D01*
X15487Y43332D01*
X15678Y43222D01*
X15890Y43165D01*
X15900D01*
Y43900D01*
D02*
G37*
G36*
X9835D02*
X9100D01*
Y43165D01*
X9110D01*
X9322Y43222D01*
X9513Y43332D01*
X9668Y43487D01*
X9778Y43678D01*
X9835Y43890D01*
Y43900D01*
D02*
G37*
G36*
X49184Y43663D02*
X48384D01*
Y42963D01*
X49184D01*
Y43663D01*
D02*
G37*
G36*
X50184Y42763D02*
X49384D01*
Y42063D01*
X50184D01*
Y42763D01*
D02*
G37*
G36*
X49184D02*
X48384D01*
Y42063D01*
X49184D01*
Y42763D01*
D02*
G37*
G36*
X57650Y43232D02*
X56000D01*
Y41582D01*
X57650D01*
Y43232D01*
D02*
G37*
G36*
X55800D02*
X54150D01*
Y41582D01*
X55800D01*
Y43232D01*
D02*
G37*
G36*
X37812Y41746D02*
X37780D01*
Y40846D01*
X38680D01*
Y40878D01*
X38612Y41132D01*
X38480Y41360D01*
X38294Y41546D01*
X38066Y41678D01*
X37812Y41746D01*
D02*
G37*
G36*
X37580D02*
X37548D01*
X37294Y41678D01*
X37066Y41546D01*
X36880Y41360D01*
X36748Y41132D01*
X36680Y40878D01*
Y40846D01*
X37580D01*
Y41746D01*
D02*
G37*
G36*
X47300Y40838D02*
X46550D01*
Y40313D01*
X47300D01*
Y40838D01*
D02*
G37*
G36*
X46350D02*
X45600D01*
Y40313D01*
X46350D01*
Y40838D01*
D02*
G37*
G36*
X19962Y40850D02*
X19629D01*
Y40175D01*
X19662Y40009D01*
X19756Y39869D01*
X19896Y39775D01*
X19962Y39762D01*
Y40850D01*
D02*
G37*
G36*
X38680Y40646D02*
X37780D01*
Y39746D01*
X37812D01*
X38066Y39814D01*
X38294Y39946D01*
X38480Y40132D01*
X38612Y40360D01*
X38680Y40615D01*
Y40646D01*
D02*
G37*
G36*
X37580D02*
X36680D01*
Y40615D01*
X36748Y40360D01*
X36880Y40132D01*
X37066Y39946D01*
X37294Y39814D01*
X37548Y39746D01*
X37580D01*
Y40646D01*
D02*
G37*
G36*
X47300Y40113D02*
X46550D01*
Y39588D01*
X47300D01*
Y40113D01*
D02*
G37*
G36*
X46350D02*
X45600D01*
Y39588D01*
X46350D01*
Y40113D01*
D02*
G37*
G36*
X15403Y42915D02*
X15027D01*
X14659Y42842D01*
X14313Y42698D01*
X14001Y42490D01*
X13735Y42224D01*
X13527Y41912D01*
X13383Y41566D01*
X13310Y41198D01*
Y40822D01*
X13383Y40454D01*
X13527Y40108D01*
X13735Y39796D01*
X14001Y39530D01*
X14313Y39322D01*
X14659Y39178D01*
X15027Y39105D01*
X15403D01*
X15771Y39178D01*
X16117Y39322D01*
X16429Y39530D01*
X16695Y39796D01*
X16903Y40108D01*
X17047Y40454D01*
X17120Y40822D01*
Y41198D01*
X17047Y41566D01*
X16903Y41912D01*
X16695Y42224D01*
X16429Y42490D01*
X16117Y42698D01*
X15771Y42842D01*
X15403Y42915D01*
D02*
G37*
G36*
X33610Y37835D02*
X33600D01*
Y37100D01*
X34335D01*
Y37110D01*
X34278Y37322D01*
X34168Y37513D01*
X34013Y37668D01*
X33822Y37778D01*
X33610Y37835D01*
D02*
G37*
G36*
X33400D02*
X33390D01*
X33178Y37778D01*
X32987Y37668D01*
X32832Y37513D01*
X32722Y37322D01*
X32665Y37110D01*
Y37100D01*
X33400D01*
Y37835D01*
D02*
G37*
G36*
X26610D02*
X26600D01*
Y37100D01*
X27335D01*
Y37110D01*
X27278Y37322D01*
X27168Y37513D01*
X27013Y37668D01*
X26822Y37778D01*
X26610Y37835D01*
D02*
G37*
G36*
X26400D02*
X26390D01*
X26178Y37778D01*
X25987Y37668D01*
X25832Y37513D01*
X25722Y37322D01*
X25665Y37110D01*
Y37100D01*
X26400D01*
Y37835D01*
D02*
G37*
G36*
X12610D02*
X12600D01*
Y37100D01*
X13335D01*
Y37110D01*
X13278Y37322D01*
X13168Y37513D01*
X13013Y37668D01*
X12822Y37778D01*
X12610Y37835D01*
D02*
G37*
G36*
X12400D02*
X12390D01*
X12178Y37778D01*
X11987Y37668D01*
X11832Y37513D01*
X11722Y37322D01*
X11665Y37110D01*
Y37100D01*
X12400D01*
Y37835D01*
D02*
G37*
G36*
X34335Y36900D02*
X33600D01*
Y36165D01*
X33610D01*
X33822Y36222D01*
X34013Y36332D01*
X34168Y36487D01*
X34278Y36678D01*
X34335Y36890D01*
Y36900D01*
D02*
G37*
G36*
X33400D02*
X32665D01*
Y36890D01*
X32722Y36678D01*
X32832Y36487D01*
X32987Y36332D01*
X33178Y36222D01*
X33390Y36165D01*
X33400D01*
Y36900D01*
D02*
G37*
G36*
X27335D02*
X26600D01*
Y36165D01*
X26610D01*
X26822Y36222D01*
X27013Y36332D01*
X27168Y36487D01*
X27278Y36678D01*
X27335Y36890D01*
Y36900D01*
D02*
G37*
G36*
X26400D02*
X25665D01*
Y36890D01*
X25722Y36678D01*
X25832Y36487D01*
X25987Y36332D01*
X26178Y36222D01*
X26390Y36165D01*
X26400D01*
Y36900D01*
D02*
G37*
G36*
X13335D02*
X12600D01*
Y36165D01*
X12610D01*
X12822Y36222D01*
X13013Y36332D01*
X13168Y36487D01*
X13278Y36678D01*
X13335Y36890D01*
Y36900D01*
D02*
G37*
G36*
X12400D02*
X11665D01*
Y36890D01*
X11722Y36678D01*
X11832Y36487D01*
X11987Y36332D01*
X12178Y36222D01*
X12390Y36165D01*
X12400D01*
Y36900D01*
D02*
G37*
G36*
X57249Y37505D02*
X57051D01*
X56861Y37454D01*
X56689Y37355D01*
X56550Y37216D01*
X56451Y37044D01*
X56400Y36854D01*
Y36656D01*
X56451Y36466D01*
X56550Y36294D01*
X56689Y36155D01*
X56861Y36056D01*
X57051Y36005D01*
X57249D01*
X57439Y36056D01*
X57611Y36155D01*
X57750Y36294D01*
X57849Y36466D01*
X57900Y36656D01*
Y36854D01*
X57849Y37044D01*
X57750Y37216D01*
X57611Y37355D01*
X57439Y37454D01*
X57249Y37505D01*
D02*
G37*
G36*
X55249D02*
X55051D01*
X54861Y37454D01*
X54689Y37355D01*
X54550Y37216D01*
X54451Y37044D01*
X54400Y36854D01*
Y36656D01*
X54451Y36466D01*
X54550Y36294D01*
X54689Y36155D01*
X54861Y36056D01*
X55051Y36005D01*
X55249D01*
X55439Y36056D01*
X55611Y36155D01*
X55750Y36294D01*
X55849Y36466D01*
X55900Y36656D01*
Y36854D01*
X55849Y37044D01*
X55750Y37216D01*
X55611Y37355D01*
X55439Y37454D01*
X55249Y37505D01*
D02*
G37*
G36*
X53249D02*
X53051D01*
X52861Y37454D01*
X52689Y37355D01*
X52550Y37216D01*
X52451Y37044D01*
X52400Y36854D01*
Y36656D01*
X52451Y36466D01*
X52550Y36294D01*
X52689Y36155D01*
X52861Y36056D01*
X53051Y36005D01*
X53249D01*
X53439Y36056D01*
X53611Y36155D01*
X53750Y36294D01*
X53849Y36466D01*
X53900Y36656D01*
Y36854D01*
X53849Y37044D01*
X53750Y37216D01*
X53611Y37355D01*
X53439Y37454D01*
X53249Y37505D01*
D02*
G37*
G36*
X51249D02*
X51051D01*
X50861Y37454D01*
X50689Y37355D01*
X50550Y37216D01*
X50451Y37044D01*
X50400Y36854D01*
Y36656D01*
X50451Y36466D01*
X50550Y36294D01*
X50689Y36155D01*
X50861Y36056D01*
X51051Y36005D01*
X51249D01*
X51439Y36056D01*
X51611Y36155D01*
X51750Y36294D01*
X51849Y36466D01*
X51900Y36656D01*
Y36854D01*
X51849Y37044D01*
X51750Y37216D01*
X51611Y37355D01*
X51439Y37454D01*
X51249Y37505D01*
D02*
G37*
G36*
X49249D02*
X49051D01*
X48861Y37454D01*
X48689Y37355D01*
X48550Y37216D01*
X48451Y37044D01*
X48400Y36854D01*
Y36656D01*
X48451Y36466D01*
X48550Y36294D01*
X48689Y36155D01*
X48861Y36056D01*
X49051Y36005D01*
X49249D01*
X49439Y36056D01*
X49611Y36155D01*
X49750Y36294D01*
X49849Y36466D01*
X49900Y36656D01*
Y36854D01*
X49849Y37044D01*
X49750Y37216D01*
X49611Y37355D01*
X49439Y37454D01*
X49249Y37505D01*
D02*
G37*
G36*
X47249D02*
X47051D01*
X46861Y37454D01*
X46689Y37355D01*
X46550Y37216D01*
X46451Y37044D01*
X46400Y36854D01*
Y36656D01*
X46451Y36466D01*
X46550Y36294D01*
X46689Y36155D01*
X46861Y36056D01*
X47051Y36005D01*
X47249D01*
X47439Y36056D01*
X47611Y36155D01*
X47750Y36294D01*
X47849Y36466D01*
X47900Y36656D01*
Y36854D01*
X47849Y37044D01*
X47750Y37216D01*
X47611Y37355D01*
X47439Y37454D01*
X47249Y37505D01*
D02*
G37*
G36*
X45249D02*
X45051D01*
X44861Y37454D01*
X44689Y37355D01*
X44550Y37216D01*
X44451Y37044D01*
X44400Y36854D01*
Y36656D01*
X44451Y36466D01*
X44550Y36294D01*
X44689Y36155D01*
X44861Y36056D01*
X45051Y36005D01*
X45249D01*
X45439Y36056D01*
X45611Y36155D01*
X45750Y36294D01*
X45849Y36466D01*
X45900Y36656D01*
Y36854D01*
X45849Y37044D01*
X45750Y37216D01*
X45611Y37355D01*
X45439Y37454D01*
X45249Y37505D01*
D02*
G37*
G36*
X43249D02*
X43051D01*
X42861Y37454D01*
X42689Y37355D01*
X42550Y37216D01*
X42451Y37044D01*
X42400Y36854D01*
Y36656D01*
X42451Y36466D01*
X42550Y36294D01*
X42689Y36155D01*
X42861Y36056D01*
X43051Y36005D01*
X43249D01*
X43439Y36056D01*
X43611Y36155D01*
X43750Y36294D01*
X43849Y36466D01*
X43900Y36656D01*
Y36854D01*
X43849Y37044D01*
X43750Y37216D01*
X43611Y37355D01*
X43439Y37454D01*
X43249Y37505D01*
D02*
G37*
G36*
X35265Y41696D02*
X35015D01*
X34773Y41631D01*
X34557Y41506D01*
X34380Y41330D01*
X34255Y41113D01*
X34190Y40871D01*
Y40621D01*
X34255Y40380D01*
X34380Y40163D01*
X34557Y39986D01*
X34773Y39861D01*
X35015Y39796D01*
X35265D01*
X35507Y39861D01*
X35582Y39905D01*
X37183Y38304D01*
Y36604D01*
X36665D01*
Y35454D01*
X38265D01*
Y36604D01*
X37747D01*
Y38421D01*
X37747Y38421D01*
X37726Y38529D01*
X37665Y38621D01*
X37665Y38621D01*
X35982Y40304D01*
X36025Y40380D01*
X36090Y40621D01*
Y40871D01*
X36025Y41113D01*
X35900Y41330D01*
X35723Y41506D01*
X35507Y41631D01*
X35265Y41696D01*
D02*
G37*
G36*
X8792Y34886D02*
X8267D01*
Y34136D01*
X8792D01*
Y34886D01*
D02*
G37*
G36*
X8067D02*
X7542D01*
Y34136D01*
X8067D01*
Y34886D01*
D02*
G37*
G36*
X10442Y34836D02*
X9292D01*
Y33236D01*
X10442D01*
Y33818D01*
X10611D01*
X10731Y33697D01*
X10906Y33625D01*
X11094D01*
X11269Y33697D01*
X11403Y33831D01*
X11475Y34006D01*
Y34194D01*
X11403Y34369D01*
X11269Y34503D01*
X11094Y34575D01*
X10906D01*
X10731Y34503D01*
X10611Y34382D01*
X10442D01*
Y34836D01*
D02*
G37*
G36*
X8792Y33936D02*
X8267D01*
Y33186D01*
X8792D01*
Y33936D01*
D02*
G37*
G36*
X8067D02*
X7542D01*
Y33186D01*
X8067D01*
Y33936D01*
D02*
G37*
G36*
X16148Y32546D02*
X15872D01*
X15605Y32475D01*
X15365Y32336D01*
X15170Y32141D01*
X15032Y31902D01*
X14960Y31634D01*
Y31358D01*
X15032Y31091D01*
X15170Y30852D01*
X15365Y30656D01*
X15605Y30518D01*
X15872Y30446D01*
X16148D01*
X16415Y30518D01*
X16655Y30656D01*
X16850Y30852D01*
X16988Y31091D01*
X17060Y31358D01*
Y31634D01*
X16988Y31902D01*
X16850Y32141D01*
X16655Y32336D01*
X16415Y32475D01*
X16148Y32546D01*
D02*
G37*
G36*
X11148D02*
X10872D01*
X10605Y32475D01*
X10365Y32336D01*
X10170Y32141D01*
X10032Y31902D01*
X9960Y31634D01*
Y31358D01*
X10032Y31091D01*
X10170Y30852D01*
X10365Y30656D01*
X10605Y30518D01*
X10872Y30446D01*
X11148D01*
X11415Y30518D01*
X11655Y30656D01*
X11850Y30852D01*
X11988Y31091D01*
X12060Y31358D01*
Y31634D01*
X11988Y31902D01*
X11850Y32141D01*
X11655Y32336D01*
X11415Y32475D01*
X11148Y32546D01*
D02*
G37*
G36*
X51110Y30835D02*
X51100D01*
Y30100D01*
X51835D01*
Y30110D01*
X51778Y30322D01*
X51668Y30513D01*
X51513Y30668D01*
X51322Y30778D01*
X51110Y30835D01*
D02*
G37*
G36*
X50900D02*
X50890D01*
X50678Y30778D01*
X50487Y30668D01*
X50332Y30513D01*
X50222Y30322D01*
X50165Y30110D01*
Y30100D01*
X50900D01*
Y30835D01*
D02*
G37*
G36*
X44110D02*
X44100D01*
Y30100D01*
X44835D01*
Y30110D01*
X44778Y30322D01*
X44668Y30513D01*
X44513Y30668D01*
X44322Y30778D01*
X44110Y30835D01*
D02*
G37*
G36*
X43900D02*
X43890D01*
X43678Y30778D01*
X43487Y30668D01*
X43332Y30513D01*
X43222Y30322D01*
X43165Y30110D01*
Y30100D01*
X43900D01*
Y30835D01*
D02*
G37*
G36*
X9110D02*
X9100D01*
Y30100D01*
X9835D01*
Y30110D01*
X9778Y30322D01*
X9668Y30513D01*
X9513Y30668D01*
X9322Y30778D01*
X9110Y30835D01*
D02*
G37*
G36*
X8900D02*
X8890D01*
X8678Y30778D01*
X8487Y30668D01*
X8332Y30513D01*
X8222Y30322D01*
X8165Y30110D01*
Y30100D01*
X8900D01*
Y30835D01*
D02*
G37*
G36*
X2110D02*
X2100D01*
Y30100D01*
X2835D01*
Y30110D01*
X2778Y30322D01*
X2668Y30513D01*
X2513Y30668D01*
X2322Y30778D01*
X2110Y30835D01*
D02*
G37*
G36*
X1900D02*
X1890D01*
X1678Y30778D01*
X1487Y30668D01*
X1332Y30513D01*
X1222Y30322D01*
X1165Y30110D01*
Y30100D01*
X1900D01*
Y30835D01*
D02*
G37*
G36*
X28752Y30110D02*
X28052D01*
Y29310D01*
X28752D01*
Y30110D01*
D02*
G37*
G36*
X27852D02*
X27152D01*
Y29310D01*
X27852D01*
Y30110D01*
D02*
G37*
G36*
X22200Y30035D02*
X21500D01*
Y29235D01*
X22200D01*
Y30035D01*
D02*
G37*
G36*
X21300D02*
X20600D01*
Y29235D01*
X21300D01*
Y30035D01*
D02*
G37*
G36*
X51835Y29900D02*
X51100D01*
Y29165D01*
X51110D01*
X51322Y29222D01*
X51513Y29332D01*
X51668Y29487D01*
X51778Y29678D01*
X51835Y29890D01*
Y29900D01*
D02*
G37*
G36*
X50900D02*
X50165D01*
Y29890D01*
X50222Y29678D01*
X50332Y29487D01*
X50487Y29332D01*
X50678Y29222D01*
X50890Y29165D01*
X50900D01*
Y29900D01*
D02*
G37*
G36*
X44835D02*
X44100D01*
Y29165D01*
X44110D01*
X44322Y29222D01*
X44513Y29332D01*
X44668Y29487D01*
X44778Y29678D01*
X44835Y29890D01*
Y29900D01*
D02*
G37*
G36*
X43900D02*
X43165D01*
Y29890D01*
X43222Y29678D01*
X43332Y29487D01*
X43487Y29332D01*
X43678Y29222D01*
X43890Y29165D01*
X43900D01*
Y29900D01*
D02*
G37*
G36*
X9835D02*
X9100D01*
Y29165D01*
X9110D01*
X9322Y29222D01*
X9513Y29332D01*
X9668Y29487D01*
X9778Y29678D01*
X9835Y29890D01*
Y29900D01*
D02*
G37*
G36*
X8900D02*
X8165D01*
Y29890D01*
X8222Y29678D01*
X8332Y29487D01*
X8487Y29332D01*
X8678Y29222D01*
X8890Y29165D01*
X8900D01*
Y29900D01*
D02*
G37*
G36*
X2835D02*
X2100D01*
Y29165D01*
X2110D01*
X2322Y29222D01*
X2513Y29332D01*
X2668Y29487D01*
X2778Y29678D01*
X2835Y29890D01*
Y29900D01*
D02*
G37*
G36*
X1900D02*
X1165D01*
Y29890D01*
X1222Y29678D01*
X1332Y29487D01*
X1487Y29332D01*
X1678Y29222D01*
X1890Y29165D01*
X1900D01*
Y29900D01*
D02*
G37*
G36*
X22200Y29035D02*
X21500D01*
Y28235D01*
X22200D01*
Y29035D01*
D02*
G37*
G36*
X21300D02*
X20600D01*
Y28235D01*
X21300D01*
Y29035D01*
D02*
G37*
G36*
X20900Y27100D02*
X20100D01*
Y26400D01*
X20900D01*
Y27100D01*
D02*
G37*
G36*
X37812Y26746D02*
X37780D01*
Y25846D01*
X38680D01*
Y25878D01*
X38612Y26132D01*
X38480Y26360D01*
X38294Y26546D01*
X38066Y26678D01*
X37812Y26746D01*
D02*
G37*
G36*
X37580D02*
X37548D01*
X37294Y26678D01*
X37066Y26546D01*
X36880Y26360D01*
X36748Y26132D01*
X36680Y25878D01*
Y25846D01*
X37580D01*
Y26746D01*
D02*
G37*
G36*
X38680Y25646D02*
X37780D01*
Y24746D01*
X37812D01*
X38066Y24814D01*
X38294Y24946D01*
X38480Y25132D01*
X38612Y25360D01*
X38680Y25615D01*
Y25646D01*
D02*
G37*
G36*
X37580D02*
X36680D01*
Y25615D01*
X36748Y25360D01*
X36880Y25132D01*
X37066Y24946D01*
X37294Y24814D01*
X37548Y24746D01*
X37580D01*
Y25646D01*
D02*
G37*
G36*
X54610Y23835D02*
X54600D01*
Y23100D01*
X55335D01*
Y23110D01*
X55278Y23322D01*
X55168Y23513D01*
X55013Y23668D01*
X54822Y23778D01*
X54610Y23835D01*
D02*
G37*
G36*
X54400D02*
X54390D01*
X54178Y23778D01*
X53987Y23668D01*
X53832Y23513D01*
X53722Y23322D01*
X53665Y23110D01*
Y23100D01*
X54400D01*
Y23835D01*
D02*
G37*
G36*
X47610D02*
X47600D01*
Y23100D01*
X48335D01*
Y23110D01*
X48278Y23322D01*
X48168Y23513D01*
X48013Y23668D01*
X47822Y23778D01*
X47610Y23835D01*
D02*
G37*
G36*
X47400D02*
X47390D01*
X47178Y23778D01*
X46987Y23668D01*
X46832Y23513D01*
X46722Y23322D01*
X46665Y23110D01*
Y23100D01*
X47400D01*
Y23835D01*
D02*
G37*
G36*
X12610D02*
X12600D01*
Y23100D01*
X13335D01*
Y23110D01*
X13278Y23322D01*
X13168Y23513D01*
X13013Y23668D01*
X12822Y23778D01*
X12610Y23835D01*
D02*
G37*
G36*
X12400D02*
X12390D01*
X12178Y23778D01*
X11987Y23668D01*
X11832Y23513D01*
X11722Y23322D01*
X11665Y23110D01*
Y23100D01*
X12400D01*
Y23835D01*
D02*
G37*
G36*
X5610D02*
X5600D01*
Y23100D01*
X6335D01*
Y23110D01*
X6278Y23322D01*
X6168Y23513D01*
X6013Y23668D01*
X5822Y23778D01*
X5610Y23835D01*
D02*
G37*
G36*
X5400D02*
X5390D01*
X5178Y23778D01*
X4987Y23668D01*
X4832Y23513D01*
X4722Y23322D01*
X4665Y23110D01*
Y23100D01*
X5400D01*
Y23835D01*
D02*
G37*
G36*
X55335Y22900D02*
X54600D01*
Y22165D01*
X54610D01*
X54822Y22222D01*
X55013Y22332D01*
X55168Y22487D01*
X55278Y22678D01*
X55335Y22890D01*
Y22900D01*
D02*
G37*
G36*
X54400D02*
X53665D01*
Y22890D01*
X53722Y22678D01*
X53832Y22487D01*
X53987Y22332D01*
X54178Y22222D01*
X54390Y22165D01*
X54400D01*
Y22900D01*
D02*
G37*
G36*
X48335D02*
X47600D01*
Y22165D01*
X47610D01*
X47822Y22222D01*
X48013Y22332D01*
X48168Y22487D01*
X48278Y22678D01*
X48335Y22890D01*
Y22900D01*
D02*
G37*
G36*
X47400D02*
X46665D01*
Y22890D01*
X46722Y22678D01*
X46832Y22487D01*
X46987Y22332D01*
X47178Y22222D01*
X47390Y22165D01*
X47400D01*
Y22900D01*
D02*
G37*
G36*
X13335D02*
X12600D01*
Y22165D01*
X12610D01*
X12822Y22222D01*
X13013Y22332D01*
X13168Y22487D01*
X13278Y22678D01*
X13335Y22890D01*
Y22900D01*
D02*
G37*
G36*
X12400D02*
X11665D01*
Y22890D01*
X11722Y22678D01*
X11832Y22487D01*
X11987Y22332D01*
X12178Y22222D01*
X12390Y22165D01*
X12400D01*
Y22900D01*
D02*
G37*
G36*
X6335D02*
X5600D01*
Y22165D01*
X5610D01*
X5822Y22222D01*
X6013Y22332D01*
X6168Y22487D01*
X6278Y22678D01*
X6335Y22890D01*
Y22900D01*
D02*
G37*
G36*
X5400D02*
X4665D01*
Y22890D01*
X4722Y22678D01*
X4832Y22487D01*
X4987Y22332D01*
X5178Y22222D01*
X5390Y22165D01*
X5400D01*
Y22900D01*
D02*
G37*
G36*
X44110Y16835D02*
X44100D01*
Y16100D01*
X44835D01*
Y16110D01*
X44778Y16322D01*
X44668Y16513D01*
X44513Y16668D01*
X44322Y16778D01*
X44110Y16835D01*
D02*
G37*
G36*
X43900D02*
X43890D01*
X43678Y16778D01*
X43487Y16668D01*
X43332Y16513D01*
X43222Y16322D01*
X43165Y16110D01*
Y16100D01*
X43900D01*
Y16835D01*
D02*
G37*
G36*
X9110D02*
X9100D01*
Y16100D01*
X9835D01*
Y16110D01*
X9778Y16322D01*
X9668Y16513D01*
X9513Y16668D01*
X9322Y16778D01*
X9110Y16835D01*
D02*
G37*
G36*
X8900D02*
X8890D01*
X8678Y16778D01*
X8487Y16668D01*
X8332Y16513D01*
X8222Y16322D01*
X8165Y16110D01*
Y16100D01*
X8900D01*
Y16835D01*
D02*
G37*
G36*
X2110D02*
X2100D01*
Y16100D01*
X2835D01*
Y16110D01*
X2778Y16322D01*
X2668Y16513D01*
X2513Y16668D01*
X2322Y16778D01*
X2110Y16835D01*
D02*
G37*
G36*
X1900D02*
X1890D01*
X1678Y16778D01*
X1487Y16668D01*
X1332Y16513D01*
X1222Y16322D01*
X1165Y16110D01*
Y16100D01*
X1900D01*
Y16835D01*
D02*
G37*
G36*
X26940Y16215D02*
X26190D01*
Y15340D01*
X26940D01*
Y16215D01*
D02*
G37*
G36*
X25990D02*
X25240D01*
Y15340D01*
X25990D01*
Y16215D01*
D02*
G37*
G36*
X9835Y15900D02*
X9100D01*
Y15165D01*
X9110D01*
X9322Y15222D01*
X9513Y15332D01*
X9668Y15487D01*
X9778Y15678D01*
X9835Y15890D01*
Y15900D01*
D02*
G37*
G36*
X8900D02*
X8165D01*
Y15890D01*
X8222Y15678D01*
X8332Y15487D01*
X8487Y15332D01*
X8678Y15222D01*
X8890Y15165D01*
X8900D01*
Y15900D01*
D02*
G37*
G36*
X2835D02*
X2100D01*
Y15165D01*
X2110D01*
X2322Y15222D01*
X2513Y15332D01*
X2668Y15487D01*
X2778Y15678D01*
X2835Y15890D01*
Y15900D01*
D02*
G37*
G36*
X1900D02*
X1165D01*
Y15890D01*
X1222Y15678D01*
X1332Y15487D01*
X1487Y15332D01*
X1678Y15222D01*
X1890Y15165D01*
X1900D01*
Y15900D01*
D02*
G37*
G36*
X41255Y15555D02*
X41250D01*
Y14855D01*
X41950D01*
Y14860D01*
X41895Y15064D01*
X41790Y15246D01*
X41641Y15395D01*
X41459Y15500D01*
X41255Y15555D01*
D02*
G37*
G36*
X22390Y16165D02*
X20790D01*
Y14315D01*
X22390D01*
Y16165D01*
D02*
G37*
G36*
X26940Y15140D02*
X26190D01*
Y14265D01*
X26940D01*
Y15140D01*
D02*
G37*
G36*
X25990D02*
X25240D01*
Y14265D01*
X25990D01*
Y15140D01*
D02*
G37*
G36*
X57249Y15505D02*
X57051D01*
X56861Y15454D01*
X56689Y15355D01*
X56550Y15216D01*
X56451Y15044D01*
X56400Y14854D01*
Y14656D01*
X56451Y14466D01*
X56550Y14294D01*
X56689Y14155D01*
X56861Y14056D01*
X57051Y14005D01*
X57249D01*
X57439Y14056D01*
X57611Y14155D01*
X57750Y14294D01*
X57849Y14466D01*
X57900Y14656D01*
Y14854D01*
X57849Y15044D01*
X57750Y15216D01*
X57611Y15355D01*
X57439Y15454D01*
X57249Y15505D01*
D02*
G37*
G36*
X55249D02*
X55051D01*
X54861Y15454D01*
X54689Y15355D01*
X54550Y15216D01*
X54451Y15044D01*
X54400Y14854D01*
Y14656D01*
X54451Y14466D01*
X54550Y14294D01*
X54689Y14155D01*
X54861Y14056D01*
X55051Y14005D01*
X55249D01*
X55439Y14056D01*
X55611Y14155D01*
X55750Y14294D01*
X55849Y14466D01*
X55900Y14656D01*
Y14854D01*
X55849Y15044D01*
X55750Y15216D01*
X55611Y15355D01*
X55439Y15454D01*
X55249Y15505D01*
D02*
G37*
G36*
X53249D02*
X53051D01*
X52861Y15454D01*
X52689Y15355D01*
X52550Y15216D01*
X52451Y15044D01*
X52400Y14854D01*
Y14656D01*
X52451Y14466D01*
X52550Y14294D01*
X52689Y14155D01*
X52861Y14056D01*
X53051Y14005D01*
X53249D01*
X53439Y14056D01*
X53611Y14155D01*
X53750Y14294D01*
X53849Y14466D01*
X53900Y14656D01*
Y14854D01*
X53849Y15044D01*
X53750Y15216D01*
X53611Y15355D01*
X53439Y15454D01*
X53249Y15505D01*
D02*
G37*
G36*
X51249D02*
X51051D01*
X50861Y15454D01*
X50689Y15355D01*
X50550Y15216D01*
X50451Y15044D01*
X50400Y14854D01*
Y14656D01*
X50451Y14466D01*
X50550Y14294D01*
X50689Y14155D01*
X50861Y14056D01*
X51051Y14005D01*
X51249D01*
X51439Y14056D01*
X51611Y14155D01*
X51750Y14294D01*
X51849Y14466D01*
X51900Y14656D01*
Y14854D01*
X51849Y15044D01*
X51750Y15216D01*
X51611Y15355D01*
X51439Y15454D01*
X51249Y15505D01*
D02*
G37*
G36*
X49249D02*
X49051D01*
X48861Y15454D01*
X48689Y15355D01*
X48550Y15216D01*
X48451Y15044D01*
X48400Y14854D01*
Y14656D01*
X48451Y14466D01*
X48550Y14294D01*
X48689Y14155D01*
X48861Y14056D01*
X49051Y14005D01*
X49249D01*
X49439Y14056D01*
X49611Y14155D01*
X49750Y14294D01*
X49849Y14466D01*
X49900Y14656D01*
Y14854D01*
X49849Y15044D01*
X49750Y15216D01*
X49611Y15355D01*
X49439Y15454D01*
X49249Y15505D01*
D02*
G37*
G36*
X47249D02*
X47051D01*
X46861Y15454D01*
X46689Y15355D01*
X46550Y15216D01*
X46451Y15044D01*
X46400Y14854D01*
Y14656D01*
X46451Y14466D01*
X46550Y14294D01*
X46689Y14155D01*
X46861Y14056D01*
X47051Y14005D01*
X47249D01*
X47439Y14056D01*
X47611Y14155D01*
X47750Y14294D01*
X47849Y14466D01*
X47900Y14656D01*
Y14854D01*
X47849Y15044D01*
X47750Y15216D01*
X47611Y15355D01*
X47439Y15454D01*
X47249Y15505D01*
D02*
G37*
G36*
X44835Y15900D02*
X44100D01*
Y15165D01*
X44110D01*
X44322Y15222D01*
X44409Y15272D01*
X44519Y15162D01*
X44451Y15044D01*
X44400Y14854D01*
Y14656D01*
X44451Y14466D01*
X44550Y14294D01*
X44689Y14155D01*
X44861Y14056D01*
X45051Y14005D01*
X45249D01*
X45439Y14056D01*
X45611Y14155D01*
X45750Y14294D01*
X45849Y14466D01*
X45900Y14656D01*
Y14854D01*
X45849Y15044D01*
X45750Y15216D01*
X45611Y15355D01*
X45439Y15454D01*
X45249Y15505D01*
X45051D01*
X44861Y15454D01*
X44803Y15421D01*
X44693Y15530D01*
X44778Y15678D01*
X44835Y15890D01*
Y15900D01*
D02*
G37*
G36*
X43900D02*
X43165D01*
Y15890D01*
X43222Y15678D01*
X43235Y15655D01*
X43148Y15505D01*
X43051D01*
X42861Y15454D01*
X42689Y15355D01*
X42550Y15216D01*
X42451Y15044D01*
X42400Y14854D01*
Y14656D01*
X42451Y14466D01*
X42550Y14294D01*
X42689Y14155D01*
X42861Y14056D01*
X43051Y14005D01*
X43249D01*
X43439Y14056D01*
X43611Y14155D01*
X43750Y14294D01*
X43849Y14466D01*
X43900Y14656D01*
Y14854D01*
X43855Y15021D01*
X43861Y15045D01*
X43886Y15087D01*
X43900Y15104D01*
Y15900D01*
D02*
G37*
G36*
X41950Y14655D02*
X41250D01*
Y13955D01*
X41255D01*
X41459Y14010D01*
X41641Y14115D01*
X41790Y14264D01*
X41895Y14446D01*
X41950Y14650D01*
Y14655D01*
D02*
G37*
G36*
X37812Y11746D02*
X37780D01*
Y10846D01*
X38680D01*
Y10878D01*
X38612Y11132D01*
X38480Y11360D01*
X38294Y11546D01*
X38066Y11678D01*
X37812Y11746D01*
D02*
G37*
G36*
X37580D02*
X37548D01*
X37294Y11678D01*
X37066Y11546D01*
X36880Y11360D01*
X36748Y11132D01*
X36680Y10878D01*
Y10846D01*
X37580D01*
Y11746D01*
D02*
G37*
G36*
X38680Y10646D02*
X37780D01*
Y9746D01*
X37812D01*
X38066Y9814D01*
X38294Y9946D01*
X38480Y10132D01*
X38612Y10360D01*
X38680Y10615D01*
Y10646D01*
D02*
G37*
G36*
X37580D02*
X36680D01*
Y10615D01*
X36748Y10360D01*
X36880Y10132D01*
X37066Y9946D01*
X37294Y9814D01*
X37548Y9746D01*
X37580D01*
Y10646D01*
D02*
G37*
G36*
X26610Y9835D02*
X26600D01*
Y9100D01*
X27335D01*
Y9110D01*
X27278Y9322D01*
X27168Y9513D01*
X27013Y9668D01*
X26822Y9778D01*
X26610Y9835D01*
D02*
G37*
G36*
X26400D02*
X26390D01*
X26178Y9778D01*
X25987Y9668D01*
X25832Y9513D01*
X25722Y9322D01*
X25665Y9110D01*
Y9100D01*
X26400D01*
Y9835D01*
D02*
G37*
G36*
X19610D02*
X19600D01*
Y9100D01*
X20335D01*
Y9110D01*
X20278Y9322D01*
X20168Y9513D01*
X20013Y9668D01*
X19822Y9778D01*
X19610Y9835D01*
D02*
G37*
G36*
X19400D02*
X19390D01*
X19178Y9778D01*
X18987Y9668D01*
X18832Y9513D01*
X18722Y9322D01*
X18665Y9110D01*
Y9100D01*
X19400D01*
Y9835D01*
D02*
G37*
G36*
X12610D02*
X12600D01*
Y9100D01*
X13335D01*
Y9110D01*
X13278Y9322D01*
X13168Y9513D01*
X13013Y9668D01*
X12822Y9778D01*
X12610Y9835D01*
D02*
G37*
G36*
X12400D02*
X12390D01*
X12178Y9778D01*
X11987Y9668D01*
X11832Y9513D01*
X11722Y9322D01*
X11665Y9110D01*
Y9100D01*
X12400D01*
Y9835D01*
D02*
G37*
G36*
X5610D02*
X5600D01*
Y9100D01*
X6335D01*
Y9110D01*
X6278Y9322D01*
X6168Y9513D01*
X6013Y9668D01*
X5822Y9778D01*
X5610Y9835D01*
D02*
G37*
G36*
X5400D02*
X5390D01*
X5178Y9778D01*
X4987Y9668D01*
X4832Y9513D01*
X4722Y9322D01*
X4665Y9110D01*
Y9100D01*
X5400D01*
Y9835D01*
D02*
G37*
G36*
X56764Y9586D02*
X56739D01*
Y8736D01*
X57589D01*
Y8761D01*
X57524Y9003D01*
X57399Y9219D01*
X57222Y9396D01*
X57006Y9521D01*
X56764Y9586D01*
D02*
G37*
G36*
X56539D02*
X56514D01*
X56272Y9521D01*
X56056Y9396D01*
X55879Y9219D01*
X55754Y9003D01*
X55689Y8761D01*
Y8736D01*
X56539D01*
Y9586D01*
D02*
G37*
G36*
X15403Y12405D02*
X15027D01*
X14659Y12332D01*
X14313Y12188D01*
X14001Y11980D01*
X13735Y11714D01*
X13527Y11402D01*
X13383Y11056D01*
X13310Y10688D01*
Y10312D01*
X13383Y9944D01*
X13527Y9598D01*
X13735Y9286D01*
X14001Y9020D01*
X14313Y8812D01*
X14659Y8668D01*
X15027Y8595D01*
X15403D01*
X15771Y8668D01*
X16117Y8812D01*
X16429Y9020D01*
X16695Y9286D01*
X16903Y9598D01*
X17047Y9944D01*
X17120Y10312D01*
Y10688D01*
X17047Y11056D01*
X16903Y11402D01*
X16695Y11714D01*
X16429Y11980D01*
X16117Y12188D01*
X15771Y12332D01*
X15403Y12405D01*
D02*
G37*
G36*
X20335Y8900D02*
X19600D01*
Y8165D01*
X19610D01*
X19822Y8222D01*
X20013Y8332D01*
X20168Y8487D01*
X20278Y8678D01*
X20335Y8890D01*
Y8900D01*
D02*
G37*
G36*
X19400D02*
X18665D01*
Y8890D01*
X18722Y8678D01*
X18832Y8487D01*
X18987Y8332D01*
X19178Y8222D01*
X19390Y8165D01*
X19400D01*
Y8900D01*
D02*
G37*
G36*
X13335D02*
X12600D01*
Y8165D01*
X12610D01*
X12822Y8222D01*
X13013Y8332D01*
X13168Y8487D01*
X13278Y8678D01*
X13335Y8890D01*
Y8900D01*
D02*
G37*
G36*
X12400D02*
X11665D01*
Y8890D01*
X11722Y8678D01*
X11832Y8487D01*
X11987Y8332D01*
X12178Y8222D01*
X12390Y8165D01*
X12400D01*
Y8900D01*
D02*
G37*
G36*
X57589Y8536D02*
X56739D01*
Y7686D01*
X56764D01*
X57006Y7751D01*
X57222Y7876D01*
X57399Y8053D01*
X57524Y8269D01*
X57589Y8511D01*
Y8536D01*
D02*
G37*
G36*
X56539D02*
X55689D01*
Y8511D01*
X55754Y8269D01*
X55879Y8053D01*
X56056Y7876D01*
X56272Y7751D01*
X56514Y7686D01*
X56539D01*
Y8536D01*
D02*
G37*
G36*
X31629Y14739D02*
X31441D01*
X31266Y14667D01*
X31132Y14533D01*
X31060Y14359D01*
Y14170D01*
X31132Y13995D01*
X31253Y13875D01*
Y6642D01*
X30960D01*
Y6642D01*
X30860Y6601D01*
X30519Y6942D01*
X30428Y7003D01*
X30319Y7024D01*
X30319Y7024D01*
X30060D01*
Y7492D01*
X28360D01*
Y7024D01*
X28078D01*
X28078Y7024D01*
X27970Y7003D01*
X27878Y6942D01*
X27878Y6942D01*
X24015Y3079D01*
X23865Y3141D01*
Y3467D01*
X22715D01*
Y1867D01*
X23865D01*
Y2367D01*
X24003Y2385D01*
X24111Y2406D01*
X24202Y2467D01*
X28195Y6460D01*
X28360D01*
Y5992D01*
X30060D01*
Y6441D01*
X30210Y6452D01*
X30678Y5984D01*
X30678Y5984D01*
X30770Y5923D01*
X30878Y5901D01*
X30960D01*
Y5042D01*
X31711D01*
X31976Y4777D01*
Y3617D01*
X31308D01*
Y1717D01*
X33208D01*
Y3617D01*
X32540D01*
Y4894D01*
X32519Y5002D01*
X32458Y5094D01*
X32458Y5094D01*
X32110Y5441D01*
Y6642D01*
X31817D01*
Y13875D01*
X31938Y13995D01*
X32010Y14170D01*
Y14359D01*
X31938Y14533D01*
X31804Y14667D01*
X31629Y14739D01*
D02*
G37*
G36*
X27335Y8900D02*
X25665D01*
Y8890D01*
X25722Y8678D01*
X25832Y8487D01*
X25954Y8365D01*
X25911Y8227D01*
X25902Y8215D01*
X25290D01*
Y6365D01*
X26890D01*
Y8215D01*
X26995Y8322D01*
X27013Y8332D01*
X27168Y8487D01*
X27278Y8678D01*
X27335Y8890D01*
Y8900D01*
D02*
G37*
G36*
X30110Y5742D02*
X29310D01*
Y5042D01*
X30110D01*
Y5742D01*
D02*
G37*
G36*
X29110D02*
X28310D01*
Y5042D01*
X29110D01*
Y5742D01*
D02*
G37*
G36*
X55259Y9536D02*
X53459D01*
Y7736D01*
X54077D01*
Y5880D01*
X53869D01*
Y4280D01*
X55019D01*
Y5880D01*
X54641D01*
Y7736D01*
X55259D01*
Y9536D01*
D02*
G37*
G36*
X30110Y4842D02*
X29310D01*
Y4142D01*
X30110D01*
Y4842D01*
D02*
G37*
G36*
X29110D02*
X28310D01*
Y4142D01*
X29110D01*
Y4842D01*
D02*
G37*
G36*
X37470Y3667D02*
X37438D01*
Y2767D01*
X38338D01*
Y2799D01*
X38270Y3053D01*
X38138Y3281D01*
X37952Y3467D01*
X37724Y3599D01*
X37470Y3667D01*
D02*
G37*
G36*
X37238D02*
X37206D01*
X36952Y3599D01*
X36724Y3467D01*
X36538Y3281D01*
X36406Y3053D01*
X36338Y2799D01*
Y2767D01*
X37238D01*
Y3667D01*
D02*
G37*
G36*
X51110Y2835D02*
X51100D01*
Y2100D01*
X51835D01*
Y2110D01*
X51778Y2322D01*
X51668Y2513D01*
X51513Y2668D01*
X51322Y2778D01*
X51110Y2835D01*
D02*
G37*
G36*
X50900D02*
X50890D01*
X50678Y2778D01*
X50487Y2668D01*
X50332Y2513D01*
X50222Y2322D01*
X50165Y2110D01*
Y2100D01*
X50900D01*
Y2835D01*
D02*
G37*
G36*
X44110D02*
X44100D01*
Y2100D01*
X44835D01*
Y2110D01*
X44778Y2322D01*
X44668Y2513D01*
X44513Y2668D01*
X44322Y2778D01*
X44110Y2835D01*
D02*
G37*
G36*
X30110D02*
X30100D01*
Y2100D01*
X30835D01*
Y2110D01*
X30778Y2322D01*
X30668Y2513D01*
X30513Y2668D01*
X30322Y2778D01*
X30110Y2835D01*
D02*
G37*
G36*
X29900D02*
X29890D01*
X29678Y2778D01*
X29487Y2668D01*
X29332Y2513D01*
X29222Y2322D01*
X29165Y2110D01*
Y2100D01*
X29900D01*
Y2835D01*
D02*
G37*
G36*
X16110D02*
X16100D01*
Y2100D01*
X16835D01*
Y2110D01*
X16778Y2322D01*
X16668Y2513D01*
X16513Y2668D01*
X16322Y2778D01*
X16110Y2835D01*
D02*
G37*
G36*
X15900D02*
X15890D01*
X15678Y2778D01*
X15487Y2668D01*
X15332Y2513D01*
X15222Y2322D01*
X15165Y2110D01*
Y2100D01*
X15900D01*
Y2835D01*
D02*
G37*
G36*
X9110D02*
X9100D01*
Y2100D01*
X9835D01*
Y2110D01*
X9778Y2322D01*
X9668Y2513D01*
X9513Y2668D01*
X9322Y2778D01*
X9110Y2835D01*
D02*
G37*
G36*
X22390Y8215D02*
X20790D01*
Y6365D01*
X21308D01*
Y3467D01*
X21015D01*
Y1867D01*
X22165D01*
Y3467D01*
X21872D01*
Y6365D01*
X22390D01*
Y8215D01*
D02*
G37*
G36*
X40003Y3617D02*
X39753D01*
X39511Y3552D01*
X39295Y3427D01*
X39118Y3250D01*
X38993Y3034D01*
X38928Y2792D01*
Y2542D01*
X38993Y2300D01*
X39118Y2084D01*
X39295Y1907D01*
X39511Y1782D01*
X39753Y1717D01*
X40003D01*
X40245Y1782D01*
X40461Y1907D01*
X40638Y2084D01*
X40763Y2300D01*
X40828Y2542D01*
Y2792D01*
X40763Y3034D01*
X40638Y3250D01*
X40461Y3427D01*
X40245Y3552D01*
X40003Y3617D01*
D02*
G37*
G36*
X38338Y2567D02*
X37438D01*
Y1667D01*
X37470D01*
X37724Y1735D01*
X37952Y1867D01*
X38138Y2053D01*
X38270Y2281D01*
X38338Y2535D01*
Y2567D01*
D02*
G37*
G36*
X37238D02*
X36338D01*
Y2535D01*
X36406Y2281D01*
X36538Y2053D01*
X36724Y1867D01*
X36952Y1735D01*
X37206Y1667D01*
X37238D01*
Y2567D01*
D02*
G37*
G36*
X51835Y1900D02*
X51100D01*
Y1165D01*
X51110D01*
X51322Y1222D01*
X51513Y1332D01*
X51668Y1487D01*
X51778Y1678D01*
X51835Y1890D01*
Y1900D01*
D02*
G37*
G36*
X50900D02*
X50165D01*
Y1890D01*
X50222Y1678D01*
X50332Y1487D01*
X50487Y1332D01*
X50678Y1222D01*
X50890Y1165D01*
X50900D01*
Y1900D01*
D02*
G37*
G36*
X44835D02*
X44100D01*
Y1165D01*
X44110D01*
X44322Y1222D01*
X44513Y1332D01*
X44668Y1487D01*
X44778Y1678D01*
X44835Y1890D01*
Y1900D01*
D02*
G37*
G36*
X42543Y3617D02*
X42293D01*
X42051Y3552D01*
X41835Y3427D01*
X41658Y3250D01*
X41533Y3034D01*
X41468Y2792D01*
Y2542D01*
X41533Y2300D01*
X41658Y2084D01*
X41835Y1907D01*
X42051Y1782D01*
X42293Y1717D01*
X42543D01*
X42785Y1782D01*
X43001Y1907D01*
X43031Y1937D01*
X43172Y1865D01*
X43222Y1678D01*
X43332Y1487D01*
X43487Y1332D01*
X43678Y1222D01*
X43890Y1165D01*
X43900D01*
Y2000D01*
Y2835D01*
X43890D01*
X43678Y2778D01*
X43518Y2686D01*
X43368Y2740D01*
Y2792D01*
X43303Y3034D01*
X43178Y3250D01*
X43001Y3427D01*
X42785Y3552D01*
X42543Y3617D01*
D02*
G37*
G36*
X30835Y1900D02*
X30100D01*
Y1165D01*
X30110D01*
X30322Y1222D01*
X30513Y1332D01*
X30668Y1487D01*
X30778Y1678D01*
X30835Y1890D01*
Y1900D01*
D02*
G37*
G36*
X29900D02*
X29165D01*
Y1890D01*
X29222Y1678D01*
X29332Y1487D01*
X29487Y1332D01*
X29678Y1222D01*
X29890Y1165D01*
X29900D01*
Y1900D01*
D02*
G37*
G36*
X16835D02*
X16100D01*
Y1165D01*
X16110D01*
X16322Y1222D01*
X16513Y1332D01*
X16668Y1487D01*
X16778Y1678D01*
X16835Y1890D01*
Y1900D01*
D02*
G37*
G36*
X15900D02*
X15165D01*
Y1890D01*
X15222Y1678D01*
X15332Y1487D01*
X15487Y1332D01*
X15678Y1222D01*
X15890Y1165D01*
X15900D01*
Y1900D01*
D02*
G37*
G36*
X9835D02*
X9100D01*
Y1165D01*
X9110D01*
X9322Y1222D01*
X9513Y1332D01*
X9668Y1487D01*
X9778Y1678D01*
X9835Y1890D01*
Y1900D01*
D02*
G37*
G36*
X28117Y26567D02*
X26052D01*
Y24502D01*
X28117D01*
Y26567D01*
D02*
G37*
G36*
X33695Y21109D02*
X33270D01*
Y20684D01*
X33275D01*
X33468Y20764D01*
X33615Y20912D01*
X33695Y21105D01*
Y21109D01*
D02*
G37*
G36*
X33070D02*
X32645D01*
Y21105D01*
X32725Y20912D01*
X32873Y20764D01*
X33066Y20684D01*
X33070D01*
Y21109D01*
D02*
G37*
G36*
X15286Y21455D02*
X15281D01*
Y21030D01*
X15706D01*
Y21035D01*
X15626Y21228D01*
X15479Y21375D01*
X15286Y21455D01*
D02*
G37*
G36*
X15081D02*
X15077D01*
X14884Y21375D01*
X14736Y21228D01*
X14656Y21035D01*
Y21030D01*
X15081D01*
Y21455D01*
D02*
G37*
G36*
X15706Y20830D02*
X15281D01*
Y20405D01*
X15286D01*
X15479Y20485D01*
X15626Y20633D01*
X15706Y20826D01*
Y20830D01*
D02*
G37*
G36*
X15081D02*
X14656D01*
Y20826D01*
X14736Y20633D01*
X14884Y20485D01*
X15077Y20405D01*
X15081D01*
Y20830D01*
D02*
G37*
G36*
X24711Y19458D02*
X24011D01*
Y18658D01*
X24711D01*
Y19458D01*
D02*
G37*
G36*
X23811D02*
X23111D01*
Y18658D01*
X23811D01*
Y19458D01*
D02*
G37*
G36*
X16148Y20046D02*
X15872D01*
X15605Y19975D01*
X15365Y19836D01*
X15170Y19641D01*
X15032Y19402D01*
X14960Y19134D01*
Y18858D01*
X15032Y18591D01*
X15170Y18352D01*
X15365Y18156D01*
X15605Y18018D01*
X15872Y17946D01*
X16148D01*
X16415Y18018D01*
X16655Y18156D01*
X16850Y18352D01*
X16988Y18591D01*
X17060Y18858D01*
Y19134D01*
X16988Y19402D01*
X16850Y19641D01*
X16655Y19836D01*
X16415Y19975D01*
X16148Y20046D01*
D02*
G37*
G36*
X32142Y23776D02*
X31342D01*
Y23076D01*
X32142D01*
Y23776D01*
D02*
G37*
G36*
X33175Y23429D02*
X33170D01*
Y23004D01*
X33595D01*
Y23008D01*
X33515Y23201D01*
X33368Y23349D01*
X33175Y23429D01*
D02*
G37*
G36*
X32970D02*
X32966D01*
X32773Y23349D01*
X32625Y23201D01*
X32545Y23008D01*
Y23004D01*
X32970D01*
Y23429D01*
D02*
G37*
G36*
X33595Y22804D02*
X33170D01*
Y22379D01*
X33175D01*
X33368Y22459D01*
X33515Y22607D01*
X33595Y22800D01*
Y22804D01*
D02*
G37*
G36*
X32970D02*
X32545D01*
Y22800D01*
X32625Y22607D01*
X32773Y22459D01*
X32966Y22379D01*
X32970D01*
Y22804D01*
D02*
G37*
%LPD*%
D10*
X17150Y48213D02*
D03*
X15450D02*
D03*
X21590Y2667D02*
D03*
X23290D02*
D03*
X33235Y5842D02*
D03*
X31535D02*
D03*
X54444Y5080D02*
D03*
X52744D02*
D03*
X36950Y15500D02*
D03*
X35250D02*
D03*
X37084Y29845D02*
D03*
X38784D02*
D03*
X8167Y34036D02*
D03*
X9867D02*
D03*
D11*
X20062Y40950D02*
D03*
X20712D02*
D03*
X21362D02*
D03*
X22012D02*
D03*
X22662D02*
D03*
X23312D02*
D03*
X23962D02*
D03*
X24612D02*
D03*
X25262D02*
D03*
X25912D02*
D03*
X26562D02*
D03*
X27212D02*
D03*
X27862D02*
D03*
X28512D02*
D03*
X20062Y47850D02*
D03*
X20712D02*
D03*
X21362D02*
D03*
X22012D02*
D03*
X22662D02*
D03*
X23312D02*
D03*
X23962D02*
D03*
X24612D02*
D03*
X25262D02*
D03*
X25912D02*
D03*
X26562D02*
D03*
X27212D02*
D03*
X27862D02*
D03*
X28512D02*
D03*
D12*
X57400Y47800D02*
D03*
X59200D02*
D03*
X23200Y29135D02*
D03*
X21400D02*
D03*
X25711Y19558D02*
D03*
X23911D02*
D03*
X26152Y29210D02*
D03*
X27952D02*
D03*
D13*
X34207Y47650D02*
D03*
Y45950D02*
D03*
X31700Y46250D02*
D03*
Y44550D02*
D03*
X46450Y41913D02*
D03*
Y40213D02*
D03*
X44244Y43857D02*
D03*
Y42157D02*
D03*
X37465Y36029D02*
D03*
Y34329D02*
D03*
D14*
X52950Y41057D02*
D03*
Y41707D02*
D03*
Y42357D02*
D03*
Y43007D02*
D03*
Y43657D02*
D03*
Y44307D02*
D03*
Y45607D02*
D03*
Y44957D02*
D03*
X58850Y41057D02*
D03*
Y41707D02*
D03*
Y42357D02*
D03*
Y43007D02*
D03*
Y44307D02*
D03*
Y43657D02*
D03*
Y45607D02*
D03*
Y44957D02*
D03*
D15*
X55900Y43332D02*
D03*
D16*
X41900Y45791D02*
D03*
X39300D02*
D03*
X41250D02*
D03*
X40600D02*
D03*
X39950D02*
D03*
D17*
X49384Y46800D02*
D03*
Y48600D02*
D03*
X31242Y22976D02*
D03*
Y24776D02*
D03*
X21000Y26300D02*
D03*
Y24500D02*
D03*
X29210Y4942D02*
D03*
Y6742D02*
D03*
X49284Y42863D02*
D03*
Y41063D02*
D03*
D18*
X46800Y46200D02*
D03*
Y48800D02*
D03*
D19*
X51559Y49000D02*
D03*
X54159D02*
D03*
D20*
X25952Y24402D02*
D03*
D21*
X27902Y27302D02*
D03*
X27252D02*
D03*
X26602D02*
D03*
X25952D02*
D03*
X25302D02*
D03*
X24652D02*
D03*
X24002D02*
D03*
Y21502D02*
D03*
X24652D02*
D03*
X25302D02*
D03*
X25952D02*
D03*
X26602D02*
D03*
X27252D02*
D03*
X27902D02*
D03*
D22*
X23052Y26352D02*
D03*
Y25702D02*
D03*
Y25052D02*
D03*
Y24402D02*
D03*
Y23752D02*
D03*
Y23102D02*
D03*
Y22452D02*
D03*
X28852D02*
D03*
Y23102D02*
D03*
Y23752D02*
D03*
Y24402D02*
D03*
Y25052D02*
D03*
Y25702D02*
D03*
Y26352D02*
D03*
D23*
X23571Y34200D02*
D03*
X33071D02*
D03*
D24*
X26090Y15240D02*
D03*
X21590D02*
D03*
X26090Y7290D02*
D03*
X21590D02*
D03*
D25*
X20544Y31317D02*
X20597Y31264D01*
X20544Y31317D02*
Y35756D01*
X18400Y37900D02*
X20544Y35756D01*
X21000Y21731D02*
X22060D01*
X22779Y22450D01*
X22296Y23100D02*
X23050D01*
X16762Y22600D02*
X21796D01*
X22296Y23100D01*
X22252Y23752D02*
X23052D01*
X21802Y23302D02*
X22252Y23752D01*
X18542Y23302D02*
X21802D01*
X23050Y23100D02*
X23052Y23102D01*
X21977Y25585D02*
Y25585D01*
X22744Y26352D02*
X23052D01*
X21977Y25585D02*
X22744Y26352D01*
X21815Y25423D02*
X21977Y25585D01*
X21020Y24520D02*
X21932D01*
X21000Y24500D02*
X21020Y24520D01*
X21932D02*
X22464Y25052D01*
X23052D01*
X18887Y46250D02*
X23813D01*
X17150Y47987D02*
X18887Y46250D01*
X22641Y20943D02*
X23243Y21546D01*
X19683Y20943D02*
X22641D01*
X49134Y41213D02*
X50799D01*
X51261Y42863D02*
Y43332D01*
X50799Y41213D02*
X51407Y41821D01*
X37465Y36029D02*
Y38421D01*
X35140Y40746D02*
X37465Y38421D01*
X28300Y39200D02*
X31555Y42455D01*
X43946D01*
X44244Y42157D01*
X24877Y39200D02*
X28300D01*
X24110Y39967D02*
X24877Y39200D01*
X24110Y39967D02*
Y39974D01*
X23962Y40122D02*
X24110Y39974D01*
X23962Y40122D02*
Y40950D01*
X22012Y40122D02*
Y40950D01*
Y40122D02*
X22160Y39974D01*
Y39967D02*
Y39974D01*
Y39967D02*
X23706Y38421D01*
X25154D01*
X22662Y42862D02*
X23300Y43500D01*
X22662Y40950D02*
Y42862D01*
X23300Y43500D02*
X23975D01*
X24612Y42863D01*
Y40950D02*
Y42863D01*
X15450Y46337D02*
X20062Y41725D01*
X15450Y46337D02*
Y48213D01*
X20062Y40950D02*
Y41725D01*
X23962Y46399D02*
Y47850D01*
X17150Y47987D02*
Y48213D01*
X23813Y46250D02*
X23962Y46399D01*
X19000Y26608D02*
Y33100D01*
Y26608D02*
X20185Y25423D01*
X22012Y49591D02*
X22216D01*
X22662Y49145D01*
Y47850D02*
Y49145D01*
X23312Y47850D02*
Y49591D01*
X24612Y47850D02*
Y49591D01*
X49184Y41063D02*
X49284D01*
X44244Y42157D02*
X44487Y41913D01*
X46450D01*
X60400Y44925D02*
Y47800D01*
Y44390D02*
Y44925D01*
X59200Y47800D02*
X60400D01*
X54159Y49000D02*
X54359D01*
X50828Y44307D02*
X52950D01*
X49284Y42863D02*
X49384D01*
X50828Y44307D01*
X51373Y42975D02*
X52850D01*
X51261Y43332D02*
X51554Y43625D01*
X51261Y42863D02*
X51373Y42975D01*
X51261Y42325D02*
Y42863D01*
X51554Y43625D02*
X52850D01*
X51407Y41821D02*
X51554Y41675D01*
X51261Y41968D02*
X51407Y41821D01*
X57400Y47700D02*
Y47800D01*
X56927Y47227D02*
X57400Y47700D01*
X56827Y47227D02*
X56927D01*
X56100Y46500D02*
X56827Y47227D01*
X23814Y19558D02*
X24287Y20031D01*
X51754Y46500D02*
X56100D01*
X9931Y34100D02*
X11000D01*
X9867Y34036D02*
X9931Y34100D01*
X23179Y27069D02*
X23623Y26625D01*
X21573Y26773D02*
Y26920D01*
X21000Y26300D02*
X21100D01*
X21722Y27069D02*
X23179D01*
X21100Y26300D02*
X21573Y26773D01*
Y26920D02*
X21722Y27069D01*
X20185Y25423D02*
X21815D01*
X30100Y28100D02*
X31300Y29300D01*
X27511Y28100D02*
X30100D01*
X27252Y27842D02*
X27511Y28100D01*
X31975Y29075D02*
Y31358D01*
X30202Y27302D02*
X31975Y29075D01*
X27904Y27302D02*
X30202D01*
X31707Y15500D02*
X35250D01*
X34207Y30607D02*
X35226D01*
X28852Y26352D02*
X29952D01*
X34207Y30607D01*
X29905Y25702D02*
X30260Y26057D01*
X30490D01*
X29826Y25052D02*
X30427Y25653D01*
X31339D01*
X30490Y26057D02*
X34278Y29845D01*
X37084D01*
X31339Y25653D02*
X31975Y26289D01*
X28852Y25052D02*
X29826D01*
X28852Y25702D02*
X29905D01*
X23243Y21546D02*
X24000D01*
X16300Y23062D02*
X16762Y22600D01*
X51554Y45127D02*
X51756Y44925D01*
X52850D01*
X51554Y45127D02*
Y46300D01*
X51754Y46500D01*
X58750Y44925D02*
X60400D01*
X60400Y44925D01*
Y44390D02*
X60405Y44385D01*
X49284Y42863D02*
X49311Y42837D01*
X21285Y26187D02*
X21435D01*
X35140Y25976D02*
X38784Y29620D01*
X37465Y32846D02*
Y34329D01*
X35226Y30607D02*
X37465Y32846D01*
X25302Y26774D02*
Y27302D01*
X25154Y26625D02*
X25302Y26774D01*
X23623Y26625D02*
X25154D01*
X29310Y6742D02*
X30319D01*
X30878Y6184D02*
X31237D01*
X31535Y5842D02*
Y5886D01*
X30319Y6742D02*
X30878Y6184D01*
X31237D02*
X31535Y5886D01*
X28078Y6742D02*
X29210D01*
X23290Y2667D02*
X24003D01*
X28078Y6742D01*
X28956Y19812D02*
X35433D01*
X27902Y20866D02*
X28956Y19812D01*
X34609Y21906D02*
X38100Y18415D01*
X30319Y21906D02*
X34609D01*
X28797Y19177D02*
X33500D01*
X27252Y20721D02*
X28797Y19177D01*
X28956Y18415D02*
X32512D01*
X27252Y20721D02*
Y21502D01*
X26602Y20769D02*
Y21502D01*
Y20769D02*
X28956Y18415D01*
X27902Y20866D02*
Y21502D01*
X31535Y5842D02*
Y14264D01*
Y5617D02*
Y5842D01*
X54359Y5165D02*
X54444Y5080D01*
X54359Y5165D02*
Y8636D01*
X27252Y27302D02*
Y27842D01*
X31813Y21209D02*
X31833Y21229D01*
X30367Y21209D02*
X31813D01*
X29125Y23100D02*
X30319Y21906D01*
X21590Y2667D02*
Y7290D01*
X31535Y5617D02*
X32258Y4894D01*
Y2667D02*
Y4894D01*
X28852Y22452D02*
X29123D01*
X30367Y21209D01*
X35140Y10746D02*
X36950Y12556D01*
Y15500D01*
X35140Y25746D02*
Y25976D01*
X38784Y29620D02*
Y29845D01*
X51261Y41968D02*
Y42325D01*
X52850D01*
X51554Y41675D02*
X52850D01*
X58750D02*
X60112D01*
X60405Y43625D02*
Y44385D01*
Y42975D02*
Y43625D01*
X58750D02*
X60405D01*
Y42325D02*
Y42975D01*
X58750D02*
X60405D01*
X58750Y42325D02*
X60405D01*
Y41968D02*
Y42325D01*
X60112Y41675D02*
X60405Y41968D01*
X31142Y22976D02*
X31242D01*
X28852Y23752D02*
X30366D01*
X31142Y22976D01*
X30868Y24402D02*
X31242Y24776D01*
X28852Y24402D02*
X30868D01*
X24287Y20866D02*
X24650Y21229D01*
X24287Y20031D02*
Y20866D01*
X25302Y19870D02*
Y21502D01*
D26*
X16514Y24500D02*
X21000D01*
X11010Y18996D02*
X16514Y24500D01*
X54359Y49000D02*
X54950Y49591D01*
X59200D01*
X39965Y16800D02*
Y17882D01*
Y10964D02*
Y16800D01*
X13206D02*
X39965D01*
X11010Y18996D02*
X13206Y16800D01*
X40850Y38800D02*
X49100D01*
X39950Y37900D02*
X40850Y38800D01*
X49100D02*
X49129Y38829D01*
Y41008D02*
X49184Y41063D01*
X49129Y38829D02*
Y41008D01*
X37350Y20497D02*
X39950Y23097D01*
Y37900D01*
X21519Y50316D02*
X27871D01*
X20062Y48859D02*
X21519Y50316D01*
X27871D02*
X27887Y50300D01*
X20062Y47850D02*
Y48859D01*
X27862Y47850D02*
Y50300D01*
X27887D02*
X29100D01*
X59200Y47800D02*
Y49591D01*
X61400D01*
X42543Y43857D02*
X44244D01*
X41900Y44500D02*
Y45791D01*
Y44500D02*
X42543Y43857D01*
X44832Y44032D02*
X46800Y46000D01*
X44419Y44032D02*
X44832D01*
X46800Y46000D02*
Y46200D01*
X44244Y43857D02*
X44419Y44032D01*
X49159Y48491D02*
Y48691D01*
X46900Y48700D02*
X49284D01*
X49384Y48600D01*
X46800Y48800D02*
X46900Y48700D01*
X49884Y49000D02*
X51559D01*
X49484Y48600D02*
X49884Y49000D01*
X49384Y48600D02*
X49484D01*
X48859Y48191D02*
X49159Y48491D01*
X46450Y48800D02*
X46450Y48800D01*
X55118Y12319D02*
X56714D01*
X52744Y9945D02*
X55118Y12319D01*
X52744Y8349D02*
Y9945D01*
X56714Y12319D02*
X59150Y14755D01*
X37210Y5715D02*
X41212Y9717D01*
X42580Y8349D01*
X34798Y5715D02*
X37210D01*
X39965Y10964D02*
X41212Y9717D01*
X42580Y8349D02*
X52744D01*
Y5080D02*
Y8349D01*
X33071Y24776D02*
X37350Y20497D01*
X31242Y24776D02*
X33071D01*
X37350Y20497D02*
X39965Y17882D01*
X33362Y5715D02*
X34798D01*
Y2667D02*
Y5715D01*
X33235Y5842D02*
X33362Y5715D01*
D27*
X29836Y33800D02*
X32671D01*
X26152Y30116D02*
X29836Y33800D01*
X32671D02*
X33071Y34200D01*
X25884Y28867D02*
X26152Y29135D01*
Y30116D01*
X25570Y28867D02*
X25884D01*
X23571Y29516D02*
X23700Y29387D01*
Y28333D02*
X24003Y28030D01*
X23700Y28333D02*
Y29387D01*
X24858Y28155D02*
X25570Y28867D01*
X24858Y28155D02*
X24858D01*
X24652Y27950D02*
X24858Y28155D01*
X23571Y33147D02*
Y34000D01*
Y29516D02*
Y33147D01*
X24652Y27302D02*
Y27950D01*
X24002Y27302D02*
X24003Y27303D01*
Y28030D01*
X25302Y19870D02*
X25614Y19558D01*
D28*
X34207Y45950D02*
X34442Y46185D01*
X34955D01*
X35179Y46408D01*
Y46769D02*
X36622Y48213D01*
X35179Y46408D02*
Y46769D01*
X40295Y48213D02*
X41241Y47267D01*
X36622Y48213D02*
X40295D01*
X31934Y44785D02*
X34598D01*
X31700Y44550D02*
X31934Y44785D01*
X35810Y46507D02*
X36884Y47582D01*
X40034D02*
X40610Y47006D01*
X36884Y47582D02*
X40034D01*
X35810Y45996D02*
Y46507D01*
X34598Y44785D02*
X35810Y45996D01*
X40610Y45800D02*
Y47006D01*
X40600Y45791D02*
X40610Y45800D01*
X41241Y45800D02*
X41250Y45791D01*
X41241Y45800D02*
Y47267D01*
X28735Y44715D02*
X29051D01*
X28512Y44939D02*
X28735Y44715D01*
X29847Y45512D02*
Y47062D01*
X30757Y47971D01*
X32515D01*
X33070Y47416D02*
X33972D01*
X28512Y40950D02*
Y43861D01*
X29051Y44715D02*
X29847Y45512D01*
X28512Y43861D02*
X28735Y44084D01*
X31019Y47340D02*
X32253D01*
X30479Y45251D02*
Y46800D01*
X29312Y44084D02*
X30479Y45251D01*
X32515Y47971D02*
X33070Y47416D01*
X28512Y44939D02*
Y47850D01*
X31700Y46250D02*
X31925D01*
X33972Y47416D02*
X34207Y47650D01*
X32253Y47340D02*
X32476Y47117D01*
Y46801D02*
Y47117D01*
X31925Y46250D02*
X32476Y46801D01*
X30479Y46800D02*
X31019Y47340D01*
X28735Y44084D02*
X29312D01*
D29*
X44325Y45791D02*
D03*
X36875D02*
D03*
D30*
X44475Y49591D02*
D03*
X36725D02*
D03*
D31*
X43100Y46841D02*
D03*
X38100D02*
D03*
D32*
X41150Y14755D02*
D03*
X43150D02*
D03*
X45150D02*
D03*
X47150D02*
D03*
X49150D02*
D03*
X51150D02*
D03*
X53150D02*
D03*
X55150D02*
D03*
X57150D02*
D03*
X59150D02*
D03*
X41150Y36755D02*
D03*
X43150D02*
D03*
X45150D02*
D03*
X47150D02*
D03*
X49150D02*
D03*
X51150D02*
D03*
X53150D02*
D03*
X55150D02*
D03*
X57150D02*
D03*
X59150D02*
D03*
D33*
X42418Y2667D02*
D03*
X39878D02*
D03*
X37338D02*
D03*
X34798D02*
D03*
X35140Y40746D02*
D03*
X37680D02*
D03*
X35140Y25746D02*
D03*
X37680D02*
D03*
X35140Y10746D02*
D03*
X37680D02*
D03*
D34*
X32258Y2667D02*
D03*
D35*
X54359Y8636D02*
D03*
D36*
X56639D02*
D03*
D37*
X11010Y18996D02*
D03*
Y31496D02*
D03*
X16010Y18996D02*
D03*
Y31496D02*
D03*
D38*
X20597Y31264D02*
D03*
X33170Y21209D02*
D03*
X15181Y20930D02*
D03*
X21000Y21731D02*
D03*
X19683Y20943D02*
D03*
X33070Y22904D02*
D03*
X49100Y38800D02*
D03*
X25154Y38421D02*
D03*
X19000Y33100D02*
D03*
X18400Y37900D02*
D03*
X22012Y49591D02*
D03*
X23312D02*
D03*
X24612D02*
D03*
X29100Y50300D02*
D03*
X61400Y49591D02*
D03*
X11000Y34100D02*
D03*
X31300Y29300D02*
D03*
X31707Y15500D02*
D03*
X31975Y31358D02*
D03*
X18542Y23302D02*
D03*
X16300Y23062D02*
D03*
X35433Y19812D02*
D03*
X38100Y18415D02*
D03*
X33500Y19177D02*
D03*
X32512Y18415D02*
D03*
X31535Y14264D02*
D03*
X31833Y21229D02*
D03*
X31975Y26289D02*
D03*
D39*
X51000Y30000D02*
D03*
X54500Y23000D02*
D03*
X51000Y2000D02*
D03*
X44000Y30000D02*
D03*
X47500Y23000D02*
D03*
X44000Y16000D02*
D03*
Y2000D02*
D03*
X33500Y37000D02*
D03*
X30000Y2000D02*
D03*
X26500Y37000D02*
D03*
Y9000D02*
D03*
X16000Y44000D02*
D03*
X19500Y9000D02*
D03*
X16000Y2000D02*
D03*
X9000Y44000D02*
D03*
X12500Y37000D02*
D03*
X9000Y30000D02*
D03*
X12500Y23000D02*
D03*
X9000Y16000D02*
D03*
X12500Y9000D02*
D03*
X9000Y2000D02*
D03*
X2000Y30000D02*
D03*
X5500Y23000D02*
D03*
X2000Y16000D02*
D03*
X5500Y9000D02*
D03*
D40*
X54900Y42332D02*
D03*
Y43332D02*
D03*
X55900Y42332D02*
D03*
Y43332D02*
D03*
X56900Y42332D02*
D03*
Y43332D02*
D03*
X54900Y44332D02*
D03*
X55900D02*
D03*
X56900D02*
D03*
X25952Y25502D02*
D03*
Y24402D02*
D03*
X24852Y25502D02*
D03*
X27052Y24402D02*
D03*
Y23302D02*
D03*
Y25502D02*
D03*
X25952Y23302D02*
D03*
X24852Y24402D02*
D03*
Y23302D02*
D03*
%TF.MD5,f7a73d7dc9f95e35ecb3bee197f02d32*%
M02*
