M48
;Layer_Color=9474304
;FILE_FORMAT=4:3
METRIC,LZ
;TYPE=PLATED
T1F00S00C0.300
T2F00S00C0.350
T4F00S00C0.711
T5F00S00C0.750
T6F00S00C0.800
T8F00S00C0.900
T9F00S00C1.000
T10F00S00C1.100
T11F00S00C1.200
;TYPE=NON_PLATED
T12F00S00C0.800
T13F00S00C3.700
%
T01
X0104Y0024076
X0118751Y002625
Y002715
X0123132Y0024076
X0125Y0022912
X0127625Y0021908
X0128875Y0021408
X0131175Y002201
X01325
X013575Y0021408
X013275Y0018302
X0121356
X0139985Y0023538
X0137469Y00261
X01445Y00271
X0145691Y0026227
X0146714Y0025023
X015925Y002474
X016Y00271
X01597Y0030069
X01586Y002914
X014875Y0030069
X01435Y0033
X01408Y0028881
X0138141Y0030325
X01365Y0028275
X0127894Y003105
X0126198Y0030974
X0118751Y00288
Y0028
X0119387Y003415
X0118751Y0035669
X0118114Y0036469
X0117512Y003845
X012365Y0040267
Y00413
Y00421
X0123624Y0042926
X0123375Y0047285
X01245Y0048565
X01261Y0047285
X01245Y0053645
X013325Y0050885
X0137391Y00515
X0138902Y0046025
X014018
Y0058495
X0136861Y0062305
X0131711Y0064845
X0131Y00421
X013Y0043
X01317Y0040267
X01325Y0039665
X01015Y0028734
X009975Y0028
X0092825Y0085966
X00939Y0091325
X0102383Y009875
X0103183
X011075Y0095384
X01161Y0098021
X0132264Y0098
X0117506Y0082
X01175Y0078295
X0118751Y00795
X0119353Y0076515
X0111105Y0083718
X0135626Y0070269
T02
X0124684Y0093384
X0125684
X0126684
Y0094384
X0125684
X0124684
Y0095384
X0125684
X0126684
T04
X001Y001
X0023
X00165Y0023
X00295
X00425
X00555
X0062Y001
X0075
X0088
X0101
X00945Y0023
X00815
X00685
X0114Y001
X0127
X014
X0153
Y0036
X01595Y0049
X0153Y0062
X014
X0127
Y0036
X01075Y0049
X0101Y0062
Y0036
X0088
X0075
X00815Y0049
X00685
X0075Y0062
X0062
X0049
X0036
X00425Y0049
X00555
X0062Y0036
X0049
X0036
X00295Y0049
X00165
X0023Y0062
X001
Y0036
X0023
X00165Y0075
X00295
X00425
X00555
X00815
X00945
X01075
X01335
X01465
X0127Y0088
X0153
X01595Y0075
T05
X0142408Y0072184
X0144948Y0069644
X0147488Y0072184
T06
X004475Y006687
X006675
Y006887
Y007087
Y007287
Y007487
Y007687
Y007887
Y008087
Y008287
Y008487
X004475
Y008287
Y008087
Y007887
Y007687
Y007487
Y007287
Y007087
Y006887
X013852Y0085
X014352
T08
X0114341Y0030035
Y0032575
Y0035115
Y0037655
Y0040195
Y0042735
Y0045275
Y0047815
Y0050355
Y0052895
Y0055435
Y0057975
Y0060515
Y0063055
Y0065595
X0038131
Y0063055
Y0060515
Y0057975
Y0055435
Y0052895
Y0050355
Y0047815
Y0045275
Y0042735
Y0040195
Y0037655
Y0035115
Y0032575
Y0030035
Y0068135
Y0070675
Y0073215
Y0075755
Y0078295
X0114341
Y0075755
Y0073215
Y0070675
Y0068135
T09
X0126821Y0080975
Y0083515
X01196Y010026
Y010254
T10
X011225Y0013788
Y0016328
Y0018868
Y0021408
Y0023948
T11
X0036001Y0011035
Y0016035
X0048501
Y0011035
X0077251
Y0016035
X0089751
Y0011035
X0118751Y001075
Y001575
X0131251
Y001075
T12
X01016Y010195
X01066
T13
X00175Y001125
X01495
X00175Y009525
X01495
M30
