%TF.GenerationSoftware,Altium Limited,Altium Designer,21.6.1 (37)*%
G04 Layer_Physical_Order=1*
G04 Layer_Color=255*
%FSLAX43Y43*%
%MOMM*%
%TF.SameCoordinates,2DC9C271-DD38-4FBD-9B37-034AA9505664*%
%TF.FilePolarity,Positive*%
%TF.FileFunction,Copper,L1,Top,Signal*%
%TF.Part,Single*%
G01*
G75*
%TA.AperFunction,SMDPad,CuDef*%
%ADD10R,1.300X1.550*%
G04:AMPARAMS|DCode=11|XSize=1.4mm|YSize=1mm|CornerRadius=0.2mm|HoleSize=0mm|Usage=FLASHONLY|Rotation=90.000|XOffset=0mm|YOffset=0mm|HoleType=Round|Shape=RoundedRectangle|*
%AMROUNDEDRECTD11*
21,1,1.400,0.600,0,0,90.0*
21,1,1.000,1.000,0,0,90.0*
1,1,0.400,0.300,0.500*
1,1,0.400,0.300,-0.500*
1,1,0.400,-0.300,-0.500*
1,1,0.400,-0.300,0.500*
%
%ADD11ROUNDEDRECTD11*%
%ADD12R,1.400X1.200*%
%ADD13R,1.450X1.200*%
%ADD14R,2.000X5.500*%
%ADD15R,1.300X0.850*%
%ADD16R,1.500X0.800*%
%ADD17R,1.900X1.400*%
%ADD18R,1.400X1.800*%
%ADD19O,1.600X0.550*%
%ADD20O,0.550X1.600*%
G04:AMPARAMS|DCode=21|XSize=1.4mm|YSize=1mm|CornerRadius=0.2mm|HoleSize=0mm|Usage=FLASHONLY|Rotation=0.000|XOffset=0mm|YOffset=0mm|HoleType=Round|Shape=RoundedRectangle|*
%AMROUNDEDRECTD21*
21,1,1.400,0.600,0,0,0.0*
21,1,1.000,1.000,0,0,0.0*
1,1,0.400,0.500,-0.300*
1,1,0.400,-0.500,-0.300*
1,1,0.400,-0.500,0.300*
1,1,0.400,0.500,0.300*
%
%ADD21ROUNDEDRECTD21*%
%ADD22O,1.400X0.450*%
%ADD23R,3.100X3.100*%
%ADD24O,2.000X0.450*%
%ADD25R,0.900X0.800*%
%ADD26R,0.850X1.300*%
%ADD27R,1.200X1.400*%
%TA.AperFunction,Conductor*%
%ADD28C,0.254*%
%ADD29C,0.500*%
%ADD30C,0.381*%
%TA.AperFunction,ComponentPad*%
%ADD31R,1.500X1.500*%
%ADD32C,1.500*%
%ADD33C,1.200*%
%ADD34C,1.600*%
%ADD35C,1.400*%
%ADD36C,1.800*%
%ADD37R,1.600X1.600*%
%ADD38R,1.250X1.250*%
%ADD39C,1.250*%
%ADD40C,0.800*%
%ADD41O,1.150X1.800*%
%ADD42O,1.450X2.000*%
%TA.AperFunction,ViaPad*%
%ADD43C,0.650*%
%ADD44C,1.270*%
%ADD45C,0.750*%
G36*
X158372Y87127D02*
X158392Y87030D01*
X158447Y86947D01*
X158530Y86892D01*
X158627Y86872D01*
X166873D01*
X166879Y19717D01*
X166789Y19628D01*
X158627D01*
X158530Y19608D01*
X158447Y19553D01*
X158392Y19470D01*
X158372Y19373D01*
Y127D01*
X8627D01*
Y19373D01*
X8608Y19470D01*
X8553Y19553D01*
X8541Y19561D01*
Y19566D01*
X8533D01*
X8470Y19608D01*
X8373Y19628D01*
X127D01*
Y86872D01*
X8373D01*
X8470Y86892D01*
X8553Y86947D01*
X8608Y87030D01*
X8615Y87066D01*
X8791D01*
X8791Y86316D01*
X87541D01*
Y106372D01*
X158372D01*
Y87127D01*
D02*
G37*
%LPC*%
G36*
X108075Y105794D02*
Y104800D01*
X108757D01*
Y105025D01*
X108730Y105227D01*
X108652Y105416D01*
X108528Y105578D01*
X108366Y105702D01*
X108177Y105780D01*
X108075Y105794D01*
D02*
G37*
G36*
X107875D02*
X107773Y105780D01*
X107584Y105702D01*
X107422Y105578D01*
X107298Y105416D01*
X107220Y105227D01*
X107193Y105025D01*
Y104800D01*
X107875D01*
Y105794D01*
D02*
G37*
G36*
X100325D02*
Y104800D01*
X101007D01*
Y105025D01*
X100980Y105227D01*
X100902Y105416D01*
X100778Y105578D01*
X100616Y105702D01*
X100427Y105780D01*
X100325Y105794D01*
D02*
G37*
G36*
X100125D02*
X100023Y105780D01*
X99834Y105702D01*
X99672Y105578D01*
X99548Y105416D01*
X99470Y105227D01*
X99443Y105025D01*
Y104800D01*
X100125D01*
Y105794D01*
D02*
G37*
G36*
X108757Y104600D02*
X108075D01*
Y103606D01*
X108177Y103620D01*
X108366Y103698D01*
X108528Y103822D01*
X108652Y103984D01*
X108730Y104173D01*
X108757Y104375D01*
Y104600D01*
D02*
G37*
G36*
X107875D02*
X107193D01*
Y104375D01*
X107220Y104173D01*
X107298Y103984D01*
X107422Y103822D01*
X107584Y103698D01*
X107773Y103620D01*
X107875Y103606D01*
Y104600D01*
D02*
G37*
G36*
X101007D02*
X100325D01*
Y103606D01*
X100427Y103620D01*
X100616Y103698D01*
X100778Y103822D01*
X100902Y103984D01*
X100980Y104173D01*
X101007Y104375D01*
Y104600D01*
D02*
G37*
G36*
X100125D02*
X99443D01*
Y104375D01*
X99470Y104173D01*
X99548Y103984D01*
X99672Y103822D01*
X99834Y103698D01*
X100023Y103620D01*
X100125Y103606D01*
Y104600D01*
D02*
G37*
G36*
X119725Y103490D02*
X119700D01*
Y102640D01*
X120550D01*
Y102665D01*
X120485Y102907D01*
X120360Y103123D01*
X120183Y103300D01*
X119967Y103425D01*
X119725Y103490D01*
D02*
G37*
G36*
X119500D02*
X119475D01*
X119233Y103425D01*
X119017Y103300D01*
X118840Y103123D01*
X118715Y102907D01*
X118650Y102665D01*
Y102640D01*
X119500D01*
Y103490D01*
D02*
G37*
G36*
X101709Y102500D02*
X101491D01*
X101288Y102416D01*
X101134Y102262D01*
X101050Y102059D01*
Y101983D01*
X100923Y101920D01*
X100841Y101983D01*
X100616Y102076D01*
X100475Y102095D01*
Y101000D01*
X101308D01*
Y101175D01*
X101285Y101348D01*
X101399Y101438D01*
X101491Y101400D01*
X101709D01*
X101912Y101484D01*
X102066Y101638D01*
X102150Y101841D01*
Y102059D01*
X102066Y102262D01*
X101912Y102416D01*
X101709Y102500D01*
D02*
G37*
G36*
X120550Y102440D02*
X119700D01*
Y101590D01*
X119725D01*
X119967Y101655D01*
X120183Y101780D01*
X120360Y101957D01*
X120485Y102173D01*
X120550Y102415D01*
Y102440D01*
D02*
G37*
G36*
X119500D02*
X118650D01*
Y102415D01*
X118715Y102173D01*
X118840Y101957D01*
X119017Y101780D01*
X119233Y101655D01*
X119475Y101590D01*
X119500D01*
Y102440D01*
D02*
G37*
G36*
X107925Y102095D02*
Y101000D01*
X108758D01*
Y101175D01*
X108726Y101416D01*
X108633Y101641D01*
X108485Y101835D01*
X108291Y101983D01*
X108066Y102076D01*
X107925Y102095D01*
D02*
G37*
G36*
X106709Y102500D02*
X106491D01*
X106288Y102416D01*
X106134Y102262D01*
X106050Y102059D01*
Y101841D01*
X106134Y101638D01*
X106288Y101484D01*
X106491Y101400D01*
X106709D01*
X106801Y101438D01*
X106915Y101348D01*
X106892Y101175D01*
Y101000D01*
X107725D01*
Y102095D01*
X107584Y102076D01*
X107359Y101983D01*
X107277Y101920D01*
X107150Y101983D01*
Y102059D01*
X107066Y102262D01*
X106912Y102416D01*
X106709Y102500D01*
D02*
G37*
G36*
X100275Y102095D02*
X100134Y102076D01*
X99909Y101983D01*
X99715Y101835D01*
X99567Y101641D01*
X99474Y101416D01*
X99442Y101175D01*
Y101000D01*
X100275D01*
Y102095D01*
D02*
G37*
G36*
X108758Y100800D02*
X107925D01*
Y99705D01*
X108066Y99724D01*
X108291Y99817D01*
X108485Y99965D01*
X108633Y100159D01*
X108726Y100384D01*
X108758Y100625D01*
Y100800D01*
D02*
G37*
G36*
X107725D02*
X106892D01*
Y100625D01*
X106924Y100384D01*
X107017Y100159D01*
X107165Y99965D01*
X107359Y99817D01*
X107584Y99724D01*
X107725Y99705D01*
Y100800D01*
D02*
G37*
G36*
X101308D02*
X100475D01*
Y99705D01*
X100616Y99724D01*
X100841Y99817D01*
X101035Y99965D01*
X101183Y100159D01*
X101276Y100384D01*
X101308Y100625D01*
Y100800D01*
D02*
G37*
G36*
X100275D02*
X99442D01*
Y100625D01*
X99474Y100384D01*
X99567Y100159D01*
X99715Y99965D01*
X99909Y99817D01*
X100134Y99724D01*
X100275Y99705D01*
Y100800D01*
D02*
G37*
G36*
X103277Y99225D02*
X103088D01*
X102914Y99153D01*
X102783Y99022D01*
X102652Y99153D01*
X102477Y99225D01*
X102288D01*
X102114Y99153D01*
X101980Y99019D01*
X101908Y98844D01*
Y98656D01*
X101980Y98481D01*
X102114Y98347D01*
X102120Y98345D01*
Y98075D01*
X101083D01*
Y96925D01*
X102683D01*
Y97538D01*
X102807Y97592D01*
X102883Y97520D01*
Y96925D01*
X104483D01*
Y98075D01*
X103446D01*
Y98345D01*
X103452Y98347D01*
X103586Y98481D01*
X103658Y98656D01*
Y98844D01*
X103586Y99019D01*
X103452Y99153D01*
X103277Y99225D01*
D02*
G37*
G36*
X120500Y101160D02*
X118700D01*
Y99360D01*
X120500D01*
Y99978D01*
X122732D01*
X123559Y99151D01*
Y97950D01*
X124709D01*
Y99550D01*
X123959D01*
X123049Y100460D01*
X122957Y100521D01*
X122849Y100542D01*
X122849Y100542D01*
X120500D01*
Y101160D01*
D02*
G37*
G36*
X104483Y96375D02*
X102883D01*
Y95762D01*
X102759Y95708D01*
X102683Y95780D01*
Y96375D01*
X101083D01*
Y95225D01*
X102120D01*
Y94797D01*
X101322Y93998D01*
X101247Y93886D01*
X101220Y93753D01*
Y92342D01*
X101200Y92322D01*
X99363D01*
X99354Y92328D01*
X99208Y92357D01*
X97658D01*
X97512Y92328D01*
X97387Y92245D01*
X97305Y92121D01*
X97275Y91975D01*
X97298Y91860D01*
X97228Y91733D01*
X94157D01*
X93994Y91800D01*
X93806D01*
X93643Y91733D01*
X91525D01*
X91369Y91702D01*
X91237Y91613D01*
X91237Y91613D01*
X89712Y90088D01*
X89623Y89956D01*
X89592Y89800D01*
X89592Y89800D01*
Y85278D01*
X67381D01*
X67350Y85331D01*
X67211Y85470D01*
X67039Y85569D01*
X66849Y85620D01*
X66651D01*
X66461Y85569D01*
X66289Y85470D01*
X66150Y85331D01*
X66051Y85160D01*
X66000Y84969D01*
Y84771D01*
X66051Y84581D01*
X66150Y84410D01*
X66289Y84270D01*
X66461Y84171D01*
X66651Y84120D01*
X66849D01*
X67039Y84171D01*
X67211Y84270D01*
X67350Y84410D01*
X67381Y84462D01*
X89592D01*
Y83525D01*
X89623Y83369D01*
X89712Y83237D01*
X89844Y83148D01*
X90000Y83117D01*
X98433D01*
X98561Y83143D01*
X99208D01*
X99354Y83172D01*
X99478Y83255D01*
X99561Y83379D01*
X99590Y83525D01*
X99561Y83671D01*
X99498Y83765D01*
X99486Y83850D01*
X99498Y83935D01*
X99561Y84029D01*
X99590Y84175D01*
X99561Y84321D01*
X99498Y84415D01*
X99486Y84500D01*
X99498Y84585D01*
X99561Y84679D01*
X99590Y84825D01*
X99561Y84971D01*
X99498Y85065D01*
X99486Y85150D01*
X99498Y85235D01*
X99561Y85329D01*
X99590Y85475D01*
X99561Y85621D01*
X99498Y85715D01*
X99498Y85716D01*
X99535Y85818D01*
X99554Y85843D01*
X99708D01*
X106250Y79300D01*
X106250Y79300D01*
X106342Y79239D01*
X106450Y79218D01*
X106450Y79218D01*
X113323D01*
X113441Y79195D01*
X113441Y79091D01*
Y77395D01*
X115241D01*
X115241Y79195D01*
X115358Y79218D01*
X116178D01*
X117025Y78371D01*
Y78201D01*
X117097Y78026D01*
X117231Y77892D01*
X117406Y77820D01*
X117594D01*
X117769Y77892D01*
X117903Y78026D01*
X117975Y78201D01*
Y78389D01*
X117917Y78529D01*
X118025Y78601D01*
X119070Y77555D01*
Y76904D01*
X118950Y76784D01*
X118878Y76609D01*
Y76421D01*
X118950Y76246D01*
X119084Y76112D01*
X119258Y76040D01*
X119447D01*
X119591Y76099D01*
X119718Y76042D01*
Y54741D01*
X119718Y54741D01*
X119739Y54633D01*
X119800Y54541D01*
X125029Y49312D01*
Y48861D01*
X124905Y48835D01*
X124902Y48835D01*
X124769Y48968D01*
X124594Y49040D01*
X124406D01*
X124231Y48968D01*
X124097Y48834D01*
X124025Y48659D01*
Y48471D01*
X124097Y48296D01*
X124218Y48176D01*
Y43041D01*
X124099Y43020D01*
X124027Y43195D01*
X123893Y43328D01*
X123719Y43401D01*
X123530D01*
X123355Y43328D01*
X123235Y43208D01*
X119347D01*
X115146Y47409D01*
X115179Y47468D01*
X115241Y47696D01*
Y47933D01*
X115179Y48162D01*
X115061Y48368D01*
X114893Y48535D01*
X114688Y48654D01*
X114459Y48715D01*
X114222D01*
X113993Y48654D01*
X113788Y48535D01*
X113620Y48368D01*
X113502Y48162D01*
X113441Y47933D01*
Y47696D01*
X113502Y47468D01*
X113620Y47262D01*
X113788Y47095D01*
X113993Y46976D01*
X114222Y46915D01*
X114459D01*
X114688Y46976D01*
X114746Y47010D01*
X119030Y42726D01*
X119030Y42726D01*
X119122Y42665D01*
X119230Y42643D01*
X119230Y42643D01*
X123235D01*
X123355Y42523D01*
X123295Y42417D01*
X123261Y42382D01*
X117633D01*
X115146Y44869D01*
X115179Y44928D01*
X115241Y45157D01*
Y45393D01*
X115179Y45622D01*
X115061Y45828D01*
X114893Y45995D01*
X114688Y46114D01*
X114459Y46175D01*
X114222D01*
X113993Y46114D01*
X113788Y45995D01*
X113620Y45828D01*
X113502Y45622D01*
X113441Y45393D01*
Y45157D01*
X113502Y44928D01*
X113620Y44722D01*
X113788Y44555D01*
X113993Y44436D01*
X114222Y44375D01*
X114459D01*
X114688Y44436D01*
X114746Y44470D01*
X117316Y41900D01*
X117316Y41900D01*
X117408Y41839D01*
X117516Y41818D01*
X117516Y41818D01*
X123261D01*
X123378Y41700D01*
X123261Y41582D01*
X115893D01*
X115146Y42329D01*
X115179Y42388D01*
X115241Y42617D01*
Y42853D01*
X115179Y43082D01*
X115061Y43288D01*
X114893Y43455D01*
X114688Y43574D01*
X114459Y43635D01*
X114222D01*
X113993Y43574D01*
X113788Y43455D01*
X113620Y43288D01*
X113502Y43082D01*
X113441Y42853D01*
Y42617D01*
X113502Y42388D01*
X113620Y42182D01*
X113788Y42015D01*
X113993Y41896D01*
X114222Y41835D01*
X114459D01*
X114688Y41896D01*
X114746Y41930D01*
X115576Y41100D01*
X115668Y41039D01*
X115776Y41018D01*
X123261D01*
X123381Y40897D01*
X123490Y40852D01*
Y40715D01*
X123381Y40669D01*
X123247Y40536D01*
X123238Y40513D01*
X115187D01*
X115179Y40542D01*
X115061Y40748D01*
X114893Y40915D01*
X114688Y41034D01*
X114459Y41095D01*
X114222D01*
X113993Y41034D01*
X113788Y40915D01*
X113620Y40748D01*
X113502Y40542D01*
X113441Y40313D01*
Y40076D01*
X113502Y39848D01*
X113620Y39642D01*
X113788Y39475D01*
X113993Y39356D01*
X114222Y39295D01*
X114459D01*
X114688Y39356D01*
X114893Y39475D01*
X115061Y39642D01*
X115179Y39848D01*
X115206Y39948D01*
X123297D01*
X123381Y39864D01*
X123556Y39792D01*
X123744D01*
X123919Y39864D01*
X124053Y39998D01*
X124091Y40089D01*
X124218Y40064D01*
Y38772D01*
X124194Y38756D01*
X124100Y38616D01*
X124067Y38450D01*
Y37400D01*
X124100Y37234D01*
X124194Y37094D01*
X124334Y37000D01*
X124500Y36967D01*
X124666Y37000D01*
X124806Y37094D01*
X124837Y37139D01*
X124964D01*
X124994Y37094D01*
X125134Y37000D01*
X125300Y36967D01*
X125466Y37000D01*
X125606Y37094D01*
X125636Y37139D01*
X125763D01*
X125794Y37094D01*
X125934Y37000D01*
X126100Y36967D01*
X126266Y37000D01*
X126406Y37094D01*
X126437Y37139D01*
X126563D01*
X126594Y37094D01*
X126734Y37000D01*
X126900Y36967D01*
X127066Y37000D01*
X127206Y37094D01*
X127237Y37139D01*
X127364D01*
X127394Y37094D01*
X127534Y37000D01*
X127700Y36967D01*
X127866Y37000D01*
X127989Y37082D01*
X128046Y37094D01*
X128133D01*
X128158Y37058D01*
X128315Y36953D01*
X128400Y36936D01*
Y37925D01*
X128600D01*
Y36936D01*
X128685Y36953D01*
X128842Y37058D01*
X128867Y37094D01*
X128954D01*
X129011Y37082D01*
X129134Y37000D01*
X129300Y36967D01*
X129466Y37000D01*
X129606Y37094D01*
X129637Y37139D01*
X129764D01*
X129794Y37094D01*
X129934Y37000D01*
X130100Y36967D01*
X130266Y37000D01*
X130406Y37094D01*
X130436Y37139D01*
X130564D01*
X130594Y37094D01*
X130734Y37000D01*
X130900Y36967D01*
X131066Y37000D01*
X131206Y37094D01*
X131236Y37139D01*
X131363D01*
X131394Y37094D01*
X131534Y37000D01*
X131700Y36967D01*
X131866Y37000D01*
X132006Y37094D01*
X132036Y37139D01*
X132163D01*
X132194Y37094D01*
X132334Y37000D01*
X132500Y36967D01*
X132666Y37000D01*
X132806Y37094D01*
X132900Y37234D01*
X132933Y37400D01*
Y38450D01*
X132900Y38616D01*
X132806Y38756D01*
X132782Y38772D01*
Y39275D01*
X132903Y39396D01*
X132975Y39570D01*
Y39759D01*
X132903Y39934D01*
X132769Y40067D01*
X132594Y40140D01*
X132406D01*
X132277Y40086D01*
X132175Y40172D01*
Y40361D01*
X132103Y40536D01*
X131969Y40669D01*
X131794Y40742D01*
X131606D01*
X131431Y40669D01*
X131359Y40598D01*
X131232Y40650D01*
Y41682D01*
X131269Y41697D01*
X131403Y41831D01*
X131475Y42006D01*
Y42194D01*
X131403Y42369D01*
X131269Y42503D01*
X131094Y42575D01*
X130906D01*
X130731Y42503D01*
X130597Y42369D01*
X130525Y42194D01*
Y42006D01*
X130597Y41831D01*
X130668Y41761D01*
Y38806D01*
X130594Y38756D01*
X130564Y38711D01*
X130436D01*
X130406Y38756D01*
X130332Y38806D01*
Y42661D01*
X130403Y42731D01*
X130475Y42906D01*
Y43094D01*
X130403Y43269D01*
X130269Y43403D01*
X130094Y43475D01*
X129906D01*
X129731Y43403D01*
X129597Y43269D01*
X129525Y43094D01*
Y42906D01*
X129578Y42777D01*
X129519Y42663D01*
X129504Y42650D01*
X128975D01*
Y41750D01*
X128875D01*
Y41650D01*
X128075D01*
Y40850D01*
X128593D01*
Y40157D01*
X128300Y39864D01*
X128239Y39773D01*
X128218Y39665D01*
X128218Y39665D01*
Y38833D01*
X128158Y38792D01*
X128026Y38820D01*
X127982Y38857D01*
Y40170D01*
X127982Y40170D01*
X127961Y40278D01*
X127900Y40370D01*
X127900Y40370D01*
X127487Y40783D01*
X127535Y40900D01*
X127825D01*
Y42600D01*
X127794D01*
X127754Y42727D01*
X130069Y45042D01*
X130911D01*
Y44975D01*
X132511D01*
Y46074D01*
X132604Y46137D01*
X137498Y51030D01*
X137647Y51092D01*
X143033D01*
X143033Y51092D01*
X143033Y51092D01*
X143581D01*
X151350Y43323D01*
Y42400D01*
X153050D01*
Y42717D01*
X153499D01*
Y42525D01*
X155099D01*
Y42717D01*
X155299D01*
Y42525D01*
X156899D01*
Y42717D01*
X157100D01*
Y42525D01*
X158699D01*
Y42717D01*
X158900D01*
Y42525D01*
X160500D01*
Y42717D01*
X160700D01*
Y42525D01*
X162300D01*
Y42692D01*
X162731D01*
X163100Y42323D01*
Y41675D01*
X163492D01*
Y28502D01*
X163438Y28448D01*
X162900D01*
Y28590D01*
X162827D01*
X162700Y28590D01*
X162700Y28717D01*
Y29690D01*
X162427D01*
X162300Y29690D01*
X162300Y29817D01*
Y30790D01*
X162700D01*
Y31890D01*
X161782D01*
Y40825D01*
X162300D01*
Y41975D01*
X160700D01*
Y40825D01*
X161218D01*
Y31890D01*
X160900D01*
Y30790D01*
X160500D01*
Y30352D01*
X160089D01*
X159982Y30459D01*
Y40825D01*
X160500D01*
Y41975D01*
X158900D01*
Y40825D01*
X159417D01*
Y30459D01*
X159297Y30339D01*
X159225Y30164D01*
Y29975D01*
X159297Y29800D01*
X159431Y29667D01*
X159605Y29594D01*
X159794D01*
X159969Y29667D01*
X160089Y29787D01*
X160500D01*
Y29690D01*
X160773D01*
X160900Y29690D01*
X160900Y29512D01*
X160810Y29423D01*
X158989D01*
X158869Y29543D01*
X158694Y29615D01*
X158524D01*
X158182Y29957D01*
Y40825D01*
X158699D01*
Y41975D01*
X157100D01*
Y40825D01*
X157617D01*
Y29840D01*
X157617Y29840D01*
X157639Y29732D01*
X157700Y29640D01*
X158125Y29216D01*
Y29046D01*
X158197Y28871D01*
X158331Y28737D01*
X158505Y28665D01*
X158694D01*
X158869Y28737D01*
X158989Y28858D01*
X160900D01*
Y28590D01*
X160973D01*
X161100Y28590D01*
X161100Y28463D01*
X161100Y27490D01*
X160973Y27490D01*
X160900D01*
Y27382D01*
X160389D01*
X160269Y27503D01*
X160094Y27575D01*
X159906D01*
X159731Y27503D01*
X159597Y27369D01*
X159525Y27194D01*
Y27006D01*
X159597Y26831D01*
X159731Y26697D01*
X159906Y26625D01*
X160094D01*
X160269Y26697D01*
X160389Y26818D01*
X160900D01*
Y26390D01*
X161050D01*
Y25940D01*
X162000D01*
X162950D01*
Y26440D01*
X162700D01*
X162700Y27490D01*
X162827Y27490D01*
X162900D01*
Y27632D01*
X163607D01*
X163607Y27632D01*
X163763Y27663D01*
X163895Y27752D01*
X164188Y28045D01*
X164188Y28045D01*
X164277Y28177D01*
X164308Y28333D01*
Y41675D01*
X164700D01*
Y42796D01*
X164810Y42865D01*
X165367Y42308D01*
Y36850D01*
X164550D01*
Y35150D01*
X165367D01*
Y23717D01*
X165351Y23700D01*
X163550D01*
Y23245D01*
X162700D01*
Y24063D01*
X162700Y24190D01*
X162700Y24317D01*
Y25240D01*
X162950D01*
Y25740D01*
X162000D01*
X161050D01*
Y25290D01*
X160900D01*
Y25022D01*
X159639D01*
X159519Y25143D01*
X159344Y25215D01*
X159282D01*
X159265Y25232D01*
X159259Y25240D01*
X159259Y25240D01*
X156382Y28118D01*
Y40825D01*
X156899D01*
Y41975D01*
X155299D01*
Y40825D01*
X155817D01*
Y28001D01*
X155817Y28001D01*
X155838Y27893D01*
X155900Y27801D01*
X158802Y24899D01*
X158775Y24835D01*
Y24646D01*
X158847Y24471D01*
X158981Y24337D01*
X159156Y24265D01*
X159344D01*
X159519Y24337D01*
X159639Y24458D01*
X160810D01*
X160900Y24368D01*
X160900Y24190D01*
X160900Y24063D01*
Y23922D01*
X158416D01*
X154581Y27757D01*
Y40825D01*
X155099D01*
Y41975D01*
X153499D01*
Y40825D01*
X154017D01*
Y27641D01*
X154017Y27640D01*
X154038Y27532D01*
X154099Y27441D01*
X158100Y23440D01*
X158100Y23440D01*
X158191Y23379D01*
X158225Y23372D01*
X158212Y23245D01*
X152454D01*
X152400Y23350D01*
X152400Y23372D01*
Y24350D01*
X151500D01*
X150600D01*
Y23372D01*
X150600Y23350D01*
X150546Y23245D01*
X141194D01*
X140701Y23738D01*
X140641Y23779D01*
X140677Y23906D01*
X145771D01*
X145771Y23906D01*
X145880Y23927D01*
X145971Y23988D01*
X146557Y24574D01*
X146619Y24548D01*
X146808D01*
X146983Y24620D01*
X147116Y24754D01*
X147189Y24928D01*
Y25117D01*
X147116Y25292D01*
X146983Y25426D01*
X146808Y25498D01*
X146696D01*
X146643Y25625D01*
X147823Y26805D01*
X147950Y26786D01*
Y26525D01*
X149550D01*
Y27675D01*
X149032D01*
Y29680D01*
X149153Y29800D01*
X149225Y29975D01*
Y30164D01*
X149153Y30339D01*
X149019Y30472D01*
X148844Y30544D01*
X148656D01*
X148481Y30472D01*
X148347Y30339D01*
X148275Y30164D01*
Y29975D01*
X148347Y29800D01*
X148468Y29680D01*
Y27675D01*
X147950D01*
Y27382D01*
X147719D01*
X147719Y27382D01*
X147611Y27361D01*
X147519Y27300D01*
X146268Y26049D01*
X146161Y26121D01*
X146166Y26132D01*
Y26321D01*
X146093Y26496D01*
X145960Y26630D01*
X145785Y26702D01*
X145596D01*
X145422Y26630D01*
X145288Y26496D01*
X145216Y26321D01*
Y26197D01*
X144297Y25278D01*
X143244D01*
X143195Y25396D01*
X144424Y26625D01*
X144594D01*
X144769Y26697D01*
X144903Y26831D01*
X144975Y27006D01*
Y27194D01*
X144903Y27369D01*
X144769Y27503D01*
X144594Y27575D01*
X144406D01*
X144231Y27503D01*
X144097Y27369D01*
X144025Y27194D01*
Y27024D01*
X142683Y25682D01*
X137903D01*
X137850Y25809D01*
X137872Y25831D01*
X137944Y26006D01*
Y26194D01*
X137872Y26369D01*
X137738Y26503D01*
X137563Y26575D01*
X137451D01*
Y28740D01*
X137451Y28740D01*
X137430Y28848D01*
X137369Y28940D01*
X137028Y29281D01*
X137076Y29398D01*
X139883D01*
X140325Y28956D01*
Y28786D01*
X140397Y28611D01*
X140531Y28478D01*
X140706Y28406D01*
X140894D01*
X141069Y28478D01*
X141203Y28611D01*
X141275Y28786D01*
Y28975D01*
X141203Y29150D01*
X141069Y29283D01*
X140894Y29356D01*
X140724D01*
X140200Y29880D01*
X140108Y29941D01*
X140000Y29963D01*
X140000Y29963D01*
X138616D01*
X138557Y30090D01*
X138616Y30230D01*
Y30419D01*
X138543Y30594D01*
X138414Y30723D01*
X138341Y30819D01*
Y31162D01*
X142069D01*
X142069Y31162D01*
X142226Y31193D01*
X142358Y31281D01*
X143607Y32530D01*
X143769Y32597D01*
X143903Y32731D01*
X143975Y32906D01*
Y33094D01*
X143903Y33269D01*
X143769Y33403D01*
X143594Y33475D01*
X143406D01*
X143231Y33403D01*
X143097Y33269D01*
X143030Y33107D01*
X141901Y31977D01*
X138341D01*
Y32319D01*
X136641D01*
Y32161D01*
X136045D01*
X135732Y32475D01*
X135640Y32536D01*
X135532Y32557D01*
X135532Y32557D01*
X135082D01*
X135045Y32601D01*
X135017Y32733D01*
X135058Y32793D01*
X135751D01*
X135751Y32793D01*
X135859Y32814D01*
X135951Y32875D01*
X136163Y33087D01*
X136591D01*
Y32569D01*
X137391D01*
Y33369D01*
Y34169D01*
X136712D01*
X136638Y34169D01*
X136565Y34272D01*
X136570Y34294D01*
X137663Y35387D01*
X138850D01*
Y34819D01*
X139951D01*
X140900Y33870D01*
X140900Y33870D01*
X140992Y33809D01*
X141100Y33787D01*
X141100Y33787D01*
X145541D01*
Y28900D01*
X147841D01*
Y34700D01*
X145541D01*
Y34352D01*
X141217D01*
X140917Y34652D01*
X140965Y34769D01*
X141300D01*
Y35569D01*
X140600D01*
Y35135D01*
X140483Y35086D01*
X140350Y35219D01*
Y36519D01*
X138850D01*
Y35952D01*
X137546D01*
X137438Y35930D01*
X137430Y35925D01*
X137349Y36024D01*
X138733Y37408D01*
X138850Y37359D01*
Y37075D01*
X140350D01*
Y38775D01*
X140196D01*
Y38968D01*
X145541D01*
Y38400D01*
X147841D01*
Y44200D01*
X145541D01*
Y39532D01*
X140062D01*
X139954Y39511D01*
X139862Y39450D01*
X139862Y39450D01*
X139714Y39301D01*
X139652Y39209D01*
X139631Y39101D01*
X139631Y39101D01*
Y38775D01*
X139005D01*
Y38935D01*
X140379Y40309D01*
X140379Y40309D01*
X140441Y40400D01*
X140462Y40508D01*
Y45636D01*
X140582Y45756D01*
X140655Y45931D01*
Y46119D01*
X140582Y46294D01*
X140449Y46428D01*
X140274Y46500D01*
X140085D01*
X139911Y46428D01*
X139777Y46294D01*
X139705Y46119D01*
Y45931D01*
X139777Y45756D01*
X139897Y45636D01*
Y40625D01*
X139302Y40030D01*
X139184Y40078D01*
Y45636D01*
X139305Y45756D01*
X139377Y45931D01*
Y46119D01*
X139305Y46294D01*
X139171Y46428D01*
X138996Y46500D01*
X138808D01*
X138633Y46428D01*
X138499Y46294D01*
X138427Y46119D01*
Y45931D01*
X138499Y45756D01*
X138620Y45636D01*
Y39919D01*
X135258Y36557D01*
X134997D01*
X134981Y36581D01*
X134841Y36675D01*
X134675Y36708D01*
X133625D01*
X133459Y36675D01*
X133319Y36581D01*
X133225Y36441D01*
X133192Y36275D01*
X133225Y36109D01*
X133319Y35969D01*
X133364Y35938D01*
Y35811D01*
X133319Y35781D01*
X133225Y35641D01*
X133192Y35475D01*
X133225Y35309D01*
X133319Y35169D01*
X133364Y35138D01*
Y35011D01*
X133319Y34981D01*
X133225Y34841D01*
X133192Y34675D01*
X133225Y34509D01*
X133319Y34369D01*
X133364Y34338D01*
Y34211D01*
X133319Y34181D01*
X133225Y34041D01*
X133192Y33875D01*
X133225Y33709D01*
X133307Y33586D01*
X133319Y33529D01*
Y33442D01*
X133283Y33417D01*
X133178Y33260D01*
X133161Y33175D01*
X134150D01*
Y32975D01*
X133161D01*
X133178Y32890D01*
X133283Y32733D01*
X133319Y32708D01*
Y32621D01*
X133307Y32564D01*
X133225Y32441D01*
X133192Y32275D01*
X133225Y32109D01*
X133319Y31969D01*
X133364Y31938D01*
Y31811D01*
X133319Y31781D01*
X133225Y31641D01*
X133192Y31475D01*
X133225Y31309D01*
X133319Y31169D01*
X133364Y31138D01*
Y31011D01*
X133319Y30981D01*
X133225Y30841D01*
X133192Y30675D01*
X133225Y30509D01*
X133319Y30369D01*
X133364Y30338D01*
Y30211D01*
X133319Y30181D01*
X133225Y30041D01*
X133192Y29875D01*
X133225Y29709D01*
X133319Y29569D01*
X133364Y29538D01*
Y29411D01*
X133319Y29381D01*
X133225Y29241D01*
X133192Y29075D01*
X133225Y28909D01*
X133319Y28769D01*
X133364Y28738D01*
Y28611D01*
X133319Y28581D01*
X133225Y28441D01*
X133192Y28275D01*
X133225Y28109D01*
X133319Y27969D01*
X133459Y27875D01*
X133625Y27842D01*
X133868D01*
Y26775D01*
X133868Y26775D01*
X133889Y26667D01*
X133950Y26575D01*
X135130Y25396D01*
X135081Y25278D01*
X133721D01*
X132928Y26072D01*
X132933Y26100D01*
Y27150D01*
X132900Y27316D01*
X132806Y27456D01*
X132666Y27550D01*
X132500Y27583D01*
X132334Y27550D01*
X132194Y27456D01*
X132163Y27411D01*
X132036D01*
X132006Y27456D01*
X131866Y27550D01*
X131700Y27583D01*
X131534Y27550D01*
X131394Y27456D01*
X131363Y27411D01*
X131236D01*
X131206Y27456D01*
X131066Y27550D01*
X130900Y27583D01*
X130734Y27550D01*
X130594Y27456D01*
X130564Y27411D01*
X130436D01*
X130406Y27456D01*
X130266Y27550D01*
X130100Y27583D01*
X129934Y27550D01*
X129794Y27456D01*
X129764Y27411D01*
X129637D01*
X129606Y27456D01*
X129466Y27550D01*
X129300Y27583D01*
X129134Y27550D01*
X128994Y27456D01*
X128964Y27411D01*
X128837D01*
X128806Y27456D01*
X128666Y27550D01*
X128500Y27583D01*
X128334Y27550D01*
X128211Y27468D01*
X128154Y27456D01*
X128067D01*
X128042Y27492D01*
X127885Y27597D01*
X127800Y27614D01*
Y26625D01*
X127600D01*
Y27614D01*
X127515Y27597D01*
X127358Y27492D01*
X127333Y27456D01*
X127246D01*
X127189Y27468D01*
X127066Y27550D01*
X126900Y27583D01*
X126734Y27550D01*
X126594Y27456D01*
X126563Y27411D01*
X126437D01*
X126406Y27456D01*
X126266Y27550D01*
X126100Y27583D01*
X125934Y27550D01*
X125794Y27456D01*
X125763Y27411D01*
X125636D01*
X125606Y27456D01*
X125466Y27550D01*
X125300Y27583D01*
X125134Y27550D01*
X124994Y27456D01*
X124964Y27411D01*
X124837D01*
X124806Y27456D01*
X124666Y27550D01*
X124500Y27583D01*
X124334Y27550D01*
X124194Y27456D01*
X124100Y27316D01*
X124067Y27150D01*
Y26100D01*
X124100Y25934D01*
X124194Y25794D01*
X124218Y25778D01*
Y25561D01*
X123208Y24551D01*
X123038D01*
X122863Y24479D01*
X122730Y24345D01*
X122657Y24171D01*
Y23982D01*
X122730Y23807D01*
X122863Y23674D01*
X123038Y23601D01*
X123227D01*
X123401Y23674D01*
X123535Y23807D01*
X123607Y23982D01*
Y24152D01*
X124700Y25244D01*
X124700Y25244D01*
X124761Y25336D01*
X124782Y25444D01*
Y25778D01*
X124806Y25794D01*
X124807Y25795D01*
X124949Y25804D01*
X125018Y25734D01*
Y24802D01*
X108780Y8565D01*
X57214D01*
X54544Y11235D01*
X54452Y11296D01*
X54344Y11317D01*
X54344Y11317D01*
X54050D01*
Y11610D01*
X52450D01*
Y11317D01*
X49512D01*
X49479Y11440D01*
X49341Y11680D01*
X49145Y11875D01*
X48906Y12013D01*
X48639Y12085D01*
X48362D01*
X48095Y12013D01*
X47856Y11875D01*
X47660Y11680D01*
X47522Y11440D01*
X47451Y11173D01*
Y10897D01*
X47522Y10630D01*
X47660Y10390D01*
X47856Y10195D01*
X48095Y10057D01*
X48362Y9985D01*
X48639D01*
X48906Y10057D01*
X49145Y10195D01*
X49341Y10390D01*
X49479Y10630D01*
X49512Y10753D01*
X52450D01*
Y10460D01*
X54050D01*
Y10753D01*
X54227D01*
X56897Y8083D01*
X56897Y8083D01*
X56988Y8021D01*
X57097Y8000D01*
X57097Y8000D01*
X108897D01*
X108897Y8000D01*
X109006Y8021D01*
X109097Y8083D01*
X124600Y23586D01*
X124718Y23537D01*
Y23301D01*
X124597Y23181D01*
X124525Y23006D01*
Y22817D01*
X124597Y22643D01*
X124731Y22509D01*
X124906Y22437D01*
X125094D01*
X125269Y22509D01*
X125403Y22643D01*
X125475Y22817D01*
Y23006D01*
X125403Y23181D01*
X125282Y23301D01*
Y23621D01*
X125798Y24137D01*
X125916Y24088D01*
Y23538D01*
Y21467D01*
X125916Y21467D01*
X125937Y21359D01*
X125998Y21268D01*
X126760Y20506D01*
X126760Y20506D01*
X126851Y20445D01*
X126959Y20424D01*
X136078D01*
X136078Y20424D01*
X136186Y20445D01*
X136278Y20506D01*
X139383Y23612D01*
X139510Y23559D01*
Y23444D01*
X139582Y23269D01*
X139716Y23136D01*
X139891Y23063D01*
X140080D01*
X140254Y23136D01*
X140374Y23256D01*
X140385D01*
X140877Y22763D01*
X140877Y22763D01*
X140969Y22702D01*
X141077Y22681D01*
X141077Y22681D01*
X163550D01*
Y22000D01*
X165750D01*
Y23301D01*
X165850Y23400D01*
X165850Y23400D01*
X165911Y23492D01*
X165932Y23600D01*
X165932Y23600D01*
Y35150D01*
X166750D01*
Y36850D01*
X165932D01*
Y42425D01*
X165911Y42533D01*
X165850Y42625D01*
X165850Y42625D01*
X164700Y43774D01*
Y44525D01*
X163100D01*
Y43589D01*
X163086Y43567D01*
X162973Y43493D01*
X162900Y43508D01*
X162900Y43508D01*
X162300D01*
Y43675D01*
X160700D01*
Y43533D01*
X160500D01*
Y43675D01*
X158900D01*
Y43533D01*
X158699D01*
Y43675D01*
X157100D01*
Y43533D01*
X156899D01*
Y43675D01*
X155299D01*
Y43533D01*
X155099D01*
Y43675D01*
X153499D01*
Y43533D01*
X153050D01*
Y43900D01*
X151927D01*
X144038Y51788D01*
X143906Y51877D01*
X143750Y51908D01*
X143750Y51908D01*
X143440D01*
Y55945D01*
X143641D01*
Y57795D01*
X142041D01*
Y55945D01*
X142625D01*
Y51908D01*
X137647D01*
X137485Y51975D01*
X137296D01*
X137122Y51903D01*
X136988Y51769D01*
X136921Y51607D01*
X132147Y46833D01*
X132111D01*
X132111Y46833D01*
X132071Y46825D01*
X130911D01*
Y45858D01*
X129900D01*
X129900Y45858D01*
X129744Y45827D01*
X129612Y45738D01*
X129612Y45738D01*
X127029Y43156D01*
X126941Y43024D01*
X126910Y42868D01*
X126910Y42868D01*
Y42600D01*
X126382D01*
Y46895D01*
X126503Y47016D01*
X126575Y47190D01*
Y47379D01*
X126503Y47554D01*
X126369Y47687D01*
X126194Y47760D01*
X126006D01*
X125831Y47687D01*
X125721Y47577D01*
X125610Y47607D01*
X125594Y47616D01*
Y49429D01*
X125594Y49429D01*
X125572Y49537D01*
X125511Y49629D01*
X125511Y49629D01*
X120282Y54858D01*
Y79849D01*
X121634Y81200D01*
X122834D01*
Y82350D01*
X121234D01*
Y81599D01*
X119800Y80166D01*
X119739Y80074D01*
X119718Y79966D01*
X119718Y79966D01*
Y77853D01*
X119591Y77815D01*
X119552Y77872D01*
X118453Y78972D01*
X118524Y79080D01*
X118656Y79025D01*
X118845D01*
X119020Y79097D01*
X119153Y79231D01*
X119226Y79406D01*
Y79594D01*
X119153Y79769D01*
X119033Y79889D01*
Y81874D01*
X119012Y81982D01*
X118950Y82074D01*
X118950Y82074D01*
X115350Y85675D01*
X115258Y85736D01*
X115150Y85757D01*
X115150Y85757D01*
X106454D01*
X106435Y85782D01*
X106398Y85884D01*
X106398Y85885D01*
X106461Y85979D01*
X106490Y86125D01*
X106461Y86271D01*
X106398Y86365D01*
X106386Y86450D01*
X106398Y86535D01*
X106461Y86629D01*
X106490Y86775D01*
X106461Y86921D01*
X106398Y87015D01*
X106398Y87016D01*
X106435Y87118D01*
X106454Y87143D01*
X108181D01*
X108181Y87143D01*
X108290Y87164D01*
X108381Y87225D01*
X108948Y87793D01*
X110575D01*
Y87275D01*
X111725D01*
Y88875D01*
X111613D01*
Y89100D01*
X111725D01*
Y90532D01*
X111842Y90581D01*
X112267Y90156D01*
Y90075D01*
X112267Y90075D01*
X112275Y90036D01*
Y89100D01*
X113425D01*
Y90700D01*
X112877D01*
X111557Y92020D01*
Y92400D01*
X111530Y92537D01*
X111452Y92652D01*
X111337Y92730D01*
X111200Y92757D01*
X111133D01*
Y95095D01*
X111153Y95115D01*
X111225Y95290D01*
Y95479D01*
X111153Y95653D01*
X111019Y95787D01*
X110844Y95859D01*
X110656D01*
X110481Y95787D01*
X110347Y95653D01*
X110275Y95479D01*
Y95290D01*
X110317Y95188D01*
Y92757D01*
X110200D01*
X110063Y92730D01*
X109948Y92652D01*
X109870Y92537D01*
X109843Y92400D01*
Y91800D01*
X109870Y91663D01*
X109948Y91548D01*
X110063Y91470D01*
X110200Y91443D01*
X110980D01*
X111606Y90817D01*
X111557Y90700D01*
X110575D01*
Y89100D01*
X110797D01*
Y88875D01*
X110575D01*
Y88357D01*
X108831D01*
X108831Y88357D01*
X108723Y88336D01*
X108632Y88275D01*
X108632Y88275D01*
X108064Y87707D01*
X106454D01*
X106435Y87732D01*
X106398Y87834D01*
X106398Y87835D01*
X106461Y87929D01*
X106490Y88075D01*
X106461Y88221D01*
X106398Y88315D01*
X106386Y88400D01*
X106398Y88485D01*
X106461Y88579D01*
X106490Y88725D01*
X106461Y88871D01*
X106398Y88965D01*
X106386Y89050D01*
X106398Y89135D01*
X106461Y89229D01*
X106490Y89375D01*
X106461Y89521D01*
X106398Y89615D01*
X106386Y89700D01*
X106398Y89785D01*
X106461Y89879D01*
X106490Y90025D01*
X106461Y90171D01*
X106398Y90265D01*
X106386Y90350D01*
X106398Y90435D01*
X106461Y90529D01*
X106490Y90675D01*
X106461Y90821D01*
X106378Y90945D01*
X106440Y91057D01*
X106508Y91159D01*
X106521Y91225D01*
X105333D01*
X104144D01*
X104158Y91159D01*
X104226Y91057D01*
X104287Y90945D01*
X104205Y90821D01*
X104175Y90675D01*
X104205Y90529D01*
X104267Y90435D01*
X104280Y90350D01*
X104267Y90265D01*
X104205Y90171D01*
X104175Y90025D01*
X104205Y89879D01*
X104267Y89785D01*
X104280Y89700D01*
X104267Y89615D01*
X104205Y89521D01*
X104175Y89375D01*
X104205Y89229D01*
X104267Y89135D01*
X104280Y89050D01*
X104267Y88965D01*
X104205Y88871D01*
X104175Y88725D01*
X104205Y88579D01*
X104267Y88485D01*
X104268Y88484D01*
X104231Y88382D01*
X104211Y88357D01*
X103607D01*
X103499Y88336D01*
X103407Y88275D01*
X103407Y88275D01*
X103258Y88126D01*
X103197Y88034D01*
X103176Y87926D01*
X103176Y87926D01*
Y86236D01*
X103176Y86236D01*
X103197Y86128D01*
X103258Y86037D01*
X103407Y85888D01*
X103407Y85888D01*
X103499Y85827D01*
X103607Y85805D01*
X104175D01*
X104243Y85678D01*
X104205Y85621D01*
X104175Y85475D01*
X104205Y85329D01*
X104267Y85235D01*
X104280Y85150D01*
X104267Y85065D01*
X104205Y84971D01*
X104175Y84825D01*
X104205Y84679D01*
X104267Y84585D01*
X104280Y84500D01*
X104267Y84415D01*
X104205Y84321D01*
X104175Y84175D01*
X104205Y84029D01*
X104287Y83905D01*
X104226Y83793D01*
X104158Y83691D01*
X104132Y83561D01*
X104031Y83514D01*
X104002Y83511D01*
X102861Y84653D01*
Y85339D01*
X102861Y85339D01*
X102839Y85447D01*
X102778Y85539D01*
X102778Y85539D01*
X100042Y88275D01*
X99950Y88336D01*
X99842Y88357D01*
X99842Y88357D01*
X99554D01*
X99535Y88382D01*
X99498Y88484D01*
X99498Y88485D01*
X99561Y88579D01*
X99590Y88725D01*
X99561Y88871D01*
X99498Y88965D01*
X99486Y89050D01*
X99498Y89135D01*
X99561Y89229D01*
X99590Y89375D01*
X99561Y89521D01*
X99498Y89615D01*
X99486Y89700D01*
X99498Y89785D01*
X99561Y89879D01*
X99590Y90025D01*
X99561Y90171D01*
X99498Y90265D01*
X99486Y90350D01*
X99498Y90435D01*
X99561Y90529D01*
X99590Y90675D01*
X99561Y90821D01*
X99498Y90915D01*
X99486Y91000D01*
X99498Y91085D01*
X99561Y91179D01*
X99590Y91325D01*
X99561Y91471D01*
X99541Y91501D01*
X99609Y91628D01*
X101344D01*
X101477Y91654D01*
X101590Y91730D01*
X101805Y91945D01*
X101839Y91962D01*
X101927D01*
X101960Y91945D01*
X102176Y91730D01*
X102289Y91654D01*
X102422Y91628D01*
X104114D01*
X104174Y91516D01*
X104158Y91491D01*
X104144Y91425D01*
X105333D01*
X106521D01*
X106508Y91491D01*
X106440Y91593D01*
X106378Y91705D01*
X106461Y91829D01*
X106490Y91975D01*
X106461Y92121D01*
X106378Y92245D01*
X106254Y92328D01*
X106108Y92357D01*
X104558D01*
X104412Y92328D01*
X104402Y92322D01*
X102565D01*
X102546Y92342D01*
Y93348D01*
X103344Y94146D01*
X103419Y94259D01*
X103446Y94392D01*
Y95225D01*
X104483D01*
Y96375D01*
D02*
G37*
G36*
X127434Y96134D02*
X125784D01*
Y94484D01*
X127434D01*
Y96134D01*
D02*
G37*
G36*
X125584D02*
X123934D01*
Y94484D01*
X125584D01*
Y96134D01*
D02*
G37*
G36*
X126409Y99550D02*
X125259D01*
Y97950D01*
X126409D01*
Y98342D01*
X131325D01*
X131808Y97858D01*
X131856Y97743D01*
Y94809D01*
X131314D01*
Y94342D01*
X130782D01*
Y95786D01*
X130761Y95894D01*
X130700Y95986D01*
X130477Y96209D01*
X130385Y96270D01*
X130277Y96292D01*
X130277Y96292D01*
X129456D01*
X129436Y96316D01*
X129399Y96418D01*
X129400Y96419D01*
X129462Y96513D01*
X129491Y96659D01*
X129462Y96805D01*
X129379Y96929D01*
X129255Y97012D01*
X129109Y97041D01*
X128159D01*
X128013Y97012D01*
X127889Y96929D01*
X127806Y96805D01*
X127777Y96659D01*
X127806Y96513D01*
X127869Y96419D01*
X127881Y96334D01*
X127869Y96249D01*
X127806Y96155D01*
X127777Y96009D01*
X127806Y95863D01*
X127869Y95769D01*
X127881Y95684D01*
X127869Y95599D01*
X127806Y95505D01*
X127777Y95359D01*
X127806Y95213D01*
X127869Y95119D01*
X127881Y95034D01*
X127869Y94949D01*
X127806Y94855D01*
X127777Y94709D01*
X127806Y94563D01*
X127869Y94469D01*
X127881Y94384D01*
X127869Y94299D01*
X127806Y94205D01*
X127777Y94059D01*
X127806Y93913D01*
X127889Y93789D01*
X127827Y93677D01*
X127759Y93575D01*
X127746Y93509D01*
X128634D01*
Y93309D01*
X127746D01*
X127759Y93243D01*
X127853Y93103D01*
Y93065D01*
X127759Y92925D01*
X127746Y92859D01*
X128634D01*
Y92659D01*
X127746D01*
X127759Y92593D01*
X127827Y92491D01*
X127889Y92379D01*
X127806Y92255D01*
X127777Y92109D01*
X127806Y91963D01*
X127889Y91839D01*
X128013Y91756D01*
X128159Y91727D01*
X128871D01*
X128920Y91609D01*
X127602Y90292D01*
X127395D01*
Y90909D01*
X126695D01*
Y90009D01*
Y89109D01*
X127395D01*
Y89727D01*
X127719D01*
X127719Y89727D01*
X127827Y89748D01*
X127919Y89809D01*
X129950Y91840D01*
X129950Y91840D01*
X130011Y91932D01*
X130032Y92040D01*
X130032Y92040D01*
Y92600D01*
X130032Y92600D01*
X130011Y92708D01*
X129950Y92800D01*
X129950Y92800D01*
X129791Y92959D01*
X129729Y93000D01*
X129764Y93127D01*
X130797D01*
X131264Y92660D01*
Y92359D01*
X132164D01*
X133064D01*
Y92516D01*
X133181Y92565D01*
X138112Y87634D01*
Y85746D01*
X137998Y85680D01*
X137839Y85522D01*
X137727Y85328D01*
X137670Y85112D01*
Y84888D01*
X137704Y84761D01*
X128821Y75878D01*
X128732Y75746D01*
X128701Y75590D01*
X128701Y75590D01*
Y67508D01*
X125169D01*
X125013Y67477D01*
X124881Y67388D01*
X124881Y67388D01*
X123362Y65869D01*
X123273Y65737D01*
X123242Y65581D01*
X123242Y65581D01*
Y59173D01*
X121864Y57795D01*
X120841D01*
Y55945D01*
X122441D01*
Y57218D01*
X123938Y58716D01*
X124027Y58848D01*
X124058Y59004D01*
X124058Y59004D01*
Y65412D01*
X125338Y66692D01*
X130911D01*
Y66175D01*
X131303D01*
Y65102D01*
X131236Y64939D01*
Y64751D01*
X131308Y64576D01*
X131442Y64442D01*
X131616Y64370D01*
X131805D01*
X131980Y64442D01*
X132113Y64576D01*
X132186Y64751D01*
Y64939D01*
X132118Y65102D01*
Y66175D01*
X132511D01*
Y68025D01*
X130911D01*
Y67508D01*
X129517D01*
Y75421D01*
X138280Y84184D01*
X138408Y84150D01*
X138631D01*
X138848Y84208D01*
X139041Y84320D01*
X139200Y84478D01*
X139312Y84672D01*
X139370Y84888D01*
Y85112D01*
X139312Y85328D01*
X139200Y85522D01*
X139041Y85680D01*
X138927Y85746D01*
Y87395D01*
X147103D01*
X148625Y85873D01*
Y84950D01*
X150375D01*
Y86450D01*
X149202D01*
X147560Y88092D01*
X147428Y88180D01*
X147272Y88211D01*
X147272Y88211D01*
X138688D01*
X133014Y93886D01*
Y94809D01*
X132672D01*
Y97743D01*
X132739Y97906D01*
Y98094D01*
X132666Y98269D01*
X132533Y98403D01*
X132358Y98475D01*
X132345D01*
X131782Y99038D01*
X131650Y99127D01*
X131493Y99158D01*
X131493Y99158D01*
X126409D01*
Y99550D01*
D02*
G37*
G36*
X149697Y97250D02*
X149303D01*
X148917Y97173D01*
X148553Y97022D01*
X148225Y96803D01*
X147947Y96525D01*
X147728Y96197D01*
X147577Y95833D01*
X147500Y95447D01*
Y95053D01*
X147577Y94667D01*
X147728Y94303D01*
X147947Y93975D01*
X148225Y93697D01*
X148553Y93478D01*
X148917Y93327D01*
X149303Y93250D01*
X149697D01*
X150083Y93327D01*
X150447Y93478D01*
X150775Y93697D01*
X151053Y93975D01*
X151272Y94303D01*
X151423Y94667D01*
X151500Y95053D01*
Y95447D01*
X151423Y95833D01*
X151272Y96197D01*
X151053Y96525D01*
X150775Y96803D01*
X150447Y97022D01*
X150083Y97173D01*
X149697Y97250D01*
D02*
G37*
G36*
X127434Y94284D02*
X125784D01*
Y92634D01*
X127434D01*
Y94284D01*
D02*
G37*
G36*
X125584D02*
X123934D01*
Y92634D01*
X125584D01*
Y94284D01*
D02*
G37*
G36*
X116400Y94757D02*
X115800D01*
X115663Y94730D01*
X115548Y94652D01*
X115470Y94537D01*
X115443Y94400D01*
Y93400D01*
X115470Y93263D01*
X115548Y93148D01*
X115663Y93070D01*
X115692Y93065D01*
Y92166D01*
X115250D01*
Y91824D01*
X114212D01*
X114157Y91879D01*
Y92400D01*
X114130Y92537D01*
X114052Y92652D01*
X113937Y92730D01*
X113800Y92757D01*
X112800D01*
X112663Y92730D01*
X112548Y92652D01*
X112470Y92537D01*
X112443Y92400D01*
Y91800D01*
X112470Y91663D01*
X112548Y91548D01*
X112663Y91470D01*
X112800Y91443D01*
X113446D01*
X113462Y91420D01*
X113755Y91128D01*
X113755Y91128D01*
X113887Y91039D01*
X114043Y91008D01*
X115250D01*
Y90666D01*
X116950D01*
Y92166D01*
X116508D01*
Y93065D01*
X116537Y93070D01*
X116652Y93148D01*
X116730Y93263D01*
X116757Y93400D01*
Y94400D01*
X116730Y94537D01*
X116652Y94652D01*
X116537Y94730D01*
X116400Y94757D01*
D02*
G37*
G36*
X116194Y98496D02*
X116006D01*
X115831Y98423D01*
X115697Y98290D01*
X115625Y98115D01*
Y97926D01*
X115692Y97764D01*
Y97335D01*
X115663Y97330D01*
X115548Y97252D01*
X115470Y97137D01*
X115443Y97000D01*
Y96000D01*
X115470Y95863D01*
X115548Y95748D01*
X115663Y95670D01*
X115800Y95643D01*
X116400D01*
X116537Y95670D01*
X116652Y95748D01*
X116730Y95863D01*
X116757Y96000D01*
Y96218D01*
X120376D01*
X120468Y96126D01*
Y96084D01*
X120468Y96084D01*
X120468Y96084D01*
Y95359D01*
Y94709D01*
Y94059D01*
Y92759D01*
X120468Y92759D01*
X120468Y92759D01*
Y91884D01*
X120468Y91884D01*
X120489Y91776D01*
X120550Y91684D01*
X122425Y89809D01*
X122425Y89809D01*
X122517Y89748D01*
X122625Y89727D01*
X122625Y89727D01*
X124045D01*
Y89159D01*
X125545D01*
Y90859D01*
X124045D01*
Y90292D01*
X122742D01*
X121032Y92001D01*
Y92477D01*
X121913D01*
X121932Y92452D01*
X121969Y92350D01*
X121969Y92349D01*
X121906Y92255D01*
X121877Y92109D01*
X121906Y91963D01*
X121989Y91839D01*
X122113Y91756D01*
X122259Y91727D01*
X123209D01*
X123355Y91756D01*
X123479Y91839D01*
X123562Y91963D01*
X123591Y92109D01*
X123562Y92255D01*
X123500Y92349D01*
X123487Y92434D01*
X123500Y92519D01*
X123562Y92613D01*
X123591Y92759D01*
X123562Y92905D01*
X123500Y92999D01*
X123487Y93084D01*
X123500Y93169D01*
X123562Y93263D01*
X123591Y93409D01*
X123562Y93555D01*
X123500Y93649D01*
X123487Y93734D01*
X123500Y93819D01*
X123562Y93913D01*
X123591Y94059D01*
X123562Y94205D01*
X123500Y94299D01*
X123487Y94384D01*
X123500Y94469D01*
X123562Y94563D01*
X123591Y94709D01*
X123562Y94855D01*
X123500Y94949D01*
X123487Y95034D01*
X123500Y95119D01*
X123562Y95213D01*
X123591Y95359D01*
X123562Y95505D01*
X123500Y95599D01*
X123487Y95684D01*
X123500Y95769D01*
X123562Y95863D01*
X123591Y96009D01*
X123562Y96155D01*
X123500Y96249D01*
X123487Y96334D01*
X123500Y96419D01*
X123562Y96513D01*
X123591Y96659D01*
X123562Y96805D01*
X123479Y96929D01*
X123355Y97012D01*
X123209Y97041D01*
X122259D01*
X122113Y97012D01*
X121989Y96929D01*
X121906Y96805D01*
X121877Y96659D01*
X121906Y96513D01*
X121969Y96419D01*
X121969Y96418D01*
X121932Y96316D01*
X121913Y96292D01*
X121023D01*
X121011Y96351D01*
X120950Y96443D01*
X120950Y96443D01*
X120693Y96700D01*
X120601Y96761D01*
X120493Y96782D01*
X120493Y96782D01*
X116757D01*
Y97000D01*
X116730Y97137D01*
X116652Y97252D01*
X116537Y97330D01*
X116508Y97335D01*
Y97764D01*
X116575Y97926D01*
Y98115D01*
X116503Y98290D01*
X116369Y98423D01*
X116194Y98496D01*
D02*
G37*
G36*
X133064Y92159D02*
X132264D01*
Y91459D01*
X133064D01*
Y92159D01*
D02*
G37*
G36*
X132064D02*
X131264D01*
Y91459D01*
X132064D01*
Y92159D01*
D02*
G37*
G36*
X126495Y90909D02*
X125795D01*
Y90109D01*
X126495D01*
Y90909D01*
D02*
G37*
G36*
X117000Y90416D02*
X116200D01*
Y89716D01*
X117000D01*
Y90416D01*
D02*
G37*
G36*
X116000D02*
X115200D01*
Y89716D01*
X116000D01*
Y90416D01*
D02*
G37*
G36*
X126495Y89909D02*
X125795D01*
Y89109D01*
X126495D01*
Y89909D01*
D02*
G37*
G36*
X117000Y89516D02*
X116200D01*
Y88816D01*
X117000D01*
Y89516D01*
D02*
G37*
G36*
X116000D02*
X115200D01*
Y88816D01*
X116000D01*
Y89516D01*
D02*
G37*
G36*
X113475Y88925D02*
X112950D01*
Y88175D01*
X113475D01*
Y88925D01*
D02*
G37*
G36*
X112750D02*
X112225D01*
Y88175D01*
X112750D01*
Y88925D01*
D02*
G37*
G36*
X153110Y88835D02*
X153100D01*
Y88100D01*
X153835D01*
Y88110D01*
X153778Y88322D01*
X153668Y88513D01*
X153513Y88668D01*
X153322Y88778D01*
X153110Y88835D01*
D02*
G37*
G36*
X152900D02*
X152890D01*
X152678Y88778D01*
X152487Y88668D01*
X152332Y88513D01*
X152222Y88322D01*
X152165Y88110D01*
Y88100D01*
X152900D01*
Y88835D01*
D02*
G37*
G36*
X127110D02*
X127100D01*
Y88100D01*
X127835D01*
Y88110D01*
X127778Y88322D01*
X127668Y88513D01*
X127513Y88668D01*
X127322Y88778D01*
X127110Y88835D01*
D02*
G37*
G36*
X126900D02*
X126890D01*
X126678Y88778D01*
X126487Y88668D01*
X126332Y88513D01*
X126222Y88322D01*
X126165Y88110D01*
Y88100D01*
X126900D01*
Y88835D01*
D02*
G37*
G36*
X113475Y87975D02*
X112950D01*
Y87225D01*
X113475D01*
Y87975D01*
D02*
G37*
G36*
X112750D02*
X112225D01*
Y87225D01*
X112750D01*
Y87975D01*
D02*
G37*
G36*
X153835Y87900D02*
X153100D01*
Y87165D01*
X153110D01*
X153322Y87222D01*
X153513Y87332D01*
X153668Y87487D01*
X153778Y87678D01*
X153835Y87890D01*
Y87900D01*
D02*
G37*
G36*
X152900D02*
X152165D01*
Y87890D01*
X152222Y87678D01*
X152332Y87487D01*
X152487Y87332D01*
X152678Y87222D01*
X152890Y87165D01*
X152900D01*
Y87900D01*
D02*
G37*
G36*
X127835D02*
X127100D01*
Y87165D01*
X127110D01*
X127322Y87222D01*
X127513Y87332D01*
X127668Y87487D01*
X127778Y87678D01*
X127835Y87890D01*
Y87900D01*
D02*
G37*
G36*
X126900D02*
X126165D01*
Y87890D01*
X126222Y87678D01*
X126332Y87487D01*
X126487Y87332D01*
X126678Y87222D01*
X126890Y87165D01*
X126900D01*
Y87900D01*
D02*
G37*
G36*
X44849Y85620D02*
X44651D01*
X44461Y85569D01*
X44289Y85470D01*
X44150Y85331D01*
X44051Y85160D01*
X44000Y84969D01*
Y84771D01*
X44051Y84581D01*
X44150Y84410D01*
X44289Y84270D01*
X44461Y84171D01*
X44651Y84120D01*
X44849D01*
X45039Y84171D01*
X45211Y84270D01*
X45350Y84410D01*
X45449Y84581D01*
X45500Y84771D01*
Y84969D01*
X45449Y85160D01*
X45350Y85331D01*
X45211Y85470D01*
X45039Y85569D01*
X44849Y85620D01*
D02*
G37*
G36*
X126946Y84465D02*
X126696D01*
X126454Y84400D01*
X126237Y84275D01*
X126060Y84098D01*
X125935Y83882D01*
X125913Y83797D01*
X122834D01*
Y84050D01*
X121234D01*
Y82900D01*
X122834D01*
Y83233D01*
X125913D01*
X125935Y83148D01*
X126060Y82932D01*
X126237Y82755D01*
X126454Y82630D01*
X126696Y82565D01*
X126946D01*
X127187Y82630D01*
X127404Y82755D01*
X127581Y82932D01*
X127706Y83148D01*
X127771Y83390D01*
Y83640D01*
X127706Y83882D01*
X127581Y84098D01*
X127404Y84275D01*
X127187Y84400D01*
X126946Y84465D01*
D02*
G37*
G36*
X143631Y85850D02*
X143408D01*
X143191Y85792D01*
X142998Y85680D01*
X142839Y85522D01*
X142727Y85328D01*
X142670Y85112D01*
Y84888D01*
X142727Y84672D01*
X142839Y84478D01*
X142998Y84320D01*
X143191Y84208D01*
X143408Y84150D01*
X143631D01*
X143848Y84208D01*
X144041Y84320D01*
X144200Y84478D01*
X144312Y84672D01*
X144324Y84718D01*
X146071D01*
X147205Y83583D01*
Y75655D01*
X147078Y75603D01*
X147013Y75668D01*
X146822Y75778D01*
X146610Y75835D01*
X146600D01*
Y75000D01*
Y74165D01*
X146610D01*
X146822Y74222D01*
X147013Y74332D01*
X147078Y74397D01*
X147205Y74345D01*
Y72959D01*
X146713D01*
Y71409D01*
X148263D01*
Y72959D01*
X147770D01*
Y83418D01*
X148625D01*
Y82950D01*
X150375D01*
Y84450D01*
X148625D01*
Y83982D01*
X147605D01*
X146387Y85200D01*
X146296Y85261D01*
X146188Y85282D01*
X146188Y85282D01*
X144324D01*
X144312Y85328D01*
X144200Y85522D01*
X144041Y85680D01*
X143848Y85792D01*
X143631Y85850D01*
D02*
G37*
G36*
X44849Y83620D02*
X44651D01*
X44461Y83569D01*
X44289Y83470D01*
X44150Y83331D01*
X44051Y83160D01*
X44000Y82969D01*
Y82771D01*
X44051Y82581D01*
X44150Y82410D01*
X44289Y82270D01*
X44461Y82171D01*
X44651Y82120D01*
X44849D01*
X45039Y82171D01*
X45211Y82270D01*
X45350Y82410D01*
X45449Y82581D01*
X45500Y82771D01*
Y82969D01*
X45449Y83160D01*
X45350Y83331D01*
X45211Y83470D01*
X45039Y83569D01*
X44849Y83620D01*
D02*
G37*
G36*
X126952Y81975D02*
X126921D01*
Y81075D01*
X127821D01*
Y81107D01*
X127752Y81361D01*
X127621Y81589D01*
X127435Y81775D01*
X127207Y81907D01*
X126952Y81975D01*
D02*
G37*
G36*
X126721D02*
X126689D01*
X126435Y81907D01*
X126207Y81775D01*
X126020Y81589D01*
X125889Y81361D01*
X125821Y81107D01*
Y81075D01*
X126721D01*
Y81975D01*
D02*
G37*
G36*
X44849Y81620D02*
X44651D01*
X44461Y81569D01*
X44289Y81470D01*
X44150Y81331D01*
X44051Y81160D01*
X44000Y80969D01*
Y80771D01*
X44051Y80581D01*
X44150Y80410D01*
X44289Y80270D01*
X44461Y80171D01*
X44651Y80120D01*
X44849D01*
X45039Y80171D01*
X45211Y80270D01*
X45350Y80410D01*
X45449Y80581D01*
X45500Y80771D01*
Y80969D01*
X45449Y81160D01*
X45350Y81331D01*
X45211Y81470D01*
X45039Y81569D01*
X44849Y81620D01*
D02*
G37*
G36*
X127821Y80875D02*
X126921D01*
Y79975D01*
X126952D01*
X127207Y80043D01*
X127435Y80175D01*
X127621Y80361D01*
X127752Y80589D01*
X127821Y80843D01*
Y80875D01*
D02*
G37*
G36*
X126721D02*
X125821D01*
Y80843D01*
X125889Y80589D01*
X126020Y80361D01*
X126207Y80175D01*
X126435Y80043D01*
X126689Y79975D01*
X126721D01*
Y80875D01*
D02*
G37*
G36*
X66849Y79620D02*
X66651D01*
X66461Y79569D01*
X66289Y79470D01*
X66150Y79331D01*
X66051Y79160D01*
X66000Y78969D01*
Y78771D01*
X66051Y78581D01*
X66150Y78410D01*
X66289Y78270D01*
X66461Y78171D01*
X66651Y78120D01*
X66849D01*
X67039Y78171D01*
X67211Y78270D01*
X67350Y78410D01*
X67449Y78581D01*
X67500Y78771D01*
Y78969D01*
X67449Y79160D01*
X67350Y79331D01*
X67211Y79470D01*
X67039Y79569D01*
X66849Y79620D01*
D02*
G37*
G36*
X44849D02*
X44651D01*
X44461Y79569D01*
X44289Y79470D01*
X44150Y79331D01*
X44051Y79160D01*
X44000Y78969D01*
Y78771D01*
X44051Y78581D01*
X44150Y78410D01*
X44289Y78270D01*
X44461Y78171D01*
X44651Y78120D01*
X44849D01*
X45039Y78171D01*
X45211Y78270D01*
X45350Y78410D01*
X45449Y78581D01*
X45500Y78771D01*
Y78969D01*
X45449Y79160D01*
X45350Y79331D01*
X45211Y79470D01*
X45039Y79569D01*
X44849Y79620D01*
D02*
G37*
G36*
X39031Y79195D02*
X37231D01*
Y77395D01*
X39031D01*
Y79195D01*
D02*
G37*
G36*
X66849Y77620D02*
X66651D01*
X66461Y77569D01*
X66289Y77470D01*
X66150Y77331D01*
X66051Y77160D01*
X66000Y76969D01*
Y76771D01*
X66051Y76581D01*
X66150Y76410D01*
X66289Y76270D01*
X66461Y76171D01*
X66651Y76120D01*
X66849D01*
X67039Y76171D01*
X67211Y76270D01*
X67350Y76410D01*
X67449Y76581D01*
X67500Y76771D01*
Y76969D01*
X67449Y77160D01*
X67350Y77331D01*
X67211Y77470D01*
X67039Y77569D01*
X66849Y77620D01*
D02*
G37*
G36*
X44849D02*
X44651D01*
X44461Y77569D01*
X44289Y77470D01*
X44150Y77331D01*
X44051Y77160D01*
X44000Y76969D01*
Y76771D01*
X44051Y76581D01*
X44150Y76410D01*
X44289Y76270D01*
X44461Y76171D01*
X44651Y76120D01*
X44849D01*
X45039Y76171D01*
X45211Y76270D01*
X45350Y76410D01*
X45449Y76581D01*
X45500Y76771D01*
Y76969D01*
X45449Y77160D01*
X45350Y77331D01*
X45211Y77470D01*
X45039Y77569D01*
X44849Y77620D01*
D02*
G37*
G36*
X159610Y75835D02*
X159600D01*
Y75100D01*
X160335D01*
Y75110D01*
X160278Y75322D01*
X160168Y75513D01*
X160013Y75668D01*
X159822Y75778D01*
X159610Y75835D01*
D02*
G37*
G36*
X159400D02*
X159390D01*
X159178Y75778D01*
X158987Y75668D01*
X158832Y75513D01*
X158722Y75322D01*
X158665Y75110D01*
Y75100D01*
X159400D01*
Y75835D01*
D02*
G37*
G36*
X146400D02*
X146390D01*
X146178Y75778D01*
X145987Y75668D01*
X145832Y75513D01*
X145722Y75322D01*
X145665Y75110D01*
Y75100D01*
X146400D01*
Y75835D01*
D02*
G37*
G36*
X133610D02*
X133600D01*
Y75100D01*
X134335D01*
Y75110D01*
X134278Y75322D01*
X134168Y75513D01*
X134013Y75668D01*
X133822Y75778D01*
X133610Y75835D01*
D02*
G37*
G36*
X133400D02*
X133390D01*
X133178Y75778D01*
X132987Y75668D01*
X132832Y75513D01*
X132722Y75322D01*
X132665Y75110D01*
Y75100D01*
X133400D01*
Y75835D01*
D02*
G37*
G36*
X107610D02*
X107600D01*
Y75100D01*
X108335D01*
Y75110D01*
X108278Y75322D01*
X108168Y75513D01*
X108013Y75668D01*
X107822Y75778D01*
X107610Y75835D01*
D02*
G37*
G36*
X107400D02*
X107390D01*
X107178Y75778D01*
X106987Y75668D01*
X106832Y75513D01*
X106722Y75322D01*
X106665Y75110D01*
Y75100D01*
X107400D01*
Y75835D01*
D02*
G37*
G36*
X94610D02*
X94600D01*
Y75100D01*
X95335D01*
Y75110D01*
X95278Y75322D01*
X95168Y75513D01*
X95013Y75668D01*
X94822Y75778D01*
X94610Y75835D01*
D02*
G37*
G36*
X94400D02*
X94390D01*
X94178Y75778D01*
X93987Y75668D01*
X93832Y75513D01*
X93722Y75322D01*
X93665Y75110D01*
Y75100D01*
X94400D01*
Y75835D01*
D02*
G37*
G36*
X81610D02*
X81600D01*
Y75100D01*
X82335D01*
Y75110D01*
X82278Y75322D01*
X82168Y75513D01*
X82013Y75668D01*
X81822Y75778D01*
X81610Y75835D01*
D02*
G37*
G36*
X81400D02*
X81390D01*
X81178Y75778D01*
X80987Y75668D01*
X80832Y75513D01*
X80722Y75322D01*
X80665Y75110D01*
Y75100D01*
X81400D01*
Y75835D01*
D02*
G37*
G36*
X55610D02*
X55600D01*
Y75100D01*
X56335D01*
Y75110D01*
X56278Y75322D01*
X56168Y75513D01*
X56013Y75668D01*
X55822Y75778D01*
X55610Y75835D01*
D02*
G37*
G36*
X55400D02*
X55390D01*
X55178Y75778D01*
X54987Y75668D01*
X54832Y75513D01*
X54722Y75322D01*
X54665Y75110D01*
Y75100D01*
X55400D01*
Y75835D01*
D02*
G37*
G36*
X42610D02*
X42600D01*
Y75100D01*
X43335D01*
Y75110D01*
X43278Y75322D01*
X43168Y75513D01*
X43013Y75668D01*
X42822Y75778D01*
X42610Y75835D01*
D02*
G37*
G36*
X42400D02*
X42390D01*
X42178Y75778D01*
X41987Y75668D01*
X41832Y75513D01*
X41722Y75322D01*
X41665Y75110D01*
Y75100D01*
X42400D01*
Y75835D01*
D02*
G37*
G36*
X29610D02*
X29600D01*
Y75100D01*
X30335D01*
Y75110D01*
X30278Y75322D01*
X30168Y75513D01*
X30013Y75668D01*
X29822Y75778D01*
X29610Y75835D01*
D02*
G37*
G36*
X29400D02*
X29390D01*
X29178Y75778D01*
X28987Y75668D01*
X28832Y75513D01*
X28722Y75322D01*
X28665Y75110D01*
Y75100D01*
X29400D01*
Y75835D01*
D02*
G37*
G36*
X16610D02*
X16600D01*
Y75100D01*
X17335D01*
Y75110D01*
X17278Y75322D01*
X17168Y75513D01*
X17013Y75668D01*
X16822Y75778D01*
X16610Y75835D01*
D02*
G37*
G36*
X16400D02*
X16390D01*
X16178Y75778D01*
X15987Y75668D01*
X15832Y75513D01*
X15722Y75322D01*
X15665Y75110D01*
Y75100D01*
X16400D01*
Y75835D01*
D02*
G37*
G36*
X114459Y76655D02*
X114222D01*
X113993Y76594D01*
X113788Y76475D01*
X113620Y76308D01*
X113502Y76102D01*
X113441Y75873D01*
Y75636D01*
X113502Y75408D01*
X113620Y75202D01*
X113788Y75035D01*
X113993Y74916D01*
X114222Y74855D01*
X114459D01*
X114688Y74916D01*
X114893Y75035D01*
X115061Y75202D01*
X115179Y75408D01*
X115241Y75636D01*
Y75873D01*
X115179Y76102D01*
X115061Y76308D01*
X114893Y76475D01*
X114688Y76594D01*
X114459Y76655D01*
D02*
G37*
G36*
X38249D02*
X38012D01*
X37783Y76594D01*
X37578Y76475D01*
X37410Y76308D01*
X37292Y76102D01*
X37231Y75873D01*
Y75636D01*
X37292Y75408D01*
X37410Y75202D01*
X37578Y75035D01*
X37783Y74916D01*
X38012Y74855D01*
X38249D01*
X38478Y74916D01*
X38683Y75035D01*
X38851Y75202D01*
X38969Y75408D01*
X39031Y75636D01*
Y75873D01*
X38969Y76102D01*
X38851Y76308D01*
X38683Y76475D01*
X38478Y76594D01*
X38249Y76655D01*
D02*
G37*
G36*
X160335Y74900D02*
X159600D01*
Y74165D01*
X159610D01*
X159822Y74222D01*
X160013Y74332D01*
X160168Y74487D01*
X160278Y74678D01*
X160335Y74890D01*
Y74900D01*
D02*
G37*
G36*
X159400D02*
X158665D01*
Y74890D01*
X158722Y74678D01*
X158832Y74487D01*
X158987Y74332D01*
X159178Y74222D01*
X159390Y74165D01*
X159400D01*
Y74900D01*
D02*
G37*
G36*
X146400D02*
X145665D01*
Y74890D01*
X145722Y74678D01*
X145832Y74487D01*
X145987Y74332D01*
X146178Y74222D01*
X146390Y74165D01*
X146400D01*
Y74900D01*
D02*
G37*
G36*
X134335D02*
X133600D01*
Y74165D01*
X133610D01*
X133822Y74222D01*
X134013Y74332D01*
X134168Y74487D01*
X134278Y74678D01*
X134335Y74890D01*
Y74900D01*
D02*
G37*
G36*
X133400D02*
X132665D01*
Y74890D01*
X132722Y74678D01*
X132832Y74487D01*
X132987Y74332D01*
X133178Y74222D01*
X133390Y74165D01*
X133400D01*
Y74900D01*
D02*
G37*
G36*
X108335D02*
X107600D01*
Y74165D01*
X107610D01*
X107822Y74222D01*
X108013Y74332D01*
X108168Y74487D01*
X108278Y74678D01*
X108335Y74890D01*
Y74900D01*
D02*
G37*
G36*
X107400D02*
X106665D01*
Y74890D01*
X106722Y74678D01*
X106832Y74487D01*
X106987Y74332D01*
X107178Y74222D01*
X107390Y74165D01*
X107400D01*
Y74900D01*
D02*
G37*
G36*
X95335D02*
X94600D01*
Y74165D01*
X94610D01*
X94822Y74222D01*
X95013Y74332D01*
X95168Y74487D01*
X95278Y74678D01*
X95335Y74890D01*
Y74900D01*
D02*
G37*
G36*
X94400D02*
X93665D01*
Y74890D01*
X93722Y74678D01*
X93832Y74487D01*
X93987Y74332D01*
X94178Y74222D01*
X94390Y74165D01*
X94400D01*
Y74900D01*
D02*
G37*
G36*
X82335D02*
X81600D01*
Y74165D01*
X81610D01*
X81822Y74222D01*
X82013Y74332D01*
X82168Y74487D01*
X82278Y74678D01*
X82335Y74890D01*
Y74900D01*
D02*
G37*
G36*
X81400D02*
X80665D01*
Y74890D01*
X80722Y74678D01*
X80832Y74487D01*
X80987Y74332D01*
X81178Y74222D01*
X81390Y74165D01*
X81400D01*
Y74900D01*
D02*
G37*
G36*
X56335D02*
X55600D01*
Y74165D01*
X55610D01*
X55822Y74222D01*
X56013Y74332D01*
X56168Y74487D01*
X56278Y74678D01*
X56335Y74890D01*
Y74900D01*
D02*
G37*
G36*
X55400D02*
X54665D01*
Y74890D01*
X54722Y74678D01*
X54832Y74487D01*
X54987Y74332D01*
X55178Y74222D01*
X55390Y74165D01*
X55400D01*
Y74900D01*
D02*
G37*
G36*
X43335D02*
X42600D01*
Y74165D01*
X42610D01*
X42822Y74222D01*
X43013Y74332D01*
X43168Y74487D01*
X43278Y74678D01*
X43335Y74890D01*
Y74900D01*
D02*
G37*
G36*
X42400D02*
X41665D01*
Y74890D01*
X41722Y74678D01*
X41832Y74487D01*
X41987Y74332D01*
X42178Y74222D01*
X42390Y74165D01*
X42400D01*
Y74900D01*
D02*
G37*
G36*
X30335D02*
X29600D01*
Y74165D01*
X29610D01*
X29822Y74222D01*
X30013Y74332D01*
X30168Y74487D01*
X30278Y74678D01*
X30335Y74890D01*
Y74900D01*
D02*
G37*
G36*
X29400D02*
X28665D01*
Y74890D01*
X28722Y74678D01*
X28832Y74487D01*
X28987Y74332D01*
X29178Y74222D01*
X29390Y74165D01*
X29400D01*
Y74900D01*
D02*
G37*
G36*
X17335D02*
X16600D01*
Y74165D01*
X16610D01*
X16822Y74222D01*
X17013Y74332D01*
X17168Y74487D01*
X17278Y74678D01*
X17335Y74890D01*
Y74900D01*
D02*
G37*
G36*
X16400D02*
X15665D01*
Y74890D01*
X15722Y74678D01*
X15832Y74487D01*
X15987Y74332D01*
X16178Y74222D01*
X16390Y74165D01*
X16400D01*
Y74900D01*
D02*
G37*
G36*
X132511Y75975D02*
X130911D01*
Y74125D01*
X132511D01*
Y75975D01*
D02*
G37*
G36*
X66849Y75620D02*
X66651D01*
X66461Y75569D01*
X66289Y75470D01*
X66150Y75331D01*
X66051Y75160D01*
X66000Y74969D01*
Y74771D01*
X66051Y74581D01*
X66150Y74410D01*
X66289Y74270D01*
X66461Y74171D01*
X66651Y74120D01*
X66849D01*
X67039Y74171D01*
X67211Y74270D01*
X67350Y74410D01*
X67449Y74581D01*
X67500Y74771D01*
Y74969D01*
X67449Y75160D01*
X67350Y75331D01*
X67211Y75470D01*
X67039Y75569D01*
X66849Y75620D01*
D02*
G37*
G36*
X44849D02*
X44651D01*
X44461Y75569D01*
X44289Y75470D01*
X44150Y75331D01*
X44051Y75160D01*
X44000Y74969D01*
Y74771D01*
X44051Y74581D01*
X44150Y74410D01*
X44289Y74270D01*
X44461Y74171D01*
X44651Y74120D01*
X44849D01*
X45039Y74171D01*
X45211Y74270D01*
X45350Y74410D01*
X45449Y74581D01*
X45500Y74771D01*
Y74969D01*
X45449Y75160D01*
X45350Y75331D01*
X45211Y75470D01*
X45039Y75569D01*
X44849Y75620D01*
D02*
G37*
G36*
X138730Y73339D02*
Y72839D01*
X139280D01*
Y73339D01*
X138730D01*
D02*
G37*
G36*
X114459Y74115D02*
X114222D01*
X113993Y74054D01*
X113788Y73935D01*
X113620Y73768D01*
X113502Y73562D01*
X113441Y73333D01*
Y73096D01*
X113502Y72868D01*
X113620Y72662D01*
X113788Y72495D01*
X113993Y72376D01*
X114222Y72315D01*
X114459D01*
X114688Y72376D01*
X114893Y72495D01*
X115061Y72662D01*
X115179Y72868D01*
X115241Y73096D01*
Y73333D01*
X115179Y73562D01*
X115061Y73768D01*
X114893Y73935D01*
X114688Y74054D01*
X114459Y74115D01*
D02*
G37*
G36*
X38249D02*
X38012D01*
X37783Y74054D01*
X37578Y73935D01*
X37410Y73768D01*
X37292Y73562D01*
X37231Y73333D01*
Y73096D01*
X37292Y72868D01*
X37410Y72662D01*
X37578Y72495D01*
X37783Y72376D01*
X38012Y72315D01*
X38249D01*
X38478Y72376D01*
X38683Y72495D01*
X38851Y72662D01*
X38969Y72868D01*
X39031Y73096D01*
Y73333D01*
X38969Y73562D01*
X38851Y73768D01*
X38683Y73935D01*
X38478Y74054D01*
X38249Y74115D01*
D02*
G37*
G36*
X139280Y72639D02*
X138730D01*
Y72139D01*
X139280D01*
Y72639D01*
D02*
G37*
G36*
X66849Y73620D02*
X66651D01*
X66461Y73569D01*
X66289Y73470D01*
X66150Y73331D01*
X66051Y73160D01*
X66000Y72969D01*
Y72771D01*
X66051Y72581D01*
X66150Y72410D01*
X66289Y72270D01*
X66461Y72171D01*
X66651Y72120D01*
X66849D01*
X67039Y72171D01*
X67211Y72270D01*
X67350Y72410D01*
X67449Y72581D01*
X67500Y72771D01*
Y72969D01*
X67449Y73160D01*
X67350Y73331D01*
X67211Y73470D01*
X67039Y73569D01*
X66849Y73620D01*
D02*
G37*
G36*
X44849D02*
X44651D01*
X44461Y73569D01*
X44289Y73470D01*
X44150Y73331D01*
X44051Y73160D01*
X44000Y72969D01*
Y72771D01*
X44051Y72581D01*
X44150Y72410D01*
X44289Y72270D01*
X44461Y72171D01*
X44651Y72120D01*
X44849D01*
X45039Y72171D01*
X45211Y72270D01*
X45350Y72410D01*
X45449Y72581D01*
X45500Y72771D01*
Y72969D01*
X45449Y73160D01*
X45350Y73331D01*
X45211Y73470D01*
X45039Y73569D01*
X44849Y73620D01*
D02*
G37*
G36*
X139230Y75189D02*
X138030D01*
Y74438D01*
X137400Y73809D01*
X137339Y73717D01*
X137318Y73609D01*
X137318Y73609D01*
Y70551D01*
X136015D01*
X135895Y70672D01*
X135721Y70744D01*
X135532D01*
X135357Y70672D01*
X135223Y70538D01*
X135151Y70363D01*
Y70174D01*
X135223Y70000D01*
X135357Y69866D01*
X135532Y69794D01*
X135721D01*
X135895Y69866D01*
X136015Y69986D01*
X137318D01*
Y69025D01*
X137318Y69025D01*
X137339Y68917D01*
X137400Y68826D01*
X138620Y67606D01*
Y67598D01*
X138620Y67598D01*
X138625Y67571D01*
Y66375D01*
X140375D01*
Y67875D01*
X139134D01*
X139102Y67923D01*
X139102Y67923D01*
X137882Y69142D01*
Y70269D01*
Y72067D01*
X137980Y72139D01*
X138009Y72139D01*
X138530D01*
Y72739D01*
Y73339D01*
X138009D01*
X137980Y73339D01*
X137922Y73382D01*
X137914Y73524D01*
X138479Y74089D01*
X139230D01*
Y75189D01*
D02*
G37*
G36*
X66849Y71620D02*
X66651D01*
X66461Y71569D01*
X66289Y71470D01*
X66150Y71331D01*
X66051Y71160D01*
X66000Y70969D01*
Y70771D01*
X66051Y70581D01*
X66150Y70410D01*
X66289Y70270D01*
X66461Y70171D01*
X66651Y70120D01*
X66849D01*
X67039Y70171D01*
X67211Y70270D01*
X67350Y70410D01*
X67449Y70581D01*
X67500Y70771D01*
Y70969D01*
X67449Y71160D01*
X67350Y71331D01*
X67211Y71470D01*
X67039Y71569D01*
X66849Y71620D01*
D02*
G37*
G36*
X44849D02*
X44651D01*
X44461Y71569D01*
X44289Y71470D01*
X44150Y71331D01*
X44051Y71160D01*
X44000Y70969D01*
Y70771D01*
X44051Y70581D01*
X44150Y70410D01*
X44289Y70270D01*
X44461Y70171D01*
X44651Y70120D01*
X44849D01*
X45039Y70171D01*
X45211Y70270D01*
X45350Y70410D01*
X45449Y70581D01*
X45500Y70771D01*
Y70969D01*
X45449Y71160D01*
X45350Y71331D01*
X45211Y71470D01*
X45039Y71569D01*
X44849Y71620D01*
D02*
G37*
G36*
X114459Y71575D02*
X114222D01*
X113993Y71514D01*
X113788Y71395D01*
X113620Y71228D01*
X113502Y71022D01*
X113441Y70793D01*
Y70557D01*
X113502Y70328D01*
X113620Y70122D01*
X113788Y69955D01*
X113993Y69836D01*
X114222Y69775D01*
X114459D01*
X114688Y69836D01*
X114893Y69955D01*
X115061Y70122D01*
X115179Y70328D01*
X115241Y70557D01*
Y70793D01*
X115179Y71022D01*
X115061Y71228D01*
X114893Y71395D01*
X114688Y71514D01*
X114459Y71575D01*
D02*
G37*
G36*
X38249D02*
X38012D01*
X37783Y71514D01*
X37578Y71395D01*
X37410Y71228D01*
X37292Y71022D01*
X37231Y70793D01*
Y70557D01*
X37292Y70328D01*
X37410Y70122D01*
X37578Y69955D01*
X37783Y69836D01*
X38012Y69775D01*
X38249D01*
X38478Y69836D01*
X38683Y69955D01*
X38851Y70122D01*
X38969Y70328D01*
X39031Y70557D01*
Y70793D01*
X38969Y71022D01*
X38851Y71228D01*
X38683Y71395D01*
X38478Y71514D01*
X38249Y71575D01*
D02*
G37*
G36*
X141230Y74239D02*
X140030D01*
Y73139D01*
X140830D01*
X141643Y72326D01*
X141633Y72286D01*
Y72082D01*
X141685Y71885D01*
X141787Y71708D01*
X141932Y71564D01*
X142109Y71462D01*
X142306Y71409D01*
X142510D01*
X142707Y71462D01*
X142722Y71470D01*
X144234Y69958D01*
X144225Y69943D01*
X144173Y69746D01*
Y69542D01*
X144225Y69345D01*
X144327Y69168D01*
X144472Y69024D01*
X144648Y68922D01*
X144846Y68869D01*
X145050D01*
X145247Y68922D01*
X145423Y69024D01*
X145568Y69168D01*
X145670Y69345D01*
X145723Y69542D01*
Y69746D01*
X145670Y69943D01*
X145568Y70120D01*
X145423Y70264D01*
X145247Y70366D01*
X145050Y70419D01*
X144846D01*
X144648Y70366D01*
X144634Y70357D01*
X143121Y71870D01*
X143130Y71885D01*
X143183Y72082D01*
Y72286D01*
X143130Y72483D01*
X143028Y72660D01*
X142883Y72804D01*
X142707Y72906D01*
X142510Y72959D01*
X142306D01*
X142109Y72906D01*
X141952Y72816D01*
X141230Y73538D01*
Y74239D01*
D02*
G37*
G36*
X66849Y69620D02*
X66651D01*
X66461Y69569D01*
X66289Y69470D01*
X66150Y69331D01*
X66051Y69160D01*
X66000Y68969D01*
Y68771D01*
X66051Y68581D01*
X66150Y68410D01*
X66289Y68270D01*
X66461Y68171D01*
X66651Y68120D01*
X66849D01*
X67039Y68171D01*
X67211Y68270D01*
X67350Y68410D01*
X67449Y68581D01*
X67500Y68771D01*
Y68969D01*
X67449Y69160D01*
X67350Y69331D01*
X67211Y69470D01*
X67039Y69569D01*
X66849Y69620D01*
D02*
G37*
G36*
X44849D02*
X44651D01*
X44461Y69569D01*
X44289Y69470D01*
X44150Y69331D01*
X44051Y69160D01*
X44000Y68969D01*
Y68771D01*
X44051Y68581D01*
X44150Y68410D01*
X44289Y68270D01*
X44461Y68171D01*
X44651Y68120D01*
X44849D01*
X45039Y68171D01*
X45211Y68270D01*
X45350Y68410D01*
X45449Y68581D01*
X45500Y68771D01*
Y68969D01*
X45449Y69160D01*
X45350Y69331D01*
X45211Y69470D01*
X45039Y69569D01*
X44849Y69620D01*
D02*
G37*
G36*
X114459Y69035D02*
X114222D01*
X113993Y68974D01*
X113788Y68855D01*
X113620Y68688D01*
X113502Y68482D01*
X113441Y68253D01*
Y68017D01*
X113502Y67788D01*
X113620Y67582D01*
X113788Y67415D01*
X113993Y67296D01*
X114222Y67235D01*
X114459D01*
X114688Y67296D01*
X114893Y67415D01*
X115061Y67582D01*
X115179Y67788D01*
X115241Y68017D01*
Y68253D01*
X115179Y68482D01*
X115061Y68688D01*
X114893Y68855D01*
X114688Y68974D01*
X114459Y69035D01*
D02*
G37*
G36*
X38249D02*
X38012D01*
X37783Y68974D01*
X37578Y68855D01*
X37410Y68688D01*
X37292Y68482D01*
X37231Y68253D01*
Y68017D01*
X37292Y67788D01*
X37410Y67582D01*
X37578Y67415D01*
X37783Y67296D01*
X38012Y67235D01*
X38249D01*
X38478Y67296D01*
X38683Y67415D01*
X38851Y67582D01*
X38969Y67788D01*
X39031Y68017D01*
Y68253D01*
X38969Y68482D01*
X38851Y68688D01*
X38683Y68855D01*
X38478Y68974D01*
X38249Y69035D01*
D02*
G37*
G36*
X66855Y67670D02*
X66850D01*
Y66970D01*
X67550D01*
Y66975D01*
X67495Y67179D01*
X67390Y67361D01*
X67241Y67510D01*
X67059Y67616D01*
X66855Y67670D01*
D02*
G37*
G36*
X66650D02*
X66645D01*
X66441Y67616D01*
X66259Y67510D01*
X66110Y67361D01*
X66005Y67179D01*
X65950Y66975D01*
Y66970D01*
X66650D01*
Y67670D01*
D02*
G37*
G36*
X137011Y68025D02*
X135411D01*
Y66175D01*
X137011D01*
Y68025D01*
D02*
G37*
G36*
X44849Y67620D02*
X44651D01*
X44461Y67569D01*
X44289Y67470D01*
X44150Y67331D01*
X44051Y67160D01*
X44000Y66969D01*
Y66771D01*
X44051Y66581D01*
X44150Y66410D01*
X44289Y66270D01*
X44461Y66171D01*
X44651Y66120D01*
X44849D01*
X45039Y66171D01*
X45211Y66270D01*
X45350Y66410D01*
X45449Y66581D01*
X45500Y66771D01*
Y66969D01*
X45449Y67160D01*
X45350Y67331D01*
X45211Y67470D01*
X45039Y67569D01*
X44849Y67620D01*
D02*
G37*
G36*
X67550Y66770D02*
X66850D01*
Y66070D01*
X66855D01*
X67059Y66125D01*
X67241Y66230D01*
X67390Y66379D01*
X67495Y66561D01*
X67550Y66765D01*
Y66770D01*
D02*
G37*
G36*
X66650D02*
X65950D01*
Y66765D01*
X66005Y66561D01*
X66110Y66379D01*
X66259Y66230D01*
X66441Y66125D01*
X66645Y66070D01*
X66650D01*
Y66770D01*
D02*
G37*
G36*
X140425Y65925D02*
X139600D01*
Y65225D01*
X140425D01*
Y65925D01*
D02*
G37*
G36*
X139400D02*
X138575D01*
Y65225D01*
X139400D01*
Y65925D01*
D02*
G37*
G36*
X114459Y66495D02*
X114222D01*
X113993Y66434D01*
X113788Y66315D01*
X113620Y66148D01*
X113502Y65942D01*
X113441Y65713D01*
Y65477D01*
X113502Y65248D01*
X113620Y65042D01*
X113788Y64875D01*
X113993Y64756D01*
X114222Y64695D01*
X114459D01*
X114688Y64756D01*
X114893Y64875D01*
X115061Y65042D01*
X115179Y65248D01*
X115241Y65477D01*
Y65713D01*
X115179Y65942D01*
X115061Y66148D01*
X114893Y66315D01*
X114688Y66434D01*
X114459Y66495D01*
D02*
G37*
G36*
X38249D02*
X38012D01*
X37783Y66434D01*
X37578Y66315D01*
X37410Y66148D01*
X37292Y65942D01*
X37231Y65713D01*
Y65477D01*
X37292Y65248D01*
X37410Y65042D01*
X37578Y64875D01*
X37783Y64756D01*
X38012Y64695D01*
X38249D01*
X38478Y64756D01*
X38683Y64875D01*
X38851Y65042D01*
X38969Y65248D01*
X39031Y65477D01*
Y65713D01*
X38969Y65942D01*
X38851Y66148D01*
X38683Y66315D01*
X38478Y66434D01*
X38249Y66495D01*
D02*
G37*
G36*
X140425Y65025D02*
X139600D01*
Y64325D01*
X140425D01*
Y65025D01*
D02*
G37*
G36*
X139400D02*
X138575D01*
Y64325D01*
X139400D01*
Y65025D01*
D02*
G37*
G36*
X143641Y65745D02*
X142041D01*
Y63895D01*
X143641D01*
Y65745D01*
D02*
G37*
G36*
X122441D02*
X120841D01*
Y63895D01*
X122441D01*
Y65745D01*
D02*
G37*
G36*
X114459Y63955D02*
X114222D01*
X113993Y63894D01*
X113788Y63775D01*
X113620Y63608D01*
X113502Y63402D01*
X113441Y63173D01*
Y62937D01*
X113502Y62708D01*
X113620Y62502D01*
X113788Y62335D01*
X113993Y62216D01*
X114222Y62155D01*
X114459D01*
X114688Y62216D01*
X114893Y62335D01*
X115061Y62502D01*
X115179Y62708D01*
X115241Y62937D01*
Y63173D01*
X115179Y63402D01*
X115061Y63608D01*
X114893Y63775D01*
X114688Y63894D01*
X114459Y63955D01*
D02*
G37*
G36*
X38249D02*
X38012D01*
X37783Y63894D01*
X37578Y63775D01*
X37410Y63608D01*
X37292Y63402D01*
X37231Y63173D01*
Y62937D01*
X37292Y62708D01*
X37410Y62502D01*
X37578Y62335D01*
X37783Y62216D01*
X38012Y62155D01*
X38249D01*
X38478Y62216D01*
X38683Y62335D01*
X38851Y62502D01*
X38969Y62708D01*
X39031Y62937D01*
Y63173D01*
X38969Y63402D01*
X38851Y63608D01*
X38683Y63775D01*
X38478Y63894D01*
X38249Y63955D01*
D02*
G37*
G36*
X153110Y62835D02*
X153100D01*
Y62100D01*
X153835D01*
Y62110D01*
X153778Y62322D01*
X153668Y62513D01*
X153513Y62668D01*
X153322Y62778D01*
X153110Y62835D01*
D02*
G37*
G36*
X152900D02*
X152890D01*
X152678Y62778D01*
X152487Y62668D01*
X152332Y62513D01*
X152222Y62322D01*
X152165Y62110D01*
Y62100D01*
X152900D01*
Y62835D01*
D02*
G37*
G36*
X140110D02*
X140100D01*
Y62100D01*
X140835D01*
Y62110D01*
X140778Y62322D01*
X140668Y62513D01*
X140513Y62668D01*
X140322Y62778D01*
X140110Y62835D01*
D02*
G37*
G36*
X139900D02*
X139890D01*
X139678Y62778D01*
X139487Y62668D01*
X139332Y62513D01*
X139222Y62322D01*
X139165Y62110D01*
Y62100D01*
X139900D01*
Y62835D01*
D02*
G37*
G36*
X127110D02*
X127100D01*
Y62100D01*
X127835D01*
Y62110D01*
X127778Y62322D01*
X127668Y62513D01*
X127513Y62668D01*
X127322Y62778D01*
X127110Y62835D01*
D02*
G37*
G36*
X126900D02*
X126890D01*
X126678Y62778D01*
X126487Y62668D01*
X126332Y62513D01*
X126222Y62322D01*
X126165Y62110D01*
Y62100D01*
X126900D01*
Y62835D01*
D02*
G37*
G36*
X101110D02*
X101100D01*
Y62100D01*
X101835D01*
Y62110D01*
X101778Y62322D01*
X101668Y62513D01*
X101513Y62668D01*
X101322Y62778D01*
X101110Y62835D01*
D02*
G37*
G36*
X100900D02*
X100890D01*
X100678Y62778D01*
X100487Y62668D01*
X100332Y62513D01*
X100222Y62322D01*
X100165Y62110D01*
Y62100D01*
X100900D01*
Y62835D01*
D02*
G37*
G36*
X75110D02*
X75100D01*
Y62100D01*
X75835D01*
Y62110D01*
X75778Y62322D01*
X75668Y62513D01*
X75513Y62668D01*
X75322Y62778D01*
X75110Y62835D01*
D02*
G37*
G36*
X74900D02*
X74890D01*
X74678Y62778D01*
X74487Y62668D01*
X74332Y62513D01*
X74222Y62322D01*
X74165Y62110D01*
Y62100D01*
X74900D01*
Y62835D01*
D02*
G37*
G36*
X62110D02*
X62100D01*
Y62100D01*
X62835D01*
Y62110D01*
X62778Y62322D01*
X62668Y62513D01*
X62513Y62668D01*
X62322Y62778D01*
X62110Y62835D01*
D02*
G37*
G36*
X61900D02*
X61890D01*
X61678Y62778D01*
X61487Y62668D01*
X61332Y62513D01*
X61222Y62322D01*
X61165Y62110D01*
Y62100D01*
X61900D01*
Y62835D01*
D02*
G37*
G36*
X49110D02*
X49100D01*
Y62100D01*
X49835D01*
Y62110D01*
X49778Y62322D01*
X49668Y62513D01*
X49513Y62668D01*
X49322Y62778D01*
X49110Y62835D01*
D02*
G37*
G36*
X48900D02*
X48890D01*
X48678Y62778D01*
X48487Y62668D01*
X48332Y62513D01*
X48222Y62322D01*
X48165Y62110D01*
Y62100D01*
X48900D01*
Y62835D01*
D02*
G37*
G36*
X36110D02*
X36100D01*
Y62100D01*
X36835D01*
Y62110D01*
X36778Y62322D01*
X36668Y62513D01*
X36513Y62668D01*
X36322Y62778D01*
X36110Y62835D01*
D02*
G37*
G36*
X35900D02*
X35890D01*
X35678Y62778D01*
X35487Y62668D01*
X35332Y62513D01*
X35222Y62322D01*
X35165Y62110D01*
Y62100D01*
X35900D01*
Y62835D01*
D02*
G37*
G36*
X23110D02*
X23100D01*
Y62100D01*
X23835D01*
Y62110D01*
X23778Y62322D01*
X23668Y62513D01*
X23513Y62668D01*
X23322Y62778D01*
X23110Y62835D01*
D02*
G37*
G36*
X22900D02*
X22890D01*
X22678Y62778D01*
X22487Y62668D01*
X22332Y62513D01*
X22222Y62322D01*
X22165Y62110D01*
Y62100D01*
X22900D01*
Y62835D01*
D02*
G37*
G36*
X10110D02*
X10100D01*
Y62100D01*
X10835D01*
Y62110D01*
X10778Y62322D01*
X10668Y62513D01*
X10513Y62668D01*
X10322Y62778D01*
X10110Y62835D01*
D02*
G37*
G36*
X9900D02*
X9890D01*
X9678Y62778D01*
X9487Y62668D01*
X9332Y62513D01*
X9222Y62322D01*
X9165Y62110D01*
Y62100D01*
X9900D01*
Y62835D01*
D02*
G37*
G36*
X137011Y75975D02*
X135411D01*
Y74524D01*
X133961Y73075D01*
X133900Y72983D01*
X133878Y72875D01*
X133878Y72875D01*
Y63730D01*
X133361D01*
Y62580D01*
X134961D01*
Y62873D01*
X135894D01*
X136386Y62381D01*
Y62210D01*
X136458Y62036D01*
X136592Y61902D01*
X136766Y61830D01*
X136955D01*
X137130Y61902D01*
X137263Y62036D01*
X137336Y62210D01*
Y62399D01*
X137263Y62574D01*
X137130Y62708D01*
X136955Y62780D01*
X136785D01*
X136210Y63355D01*
X136119Y63416D01*
X136011Y63437D01*
X136011Y63437D01*
X134961D01*
Y63730D01*
X134443D01*
Y72758D01*
X135810Y74125D01*
X137011D01*
Y75975D01*
D02*
G37*
G36*
X135011Y62080D02*
X134261D01*
Y61555D01*
X135011D01*
Y62080D01*
D02*
G37*
G36*
X134061D02*
X133311D01*
Y61555D01*
X134061D01*
Y62080D01*
D02*
G37*
G36*
X153835Y61900D02*
X153100D01*
Y61165D01*
X153110D01*
X153322Y61222D01*
X153513Y61332D01*
X153668Y61487D01*
X153778Y61678D01*
X153835Y61890D01*
Y61900D01*
D02*
G37*
G36*
X152900D02*
X152165D01*
Y61890D01*
X152222Y61678D01*
X152332Y61487D01*
X152487Y61332D01*
X152678Y61222D01*
X152890Y61165D01*
X152900D01*
Y61900D01*
D02*
G37*
G36*
X140835D02*
X140100D01*
Y61165D01*
X140110D01*
X140322Y61222D01*
X140513Y61332D01*
X140668Y61487D01*
X140778Y61678D01*
X140835Y61890D01*
Y61900D01*
D02*
G37*
G36*
X139900D02*
X139165D01*
Y61890D01*
X139222Y61678D01*
X139332Y61487D01*
X139487Y61332D01*
X139678Y61222D01*
X139890Y61165D01*
X139900D01*
Y61900D01*
D02*
G37*
G36*
X127835D02*
X127100D01*
Y61165D01*
X127110D01*
X127322Y61222D01*
X127513Y61332D01*
X127668Y61487D01*
X127778Y61678D01*
X127835Y61890D01*
Y61900D01*
D02*
G37*
G36*
X126900D02*
X126165D01*
Y61890D01*
X126222Y61678D01*
X126332Y61487D01*
X126487Y61332D01*
X126678Y61222D01*
X126890Y61165D01*
X126900D01*
Y61900D01*
D02*
G37*
G36*
X101835D02*
X101100D01*
Y61165D01*
X101110D01*
X101322Y61222D01*
X101513Y61332D01*
X101668Y61487D01*
X101778Y61678D01*
X101835Y61890D01*
Y61900D01*
D02*
G37*
G36*
X100900D02*
X100165D01*
Y61890D01*
X100222Y61678D01*
X100332Y61487D01*
X100487Y61332D01*
X100678Y61222D01*
X100890Y61165D01*
X100900D01*
Y61900D01*
D02*
G37*
G36*
X75835D02*
X75100D01*
Y61165D01*
X75110D01*
X75322Y61222D01*
X75513Y61332D01*
X75668Y61487D01*
X75778Y61678D01*
X75835Y61890D01*
Y61900D01*
D02*
G37*
G36*
X74900D02*
X74165D01*
Y61890D01*
X74222Y61678D01*
X74332Y61487D01*
X74487Y61332D01*
X74678Y61222D01*
X74890Y61165D01*
X74900D01*
Y61900D01*
D02*
G37*
G36*
X62835D02*
X62100D01*
Y61165D01*
X62110D01*
X62322Y61222D01*
X62513Y61332D01*
X62668Y61487D01*
X62778Y61678D01*
X62835Y61890D01*
Y61900D01*
D02*
G37*
G36*
X61900D02*
X61165D01*
Y61890D01*
X61222Y61678D01*
X61332Y61487D01*
X61487Y61332D01*
X61678Y61222D01*
X61890Y61165D01*
X61900D01*
Y61900D01*
D02*
G37*
G36*
X49835D02*
X49100D01*
Y61165D01*
X49110D01*
X49322Y61222D01*
X49513Y61332D01*
X49668Y61487D01*
X49778Y61678D01*
X49835Y61890D01*
Y61900D01*
D02*
G37*
G36*
X48900D02*
X48165D01*
Y61890D01*
X48222Y61678D01*
X48332Y61487D01*
X48487Y61332D01*
X48678Y61222D01*
X48890Y61165D01*
X48900D01*
Y61900D01*
D02*
G37*
G36*
X36835D02*
X36100D01*
Y61165D01*
X36110D01*
X36322Y61222D01*
X36513Y61332D01*
X36668Y61487D01*
X36778Y61678D01*
X36835Y61890D01*
Y61900D01*
D02*
G37*
G36*
X35900D02*
X35165D01*
Y61890D01*
X35222Y61678D01*
X35332Y61487D01*
X35487Y61332D01*
X35678Y61222D01*
X35890Y61165D01*
X35900D01*
Y61900D01*
D02*
G37*
G36*
X23835D02*
X23100D01*
Y61165D01*
X23110D01*
X23322Y61222D01*
X23513Y61332D01*
X23668Y61487D01*
X23778Y61678D01*
X23835Y61890D01*
Y61900D01*
D02*
G37*
G36*
X22900D02*
X22165D01*
Y61890D01*
X22222Y61678D01*
X22332Y61487D01*
X22487Y61332D01*
X22678Y61222D01*
X22890Y61165D01*
X22900D01*
Y61900D01*
D02*
G37*
G36*
X10835D02*
X10100D01*
Y61165D01*
X10110D01*
X10322Y61222D01*
X10513Y61332D01*
X10668Y61487D01*
X10778Y61678D01*
X10835Y61890D01*
Y61900D01*
D02*
G37*
G36*
X9900D02*
X9165D01*
Y61890D01*
X9222Y61678D01*
X9332Y61487D01*
X9487Y61332D01*
X9678Y61222D01*
X9890Y61165D01*
X9900D01*
Y61900D01*
D02*
G37*
G36*
X134061Y61355D02*
X133311D01*
Y60957D01*
X133311Y60839D01*
X133186Y60835D01*
X133184Y60835D01*
X133064Y60835D01*
X133064Y60835D01*
X133062Y60835D01*
X132661D01*
Y60085D01*
X133186D01*
Y60708D01*
X133186Y60826D01*
X133311Y60830D01*
X133312Y60830D01*
X133433Y60830D01*
X133433Y60830D01*
X133434Y60830D01*
X134061D01*
Y61355D01*
D02*
G37*
G36*
X135011D02*
X134261D01*
Y60830D01*
X135011D01*
Y61355D01*
D02*
G37*
G36*
X148141Y65745D02*
X146541D01*
Y64294D01*
X142513Y60267D01*
X140180D01*
X140180Y60267D01*
X140180Y60267D01*
X138690D01*
X138690Y60267D01*
X138175D01*
Y60785D01*
X137025D01*
Y59185D01*
X138175D01*
Y59702D01*
X138690D01*
X138690Y59702D01*
X139897D01*
Y58884D01*
X139777Y58764D01*
X139705Y58589D01*
Y58401D01*
X139777Y58226D01*
X139911Y58092D01*
X140085Y58020D01*
X140274D01*
X140449Y58092D01*
X140582Y58226D01*
X140655Y58401D01*
Y58589D01*
X140582Y58764D01*
X140462Y58884D01*
Y59702D01*
X142630D01*
X142630Y59702D01*
X142738Y59724D01*
X142830Y59785D01*
X146940Y63895D01*
X148141D01*
Y65745D01*
D02*
G37*
G36*
X136525Y60835D02*
X136000D01*
Y60085D01*
X136525D01*
Y60835D01*
D02*
G37*
G36*
X135800D02*
X135275D01*
Y60085D01*
X135800D01*
Y60835D01*
D02*
G37*
G36*
X132461D02*
X131936D01*
Y60085D01*
X132461D01*
Y60835D01*
D02*
G37*
G36*
X114459Y61415D02*
X114222D01*
X113993Y61354D01*
X113788Y61235D01*
X113620Y61068D01*
X113502Y60862D01*
X113441Y60633D01*
Y60396D01*
X113502Y60168D01*
X113620Y59962D01*
X113788Y59795D01*
X113993Y59676D01*
X114222Y59615D01*
X114459D01*
X114688Y59676D01*
X114893Y59795D01*
X115061Y59962D01*
X115179Y60168D01*
X115241Y60396D01*
Y60633D01*
X115179Y60862D01*
X115061Y61068D01*
X114893Y61235D01*
X114688Y61354D01*
X114459Y61415D01*
D02*
G37*
G36*
X38249D02*
X38012D01*
X37783Y61354D01*
X37578Y61235D01*
X37410Y61068D01*
X37292Y60862D01*
X37231Y60633D01*
Y60396D01*
X37292Y60168D01*
X37410Y59962D01*
X37578Y59795D01*
X37783Y59676D01*
X38012Y59615D01*
X38249D01*
X38478Y59676D01*
X38683Y59795D01*
X38851Y59962D01*
X38969Y60168D01*
X39031Y60396D01*
Y60633D01*
X38969Y60862D01*
X38851Y61068D01*
X38683Y61235D01*
X38478Y61354D01*
X38249Y61415D01*
D02*
G37*
G36*
X136525Y59885D02*
X136000D01*
Y59135D01*
X136525D01*
Y59885D01*
D02*
G37*
G36*
X135800D02*
X135275D01*
Y59135D01*
X135800D01*
Y59885D01*
D02*
G37*
G36*
X133186Y59885D02*
X132661D01*
Y59135D01*
X133186D01*
Y59885D01*
D02*
G37*
G36*
X132461D02*
X131936D01*
Y59135D01*
X132461D01*
Y59885D01*
D02*
G37*
G36*
X135011Y59120D02*
X134261D01*
Y58595D01*
X135011D01*
Y59120D01*
D02*
G37*
G36*
X134061D02*
X133311D01*
Y58595D01*
X134061D01*
Y59120D01*
D02*
G37*
G36*
X135011Y58395D02*
X134261D01*
Y57870D01*
X135011D01*
Y58395D01*
D02*
G37*
G36*
X134061D02*
X133311D01*
Y57870D01*
X134061D01*
Y58395D01*
D02*
G37*
G36*
X114459Y58875D02*
X114222D01*
X113993Y58814D01*
X113788Y58695D01*
X113620Y58528D01*
X113502Y58322D01*
X113441Y58093D01*
Y57856D01*
X113502Y57628D01*
X113620Y57422D01*
X113788Y57255D01*
X113993Y57136D01*
X114222Y57075D01*
X114459D01*
X114688Y57136D01*
X114893Y57255D01*
X115061Y57422D01*
X115179Y57628D01*
X115241Y57856D01*
Y58093D01*
X115179Y58322D01*
X115061Y58528D01*
X114893Y58695D01*
X114688Y58814D01*
X114459Y58875D01*
D02*
G37*
G36*
X38249D02*
X38012D01*
X37783Y58814D01*
X37578Y58695D01*
X37410Y58528D01*
X37292Y58322D01*
X37231Y58093D01*
Y57856D01*
X37292Y57628D01*
X37410Y57422D01*
X37578Y57255D01*
X37783Y57136D01*
X38012Y57075D01*
X38249D01*
X38478Y57136D01*
X38683Y57255D01*
X38851Y57422D01*
X38969Y57628D01*
X39031Y57856D01*
Y58093D01*
X38969Y58322D01*
X38851Y58528D01*
X38683Y58695D01*
X38478Y58814D01*
X38249Y58875D01*
D02*
G37*
G36*
X126941Y65745D02*
X125341D01*
Y63895D01*
X126776D01*
X130286Y60385D01*
Y59584D01*
X127058Y56356D01*
X126941Y56405D01*
Y57795D01*
X125341D01*
Y55945D01*
X126481D01*
X126529Y55828D01*
X124755Y54053D01*
X124594Y54120D01*
X124406D01*
X124231Y54048D01*
X124097Y53914D01*
X124025Y53739D01*
Y53550D01*
X124097Y53376D01*
X124231Y53242D01*
X124406Y53170D01*
X124594D01*
X124769Y53242D01*
X124903Y53376D01*
X124940Y53467D01*
X125021Y53521D01*
X130685Y59185D01*
X131436D01*
Y60785D01*
X130685D01*
X127035Y64435D01*
X126943Y64496D01*
X126941Y64497D01*
Y65745D01*
D02*
G37*
G36*
X148141Y57795D02*
X146541D01*
Y55945D01*
X148141D01*
Y57795D01*
D02*
G37*
G36*
X114459Y56335D02*
X114222D01*
X113993Y56274D01*
X113788Y56155D01*
X113620Y55988D01*
X113502Y55782D01*
X113441Y55553D01*
Y55317D01*
X113502Y55088D01*
X113620Y54882D01*
X113788Y54715D01*
X113993Y54596D01*
X114222Y54535D01*
X114459D01*
X114688Y54596D01*
X114893Y54715D01*
X115061Y54882D01*
X115179Y55088D01*
X115241Y55317D01*
Y55553D01*
X115179Y55782D01*
X115061Y55988D01*
X114893Y56155D01*
X114688Y56274D01*
X114459Y56335D01*
D02*
G37*
G36*
X38249D02*
X38012D01*
X37783Y56274D01*
X37578Y56155D01*
X37410Y55988D01*
X37292Y55782D01*
X37231Y55553D01*
Y55317D01*
X37292Y55088D01*
X37410Y54882D01*
X37578Y54715D01*
X37783Y54596D01*
X38012Y54535D01*
X38249D01*
X38478Y54596D01*
X38683Y54715D01*
X38851Y54882D01*
X38969Y55088D01*
X39031Y55317D01*
Y55553D01*
X38969Y55782D01*
X38851Y55988D01*
X38683Y56155D01*
X38478Y56274D01*
X38249Y56335D01*
D02*
G37*
G36*
X132511Y54775D02*
X130911D01*
Y52925D01*
X132511D01*
Y54775D01*
D02*
G37*
G36*
X38249Y53795D02*
X38012D01*
X37783Y53734D01*
X37578Y53615D01*
X37410Y53448D01*
X37292Y53242D01*
X37231Y53013D01*
Y52777D01*
X37292Y52548D01*
X37410Y52342D01*
X37578Y52175D01*
X37783Y52056D01*
X38012Y51995D01*
X38249D01*
X38478Y52056D01*
X38683Y52175D01*
X38851Y52342D01*
X38969Y52548D01*
X39031Y52777D01*
Y53013D01*
X38969Y53242D01*
X38851Y53448D01*
X38683Y53615D01*
X38478Y53734D01*
X38249Y53795D01*
D02*
G37*
G36*
X134961Y57370D02*
X133361D01*
Y56220D01*
X133878D01*
Y55900D01*
X133878Y55900D01*
X133900Y55792D01*
X133961Y55700D01*
X135411Y54251D01*
Y53324D01*
X133417Y51330D01*
X133344Y51360D01*
X133156D01*
X132981Y51288D01*
X132847Y51154D01*
X132775Y50980D01*
Y50791D01*
X132847Y50616D01*
X132981Y50483D01*
X133156Y50410D01*
X133344D01*
X133519Y50483D01*
X133653Y50616D01*
X133725Y50791D01*
Y50840D01*
X135810Y52925D01*
X137011D01*
Y54775D01*
X135685D01*
X134443Y56017D01*
Y56220D01*
X134961D01*
Y57370D01*
D02*
G37*
G36*
X114459Y51255D02*
X114222D01*
X113993Y51194D01*
X113788Y51075D01*
X113620Y50908D01*
X113502Y50702D01*
X113441Y50473D01*
Y50236D01*
X113502Y50008D01*
X113620Y49802D01*
X113788Y49635D01*
X113993Y49516D01*
X114222Y49455D01*
X114459D01*
X114688Y49516D01*
X114893Y49635D01*
X115061Y49802D01*
X115179Y50008D01*
X115241Y50236D01*
Y50473D01*
X115179Y50702D01*
X115061Y50908D01*
X114893Y51075D01*
X114688Y51194D01*
X114459Y51255D01*
D02*
G37*
G36*
X38249D02*
X38012D01*
X37783Y51194D01*
X37578Y51075D01*
X37410Y50908D01*
X37292Y50702D01*
X37231Y50473D01*
Y50236D01*
X37292Y50008D01*
X37410Y49802D01*
X37578Y49635D01*
X37783Y49516D01*
X38012Y49455D01*
X38249D01*
X38478Y49516D01*
X38683Y49635D01*
X38851Y49802D01*
X38969Y50008D01*
X39031Y50236D01*
Y50473D01*
X38969Y50702D01*
X38851Y50908D01*
X38683Y51075D01*
X38478Y51194D01*
X38249Y51255D01*
D02*
G37*
G36*
X159610Y49835D02*
X159600D01*
Y49100D01*
X160335D01*
Y49110D01*
X160278Y49322D01*
X160168Y49513D01*
X160013Y49668D01*
X159822Y49778D01*
X159610Y49835D01*
D02*
G37*
G36*
X159400D02*
X159390D01*
X159178Y49778D01*
X158987Y49668D01*
X158832Y49513D01*
X158722Y49322D01*
X158665Y49110D01*
Y49100D01*
X159400D01*
Y49835D01*
D02*
G37*
G36*
X107610D02*
X107600D01*
Y49100D01*
X108335D01*
Y49110D01*
X108278Y49322D01*
X108168Y49513D01*
X108013Y49668D01*
X107822Y49778D01*
X107610Y49835D01*
D02*
G37*
G36*
X107400D02*
X107390D01*
X107178Y49778D01*
X106987Y49668D01*
X106832Y49513D01*
X106722Y49322D01*
X106665Y49110D01*
Y49100D01*
X107400D01*
Y49835D01*
D02*
G37*
G36*
X81610D02*
X81600D01*
Y49100D01*
X82335D01*
Y49110D01*
X82278Y49322D01*
X82168Y49513D01*
X82013Y49668D01*
X81822Y49778D01*
X81610Y49835D01*
D02*
G37*
G36*
X81400D02*
X81390D01*
X81178Y49778D01*
X80987Y49668D01*
X80832Y49513D01*
X80722Y49322D01*
X80665Y49110D01*
Y49100D01*
X81400D01*
Y49835D01*
D02*
G37*
G36*
X68610D02*
X68600D01*
Y49100D01*
X69335D01*
Y49110D01*
X69278Y49322D01*
X69168Y49513D01*
X69013Y49668D01*
X68822Y49778D01*
X68610Y49835D01*
D02*
G37*
G36*
X68400D02*
X68390D01*
X68178Y49778D01*
X67987Y49668D01*
X67832Y49513D01*
X67722Y49322D01*
X67665Y49110D01*
Y49100D01*
X68400D01*
Y49835D01*
D02*
G37*
G36*
X55610D02*
X55600D01*
Y49100D01*
X56335D01*
Y49110D01*
X56278Y49322D01*
X56168Y49513D01*
X56013Y49668D01*
X55822Y49778D01*
X55610Y49835D01*
D02*
G37*
G36*
X55400D02*
X55390D01*
X55178Y49778D01*
X54987Y49668D01*
X54832Y49513D01*
X54722Y49322D01*
X54665Y49110D01*
Y49100D01*
X55400D01*
Y49835D01*
D02*
G37*
G36*
X42610D02*
X42600D01*
Y49100D01*
X43335D01*
Y49110D01*
X43278Y49322D01*
X43168Y49513D01*
X43013Y49668D01*
X42822Y49778D01*
X42610Y49835D01*
D02*
G37*
G36*
X42400D02*
X42390D01*
X42178Y49778D01*
X41987Y49668D01*
X41832Y49513D01*
X41722Y49322D01*
X41665Y49110D01*
Y49100D01*
X42400D01*
Y49835D01*
D02*
G37*
G36*
X29610D02*
X29600D01*
Y49100D01*
X30335D01*
Y49110D01*
X30278Y49322D01*
X30168Y49513D01*
X30013Y49668D01*
X29822Y49778D01*
X29610Y49835D01*
D02*
G37*
G36*
X29400D02*
X29390D01*
X29178Y49778D01*
X28987Y49668D01*
X28832Y49513D01*
X28722Y49322D01*
X28665Y49110D01*
Y49100D01*
X29400D01*
Y49835D01*
D02*
G37*
G36*
X16610D02*
X16600D01*
Y49100D01*
X17335D01*
Y49110D01*
X17278Y49322D01*
X17168Y49513D01*
X17013Y49668D01*
X16822Y49778D01*
X16610Y49835D01*
D02*
G37*
G36*
X16400D02*
X16390D01*
X16178Y49778D01*
X15987Y49668D01*
X15832Y49513D01*
X15722Y49322D01*
X15665Y49110D01*
Y49100D01*
X16400D01*
Y49835D01*
D02*
G37*
G36*
X160335Y48900D02*
X159600D01*
Y48165D01*
X159610D01*
X159822Y48222D01*
X160013Y48332D01*
X160168Y48487D01*
X160278Y48678D01*
X160335Y48890D01*
Y48900D01*
D02*
G37*
G36*
X159400D02*
X158665D01*
Y48890D01*
X158722Y48678D01*
X158832Y48487D01*
X158987Y48332D01*
X159178Y48222D01*
X159390Y48165D01*
X159400D01*
Y48900D01*
D02*
G37*
G36*
X108335D02*
X107600D01*
Y48165D01*
X107610D01*
X107822Y48222D01*
X108013Y48332D01*
X108168Y48487D01*
X108278Y48678D01*
X108335Y48890D01*
Y48900D01*
D02*
G37*
G36*
X107400D02*
X106665D01*
Y48890D01*
X106722Y48678D01*
X106832Y48487D01*
X106987Y48332D01*
X107178Y48222D01*
X107390Y48165D01*
X107400D01*
Y48900D01*
D02*
G37*
G36*
X82335D02*
X81600D01*
Y48165D01*
X81610D01*
X81822Y48222D01*
X82013Y48332D01*
X82168Y48487D01*
X82278Y48678D01*
X82335Y48890D01*
Y48900D01*
D02*
G37*
G36*
X81400D02*
X80665D01*
Y48890D01*
X80722Y48678D01*
X80832Y48487D01*
X80987Y48332D01*
X81178Y48222D01*
X81390Y48165D01*
X81400D01*
Y48900D01*
D02*
G37*
G36*
X69335D02*
X68600D01*
Y48165D01*
X68610D01*
X68822Y48222D01*
X69013Y48332D01*
X69168Y48487D01*
X69278Y48678D01*
X69335Y48890D01*
Y48900D01*
D02*
G37*
G36*
X68400D02*
X67665D01*
Y48890D01*
X67722Y48678D01*
X67832Y48487D01*
X67987Y48332D01*
X68178Y48222D01*
X68390Y48165D01*
X68400D01*
Y48900D01*
D02*
G37*
G36*
X56335D02*
X55600D01*
Y48165D01*
X55610D01*
X55822Y48222D01*
X56013Y48332D01*
X56168Y48487D01*
X56278Y48678D01*
X56335Y48890D01*
Y48900D01*
D02*
G37*
G36*
X55400D02*
X54665D01*
Y48890D01*
X54722Y48678D01*
X54832Y48487D01*
X54987Y48332D01*
X55178Y48222D01*
X55390Y48165D01*
X55400D01*
Y48900D01*
D02*
G37*
G36*
X43335D02*
X42600D01*
Y48165D01*
X42610D01*
X42822Y48222D01*
X43013Y48332D01*
X43168Y48487D01*
X43278Y48678D01*
X43335Y48890D01*
Y48900D01*
D02*
G37*
G36*
X42400D02*
X41665D01*
Y48890D01*
X41722Y48678D01*
X41832Y48487D01*
X41987Y48332D01*
X42178Y48222D01*
X42390Y48165D01*
X42400D01*
Y48900D01*
D02*
G37*
G36*
X30335D02*
X29600D01*
Y48165D01*
X29610D01*
X29822Y48222D01*
X30013Y48332D01*
X30168Y48487D01*
X30278Y48678D01*
X30335Y48890D01*
Y48900D01*
D02*
G37*
G36*
X29400D02*
X28665D01*
Y48890D01*
X28722Y48678D01*
X28832Y48487D01*
X28987Y48332D01*
X29178Y48222D01*
X29390Y48165D01*
X29400D01*
Y48900D01*
D02*
G37*
G36*
X17335D02*
X16600D01*
Y48165D01*
X16610D01*
X16822Y48222D01*
X17013Y48332D01*
X17168Y48487D01*
X17278Y48678D01*
X17335Y48890D01*
Y48900D01*
D02*
G37*
G36*
X16400D02*
X15665D01*
Y48890D01*
X15722Y48678D01*
X15832Y48487D01*
X15987Y48332D01*
X16178Y48222D01*
X16390Y48165D01*
X16400D01*
Y48900D01*
D02*
G37*
G36*
X38249Y48715D02*
X38012D01*
X37783Y48654D01*
X37578Y48535D01*
X37410Y48368D01*
X37292Y48162D01*
X37231Y47933D01*
Y47696D01*
X37292Y47468D01*
X37410Y47262D01*
X37578Y47095D01*
X37783Y46976D01*
X38012Y46915D01*
X38249D01*
X38478Y46976D01*
X38683Y47095D01*
X38851Y47262D01*
X38969Y47468D01*
X39031Y47696D01*
Y47933D01*
X38969Y48162D01*
X38851Y48368D01*
X38683Y48535D01*
X38478Y48654D01*
X38249Y48715D01*
D02*
G37*
G36*
X114459Y53795D02*
X114222D01*
X113993Y53734D01*
X113788Y53615D01*
X113620Y53448D01*
X113502Y53242D01*
X113441Y53013D01*
Y52777D01*
X113502Y52548D01*
X113620Y52342D01*
X113788Y52175D01*
X113993Y52056D01*
X114222Y51995D01*
X114459D01*
X114688Y52056D01*
X114893Y52175D01*
X115061Y52342D01*
X115179Y52548D01*
X115197Y52613D01*
X117648D01*
X122900Y47360D01*
Y47190D01*
X122972Y47016D01*
X123106Y46882D01*
X123281Y46810D01*
X123469D01*
X123644Y46882D01*
X123778Y47016D01*
X123850Y47190D01*
Y47379D01*
X123778Y47554D01*
X123644Y47687D01*
X123469Y47760D01*
X123299D01*
X117964Y53095D01*
X117873Y53156D01*
X117765Y53177D01*
X117765Y53177D01*
X115197D01*
X115179Y53242D01*
X115061Y53448D01*
X114893Y53615D01*
X114688Y53734D01*
X114459Y53795D01*
D02*
G37*
G36*
X137011Y46825D02*
X135411D01*
Y44975D01*
X137011D01*
Y46825D01*
D02*
G37*
G36*
X38249Y46175D02*
X38012D01*
X37783Y46114D01*
X37578Y45995D01*
X37410Y45828D01*
X37292Y45622D01*
X37231Y45393D01*
Y45157D01*
X37292Y44928D01*
X37410Y44722D01*
X37578Y44555D01*
X37783Y44436D01*
X38012Y44375D01*
X38249D01*
X38478Y44436D01*
X38683Y44555D01*
X38851Y44722D01*
X38969Y44928D01*
X39031Y45157D01*
Y45393D01*
X38969Y45622D01*
X38851Y45828D01*
X38683Y45995D01*
X38478Y46114D01*
X38249Y46175D01*
D02*
G37*
G36*
X128775Y42650D02*
X128075D01*
Y41850D01*
X128775D01*
Y42650D01*
D02*
G37*
G36*
X38249Y43635D02*
X38012D01*
X37783Y43574D01*
X37578Y43455D01*
X37410Y43288D01*
X37292Y43082D01*
X37231Y42853D01*
Y42617D01*
X37292Y42388D01*
X37410Y42182D01*
X37578Y42015D01*
X37783Y41896D01*
X38012Y41835D01*
X38249D01*
X38478Y41896D01*
X38683Y42015D01*
X38851Y42182D01*
X38969Y42388D01*
X39031Y42617D01*
Y42853D01*
X38969Y43082D01*
X38851Y43288D01*
X38683Y43455D01*
X38478Y43574D01*
X38249Y43635D01*
D02*
G37*
G36*
X153100Y42150D02*
X152300D01*
Y41450D01*
X153100D01*
Y42150D01*
D02*
G37*
G36*
X152100D02*
X151300D01*
Y41450D01*
X152100D01*
Y42150D01*
D02*
G37*
G36*
X153100Y41250D02*
X152300D01*
Y40550D01*
X153100D01*
Y41250D01*
D02*
G37*
G36*
X152100D02*
X151300D01*
Y40550D01*
X152100D01*
Y41250D01*
D02*
G37*
G36*
X38249Y41095D02*
X38012D01*
X37783Y41034D01*
X37578Y40915D01*
X37410Y40748D01*
X37292Y40542D01*
X37231Y40313D01*
Y40076D01*
X37292Y39848D01*
X37410Y39642D01*
X37578Y39475D01*
X37783Y39356D01*
X38012Y39295D01*
X38249D01*
X38478Y39356D01*
X38683Y39475D01*
X38851Y39642D01*
X38969Y39848D01*
X39031Y40076D01*
Y40313D01*
X38969Y40542D01*
X38851Y40748D01*
X38683Y40915D01*
X38478Y41034D01*
X38249Y41095D01*
D02*
G37*
G36*
X142200Y38825D02*
X141500D01*
Y38025D01*
X142200D01*
Y38825D01*
D02*
G37*
G36*
X141300D02*
X140600D01*
Y38025D01*
X141300D01*
Y38825D01*
D02*
G37*
G36*
X142200Y37825D02*
X141500D01*
Y37025D01*
X142200D01*
Y37825D01*
D02*
G37*
G36*
X141300D02*
X140600D01*
Y37025D01*
X141300D01*
Y37825D01*
D02*
G37*
G36*
X114459Y38555D02*
X114222D01*
X113993Y38494D01*
X113788Y38375D01*
X113620Y38208D01*
X113502Y38002D01*
X113441Y37773D01*
Y37536D01*
X113502Y37308D01*
X113620Y37102D01*
X113788Y36935D01*
X113993Y36816D01*
X114222Y36755D01*
X114459D01*
X114688Y36816D01*
X114893Y36935D01*
X115061Y37102D01*
X115179Y37308D01*
X115241Y37536D01*
Y37773D01*
X115179Y38002D01*
X115061Y38208D01*
X114893Y38375D01*
X114688Y38494D01*
X114459Y38555D01*
D02*
G37*
G36*
X38249D02*
X38012D01*
X37783Y38494D01*
X37578Y38375D01*
X37410Y38208D01*
X37292Y38002D01*
X37231Y37773D01*
Y37536D01*
X37292Y37308D01*
X37410Y37102D01*
X37578Y36935D01*
X37783Y36816D01*
X38012Y36755D01*
X38249D01*
X38478Y36816D01*
X38683Y36935D01*
X38851Y37102D01*
X38969Y37308D01*
X39031Y37536D01*
Y37773D01*
X38969Y38002D01*
X38851Y38208D01*
X38683Y38375D01*
X38478Y38494D01*
X38249Y38555D01*
D02*
G37*
G36*
X153110Y36835D02*
X153100D01*
Y36100D01*
X153835D01*
Y36110D01*
X153778Y36322D01*
X153668Y36513D01*
X153513Y36668D01*
X153322Y36778D01*
X153110Y36835D01*
D02*
G37*
G36*
X152900D02*
X152890D01*
X152678Y36778D01*
X152487Y36668D01*
X152332Y36513D01*
X152222Y36322D01*
X152165Y36110D01*
Y36100D01*
X152900D01*
Y36835D01*
D02*
G37*
G36*
X127110D02*
X127100D01*
Y36100D01*
X127835D01*
Y36110D01*
X127778Y36322D01*
X127668Y36513D01*
X127513Y36668D01*
X127322Y36778D01*
X127110Y36835D01*
D02*
G37*
G36*
X126900D02*
X126890D01*
X126678Y36778D01*
X126487Y36668D01*
X126332Y36513D01*
X126222Y36322D01*
X126165Y36110D01*
Y36100D01*
X126900D01*
Y36835D01*
D02*
G37*
G36*
X101110D02*
X101100D01*
Y36100D01*
X101835D01*
Y36110D01*
X101778Y36322D01*
X101668Y36513D01*
X101513Y36668D01*
X101322Y36778D01*
X101110Y36835D01*
D02*
G37*
G36*
X100900D02*
X100890D01*
X100678Y36778D01*
X100487Y36668D01*
X100332Y36513D01*
X100222Y36322D01*
X100165Y36110D01*
Y36100D01*
X100900D01*
Y36835D01*
D02*
G37*
G36*
X88110D02*
X88100D01*
Y36100D01*
X88835D01*
Y36110D01*
X88778Y36322D01*
X88668Y36513D01*
X88513Y36668D01*
X88322Y36778D01*
X88110Y36835D01*
D02*
G37*
G36*
X87900D02*
X87890D01*
X87678Y36778D01*
X87487Y36668D01*
X87332Y36513D01*
X87222Y36322D01*
X87165Y36110D01*
Y36100D01*
X87900D01*
Y36835D01*
D02*
G37*
G36*
X75110D02*
X75100D01*
Y36100D01*
X75835D01*
Y36110D01*
X75778Y36322D01*
X75668Y36513D01*
X75513Y36668D01*
X75322Y36778D01*
X75110Y36835D01*
D02*
G37*
G36*
X74900D02*
X74890D01*
X74678Y36778D01*
X74487Y36668D01*
X74332Y36513D01*
X74222Y36322D01*
X74165Y36110D01*
Y36100D01*
X74900D01*
Y36835D01*
D02*
G37*
G36*
X62110D02*
X62100D01*
Y36100D01*
X62835D01*
Y36110D01*
X62778Y36322D01*
X62668Y36513D01*
X62513Y36668D01*
X62322Y36778D01*
X62110Y36835D01*
D02*
G37*
G36*
X61900D02*
X61890D01*
X61678Y36778D01*
X61487Y36668D01*
X61332Y36513D01*
X61222Y36322D01*
X61165Y36110D01*
Y36100D01*
X61900D01*
Y36835D01*
D02*
G37*
G36*
X49110D02*
X49100D01*
Y36100D01*
X49835D01*
Y36110D01*
X49778Y36322D01*
X49668Y36513D01*
X49513Y36668D01*
X49322Y36778D01*
X49110Y36835D01*
D02*
G37*
G36*
X48900D02*
X48890D01*
X48678Y36778D01*
X48487Y36668D01*
X48332Y36513D01*
X48222Y36322D01*
X48165Y36110D01*
Y36100D01*
X48900D01*
Y36835D01*
D02*
G37*
G36*
X36110D02*
X36100D01*
Y36100D01*
X36835D01*
Y36110D01*
X36778Y36322D01*
X36668Y36513D01*
X36513Y36668D01*
X36322Y36778D01*
X36110Y36835D01*
D02*
G37*
G36*
X35900D02*
X35890D01*
X35678Y36778D01*
X35487Y36668D01*
X35332Y36513D01*
X35222Y36322D01*
X35165Y36110D01*
Y36100D01*
X35900D01*
Y36835D01*
D02*
G37*
G36*
X23110D02*
X23100D01*
Y36100D01*
X23835D01*
Y36110D01*
X23778Y36322D01*
X23668Y36513D01*
X23513Y36668D01*
X23322Y36778D01*
X23110Y36835D01*
D02*
G37*
G36*
X22900D02*
X22890D01*
X22678Y36778D01*
X22487Y36668D01*
X22332Y36513D01*
X22222Y36322D01*
X22165Y36110D01*
Y36100D01*
X22900D01*
Y36835D01*
D02*
G37*
G36*
X10110D02*
X10100D01*
Y36100D01*
X10835D01*
Y36110D01*
X10778Y36322D01*
X10668Y36513D01*
X10513Y36668D01*
X10322Y36778D01*
X10110Y36835D01*
D02*
G37*
G36*
X9900D02*
X9890D01*
X9678Y36778D01*
X9487Y36668D01*
X9332Y36513D01*
X9222Y36322D01*
X9165Y36110D01*
Y36100D01*
X9900D01*
Y36835D01*
D02*
G37*
G36*
X142200Y36569D02*
X141500D01*
Y35769D01*
X142200D01*
Y36569D01*
D02*
G37*
G36*
X141300D02*
X140600D01*
Y35769D01*
X141300D01*
Y36569D01*
D02*
G37*
G36*
X153835Y35900D02*
X153100D01*
Y35165D01*
X153110D01*
X153322Y35222D01*
X153513Y35332D01*
X153668Y35487D01*
X153778Y35678D01*
X153835Y35890D01*
Y35900D01*
D02*
G37*
G36*
X152900D02*
X152165D01*
Y35890D01*
X152222Y35678D01*
X152332Y35487D01*
X152487Y35332D01*
X152678Y35222D01*
X152890Y35165D01*
X152900D01*
Y35900D01*
D02*
G37*
G36*
X127835D02*
X127100D01*
Y35165D01*
X127110D01*
X127322Y35222D01*
X127513Y35332D01*
X127668Y35487D01*
X127778Y35678D01*
X127835Y35890D01*
Y35900D01*
D02*
G37*
G36*
X126900D02*
X126165D01*
Y35890D01*
X126222Y35678D01*
X126332Y35487D01*
X126487Y35332D01*
X126678Y35222D01*
X126890Y35165D01*
X126900D01*
Y35900D01*
D02*
G37*
G36*
X101835D02*
X101100D01*
Y35165D01*
X101110D01*
X101322Y35222D01*
X101513Y35332D01*
X101668Y35487D01*
X101778Y35678D01*
X101835Y35890D01*
Y35900D01*
D02*
G37*
G36*
X100900D02*
X100165D01*
Y35890D01*
X100222Y35678D01*
X100332Y35487D01*
X100487Y35332D01*
X100678Y35222D01*
X100890Y35165D01*
X100900D01*
Y35900D01*
D02*
G37*
G36*
X88835D02*
X88100D01*
Y35165D01*
X88110D01*
X88322Y35222D01*
X88513Y35332D01*
X88668Y35487D01*
X88778Y35678D01*
X88835Y35890D01*
Y35900D01*
D02*
G37*
G36*
X87900D02*
X87165D01*
Y35890D01*
X87222Y35678D01*
X87332Y35487D01*
X87487Y35332D01*
X87678Y35222D01*
X87890Y35165D01*
X87900D01*
Y35900D01*
D02*
G37*
G36*
X75835D02*
X75100D01*
Y35165D01*
X75110D01*
X75322Y35222D01*
X75513Y35332D01*
X75668Y35487D01*
X75778Y35678D01*
X75835Y35890D01*
Y35900D01*
D02*
G37*
G36*
X74900D02*
X74165D01*
Y35890D01*
X74222Y35678D01*
X74332Y35487D01*
X74487Y35332D01*
X74678Y35222D01*
X74890Y35165D01*
X74900D01*
Y35900D01*
D02*
G37*
G36*
X62835D02*
X62100D01*
Y35165D01*
X62110D01*
X62322Y35222D01*
X62513Y35332D01*
X62668Y35487D01*
X62778Y35678D01*
X62835Y35890D01*
Y35900D01*
D02*
G37*
G36*
X61900D02*
X61165D01*
Y35890D01*
X61222Y35678D01*
X61332Y35487D01*
X61487Y35332D01*
X61678Y35222D01*
X61890Y35165D01*
X61900D01*
Y35900D01*
D02*
G37*
G36*
X49835D02*
X49100D01*
Y35165D01*
X49110D01*
X49322Y35222D01*
X49513Y35332D01*
X49668Y35487D01*
X49778Y35678D01*
X49835Y35890D01*
Y35900D01*
D02*
G37*
G36*
X48900D02*
X48165D01*
Y35890D01*
X48222Y35678D01*
X48332Y35487D01*
X48487Y35332D01*
X48678Y35222D01*
X48890Y35165D01*
X48900D01*
Y35900D01*
D02*
G37*
G36*
X36835D02*
X36100D01*
Y35165D01*
X36110D01*
X36322Y35222D01*
X36513Y35332D01*
X36668Y35487D01*
X36778Y35678D01*
X36835Y35890D01*
Y35900D01*
D02*
G37*
G36*
X35900D02*
X35165D01*
Y35890D01*
X35222Y35678D01*
X35332Y35487D01*
X35487Y35332D01*
X35678Y35222D01*
X35890Y35165D01*
X35900D01*
Y35900D01*
D02*
G37*
G36*
X23835D02*
X23100D01*
Y35165D01*
X23110D01*
X23322Y35222D01*
X23513Y35332D01*
X23668Y35487D01*
X23778Y35678D01*
X23835Y35890D01*
Y35900D01*
D02*
G37*
G36*
X22900D02*
X22165D01*
Y35890D01*
X22222Y35678D01*
X22332Y35487D01*
X22487Y35332D01*
X22678Y35222D01*
X22890Y35165D01*
X22900D01*
Y35900D01*
D02*
G37*
G36*
X10835D02*
X10100D01*
Y35165D01*
X10110D01*
X10322Y35222D01*
X10513Y35332D01*
X10668Y35487D01*
X10778Y35678D01*
X10835Y35890D01*
Y35900D01*
D02*
G37*
G36*
X9900D02*
X9165D01*
Y35890D01*
X9222Y35678D01*
X9332Y35487D01*
X9487Y35332D01*
X9678Y35222D01*
X9890Y35165D01*
X9900D01*
Y35900D01*
D02*
G37*
G36*
X117607Y38925D02*
X117418D01*
X117243Y38853D01*
X117110Y38719D01*
X117037Y38544D01*
Y38355D01*
X117110Y38181D01*
X117243Y38047D01*
X117418Y37975D01*
X117607D01*
X117781Y38047D01*
X117902Y38168D01*
X118779D01*
X121671Y35275D01*
X121671Y35275D01*
X121763Y35214D01*
X121871Y35193D01*
X121871Y35193D01*
X122003D01*
X122019Y35169D01*
X122020Y35168D01*
X122029Y35026D01*
X121959Y34957D01*
X121717D01*
X120005Y36669D01*
X119914Y36730D01*
X119806Y36752D01*
X119806Y36752D01*
X118504D01*
X118383Y36872D01*
X118209Y36944D01*
X118020D01*
X117845Y36872D01*
X117712Y36739D01*
X117639Y36564D01*
Y36375D01*
X117712Y36200D01*
X117845Y36067D01*
X118020Y35994D01*
X118209D01*
X118251Y36012D01*
X118273Y35996D01*
X118336Y35910D01*
X118276Y35764D01*
Y35575D01*
X118348Y35400D01*
X118482Y35267D01*
X118656Y35194D01*
X118845D01*
X119020Y35267D01*
X119140Y35387D01*
X119789D01*
X121501Y33675D01*
X121501Y33675D01*
X121592Y33614D01*
X121700Y33593D01*
X121700Y33593D01*
X122003D01*
X122019Y33569D01*
X122020Y33568D01*
X122029Y33426D01*
X121959Y33357D01*
X121473D01*
X120480Y34350D01*
X120389Y34411D01*
X120281Y34432D01*
X120281Y34432D01*
X119776D01*
X119656Y34553D01*
X119482Y34625D01*
X119293D01*
X119118Y34553D01*
X118984Y34419D01*
X118912Y34244D01*
Y34056D01*
X118984Y33881D01*
X119118Y33747D01*
X119293Y33675D01*
X119482D01*
X119656Y33747D01*
X119776Y33868D01*
X120164D01*
X121156Y32875D01*
X121156Y32875D01*
X121247Y32814D01*
X121356Y32793D01*
X121918D01*
X121955Y32749D01*
X121983Y32617D01*
X121905Y32501D01*
X121118D01*
X120694Y32925D01*
X120603Y32986D01*
X120494Y33007D01*
X120494Y33007D01*
X120287D01*
Y33525D01*
X119487D01*
Y32725D01*
Y31925D01*
X120287D01*
Y32354D01*
X120414Y32406D01*
X120801Y32019D01*
X120801Y32019D01*
X120893Y31957D01*
X121001Y31936D01*
X121902D01*
X121958Y31816D01*
X121955Y31801D01*
X121918Y31757D01*
X120991D01*
X120883Y31736D01*
X120791Y31675D01*
X120364Y31248D01*
X120237Y31300D01*
Y31675D01*
X118537D01*
Y30175D01*
X120237D01*
Y30643D01*
X120441D01*
X120441Y30643D01*
X120549Y30664D01*
X120640Y30725D01*
X121108Y31193D01*
X122003D01*
X122019Y31169D01*
X122020Y31168D01*
X122029Y31026D01*
X121959Y30957D01*
X121791D01*
X121683Y30936D01*
X121591Y30875D01*
X120550Y29834D01*
X120489Y29742D01*
X120468Y29634D01*
X120468Y29634D01*
Y24945D01*
X112692Y17170D01*
X112617Y17213D01*
X112375Y17278D01*
X112125D01*
X111883Y17213D01*
X111667Y17088D01*
X111490Y16911D01*
X111365Y16695D01*
X111300Y16453D01*
Y16203D01*
X111365Y15961D01*
X111490Y15745D01*
X111667Y15568D01*
X111883Y15443D01*
X112125Y15378D01*
X112375D01*
X112617Y15443D01*
X112833Y15568D01*
X113010Y15745D01*
X113135Y15961D01*
X113200Y16203D01*
Y16453D01*
X113135Y16695D01*
X113092Y16770D01*
X120950Y24628D01*
X120951Y24630D01*
X121078Y24591D01*
Y23015D01*
X112692Y14630D01*
X112617Y14673D01*
X112375Y14738D01*
X112125D01*
X111883Y14673D01*
X111667Y14548D01*
X111490Y14371D01*
X111365Y14155D01*
X111300Y13913D01*
Y13663D01*
X111365Y13421D01*
X111490Y13205D01*
X111667Y13028D01*
X111883Y12903D01*
X112125Y12838D01*
X112375D01*
X112617Y12903D01*
X112833Y13028D01*
X113010Y13205D01*
X113135Y13421D01*
X113200Y13663D01*
Y13913D01*
X113135Y14155D01*
X113092Y14230D01*
X121560Y22698D01*
X121560Y22698D01*
X121621Y22790D01*
X121643Y22898D01*
X121643Y22898D01*
Y29556D01*
X121679Y29593D01*
X122003D01*
X122019Y29569D01*
X122064Y29538D01*
Y29411D01*
X122019Y29381D01*
X121925Y29241D01*
X121892Y29075D01*
X121925Y28909D01*
X122019Y28769D01*
X122064Y28738D01*
Y28611D01*
X122019Y28581D01*
X121925Y28441D01*
X121892Y28275D01*
X121925Y28109D01*
X122019Y27969D01*
X122159Y27875D01*
X122325Y27842D01*
X123375D01*
X123541Y27875D01*
X123681Y27969D01*
X123697Y27993D01*
X125119D01*
X125119Y27993D01*
X125228Y28014D01*
X125319Y28075D01*
X127819Y30575D01*
X127989D01*
X128164Y30647D01*
X128297Y30781D01*
X128369Y30956D01*
Y31144D01*
X128297Y31319D01*
X128164Y31453D01*
X127989Y31525D01*
X127800D01*
X127625Y31453D01*
X127492Y31319D01*
X127419Y31144D01*
Y30974D01*
X125002Y28557D01*
X123697D01*
X123681Y28581D01*
X123680Y28582D01*
X123671Y28724D01*
X123741Y28793D01*
X124299D01*
X124299Y28793D01*
X124407Y28814D01*
X124498Y28875D01*
X126122Y30499D01*
X126292D01*
X126467Y30572D01*
X126601Y30705D01*
X126673Y30880D01*
Y31069D01*
X126601Y31243D01*
X126467Y31377D01*
X126292Y31449D01*
X126104D01*
X125929Y31377D01*
X125795Y31243D01*
X125723Y31069D01*
Y30899D01*
X124182Y29357D01*
X123697D01*
X123681Y29381D01*
X123636Y29411D01*
Y29538D01*
X123681Y29569D01*
X123775Y29709D01*
X123808Y29875D01*
X123775Y30041D01*
X123681Y30181D01*
X123636Y30211D01*
Y30338D01*
X123681Y30369D01*
X123775Y30509D01*
X123808Y30675D01*
X123775Y30841D01*
X123681Y30981D01*
X123636Y31011D01*
Y31138D01*
X123681Y31169D01*
X123775Y31309D01*
X123808Y31475D01*
X123775Y31641D01*
X123693Y31764D01*
X123681Y31821D01*
Y31908D01*
X123717Y31933D01*
X123822Y32090D01*
X123839Y32175D01*
X122850D01*
Y32375D01*
X123839D01*
X123822Y32460D01*
X123717Y32617D01*
X123681Y32642D01*
Y32729D01*
X123693Y32786D01*
X123775Y32909D01*
X123808Y33075D01*
X123775Y33241D01*
X123681Y33381D01*
X123636Y33411D01*
Y33538D01*
X123681Y33569D01*
X123775Y33709D01*
X123808Y33875D01*
X123775Y34041D01*
X123681Y34181D01*
X123636Y34211D01*
Y34338D01*
X123681Y34369D01*
X123775Y34509D01*
X123808Y34675D01*
X123775Y34841D01*
X123681Y34981D01*
X123636Y35011D01*
Y35138D01*
X123681Y35169D01*
X123775Y35309D01*
X123808Y35475D01*
X123775Y35641D01*
X123681Y35781D01*
X123636Y35811D01*
Y35938D01*
X123681Y35969D01*
X123775Y36109D01*
X123808Y36275D01*
X123775Y36441D01*
X123681Y36581D01*
X123541Y36675D01*
X123375Y36708D01*
X122325D01*
X122159Y36675D01*
X122019Y36581D01*
X121925Y36441D01*
X121892Y36275D01*
X121925Y36109D01*
X121993Y36007D01*
X121984Y35875D01*
X121973Y35846D01*
X121937Y35824D01*
X121905Y35840D01*
X119095Y38650D01*
X119004Y38711D01*
X118896Y38732D01*
X118896Y38732D01*
X117902D01*
X117781Y38853D01*
X117607Y38925D01*
D02*
G37*
G36*
X142200Y35569D02*
X141500D01*
Y34769D01*
X142200D01*
Y35569D01*
D02*
G37*
G36*
X114459Y36015D02*
X114222D01*
X113993Y35954D01*
X113788Y35835D01*
X113620Y35668D01*
X113502Y35462D01*
X113441Y35233D01*
Y34996D01*
X113502Y34768D01*
X113620Y34562D01*
X113788Y34395D01*
X113993Y34276D01*
X114222Y34215D01*
X114459D01*
X114688Y34276D01*
X114893Y34395D01*
X115061Y34562D01*
X115179Y34768D01*
X115241Y34996D01*
Y35233D01*
X115179Y35462D01*
X115061Y35668D01*
X114893Y35835D01*
X114688Y35954D01*
X114459Y36015D01*
D02*
G37*
G36*
X38249D02*
X38012D01*
X37783Y35954D01*
X37578Y35835D01*
X37410Y35668D01*
X37292Y35462D01*
X37231Y35233D01*
Y34996D01*
X37292Y34768D01*
X37410Y34562D01*
X37578Y34395D01*
X37783Y34276D01*
X38012Y34215D01*
X38249D01*
X38478Y34276D01*
X38683Y34395D01*
X38851Y34562D01*
X38969Y34768D01*
X39031Y34996D01*
Y35233D01*
X38969Y35462D01*
X38851Y35668D01*
X38683Y35835D01*
X38478Y35954D01*
X38249Y36015D01*
D02*
G37*
G36*
X137591Y34169D02*
Y33469D01*
X138391D01*
Y34169D01*
X137591D01*
D02*
G37*
G36*
X119287Y33525D02*
X118487D01*
Y32825D01*
X119287D01*
Y33525D01*
D02*
G37*
G36*
X138391Y33269D02*
X137591D01*
Y32569D01*
X138391D01*
Y33269D01*
D02*
G37*
G36*
X119287Y32625D02*
X118487D01*
Y31925D01*
X119287D01*
Y32625D01*
D02*
G37*
G36*
X114459Y33475D02*
X114222D01*
X113993Y33414D01*
X113788Y33295D01*
X113620Y33128D01*
X113502Y32922D01*
X113441Y32693D01*
Y32457D01*
X113502Y32228D01*
X113620Y32022D01*
X113788Y31855D01*
X113993Y31736D01*
X114222Y31675D01*
X114459D01*
X114688Y31736D01*
X114893Y31855D01*
X115061Y32022D01*
X115179Y32228D01*
X115241Y32457D01*
Y32693D01*
X115179Y32922D01*
X115061Y33128D01*
X114893Y33295D01*
X114688Y33414D01*
X114459Y33475D01*
D02*
G37*
G36*
X38249D02*
X38012D01*
X37783Y33414D01*
X37578Y33295D01*
X37410Y33128D01*
X37292Y32922D01*
X37231Y32693D01*
Y32457D01*
X37292Y32228D01*
X37410Y32022D01*
X37578Y31855D01*
X37783Y31736D01*
X38012Y31675D01*
X38249D01*
X38478Y31736D01*
X38683Y31855D01*
X38851Y32022D01*
X38969Y32228D01*
X39031Y32457D01*
Y32693D01*
X38969Y32922D01*
X38851Y33128D01*
X38683Y33295D01*
X38478Y33414D01*
X38249Y33475D01*
D02*
G37*
G36*
X152400Y31250D02*
X151600D01*
Y30250D01*
X152400D01*
Y31250D01*
D02*
G37*
G36*
X151400D02*
X150600D01*
Y30250D01*
X151400D01*
Y31250D01*
D02*
G37*
G36*
X114466Y30985D02*
X114441D01*
Y30135D01*
X115291D01*
Y30160D01*
X115226Y30402D01*
X115101Y30618D01*
X114924Y30795D01*
X114707Y30920D01*
X114466Y30985D01*
D02*
G37*
G36*
X114241D02*
X114216D01*
X113974Y30920D01*
X113757Y30795D01*
X113580Y30618D01*
X113455Y30402D01*
X113391Y30160D01*
Y30135D01*
X114241D01*
Y30985D01*
D02*
G37*
G36*
X38256D02*
X38231D01*
Y30135D01*
X39081D01*
Y30160D01*
X39016Y30402D01*
X38891Y30618D01*
X38714Y30795D01*
X38497Y30920D01*
X38256Y30985D01*
D02*
G37*
G36*
X38031D02*
X38006D01*
X37764Y30920D01*
X37547Y30795D01*
X37370Y30618D01*
X37245Y30402D01*
X37181Y30160D01*
Y30135D01*
X38031D01*
Y30985D01*
D02*
G37*
G36*
X39081Y29935D02*
X38231D01*
Y29085D01*
X38256D01*
X38497Y29150D01*
X38714Y29275D01*
X38891Y29452D01*
X39016Y29668D01*
X39081Y29910D01*
Y29935D01*
D02*
G37*
G36*
X38031D02*
X37181D01*
Y29910D01*
X37245Y29668D01*
X37370Y29452D01*
X37547Y29275D01*
X37764Y29150D01*
X38006Y29085D01*
X38031D01*
Y29935D01*
D02*
G37*
G36*
X152400Y30050D02*
X151600D01*
Y29050D01*
X152400D01*
Y30050D01*
D02*
G37*
G36*
X151400D02*
X150600D01*
Y29050D01*
X151400D01*
Y30050D01*
D02*
G37*
G36*
X66849Y83620D02*
X66651D01*
X66461Y83569D01*
X66289Y83470D01*
X66150Y83331D01*
X66051Y83160D01*
X66000Y82969D01*
Y82771D01*
X66051Y82581D01*
X66150Y82410D01*
X66289Y82270D01*
X66461Y82171D01*
X66651Y82120D01*
X66849D01*
X67039Y82171D01*
X67046Y82175D01*
X86550Y62670D01*
X86550Y62670D01*
X98718Y50503D01*
Y27912D01*
X98591Y27852D01*
X98532Y27897D01*
Y49370D01*
X98511Y49478D01*
X98450Y49570D01*
X67445Y80574D01*
X67449Y80581D01*
X67500Y80771D01*
Y80969D01*
X67449Y81160D01*
X67350Y81331D01*
X67211Y81470D01*
X67039Y81569D01*
X66849Y81620D01*
X66651D01*
X66461Y81569D01*
X66289Y81470D01*
X66150Y81331D01*
X66051Y81160D01*
X66000Y80969D01*
Y80771D01*
X66051Y80581D01*
X66150Y80410D01*
X66289Y80270D01*
X66461Y80171D01*
X66651Y80120D01*
X66849D01*
X67039Y80171D01*
X67046Y80175D01*
X97968Y49253D01*
Y27750D01*
X97968Y27750D01*
X97989Y27642D01*
X98050Y27550D01*
X99550Y26050D01*
X99550Y26050D01*
X99642Y25989D01*
X99750Y25968D01*
X118361D01*
X118482Y25847D01*
X118656Y25775D01*
X118845D01*
X119020Y25847D01*
X119153Y25981D01*
X119226Y26156D01*
Y26344D01*
X119153Y26519D01*
X119050Y26622D01*
X119031Y26700D01*
X119050Y26778D01*
X119153Y26881D01*
X119226Y27056D01*
Y27244D01*
X119153Y27419D01*
X119080Y27492D01*
X119033Y27575D01*
X119080Y27658D01*
X119153Y27731D01*
X119226Y27906D01*
Y28094D01*
X119153Y28269D01*
X119022Y28400D01*
X119153Y28531D01*
X119226Y28705D01*
Y28894D01*
X119153Y29069D01*
X119020Y29203D01*
X118845Y29275D01*
X118656D01*
X118482Y29203D01*
X118348Y29069D01*
X118340Y29050D01*
X114788D01*
X114754Y29177D01*
X114924Y29275D01*
X115101Y29452D01*
X115226Y29668D01*
X115291Y29910D01*
Y29935D01*
X114341D01*
X113391D01*
Y29910D01*
X113455Y29668D01*
X113580Y29452D01*
X113757Y29275D01*
X113927Y29177D01*
X113893Y29050D01*
X101857D01*
X101769Y29137D01*
X101594Y29209D01*
X101406D01*
X101231Y29137D01*
X101097Y29003D01*
X101025Y28829D01*
Y28640D01*
X101097Y28465D01*
X101153Y28409D01*
X101101Y28282D01*
X100139D01*
X100019Y28403D01*
X99844Y28475D01*
X99656D01*
X99481Y28403D01*
X99409Y28331D01*
X99282Y28384D01*
Y50620D01*
X99282Y50620D01*
X99261Y50728D01*
X99200Y50820D01*
X99200Y50820D01*
X86950Y63070D01*
X86950Y63070D01*
X86950Y63070D01*
X67445Y82574D01*
X67449Y82581D01*
X67500Y82771D01*
Y82969D01*
X67449Y83160D01*
X67350Y83331D01*
X67211Y83470D01*
X67039Y83569D01*
X66849Y83620D01*
D02*
G37*
G36*
X149600Y26025D02*
X148850D01*
Y25500D01*
X149600D01*
Y26025D01*
D02*
G37*
G36*
X148650D02*
X147900D01*
Y25500D01*
X148650D01*
Y26025D01*
D02*
G37*
G36*
X149600Y25300D02*
X148850D01*
Y24775D01*
X149600D01*
Y25300D01*
D02*
G37*
G36*
X148650D02*
X147900D01*
Y24775D01*
X148650D01*
Y25300D01*
D02*
G37*
G36*
X152400Y25550D02*
X151600D01*
Y24550D01*
X152400D01*
Y25550D01*
D02*
G37*
G36*
X151400D02*
X150600D01*
Y24550D01*
X151400D01*
Y25550D01*
D02*
G37*
G36*
X113200Y24898D02*
X111300D01*
Y23982D01*
X108550D01*
Y24275D01*
X106950D01*
Y23982D01*
X105900D01*
X105900Y23982D01*
X105792Y23961D01*
X105700Y23900D01*
X104701Y22900D01*
X104282D01*
Y23687D01*
X104403Y23807D01*
X104475Y23982D01*
Y24171D01*
X104403Y24345D01*
X104269Y24479D01*
X104094Y24551D01*
X103906D01*
X103731Y24479D01*
X103597Y24345D01*
X103525Y24171D01*
Y23982D01*
X103597Y23807D01*
X103718Y23687D01*
Y22900D01*
X103400D01*
Y21400D01*
X105100D01*
Y22501D01*
X106017Y23418D01*
X106950D01*
Y23125D01*
X108550D01*
Y23418D01*
X111300D01*
Y22998D01*
X113200D01*
Y24898D01*
D02*
G37*
G36*
X94610Y23835D02*
X94600D01*
Y23100D01*
X95335D01*
Y23110D01*
X95278Y23322D01*
X95168Y23513D01*
X95013Y23668D01*
X94822Y23778D01*
X94610Y23835D01*
D02*
G37*
G36*
X94400D02*
X94390D01*
X94178Y23778D01*
X93987Y23668D01*
X93832Y23513D01*
X93722Y23322D01*
X93665Y23110D01*
Y23100D01*
X94400D01*
Y23835D01*
D02*
G37*
G36*
X81610D02*
X81600D01*
Y23100D01*
X82335D01*
Y23110D01*
X82278Y23322D01*
X82168Y23513D01*
X82013Y23668D01*
X81822Y23778D01*
X81610Y23835D01*
D02*
G37*
G36*
X81400D02*
X81390D01*
X81178Y23778D01*
X80987Y23668D01*
X80832Y23513D01*
X80722Y23322D01*
X80665Y23110D01*
Y23100D01*
X81400D01*
Y23835D01*
D02*
G37*
G36*
X68610D02*
X68600D01*
Y23100D01*
X69335D01*
Y23110D01*
X69278Y23322D01*
X69168Y23513D01*
X69013Y23668D01*
X68822Y23778D01*
X68610Y23835D01*
D02*
G37*
G36*
X68400D02*
X68390D01*
X68178Y23778D01*
X67987Y23668D01*
X67832Y23513D01*
X67722Y23322D01*
X67665Y23110D01*
Y23100D01*
X68400D01*
Y23835D01*
D02*
G37*
G36*
X55610D02*
X55600D01*
Y23100D01*
X56335D01*
Y23110D01*
X56278Y23322D01*
X56168Y23513D01*
X56013Y23668D01*
X55822Y23778D01*
X55610Y23835D01*
D02*
G37*
G36*
X55400D02*
X55390D01*
X55178Y23778D01*
X54987Y23668D01*
X54832Y23513D01*
X54722Y23322D01*
X54665Y23110D01*
Y23100D01*
X55400D01*
Y23835D01*
D02*
G37*
G36*
X42610D02*
X42600D01*
Y23100D01*
X43335D01*
Y23110D01*
X43278Y23322D01*
X43168Y23513D01*
X43013Y23668D01*
X42822Y23778D01*
X42610Y23835D01*
D02*
G37*
G36*
X42400D02*
X42390D01*
X42178Y23778D01*
X41987Y23668D01*
X41832Y23513D01*
X41722Y23322D01*
X41665Y23110D01*
Y23100D01*
X42400D01*
Y23835D01*
D02*
G37*
G36*
X29610D02*
X29600D01*
Y23100D01*
X30335D01*
Y23110D01*
X30278Y23322D01*
X30168Y23513D01*
X30013Y23668D01*
X29822Y23778D01*
X29610Y23835D01*
D02*
G37*
G36*
X29400D02*
X29390D01*
X29178Y23778D01*
X28987Y23668D01*
X28832Y23513D01*
X28722Y23322D01*
X28665Y23110D01*
Y23100D01*
X29400D01*
Y23835D01*
D02*
G37*
G36*
X16610D02*
X16600D01*
Y23100D01*
X17335D01*
Y23110D01*
X17278Y23322D01*
X17168Y23513D01*
X17013Y23668D01*
X16822Y23778D01*
X16610Y23835D01*
D02*
G37*
G36*
X16400D02*
X16390D01*
X16178Y23778D01*
X15987Y23668D01*
X15832Y23513D01*
X15722Y23322D01*
X15665Y23110D01*
Y23100D01*
X16400D01*
Y23835D01*
D02*
G37*
G36*
X95335Y22900D02*
X94600D01*
Y22165D01*
X94610D01*
X94822Y22222D01*
X95013Y22332D01*
X95168Y22487D01*
X95278Y22678D01*
X95335Y22890D01*
Y22900D01*
D02*
G37*
G36*
X94400D02*
X93665D01*
Y22890D01*
X93722Y22678D01*
X93832Y22487D01*
X93987Y22332D01*
X94178Y22222D01*
X94390Y22165D01*
X94400D01*
Y22900D01*
D02*
G37*
G36*
X82335D02*
X81600D01*
Y22165D01*
X81610D01*
X81822Y22222D01*
X82013Y22332D01*
X82168Y22487D01*
X82278Y22678D01*
X82335Y22890D01*
Y22900D01*
D02*
G37*
G36*
X81400D02*
X80665D01*
Y22890D01*
X80722Y22678D01*
X80832Y22487D01*
X80987Y22332D01*
X81178Y22222D01*
X81390Y22165D01*
X81400D01*
Y22900D01*
D02*
G37*
G36*
X69335D02*
X68600D01*
Y22165D01*
X68610D01*
X68822Y22222D01*
X69013Y22332D01*
X69168Y22487D01*
X69278Y22678D01*
X69335Y22890D01*
Y22900D01*
D02*
G37*
G36*
X68400D02*
X67665D01*
Y22890D01*
X67722Y22678D01*
X67832Y22487D01*
X67987Y22332D01*
X68178Y22222D01*
X68390Y22165D01*
X68400D01*
Y22900D01*
D02*
G37*
G36*
X56335D02*
X55600D01*
Y22165D01*
X55610D01*
X55822Y22222D01*
X56013Y22332D01*
X56168Y22487D01*
X56278Y22678D01*
X56335Y22890D01*
Y22900D01*
D02*
G37*
G36*
X55400D02*
X54665D01*
Y22890D01*
X54722Y22678D01*
X54832Y22487D01*
X54987Y22332D01*
X55178Y22222D01*
X55390Y22165D01*
X55400D01*
Y22900D01*
D02*
G37*
G36*
X43335D02*
X42600D01*
Y22165D01*
X42610D01*
X42822Y22222D01*
X43013Y22332D01*
X43168Y22487D01*
X43278Y22678D01*
X43335Y22890D01*
Y22900D01*
D02*
G37*
G36*
X42400D02*
X41665D01*
Y22890D01*
X41722Y22678D01*
X41832Y22487D01*
X41987Y22332D01*
X42178Y22222D01*
X42390Y22165D01*
X42400D01*
Y22900D01*
D02*
G37*
G36*
X30335D02*
X29600D01*
Y22165D01*
X29610D01*
X29822Y22222D01*
X30013Y22332D01*
X30168Y22487D01*
X30278Y22678D01*
X30335Y22890D01*
Y22900D01*
D02*
G37*
G36*
X29400D02*
X28665D01*
Y22890D01*
X28722Y22678D01*
X28832Y22487D01*
X28987Y22332D01*
X29178Y22222D01*
X29390Y22165D01*
X29400D01*
Y22900D01*
D02*
G37*
G36*
X17335D02*
X16600D01*
Y22165D01*
X16610D01*
X16822Y22222D01*
X17013Y22332D01*
X17168Y22487D01*
X17278Y22678D01*
X17335Y22890D01*
Y22900D01*
D02*
G37*
G36*
X16400D02*
X15665D01*
Y22890D01*
X15722Y22678D01*
X15832Y22487D01*
X15987Y22332D01*
X16178Y22222D01*
X16390Y22165D01*
X16400D01*
Y22900D01*
D02*
G37*
G36*
X108550Y22575D02*
X106950D01*
Y21425D01*
X108550D01*
Y21592D01*
X109586D01*
X110059Y21120D01*
X110059Y21120D01*
X110191Y21031D01*
X110347Y21000D01*
X110347Y21000D01*
X111388D01*
X111490Y20825D01*
X111667Y20648D01*
X111883Y20523D01*
X112125Y20458D01*
X112375D01*
X112617Y20523D01*
X112833Y20648D01*
X113010Y20825D01*
X113135Y21041D01*
X113200Y21283D01*
Y21533D01*
X113135Y21775D01*
X113010Y21991D01*
X112833Y22168D01*
X112617Y22293D01*
X112375Y22358D01*
X112125D01*
X111883Y22293D01*
X111667Y22168D01*
X111490Y21991D01*
X111388Y21816D01*
X110516D01*
X110044Y22288D01*
X109911Y22377D01*
X109755Y22408D01*
X109755Y22408D01*
X108550D01*
Y22575D01*
D02*
G37*
G36*
X105150Y21150D02*
X104350D01*
Y20450D01*
X105150D01*
Y21150D01*
D02*
G37*
G36*
X104150D02*
X103350D01*
Y20450D01*
X104150D01*
Y21150D01*
D02*
G37*
G36*
X105150Y20250D02*
X104350D01*
Y19550D01*
X105150D01*
Y20250D01*
D02*
G37*
G36*
X104150D02*
X103350D01*
Y19550D01*
X104150D01*
Y20250D01*
D02*
G37*
G36*
X112382Y19868D02*
X112350D01*
Y18968D01*
X113250D01*
Y19000D01*
X113182Y19254D01*
X113050Y19482D01*
X112864Y19668D01*
X112636Y19800D01*
X112382Y19868D01*
D02*
G37*
G36*
X112150D02*
X112118D01*
X111864Y19800D01*
X111636Y19668D01*
X111450Y19482D01*
X111318Y19254D01*
X111250Y19000D01*
Y18968D01*
X112150D01*
Y19868D01*
D02*
G37*
G36*
X142841Y19843D02*
X142091D01*
Y18968D01*
X142841D01*
Y19843D01*
D02*
G37*
G36*
X141891D02*
X141141D01*
Y18968D01*
X141891D01*
Y19843D01*
D02*
G37*
G36*
X132844Y18777D02*
X132656D01*
X132481Y18705D01*
X132361Y18585D01*
X121745D01*
X121625Y18705D01*
X121450Y18777D01*
X121261D01*
X121086Y18705D01*
X120953Y18571D01*
X120881Y18397D01*
Y18208D01*
X120953Y18033D01*
X121086Y17900D01*
X121261Y17827D01*
X121450D01*
X121625Y17900D01*
X121745Y18020D01*
X132361D01*
X132481Y17900D01*
X132656Y17827D01*
X132844D01*
X133019Y17900D01*
X133153Y18033D01*
X133225Y18208D01*
Y18397D01*
X133153Y18571D01*
X133019Y18705D01*
X132844Y18777D01*
D02*
G37*
G36*
X138291Y19793D02*
X136691D01*
Y17943D01*
X138291D01*
Y19793D01*
D02*
G37*
G36*
X142841Y18768D02*
X142091D01*
Y17893D01*
X142841D01*
Y18768D01*
D02*
G37*
G36*
X141891D02*
X141141D01*
Y17893D01*
X141891D01*
Y18768D01*
D02*
G37*
G36*
X113250Y18768D02*
X112350D01*
Y17868D01*
X112382D01*
X112636Y17936D01*
X112864Y18068D01*
X113050Y18254D01*
X113182Y18482D01*
X113250Y18736D01*
Y18768D01*
D02*
G37*
G36*
X112150D02*
X111250D01*
Y18736D01*
X111318Y18482D01*
X111450Y18254D01*
X111636Y18068D01*
X111864Y17936D01*
X112118Y17868D01*
X112150D01*
Y18768D01*
D02*
G37*
G36*
X89889Y17085D02*
X89612D01*
X89345Y17013D01*
X89106Y16875D01*
X88910Y16680D01*
X88772Y16440D01*
X88701Y16173D01*
Y15897D01*
X88772Y15630D01*
X88910Y15390D01*
X89106Y15195D01*
X89345Y15057D01*
X89612Y14985D01*
X89889D01*
X90156Y15057D01*
X90395Y15195D01*
X90591Y15390D01*
X90729Y15630D01*
X90801Y15897D01*
Y16173D01*
X90729Y16440D01*
X90591Y16680D01*
X90395Y16875D01*
X90156Y17013D01*
X89889Y17085D01*
D02*
G37*
G36*
X77389D02*
X77112D01*
X76845Y17013D01*
X76606Y16875D01*
X76410Y16680D01*
X76272Y16440D01*
X76201Y16173D01*
Y15897D01*
X76272Y15630D01*
X76410Y15390D01*
X76606Y15195D01*
X76845Y15057D01*
X77112Y14985D01*
X77389D01*
X77656Y15057D01*
X77895Y15195D01*
X78091Y15390D01*
X78229Y15630D01*
X78301Y15897D01*
Y16173D01*
X78229Y16440D01*
X78091Y16680D01*
X77895Y16875D01*
X77656Y17013D01*
X77389Y17085D01*
D02*
G37*
G36*
X48639D02*
X48362D01*
X48095Y17013D01*
X47856Y16875D01*
X47660Y16680D01*
X47522Y16440D01*
X47451Y16173D01*
Y15897D01*
X47522Y15630D01*
X47660Y15390D01*
X47856Y15195D01*
X48095Y15057D01*
X48362Y14985D01*
X48639D01*
X48906Y15057D01*
X49145Y15195D01*
X49341Y15390D01*
X49479Y15630D01*
X49551Y15897D01*
Y16173D01*
X49479Y16440D01*
X49341Y16680D01*
X49145Y16875D01*
X48906Y17013D01*
X48639Y17085D01*
D02*
G37*
G36*
X36139D02*
X35862D01*
X35595Y17013D01*
X35356Y16875D01*
X35160Y16680D01*
X35022Y16440D01*
X34951Y16173D01*
Y15897D01*
X35022Y15630D01*
X35160Y15390D01*
X35356Y15195D01*
X35595Y15057D01*
X35862Y14985D01*
X36139D01*
X36406Y15057D01*
X36645Y15195D01*
X36841Y15390D01*
X36979Y15630D01*
X37051Y15897D01*
Y16173D01*
X36979Y16440D01*
X36841Y16680D01*
X36645Y16875D01*
X36406Y17013D01*
X36139Y17085D01*
D02*
G37*
G36*
X131389Y16800D02*
X131112D01*
X130845Y16729D01*
X130606Y16590D01*
X130410Y16395D01*
X130272Y16155D01*
X130201Y15888D01*
Y15612D01*
X130272Y15345D01*
X130410Y15105D01*
X130606Y14910D01*
X130845Y14772D01*
X131112Y14700D01*
X131389D01*
X131656Y14772D01*
X131895Y14910D01*
X132091Y15105D01*
X132229Y15345D01*
X132301Y15612D01*
Y15888D01*
X132229Y16155D01*
X132091Y16395D01*
X131895Y16590D01*
X131656Y16729D01*
X131389Y16800D01*
D02*
G37*
G36*
X118889D02*
X118612D01*
X118345Y16729D01*
X118106Y16590D01*
X117910Y16395D01*
X117772Y16155D01*
X117701Y15888D01*
Y15612D01*
X117772Y15345D01*
X117910Y15105D01*
X118106Y14910D01*
X118345Y14772D01*
X118612Y14700D01*
X118889D01*
X119156Y14772D01*
X119395Y14910D01*
X119591Y15105D01*
X119729Y15345D01*
X119801Y15612D01*
Y15888D01*
X119729Y16155D01*
X119591Y16395D01*
X119395Y16590D01*
X119156Y16729D01*
X118889Y16800D01*
D02*
G37*
G36*
X89889Y12085D02*
X89612D01*
X89345Y12013D01*
X89106Y11875D01*
X88910Y11680D01*
X88772Y11440D01*
X88701Y11173D01*
Y10897D01*
X88772Y10630D01*
X88910Y10390D01*
X89106Y10195D01*
X89345Y10057D01*
X89612Y9985D01*
X89889D01*
X90156Y10057D01*
X90395Y10195D01*
X90591Y10390D01*
X90729Y10630D01*
X90762Y10753D01*
X93200D01*
Y10460D01*
X94800D01*
Y11610D01*
X93200D01*
Y11317D01*
X90762D01*
X90729Y11440D01*
X90591Y11680D01*
X90395Y11875D01*
X90156Y12013D01*
X89889Y12085D01*
D02*
G37*
G36*
X131389Y11800D02*
X131112D01*
X130845Y11729D01*
X130606Y11590D01*
X130410Y11395D01*
X130272Y11155D01*
X130201Y10888D01*
Y10612D01*
X130272Y10345D01*
X130410Y10105D01*
X130606Y9910D01*
X130845Y9772D01*
X131112Y9700D01*
X131389D01*
X131656Y9772D01*
X131895Y9910D01*
X132091Y10105D01*
X132229Y10345D01*
X132262Y10468D01*
X133350D01*
Y10175D01*
X134950D01*
Y11325D01*
X133350D01*
Y11033D01*
X132262D01*
X132229Y11155D01*
X132091Y11395D01*
X131895Y11590D01*
X131656Y11729D01*
X131389Y11800D01*
D02*
G37*
G36*
X153110Y10835D02*
X153100D01*
Y10100D01*
X153835D01*
Y10110D01*
X153778Y10322D01*
X153668Y10513D01*
X153513Y10668D01*
X153322Y10778D01*
X153110Y10835D01*
D02*
G37*
G36*
X152900D02*
X152890D01*
X152678Y10778D01*
X152487Y10668D01*
X152332Y10513D01*
X152222Y10322D01*
X152165Y10110D01*
Y10100D01*
X152900D01*
Y10835D01*
D02*
G37*
G36*
X140110D02*
X140100D01*
Y10100D01*
X140835D01*
Y10110D01*
X140778Y10322D01*
X140668Y10513D01*
X140513Y10668D01*
X140322Y10778D01*
X140110Y10835D01*
D02*
G37*
G36*
X139900D02*
X139890D01*
X139678Y10778D01*
X139487Y10668D01*
X139332Y10513D01*
X139222Y10322D01*
X139165Y10110D01*
Y10100D01*
X139900D01*
Y10835D01*
D02*
G37*
G36*
X127110D02*
X127100D01*
Y10100D01*
X127835D01*
Y10110D01*
X127778Y10322D01*
X127668Y10513D01*
X127513Y10668D01*
X127322Y10778D01*
X127110Y10835D01*
D02*
G37*
G36*
X126900D02*
X126890D01*
X126678Y10778D01*
X126487Y10668D01*
X126332Y10513D01*
X126222Y10322D01*
X126165Y10110D01*
Y10100D01*
X126900D01*
Y10835D01*
D02*
G37*
G36*
X114110D02*
X114100D01*
Y10100D01*
X114835D01*
Y10110D01*
X114778Y10322D01*
X114668Y10513D01*
X114513Y10668D01*
X114322Y10778D01*
X114110Y10835D01*
D02*
G37*
G36*
X113900D02*
X113890D01*
X113678Y10778D01*
X113487Y10668D01*
X113332Y10513D01*
X113222Y10322D01*
X113165Y10110D01*
Y10100D01*
X113900D01*
Y10835D01*
D02*
G37*
G36*
X101110D02*
X101100D01*
Y10100D01*
X101835D01*
Y10110D01*
X101778Y10322D01*
X101668Y10513D01*
X101513Y10668D01*
X101322Y10778D01*
X101110Y10835D01*
D02*
G37*
G36*
X100900D02*
X100890D01*
X100678Y10778D01*
X100487Y10668D01*
X100332Y10513D01*
X100222Y10322D01*
X100165Y10110D01*
Y10100D01*
X100900D01*
Y10835D01*
D02*
G37*
G36*
X88110D02*
X88100D01*
Y10100D01*
X88835D01*
Y10110D01*
X88778Y10322D01*
X88668Y10513D01*
X88513Y10668D01*
X88322Y10778D01*
X88110Y10835D01*
D02*
G37*
G36*
X87900D02*
X87890D01*
X87678Y10778D01*
X87487Y10668D01*
X87332Y10513D01*
X87222Y10322D01*
X87165Y10110D01*
Y10100D01*
X87900D01*
Y10835D01*
D02*
G37*
G36*
X75110D02*
X75100D01*
Y10100D01*
X75835D01*
Y10110D01*
X75778Y10322D01*
X75668Y10513D01*
X75513Y10668D01*
X75322Y10778D01*
X75110Y10835D01*
D02*
G37*
G36*
X74900D02*
X74890D01*
X74678Y10778D01*
X74487Y10668D01*
X74332Y10513D01*
X74222Y10322D01*
X74165Y10110D01*
Y10100D01*
X74900D01*
Y10835D01*
D02*
G37*
G36*
X62110D02*
X62100D01*
Y10100D01*
X62835D01*
Y10110D01*
X62778Y10322D01*
X62668Y10513D01*
X62513Y10668D01*
X62322Y10778D01*
X62110Y10835D01*
D02*
G37*
G36*
X61900D02*
X61890D01*
X61678Y10778D01*
X61487Y10668D01*
X61332Y10513D01*
X61222Y10322D01*
X61165Y10110D01*
Y10100D01*
X61900D01*
Y10835D01*
D02*
G37*
G36*
X23110D02*
X23100D01*
Y10100D01*
X23835D01*
Y10110D01*
X23778Y10322D01*
X23668Y10513D01*
X23513Y10668D01*
X23322Y10778D01*
X23110Y10835D01*
D02*
G37*
G36*
X22900D02*
X22890D01*
X22678Y10778D01*
X22487Y10668D01*
X22332Y10513D01*
X22222Y10322D01*
X22165Y10110D01*
Y10100D01*
X22900D01*
Y10835D01*
D02*
G37*
G36*
X10110D02*
X10100D01*
Y10100D01*
X10835D01*
Y10110D01*
X10778Y10322D01*
X10668Y10513D01*
X10513Y10668D01*
X10322Y10778D01*
X10110Y10835D01*
D02*
G37*
G36*
X9900D02*
X9890D01*
X9678Y10778D01*
X9487Y10668D01*
X9332Y10513D01*
X9222Y10322D01*
X9165Y10110D01*
Y10100D01*
X9900D01*
Y10835D01*
D02*
G37*
G36*
X142791Y11843D02*
X141191D01*
Y9993D01*
X142791D01*
Y11843D01*
D02*
G37*
G36*
X134950Y20283D02*
X133350D01*
Y19133D01*
X133868D01*
Y15572D01*
X133868Y15572D01*
X133889Y15464D01*
X133950Y15373D01*
X137208Y12115D01*
Y11843D01*
X136691D01*
Y9993D01*
X138291D01*
Y11843D01*
X137773D01*
Y12232D01*
X137773Y12232D01*
X137752Y12340D01*
X137690Y12431D01*
X137690Y12431D01*
X134432Y15689D01*
Y19133D01*
X134950D01*
Y20283D01*
D02*
G37*
G36*
X77389Y12085D02*
X77112D01*
X76845Y12013D01*
X76606Y11875D01*
X76410Y11680D01*
X76272Y11440D01*
X76201Y11173D01*
Y10897D01*
X76272Y10630D01*
X76410Y10390D01*
X76606Y10195D01*
X76845Y10057D01*
X77112Y9985D01*
X77389D01*
X77656Y10057D01*
X77895Y10195D01*
X78091Y10390D01*
X78229Y10630D01*
X78301Y10897D01*
Y11173D01*
X78229Y11440D01*
X78091Y11680D01*
X77895Y11875D01*
X77656Y12013D01*
X77389Y12085D01*
D02*
G37*
G36*
X36139D02*
X35862D01*
X35595Y12013D01*
X35356Y11875D01*
X35160Y11680D01*
X35022Y11440D01*
X34951Y11173D01*
Y10897D01*
X35022Y10630D01*
X35160Y10390D01*
X35356Y10195D01*
X35595Y10057D01*
X35862Y9985D01*
X36139D01*
X36406Y10057D01*
X36645Y10195D01*
X36841Y10390D01*
X36979Y10630D01*
X37051Y10897D01*
Y11173D01*
X36979Y11440D01*
X36841Y11680D01*
X36645Y11875D01*
X36406Y12013D01*
X36139Y12085D01*
D02*
G37*
G36*
X118889Y11800D02*
X118612D01*
X118345Y11729D01*
X118106Y11590D01*
X117910Y11395D01*
X117772Y11155D01*
X117701Y10888D01*
Y10612D01*
X117772Y10345D01*
X117910Y10105D01*
X118106Y9910D01*
X118345Y9772D01*
X118612Y9700D01*
X118889D01*
X119156Y9772D01*
X119395Y9910D01*
X119591Y10105D01*
X119729Y10345D01*
X119801Y10612D01*
Y10888D01*
X119729Y11155D01*
X119591Y11395D01*
X119395Y11590D01*
X119156Y11729D01*
X118889Y11800D01*
D02*
G37*
G36*
X94850Y9960D02*
X94100D01*
Y9435D01*
X94850D01*
Y9960D01*
D02*
G37*
G36*
X93900D02*
X93150D01*
Y9435D01*
X93900D01*
Y9960D01*
D02*
G37*
G36*
X54100D02*
X53350D01*
Y9435D01*
X54100D01*
Y9960D01*
D02*
G37*
G36*
X53150D02*
X52400D01*
Y9435D01*
X53150D01*
Y9960D01*
D02*
G37*
G36*
X149697Y13250D02*
X149303D01*
X148917Y13173D01*
X148553Y13022D01*
X148225Y12804D01*
X147947Y12525D01*
X147728Y12197D01*
X147577Y11833D01*
X147500Y11447D01*
Y11053D01*
X147577Y10667D01*
X147728Y10303D01*
X147947Y9975D01*
X148225Y9696D01*
X148553Y9478D01*
X148917Y9327D01*
X149303Y9250D01*
X149697D01*
X150083Y9327D01*
X150447Y9478D01*
X150775Y9696D01*
X151053Y9975D01*
X151272Y10303D01*
X151423Y10667D01*
X151500Y11053D01*
Y11447D01*
X151423Y11833D01*
X151272Y12197D01*
X151053Y12525D01*
X150775Y12804D01*
X150447Y13022D01*
X150083Y13173D01*
X149697Y13250D01*
D02*
G37*
G36*
X17697D02*
X17303D01*
X16917Y13173D01*
X16553Y13022D01*
X16225Y12804D01*
X15946Y12525D01*
X15728Y12197D01*
X15577Y11833D01*
X15500Y11447D01*
Y11053D01*
X15577Y10667D01*
X15728Y10303D01*
X15946Y9975D01*
X16225Y9696D01*
X16553Y9478D01*
X16917Y9327D01*
X17303Y9250D01*
X17697D01*
X18083Y9327D01*
X18447Y9478D01*
X18775Y9696D01*
X19053Y9975D01*
X19272Y10303D01*
X19423Y10667D01*
X19500Y11053D01*
Y11447D01*
X19423Y11833D01*
X19272Y12197D01*
X19053Y12525D01*
X18775Y12804D01*
X18447Y13022D01*
X18083Y13173D01*
X17697Y13250D01*
D02*
G37*
G36*
X153835Y9900D02*
X153100D01*
Y9165D01*
X153110D01*
X153322Y9222D01*
X153513Y9332D01*
X153668Y9487D01*
X153778Y9678D01*
X153835Y9890D01*
Y9900D01*
D02*
G37*
G36*
X152900D02*
X152165D01*
Y9890D01*
X152222Y9678D01*
X152332Y9487D01*
X152487Y9332D01*
X152678Y9222D01*
X152890Y9165D01*
X152900D01*
Y9900D01*
D02*
G37*
G36*
X140835D02*
X140100D01*
Y9165D01*
X140110D01*
X140322Y9222D01*
X140513Y9332D01*
X140668Y9487D01*
X140778Y9678D01*
X140835Y9890D01*
Y9900D01*
D02*
G37*
G36*
X139900D02*
X139165D01*
Y9890D01*
X139222Y9678D01*
X139332Y9487D01*
X139487Y9332D01*
X139678Y9222D01*
X139890Y9165D01*
X139900D01*
Y9900D01*
D02*
G37*
G36*
X127835D02*
X127100D01*
Y9165D01*
X127110D01*
X127322Y9222D01*
X127513Y9332D01*
X127668Y9487D01*
X127778Y9678D01*
X127835Y9890D01*
Y9900D01*
D02*
G37*
G36*
X126900D02*
X126165D01*
Y9890D01*
X126222Y9678D01*
X126332Y9487D01*
X126487Y9332D01*
X126678Y9222D01*
X126890Y9165D01*
X126900D01*
Y9900D01*
D02*
G37*
G36*
X114835D02*
X114100D01*
Y9165D01*
X114110D01*
X114322Y9222D01*
X114513Y9332D01*
X114668Y9487D01*
X114778Y9678D01*
X114835Y9890D01*
Y9900D01*
D02*
G37*
G36*
X113900D02*
X113165D01*
Y9890D01*
X113222Y9678D01*
X113332Y9487D01*
X113487Y9332D01*
X113678Y9222D01*
X113890Y9165D01*
X113900D01*
Y9900D01*
D02*
G37*
G36*
X101835D02*
X101100D01*
Y9165D01*
X101110D01*
X101322Y9222D01*
X101513Y9332D01*
X101668Y9487D01*
X101778Y9678D01*
X101835Y9890D01*
Y9900D01*
D02*
G37*
G36*
X100900D02*
X100165D01*
Y9890D01*
X100222Y9678D01*
X100332Y9487D01*
X100487Y9332D01*
X100678Y9222D01*
X100890Y9165D01*
X100900D01*
Y9900D01*
D02*
G37*
G36*
X88835D02*
X88100D01*
Y9165D01*
X88110D01*
X88322Y9222D01*
X88513Y9332D01*
X88668Y9487D01*
X88778Y9678D01*
X88835Y9890D01*
Y9900D01*
D02*
G37*
G36*
X87900D02*
X87165D01*
Y9890D01*
X87222Y9678D01*
X87332Y9487D01*
X87487Y9332D01*
X87678Y9222D01*
X87890Y9165D01*
X87900D01*
Y9900D01*
D02*
G37*
G36*
X75835D02*
X75100D01*
Y9165D01*
X75110D01*
X75322Y9222D01*
X75513Y9332D01*
X75668Y9487D01*
X75778Y9678D01*
X75835Y9890D01*
Y9900D01*
D02*
G37*
G36*
X74900D02*
X74165D01*
Y9890D01*
X74222Y9678D01*
X74332Y9487D01*
X74487Y9332D01*
X74678Y9222D01*
X74890Y9165D01*
X74900D01*
Y9900D01*
D02*
G37*
G36*
X62835D02*
X62100D01*
Y9165D01*
X62110D01*
X62322Y9222D01*
X62513Y9332D01*
X62668Y9487D01*
X62778Y9678D01*
X62835Y9890D01*
Y9900D01*
D02*
G37*
G36*
X61900D02*
X61165D01*
Y9890D01*
X61222Y9678D01*
X61332Y9487D01*
X61487Y9332D01*
X61678Y9222D01*
X61890Y9165D01*
X61900D01*
Y9900D01*
D02*
G37*
G36*
X23835D02*
X23100D01*
Y9165D01*
X23110D01*
X23322Y9222D01*
X23513Y9332D01*
X23668Y9487D01*
X23778Y9678D01*
X23835Y9890D01*
Y9900D01*
D02*
G37*
G36*
X22900D02*
X22165D01*
Y9890D01*
X22222Y9678D01*
X22332Y9487D01*
X22487Y9332D01*
X22678Y9222D01*
X22890Y9165D01*
X22900D01*
Y9900D01*
D02*
G37*
G36*
X10835D02*
X10100D01*
Y9165D01*
X10110D01*
X10322Y9222D01*
X10513Y9332D01*
X10668Y9487D01*
X10778Y9678D01*
X10835Y9890D01*
Y9900D01*
D02*
G37*
G36*
X9900D02*
X9165D01*
Y9890D01*
X9222Y9678D01*
X9332Y9487D01*
X9487Y9332D01*
X9678Y9222D01*
X9890Y9165D01*
X9900D01*
Y9900D01*
D02*
G37*
G36*
X135000Y9675D02*
X134250D01*
Y9150D01*
X135000D01*
Y9675D01*
D02*
G37*
G36*
X134050D02*
X133300D01*
Y9150D01*
X134050D01*
Y9675D01*
D02*
G37*
G36*
X94850Y9235D02*
X94100D01*
Y8710D01*
X94850D01*
Y9235D01*
D02*
G37*
G36*
X93900D02*
X93150D01*
Y8710D01*
X93900D01*
Y9235D01*
D02*
G37*
G36*
X54100D02*
X53350D01*
Y8710D01*
X54100D01*
Y9235D01*
D02*
G37*
G36*
X53150D02*
X52400D01*
Y8710D01*
X53150D01*
Y9235D01*
D02*
G37*
G36*
X135000Y8950D02*
X134250D01*
Y8425D01*
X135000D01*
Y8950D01*
D02*
G37*
G36*
X134050D02*
X133300D01*
Y8425D01*
X134050D01*
Y8950D01*
D02*
G37*
%LPD*%
G36*
X97298Y90790D02*
X97275Y90675D01*
X97305Y90529D01*
X97367Y90435D01*
X97380Y90350D01*
X97367Y90265D01*
X97305Y90171D01*
X97275Y90025D01*
X97305Y89879D01*
X97367Y89785D01*
X97380Y89700D01*
X97367Y89615D01*
X97305Y89521D01*
X97275Y89375D01*
X97305Y89229D01*
X97367Y89135D01*
X97380Y89050D01*
X97367Y88965D01*
X97305Y88871D01*
X97275Y88725D01*
X97305Y88579D01*
X97367Y88485D01*
X97380Y88400D01*
X97367Y88315D01*
X97305Y88221D01*
X97275Y88075D01*
X97305Y87929D01*
X97367Y87835D01*
X97368Y87834D01*
X97331Y87732D01*
X97311Y87707D01*
X94767D01*
X94475Y87999D01*
Y89200D01*
X93325D01*
Y87600D01*
X94076D01*
X94450Y87225D01*
X94450Y87225D01*
X94542Y87164D01*
X94650Y87143D01*
X97311D01*
X97331Y87118D01*
X97368Y87016D01*
X97367Y87015D01*
X97305Y86921D01*
X97275Y86775D01*
X97305Y86629D01*
X97367Y86535D01*
X97380Y86450D01*
X97367Y86365D01*
X97305Y86271D01*
X97275Y86125D01*
X97305Y85979D01*
X97367Y85885D01*
X97380Y85800D01*
X97367Y85715D01*
X97305Y85621D01*
X97275Y85475D01*
X97305Y85329D01*
X97367Y85235D01*
X97380Y85150D01*
X97367Y85065D01*
X97305Y84971D01*
X97275Y84825D01*
X97305Y84679D01*
X97367Y84585D01*
X97380Y84500D01*
X97367Y84415D01*
X97305Y84321D01*
X97275Y84175D01*
X97298Y84060D01*
X97228Y83933D01*
X90408D01*
Y84666D01*
X90408Y84666D01*
X90408Y84666D01*
Y89631D01*
X91694Y90917D01*
X93643D01*
X93806Y90850D01*
X93994D01*
X94157Y90917D01*
X97228D01*
X97298Y90790D01*
D02*
G37*
G36*
X102296Y85222D02*
Y84791D01*
X102178Y84742D01*
X99946Y86975D01*
X99854Y87036D01*
X99746Y87057D01*
X99746Y87057D01*
X99554D01*
X99535Y87082D01*
X99498Y87184D01*
X99498Y87185D01*
X99561Y87279D01*
X99590Y87425D01*
X99561Y87571D01*
X99498Y87665D01*
X99498Y87666D01*
X99535Y87768D01*
X99554Y87793D01*
X99725D01*
X102296Y85222D01*
D02*
G37*
G36*
X117633Y82592D02*
X117625Y82561D01*
X117571Y82475D01*
X117412D01*
X117237Y82403D01*
X117117Y82282D01*
X105231D01*
X104544Y82969D01*
X104545Y82977D01*
X104601Y83092D01*
X105233D01*
Y83525D01*
X105333D01*
Y83625D01*
X106521D01*
X106508Y83691D01*
X106440Y83793D01*
X106378Y83905D01*
X106461Y84029D01*
X106490Y84175D01*
X106461Y84321D01*
X106398Y84415D01*
X106386Y84500D01*
X106398Y84585D01*
X106461Y84679D01*
X106490Y84825D01*
X106461Y84971D01*
X106398Y85065D01*
X106398Y85066D01*
X106435Y85168D01*
X106454Y85193D01*
X115033D01*
X117633Y82592D01*
D02*
G37*
G36*
X118468Y81757D02*
Y79889D01*
X118348Y79769D01*
X118276Y79594D01*
Y79406D01*
X118330Y79274D01*
X118223Y79202D01*
X116250Y81175D01*
X116158Y81236D01*
X116050Y81257D01*
X116050Y81257D01*
X105663D01*
X105320Y81600D01*
X105369Y81718D01*
X117117D01*
X117237Y81597D01*
X117412Y81525D01*
X117601D01*
X117775Y81597D01*
X117909Y81731D01*
X117981Y81906D01*
Y82065D01*
X118067Y82118D01*
X118098Y82127D01*
X118468Y81757D01*
D02*
G37*
G36*
X117806Y78820D02*
X117734Y78712D01*
X117594Y78770D01*
X117424D01*
X116495Y79700D01*
X116403Y79761D01*
X116295Y79782D01*
X116295Y79782D01*
X106567D01*
X105774Y80575D01*
X105823Y80693D01*
X115933D01*
X117806Y78820D01*
D02*
G37*
G36*
X125818Y46895D02*
Y39250D01*
X125818Y39250D01*
X125839Y39142D01*
X125900Y39050D01*
X125977Y38973D01*
X125945Y38867D01*
X125926Y38845D01*
X125794Y38756D01*
X125793Y38755D01*
X125651Y38746D01*
X125582Y38816D01*
Y43090D01*
X125594Y43148D01*
X125594Y43148D01*
Y46953D01*
X125610Y46963D01*
X125721Y46992D01*
X125818Y46895D01*
D02*
G37*
G36*
X124905Y48295D02*
X125029Y48269D01*
Y43194D01*
X125018Y43136D01*
X125018Y43136D01*
Y38772D01*
X124994Y38756D01*
X124993Y38755D01*
X124851Y38746D01*
X124782Y38816D01*
Y48176D01*
X124902Y48295D01*
X124905Y48295D01*
D02*
G37*
G36*
X126793Y40795D02*
X126814Y40687D01*
X126875Y40595D01*
X127418Y40053D01*
Y38772D01*
X127394Y38756D01*
X127364Y38711D01*
X127237D01*
X127206Y38756D01*
X127066Y38850D01*
X126900Y38883D01*
X126872Y38878D01*
X126382Y39367D01*
Y40900D01*
X126722D01*
X126793Y40795D01*
D02*
G37*
G36*
X136040Y28405D02*
X136025Y28369D01*
Y28181D01*
X136097Y28006D01*
X136231Y27872D01*
X136406Y27800D01*
X136594D01*
X136769Y27872D01*
X136769Y27872D01*
X136887Y27824D01*
Y26100D01*
X136908Y25992D01*
X136969Y25900D01*
X137061Y25839D01*
X137049Y25716D01*
X137035Y25682D01*
X135642D01*
X134432Y26892D01*
Y27842D01*
X134675D01*
X134841Y27875D01*
X134981Y27969D01*
X135075Y28109D01*
X135108Y28275D01*
X135075Y28441D01*
X134981Y28581D01*
X134980Y28582D01*
X134971Y28724D01*
X135041Y28793D01*
X135652D01*
X136040Y28405D01*
D02*
G37*
G36*
X131418Y25734D02*
Y25254D01*
X131418Y25254D01*
X131439Y25146D01*
X131500Y25054D01*
X132162Y24392D01*
X132162Y24392D01*
X132254Y24331D01*
X132362Y24310D01*
X132362Y24310D01*
X139116D01*
X139165Y24192D01*
X136352Y21379D01*
X136225Y21432D01*
Y21502D01*
X136153Y21677D01*
X136019Y21811D01*
X135844Y21883D01*
X135656D01*
X135481Y21811D01*
X135361Y21690D01*
X134950D01*
Y21983D01*
X133350D01*
Y21690D01*
X133018D01*
X132934Y21817D01*
X132975Y21916D01*
Y22104D01*
X132903Y22279D01*
X132769Y22413D01*
X132594Y22485D01*
X132424D01*
X131182Y23727D01*
Y25778D01*
X131206Y25794D01*
X131207Y25795D01*
X131349Y25804D01*
X131418Y25734D01*
D02*
G37*
G36*
X128174Y25730D02*
X128218Y25693D01*
Y24942D01*
X128218Y24942D01*
X128239Y24834D01*
X128300Y24743D01*
X128516Y24527D01*
X128463Y24400D01*
X128125D01*
Y22700D01*
X128467D01*
Y21665D01*
X128400Y21502D01*
Y21313D01*
X128472Y21139D01*
X128496Y21115D01*
X128443Y20988D01*
X127076D01*
X126480Y21584D01*
Y22650D01*
X126975D01*
Y23550D01*
X127075D01*
Y23650D01*
X127875D01*
Y24450D01*
X127707D01*
Y24631D01*
X127900Y24823D01*
X127961Y24915D01*
X127982Y25023D01*
Y25717D01*
X128042Y25758D01*
X128174Y25730D01*
D02*
G37*
%LPC*%
G36*
X92825Y89250D02*
X92300D01*
Y88500D01*
X92825D01*
Y89250D01*
D02*
G37*
G36*
X92100D02*
X91575D01*
Y88500D01*
X92100D01*
Y89250D01*
D02*
G37*
G36*
X92825Y88300D02*
X92300D01*
Y87550D01*
X92825D01*
Y88300D01*
D02*
G37*
G36*
X92100D02*
X91575D01*
Y87550D01*
X92100D01*
Y88300D01*
D02*
G37*
G36*
X92929Y86491D02*
X92925D01*
Y86066D01*
X93350D01*
Y86070D01*
X93270Y86263D01*
X93122Y86411D01*
X92929Y86491D01*
D02*
G37*
G36*
X92725D02*
X92721D01*
X92528Y86411D01*
X92380Y86263D01*
X92300Y86070D01*
Y86066D01*
X92725D01*
Y86491D01*
D02*
G37*
G36*
X93350Y85866D02*
X92925D01*
Y85441D01*
X92929D01*
X93122Y85521D01*
X93270Y85669D01*
X93350Y85861D01*
Y85866D01*
D02*
G37*
G36*
X92725D02*
X92300D01*
Y85861D01*
X92380Y85669D01*
X92528Y85521D01*
X92721Y85441D01*
X92725D01*
Y85866D01*
D02*
G37*
G36*
X111210Y84243D02*
X111205D01*
Y83818D01*
X111630D01*
Y83823D01*
X111550Y84015D01*
X111402Y84163D01*
X111210Y84243D01*
D02*
G37*
G36*
X111005D02*
X111001D01*
X110808Y84163D01*
X110660Y84015D01*
X110580Y83823D01*
Y83818D01*
X111005D01*
Y84243D01*
D02*
G37*
G36*
X111630Y83618D02*
X111205D01*
Y83193D01*
X111210D01*
X111402Y83273D01*
X111550Y83421D01*
X111630Y83614D01*
Y83618D01*
D02*
G37*
G36*
X111005D02*
X110580D01*
Y83614D01*
X110660Y83421D01*
X110808Y83273D01*
X111001Y83193D01*
X111005D01*
Y83618D01*
D02*
G37*
G36*
X106521Y83425D02*
X105433D01*
Y83092D01*
X106108D01*
X106274Y83125D01*
X106414Y83219D01*
X106508Y83359D01*
X106521Y83425D01*
D02*
G37*
G36*
X127875Y23450D02*
X127175D01*
Y22650D01*
X127875D01*
Y23450D01*
D02*
G37*
G36*
X127729Y22433D02*
X127725D01*
Y22008D01*
X128150D01*
Y22012D01*
X128070Y22205D01*
X127922Y22353D01*
X127729Y22433D01*
D02*
G37*
G36*
X127525D02*
X127521D01*
X127328Y22353D01*
X127180Y22205D01*
X127100Y22012D01*
Y22008D01*
X127525D01*
Y22433D01*
D02*
G37*
G36*
X128150Y21808D02*
X127725D01*
Y21383D01*
X127729D01*
X127922Y21463D01*
X128070Y21611D01*
X128150Y21804D01*
Y21808D01*
D02*
G37*
G36*
X127525D02*
X127100D01*
Y21804D01*
X127180Y21611D01*
X127328Y21463D01*
X127521Y21383D01*
X127525D01*
Y21808D01*
D02*
G37*
%LPD*%
G36*
X118467Y28388D02*
X118361Y28282D01*
X101927D01*
X101874Y28399D01*
X101937Y28485D01*
X118384D01*
X118467Y28388D01*
D02*
G37*
G36*
X118421Y27658D02*
X118469Y27575D01*
X118421Y27492D01*
X118361Y27432D01*
X99953D01*
X99928Y27559D01*
X100019Y27597D01*
X100139Y27718D01*
X118361D01*
X118421Y27658D01*
D02*
G37*
G36*
X118451Y26778D02*
X118470Y26700D01*
X118451Y26622D01*
X118361Y26532D01*
X99867D01*
X99649Y26750D01*
X99698Y26868D01*
X118361D01*
X118451Y26778D01*
D02*
G37*
D10*
X121641Y56870D02*
D03*
X126141Y64820D02*
D03*
X121641D02*
D03*
X126141Y56870D02*
D03*
X142841D02*
D03*
X147341Y64820D02*
D03*
Y56870D02*
D03*
X142841Y64820D02*
D03*
X141991Y18868D02*
D03*
X137491Y10918D02*
D03*
Y18868D02*
D03*
X141991Y10918D02*
D03*
X131711Y67100D02*
D03*
X136211Y75050D02*
D03*
X131711D02*
D03*
X136211Y67100D02*
D03*
Y45900D02*
D03*
X131711Y53850D02*
D03*
X136211D02*
D03*
X131711Y45900D02*
D03*
D11*
X116100Y93900D02*
D03*
Y96500D02*
D03*
D12*
X116100Y91416D02*
D03*
Y89616D02*
D03*
X119387Y32725D02*
D03*
Y30925D02*
D03*
X152200Y41350D02*
D03*
Y43150D02*
D03*
X137491Y33369D02*
D03*
Y31569D02*
D03*
X104250Y22150D02*
D03*
Y20350D02*
D03*
X132164Y92259D02*
D03*
Y94059D02*
D03*
D13*
X139500Y65125D02*
D03*
Y67125D02*
D03*
X149500Y85700D02*
D03*
Y83700D02*
D03*
D14*
X146691Y41300D02*
D03*
Y31800D02*
D03*
D15*
X161500Y43100D02*
D03*
Y41400D02*
D03*
X159700Y43100D02*
D03*
Y41400D02*
D03*
X157899Y43100D02*
D03*
Y41400D02*
D03*
X156099Y43100D02*
D03*
Y41400D02*
D03*
X148750Y27100D02*
D03*
Y25400D02*
D03*
X134150Y9050D02*
D03*
Y10750D02*
D03*
X122034Y83475D02*
D03*
Y81775D02*
D03*
X154299Y41400D02*
D03*
Y43100D02*
D03*
X163900Y43950D02*
D03*
Y42250D02*
D03*
X94000Y11035D02*
D03*
Y9335D02*
D03*
X53250Y11035D02*
D03*
Y9335D02*
D03*
X134161Y56795D02*
D03*
Y58495D02*
D03*
X134150Y21408D02*
D03*
Y19708D02*
D03*
X134161Y63155D02*
D03*
Y61455D02*
D03*
X107750Y23700D02*
D03*
Y22000D02*
D03*
X103683Y95800D02*
D03*
Y97500D02*
D03*
X101883Y95800D02*
D03*
Y97500D02*
D03*
D16*
X161800Y31340D02*
D03*
X161400Y30240D02*
D03*
X161800Y29140D02*
D03*
X162000Y28040D02*
D03*
X161800Y26940D02*
D03*
X162000Y25840D02*
D03*
X161800Y24740D02*
D03*
Y23640D02*
D03*
D17*
X165650Y36000D02*
D03*
X164650Y22850D02*
D03*
D18*
X151500Y30150D02*
D03*
Y24450D02*
D03*
D19*
X122850Y36275D02*
D03*
Y35475D02*
D03*
Y34675D02*
D03*
Y33875D02*
D03*
Y33075D02*
D03*
Y32275D02*
D03*
Y31475D02*
D03*
Y30675D02*
D03*
Y29875D02*
D03*
Y29075D02*
D03*
Y28275D02*
D03*
X134150D02*
D03*
Y29075D02*
D03*
Y29875D02*
D03*
Y30675D02*
D03*
Y31475D02*
D03*
Y32275D02*
D03*
Y33075D02*
D03*
Y33875D02*
D03*
Y34675D02*
D03*
Y35475D02*
D03*
Y36275D02*
D03*
D20*
X124500Y26625D02*
D03*
X125300D02*
D03*
X126100D02*
D03*
X126900D02*
D03*
X127700D02*
D03*
X128500D02*
D03*
X129300D02*
D03*
X130100D02*
D03*
X130900D02*
D03*
X131700D02*
D03*
X132500D02*
D03*
Y37925D02*
D03*
X131700D02*
D03*
X130900D02*
D03*
X130100D02*
D03*
X129300D02*
D03*
X128500D02*
D03*
X127700D02*
D03*
X126900D02*
D03*
X126100D02*
D03*
X125300D02*
D03*
X124500D02*
D03*
D21*
X113300Y92100D02*
D03*
X110700D02*
D03*
D22*
X122734Y92759D02*
D03*
Y92109D02*
D03*
Y94059D02*
D03*
Y93409D02*
D03*
Y94709D02*
D03*
Y95359D02*
D03*
Y96009D02*
D03*
Y96659D02*
D03*
X128634Y92759D02*
D03*
Y92109D02*
D03*
Y93409D02*
D03*
Y94059D02*
D03*
Y94709D02*
D03*
Y95359D02*
D03*
Y96009D02*
D03*
Y96659D02*
D03*
D23*
X125684Y94384D02*
D03*
D24*
X105333Y83525D02*
D03*
Y84175D02*
D03*
Y84825D02*
D03*
Y85475D02*
D03*
Y86125D02*
D03*
Y86775D02*
D03*
Y87425D02*
D03*
Y88075D02*
D03*
Y88725D02*
D03*
Y89375D02*
D03*
Y90025D02*
D03*
Y90675D02*
D03*
Y91325D02*
D03*
Y91975D02*
D03*
X98433Y83525D02*
D03*
Y84175D02*
D03*
Y84825D02*
D03*
Y85475D02*
D03*
Y86125D02*
D03*
Y86775D02*
D03*
Y87425D02*
D03*
Y88075D02*
D03*
Y88725D02*
D03*
Y89375D02*
D03*
Y90025D02*
D03*
Y90675D02*
D03*
Y91325D02*
D03*
Y91975D02*
D03*
D25*
X140630Y73689D02*
D03*
X138630Y74639D02*
D03*
Y72739D02*
D03*
D26*
X130861Y59985D02*
D03*
X132561D02*
D03*
X137600D02*
D03*
X135900D02*
D03*
X124134Y98750D02*
D03*
X125834D02*
D03*
X93900Y88400D02*
D03*
X92200D02*
D03*
X111150Y88075D02*
D03*
X112850D02*
D03*
X112850Y89900D02*
D03*
X111150D02*
D03*
D27*
X128875Y41750D02*
D03*
X127075D02*
D03*
X127075Y23550D02*
D03*
X128875D02*
D03*
X139600Y37925D02*
D03*
X141400D02*
D03*
X139600Y35669D02*
D03*
X141400D02*
D03*
X124795Y90009D02*
D03*
X126595D02*
D03*
D28*
X141077Y22963D02*
X164537D01*
X125000Y22912D02*
Y23738D01*
X139985Y23538D02*
X140501D01*
X141077Y22963D01*
X122849Y100260D02*
X124134Y98975D01*
Y98750D02*
Y98975D01*
X119600Y100260D02*
X122849D01*
X126959Y20706D02*
X136078D01*
X126198Y21467D02*
Y23538D01*
Y21467D02*
X126959Y20706D01*
X130050Y37975D02*
X130100Y37925D01*
X130050Y37975D02*
Y42950D01*
X130000Y43000D02*
X130050Y42950D01*
X130900Y37925D02*
X130950Y37975D01*
Y42050D02*
X131000Y42100D01*
X130950Y37975D02*
Y42050D01*
X148750Y27100D02*
Y30069D01*
X134161Y21408D02*
X135750D01*
X136078Y20706D02*
X139560Y24188D01*
X145771D01*
X121356Y18302D02*
X132750D01*
X130861Y59760D02*
Y60210D01*
X124500Y53645D02*
X124576Y53721D01*
X124822D02*
X130861Y59760D01*
X124576Y53721D02*
X124822D01*
X102578Y84536D02*
X105114Y82000D01*
X117506D01*
X115150Y85475D02*
X118751Y81874D01*
Y79500D02*
Y81874D01*
X105333Y85475D02*
X115150D01*
X105546Y80975D02*
X116050D01*
X119353Y77672D01*
X99746Y86775D02*
X105546Y80975D01*
X119353Y76515D02*
Y77672D01*
X116295Y79500D02*
X117500Y78295D01*
X99825Y86125D02*
X106450Y79500D01*
X116295D01*
X98433Y86125D02*
X99825D01*
X136011Y63155D02*
X136861Y62305D01*
X134161Y63155D02*
X136011D01*
X143520Y85000D02*
X146188D01*
X147488Y83700D01*
Y72184D02*
Y83700D01*
X149500D01*
X114341Y52895D02*
X117765D01*
X123375Y47285D01*
X140073Y35096D02*
X141100Y34069D01*
X145818D01*
X140073Y35096D02*
X140073D01*
X139600Y35569D02*
X140073Y35096D01*
X139600Y35569D02*
Y35669D01*
X135375Y36275D02*
X138902Y39802D01*
X138723Y38482D02*
Y39052D01*
X140180Y40508D01*
X134150Y36275D02*
X135375D01*
X138902Y39802D02*
Y46025D01*
X140180Y40508D02*
Y46025D01*
X135716Y35475D02*
X138723Y38482D01*
X140062Y39250D02*
X145818D01*
X139913Y38238D02*
Y39101D01*
X134150Y35475D02*
X135716D01*
X139517Y37842D02*
X139913Y38238D01*
Y39101D02*
X140062Y39250D01*
X138768Y37842D02*
X139517D01*
X134150Y34675D02*
X135601D01*
X138768Y37842D01*
X137491Y10918D02*
Y12232D01*
X134150Y15572D02*
Y19708D01*
Y15572D02*
X137491Y12232D01*
X99750Y26250D02*
X118751D01*
X99000Y27571D02*
X99421Y27150D01*
X118751D01*
X98250Y27750D02*
Y49370D01*
Y27750D02*
X99750Y26250D01*
X99000Y27571D02*
Y50620D01*
X66750Y80870D02*
X98250Y49370D01*
X86750Y62870D02*
X99000Y50620D01*
X118751Y28000D02*
X118751Y28000D01*
X99750Y28000D02*
X99750Y28000D01*
X118751D01*
X101500Y28734D02*
X101533Y28767D01*
X118718D01*
X118751Y28800D01*
X86750Y62870D02*
Y62870D01*
X66750Y82870D02*
X86750Y62870D01*
X54344Y11035D02*
X57097Y8282D01*
X108897D02*
X125300Y24685D01*
X57097Y8282D02*
X108897D01*
X89751Y11035D02*
X94000D01*
X104000Y22400D02*
X104250Y22150D01*
X104000Y22400D02*
Y24076D01*
X136500Y28275D02*
Y28344D01*
X135769Y29075D02*
X136500Y28344D01*
X134150Y29075D02*
X135769D01*
X135805Y30675D02*
X136800Y29681D01*
X136034Y29875D02*
X137169Y28740D01*
X136800Y29681D02*
X140000D01*
X137169Y26100D02*
Y28740D01*
X134150Y29875D02*
X136034D01*
X134150Y30675D02*
X135805D01*
X135848Y31475D02*
X136998Y30325D01*
X138141D01*
X134150Y31475D02*
X135848D01*
X140000Y29681D02*
X140800Y28881D01*
X130294Y22891D02*
Y25147D01*
Y22891D02*
X131175Y22010D01*
X130100Y25342D02*
X130294Y25147D01*
X144414Y24996D02*
X145645Y26227D01*
X145211Y24592D02*
X147719Y27100D01*
X131700Y25254D02*
X132362Y24592D01*
X145771Y24188D02*
X146606Y25023D01*
X142800Y25400D02*
X144500Y27100D01*
X132362Y24592D02*
X145211D01*
X135525Y25400D02*
X142800D01*
X134150Y26775D02*
X135525Y25400D01*
X132500Y26100D02*
X133604Y24996D01*
X144414D01*
X130900Y23610D02*
X132500Y22010D01*
X130900Y23610D02*
Y26625D01*
X129752Y22152D02*
X130496Y21408D01*
X134150D01*
X129752Y22152D02*
Y25015D01*
X145645Y26227D02*
X145691D01*
X134150Y26775D02*
Y28275D01*
X122850D02*
X125119D01*
X127894Y31050D01*
X122850Y29075D02*
X124299D01*
X126198Y30974D01*
X53250Y11035D02*
X54344D01*
X48501D02*
X53250D01*
X121511Y81477D02*
Y81477D01*
X121809Y81775D02*
X122034D01*
X120000Y54741D02*
X125312Y49429D01*
X120000Y54741D02*
Y79966D01*
X121511Y81477D01*
Y81477D02*
X121809Y81775D01*
X114376Y40231D02*
X123614D01*
X115776Y41300D02*
X123650D01*
X119230Y42926D02*
X123624D01*
X114341Y45275D02*
X117516Y42100D01*
X123650D01*
X114341Y47815D02*
X119230Y42926D01*
X114341Y42735D02*
X115776Y41300D01*
X123614Y40231D02*
X123650Y40267D01*
X117512Y38450D02*
X118896D01*
X130100Y25342D02*
Y26625D01*
X129300Y25467D02*
X129752Y25015D01*
X129300Y25467D02*
Y26625D01*
X119387Y34150D02*
X120281D01*
X121356Y33075D01*
X122850D01*
X119387Y32725D02*
X120494D01*
X121001Y32218D02*
X122793D01*
X120494Y32725D02*
X121001Y32218D01*
X118751Y35669D02*
X119906D01*
X121700Y33875D02*
X122850D01*
X119906Y35669D02*
X121700Y33875D01*
X121600Y34675D02*
X122850D01*
X119806Y36469D02*
X121600Y34675D01*
X118114Y36469D02*
X119806D01*
X121871Y35475D02*
X122850D01*
X118896Y38450D02*
X121871Y35475D01*
X98433Y86775D02*
X99746D01*
X98433Y88075D02*
X99842D01*
X102578Y84536D02*
Y85339D01*
X99842Y88075D02*
X102578Y85339D01*
X122793Y32218D02*
X122850Y32275D01*
X114341Y40195D02*
X114376Y40231D01*
X120991Y31475D02*
X122850D01*
X120441Y30925D02*
X120991Y31475D01*
X123132Y24076D02*
X124500Y25444D01*
X125300Y24685D02*
Y26625D01*
X126100Y24838D02*
Y26625D01*
X125000Y23738D02*
X126100Y24838D01*
X121360Y22898D02*
Y29673D01*
X112250Y13788D02*
X121360Y22898D01*
X120750Y24828D02*
Y29634D01*
X112250Y16328D02*
X120750Y24828D01*
Y29634D02*
X121791Y30675D01*
X121360Y29673D02*
X121562Y29875D01*
X122850D01*
X121791Y30675D02*
X122850D01*
X124500Y25444D02*
Y26625D01*
X119387Y30925D02*
X120441D01*
X126100Y39250D02*
Y47285D01*
X124500Y37925D02*
Y48565D01*
X125312Y43148D02*
Y49429D01*
X137600Y70269D02*
Y73609D01*
Y69025D02*
Y70269D01*
X135626D02*
X137600D01*
X125300Y43136D02*
X125312Y43148D01*
X125300Y37925D02*
Y43136D01*
X126900Y37925D02*
Y38450D01*
X126100Y39250D02*
X126900Y38450D01*
X122074Y83515D02*
X126821D01*
X122034Y83475D02*
X122074Y83515D01*
X126198Y23538D02*
Y24365D01*
X126900Y25067D01*
X164537Y22963D02*
X164650Y22850D01*
X146606Y25023D02*
X146714D01*
X132500Y26100D02*
Y26625D01*
X131251Y10750D02*
X134150D01*
X140180Y59985D02*
X142630D01*
X140180Y58495D02*
Y59985D01*
X140180Y59985D02*
X140180Y59985D01*
X138690Y59985D02*
X140180D01*
X137600Y59985D02*
X138690D01*
X147341Y64695D02*
Y64820D01*
X133326Y50961D02*
X133447D01*
X136211Y53725D01*
X133250Y50885D02*
X133326Y50961D01*
X136211Y53725D02*
Y53846D01*
X131700Y37925D02*
Y40267D01*
X132500Y37925D02*
Y39665D01*
X145818Y34069D02*
X146691Y33196D01*
Y31800D02*
Y33196D01*
X134150Y33875D02*
X135751D01*
X137546Y35669D01*
X139600D01*
X145818Y39250D02*
X146691Y40123D01*
Y41300D01*
X135928Y31879D02*
X137181D01*
X135532Y32275D02*
X135928Y31879D01*
X137181D02*
X137491Y31569D01*
X134150Y32275D02*
X135532D01*
X131700Y25254D02*
Y26625D01*
X147719Y27100D02*
X148750D01*
X126900Y25067D02*
Y26625D01*
X159060Y25037D02*
X159357Y24740D01*
X156099Y28001D02*
X159060Y25040D01*
X156099Y28001D02*
Y41400D01*
X159060Y25037D02*
Y25040D01*
X159250Y24740D02*
X161800D01*
X161640Y27100D02*
X161800Y26940D01*
X160000Y27100D02*
X161640D01*
X154299Y27640D02*
Y41400D01*
Y27640D02*
X158299Y23640D01*
X158600Y29140D02*
X161800D01*
X157899Y29840D02*
Y41400D01*
Y29840D02*
X158600Y29140D01*
X158299Y23640D02*
X161800D01*
X159700Y30069D02*
X161229D01*
X159700D02*
Y41400D01*
X161500Y31613D02*
X161773Y31340D01*
X161500Y31613D02*
Y41400D01*
X161773Y31340D02*
X161800D01*
X161229Y30069D02*
X161400Y30240D01*
X112002Y23700D02*
X112250Y23948D01*
X107750Y23700D02*
X112002D01*
X104350Y22150D02*
X105900Y23700D01*
X107750D01*
X104250Y22150D02*
X104350D01*
X128875Y23550D02*
Y24567D01*
X128500Y24942D02*
Y26625D01*
Y24942D02*
X128875Y24567D01*
X164900Y22850D02*
X165650Y23600D01*
Y36000D01*
X164650Y22850D02*
X164900D01*
X164125Y43950D02*
X165650Y42425D01*
X163900Y43950D02*
X164125D01*
X165650Y36000D02*
Y42425D01*
X138902Y67598D02*
X139375Y67125D01*
X137600Y69025D02*
X138902Y67723D01*
X139375Y67125D02*
X139500D01*
X138902Y67598D02*
Y67723D01*
X138307Y74366D02*
X138580Y74639D01*
X137600Y73609D02*
X138307Y74316D01*
X138580Y74639D02*
X138630D01*
X138307Y74316D02*
Y74366D01*
X142408Y72184D02*
X144948Y69644D01*
X140680Y73689D02*
X142185Y72184D01*
X140630Y73689D02*
X140680D01*
X142185Y72184D02*
X142408D01*
X93900Y88175D02*
X94650Y87425D01*
X98433D01*
X93900Y88175D02*
Y88400D01*
X103607Y86088D02*
X105295D01*
X103458Y86236D02*
Y87926D01*
Y86236D02*
X103607Y86088D01*
X105295D02*
X105333Y86125D01*
X103458Y87926D02*
X103607Y88075D01*
X105333D01*
X108181Y87425D02*
X108831Y88075D01*
X111150D01*
X105333Y87425D02*
X108181D01*
X127425Y23900D02*
Y24748D01*
X127700Y25023D02*
Y26625D01*
X127425Y24748D02*
X127700Y25023D01*
X127075Y23550D02*
X127425Y23900D01*
X134150Y33075D02*
X135751D01*
X136046Y33369D01*
X137491D01*
X128500Y37925D02*
Y39665D01*
X128875Y40040D01*
Y41750D01*
X127075Y40795D02*
X127700Y40170D01*
Y37925D02*
Y40170D01*
X127075Y40795D02*
Y41750D01*
X120750Y96084D02*
Y96243D01*
Y95359D02*
Y96084D01*
X132164Y94059D02*
X132264Y94159D01*
X120750Y96084D02*
X120825Y96009D01*
X122734D01*
X120493Y96500D02*
X120750Y96243D01*
X116100Y96500D02*
X120493D01*
X120750Y91884D02*
Y92759D01*
Y94059D01*
X120750Y92759D02*
X122734D01*
X120750Y92759D02*
X120750Y92759D01*
X120750Y91884D02*
X122625Y90009D01*
X124795D01*
X127719D02*
X129750Y92040D01*
X126595Y90009D02*
X127719D01*
X129750Y92040D02*
Y92600D01*
X129591Y92759D02*
X129750Y92600D01*
X128634Y92759D02*
X129591D01*
X130914Y93409D02*
X132064Y92259D01*
X128634Y93409D02*
X130914D01*
X132064Y92259D02*
X132164D01*
X128634Y95359D02*
X130500D01*
Y94709D02*
Y95359D01*
Y95786D01*
Y94059D02*
Y94709D01*
X128634D02*
X130500D01*
X128634Y94059D02*
X130500D01*
X132164D01*
X130277Y96009D02*
X130500Y95786D01*
X128634Y96009D02*
X130277D01*
X120750Y94059D02*
Y94709D01*
Y94059D02*
X122734D01*
X120750Y94709D02*
Y95359D01*
Y94709D02*
X122734D01*
X120750Y95359D02*
X122734D01*
X126835Y64235D02*
X130861Y60210D01*
X126141Y64695D02*
X126600Y64235D01*
X126835D01*
X126141Y64695D02*
Y64820D01*
X134161Y72875D02*
X136211Y74925D01*
X134161Y63155D02*
Y72875D01*
X136211Y74925D02*
Y75050D01*
X142630Y59985D02*
X147341Y64695D01*
X134161Y55900D02*
X135626Y54434D01*
X135751D02*
X136211Y53975D01*
X134161Y55900D02*
Y56795D01*
X135626Y54434D02*
X135751D01*
X136211Y53850D02*
Y53975D01*
D29*
X131493Y98750D02*
X132243Y98000D01*
X125834Y98750D02*
X131493D01*
X132243Y98000D02*
X132264D01*
X137491Y31569D02*
X142069D01*
X143500Y33000D01*
X123650Y59004D02*
Y65581D01*
X125169Y67100D02*
X129109D01*
X123650Y65581D02*
X125169Y67100D01*
X121641Y56995D02*
X123650Y59004D01*
X121641Y56870D02*
Y56995D01*
X113500Y92100D02*
X113750Y91850D01*
Y91709D02*
X114043Y91416D01*
X113300Y92100D02*
X113500D01*
X113750Y91709D02*
Y91850D01*
X114043Y91416D02*
X116100D01*
X116100Y96500D02*
Y98021D01*
X138520Y87803D02*
X147272D01*
X149375Y85700D01*
X149500D01*
X138520Y85000D02*
Y87803D01*
X129109Y67100D02*
X131711D01*
X129109Y75590D02*
X138520Y85000D01*
X129109Y67100D02*
Y75590D01*
X90000Y84666D02*
Y89800D01*
Y83525D02*
Y84666D01*
X89796Y84870D02*
X90000Y84666D01*
X66750Y84870D02*
X89796D01*
X128875Y21408D02*
Y23550D01*
X137391Y51500D02*
X143033D01*
X152225Y43125D02*
X161426D01*
X127075Y41750D02*
X127318Y41993D01*
Y42868D02*
X129900Y45450D01*
X131311D01*
X127318Y41993D02*
Y42868D01*
X131311Y45450D02*
X131711Y45850D01*
Y46025D01*
X132316Y46425D02*
X137362Y51471D01*
X132111Y46425D02*
X132316D01*
X131711Y46025D02*
X132111Y46425D01*
X143033Y51500D02*
X143750D01*
X163900Y28333D02*
Y42250D01*
X162900Y43100D02*
X163500Y42500D01*
Y42425D02*
X163675Y42250D01*
X161500Y43100D02*
X162900D01*
X163500Y42425D02*
Y42500D01*
X163675Y42250D02*
X163900D01*
X143033Y51500D02*
Y56678D01*
X143033Y51500D02*
X143033Y51500D01*
X142841Y56870D02*
X143033Y56678D01*
X111205Y88130D02*
X111260Y88075D01*
X93900Y91325D02*
X98433D01*
X91525D02*
X93900D01*
X90000Y83525D02*
X98433D01*
X90000Y89800D02*
X91525Y91325D01*
X109755Y22000D02*
X110347Y21408D01*
X112250D01*
X107750Y22000D02*
X109755D01*
X163607Y28040D02*
X163900Y28333D01*
X162000Y28040D02*
X163607D01*
X152200Y43150D02*
X152225Y43125D01*
X143750Y51500D02*
X152100Y43150D01*
X152200D01*
X131711Y64845D02*
Y67100D01*
X132264Y94159D02*
Y98000D01*
Y94059D02*
X138520Y87803D01*
X111205Y88130D02*
Y89845D01*
X111150Y89900D02*
X111205Y89845D01*
X116100Y91416D02*
X116100Y91416D01*
X116100Y91416D02*
Y93900D01*
X110900Y92100D02*
X112675Y90325D01*
X110700Y92100D02*
X110900D01*
X112675Y90075D02*
Y90325D01*
Y90075D02*
X112850Y89900D01*
X110725Y92125D02*
Y95359D01*
X110700Y92100D02*
X110725Y92125D01*
Y95359D02*
X110750Y95384D01*
D30*
X103132Y98533D02*
Y98699D01*
X102383Y98750D02*
X102434Y98699D01*
Y98533D02*
X102467Y98500D01*
X103132Y98699D02*
X103183Y98750D01*
X103098Y98500D02*
X103132Y98533D01*
X102434D02*
Y98699D01*
X103458Y97500D02*
X103683D01*
X102467Y97860D02*
Y98500D01*
X102108Y97500D02*
X102467Y97860D01*
X103098D02*
Y98500D01*
Y97860D02*
X103458Y97500D01*
X101883D02*
X102108D01*
X98433Y91975D02*
X101344D01*
X101567Y92198D01*
X102467Y94653D02*
Y95440D01*
X102198Y93492D02*
X103098Y94392D01*
X102198Y92198D02*
Y93492D01*
X101567Y92198D02*
Y93753D01*
X102422Y91975D02*
X105333D01*
X102198Y92198D02*
X102422Y91975D01*
X102108Y95800D02*
X102467Y95440D01*
X103458Y95800D02*
X103683D01*
X101567Y93753D02*
X102467Y94653D01*
X103098Y95440D02*
X103458Y95800D01*
X103098Y94392D02*
Y95440D01*
X101883Y95800D02*
X102108D01*
D31*
X38131Y78295D02*
D03*
X119600Y100260D02*
D03*
X114341Y78295D02*
D03*
D32*
X38131Y75755D02*
D03*
Y73215D02*
D03*
Y70675D02*
D03*
Y68135D02*
D03*
Y65595D02*
D03*
Y63055D02*
D03*
Y60515D02*
D03*
Y57975D02*
D03*
Y55435D02*
D03*
Y52895D02*
D03*
Y50355D02*
D03*
Y47815D02*
D03*
Y45275D02*
D03*
Y42735D02*
D03*
Y40195D02*
D03*
Y37655D02*
D03*
Y35115D02*
D03*
Y32575D02*
D03*
Y30035D02*
D03*
X119600Y102540D02*
D03*
X114341Y30035D02*
D03*
Y32575D02*
D03*
Y35115D02*
D03*
Y37655D02*
D03*
Y40195D02*
D03*
Y42735D02*
D03*
Y45275D02*
D03*
Y47815D02*
D03*
Y50355D02*
D03*
Y52895D02*
D03*
Y55435D02*
D03*
Y57975D02*
D03*
Y60515D02*
D03*
Y63055D02*
D03*
Y65595D02*
D03*
Y68135D02*
D03*
Y70675D02*
D03*
Y73215D02*
D03*
Y75755D02*
D03*
D33*
X44750Y84870D02*
D03*
Y82870D02*
D03*
Y80870D02*
D03*
Y78870D02*
D03*
Y76870D02*
D03*
Y72870D02*
D03*
Y68870D02*
D03*
Y66870D02*
D03*
X66750Y78870D02*
D03*
Y74870D02*
D03*
Y72870D02*
D03*
Y70870D02*
D03*
Y68870D02*
D03*
Y66870D02*
D03*
Y76870D02*
D03*
Y80870D02*
D03*
Y82870D02*
D03*
Y84870D02*
D03*
X44750Y70870D02*
D03*
Y74870D02*
D03*
D34*
X126821Y80975D02*
D03*
Y83515D02*
D03*
X112250Y21408D02*
D03*
Y18868D02*
D03*
Y16328D02*
D03*
Y13788D02*
D03*
D35*
X138520Y85000D02*
D03*
X143520D02*
D03*
D36*
X77251Y16035D02*
D03*
X89751Y11035D02*
D03*
Y16035D02*
D03*
X77251Y11035D02*
D03*
X118751Y15750D02*
D03*
X131251Y10750D02*
D03*
Y15750D02*
D03*
X118751Y10750D02*
D03*
X48501Y16035D02*
D03*
X36001Y11035D02*
D03*
X48501D02*
D03*
X36001Y16035D02*
D03*
D37*
X112250Y23948D02*
D03*
D38*
X147488Y72184D02*
D03*
D39*
X142408D02*
D03*
X144948Y69644D02*
D03*
D40*
X106600Y101950D02*
D03*
X101600D02*
D03*
D41*
X107975Y104700D02*
D03*
X100225D02*
D03*
D42*
X107825Y100900D02*
D03*
X100375D02*
D03*
D43*
X125000Y22912D02*
D03*
X139985Y23538D02*
D03*
X127625Y21908D02*
D03*
X111105Y83718D02*
D03*
X130000Y43000D02*
D03*
X131000Y42100D02*
D03*
X143500Y33000D02*
D03*
X148750Y30069D02*
D03*
X135750Y21408D02*
D03*
X132750Y18302D02*
D03*
X124500Y53645D02*
D03*
X117506Y82000D02*
D03*
X118751Y79500D02*
D03*
X117500Y78295D02*
D03*
X119353Y76515D02*
D03*
X103183Y98750D02*
D03*
X102383D02*
D03*
X116100Y98021D02*
D03*
X136861Y62305D02*
D03*
X99750Y28000D02*
D03*
X101500Y28734D02*
D03*
X92825Y85966D02*
D03*
X104000Y24076D02*
D03*
X136500Y28275D02*
D03*
X137469Y26100D02*
D03*
X131175Y22010D02*
D03*
X132500D02*
D03*
X144500Y27100D02*
D03*
X140800Y28881D02*
D03*
X138141Y30325D02*
D03*
X127894Y31050D02*
D03*
X126198Y30974D02*
D03*
X123624Y42926D02*
D03*
X123650Y42100D02*
D03*
Y41300D02*
D03*
Y40267D02*
D03*
X123375Y47285D02*
D03*
X117512Y38450D02*
D03*
X118114Y36469D02*
D03*
X118751Y35669D02*
D03*
X119387Y34150D02*
D03*
X121356Y18302D02*
D03*
X118751Y28800D02*
D03*
Y28000D02*
D03*
Y27150D02*
D03*
Y26250D02*
D03*
X123132Y24076D02*
D03*
X126100Y47285D02*
D03*
X124500Y48565D02*
D03*
X135626Y70269D02*
D03*
X146714Y25023D02*
D03*
X140180Y46025D02*
D03*
X138902D02*
D03*
X140180Y58495D02*
D03*
X133250Y50885D02*
D03*
X131700Y40267D02*
D03*
X132500Y39665D02*
D03*
X145691Y26227D02*
D03*
X159250Y24740D02*
D03*
X160000Y27100D02*
D03*
X158600Y29140D02*
D03*
X159700Y30069D02*
D03*
X128875Y21408D02*
D03*
X137391Y51500D02*
D03*
X93900Y91325D02*
D03*
X131711Y64845D02*
D03*
X132264Y98000D02*
D03*
X110750Y95384D02*
D03*
D44*
X153000Y88000D02*
D03*
X159500Y75000D02*
D03*
X153000Y62000D02*
D03*
X159500Y49000D02*
D03*
X153000Y36000D02*
D03*
Y10000D02*
D03*
X146500Y75000D02*
D03*
X140000Y62000D02*
D03*
Y10000D02*
D03*
X127000Y88000D02*
D03*
X133500Y75000D02*
D03*
X127000Y62000D02*
D03*
Y36000D02*
D03*
Y10000D02*
D03*
X114000D02*
D03*
X107500Y75000D02*
D03*
X101000Y62000D02*
D03*
X107500Y49000D02*
D03*
X101000Y36000D02*
D03*
Y10000D02*
D03*
X94500Y75000D02*
D03*
X88000Y36000D02*
D03*
X94500Y23000D02*
D03*
X88000Y10000D02*
D03*
X81500Y75000D02*
D03*
X75000Y62000D02*
D03*
X81500Y49000D02*
D03*
X75000Y36000D02*
D03*
X81500Y23000D02*
D03*
X75000Y10000D02*
D03*
X62000Y62000D02*
D03*
X68500Y49000D02*
D03*
X62000Y36000D02*
D03*
X68500Y23000D02*
D03*
X62000Y10000D02*
D03*
X55500Y75000D02*
D03*
X49000Y62000D02*
D03*
X55500Y49000D02*
D03*
X49000Y36000D02*
D03*
X55500Y23000D02*
D03*
X42500Y75000D02*
D03*
X36000Y62000D02*
D03*
X42500Y49000D02*
D03*
X36000Y36000D02*
D03*
X42500Y23000D02*
D03*
X29500Y75000D02*
D03*
X23000Y62000D02*
D03*
X29500Y49000D02*
D03*
X23000Y36000D02*
D03*
X29500Y23000D02*
D03*
X23000Y10000D02*
D03*
X16500Y75000D02*
D03*
X10000Y62000D02*
D03*
X16500Y49000D02*
D03*
X10000Y36000D02*
D03*
X16500Y23000D02*
D03*
X10000Y10000D02*
D03*
D45*
X124684Y93384D02*
D03*
X125684D02*
D03*
X126684D02*
D03*
X124684Y94384D02*
D03*
Y95384D02*
D03*
X125684Y94384D02*
D03*
Y95384D02*
D03*
X126684Y94384D02*
D03*
Y95384D02*
D03*
%TF.MD5,7b8f00fe6ef151883d317eb39ff59e11*%
M02*
