%TF.GenerationSoftware,Altium Limited,Altium Designer,21.6.1 (37)*%
G04 Layer_Physical_Order=2*
G04 Layer_Color=16711680*
%FSLAX43Y43*%
%MOMM*%
%TF.SameCoordinates,2DC9C271-DD38-4FBD-9B37-034AA9505664*%
%TF.FilePolarity,Positive*%
%TF.FileFunction,Copper,L2,Bot,Signal*%
%TF.Part,Single*%
G01*
G75*
%TA.AperFunction,SMDPad,CuDef*%
%ADD23R,3.100X3.100*%
%TA.AperFunction,Conductor*%
%ADD28C,0.254*%
%ADD29C,0.500*%
%ADD30C,0.381*%
%TA.AperFunction,ComponentPad*%
%ADD31R,1.500X1.500*%
%ADD32C,1.500*%
%ADD33C,1.200*%
%ADD34C,1.600*%
%ADD35C,1.400*%
%ADD36C,1.800*%
%ADD37R,1.600X1.600*%
%ADD38R,1.250X1.250*%
%ADD39C,1.250*%
%ADD40C,0.800*%
%ADD41O,1.150X1.800*%
%ADD42O,1.450X2.000*%
%TA.AperFunction,ViaPad*%
%ADD43C,0.650*%
%ADD44C,1.270*%
%ADD45C,0.750*%
%TA.AperFunction,SMDPad,CuDef*%
%ADD46R,3.800X2.030*%
%ADD47R,2.030X3.800*%
%ADD48R,0.450X1.300*%
G36*
X158372Y87127D02*
X158392Y87030D01*
X158447Y86947D01*
X158530Y86892D01*
X158627Y86872D01*
X166873D01*
X166879Y19717D01*
X166789Y19628D01*
X158627D01*
X158530Y19608D01*
X158447Y19553D01*
X158392Y19470D01*
X158372Y19373D01*
Y127D01*
X8627D01*
Y19373D01*
X8608Y19470D01*
X8553Y19553D01*
X8470Y19608D01*
X8373Y19628D01*
X127D01*
Y86872D01*
X8373D01*
X8470Y86892D01*
X8553Y86947D01*
X8588Y87000D01*
X8750D01*
X8750Y86250D01*
X87500D01*
Y106372D01*
X158372D01*
Y87127D01*
D02*
G37*
%LPC*%
G36*
X108075Y105794D02*
Y104800D01*
X108757D01*
Y105025D01*
X108730Y105227D01*
X108652Y105416D01*
X108528Y105578D01*
X108366Y105702D01*
X108177Y105780D01*
X108075Y105794D01*
D02*
G37*
G36*
X107875D02*
X107773Y105780D01*
X107584Y105702D01*
X107422Y105578D01*
X107298Y105416D01*
X107220Y105227D01*
X107193Y105025D01*
Y104800D01*
X107875D01*
Y105794D01*
D02*
G37*
G36*
X100325D02*
Y104800D01*
X101007D01*
Y105025D01*
X100980Y105227D01*
X100902Y105416D01*
X100778Y105578D01*
X100616Y105702D01*
X100427Y105780D01*
X100325Y105794D01*
D02*
G37*
G36*
X100125D02*
X100023Y105780D01*
X99834Y105702D01*
X99672Y105578D01*
X99548Y105416D01*
X99470Y105227D01*
X99443Y105025D01*
Y104800D01*
X100125D01*
Y105794D01*
D02*
G37*
G36*
X101007Y104600D02*
X100325D01*
Y103606D01*
X100427Y103620D01*
X100616Y103698D01*
X100778Y103822D01*
X100902Y103984D01*
X100980Y104173D01*
X101007Y104375D01*
Y104600D01*
D02*
G37*
G36*
X100125D02*
X99443D01*
Y104375D01*
X99470Y104173D01*
X99548Y103984D01*
X99672Y103822D01*
X99834Y103698D01*
X100023Y103620D01*
X100125Y103606D01*
Y104600D01*
D02*
G37*
G36*
X119725Y103490D02*
X119700D01*
Y102640D01*
X120550D01*
Y102665D01*
X120485Y102907D01*
X120360Y103123D01*
X120183Y103300D01*
X119967Y103425D01*
X119725Y103490D01*
D02*
G37*
G36*
X119500D02*
X119475D01*
X119233Y103425D01*
X119017Y103300D01*
X118840Y103123D01*
X118715Y102907D01*
X118650Y102665D01*
Y102640D01*
X119500D01*
Y103490D01*
D02*
G37*
G36*
X101709Y102500D02*
X101491D01*
X101288Y102416D01*
X101134Y102262D01*
X101050Y102059D01*
Y101983D01*
X100923Y101920D01*
X100841Y101983D01*
X100616Y102076D01*
X100475Y102095D01*
Y101000D01*
X101308D01*
Y101175D01*
X101285Y101348D01*
X101399Y101438D01*
X101491Y101400D01*
X101709D01*
X101912Y101484D01*
X102066Y101638D01*
X102150Y101841D01*
Y102059D01*
X102066Y102262D01*
X101912Y102416D01*
X101709Y102500D01*
D02*
G37*
G36*
X120550Y102440D02*
X119700D01*
Y101590D01*
X119725D01*
X119967Y101655D01*
X120183Y101780D01*
X120360Y101957D01*
X120485Y102173D01*
X120550Y102415D01*
Y102440D01*
D02*
G37*
G36*
X119500D02*
X118650D01*
Y102415D01*
X118715Y102173D01*
X118840Y101957D01*
X119017Y101780D01*
X119233Y101655D01*
X119475Y101590D01*
X119500D01*
Y102440D01*
D02*
G37*
G36*
X107925Y102095D02*
Y101000D01*
X108758D01*
Y101175D01*
X108726Y101416D01*
X108633Y101641D01*
X108485Y101835D01*
X108291Y101983D01*
X108066Y102076D01*
X107925Y102095D01*
D02*
G37*
G36*
X106709Y102500D02*
X106491D01*
X106288Y102416D01*
X106134Y102262D01*
X106050Y102059D01*
Y101841D01*
X106134Y101638D01*
X106288Y101484D01*
X106491Y101400D01*
X106709D01*
X106801Y101438D01*
X106915Y101348D01*
X106892Y101175D01*
Y101000D01*
X107725D01*
Y102095D01*
X107584Y102076D01*
X107359Y101983D01*
X107277Y101920D01*
X107150Y101983D01*
Y102059D01*
X107066Y102262D01*
X106912Y102416D01*
X106709Y102500D01*
D02*
G37*
G36*
X105825Y101750D02*
X105500D01*
Y101000D01*
X105825D01*
Y101750D01*
D02*
G37*
G36*
X100275Y102095D02*
X100134Y102076D01*
X99909Y101983D01*
X99715Y101835D01*
X99567Y101641D01*
X99474Y101416D01*
X99442Y101175D01*
Y101000D01*
X100275D01*
Y102095D01*
D02*
G37*
G36*
X142100Y101715D02*
X140100D01*
Y100600D01*
X142100D01*
Y101715D01*
D02*
G37*
G36*
X139900D02*
X137900D01*
Y100600D01*
X139900D01*
Y101715D01*
D02*
G37*
G36*
X105825Y100800D02*
X105500D01*
Y100050D01*
X105825D01*
Y100800D01*
D02*
G37*
G36*
X108758D02*
X107925D01*
Y99705D01*
X108066Y99724D01*
X108291Y99817D01*
X108485Y99965D01*
X108633Y100159D01*
X108726Y100384D01*
X108758Y100625D01*
Y100800D01*
D02*
G37*
G36*
X107725D02*
X106892D01*
Y100625D01*
X106924Y100384D01*
X107017Y100159D01*
X107165Y99965D01*
X107359Y99817D01*
X107584Y99724D01*
X107725Y99705D01*
Y100800D01*
D02*
G37*
G36*
X101308D02*
X100475D01*
Y99705D01*
X100616Y99724D01*
X100841Y99817D01*
X101035Y99965D01*
X101183Y100159D01*
X101276Y100384D01*
X101308Y100625D01*
Y100800D01*
D02*
G37*
G36*
X100275D02*
X99442D01*
Y100625D01*
X99474Y100384D01*
X99567Y100159D01*
X99715Y99965D01*
X99909Y99817D01*
X100134Y99724D01*
X100275Y99705D01*
Y100800D01*
D02*
G37*
G36*
X94300Y100684D02*
X92300D01*
Y99569D01*
X94300D01*
Y100684D01*
D02*
G37*
G36*
X92100D02*
X90100D01*
Y99569D01*
X92100D01*
Y100684D01*
D02*
G37*
G36*
X120500Y101160D02*
X118700D01*
Y99360D01*
X120500D01*
Y101160D01*
D02*
G37*
G36*
X142100Y100400D02*
X140100D01*
Y99285D01*
X142100D01*
Y100400D01*
D02*
G37*
G36*
X139900D02*
X137900D01*
Y99285D01*
X139900D01*
Y100400D01*
D02*
G37*
G36*
X128071Y101665D02*
X123971D01*
Y99797D01*
X122581Y98408D01*
X116385D01*
X116369Y98423D01*
X116194Y98496D01*
X116006D01*
X115831Y98423D01*
X115697Y98290D01*
X115625Y98115D01*
Y97926D01*
X115697Y97752D01*
X115831Y97618D01*
X116006Y97546D01*
X116194D01*
X116307Y97592D01*
X122750D01*
X122750Y97592D01*
X122906Y97623D01*
X123038Y97712D01*
X124659Y99332D01*
X124659Y99332D01*
X124661Y99335D01*
X128071D01*
Y101665D01*
D02*
G37*
G36*
X94300Y99369D02*
X92300D01*
Y98254D01*
X94300D01*
Y99369D01*
D02*
G37*
G36*
X92100D02*
X90100D01*
Y98254D01*
X92100D01*
Y99369D01*
D02*
G37*
G36*
X108757Y104600D02*
X107193D01*
Y104375D01*
X107220Y104173D01*
X107298Y103984D01*
X107422Y103822D01*
X107584Y103698D01*
X107773Y103620D01*
X107885Y103605D01*
X107877Y103478D01*
X103021D01*
X102865Y103447D01*
X102733Y103359D01*
X102512Y103138D01*
X102423Y103005D01*
X102392Y102849D01*
X102392Y102849D01*
Y100900D01*
X102423Y100744D01*
X102425Y100741D01*
Y100100D01*
X103112D01*
Y99763D01*
X102907D01*
X102774Y99736D01*
X102662Y99661D01*
X102272Y99271D01*
X102223Y99198D01*
X102114Y99153D01*
X101980Y99019D01*
X101908Y98844D01*
Y98656D01*
X101980Y98481D01*
X102114Y98347D01*
X102288Y98275D01*
X102477D01*
X102652Y98347D01*
X102783Y98478D01*
X102914Y98347D01*
X103088Y98275D01*
X103277D01*
X103452Y98347D01*
X103545Y98440D01*
X103665Y98464D01*
X103778Y98539D01*
X104336Y99097D01*
X104411Y99210D01*
X104438Y99343D01*
Y100100D01*
X104975D01*
Y100050D01*
X105300D01*
Y100900D01*
Y101750D01*
X104975D01*
Y101700D01*
X103208D01*
Y102662D01*
X109261D01*
X110342Y101581D01*
Y95641D01*
X110275Y95479D01*
Y95290D01*
X110347Y95115D01*
X110481Y94981D01*
X110656Y94909D01*
X110844D01*
X111019Y94981D01*
X111153Y95115D01*
X111225Y95290D01*
Y95479D01*
X111158Y95641D01*
Y101750D01*
X111158Y101750D01*
X111127Y101906D01*
X111038Y102038D01*
X111038Y102038D01*
X109718Y103359D01*
X109586Y103447D01*
X109430Y103478D01*
X109430Y103478D01*
X108073D01*
X108065Y103605D01*
X108177Y103620D01*
X108366Y103698D01*
X108528Y103822D01*
X108652Y103984D01*
X108730Y104173D01*
X108757Y104375D01*
Y104600D01*
D02*
G37*
G36*
X127434Y96134D02*
X125784D01*
Y94484D01*
X127434D01*
Y96134D01*
D02*
G37*
G36*
X125584D02*
X123934D01*
Y94484D01*
X125584D01*
Y96134D01*
D02*
G37*
G36*
X149697Y97250D02*
X149303D01*
X148917Y97173D01*
X148553Y97022D01*
X148225Y96803D01*
X147947Y96525D01*
X147728Y96197D01*
X147577Y95833D01*
X147500Y95447D01*
Y95053D01*
X147577Y94667D01*
X147728Y94303D01*
X147947Y93975D01*
X148225Y93697D01*
X148553Y93478D01*
X148917Y93327D01*
X149303Y93250D01*
X149697D01*
X150083Y93327D01*
X150447Y93478D01*
X150775Y93697D01*
X151053Y93975D01*
X151272Y94303D01*
X151423Y94667D01*
X151500Y95053D01*
Y95447D01*
X151423Y95833D01*
X151272Y96197D01*
X151053Y96525D01*
X150775Y96803D01*
X150447Y97022D01*
X150083Y97173D01*
X149697Y97250D01*
D02*
G37*
G36*
X127434Y94284D02*
X125784D01*
Y92634D01*
X127434D01*
Y94284D01*
D02*
G37*
G36*
X125584D02*
X123934D01*
Y92634D01*
X125584D01*
Y94284D01*
D02*
G37*
G36*
X135300Y101665D02*
X131200D01*
Y99335D01*
X132842D01*
Y99155D01*
X132157Y98470D01*
X131995Y98403D01*
X131861Y98269D01*
X131789Y98094D01*
Y97906D01*
X131856Y97743D01*
Y96353D01*
X127236Y91733D01*
X94157D01*
X93994Y91800D01*
X93806D01*
X93631Y91728D01*
X93497Y91594D01*
X93425Y91419D01*
Y91231D01*
X93497Y91056D01*
X93631Y90922D01*
X93806Y90850D01*
X93994D01*
X94157Y90917D01*
X127405D01*
X127405Y90917D01*
X127561Y90948D01*
X127693Y91037D01*
X132552Y95896D01*
X132641Y96028D01*
X132672Y96184D01*
X132672Y96184D01*
Y97743D01*
X132734Y97893D01*
X133538Y98698D01*
X133538Y98698D01*
X133627Y98830D01*
X133658Y98986D01*
X133658Y98986D01*
Y99335D01*
X135300D01*
Y101665D01*
D02*
G37*
G36*
X153110Y88835D02*
X153100D01*
Y88100D01*
X153835D01*
Y88110D01*
X153778Y88322D01*
X153668Y88513D01*
X153513Y88668D01*
X153322Y88778D01*
X153110Y88835D01*
D02*
G37*
G36*
X152900D02*
X152890D01*
X152678Y88778D01*
X152487Y88668D01*
X152332Y88513D01*
X152222Y88322D01*
X152165Y88110D01*
Y88100D01*
X152900D01*
Y88835D01*
D02*
G37*
G36*
X127110D02*
X127100D01*
Y88100D01*
X127835D01*
Y88110D01*
X127778Y88322D01*
X127668Y88513D01*
X127513Y88668D01*
X127322Y88778D01*
X127110Y88835D01*
D02*
G37*
G36*
X126900D02*
X126890D01*
X126678Y88778D01*
X126487Y88668D01*
X126332Y88513D01*
X126222Y88322D01*
X126165Y88110D01*
Y88100D01*
X126900D01*
Y88835D01*
D02*
G37*
G36*
X153835Y87900D02*
X153100D01*
Y87165D01*
X153110D01*
X153322Y87222D01*
X153513Y87332D01*
X153668Y87487D01*
X153778Y87678D01*
X153835Y87890D01*
Y87900D01*
D02*
G37*
G36*
X152900D02*
X152165D01*
Y87890D01*
X152222Y87678D01*
X152332Y87487D01*
X152487Y87332D01*
X152678Y87222D01*
X152890Y87165D01*
X152900D01*
Y87900D01*
D02*
G37*
G36*
X127835D02*
X127100D01*
Y87165D01*
X127110D01*
X127322Y87222D01*
X127513Y87332D01*
X127668Y87487D01*
X127778Y87678D01*
X127835Y87890D01*
Y87900D01*
D02*
G37*
G36*
X126900D02*
X126165D01*
Y87890D01*
X126222Y87678D01*
X126332Y87487D01*
X126487Y87332D01*
X126678Y87222D01*
X126890Y87165D01*
X126900D01*
Y87900D01*
D02*
G37*
G36*
X92929Y86491D02*
X92925D01*
Y86066D01*
X93350D01*
Y86070D01*
X93270Y86263D01*
X93122Y86411D01*
X92929Y86491D01*
D02*
G37*
G36*
X92725D02*
X92721D01*
X92528Y86411D01*
X92380Y86263D01*
X92300Y86070D01*
Y86066D01*
X92725D01*
Y86491D01*
D02*
G37*
G36*
X93350Y85866D02*
X92925D01*
Y85441D01*
X92929D01*
X93122Y85521D01*
X93270Y85669D01*
X93350Y85861D01*
Y85866D01*
D02*
G37*
G36*
X92725D02*
X92300D01*
Y85861D01*
X92380Y85669D01*
X92528Y85521D01*
X92721Y85441D01*
X92725D01*
Y85866D01*
D02*
G37*
G36*
X143631Y85850D02*
X143408D01*
X143191Y85792D01*
X142998Y85680D01*
X142839Y85522D01*
X142727Y85328D01*
X142670Y85112D01*
Y84888D01*
X142727Y84672D01*
X142839Y84478D01*
X142998Y84320D01*
X143191Y84208D01*
X143408Y84150D01*
X143631D01*
X143848Y84208D01*
X144041Y84320D01*
X144200Y84478D01*
X144312Y84672D01*
X144370Y84888D01*
Y85112D01*
X144312Y85328D01*
X144200Y85522D01*
X144041Y85680D01*
X143848Y85792D01*
X143631Y85850D01*
D02*
G37*
G36*
X138631D02*
X138408D01*
X138191Y85792D01*
X137998Y85680D01*
X137839Y85522D01*
X137727Y85328D01*
X137670Y85112D01*
Y84888D01*
X137727Y84672D01*
X137839Y84478D01*
X137998Y84320D01*
X138191Y84208D01*
X138408Y84150D01*
X138631D01*
X138848Y84208D01*
X139041Y84320D01*
X139200Y84478D01*
X139312Y84672D01*
X139370Y84888D01*
Y85112D01*
X139312Y85328D01*
X139200Y85522D01*
X139041Y85680D01*
X138848Y85792D01*
X138631Y85850D01*
D02*
G37*
G36*
X66849Y85620D02*
X66651D01*
X66461Y85569D01*
X66289Y85470D01*
X66150Y85331D01*
X66051Y85160D01*
X66000Y84969D01*
Y84771D01*
X66051Y84581D01*
X66150Y84410D01*
X66289Y84270D01*
X66461Y84171D01*
X66651Y84120D01*
X66849D01*
X67039Y84171D01*
X67211Y84270D01*
X67350Y84410D01*
X67449Y84581D01*
X67500Y84771D01*
Y84969D01*
X67449Y85160D01*
X67350Y85331D01*
X67211Y85470D01*
X67039Y85569D01*
X66849Y85620D01*
D02*
G37*
G36*
X44849D02*
X44651D01*
X44461Y85569D01*
X44289Y85470D01*
X44150Y85331D01*
X44051Y85160D01*
X44000Y84969D01*
Y84771D01*
X44051Y84581D01*
X44150Y84410D01*
X44289Y84270D01*
X44461Y84171D01*
X44651Y84120D01*
X44849D01*
X45039Y84171D01*
X45211Y84270D01*
X45350Y84410D01*
X45449Y84581D01*
X45500Y84771D01*
Y84969D01*
X45449Y85160D01*
X45350Y85331D01*
X45211Y85470D01*
X45039Y85569D01*
X44849Y85620D01*
D02*
G37*
G36*
X111210Y84243D02*
X111205D01*
Y83818D01*
X111630D01*
Y83823D01*
X111550Y84015D01*
X111402Y84163D01*
X111210Y84243D01*
D02*
G37*
G36*
X111005D02*
X111001D01*
X110808Y84163D01*
X110660Y84015D01*
X110580Y83823D01*
Y83818D01*
X111005D01*
Y84243D01*
D02*
G37*
G36*
X111630Y83618D02*
X111205D01*
Y83193D01*
X111210D01*
X111402Y83273D01*
X111550Y83421D01*
X111630Y83614D01*
Y83618D01*
D02*
G37*
G36*
X111005D02*
X110580D01*
Y83614D01*
X110660Y83421D01*
X110808Y83273D01*
X111001Y83193D01*
X111005D01*
Y83618D01*
D02*
G37*
G36*
X126946Y84465D02*
X126696D01*
X126454Y84400D01*
X126237Y84275D01*
X126060Y84098D01*
X125935Y83882D01*
X125871Y83640D01*
Y83390D01*
X125935Y83148D01*
X126060Y82932D01*
X126237Y82755D01*
X126454Y82630D01*
X126696Y82565D01*
X126946D01*
X127187Y82630D01*
X127404Y82755D01*
X127581Y82932D01*
X127706Y83148D01*
X127771Y83390D01*
Y83640D01*
X127706Y83882D01*
X127581Y84098D01*
X127404Y84275D01*
X127187Y84400D01*
X126946Y84465D01*
D02*
G37*
G36*
X66849Y83620D02*
X66651D01*
X66461Y83569D01*
X66289Y83470D01*
X66150Y83331D01*
X66051Y83160D01*
X66000Y82969D01*
Y82771D01*
X66051Y82581D01*
X66150Y82410D01*
X66289Y82270D01*
X66461Y82171D01*
X66651Y82120D01*
X66849D01*
X67039Y82171D01*
X67211Y82270D01*
X67350Y82410D01*
X67449Y82581D01*
X67500Y82771D01*
Y82969D01*
X67449Y83160D01*
X67350Y83331D01*
X67211Y83470D01*
X67039Y83569D01*
X66849Y83620D01*
D02*
G37*
G36*
X44849D02*
X44651D01*
X44461Y83569D01*
X44289Y83470D01*
X44150Y83331D01*
X44051Y83160D01*
X44000Y82969D01*
Y82771D01*
X44051Y82581D01*
X44150Y82410D01*
X44289Y82270D01*
X44461Y82171D01*
X44651Y82120D01*
X44849D01*
X45039Y82171D01*
X45211Y82270D01*
X45350Y82410D01*
X45449Y82581D01*
X45500Y82771D01*
Y82969D01*
X45449Y83160D01*
X45350Y83331D01*
X45211Y83470D01*
X45039Y83569D01*
X44849Y83620D01*
D02*
G37*
G36*
X126952Y81975D02*
X126921D01*
Y81075D01*
X127821D01*
Y81107D01*
X127752Y81361D01*
X127621Y81589D01*
X127435Y81775D01*
X127207Y81907D01*
X126952Y81975D01*
D02*
G37*
G36*
X126721D02*
X126689D01*
X126435Y81907D01*
X126207Y81775D01*
X126020Y81589D01*
X125889Y81361D01*
X125821Y81107D01*
Y81075D01*
X126721D01*
Y81975D01*
D02*
G37*
G36*
X66849Y81620D02*
X66651D01*
X66461Y81569D01*
X66289Y81470D01*
X66150Y81331D01*
X66051Y81160D01*
X66000Y80969D01*
Y80771D01*
X66051Y80581D01*
X66150Y80410D01*
X66289Y80270D01*
X66461Y80171D01*
X66651Y80120D01*
X66849D01*
X67039Y80171D01*
X67211Y80270D01*
X67350Y80410D01*
X67449Y80581D01*
X67500Y80771D01*
Y80969D01*
X67449Y81160D01*
X67350Y81331D01*
X67211Y81470D01*
X67039Y81569D01*
X66849Y81620D01*
D02*
G37*
G36*
X44849D02*
X44651D01*
X44461Y81569D01*
X44289Y81470D01*
X44150Y81331D01*
X44051Y81160D01*
X44000Y80969D01*
Y80771D01*
X44051Y80581D01*
X44150Y80410D01*
X44289Y80270D01*
X44461Y80171D01*
X44651Y80120D01*
X44849D01*
X45039Y80171D01*
X45211Y80270D01*
X45350Y80410D01*
X45449Y80581D01*
X45500Y80771D01*
Y80969D01*
X45449Y81160D01*
X45350Y81331D01*
X45211Y81470D01*
X45039Y81569D01*
X44849Y81620D01*
D02*
G37*
G36*
X127821Y80875D02*
X126921D01*
Y79975D01*
X126952D01*
X127207Y80043D01*
X127435Y80175D01*
X127621Y80361D01*
X127752Y80589D01*
X127821Y80843D01*
Y80875D01*
D02*
G37*
G36*
X126721D02*
X125821D01*
Y80843D01*
X125889Y80589D01*
X126020Y80361D01*
X126207Y80175D01*
X126435Y80043D01*
X126689Y79975D01*
X126721D01*
Y80875D01*
D02*
G37*
G36*
X66849Y79620D02*
X66651D01*
X66461Y79569D01*
X66289Y79470D01*
X66150Y79331D01*
X66051Y79160D01*
X66000Y78969D01*
Y78771D01*
X66051Y78581D01*
X66150Y78410D01*
X66289Y78270D01*
X66461Y78171D01*
X66651Y78120D01*
X66849D01*
X67039Y78171D01*
X67211Y78270D01*
X67350Y78410D01*
X67449Y78581D01*
X67500Y78771D01*
Y78969D01*
X67449Y79160D01*
X67350Y79331D01*
X67211Y79470D01*
X67039Y79569D01*
X66849Y79620D01*
D02*
G37*
G36*
X44849D02*
X44651D01*
X44461Y79569D01*
X44289Y79470D01*
X44150Y79331D01*
X44051Y79160D01*
X44000Y78969D01*
Y78771D01*
X44051Y78581D01*
X44150Y78410D01*
X44289Y78270D01*
X44461Y78171D01*
X44651Y78120D01*
X44849D01*
X45039Y78171D01*
X45211Y78270D01*
X45350Y78410D01*
X45449Y78581D01*
X45500Y78771D01*
Y78969D01*
X45449Y79160D01*
X45350Y79331D01*
X45211Y79470D01*
X45039Y79569D01*
X44849Y79620D01*
D02*
G37*
G36*
X115241Y79195D02*
X113441D01*
Y77395D01*
X115241D01*
Y79195D01*
D02*
G37*
G36*
X39031D02*
X37231D01*
Y77395D01*
X39031D01*
Y79195D01*
D02*
G37*
G36*
X44849Y77620D02*
X44651D01*
X44461Y77569D01*
X44289Y77470D01*
X44150Y77331D01*
X44051Y77160D01*
X44000Y76969D01*
Y76771D01*
X44051Y76581D01*
X44150Y76410D01*
X44289Y76270D01*
X44461Y76171D01*
X44651Y76120D01*
X44849D01*
X45039Y76171D01*
X45211Y76270D01*
X45350Y76410D01*
X45449Y76581D01*
X45500Y76771D01*
Y76969D01*
X45449Y77160D01*
X45350Y77331D01*
X45211Y77470D01*
X45039Y77569D01*
X44849Y77620D01*
D02*
G37*
G36*
X159610Y75835D02*
X159600D01*
Y75100D01*
X160335D01*
Y75110D01*
X160278Y75322D01*
X160168Y75513D01*
X160013Y75668D01*
X159822Y75778D01*
X159610Y75835D01*
D02*
G37*
G36*
X159400D02*
X159390D01*
X159178Y75778D01*
X158987Y75668D01*
X158832Y75513D01*
X158722Y75322D01*
X158665Y75110D01*
Y75100D01*
X159400D01*
Y75835D01*
D02*
G37*
G36*
X146610D02*
X146600D01*
Y75100D01*
X147335D01*
Y75110D01*
X147278Y75322D01*
X147168Y75513D01*
X147013Y75668D01*
X146822Y75778D01*
X146610Y75835D01*
D02*
G37*
G36*
X146400D02*
X146390D01*
X146178Y75778D01*
X145987Y75668D01*
X145832Y75513D01*
X145722Y75322D01*
X145665Y75110D01*
Y75100D01*
X146400D01*
Y75835D01*
D02*
G37*
G36*
X133610D02*
X133600D01*
Y75100D01*
X134335D01*
Y75110D01*
X134278Y75322D01*
X134168Y75513D01*
X134013Y75668D01*
X133822Y75778D01*
X133610Y75835D01*
D02*
G37*
G36*
X133400D02*
X133390D01*
X133178Y75778D01*
X132987Y75668D01*
X132832Y75513D01*
X132722Y75322D01*
X132665Y75110D01*
Y75100D01*
X133400D01*
Y75835D01*
D02*
G37*
G36*
X107610D02*
X107600D01*
Y75100D01*
X108335D01*
Y75110D01*
X108278Y75322D01*
X108168Y75513D01*
X108013Y75668D01*
X107822Y75778D01*
X107610Y75835D01*
D02*
G37*
G36*
X107400D02*
X107390D01*
X107178Y75778D01*
X106987Y75668D01*
X106832Y75513D01*
X106722Y75322D01*
X106665Y75110D01*
Y75100D01*
X107400D01*
Y75835D01*
D02*
G37*
G36*
X94610D02*
X94600D01*
Y75100D01*
X95335D01*
Y75110D01*
X95278Y75322D01*
X95168Y75513D01*
X95013Y75668D01*
X94822Y75778D01*
X94610Y75835D01*
D02*
G37*
G36*
X94400D02*
X94390D01*
X94178Y75778D01*
X93987Y75668D01*
X93832Y75513D01*
X93722Y75322D01*
X93665Y75110D01*
Y75100D01*
X94400D01*
Y75835D01*
D02*
G37*
G36*
X81610D02*
X81600D01*
Y75100D01*
X82335D01*
Y75110D01*
X82278Y75322D01*
X82168Y75513D01*
X82013Y75668D01*
X81822Y75778D01*
X81610Y75835D01*
D02*
G37*
G36*
X81400D02*
X81390D01*
X81178Y75778D01*
X80987Y75668D01*
X80832Y75513D01*
X80722Y75322D01*
X80665Y75110D01*
Y75100D01*
X81400D01*
Y75835D01*
D02*
G37*
G36*
X55610D02*
X55600D01*
Y75100D01*
X56335D01*
Y75110D01*
X56278Y75322D01*
X56168Y75513D01*
X56013Y75668D01*
X55822Y75778D01*
X55610Y75835D01*
D02*
G37*
G36*
X55400D02*
X55390D01*
X55178Y75778D01*
X54987Y75668D01*
X54832Y75513D01*
X54722Y75322D01*
X54665Y75110D01*
Y75100D01*
X55400D01*
Y75835D01*
D02*
G37*
G36*
X42610D02*
X42600D01*
Y75100D01*
X43335D01*
Y75110D01*
X43278Y75322D01*
X43168Y75513D01*
X43013Y75668D01*
X42822Y75778D01*
X42610Y75835D01*
D02*
G37*
G36*
X42400D02*
X42390D01*
X42178Y75778D01*
X41987Y75668D01*
X41832Y75513D01*
X41722Y75322D01*
X41665Y75110D01*
Y75100D01*
X42400D01*
Y75835D01*
D02*
G37*
G36*
X29610D02*
X29600D01*
Y75100D01*
X30335D01*
Y75110D01*
X30278Y75322D01*
X30168Y75513D01*
X30013Y75668D01*
X29822Y75778D01*
X29610Y75835D01*
D02*
G37*
G36*
X29400D02*
X29390D01*
X29178Y75778D01*
X28987Y75668D01*
X28832Y75513D01*
X28722Y75322D01*
X28665Y75110D01*
Y75100D01*
X29400D01*
Y75835D01*
D02*
G37*
G36*
X16610D02*
X16600D01*
Y75100D01*
X17335D01*
Y75110D01*
X17278Y75322D01*
X17168Y75513D01*
X17013Y75668D01*
X16822Y75778D01*
X16610Y75835D01*
D02*
G37*
G36*
X16400D02*
X16390D01*
X16178Y75778D01*
X15987Y75668D01*
X15832Y75513D01*
X15722Y75322D01*
X15665Y75110D01*
Y75100D01*
X16400D01*
Y75835D01*
D02*
G37*
G36*
X114459Y76655D02*
X114222D01*
X113993Y76594D01*
X113788Y76475D01*
X113620Y76308D01*
X113502Y76102D01*
X113441Y75873D01*
Y75636D01*
X113502Y75408D01*
X113620Y75202D01*
X113788Y75035D01*
X113993Y74916D01*
X114222Y74855D01*
X114459D01*
X114688Y74916D01*
X114893Y75035D01*
X115061Y75202D01*
X115179Y75408D01*
X115241Y75636D01*
Y75873D01*
X115179Y76102D01*
X115061Y76308D01*
X114893Y76475D01*
X114688Y76594D01*
X114459Y76655D01*
D02*
G37*
G36*
X38249D02*
X38012D01*
X37783Y76594D01*
X37578Y76475D01*
X37410Y76308D01*
X37292Y76102D01*
X37231Y75873D01*
Y75636D01*
X37292Y75408D01*
X37410Y75202D01*
X37578Y75035D01*
X37783Y74916D01*
X38012Y74855D01*
X38249D01*
X38478Y74916D01*
X38683Y75035D01*
X38851Y75202D01*
X38969Y75408D01*
X39031Y75636D01*
Y75873D01*
X38969Y76102D01*
X38851Y76308D01*
X38683Y76475D01*
X38478Y76594D01*
X38249Y76655D01*
D02*
G37*
G36*
X117601Y82475D02*
X117412D01*
X117237Y82403D01*
X117103Y82269D01*
X117031Y82094D01*
Y81906D01*
X117103Y81731D01*
X117237Y81597D01*
X117412Y81525D01*
X117582D01*
X117832Y81275D01*
Y78801D01*
X117705Y78724D01*
X117594Y78770D01*
X117406D01*
X117231Y78698D01*
X117097Y78564D01*
X117025Y78389D01*
Y78201D01*
X117097Y78026D01*
X117224Y77900D01*
Y38833D01*
X117110Y38719D01*
X117037Y38544D01*
Y38355D01*
X117110Y38181D01*
X117243Y38047D01*
X117418Y37975D01*
X117607D01*
X117705Y38016D01*
X117832Y37932D01*
Y36859D01*
X117712Y36739D01*
X117639Y36564D01*
Y36375D01*
X117712Y36200D01*
X117845Y36067D01*
X118020Y35994D01*
X118209D01*
X118251Y36012D01*
X118273Y35996D01*
X118336Y35910D01*
X118276Y35764D01*
Y35575D01*
X118348Y35400D01*
X118482Y35267D01*
X118656Y35194D01*
X118845D01*
X118943Y35235D01*
X119070Y35151D01*
Y34505D01*
X118984Y34419D01*
X118912Y34244D01*
Y34056D01*
X118984Y33881D01*
X119118Y33747D01*
X119293Y33675D01*
X119482D01*
X119656Y33747D01*
X119790Y33881D01*
X119862Y34056D01*
Y34244D01*
X119790Y34419D01*
X119656Y34553D01*
X119635Y34561D01*
Y69803D01*
X122145D01*
Y68921D01*
X126245D01*
Y71251D01*
X122145D01*
Y70368D01*
X119635D01*
Y76126D01*
X119755Y76246D01*
X119828Y76421D01*
Y76609D01*
X119755Y76784D01*
X119622Y76918D01*
X119447Y76990D01*
X119258D01*
X119160Y76949D01*
X119033Y77033D01*
Y79111D01*
X119136Y79214D01*
X122084Y76266D01*
Y74335D01*
X126184D01*
Y76665D01*
X122484D01*
X119449Y79700D01*
X119357Y79761D01*
X119249Y79782D01*
X119249Y79782D01*
X119140D01*
X119020Y79903D01*
X118845Y79975D01*
X118656D01*
X118524Y79920D01*
X118397Y79984D01*
Y81392D01*
X118375Y81500D01*
X118314Y81592D01*
X118314Y81592D01*
X117981Y81924D01*
Y82094D01*
X117909Y82269D01*
X117775Y82403D01*
X117601Y82475D01*
D02*
G37*
G36*
X160335Y74900D02*
X159600D01*
Y74165D01*
X159610D01*
X159822Y74222D01*
X160013Y74332D01*
X160168Y74487D01*
X160278Y74678D01*
X160335Y74890D01*
Y74900D01*
D02*
G37*
G36*
X159400D02*
X158665D01*
Y74890D01*
X158722Y74678D01*
X158832Y74487D01*
X158987Y74332D01*
X159178Y74222D01*
X159390Y74165D01*
X159400D01*
Y74900D01*
D02*
G37*
G36*
X147335D02*
X146600D01*
Y74165D01*
X146610D01*
X146822Y74222D01*
X147013Y74332D01*
X147168Y74487D01*
X147278Y74678D01*
X147335Y74890D01*
Y74900D01*
D02*
G37*
G36*
X146400D02*
X145665D01*
Y74890D01*
X145722Y74678D01*
X145832Y74487D01*
X145987Y74332D01*
X146178Y74222D01*
X146390Y74165D01*
X146400D01*
Y74900D01*
D02*
G37*
G36*
X134335D02*
X133600D01*
Y74165D01*
X133610D01*
X133822Y74222D01*
X134013Y74332D01*
X134168Y74487D01*
X134278Y74678D01*
X134335Y74890D01*
Y74900D01*
D02*
G37*
G36*
X133400D02*
X132665D01*
Y74890D01*
X132722Y74678D01*
X132832Y74487D01*
X132987Y74332D01*
X133178Y74222D01*
X133390Y74165D01*
X133400D01*
Y74900D01*
D02*
G37*
G36*
X108335D02*
X107600D01*
Y74165D01*
X107610D01*
X107822Y74222D01*
X108013Y74332D01*
X108168Y74487D01*
X108278Y74678D01*
X108335Y74890D01*
Y74900D01*
D02*
G37*
G36*
X107400D02*
X106665D01*
Y74890D01*
X106722Y74678D01*
X106832Y74487D01*
X106987Y74332D01*
X107178Y74222D01*
X107390Y74165D01*
X107400D01*
Y74900D01*
D02*
G37*
G36*
X95335D02*
X94600D01*
Y74165D01*
X94610D01*
X94822Y74222D01*
X95013Y74332D01*
X95168Y74487D01*
X95278Y74678D01*
X95335Y74890D01*
Y74900D01*
D02*
G37*
G36*
X94400D02*
X93665D01*
Y74890D01*
X93722Y74678D01*
X93832Y74487D01*
X93987Y74332D01*
X94178Y74222D01*
X94390Y74165D01*
X94400D01*
Y74900D01*
D02*
G37*
G36*
X82335D02*
X81600D01*
Y74165D01*
X81610D01*
X81822Y74222D01*
X82013Y74332D01*
X82168Y74487D01*
X82278Y74678D01*
X82335Y74890D01*
Y74900D01*
D02*
G37*
G36*
X81400D02*
X80665D01*
Y74890D01*
X80722Y74678D01*
X80832Y74487D01*
X80987Y74332D01*
X81178Y74222D01*
X81390Y74165D01*
X81400D01*
Y74900D01*
D02*
G37*
G36*
X56335D02*
X55600D01*
Y74165D01*
X55610D01*
X55822Y74222D01*
X56013Y74332D01*
X56168Y74487D01*
X56278Y74678D01*
X56335Y74890D01*
Y74900D01*
D02*
G37*
G36*
X55400D02*
X54665D01*
Y74890D01*
X54722Y74678D01*
X54832Y74487D01*
X54987Y74332D01*
X55178Y74222D01*
X55390Y74165D01*
X55400D01*
Y74900D01*
D02*
G37*
G36*
X43335D02*
X42600D01*
Y74165D01*
X42610D01*
X42822Y74222D01*
X43013Y74332D01*
X43168Y74487D01*
X43278Y74678D01*
X43335Y74890D01*
Y74900D01*
D02*
G37*
G36*
X42400D02*
X41665D01*
Y74890D01*
X41722Y74678D01*
X41832Y74487D01*
X41987Y74332D01*
X42178Y74222D01*
X42390Y74165D01*
X42400D01*
Y74900D01*
D02*
G37*
G36*
X30335D02*
X29600D01*
Y74165D01*
X29610D01*
X29822Y74222D01*
X30013Y74332D01*
X30168Y74487D01*
X30278Y74678D01*
X30335Y74890D01*
Y74900D01*
D02*
G37*
G36*
X29400D02*
X28665D01*
Y74890D01*
X28722Y74678D01*
X28832Y74487D01*
X28987Y74332D01*
X29178Y74222D01*
X29390Y74165D01*
X29400D01*
Y74900D01*
D02*
G37*
G36*
X17335D02*
X16600D01*
Y74165D01*
X16610D01*
X16822Y74222D01*
X17013Y74332D01*
X17168Y74487D01*
X17278Y74678D01*
X17335Y74890D01*
Y74900D01*
D02*
G37*
G36*
X16400D02*
X15665D01*
Y74890D01*
X15722Y74678D01*
X15832Y74487D01*
X15987Y74332D01*
X16178Y74222D01*
X16390Y74165D01*
X16400D01*
Y74900D01*
D02*
G37*
G36*
X66849Y75620D02*
X66651D01*
X66461Y75569D01*
X66289Y75470D01*
X66150Y75331D01*
X66051Y75160D01*
X66000Y74969D01*
Y74771D01*
X66051Y74581D01*
X66150Y74410D01*
X66289Y74270D01*
X66461Y74171D01*
X66651Y74120D01*
X66849D01*
X67039Y74171D01*
X67211Y74270D01*
X67350Y74410D01*
X67449Y74581D01*
X67500Y74771D01*
Y74969D01*
X67449Y75160D01*
X67350Y75331D01*
X67211Y75470D01*
X67039Y75569D01*
X66849Y75620D01*
D02*
G37*
G36*
X114459Y74115D02*
X114222D01*
X113993Y74054D01*
X113788Y73935D01*
X113620Y73768D01*
X113502Y73562D01*
X113441Y73333D01*
Y73096D01*
X113502Y72868D01*
X113620Y72662D01*
X113788Y72495D01*
X113993Y72376D01*
X114222Y72315D01*
X114459D01*
X114688Y72376D01*
X114893Y72495D01*
X115061Y72662D01*
X115179Y72868D01*
X115241Y73096D01*
Y73333D01*
X115179Y73562D01*
X115061Y73768D01*
X114893Y73935D01*
X114688Y74054D01*
X114459Y74115D01*
D02*
G37*
G36*
X38249D02*
X38012D01*
X37783Y74054D01*
X37578Y73935D01*
X37410Y73768D01*
X37292Y73562D01*
X37231Y73333D01*
Y73096D01*
X37292Y72868D01*
X37410Y72662D01*
X37578Y72495D01*
X37783Y72376D01*
X38012Y72315D01*
X38249D01*
X38478Y72376D01*
X38683Y72495D01*
X38851Y72662D01*
X38969Y72868D01*
X39031Y73096D01*
Y73333D01*
X38969Y73562D01*
X38851Y73768D01*
X38683Y73935D01*
X38478Y74054D01*
X38249Y74115D01*
D02*
G37*
G36*
X66849Y73620D02*
X66651D01*
X66461Y73569D01*
X66289Y73470D01*
X66150Y73331D01*
X66051Y73160D01*
X66000Y72969D01*
Y72771D01*
X66051Y72581D01*
X66150Y72410D01*
X66289Y72270D01*
X66461Y72171D01*
X66651Y72120D01*
X66849D01*
X67039Y72171D01*
X67211Y72270D01*
X67350Y72410D01*
X67449Y72581D01*
X67500Y72771D01*
Y72969D01*
X67449Y73160D01*
X67350Y73331D01*
X67211Y73470D01*
X67039Y73569D01*
X66849Y73620D01*
D02*
G37*
G36*
X44849D02*
X44651D01*
X44461Y73569D01*
X44289Y73470D01*
X44150Y73331D01*
X44051Y73160D01*
X44000Y72969D01*
Y72771D01*
X44051Y72581D01*
X44150Y72410D01*
X44289Y72270D01*
X44461Y72171D01*
X44651Y72120D01*
X44849D01*
X45039Y72171D01*
X45211Y72270D01*
X45350Y72410D01*
X45449Y72581D01*
X45500Y72771D01*
Y72969D01*
X45449Y73160D01*
X45350Y73331D01*
X45211Y73470D01*
X45039Y73569D01*
X44849Y73620D01*
D02*
G37*
G36*
X148263Y72959D02*
X146713D01*
Y71409D01*
X148263D01*
Y72959D01*
D02*
G37*
G36*
X142510D02*
X142306D01*
X142109Y72906D01*
X141932Y72804D01*
X141787Y72660D01*
X141685Y72483D01*
X141633Y72286D01*
Y72082D01*
X141685Y71885D01*
X141787Y71708D01*
X141932Y71564D01*
X142109Y71462D01*
X142306Y71409D01*
X142510D01*
X142707Y71462D01*
X142883Y71564D01*
X143028Y71708D01*
X143130Y71885D01*
X143183Y72082D01*
Y72286D01*
X143130Y72483D01*
X143028Y72660D01*
X142883Y72804D01*
X142707Y72906D01*
X142510Y72959D01*
D02*
G37*
G36*
X66849Y71620D02*
X66651D01*
X66461Y71569D01*
X66289Y71470D01*
X66150Y71331D01*
X66051Y71160D01*
X66000Y70969D01*
Y70771D01*
X66051Y70581D01*
X66150Y70410D01*
X66289Y70270D01*
X66461Y70171D01*
X66651Y70120D01*
X66849D01*
X67039Y70171D01*
X67211Y70270D01*
X67350Y70410D01*
X67449Y70581D01*
X67500Y70771D01*
Y70969D01*
X67449Y71160D01*
X67350Y71331D01*
X67211Y71470D01*
X67039Y71569D01*
X66849Y71620D01*
D02*
G37*
G36*
X114459Y71575D02*
X114222D01*
X113993Y71514D01*
X113788Y71395D01*
X113620Y71228D01*
X113502Y71022D01*
X113441Y70793D01*
Y70557D01*
X113502Y70328D01*
X113620Y70122D01*
X113788Y69955D01*
X113993Y69836D01*
X114222Y69775D01*
X114459D01*
X114688Y69836D01*
X114893Y69955D01*
X115061Y70122D01*
X115179Y70328D01*
X115241Y70557D01*
Y70793D01*
X115179Y71022D01*
X115061Y71228D01*
X114893Y71395D01*
X114688Y71514D01*
X114459Y71575D01*
D02*
G37*
G36*
X38249D02*
X38012D01*
X37783Y71514D01*
X37578Y71395D01*
X37410Y71228D01*
X37292Y71022D01*
X37231Y70793D01*
Y70557D01*
X37292Y70328D01*
X37410Y70122D01*
X37578Y69955D01*
X37783Y69836D01*
X38012Y69775D01*
X38249D01*
X38478Y69836D01*
X38683Y69955D01*
X38851Y70122D01*
X38969Y70328D01*
X39031Y70557D01*
Y70793D01*
X38969Y71022D01*
X38851Y71228D01*
X38683Y71395D01*
X38478Y71514D01*
X38249Y71575D01*
D02*
G37*
G36*
X145050Y70419D02*
X144846D01*
X144648Y70366D01*
X144472Y70264D01*
X144327Y70120D01*
X144225Y69943D01*
X144173Y69746D01*
Y69542D01*
X144225Y69345D01*
X144327Y69168D01*
X144472Y69024D01*
X144648Y68922D01*
X144846Y68869D01*
X145050D01*
X145247Y68922D01*
X145423Y69024D01*
X145568Y69168D01*
X145670Y69345D01*
X145723Y69542D01*
Y69746D01*
X145670Y69943D01*
X145568Y70120D01*
X145423Y70264D01*
X145247Y70366D01*
X145050Y70419D01*
D02*
G37*
G36*
X66849Y69620D02*
X66651D01*
X66461Y69569D01*
X66289Y69470D01*
X66150Y69331D01*
X66051Y69160D01*
X66000Y68969D01*
Y68771D01*
X66051Y68581D01*
X66150Y68410D01*
X66289Y68270D01*
X66461Y68171D01*
X66651Y68120D01*
X66849D01*
X67039Y68171D01*
X67211Y68270D01*
X67350Y68410D01*
X67449Y68581D01*
X67500Y68771D01*
Y68969D01*
X67449Y69160D01*
X67350Y69331D01*
X67211Y69470D01*
X67039Y69569D01*
X66849Y69620D01*
D02*
G37*
G36*
X44849D02*
X44651D01*
X44461Y69569D01*
X44289Y69470D01*
X44150Y69331D01*
X44051Y69160D01*
X44000Y68969D01*
Y68771D01*
X44051Y68581D01*
X44150Y68410D01*
X44289Y68270D01*
X44461Y68171D01*
X44651Y68120D01*
X44849D01*
X45039Y68171D01*
X45211Y68270D01*
X45350Y68410D01*
X45449Y68581D01*
X45500Y68771D01*
Y68969D01*
X45449Y69160D01*
X45350Y69331D01*
X45211Y69470D01*
X45039Y69569D01*
X44849Y69620D01*
D02*
G37*
G36*
X114459Y69035D02*
X114222D01*
X113993Y68974D01*
X113788Y68855D01*
X113620Y68688D01*
X113502Y68482D01*
X113441Y68253D01*
Y68017D01*
X113502Y67788D01*
X113620Y67582D01*
X113788Y67415D01*
X113993Y67296D01*
X114222Y67235D01*
X114459D01*
X114688Y67296D01*
X114893Y67415D01*
X115061Y67582D01*
X115179Y67788D01*
X115241Y68017D01*
Y68253D01*
X115179Y68482D01*
X115061Y68688D01*
X114893Y68855D01*
X114688Y68974D01*
X114459Y69035D01*
D02*
G37*
G36*
X38249D02*
X38012D01*
X37783Y68974D01*
X37578Y68855D01*
X37410Y68688D01*
X37292Y68482D01*
X37231Y68253D01*
Y68017D01*
X37292Y67788D01*
X37410Y67582D01*
X37578Y67415D01*
X37783Y67296D01*
X38012Y67235D01*
X38249D01*
X38478Y67296D01*
X38683Y67415D01*
X38851Y67582D01*
X38969Y67788D01*
X39031Y68017D01*
Y68253D01*
X38969Y68482D01*
X38851Y68688D01*
X38683Y68855D01*
X38478Y68974D01*
X38249Y69035D01*
D02*
G37*
G36*
X66855Y67670D02*
X66850D01*
Y66970D01*
X67550D01*
Y66975D01*
X67495Y67179D01*
X67390Y67361D01*
X67241Y67510D01*
X67059Y67616D01*
X66855Y67670D01*
D02*
G37*
G36*
X66650D02*
X66645D01*
X66441Y67616D01*
X66259Y67510D01*
X66110Y67361D01*
X66005Y67179D01*
X65950Y66975D01*
Y66970D01*
X66650D01*
Y67670D01*
D02*
G37*
G36*
X44849Y67620D02*
X44651D01*
X44461Y67569D01*
X44289Y67470D01*
X44150Y67331D01*
X44051Y67160D01*
X44000Y66969D01*
Y66771D01*
X44051Y66581D01*
X44150Y66410D01*
X44289Y66270D01*
X44461Y66171D01*
X44651Y66120D01*
X44849D01*
X45039Y66171D01*
X45211Y66270D01*
X45350Y66410D01*
X45449Y66581D01*
X45500Y66771D01*
Y66969D01*
X45449Y67160D01*
X45350Y67331D01*
X45211Y67470D01*
X45039Y67569D01*
X44849Y67620D01*
D02*
G37*
G36*
X67550Y66770D02*
X66850D01*
Y66070D01*
X66855D01*
X67059Y66125D01*
X67241Y66230D01*
X67390Y66379D01*
X67495Y66561D01*
X67550Y66765D01*
Y66770D01*
D02*
G37*
G36*
X66650D02*
X65950D01*
Y66765D01*
X66005Y66561D01*
X66110Y66379D01*
X66259Y66230D01*
X66441Y66125D01*
X66645Y66070D01*
X66650D01*
Y66770D01*
D02*
G37*
G36*
X114459Y66495D02*
X114222D01*
X113993Y66434D01*
X113788Y66315D01*
X113620Y66148D01*
X113502Y65942D01*
X113441Y65713D01*
Y65477D01*
X113502Y65248D01*
X113620Y65042D01*
X113788Y64875D01*
X113993Y64756D01*
X114222Y64695D01*
X114459D01*
X114688Y64756D01*
X114893Y64875D01*
X115061Y65042D01*
X115179Y65248D01*
X115241Y65477D01*
Y65713D01*
X115179Y65942D01*
X115061Y66148D01*
X114893Y66315D01*
X114688Y66434D01*
X114459Y66495D01*
D02*
G37*
G36*
X38249D02*
X38012D01*
X37783Y66434D01*
X37578Y66315D01*
X37410Y66148D01*
X37292Y65942D01*
X37231Y65713D01*
Y65477D01*
X37292Y65248D01*
X37410Y65042D01*
X37578Y64875D01*
X37783Y64756D01*
X38012Y64695D01*
X38249D01*
X38478Y64756D01*
X38683Y64875D01*
X38851Y65042D01*
X38969Y65248D01*
X39031Y65477D01*
Y65713D01*
X38969Y65942D01*
X38851Y66148D01*
X38683Y66315D01*
X38478Y66434D01*
X38249Y66495D01*
D02*
G37*
G36*
X114459Y63955D02*
X114222D01*
X113993Y63894D01*
X113788Y63775D01*
X113620Y63608D01*
X113502Y63402D01*
X113441Y63173D01*
Y62937D01*
X113502Y62708D01*
X113620Y62502D01*
X113788Y62335D01*
X113993Y62216D01*
X114222Y62155D01*
X114459D01*
X114688Y62216D01*
X114893Y62335D01*
X115061Y62502D01*
X115179Y62708D01*
X115241Y62937D01*
Y63173D01*
X115179Y63402D01*
X115061Y63608D01*
X114893Y63775D01*
X114688Y63894D01*
X114459Y63955D01*
D02*
G37*
G36*
X38249D02*
X38012D01*
X37783Y63894D01*
X37578Y63775D01*
X37410Y63608D01*
X37292Y63402D01*
X37231Y63173D01*
Y62937D01*
X37292Y62708D01*
X37410Y62502D01*
X37578Y62335D01*
X37783Y62216D01*
X38012Y62155D01*
X38249D01*
X38478Y62216D01*
X38683Y62335D01*
X38851Y62502D01*
X38969Y62708D01*
X39031Y62937D01*
Y63173D01*
X38969Y63402D01*
X38851Y63608D01*
X38683Y63775D01*
X38478Y63894D01*
X38249Y63955D01*
D02*
G37*
G36*
X153110Y62835D02*
X153100D01*
Y62100D01*
X153835D01*
Y62110D01*
X153778Y62322D01*
X153668Y62513D01*
X153513Y62668D01*
X153322Y62778D01*
X153110Y62835D01*
D02*
G37*
G36*
X152900D02*
X152890D01*
X152678Y62778D01*
X152487Y62668D01*
X152332Y62513D01*
X152222Y62322D01*
X152165Y62110D01*
Y62100D01*
X152900D01*
Y62835D01*
D02*
G37*
G36*
X140110D02*
X140100D01*
Y62100D01*
X140835D01*
Y62110D01*
X140778Y62322D01*
X140668Y62513D01*
X140513Y62668D01*
X140322Y62778D01*
X140110Y62835D01*
D02*
G37*
G36*
X139900D02*
X139890D01*
X139678Y62778D01*
X139487Y62668D01*
X139332Y62513D01*
X139222Y62322D01*
X139165Y62110D01*
Y62100D01*
X139900D01*
Y62835D01*
D02*
G37*
G36*
X127110D02*
X127100D01*
Y62100D01*
X127835D01*
Y62110D01*
X127778Y62322D01*
X127668Y62513D01*
X127513Y62668D01*
X127322Y62778D01*
X127110Y62835D01*
D02*
G37*
G36*
X126900D02*
X126890D01*
X126678Y62778D01*
X126487Y62668D01*
X126332Y62513D01*
X126222Y62322D01*
X126165Y62110D01*
Y62100D01*
X126900D01*
Y62835D01*
D02*
G37*
G36*
X101110D02*
X101100D01*
Y62100D01*
X101835D01*
Y62110D01*
X101778Y62322D01*
X101668Y62513D01*
X101513Y62668D01*
X101322Y62778D01*
X101110Y62835D01*
D02*
G37*
G36*
X100900D02*
X100890D01*
X100678Y62778D01*
X100487Y62668D01*
X100332Y62513D01*
X100222Y62322D01*
X100165Y62110D01*
Y62100D01*
X100900D01*
Y62835D01*
D02*
G37*
G36*
X75110D02*
X75100D01*
Y62100D01*
X75835D01*
Y62110D01*
X75778Y62322D01*
X75668Y62513D01*
X75513Y62668D01*
X75322Y62778D01*
X75110Y62835D01*
D02*
G37*
G36*
X74900D02*
X74890D01*
X74678Y62778D01*
X74487Y62668D01*
X74332Y62513D01*
X74222Y62322D01*
X74165Y62110D01*
Y62100D01*
X74900D01*
Y62835D01*
D02*
G37*
G36*
X62110D02*
X62100D01*
Y62100D01*
X62835D01*
Y62110D01*
X62778Y62322D01*
X62668Y62513D01*
X62513Y62668D01*
X62322Y62778D01*
X62110Y62835D01*
D02*
G37*
G36*
X61900D02*
X61890D01*
X61678Y62778D01*
X61487Y62668D01*
X61332Y62513D01*
X61222Y62322D01*
X61165Y62110D01*
Y62100D01*
X61900D01*
Y62835D01*
D02*
G37*
G36*
X49110D02*
X49100D01*
Y62100D01*
X49835D01*
Y62110D01*
X49778Y62322D01*
X49668Y62513D01*
X49513Y62668D01*
X49322Y62778D01*
X49110Y62835D01*
D02*
G37*
G36*
X48900D02*
X48890D01*
X48678Y62778D01*
X48487Y62668D01*
X48332Y62513D01*
X48222Y62322D01*
X48165Y62110D01*
Y62100D01*
X48900D01*
Y62835D01*
D02*
G37*
G36*
X36110D02*
X36100D01*
Y62100D01*
X36835D01*
Y62110D01*
X36778Y62322D01*
X36668Y62513D01*
X36513Y62668D01*
X36322Y62778D01*
X36110Y62835D01*
D02*
G37*
G36*
X35900D02*
X35890D01*
X35678Y62778D01*
X35487Y62668D01*
X35332Y62513D01*
X35222Y62322D01*
X35165Y62110D01*
Y62100D01*
X35900D01*
Y62835D01*
D02*
G37*
G36*
X23110D02*
X23100D01*
Y62100D01*
X23835D01*
Y62110D01*
X23778Y62322D01*
X23668Y62513D01*
X23513Y62668D01*
X23322Y62778D01*
X23110Y62835D01*
D02*
G37*
G36*
X22900D02*
X22890D01*
X22678Y62778D01*
X22487Y62668D01*
X22332Y62513D01*
X22222Y62322D01*
X22165Y62110D01*
Y62100D01*
X22900D01*
Y62835D01*
D02*
G37*
G36*
X10110D02*
X10100D01*
Y62100D01*
X10835D01*
Y62110D01*
X10778Y62322D01*
X10668Y62513D01*
X10513Y62668D01*
X10322Y62778D01*
X10110Y62835D01*
D02*
G37*
G36*
X9900D02*
X9890D01*
X9678Y62778D01*
X9487Y62668D01*
X9332Y62513D01*
X9222Y62322D01*
X9165Y62110D01*
Y62100D01*
X9900D01*
Y62835D01*
D02*
G37*
G36*
X153835Y61900D02*
X153100D01*
Y61165D01*
X153110D01*
X153322Y61222D01*
X153513Y61332D01*
X153668Y61487D01*
X153778Y61678D01*
X153835Y61890D01*
Y61900D01*
D02*
G37*
G36*
X152900D02*
X152165D01*
Y61890D01*
X152222Y61678D01*
X152332Y61487D01*
X152487Y61332D01*
X152678Y61222D01*
X152890Y61165D01*
X152900D01*
Y61900D01*
D02*
G37*
G36*
X140835D02*
X140100D01*
Y61165D01*
X140110D01*
X140322Y61222D01*
X140513Y61332D01*
X140668Y61487D01*
X140778Y61678D01*
X140835Y61890D01*
Y61900D01*
D02*
G37*
G36*
X139900D02*
X139165D01*
Y61890D01*
X139222Y61678D01*
X139332Y61487D01*
X139487Y61332D01*
X139678Y61222D01*
X139890Y61165D01*
X139900D01*
Y61900D01*
D02*
G37*
G36*
X127835D02*
X127100D01*
Y61165D01*
X127110D01*
X127322Y61222D01*
X127513Y61332D01*
X127668Y61487D01*
X127778Y61678D01*
X127835Y61890D01*
Y61900D01*
D02*
G37*
G36*
X126900D02*
X126165D01*
Y61890D01*
X126222Y61678D01*
X126332Y61487D01*
X126487Y61332D01*
X126678Y61222D01*
X126890Y61165D01*
X126900D01*
Y61900D01*
D02*
G37*
G36*
X101835D02*
X101100D01*
Y61165D01*
X101110D01*
X101322Y61222D01*
X101513Y61332D01*
X101668Y61487D01*
X101778Y61678D01*
X101835Y61890D01*
Y61900D01*
D02*
G37*
G36*
X100900D02*
X100165D01*
Y61890D01*
X100222Y61678D01*
X100332Y61487D01*
X100487Y61332D01*
X100678Y61222D01*
X100890Y61165D01*
X100900D01*
Y61900D01*
D02*
G37*
G36*
X75835D02*
X75100D01*
Y61165D01*
X75110D01*
X75322Y61222D01*
X75513Y61332D01*
X75668Y61487D01*
X75778Y61678D01*
X75835Y61890D01*
Y61900D01*
D02*
G37*
G36*
X74900D02*
X74165D01*
Y61890D01*
X74222Y61678D01*
X74332Y61487D01*
X74487Y61332D01*
X74678Y61222D01*
X74890Y61165D01*
X74900D01*
Y61900D01*
D02*
G37*
G36*
X62835D02*
X62100D01*
Y61165D01*
X62110D01*
X62322Y61222D01*
X62513Y61332D01*
X62668Y61487D01*
X62778Y61678D01*
X62835Y61890D01*
Y61900D01*
D02*
G37*
G36*
X61900D02*
X61165D01*
Y61890D01*
X61222Y61678D01*
X61332Y61487D01*
X61487Y61332D01*
X61678Y61222D01*
X61890Y61165D01*
X61900D01*
Y61900D01*
D02*
G37*
G36*
X49835D02*
X49100D01*
Y61165D01*
X49110D01*
X49322Y61222D01*
X49513Y61332D01*
X49668Y61487D01*
X49778Y61678D01*
X49835Y61890D01*
Y61900D01*
D02*
G37*
G36*
X48900D02*
X48165D01*
Y61890D01*
X48222Y61678D01*
X48332Y61487D01*
X48487Y61332D01*
X48678Y61222D01*
X48890Y61165D01*
X48900D01*
Y61900D01*
D02*
G37*
G36*
X36835D02*
X36100D01*
Y61165D01*
X36110D01*
X36322Y61222D01*
X36513Y61332D01*
X36668Y61487D01*
X36778Y61678D01*
X36835Y61890D01*
Y61900D01*
D02*
G37*
G36*
X35900D02*
X35165D01*
Y61890D01*
X35222Y61678D01*
X35332Y61487D01*
X35487Y61332D01*
X35678Y61222D01*
X35890Y61165D01*
X35900D01*
Y61900D01*
D02*
G37*
G36*
X23835D02*
X23100D01*
Y61165D01*
X23110D01*
X23322Y61222D01*
X23513Y61332D01*
X23668Y61487D01*
X23778Y61678D01*
X23835Y61890D01*
Y61900D01*
D02*
G37*
G36*
X22900D02*
X22165D01*
Y61890D01*
X22222Y61678D01*
X22332Y61487D01*
X22487Y61332D01*
X22678Y61222D01*
X22890Y61165D01*
X22900D01*
Y61900D01*
D02*
G37*
G36*
X10835D02*
X10100D01*
Y61165D01*
X10110D01*
X10322Y61222D01*
X10513Y61332D01*
X10668Y61487D01*
X10778Y61678D01*
X10835Y61890D01*
Y61900D01*
D02*
G37*
G36*
X9900D02*
X9165D01*
Y61890D01*
X9222Y61678D01*
X9332Y61487D01*
X9487Y61332D01*
X9678Y61222D01*
X9890Y61165D01*
X9900D01*
Y61900D01*
D02*
G37*
G36*
X114459Y61415D02*
X114222D01*
X113993Y61354D01*
X113788Y61235D01*
X113620Y61068D01*
X113502Y60862D01*
X113441Y60633D01*
Y60396D01*
X113502Y60168D01*
X113620Y59962D01*
X113788Y59795D01*
X113993Y59676D01*
X114222Y59615D01*
X114459D01*
X114688Y59676D01*
X114893Y59795D01*
X115061Y59962D01*
X115179Y60168D01*
X115241Y60396D01*
Y60633D01*
X115179Y60862D01*
X115061Y61068D01*
X114893Y61235D01*
X114688Y61354D01*
X114459Y61415D01*
D02*
G37*
G36*
X38249D02*
X38012D01*
X37783Y61354D01*
X37578Y61235D01*
X37410Y61068D01*
X37292Y60862D01*
X37231Y60633D01*
Y60396D01*
X37292Y60168D01*
X37410Y59962D01*
X37578Y59795D01*
X37783Y59676D01*
X38012Y59615D01*
X38249D01*
X38478Y59676D01*
X38683Y59795D01*
X38851Y59962D01*
X38969Y60168D01*
X39031Y60396D01*
Y60633D01*
X38969Y60862D01*
X38851Y61068D01*
X38683Y61235D01*
X38478Y61354D01*
X38249Y61415D01*
D02*
G37*
G36*
X114459Y58875D02*
X114222D01*
X113993Y58814D01*
X113788Y58695D01*
X113620Y58528D01*
X113502Y58322D01*
X113441Y58093D01*
Y57856D01*
X113502Y57628D01*
X113620Y57422D01*
X113788Y57255D01*
X113993Y57136D01*
X114222Y57075D01*
X114459D01*
X114688Y57136D01*
X114893Y57255D01*
X115061Y57422D01*
X115179Y57628D01*
X115241Y57856D01*
Y58093D01*
X115179Y58322D01*
X115061Y58528D01*
X114893Y58695D01*
X114688Y58814D01*
X114459Y58875D01*
D02*
G37*
G36*
X38249D02*
X38012D01*
X37783Y58814D01*
X37578Y58695D01*
X37410Y58528D01*
X37292Y58322D01*
X37231Y58093D01*
Y57856D01*
X37292Y57628D01*
X37410Y57422D01*
X37578Y57255D01*
X37783Y57136D01*
X38012Y57075D01*
X38249D01*
X38478Y57136D01*
X38683Y57255D01*
X38851Y57422D01*
X38969Y57628D01*
X39031Y57856D01*
Y58093D01*
X38969Y58322D01*
X38851Y58528D01*
X38683Y58695D01*
X38478Y58814D01*
X38249Y58875D01*
D02*
G37*
G36*
X114459Y56335D02*
X114222D01*
X113993Y56274D01*
X113788Y56155D01*
X113620Y55988D01*
X113502Y55782D01*
X113441Y55553D01*
Y55317D01*
X113502Y55088D01*
X113620Y54882D01*
X113788Y54715D01*
X113993Y54596D01*
X114222Y54535D01*
X114459D01*
X114688Y54596D01*
X114893Y54715D01*
X115061Y54882D01*
X115179Y55088D01*
X115241Y55317D01*
Y55553D01*
X115179Y55782D01*
X115061Y55988D01*
X114893Y56155D01*
X114688Y56274D01*
X114459Y56335D01*
D02*
G37*
G36*
X38249D02*
X38012D01*
X37783Y56274D01*
X37578Y56155D01*
X37410Y55988D01*
X37292Y55782D01*
X37231Y55553D01*
Y55317D01*
X37292Y55088D01*
X37410Y54882D01*
X37578Y54715D01*
X37783Y54596D01*
X38012Y54535D01*
X38249D01*
X38478Y54596D01*
X38683Y54715D01*
X38851Y54882D01*
X38969Y55088D01*
X39031Y55317D01*
Y55553D01*
X38969Y55782D01*
X38851Y55988D01*
X38683Y56155D01*
X38478Y56274D01*
X38249Y56335D01*
D02*
G37*
G36*
X114459Y53795D02*
X114222D01*
X113993Y53734D01*
X113788Y53615D01*
X113620Y53448D01*
X113502Y53242D01*
X113441Y53013D01*
Y52777D01*
X113502Y52548D01*
X113620Y52342D01*
X113788Y52175D01*
X113993Y52056D01*
X114222Y51995D01*
X114459D01*
X114688Y52056D01*
X114893Y52175D01*
X115061Y52342D01*
X115179Y52548D01*
X115241Y52777D01*
Y53013D01*
X115179Y53242D01*
X115061Y53448D01*
X114893Y53615D01*
X114688Y53734D01*
X114459Y53795D01*
D02*
G37*
G36*
X38249D02*
X38012D01*
X37783Y53734D01*
X37578Y53615D01*
X37410Y53448D01*
X37292Y53242D01*
X37231Y53013D01*
Y52777D01*
X37292Y52548D01*
X37410Y52342D01*
X37578Y52175D01*
X37783Y52056D01*
X38012Y51995D01*
X38249D01*
X38478Y52056D01*
X38683Y52175D01*
X38851Y52342D01*
X38969Y52548D01*
X39031Y52777D01*
Y53013D01*
X38969Y53242D01*
X38851Y53448D01*
X38683Y53615D01*
X38478Y53734D01*
X38249Y53795D01*
D02*
G37*
G36*
X66849Y77620D02*
X66651D01*
X66461Y77569D01*
X66289Y77470D01*
X66150Y77331D01*
X66051Y77160D01*
X66000Y76969D01*
Y76771D01*
X66051Y76581D01*
X66150Y76410D01*
X66289Y76270D01*
X66461Y76171D01*
X66651Y76120D01*
X66849D01*
X67039Y76171D01*
X67046Y76175D01*
X103406Y39815D01*
X103406Y39815D01*
X103498Y39753D01*
X103606Y39732D01*
X103718D01*
Y24466D01*
X103597Y24345D01*
X103525Y24171D01*
Y23982D01*
X103597Y23807D01*
X103731Y23674D01*
X103906Y23601D01*
X104094D01*
X104269Y23674D01*
X104403Y23807D01*
X104475Y23982D01*
Y24171D01*
X104403Y24345D01*
X104282Y24466D01*
Y39897D01*
X113935Y49550D01*
X113993Y49516D01*
X114222Y49455D01*
X114459D01*
X114688Y49516D01*
X114893Y49635D01*
X115061Y49802D01*
X115179Y50008D01*
X115241Y50236D01*
Y50473D01*
X115179Y50702D01*
X115061Y50908D01*
X114893Y51075D01*
X114688Y51194D01*
X114459Y51255D01*
X114222D01*
X113993Y51194D01*
X113788Y51075D01*
X113620Y50908D01*
X113502Y50702D01*
X113441Y50473D01*
Y50236D01*
X113502Y50008D01*
X113536Y49949D01*
X103883Y40297D01*
X103723D01*
X67445Y76574D01*
X67449Y76581D01*
X67500Y76771D01*
Y76969D01*
X67449Y77160D01*
X67350Y77331D01*
X67211Y77470D01*
X67039Y77569D01*
X66849Y77620D01*
D02*
G37*
G36*
X38249Y51255D02*
X38012D01*
X37783Y51194D01*
X37578Y51075D01*
X37410Y50908D01*
X37292Y50702D01*
X37231Y50473D01*
Y50236D01*
X37292Y50008D01*
X37410Y49802D01*
X37578Y49635D01*
X37783Y49516D01*
X38012Y49455D01*
X38249D01*
X38478Y49516D01*
X38683Y49635D01*
X38851Y49802D01*
X38969Y50008D01*
X39031Y50236D01*
Y50473D01*
X38969Y50702D01*
X38851Y50908D01*
X38683Y51075D01*
X38478Y51194D01*
X38249Y51255D01*
D02*
G37*
G36*
X159610Y49835D02*
X159600D01*
Y49100D01*
X160335D01*
Y49110D01*
X160278Y49322D01*
X160168Y49513D01*
X160013Y49668D01*
X159822Y49778D01*
X159610Y49835D01*
D02*
G37*
G36*
X159400D02*
X159390D01*
X159178Y49778D01*
X158987Y49668D01*
X158832Y49513D01*
X158722Y49322D01*
X158665Y49110D01*
Y49100D01*
X159400D01*
Y49835D01*
D02*
G37*
G36*
X107610D02*
X107600D01*
Y49100D01*
X108335D01*
Y49110D01*
X108278Y49322D01*
X108168Y49513D01*
X108013Y49668D01*
X107822Y49778D01*
X107610Y49835D01*
D02*
G37*
G36*
X107400D02*
X107390D01*
X107178Y49778D01*
X106987Y49668D01*
X106832Y49513D01*
X106722Y49322D01*
X106665Y49110D01*
Y49100D01*
X107400D01*
Y49835D01*
D02*
G37*
G36*
X81610D02*
X81600D01*
Y49100D01*
X82335D01*
Y49110D01*
X82278Y49322D01*
X82168Y49513D01*
X82013Y49668D01*
X81822Y49778D01*
X81610Y49835D01*
D02*
G37*
G36*
X81400D02*
X81390D01*
X81178Y49778D01*
X80987Y49668D01*
X80832Y49513D01*
X80722Y49322D01*
X80665Y49110D01*
Y49100D01*
X81400D01*
Y49835D01*
D02*
G37*
G36*
X68610D02*
X68600D01*
Y49100D01*
X69335D01*
Y49110D01*
X69278Y49322D01*
X69168Y49513D01*
X69013Y49668D01*
X68822Y49778D01*
X68610Y49835D01*
D02*
G37*
G36*
X68400D02*
X68390D01*
X68178Y49778D01*
X67987Y49668D01*
X67832Y49513D01*
X67722Y49322D01*
X67665Y49110D01*
Y49100D01*
X68400D01*
Y49835D01*
D02*
G37*
G36*
X55610D02*
X55600D01*
Y49100D01*
X56335D01*
Y49110D01*
X56278Y49322D01*
X56168Y49513D01*
X56013Y49668D01*
X55822Y49778D01*
X55610Y49835D01*
D02*
G37*
G36*
X55400D02*
X55390D01*
X55178Y49778D01*
X54987Y49668D01*
X54832Y49513D01*
X54722Y49322D01*
X54665Y49110D01*
Y49100D01*
X55400D01*
Y49835D01*
D02*
G37*
G36*
X42610D02*
X42600D01*
Y49100D01*
X43335D01*
Y49110D01*
X43278Y49322D01*
X43168Y49513D01*
X43013Y49668D01*
X42822Y49778D01*
X42610Y49835D01*
D02*
G37*
G36*
X42400D02*
X42390D01*
X42178Y49778D01*
X41987Y49668D01*
X41832Y49513D01*
X41722Y49322D01*
X41665Y49110D01*
Y49100D01*
X42400D01*
Y49835D01*
D02*
G37*
G36*
X29610D02*
X29600D01*
Y49100D01*
X30335D01*
Y49110D01*
X30278Y49322D01*
X30168Y49513D01*
X30013Y49668D01*
X29822Y49778D01*
X29610Y49835D01*
D02*
G37*
G36*
X29400D02*
X29390D01*
X29178Y49778D01*
X28987Y49668D01*
X28832Y49513D01*
X28722Y49322D01*
X28665Y49110D01*
Y49100D01*
X29400D01*
Y49835D01*
D02*
G37*
G36*
X16610D02*
X16600D01*
Y49100D01*
X17335D01*
Y49110D01*
X17278Y49322D01*
X17168Y49513D01*
X17013Y49668D01*
X16822Y49778D01*
X16610Y49835D01*
D02*
G37*
G36*
X16400D02*
X16390D01*
X16178Y49778D01*
X15987Y49668D01*
X15832Y49513D01*
X15722Y49322D01*
X15665Y49110D01*
Y49100D01*
X16400D01*
Y49835D01*
D02*
G37*
G36*
X160335Y48900D02*
X159600D01*
Y48165D01*
X159610D01*
X159822Y48222D01*
X160013Y48332D01*
X160168Y48487D01*
X160278Y48678D01*
X160335Y48890D01*
Y48900D01*
D02*
G37*
G36*
X159400D02*
X158665D01*
Y48890D01*
X158722Y48678D01*
X158832Y48487D01*
X158987Y48332D01*
X159178Y48222D01*
X159390Y48165D01*
X159400D01*
Y48900D01*
D02*
G37*
G36*
X108335D02*
X107600D01*
Y48165D01*
X107610D01*
X107822Y48222D01*
X108013Y48332D01*
X108168Y48487D01*
X108278Y48678D01*
X108335Y48890D01*
Y48900D01*
D02*
G37*
G36*
X107400D02*
X106665D01*
Y48890D01*
X106722Y48678D01*
X106832Y48487D01*
X106987Y48332D01*
X107178Y48222D01*
X107390Y48165D01*
X107400D01*
Y48900D01*
D02*
G37*
G36*
X82335D02*
X81600D01*
Y48165D01*
X81610D01*
X81822Y48222D01*
X82013Y48332D01*
X82168Y48487D01*
X82278Y48678D01*
X82335Y48890D01*
Y48900D01*
D02*
G37*
G36*
X81400D02*
X80665D01*
Y48890D01*
X80722Y48678D01*
X80832Y48487D01*
X80987Y48332D01*
X81178Y48222D01*
X81390Y48165D01*
X81400D01*
Y48900D01*
D02*
G37*
G36*
X69335D02*
X68600D01*
Y48165D01*
X68610D01*
X68822Y48222D01*
X69013Y48332D01*
X69168Y48487D01*
X69278Y48678D01*
X69335Y48890D01*
Y48900D01*
D02*
G37*
G36*
X68400D02*
X67665D01*
Y48890D01*
X67722Y48678D01*
X67832Y48487D01*
X67987Y48332D01*
X68178Y48222D01*
X68390Y48165D01*
X68400D01*
Y48900D01*
D02*
G37*
G36*
X56335D02*
X55600D01*
Y48165D01*
X55610D01*
X55822Y48222D01*
X56013Y48332D01*
X56168Y48487D01*
X56278Y48678D01*
X56335Y48890D01*
Y48900D01*
D02*
G37*
G36*
X55400D02*
X54665D01*
Y48890D01*
X54722Y48678D01*
X54832Y48487D01*
X54987Y48332D01*
X55178Y48222D01*
X55390Y48165D01*
X55400D01*
Y48900D01*
D02*
G37*
G36*
X43335D02*
X42600D01*
Y48165D01*
X42610D01*
X42822Y48222D01*
X43013Y48332D01*
X43168Y48487D01*
X43278Y48678D01*
X43335Y48890D01*
Y48900D01*
D02*
G37*
G36*
X42400D02*
X41665D01*
Y48890D01*
X41722Y48678D01*
X41832Y48487D01*
X41987Y48332D01*
X42178Y48222D01*
X42390Y48165D01*
X42400D01*
Y48900D01*
D02*
G37*
G36*
X30335D02*
X29600D01*
Y48165D01*
X29610D01*
X29822Y48222D01*
X30013Y48332D01*
X30168Y48487D01*
X30278Y48678D01*
X30335Y48890D01*
Y48900D01*
D02*
G37*
G36*
X29400D02*
X28665D01*
Y48890D01*
X28722Y48678D01*
X28832Y48487D01*
X28987Y48332D01*
X29178Y48222D01*
X29390Y48165D01*
X29400D01*
Y48900D01*
D02*
G37*
G36*
X17335D02*
X16600D01*
Y48165D01*
X16610D01*
X16822Y48222D01*
X17013Y48332D01*
X17168Y48487D01*
X17278Y48678D01*
X17335Y48890D01*
Y48900D01*
D02*
G37*
G36*
X16400D02*
X15665D01*
Y48890D01*
X15722Y48678D01*
X15832Y48487D01*
X15987Y48332D01*
X16178Y48222D01*
X16390Y48165D01*
X16400D01*
Y48900D01*
D02*
G37*
G36*
X135721Y70744D02*
X135532D01*
X135357Y70672D01*
X135223Y70538D01*
X135151Y70363D01*
Y70196D01*
X129050Y64095D01*
X128989Y64003D01*
X128968Y63895D01*
X128968Y63895D01*
Y53432D01*
X124576Y49040D01*
X124406D01*
X124231Y48968D01*
X124097Y48834D01*
X124025Y48659D01*
Y48471D01*
X124097Y48296D01*
X124231Y48162D01*
X124406Y48090D01*
X124594D01*
X124769Y48162D01*
X124903Y48296D01*
X124975Y48471D01*
Y48641D01*
X129450Y53115D01*
X129511Y53207D01*
X129532Y53315D01*
Y63778D01*
X135548Y69794D01*
X135721D01*
X135895Y69866D01*
X136029Y70000D01*
X136101Y70174D01*
Y70363D01*
X136029Y70538D01*
X135895Y70672D01*
X135721Y70744D01*
D02*
G37*
G36*
X126194Y47760D02*
X126006D01*
X125831Y47687D01*
X125711Y47567D01*
X123764D01*
X123644Y47687D01*
X123469Y47760D01*
X123281D01*
X123106Y47687D01*
X122972Y47554D01*
X122900Y47379D01*
Y47190D01*
X122972Y47016D01*
X123106Y46882D01*
X123281Y46810D01*
X123469D01*
X123644Y46882D01*
X123764Y47002D01*
X125711D01*
X125831Y46882D01*
X126006Y46810D01*
X126194D01*
X126369Y46882D01*
X126503Y47016D01*
X126575Y47190D01*
Y47379D01*
X126503Y47554D01*
X126369Y47687D01*
X126194Y47760D01*
D02*
G37*
G36*
X114459Y48715D02*
X114222D01*
X113993Y48654D01*
X113788Y48535D01*
X113620Y48368D01*
X113502Y48162D01*
X113441Y47933D01*
Y47696D01*
X113502Y47468D01*
X113620Y47262D01*
X113788Y47095D01*
X113993Y46976D01*
X114222Y46915D01*
X114459D01*
X114688Y46976D01*
X114893Y47095D01*
X115061Y47262D01*
X115179Y47468D01*
X115241Y47696D01*
Y47933D01*
X115179Y48162D01*
X115061Y48368D01*
X114893Y48535D01*
X114688Y48654D01*
X114459Y48715D01*
D02*
G37*
G36*
X38249D02*
X38012D01*
X37783Y48654D01*
X37578Y48535D01*
X37410Y48368D01*
X37292Y48162D01*
X37231Y47933D01*
Y47696D01*
X37292Y47468D01*
X37410Y47262D01*
X37578Y47095D01*
X37783Y46976D01*
X38012Y46915D01*
X38249D01*
X38478Y46976D01*
X38683Y47095D01*
X38851Y47262D01*
X38969Y47468D01*
X39031Y47696D01*
Y47933D01*
X38969Y48162D01*
X38851Y48368D01*
X38683Y48535D01*
X38478Y48654D01*
X38249Y48715D01*
D02*
G37*
G36*
X140274Y58970D02*
X140085D01*
X139911Y58898D01*
X139777Y58764D01*
X139705Y58589D01*
Y58401D01*
X139777Y58226D01*
X139897Y58106D01*
Y46414D01*
X139777Y46294D01*
X139705Y46119D01*
Y45931D01*
X139777Y45756D01*
X139911Y45622D01*
X140085Y45550D01*
X140274D01*
X140449Y45622D01*
X140582Y45756D01*
X140655Y45931D01*
Y46119D01*
X140582Y46294D01*
X140462Y46414D01*
Y58106D01*
X140582Y58226D01*
X140655Y58401D01*
Y58589D01*
X140582Y58764D01*
X140449Y58898D01*
X140274Y58970D01*
D02*
G37*
G36*
X136955Y62780D02*
X136766D01*
X136592Y62708D01*
X136458Y62574D01*
X136386Y62399D01*
Y62210D01*
X136458Y62036D01*
X136592Y61902D01*
X136766Y61830D01*
X136936D01*
X138620Y60147D01*
Y46414D01*
X138499Y46294D01*
X138427Y46119D01*
Y45931D01*
X138499Y45756D01*
X138633Y45622D01*
X138808Y45550D01*
X138996D01*
X139171Y45622D01*
X139305Y45756D01*
X139377Y45931D01*
Y46119D01*
X139305Y46294D01*
X139184Y46414D01*
Y60264D01*
X139163Y60372D01*
X139102Y60463D01*
X139102Y60463D01*
X137336Y62229D01*
Y62399D01*
X137263Y62574D01*
X137130Y62708D01*
X136955Y62780D01*
D02*
G37*
G36*
X114459Y46175D02*
X114222D01*
X113993Y46114D01*
X113788Y45995D01*
X113620Y45828D01*
X113502Y45622D01*
X113441Y45393D01*
Y45157D01*
X113502Y44928D01*
X113620Y44722D01*
X113788Y44555D01*
X113993Y44436D01*
X114222Y44375D01*
X114459D01*
X114688Y44436D01*
X114893Y44555D01*
X115061Y44722D01*
X115179Y44928D01*
X115241Y45157D01*
Y45393D01*
X115179Y45622D01*
X115061Y45828D01*
X114893Y45995D01*
X114688Y46114D01*
X114459Y46175D01*
D02*
G37*
G36*
X38249D02*
X38012D01*
X37783Y46114D01*
X37578Y45995D01*
X37410Y45828D01*
X37292Y45622D01*
X37231Y45393D01*
Y45157D01*
X37292Y44928D01*
X37410Y44722D01*
X37578Y44555D01*
X37783Y44436D01*
X38012Y44375D01*
X38249D01*
X38478Y44436D01*
X38683Y44555D01*
X38851Y44722D01*
X38969Y44928D01*
X39031Y45157D01*
Y45393D01*
X38969Y45622D01*
X38851Y45828D01*
X38683Y45995D01*
X38478Y46114D01*
X38249Y46175D01*
D02*
G37*
G36*
X160465Y45850D02*
X159350D01*
Y43850D01*
X160465D01*
Y45850D01*
D02*
G37*
G36*
X159150D02*
X158035D01*
Y43850D01*
X159150D01*
Y45850D01*
D02*
G37*
G36*
X114459Y43635D02*
X114222D01*
X113993Y43574D01*
X113788Y43455D01*
X113620Y43288D01*
X113502Y43082D01*
X113441Y42853D01*
Y42617D01*
X113502Y42388D01*
X113620Y42182D01*
X113788Y42015D01*
X113993Y41896D01*
X114222Y41835D01*
X114459D01*
X114688Y41896D01*
X114893Y42015D01*
X115061Y42182D01*
X115179Y42388D01*
X115241Y42617D01*
Y42853D01*
X115179Y43082D01*
X115061Y43288D01*
X114893Y43455D01*
X114688Y43574D01*
X114459Y43635D01*
D02*
G37*
G36*
X38249D02*
X38012D01*
X37783Y43574D01*
X37578Y43455D01*
X37410Y43288D01*
X37292Y43082D01*
X37231Y42853D01*
Y42617D01*
X37292Y42388D01*
X37410Y42182D01*
X37578Y42015D01*
X37783Y41896D01*
X38012Y41835D01*
X38249D01*
X38478Y41896D01*
X38683Y42015D01*
X38851Y42182D01*
X38969Y42388D01*
X39031Y42617D01*
Y42853D01*
X38969Y43082D01*
X38851Y43288D01*
X38683Y43455D01*
X38478Y43574D01*
X38249Y43635D01*
D02*
G37*
G36*
X160465Y43650D02*
X159350D01*
Y41650D01*
X160465D01*
Y43650D01*
D02*
G37*
G36*
X159150D02*
X158035D01*
Y41650D01*
X159150D01*
Y43650D01*
D02*
G37*
G36*
X114459Y41095D02*
X114222D01*
X113993Y41034D01*
X113788Y40915D01*
X113620Y40748D01*
X113502Y40542D01*
X113441Y40313D01*
Y40076D01*
X113502Y39848D01*
X113620Y39642D01*
X113788Y39475D01*
X113993Y39356D01*
X114222Y39295D01*
X114459D01*
X114688Y39356D01*
X114893Y39475D01*
X115061Y39642D01*
X115179Y39848D01*
X115241Y40076D01*
Y40313D01*
X115179Y40542D01*
X115061Y40748D01*
X114893Y40915D01*
X114688Y41034D01*
X114459Y41095D01*
D02*
G37*
G36*
X38249D02*
X38012D01*
X37783Y41034D01*
X37578Y40915D01*
X37410Y40748D01*
X37292Y40542D01*
X37231Y40313D01*
Y40076D01*
X37292Y39848D01*
X37410Y39642D01*
X37578Y39475D01*
X37783Y39356D01*
X38012Y39295D01*
X38249D01*
X38478Y39356D01*
X38683Y39475D01*
X38851Y39642D01*
X38969Y39848D01*
X39031Y40076D01*
Y40313D01*
X38969Y40542D01*
X38851Y40748D01*
X38683Y40915D01*
X38478Y41034D01*
X38249Y41095D01*
D02*
G37*
G36*
Y38555D02*
X38012D01*
X37783Y38494D01*
X37578Y38375D01*
X37410Y38208D01*
X37292Y38002D01*
X37231Y37773D01*
Y37536D01*
X37292Y37308D01*
X37410Y37102D01*
X37578Y36935D01*
X37783Y36816D01*
X38012Y36755D01*
X38249D01*
X38478Y36816D01*
X38683Y36935D01*
X38851Y37102D01*
X38969Y37308D01*
X39031Y37536D01*
Y37773D01*
X38969Y38002D01*
X38851Y38208D01*
X38683Y38375D01*
X38478Y38494D01*
X38249Y38555D01*
D02*
G37*
G36*
X153110Y36835D02*
X153100D01*
Y36100D01*
X153835D01*
Y36110D01*
X153778Y36322D01*
X153668Y36513D01*
X153513Y36668D01*
X153322Y36778D01*
X153110Y36835D01*
D02*
G37*
G36*
X152900D02*
X152890D01*
X152678Y36778D01*
X152487Y36668D01*
X152332Y36513D01*
X152222Y36322D01*
X152165Y36110D01*
Y36100D01*
X152900D01*
Y36835D01*
D02*
G37*
G36*
X127110D02*
X127100D01*
Y36100D01*
X127835D01*
Y36110D01*
X127778Y36322D01*
X127668Y36513D01*
X127513Y36668D01*
X127322Y36778D01*
X127110Y36835D01*
D02*
G37*
G36*
X126900D02*
X126890D01*
X126678Y36778D01*
X126487Y36668D01*
X126332Y36513D01*
X126222Y36322D01*
X126165Y36110D01*
Y36100D01*
X126900D01*
Y36835D01*
D02*
G37*
G36*
X101110D02*
X101100D01*
Y36100D01*
X101835D01*
Y36110D01*
X101778Y36322D01*
X101668Y36513D01*
X101513Y36668D01*
X101322Y36778D01*
X101110Y36835D01*
D02*
G37*
G36*
X100900D02*
X100890D01*
X100678Y36778D01*
X100487Y36668D01*
X100332Y36513D01*
X100222Y36322D01*
X100165Y36110D01*
Y36100D01*
X100900D01*
Y36835D01*
D02*
G37*
G36*
X88110D02*
X88100D01*
Y36100D01*
X88835D01*
Y36110D01*
X88778Y36322D01*
X88668Y36513D01*
X88513Y36668D01*
X88322Y36778D01*
X88110Y36835D01*
D02*
G37*
G36*
X87900D02*
X87890D01*
X87678Y36778D01*
X87487Y36668D01*
X87332Y36513D01*
X87222Y36322D01*
X87165Y36110D01*
Y36100D01*
X87900D01*
Y36835D01*
D02*
G37*
G36*
X75110D02*
X75100D01*
Y36100D01*
X75835D01*
Y36110D01*
X75778Y36322D01*
X75668Y36513D01*
X75513Y36668D01*
X75322Y36778D01*
X75110Y36835D01*
D02*
G37*
G36*
X74900D02*
X74890D01*
X74678Y36778D01*
X74487Y36668D01*
X74332Y36513D01*
X74222Y36322D01*
X74165Y36110D01*
Y36100D01*
X74900D01*
Y36835D01*
D02*
G37*
G36*
X62110D02*
X62100D01*
Y36100D01*
X62835D01*
Y36110D01*
X62778Y36322D01*
X62668Y36513D01*
X62513Y36668D01*
X62322Y36778D01*
X62110Y36835D01*
D02*
G37*
G36*
X61900D02*
X61890D01*
X61678Y36778D01*
X61487Y36668D01*
X61332Y36513D01*
X61222Y36322D01*
X61165Y36110D01*
Y36100D01*
X61900D01*
Y36835D01*
D02*
G37*
G36*
X49110D02*
X49100D01*
Y36100D01*
X49835D01*
Y36110D01*
X49778Y36322D01*
X49668Y36513D01*
X49513Y36668D01*
X49322Y36778D01*
X49110Y36835D01*
D02*
G37*
G36*
X48900D02*
X48890D01*
X48678Y36778D01*
X48487Y36668D01*
X48332Y36513D01*
X48222Y36322D01*
X48165Y36110D01*
Y36100D01*
X48900D01*
Y36835D01*
D02*
G37*
G36*
X36110D02*
X36100D01*
Y36100D01*
X36835D01*
Y36110D01*
X36778Y36322D01*
X36668Y36513D01*
X36513Y36668D01*
X36322Y36778D01*
X36110Y36835D01*
D02*
G37*
G36*
X35900D02*
X35890D01*
X35678Y36778D01*
X35487Y36668D01*
X35332Y36513D01*
X35222Y36322D01*
X35165Y36110D01*
Y36100D01*
X35900D01*
Y36835D01*
D02*
G37*
G36*
X23110D02*
X23100D01*
Y36100D01*
X23835D01*
Y36110D01*
X23778Y36322D01*
X23668Y36513D01*
X23513Y36668D01*
X23322Y36778D01*
X23110Y36835D01*
D02*
G37*
G36*
X22900D02*
X22890D01*
X22678Y36778D01*
X22487Y36668D01*
X22332Y36513D01*
X22222Y36322D01*
X22165Y36110D01*
Y36100D01*
X22900D01*
Y36835D01*
D02*
G37*
G36*
X10110D02*
X10100D01*
Y36100D01*
X10835D01*
Y36110D01*
X10778Y36322D01*
X10668Y36513D01*
X10513Y36668D01*
X10322Y36778D01*
X10110Y36835D01*
D02*
G37*
G36*
X9900D02*
X9890D01*
X9678Y36778D01*
X9487Y36668D01*
X9332Y36513D01*
X9222Y36322D01*
X9165Y36110D01*
Y36100D01*
X9900D01*
Y36835D01*
D02*
G37*
G36*
X153835Y35900D02*
X153100D01*
Y35165D01*
X153110D01*
X153322Y35222D01*
X153513Y35332D01*
X153668Y35487D01*
X153778Y35678D01*
X153835Y35890D01*
Y35900D01*
D02*
G37*
G36*
X152900D02*
X152165D01*
Y35890D01*
X152222Y35678D01*
X152332Y35487D01*
X152487Y35332D01*
X152678Y35222D01*
X152890Y35165D01*
X152900D01*
Y35900D01*
D02*
G37*
G36*
X127835D02*
X127100D01*
Y35165D01*
X127110D01*
X127322Y35222D01*
X127513Y35332D01*
X127668Y35487D01*
X127778Y35678D01*
X127835Y35890D01*
Y35900D01*
D02*
G37*
G36*
X126900D02*
X126165D01*
Y35890D01*
X126222Y35678D01*
X126332Y35487D01*
X126487Y35332D01*
X126678Y35222D01*
X126890Y35165D01*
X126900D01*
Y35900D01*
D02*
G37*
G36*
X101835D02*
X101100D01*
Y35165D01*
X101110D01*
X101322Y35222D01*
X101513Y35332D01*
X101668Y35487D01*
X101778Y35678D01*
X101835Y35890D01*
Y35900D01*
D02*
G37*
G36*
X100900D02*
X100165D01*
Y35890D01*
X100222Y35678D01*
X100332Y35487D01*
X100487Y35332D01*
X100678Y35222D01*
X100890Y35165D01*
X100900D01*
Y35900D01*
D02*
G37*
G36*
X88835D02*
X88100D01*
Y35165D01*
X88110D01*
X88322Y35222D01*
X88513Y35332D01*
X88668Y35487D01*
X88778Y35678D01*
X88835Y35890D01*
Y35900D01*
D02*
G37*
G36*
X87900D02*
X87165D01*
Y35890D01*
X87222Y35678D01*
X87332Y35487D01*
X87487Y35332D01*
X87678Y35222D01*
X87890Y35165D01*
X87900D01*
Y35900D01*
D02*
G37*
G36*
X75835D02*
X75100D01*
Y35165D01*
X75110D01*
X75322Y35222D01*
X75513Y35332D01*
X75668Y35487D01*
X75778Y35678D01*
X75835Y35890D01*
Y35900D01*
D02*
G37*
G36*
X74900D02*
X74165D01*
Y35890D01*
X74222Y35678D01*
X74332Y35487D01*
X74487Y35332D01*
X74678Y35222D01*
X74890Y35165D01*
X74900D01*
Y35900D01*
D02*
G37*
G36*
X62835D02*
X62100D01*
Y35165D01*
X62110D01*
X62322Y35222D01*
X62513Y35332D01*
X62668Y35487D01*
X62778Y35678D01*
X62835Y35890D01*
Y35900D01*
D02*
G37*
G36*
X61900D02*
X61165D01*
Y35890D01*
X61222Y35678D01*
X61332Y35487D01*
X61487Y35332D01*
X61678Y35222D01*
X61890Y35165D01*
X61900D01*
Y35900D01*
D02*
G37*
G36*
X49835D02*
X49100D01*
Y35165D01*
X49110D01*
X49322Y35222D01*
X49513Y35332D01*
X49668Y35487D01*
X49778Y35678D01*
X49835Y35890D01*
Y35900D01*
D02*
G37*
G36*
X48900D02*
X48165D01*
Y35890D01*
X48222Y35678D01*
X48332Y35487D01*
X48487Y35332D01*
X48678Y35222D01*
X48890Y35165D01*
X48900D01*
Y35900D01*
D02*
G37*
G36*
X36835D02*
X36100D01*
Y35165D01*
X36110D01*
X36322Y35222D01*
X36513Y35332D01*
X36668Y35487D01*
X36778Y35678D01*
X36835Y35890D01*
Y35900D01*
D02*
G37*
G36*
X35900D02*
X35165D01*
Y35890D01*
X35222Y35678D01*
X35332Y35487D01*
X35487Y35332D01*
X35678Y35222D01*
X35890Y35165D01*
X35900D01*
Y35900D01*
D02*
G37*
G36*
X23835D02*
X23100D01*
Y35165D01*
X23110D01*
X23322Y35222D01*
X23513Y35332D01*
X23668Y35487D01*
X23778Y35678D01*
X23835Y35890D01*
Y35900D01*
D02*
G37*
G36*
X22900D02*
X22165D01*
Y35890D01*
X22222Y35678D01*
X22332Y35487D01*
X22487Y35332D01*
X22678Y35222D01*
X22890Y35165D01*
X22900D01*
Y35900D01*
D02*
G37*
G36*
X10835D02*
X10100D01*
Y35165D01*
X10110D01*
X10322Y35222D01*
X10513Y35332D01*
X10668Y35487D01*
X10778Y35678D01*
X10835Y35890D01*
Y35900D01*
D02*
G37*
G36*
X9900D02*
X9165D01*
Y35890D01*
X9222Y35678D01*
X9332Y35487D01*
X9487Y35332D01*
X9678Y35222D01*
X9890Y35165D01*
X9900D01*
Y35900D01*
D02*
G37*
G36*
X114459Y36015D02*
X114222D01*
X113993Y35954D01*
X113788Y35835D01*
X113620Y35668D01*
X113502Y35462D01*
X113441Y35233D01*
Y34996D01*
X113502Y34768D01*
X113620Y34562D01*
X113788Y34395D01*
X113993Y34276D01*
X114222Y34215D01*
X114459D01*
X114688Y34276D01*
X114893Y34395D01*
X115061Y34562D01*
X115179Y34768D01*
X115241Y34996D01*
Y35233D01*
X115179Y35462D01*
X115061Y35668D01*
X114893Y35835D01*
X114688Y35954D01*
X114459Y36015D01*
D02*
G37*
G36*
X38249D02*
X38012D01*
X37783Y35954D01*
X37578Y35835D01*
X37410Y35668D01*
X37292Y35462D01*
X37231Y35233D01*
Y34996D01*
X37292Y34768D01*
X37410Y34562D01*
X37578Y34395D01*
X37783Y34276D01*
X38012Y34215D01*
X38249D01*
X38478Y34276D01*
X38683Y34395D01*
X38851Y34562D01*
X38969Y34768D01*
X39031Y34996D01*
Y35233D01*
X38969Y35462D01*
X38851Y35668D01*
X38683Y35835D01*
X38478Y35954D01*
X38249Y36015D01*
D02*
G37*
G36*
X124594Y54120D02*
X124406D01*
X124231Y54048D01*
X124097Y53914D01*
X124025Y53739D01*
Y53569D01*
X121300Y50845D01*
X121239Y50753D01*
X121218Y50645D01*
X121218Y50645D01*
Y37444D01*
X121218Y37444D01*
X121239Y37336D01*
X121300Y37245D01*
X127419Y31126D01*
Y30956D01*
X127492Y30781D01*
X127625Y30647D01*
X127800Y30575D01*
X127989D01*
X128164Y30647D01*
X128297Y30781D01*
X128369Y30956D01*
Y31144D01*
X128297Y31319D01*
X128164Y31453D01*
X127989Y31525D01*
X127819D01*
X121782Y37561D01*
Y50528D01*
X124424Y53170D01*
X124594D01*
X124769Y53242D01*
X124903Y53376D01*
X124975Y53550D01*
Y53739D01*
X124903Y53914D01*
X124769Y54048D01*
X124594Y54120D01*
D02*
G37*
G36*
X159794Y30544D02*
X159605D01*
X159431Y30472D01*
X159310Y30352D01*
X149139D01*
X149019Y30472D01*
X148844Y30544D01*
X148656D01*
X148481Y30472D01*
X148347Y30339D01*
X148275Y30164D01*
Y29975D01*
X148347Y29800D01*
X148481Y29667D01*
X148656Y29594D01*
X148844D01*
X149019Y29667D01*
X149139Y29787D01*
X159310D01*
X159431Y29667D01*
X159605Y29594D01*
X159794D01*
X159969Y29667D01*
X160102Y29800D01*
X160175Y29975D01*
Y30164D01*
X160102Y30339D01*
X159969Y30472D01*
X159794Y30544D01*
D02*
G37*
G36*
X114466Y30985D02*
X114441D01*
Y30135D01*
X115291D01*
Y30160D01*
X115226Y30402D01*
X115101Y30618D01*
X114924Y30795D01*
X114707Y30920D01*
X114466Y30985D01*
D02*
G37*
G36*
X114241D02*
X114216D01*
X113974Y30920D01*
X113757Y30795D01*
X113580Y30618D01*
X113455Y30402D01*
X113391Y30160D01*
Y30135D01*
X114241D01*
Y30985D01*
D02*
G37*
G36*
X38256D02*
X38231D01*
Y30135D01*
X39081D01*
Y30160D01*
X39016Y30402D01*
X38891Y30618D01*
X38714Y30795D01*
X38497Y30920D01*
X38256Y30985D01*
D02*
G37*
G36*
X38031D02*
X38006D01*
X37764Y30920D01*
X37547Y30795D01*
X37370Y30618D01*
X37245Y30402D01*
X37181Y30160D01*
Y30135D01*
X38031D01*
Y30985D01*
D02*
G37*
G36*
X158694Y29615D02*
X158505D01*
X158331Y29543D01*
X158210Y29423D01*
X148604D01*
X148604Y29423D01*
X148496Y29401D01*
X148404Y29340D01*
X148404Y29340D01*
X145766Y26702D01*
X145596D01*
X145422Y26630D01*
X145288Y26496D01*
X145216Y26321D01*
Y26132D01*
X145288Y25958D01*
X145422Y25824D01*
X145596Y25752D01*
X145785D01*
X145960Y25824D01*
X146093Y25958D01*
X146166Y26132D01*
Y26303D01*
X148721Y28858D01*
X158210D01*
X158331Y28737D01*
X158505Y28665D01*
X158694D01*
X158869Y28737D01*
X159002Y28871D01*
X159075Y29046D01*
Y29235D01*
X159002Y29409D01*
X158869Y29543D01*
X158694Y29615D01*
D02*
G37*
G36*
X115291Y29935D02*
X114441D01*
Y29085D01*
X114466D01*
X114707Y29150D01*
X114924Y29275D01*
X115101Y29452D01*
X115226Y29668D01*
X115291Y29910D01*
Y29935D01*
D02*
G37*
G36*
X114241D02*
X113391D01*
Y29910D01*
X113455Y29668D01*
X113580Y29452D01*
X113757Y29275D01*
X113974Y29150D01*
X114216Y29085D01*
X114241D01*
Y29935D01*
D02*
G37*
G36*
X39081Y29935D02*
X38231D01*
Y29085D01*
X38256D01*
X38497Y29150D01*
X38714Y29275D01*
X38891Y29452D01*
X39016Y29668D01*
X39081Y29910D01*
Y29935D01*
D02*
G37*
G36*
X38031D02*
X37181D01*
Y29910D01*
X37245Y29668D01*
X37370Y29452D01*
X37547Y29275D01*
X37764Y29150D01*
X38006Y29085D01*
X38031D01*
Y29935D01*
D02*
G37*
G36*
X131805Y65320D02*
X131616D01*
X131442Y65248D01*
X131308Y65114D01*
X131236Y64939D01*
Y64751D01*
X131308Y64576D01*
X131442Y64442D01*
X131604Y64375D01*
X136983Y58996D01*
Y51757D01*
X136916Y51594D01*
Y51406D01*
X136983Y51243D01*
Y39109D01*
X136983Y39109D01*
X137014Y38953D01*
X137102Y38821D01*
X143030Y32893D01*
X143092Y32743D01*
Y24909D01*
X141326Y23143D01*
X140427D01*
X140379Y23260D01*
X140388Y23269D01*
X140460Y23444D01*
Y23633D01*
X140388Y23808D01*
X140254Y23941D01*
X140080Y24013D01*
X139891D01*
X139716Y23941D01*
X139596Y23821D01*
X123787D01*
X123607Y24001D01*
Y24171D01*
X123535Y24345D01*
X123401Y24479D01*
X123227Y24551D01*
X123038D01*
X122863Y24479D01*
X122730Y24345D01*
X122657Y24171D01*
Y23982D01*
X122730Y23807D01*
X122863Y23674D01*
X123038Y23601D01*
X123208D01*
X123471Y23339D01*
X123471Y23339D01*
X123497Y23321D01*
X123458Y23194D01*
X121116D01*
X118662Y25648D01*
X118715Y25775D01*
X118845D01*
X119020Y25847D01*
X119065Y25893D01*
X136981D01*
X137061Y25839D01*
X137063Y25839D01*
X137066Y25831D01*
X137200Y25697D01*
X137374Y25625D01*
X137563D01*
X137738Y25697D01*
X137858Y25818D01*
X138750D01*
Y24935D01*
X142850D01*
Y27265D01*
X138844D01*
X138791Y27392D01*
X139998Y28598D01*
X140411D01*
X140531Y28478D01*
X140706Y28406D01*
X140894D01*
X141069Y28478D01*
X141203Y28611D01*
X141275Y28786D01*
Y28975D01*
X141203Y29150D01*
X141082Y29270D01*
Y29704D01*
X142850D01*
Y32034D01*
X138750D01*
Y29704D01*
X140518D01*
Y29270D01*
X140411Y29163D01*
X139881D01*
X139881Y29163D01*
X139772Y29141D01*
X139681Y29080D01*
X139681Y29080D01*
X138033Y27432D01*
X137480D01*
X137428Y27559D01*
X138340Y28472D01*
X138340Y28472D01*
X138402Y28564D01*
X138423Y28672D01*
X138423Y28672D01*
Y29936D01*
X138543Y30056D01*
X138616Y30230D01*
Y30419D01*
X138543Y30594D01*
X138410Y30728D01*
X138235Y30800D01*
X138046D01*
X137872Y30728D01*
X137738Y30594D01*
X137666Y30419D01*
Y30230D01*
X137738Y30056D01*
X137858Y29936D01*
Y28789D01*
X137082Y28013D01*
X137045Y28019D01*
X136966Y28160D01*
X136975Y28181D01*
Y28369D01*
X136903Y28544D01*
X136769Y28678D01*
X136594Y28750D01*
X136424D01*
X133532Y31642D01*
Y50496D01*
X133653Y50616D01*
X133725Y50791D01*
Y50980D01*
X133653Y51154D01*
X133519Y51288D01*
X133344Y51360D01*
X133156D01*
X132981Y51288D01*
X132847Y51154D01*
X132775Y50980D01*
Y50791D01*
X132847Y50616D01*
X132968Y50496D01*
Y40122D01*
X132841Y40059D01*
X132782Y40104D01*
Y40702D01*
X132761Y40810D01*
X132700Y40902D01*
X132102Y41500D01*
X132010Y41561D01*
X131902Y41582D01*
X131902Y41582D01*
X131320D01*
X131289Y41653D01*
X131281Y41709D01*
X131403Y41831D01*
X131475Y42006D01*
Y42194D01*
X131403Y42369D01*
X131269Y42503D01*
X131094Y42575D01*
X130906D01*
X130731Y42503D01*
X130611Y42382D01*
X124039D01*
X123919Y42503D01*
X123979Y42609D01*
X124027Y42657D01*
X124037Y42680D01*
X129648D01*
X129731Y42597D01*
X129906Y42525D01*
X130094D01*
X130269Y42597D01*
X130403Y42731D01*
X130475Y42906D01*
Y43094D01*
X130403Y43269D01*
X130269Y43403D01*
X130094Y43475D01*
X129906D01*
X129731Y43403D01*
X129597Y43269D01*
X129587Y43245D01*
X123976D01*
X123893Y43328D01*
X123719Y43401D01*
X123530D01*
X123355Y43328D01*
X123222Y43195D01*
X123149Y43020D01*
Y42831D01*
X123222Y42657D01*
X123355Y42523D01*
X123295Y42417D01*
X123247Y42369D01*
X123175Y42194D01*
Y42006D01*
X123247Y41831D01*
X123378Y41700D01*
X123247Y41569D01*
X123175Y41394D01*
Y41206D01*
X123247Y41031D01*
X123381Y40897D01*
X123490Y40852D01*
Y40715D01*
X123381Y40669D01*
X123247Y40536D01*
X123175Y40361D01*
Y40172D01*
X123247Y39998D01*
X123381Y39864D01*
X123556Y39792D01*
X123744D01*
X123919Y39864D01*
X124039Y39984D01*
X131311D01*
X131431Y39864D01*
X131606Y39792D01*
X131794D01*
X131923Y39845D01*
X132025Y39759D01*
Y39570D01*
X132097Y39396D01*
X132231Y39262D01*
X132406Y39190D01*
X132594D01*
X132769Y39262D01*
X132841Y39333D01*
X132968Y39281D01*
Y31525D01*
X132968Y31525D01*
X132989Y31417D01*
X133050Y31325D01*
X136025Y28351D01*
Y28181D01*
X136079Y28050D01*
X136014Y27923D01*
X120132D01*
X119856Y28200D01*
X119764Y28261D01*
X119656Y28282D01*
X119656Y28282D01*
X119140D01*
X119022Y28400D01*
X119140Y28518D01*
X124024D01*
X124024Y28518D01*
X124132Y28539D01*
X124223Y28600D01*
X126122Y30499D01*
X126292D01*
X126467Y30572D01*
X126601Y30705D01*
X126673Y30880D01*
Y31069D01*
X126601Y31243D01*
X126467Y31377D01*
X126292Y31449D01*
X126104D01*
X125929Y31377D01*
X125795Y31243D01*
X125723Y31069D01*
Y30899D01*
X123907Y29082D01*
X119140D01*
X119020Y29203D01*
X118845Y29275D01*
X118656D01*
X118482Y29203D01*
X118348Y29069D01*
X118276Y28894D01*
Y28705D01*
X118348Y28531D01*
X118479Y28400D01*
X118348Y28269D01*
X118276Y28094D01*
Y27906D01*
X118348Y27731D01*
X118421Y27658D01*
X118469Y27575D01*
X118421Y27492D01*
X118348Y27419D01*
X118276Y27244D01*
Y27056D01*
X118348Y26881D01*
X118451Y26778D01*
X118470Y26700D01*
X118451Y26622D01*
X118348Y26519D01*
X118276Y26344D01*
Y26214D01*
X118149Y26161D01*
X116757Y27553D01*
Y35521D01*
X116736Y35629D01*
X116675Y35720D01*
X115146Y37249D01*
X115179Y37308D01*
X115241Y37536D01*
Y37773D01*
X115179Y38002D01*
X115061Y38208D01*
X114893Y38375D01*
X114688Y38494D01*
X114459Y38555D01*
X114222D01*
X113993Y38494D01*
X113788Y38375D01*
X113620Y38208D01*
X113502Y38002D01*
X113441Y37773D01*
Y37536D01*
X113502Y37308D01*
X113620Y37102D01*
X113788Y36935D01*
X113993Y36816D01*
X114222Y36755D01*
X114459D01*
X114688Y36816D01*
X114746Y36850D01*
X116193Y35404D01*
Y27436D01*
X116193Y27436D01*
X116214Y27328D01*
X116275Y27236D01*
X120799Y22712D01*
X120799Y22712D01*
X120891Y22651D01*
X120999Y22629D01*
X124611D01*
X124731Y22509D01*
X124906Y22437D01*
X125094D01*
X125269Y22509D01*
X125403Y22643D01*
X125475Y22817D01*
Y23006D01*
X125424Y23129D01*
X125493Y23256D01*
X129085D01*
X129097Y23129D01*
X129012Y23112D01*
X128880Y23024D01*
X128880Y23024D01*
X128587Y22731D01*
X128498Y22598D01*
X128467Y22442D01*
X128467Y22442D01*
Y21665D01*
X128405Y21515D01*
X123048Y16158D01*
X119728D01*
X119591Y16395D01*
X119395Y16590D01*
X119156Y16729D01*
X118889Y16800D01*
X118612D01*
X118345Y16729D01*
X118106Y16590D01*
X117919Y16403D01*
X117831D01*
X113148Y21087D01*
X113200Y21283D01*
Y21533D01*
X113135Y21775D01*
X113010Y21991D01*
X112833Y22168D01*
X112617Y22293D01*
X112375Y22358D01*
X112125D01*
X111883Y22293D01*
X111667Y22168D01*
X111490Y21991D01*
X111388Y21816D01*
X110908D01*
Y28565D01*
X114061Y31718D01*
X114222Y31675D01*
X114459D01*
X114688Y31736D01*
X114893Y31855D01*
X115061Y32022D01*
X115179Y32228D01*
X115241Y32457D01*
Y32693D01*
X115179Y32922D01*
X115061Y33128D01*
X114893Y33295D01*
X114688Y33414D01*
X114459Y33475D01*
X114222D01*
X113993Y33414D01*
X113788Y33295D01*
X113620Y33128D01*
X113502Y32922D01*
X113441Y32693D01*
Y32457D01*
X113484Y32295D01*
X110212Y29023D01*
X110123Y28890D01*
X110092Y28734D01*
X110092Y28734D01*
Y21577D01*
X106673Y18158D01*
X41158D01*
Y29956D01*
X41158Y29956D01*
X41127Y30112D01*
X41038Y30244D01*
X41038Y30244D01*
X38987Y32295D01*
X39031Y32457D01*
Y32693D01*
X38969Y32922D01*
X38851Y33128D01*
X38683Y33295D01*
X38478Y33414D01*
X38249Y33475D01*
X38012D01*
X37783Y33414D01*
X37578Y33295D01*
X37410Y33128D01*
X37292Y32922D01*
X37231Y32693D01*
Y32457D01*
X37292Y32228D01*
X37410Y32022D01*
X37578Y31855D01*
X37783Y31736D01*
X38012Y31675D01*
X38249D01*
X38411Y31718D01*
X40342Y29787D01*
Y18158D01*
X37716D01*
X37560Y18127D01*
X37427Y18038D01*
X37427Y18038D01*
X36403Y17014D01*
X36139Y17085D01*
X35862D01*
X35595Y17013D01*
X35356Y16875D01*
X35160Y16680D01*
X35022Y16440D01*
X34951Y16173D01*
Y15897D01*
X35022Y15630D01*
X35160Y15390D01*
X35356Y15195D01*
X35595Y15057D01*
X35862Y14985D01*
X36139D01*
X36406Y15057D01*
X36645Y15195D01*
X36841Y15390D01*
X36979Y15630D01*
X37051Y15897D01*
Y16173D01*
X36980Y16437D01*
X37885Y17342D01*
X76843D01*
Y17012D01*
X76606Y16875D01*
X76410Y16680D01*
X76272Y16440D01*
X76201Y16173D01*
Y15897D01*
X76272Y15630D01*
X76410Y15390D01*
X76606Y15195D01*
X76845Y15057D01*
X77112Y14985D01*
X77389D01*
X77656Y15057D01*
X77895Y15195D01*
X78091Y15390D01*
X78229Y15630D01*
X78301Y15897D01*
Y16173D01*
X78229Y16440D01*
X78091Y16680D01*
X77895Y16875D01*
X77658Y17012D01*
Y17342D01*
X106842D01*
X106842Y17342D01*
X106998Y17373D01*
X107130Y17462D01*
X110669Y21000D01*
X111388D01*
X111490Y20825D01*
X111667Y20648D01*
X111883Y20523D01*
X112125Y20458D01*
X112375D01*
X112571Y20510D01*
X117374Y15707D01*
X117506Y15619D01*
X117663Y15588D01*
X117663Y15588D01*
X117707D01*
X117772Y15345D01*
X117910Y15105D01*
X118106Y14910D01*
X118345Y14772D01*
X118612Y14700D01*
X118889D01*
X119156Y14772D01*
X119395Y14910D01*
X119591Y15105D01*
X119728Y15342D01*
X123217D01*
X123217Y15342D01*
X123373Y15373D01*
X123505Y15462D01*
X128982Y20938D01*
X129144Y21005D01*
X129278Y21139D01*
X129350Y21313D01*
Y21502D01*
X129283Y21665D01*
Y22273D01*
X129337Y22327D01*
X130655D01*
X130740Y22200D01*
X130700Y22104D01*
Y21934D01*
X122424Y13659D01*
X115747D01*
X115639Y13637D01*
X115548Y13576D01*
X113289Y11317D01*
X90762D01*
X90729Y11440D01*
X90591Y11680D01*
X90395Y11875D01*
X90156Y12013D01*
X89889Y12085D01*
X89612D01*
X89345Y12013D01*
X89106Y11875D01*
X88910Y11680D01*
X88772Y11440D01*
X88701Y11173D01*
Y10897D01*
X88772Y10630D01*
X88910Y10390D01*
X89106Y10195D01*
X89345Y10057D01*
X89612Y9985D01*
X89889D01*
X90156Y10057D01*
X90395Y10195D01*
X90591Y10390D01*
X90729Y10630D01*
X90762Y10753D01*
X100392D01*
X100445Y10626D01*
X100332Y10513D01*
X100222Y10322D01*
X100165Y10110D01*
Y10100D01*
X101835D01*
Y10110D01*
X101778Y10322D01*
X101668Y10513D01*
X101555Y10626D01*
X101608Y10753D01*
X113392D01*
X113418Y10720D01*
X113451Y10632D01*
X113332Y10513D01*
X113222Y10322D01*
X113165Y10110D01*
Y10100D01*
X113900D01*
Y10835D01*
X113890D01*
X113747Y10797D01*
X113681Y10910D01*
X115864Y13094D01*
X122541D01*
X122541Y13094D01*
X122649Y13115D01*
X122741Y13177D01*
X131099Y21535D01*
X131269D01*
X131444Y21607D01*
X131578Y21741D01*
X131650Y21916D01*
Y22104D01*
X131610Y22200D01*
X131695Y22327D01*
X131980D01*
X132065Y22200D01*
X132025Y22104D01*
Y21934D01*
X129552Y19462D01*
X129491Y19370D01*
X129470Y19262D01*
X129470Y19262D01*
Y12249D01*
X129470Y12249D01*
X129491Y12141D01*
X129552Y12049D01*
X130336Y11266D01*
X130272Y11155D01*
X130201Y10888D01*
Y10612D01*
X130272Y10345D01*
X130410Y10105D01*
X130606Y9910D01*
X130845Y9772D01*
X131112Y9700D01*
X131389D01*
X131656Y9772D01*
X131895Y9910D01*
X132091Y10105D01*
X132229Y10345D01*
X132301Y10612D01*
Y10888D01*
X132229Y11155D01*
X132091Y11395D01*
X131895Y11590D01*
X131656Y11729D01*
X131389Y11800D01*
X131112D01*
X130845Y11729D01*
X130735Y11665D01*
X130034Y12366D01*
Y19145D01*
X132424Y21535D01*
X132594D01*
X132769Y21607D01*
X132903Y21741D01*
X132975Y21916D01*
Y22104D01*
X132935Y22200D01*
X133020Y22327D01*
X141495D01*
X141495Y22327D01*
X141651Y22358D01*
X141784Y22447D01*
X143788Y24452D01*
X143788Y24452D01*
X143877Y24584D01*
X143908Y24740D01*
Y26957D01*
X144035Y26982D01*
X144097Y26831D01*
X144218Y26711D01*
Y24379D01*
X144218Y24379D01*
X144239Y24271D01*
X144300Y24179D01*
X144679Y23800D01*
X144679Y23800D01*
X144771Y23739D01*
X144879Y23718D01*
X144879Y23718D01*
X158510D01*
X158510Y23718D01*
X158618Y23739D01*
X158710Y23800D01*
X159174Y24265D01*
X159344D01*
X159519Y24337D01*
X159653Y24471D01*
X159725Y24646D01*
Y24835D01*
X159653Y25009D01*
X159519Y25143D01*
X159344Y25215D01*
X159156D01*
X158981Y25143D01*
X158847Y25009D01*
X158775Y24835D01*
Y24664D01*
X158393Y24282D01*
X144996D01*
X144782Y24496D01*
Y26711D01*
X144903Y26831D01*
X144975Y27006D01*
Y27194D01*
X144903Y27369D01*
X144769Y27503D01*
X144594Y27575D01*
X144406D01*
X144231Y27503D01*
X144097Y27369D01*
X144035Y27218D01*
X143908Y27243D01*
Y32743D01*
X143975Y32906D01*
Y33094D01*
X143903Y33269D01*
X143769Y33403D01*
X143607Y33470D01*
X137798Y39278D01*
Y51243D01*
X137866Y51406D01*
Y51594D01*
X137798Y51757D01*
Y59165D01*
X137767Y59321D01*
X137679Y59453D01*
X137679Y59453D01*
X132180Y64952D01*
X132113Y65114D01*
X131980Y65248D01*
X131805Y65320D01*
D02*
G37*
G36*
X44849Y75620D02*
X44651D01*
X44461Y75569D01*
X44289Y75470D01*
X44150Y75331D01*
X44051Y75160D01*
X44000Y74969D01*
Y74771D01*
X44051Y74581D01*
X44150Y74410D01*
X44289Y74270D01*
X44461Y74171D01*
X44651Y74120D01*
X44849D01*
X45039Y74171D01*
X45046Y74175D01*
X90686Y28535D01*
X90686Y28535D01*
X90778Y28473D01*
X90886Y28452D01*
X99247D01*
X99313Y28325D01*
X99283Y28282D01*
X87737D01*
X45445Y70574D01*
X45449Y70581D01*
X45500Y70771D01*
Y70969D01*
X45449Y71160D01*
X45350Y71331D01*
X45211Y71470D01*
X45039Y71569D01*
X44849Y71620D01*
X44651D01*
X44461Y71569D01*
X44289Y71470D01*
X44150Y71331D01*
X44051Y71160D01*
X44000Y70969D01*
Y70771D01*
X44051Y70581D01*
X44150Y70410D01*
X44289Y70270D01*
X44461Y70171D01*
X44651Y70120D01*
X44849D01*
X45039Y70171D01*
X45046Y70175D01*
X87420Y27800D01*
X87420Y27800D01*
X87512Y27739D01*
X87620Y27718D01*
X87620Y27718D01*
X99361D01*
X99481Y27597D01*
X99656Y27525D01*
X99844D01*
X100019Y27597D01*
X100153Y27731D01*
X100225Y27906D01*
Y28094D01*
X100153Y28269D01*
X100097Y28325D01*
X100149Y28452D01*
X101111D01*
X101231Y28332D01*
X101406Y28259D01*
X101594D01*
X101769Y28332D01*
X101903Y28465D01*
X101975Y28640D01*
Y28829D01*
X101903Y29003D01*
X101769Y29137D01*
X101594Y29209D01*
X101406D01*
X101231Y29137D01*
X101111Y29017D01*
X91003D01*
X45445Y74574D01*
X45449Y74581D01*
X45500Y74771D01*
Y74969D01*
X45449Y75160D01*
X45350Y75331D01*
X45211Y75470D01*
X45039Y75569D01*
X44849Y75620D01*
D02*
G37*
G36*
X160094Y27575D02*
X159906D01*
X159731Y27503D01*
X159611Y27382D01*
X148791D01*
X148791Y27382D01*
X148683Y27361D01*
X148591Y27300D01*
X146789Y25498D01*
X146619D01*
X146445Y25426D01*
X146311Y25292D01*
X146239Y25117D01*
Y24928D01*
X146311Y24754D01*
X146445Y24620D01*
X146619Y24548D01*
X146808D01*
X146983Y24620D01*
X147116Y24754D01*
X147189Y24928D01*
Y25099D01*
X148908Y26818D01*
X159611D01*
X159731Y26697D01*
X159906Y26625D01*
X160094D01*
X160269Y26697D01*
X160403Y26831D01*
X160475Y27006D01*
Y27194D01*
X160403Y27369D01*
X160269Y27503D01*
X160094Y27575D01*
D02*
G37*
G36*
X94610Y23835D02*
X94600D01*
Y23100D01*
X95335D01*
Y23110D01*
X95278Y23322D01*
X95168Y23513D01*
X95013Y23668D01*
X94822Y23778D01*
X94610Y23835D01*
D02*
G37*
G36*
X94400D02*
X94390D01*
X94178Y23778D01*
X93987Y23668D01*
X93832Y23513D01*
X93722Y23322D01*
X93665Y23110D01*
Y23100D01*
X94400D01*
Y23835D01*
D02*
G37*
G36*
X81610D02*
X81600D01*
Y23100D01*
X82335D01*
Y23110D01*
X82278Y23322D01*
X82168Y23513D01*
X82013Y23668D01*
X81822Y23778D01*
X81610Y23835D01*
D02*
G37*
G36*
X81400D02*
X81390D01*
X81178Y23778D01*
X80987Y23668D01*
X80832Y23513D01*
X80722Y23322D01*
X80665Y23110D01*
Y23100D01*
X81400D01*
Y23835D01*
D02*
G37*
G36*
X68610D02*
X68600D01*
Y23100D01*
X69335D01*
Y23110D01*
X69278Y23322D01*
X69168Y23513D01*
X69013Y23668D01*
X68822Y23778D01*
X68610Y23835D01*
D02*
G37*
G36*
X68400D02*
X68390D01*
X68178Y23778D01*
X67987Y23668D01*
X67832Y23513D01*
X67722Y23322D01*
X67665Y23110D01*
Y23100D01*
X68400D01*
Y23835D01*
D02*
G37*
G36*
X55610D02*
X55600D01*
Y23100D01*
X56335D01*
Y23110D01*
X56278Y23322D01*
X56168Y23513D01*
X56013Y23668D01*
X55822Y23778D01*
X55610Y23835D01*
D02*
G37*
G36*
X55400D02*
X55390D01*
X55178Y23778D01*
X54987Y23668D01*
X54832Y23513D01*
X54722Y23322D01*
X54665Y23110D01*
Y23100D01*
X55400D01*
Y23835D01*
D02*
G37*
G36*
X42610D02*
X42600D01*
Y23100D01*
X43335D01*
Y23110D01*
X43278Y23322D01*
X43168Y23513D01*
X43013Y23668D01*
X42822Y23778D01*
X42610Y23835D01*
D02*
G37*
G36*
X42400D02*
X42390D01*
X42178Y23778D01*
X41987Y23668D01*
X41832Y23513D01*
X41722Y23322D01*
X41665Y23110D01*
Y23100D01*
X42400D01*
Y23835D01*
D02*
G37*
G36*
X29610D02*
X29600D01*
Y23100D01*
X30335D01*
Y23110D01*
X30278Y23322D01*
X30168Y23513D01*
X30013Y23668D01*
X29822Y23778D01*
X29610Y23835D01*
D02*
G37*
G36*
X29400D02*
X29390D01*
X29178Y23778D01*
X28987Y23668D01*
X28832Y23513D01*
X28722Y23322D01*
X28665Y23110D01*
Y23100D01*
X29400D01*
Y23835D01*
D02*
G37*
G36*
X16610D02*
X16600D01*
Y23100D01*
X17335D01*
Y23110D01*
X17278Y23322D01*
X17168Y23513D01*
X17013Y23668D01*
X16822Y23778D01*
X16610Y23835D01*
D02*
G37*
G36*
X16400D02*
X16390D01*
X16178Y23778D01*
X15987Y23668D01*
X15832Y23513D01*
X15722Y23322D01*
X15665Y23110D01*
Y23100D01*
X16400D01*
Y23835D01*
D02*
G37*
G36*
X95335Y22900D02*
X94600D01*
Y22165D01*
X94610D01*
X94822Y22222D01*
X95013Y22332D01*
X95168Y22487D01*
X95278Y22678D01*
X95335Y22890D01*
Y22900D01*
D02*
G37*
G36*
X94400D02*
X93665D01*
Y22890D01*
X93722Y22678D01*
X93832Y22487D01*
X93987Y22332D01*
X94178Y22222D01*
X94390Y22165D01*
X94400D01*
Y22900D01*
D02*
G37*
G36*
X82335D02*
X81600D01*
Y22165D01*
X81610D01*
X81822Y22222D01*
X82013Y22332D01*
X82168Y22487D01*
X82278Y22678D01*
X82335Y22890D01*
Y22900D01*
D02*
G37*
G36*
X81400D02*
X80665D01*
Y22890D01*
X80722Y22678D01*
X80832Y22487D01*
X80987Y22332D01*
X81178Y22222D01*
X81390Y22165D01*
X81400D01*
Y22900D01*
D02*
G37*
G36*
X69335D02*
X68600D01*
Y22165D01*
X68610D01*
X68822Y22222D01*
X69013Y22332D01*
X69168Y22487D01*
X69278Y22678D01*
X69335Y22890D01*
Y22900D01*
D02*
G37*
G36*
X68400D02*
X67665D01*
Y22890D01*
X67722Y22678D01*
X67832Y22487D01*
X67987Y22332D01*
X68178Y22222D01*
X68390Y22165D01*
X68400D01*
Y22900D01*
D02*
G37*
G36*
X56335D02*
X55600D01*
Y22165D01*
X55610D01*
X55822Y22222D01*
X56013Y22332D01*
X56168Y22487D01*
X56278Y22678D01*
X56335Y22890D01*
Y22900D01*
D02*
G37*
G36*
X55400D02*
X54665D01*
Y22890D01*
X54722Y22678D01*
X54832Y22487D01*
X54987Y22332D01*
X55178Y22222D01*
X55390Y22165D01*
X55400D01*
Y22900D01*
D02*
G37*
G36*
X43335D02*
X42600D01*
Y22165D01*
X42610D01*
X42822Y22222D01*
X43013Y22332D01*
X43168Y22487D01*
X43278Y22678D01*
X43335Y22890D01*
Y22900D01*
D02*
G37*
G36*
X42400D02*
X41665D01*
Y22890D01*
X41722Y22678D01*
X41832Y22487D01*
X41987Y22332D01*
X42178Y22222D01*
X42390Y22165D01*
X42400D01*
Y22900D01*
D02*
G37*
G36*
X30335D02*
X29600D01*
Y22165D01*
X29610D01*
X29822Y22222D01*
X30013Y22332D01*
X30168Y22487D01*
X30278Y22678D01*
X30335Y22890D01*
Y22900D01*
D02*
G37*
G36*
X29400D02*
X28665D01*
Y22890D01*
X28722Y22678D01*
X28832Y22487D01*
X28987Y22332D01*
X29178Y22222D01*
X29390Y22165D01*
X29400D01*
Y22900D01*
D02*
G37*
G36*
X17335D02*
X16600D01*
Y22165D01*
X16610D01*
X16822Y22222D01*
X17013Y22332D01*
X17168Y22487D01*
X17278Y22678D01*
X17335Y22890D01*
Y22900D01*
D02*
G37*
G36*
X16400D02*
X15665D01*
Y22890D01*
X15722Y22678D01*
X15832Y22487D01*
X15987Y22332D01*
X16178Y22222D01*
X16390Y22165D01*
X16400D01*
Y22900D01*
D02*
G37*
G36*
X127729Y22433D02*
X127725D01*
Y22008D01*
X128150D01*
Y22012D01*
X128070Y22205D01*
X127922Y22353D01*
X127729Y22433D01*
D02*
G37*
G36*
X127525D02*
X127521D01*
X127328Y22353D01*
X127180Y22205D01*
X127100Y22012D01*
Y22008D01*
X127525D01*
Y22433D01*
D02*
G37*
G36*
X128150Y21808D02*
X127725D01*
Y21383D01*
X127729D01*
X127922Y21463D01*
X128070Y21611D01*
X128150Y21804D01*
Y21808D01*
D02*
G37*
G36*
X127525D02*
X127100D01*
Y21804D01*
X127180Y21611D01*
X127328Y21463D01*
X127521Y21383D01*
X127525D01*
Y21808D01*
D02*
G37*
G36*
X112382Y19868D02*
X112350D01*
Y18968D01*
X113250D01*
Y19000D01*
X113182Y19254D01*
X113050Y19482D01*
X112864Y19668D01*
X112636Y19800D01*
X112382Y19868D01*
D02*
G37*
G36*
X112150D02*
X112118D01*
X111864Y19800D01*
X111636Y19668D01*
X111450Y19482D01*
X111318Y19254D01*
X111250Y19000D01*
Y18968D01*
X112150D01*
Y19868D01*
D02*
G37*
G36*
X113250Y18768D02*
X112350D01*
Y17868D01*
X112382D01*
X112636Y17936D01*
X112864Y18068D01*
X113050Y18254D01*
X113182Y18482D01*
X113250Y18736D01*
Y18768D01*
D02*
G37*
G36*
X112150D02*
X111250D01*
Y18736D01*
X111318Y18482D01*
X111450Y18254D01*
X111636Y18068D01*
X111864Y17936D01*
X112118Y17868D01*
X112150D01*
Y18768D01*
D02*
G37*
G36*
X135844Y21883D02*
X135656D01*
X135481Y21811D01*
X135347Y21677D01*
X135275Y21502D01*
Y21313D01*
X135300Y21252D01*
X132826Y18777D01*
X132656D01*
X132481Y18705D01*
X132347Y18571D01*
X132275Y18397D01*
Y18208D01*
X132347Y18033D01*
X132481Y17900D01*
X132656Y17827D01*
X132844D01*
X133019Y17900D01*
X133153Y18033D01*
X133225Y18208D01*
Y18378D01*
X135780Y20933D01*
X135844D01*
X136019Y21005D01*
X136153Y21139D01*
X136225Y21313D01*
Y21502D01*
X136153Y21677D01*
X136019Y21811D01*
X135844Y21883D01*
D02*
G37*
G36*
X113200Y24898D02*
X111300D01*
Y22998D01*
X113200D01*
Y23666D01*
X115593D01*
X120881Y18378D01*
Y18208D01*
X120953Y18033D01*
X121086Y17900D01*
X121261Y17827D01*
X121450D01*
X121625Y17900D01*
X121758Y18033D01*
X121831Y18208D01*
Y18397D01*
X121758Y18571D01*
X121625Y18705D01*
X121450Y18777D01*
X121280D01*
X115910Y24148D01*
X115818Y24209D01*
X115710Y24230D01*
X115710Y24230D01*
X113200D01*
Y24898D01*
D02*
G37*
G36*
X112375Y17278D02*
X112125D01*
X111883Y17213D01*
X111667Y17088D01*
X111490Y16911D01*
X111365Y16695D01*
X111300Y16453D01*
Y16203D01*
X111365Y15961D01*
X111490Y15745D01*
X111667Y15568D01*
X111883Y15443D01*
X112125Y15378D01*
X112375D01*
X112617Y15443D01*
X112833Y15568D01*
X113010Y15745D01*
X113135Y15961D01*
X113200Y16203D01*
Y16453D01*
X113135Y16695D01*
X113010Y16911D01*
X112833Y17088D01*
X112617Y17213D01*
X112375Y17278D01*
D02*
G37*
G36*
X89889Y17085D02*
X89612D01*
X89345Y17013D01*
X89106Y16875D01*
X88910Y16680D01*
X88772Y16440D01*
X88701Y16173D01*
Y15897D01*
X88772Y15630D01*
X88910Y15390D01*
X89106Y15195D01*
X89345Y15057D01*
X89612Y14985D01*
X89889D01*
X90156Y15057D01*
X90395Y15195D01*
X90591Y15390D01*
X90729Y15630D01*
X90801Y15897D01*
Y16173D01*
X90729Y16440D01*
X90591Y16680D01*
X90395Y16875D01*
X90156Y17013D01*
X89889Y17085D01*
D02*
G37*
G36*
X48639D02*
X48362D01*
X48095Y17013D01*
X47856Y16875D01*
X47660Y16680D01*
X47522Y16440D01*
X47451Y16173D01*
Y15897D01*
X47522Y15630D01*
X47660Y15390D01*
X47856Y15195D01*
X48095Y15057D01*
X48362Y14985D01*
X48639D01*
X48906Y15057D01*
X49145Y15195D01*
X49341Y15390D01*
X49479Y15630D01*
X49551Y15897D01*
Y16173D01*
X49479Y16440D01*
X49341Y16680D01*
X49145Y16875D01*
X48906Y17013D01*
X48639Y17085D01*
D02*
G37*
G36*
X131389Y16800D02*
X131112D01*
X130845Y16729D01*
X130606Y16590D01*
X130410Y16395D01*
X130272Y16155D01*
X130201Y15888D01*
Y15612D01*
X130272Y15345D01*
X130410Y15105D01*
X130606Y14910D01*
X130845Y14772D01*
X131112Y14700D01*
X131389D01*
X131656Y14772D01*
X131895Y14910D01*
X132091Y15105D01*
X132229Y15345D01*
X132301Y15612D01*
Y15888D01*
X132229Y16155D01*
X132091Y16395D01*
X131895Y16590D01*
X131656Y16729D01*
X131389Y16800D01*
D02*
G37*
G36*
X112375Y14738D02*
X112125D01*
X111883Y14673D01*
X111667Y14548D01*
X111490Y14371D01*
X111365Y14155D01*
X111300Y13913D01*
Y13663D01*
X111365Y13421D01*
X111490Y13205D01*
X111667Y13028D01*
X111883Y12903D01*
X112125Y12838D01*
X112375D01*
X112617Y12903D01*
X112833Y13028D01*
X113010Y13205D01*
X113135Y13421D01*
X113200Y13663D01*
Y13913D01*
X113135Y14155D01*
X113010Y14371D01*
X112833Y14548D01*
X112617Y14673D01*
X112375Y14738D01*
D02*
G37*
G36*
X153110Y10835D02*
X153100D01*
Y10100D01*
X153835D01*
Y10110D01*
X153778Y10322D01*
X153668Y10513D01*
X153513Y10668D01*
X153322Y10778D01*
X153110Y10835D01*
D02*
G37*
G36*
X152900D02*
X152890D01*
X152678Y10778D01*
X152487Y10668D01*
X152332Y10513D01*
X152222Y10322D01*
X152165Y10110D01*
Y10100D01*
X152900D01*
Y10835D01*
D02*
G37*
G36*
X140110D02*
X140100D01*
Y10100D01*
X140835D01*
Y10110D01*
X140778Y10322D01*
X140668Y10513D01*
X140513Y10668D01*
X140322Y10778D01*
X140110Y10835D01*
D02*
G37*
G36*
X139900D02*
X139890D01*
X139678Y10778D01*
X139487Y10668D01*
X139332Y10513D01*
X139222Y10322D01*
X139165Y10110D01*
Y10100D01*
X139900D01*
Y10835D01*
D02*
G37*
G36*
X127110D02*
X127100D01*
Y10100D01*
X127835D01*
Y10110D01*
X127778Y10322D01*
X127668Y10513D01*
X127513Y10668D01*
X127322Y10778D01*
X127110Y10835D01*
D02*
G37*
G36*
X126900D02*
X126890D01*
X126678Y10778D01*
X126487Y10668D01*
X126332Y10513D01*
X126222Y10322D01*
X126165Y10110D01*
Y10100D01*
X126900D01*
Y10835D01*
D02*
G37*
G36*
X114110D02*
X114100D01*
Y10100D01*
X114835D01*
Y10110D01*
X114778Y10322D01*
X114668Y10513D01*
X114513Y10668D01*
X114322Y10778D01*
X114110Y10835D01*
D02*
G37*
G36*
X88110D02*
X88100D01*
Y10100D01*
X88835D01*
Y10110D01*
X88778Y10322D01*
X88668Y10513D01*
X88513Y10668D01*
X88322Y10778D01*
X88110Y10835D01*
D02*
G37*
G36*
X87900D02*
X87890D01*
X87678Y10778D01*
X87487Y10668D01*
X87332Y10513D01*
X87222Y10322D01*
X87165Y10110D01*
Y10100D01*
X87900D01*
Y10835D01*
D02*
G37*
G36*
X75110D02*
X75100D01*
Y10100D01*
X75835D01*
Y10110D01*
X75778Y10322D01*
X75668Y10513D01*
X75513Y10668D01*
X75322Y10778D01*
X75110Y10835D01*
D02*
G37*
G36*
X74900D02*
X74890D01*
X74678Y10778D01*
X74487Y10668D01*
X74332Y10513D01*
X74222Y10322D01*
X74165Y10110D01*
Y10100D01*
X74900D01*
Y10835D01*
D02*
G37*
G36*
X62110D02*
X62100D01*
Y10100D01*
X62835D01*
Y10110D01*
X62778Y10322D01*
X62668Y10513D01*
X62513Y10668D01*
X62322Y10778D01*
X62110Y10835D01*
D02*
G37*
G36*
X61900D02*
X61890D01*
X61678Y10778D01*
X61487Y10668D01*
X61332Y10513D01*
X61222Y10322D01*
X61165Y10110D01*
Y10100D01*
X61900D01*
Y10835D01*
D02*
G37*
G36*
X23110D02*
X23100D01*
Y10100D01*
X23835D01*
Y10110D01*
X23778Y10322D01*
X23668Y10513D01*
X23513Y10668D01*
X23322Y10778D01*
X23110Y10835D01*
D02*
G37*
G36*
X22900D02*
X22890D01*
X22678Y10778D01*
X22487Y10668D01*
X22332Y10513D01*
X22222Y10322D01*
X22165Y10110D01*
Y10100D01*
X22900D01*
Y10835D01*
D02*
G37*
G36*
X10110D02*
X10100D01*
Y10100D01*
X10835D01*
Y10110D01*
X10778Y10322D01*
X10668Y10513D01*
X10513Y10668D01*
X10322Y10778D01*
X10110Y10835D01*
D02*
G37*
G36*
X9900D02*
X9890D01*
X9678Y10778D01*
X9487Y10668D01*
X9332Y10513D01*
X9222Y10322D01*
X9165Y10110D01*
Y10100D01*
X9900D01*
Y10835D01*
D02*
G37*
G36*
X77389Y12085D02*
X77112D01*
X76845Y12013D01*
X76606Y11875D01*
X76410Y11680D01*
X76272Y11440D01*
X76201Y11173D01*
Y10897D01*
X76272Y10630D01*
X76410Y10390D01*
X76606Y10195D01*
X76845Y10057D01*
X77112Y9985D01*
X77389D01*
X77656Y10057D01*
X77895Y10195D01*
X78091Y10390D01*
X78229Y10630D01*
X78301Y10897D01*
Y11173D01*
X78229Y11440D01*
X78091Y11680D01*
X77895Y11875D01*
X77656Y12013D01*
X77389Y12085D01*
D02*
G37*
G36*
X48639D02*
X48362D01*
X48095Y12013D01*
X47856Y11875D01*
X47660Y11680D01*
X47522Y11440D01*
X47451Y11173D01*
Y10897D01*
X47522Y10630D01*
X47660Y10390D01*
X47856Y10195D01*
X48095Y10057D01*
X48362Y9985D01*
X48639D01*
X48906Y10057D01*
X49145Y10195D01*
X49341Y10390D01*
X49479Y10630D01*
X49551Y10897D01*
Y11173D01*
X49479Y11440D01*
X49341Y11680D01*
X49145Y11875D01*
X48906Y12013D01*
X48639Y12085D01*
D02*
G37*
G36*
X36139D02*
X35862D01*
X35595Y12013D01*
X35356Y11875D01*
X35160Y11680D01*
X35022Y11440D01*
X34951Y11173D01*
Y10897D01*
X35022Y10630D01*
X35160Y10390D01*
X35356Y10195D01*
X35595Y10057D01*
X35862Y9985D01*
X36139D01*
X36406Y10057D01*
X36645Y10195D01*
X36841Y10390D01*
X36979Y10630D01*
X37051Y10897D01*
Y11173D01*
X36979Y11440D01*
X36841Y11680D01*
X36645Y11875D01*
X36406Y12013D01*
X36139Y12085D01*
D02*
G37*
G36*
X118889Y11800D02*
X118612D01*
X118345Y11729D01*
X118106Y11590D01*
X117910Y11395D01*
X117772Y11155D01*
X117701Y10888D01*
Y10612D01*
X117772Y10345D01*
X117910Y10105D01*
X118106Y9910D01*
X118345Y9772D01*
X118612Y9700D01*
X118889D01*
X119156Y9772D01*
X119395Y9910D01*
X119591Y10105D01*
X119729Y10345D01*
X119801Y10612D01*
Y10888D01*
X119729Y11155D01*
X119591Y11395D01*
X119395Y11590D01*
X119156Y11729D01*
X118889Y11800D01*
D02*
G37*
G36*
X149697Y13250D02*
X149303D01*
X148917Y13173D01*
X148553Y13022D01*
X148225Y12804D01*
X147947Y12525D01*
X147728Y12197D01*
X147577Y11833D01*
X147500Y11447D01*
Y11053D01*
X147577Y10667D01*
X147728Y10303D01*
X147947Y9975D01*
X148225Y9696D01*
X148553Y9478D01*
X148917Y9327D01*
X149303Y9250D01*
X149697D01*
X150083Y9327D01*
X150447Y9478D01*
X150775Y9696D01*
X151053Y9975D01*
X151272Y10303D01*
X151423Y10667D01*
X151500Y11053D01*
Y11447D01*
X151423Y11833D01*
X151272Y12197D01*
X151053Y12525D01*
X150775Y12804D01*
X150447Y13022D01*
X150083Y13173D01*
X149697Y13250D01*
D02*
G37*
G36*
X17697D02*
X17303D01*
X16917Y13173D01*
X16553Y13022D01*
X16225Y12804D01*
X15946Y12525D01*
X15728Y12197D01*
X15577Y11833D01*
X15500Y11447D01*
Y11053D01*
X15577Y10667D01*
X15728Y10303D01*
X15946Y9975D01*
X16225Y9696D01*
X16553Y9478D01*
X16917Y9327D01*
X17303Y9250D01*
X17697D01*
X18083Y9327D01*
X18447Y9478D01*
X18775Y9696D01*
X19053Y9975D01*
X19272Y10303D01*
X19423Y10667D01*
X19500Y11053D01*
Y11447D01*
X19423Y11833D01*
X19272Y12197D01*
X19053Y12525D01*
X18775Y12804D01*
X18447Y13022D01*
X18083Y13173D01*
X17697Y13250D01*
D02*
G37*
G36*
X153835Y9900D02*
X153100D01*
Y9165D01*
X153110D01*
X153322Y9222D01*
X153513Y9332D01*
X153668Y9487D01*
X153778Y9678D01*
X153835Y9890D01*
Y9900D01*
D02*
G37*
G36*
X152900D02*
X152165D01*
Y9890D01*
X152222Y9678D01*
X152332Y9487D01*
X152487Y9332D01*
X152678Y9222D01*
X152890Y9165D01*
X152900D01*
Y9900D01*
D02*
G37*
G36*
X140835D02*
X140100D01*
Y9165D01*
X140110D01*
X140322Y9222D01*
X140513Y9332D01*
X140668Y9487D01*
X140778Y9678D01*
X140835Y9890D01*
Y9900D01*
D02*
G37*
G36*
X139900D02*
X139165D01*
Y9890D01*
X139222Y9678D01*
X139332Y9487D01*
X139487Y9332D01*
X139678Y9222D01*
X139890Y9165D01*
X139900D01*
Y9900D01*
D02*
G37*
G36*
X127835D02*
X127100D01*
Y9165D01*
X127110D01*
X127322Y9222D01*
X127513Y9332D01*
X127668Y9487D01*
X127778Y9678D01*
X127835Y9890D01*
Y9900D01*
D02*
G37*
G36*
X126900D02*
X126165D01*
Y9890D01*
X126222Y9678D01*
X126332Y9487D01*
X126487Y9332D01*
X126678Y9222D01*
X126890Y9165D01*
X126900D01*
Y9900D01*
D02*
G37*
G36*
X114835D02*
X114100D01*
Y9165D01*
X114110D01*
X114322Y9222D01*
X114513Y9332D01*
X114668Y9487D01*
X114778Y9678D01*
X114835Y9890D01*
Y9900D01*
D02*
G37*
G36*
X113900D02*
X113165D01*
Y9890D01*
X113222Y9678D01*
X113332Y9487D01*
X113487Y9332D01*
X113678Y9222D01*
X113890Y9165D01*
X113900D01*
Y9900D01*
D02*
G37*
G36*
X101835D02*
X101100D01*
Y9165D01*
X101110D01*
X101322Y9222D01*
X101513Y9332D01*
X101668Y9487D01*
X101778Y9678D01*
X101835Y9890D01*
Y9900D01*
D02*
G37*
G36*
X100900D02*
X100165D01*
Y9890D01*
X100222Y9678D01*
X100332Y9487D01*
X100487Y9332D01*
X100678Y9222D01*
X100890Y9165D01*
X100900D01*
Y9900D01*
D02*
G37*
G36*
X88835D02*
X88100D01*
Y9165D01*
X88110D01*
X88322Y9222D01*
X88513Y9332D01*
X88668Y9487D01*
X88778Y9678D01*
X88835Y9890D01*
Y9900D01*
D02*
G37*
G36*
X87900D02*
X87165D01*
Y9890D01*
X87222Y9678D01*
X87332Y9487D01*
X87487Y9332D01*
X87678Y9222D01*
X87890Y9165D01*
X87900D01*
Y9900D01*
D02*
G37*
G36*
X75835D02*
X75100D01*
Y9165D01*
X75110D01*
X75322Y9222D01*
X75513Y9332D01*
X75668Y9487D01*
X75778Y9678D01*
X75835Y9890D01*
Y9900D01*
D02*
G37*
G36*
X74900D02*
X74165D01*
Y9890D01*
X74222Y9678D01*
X74332Y9487D01*
X74487Y9332D01*
X74678Y9222D01*
X74890Y9165D01*
X74900D01*
Y9900D01*
D02*
G37*
G36*
X62835D02*
X62100D01*
Y9165D01*
X62110D01*
X62322Y9222D01*
X62513Y9332D01*
X62668Y9487D01*
X62778Y9678D01*
X62835Y9890D01*
Y9900D01*
D02*
G37*
G36*
X61900D02*
X61165D01*
Y9890D01*
X61222Y9678D01*
X61332Y9487D01*
X61487Y9332D01*
X61678Y9222D01*
X61890Y9165D01*
X61900D01*
Y9900D01*
D02*
G37*
G36*
X23835D02*
X23100D01*
Y9165D01*
X23110D01*
X23322Y9222D01*
X23513Y9332D01*
X23668Y9487D01*
X23778Y9678D01*
X23835Y9890D01*
Y9900D01*
D02*
G37*
G36*
X22900D02*
X22165D01*
Y9890D01*
X22222Y9678D01*
X22332Y9487D01*
X22487Y9332D01*
X22678Y9222D01*
X22890Y9165D01*
X22900D01*
Y9900D01*
D02*
G37*
G36*
X10835D02*
X10100D01*
Y9165D01*
X10110D01*
X10322Y9222D01*
X10513Y9332D01*
X10668Y9487D01*
X10778Y9678D01*
X10835Y9890D01*
Y9900D01*
D02*
G37*
G36*
X9900D02*
X9165D01*
Y9890D01*
X9222Y9678D01*
X9332Y9487D01*
X9487Y9332D01*
X9678Y9222D01*
X9890Y9165D01*
X9900D01*
Y9900D01*
D02*
G37*
G36*
X65600Y4715D02*
X63600D01*
Y3600D01*
X65600D01*
Y4715D01*
D02*
G37*
G36*
X63400D02*
X61400D01*
Y3600D01*
X63400D01*
Y4715D01*
D02*
G37*
G36*
X65600Y3400D02*
X63600D01*
Y2285D01*
X65600D01*
Y3400D01*
D02*
G37*
G36*
X63400D02*
X61400D01*
Y2285D01*
X63400D01*
Y3400D01*
D02*
G37*
%LPD*%
G36*
X132015Y40788D02*
X131943Y40680D01*
X131794Y40742D01*
X131606D01*
X131431Y40669D01*
X131311Y40549D01*
X124039D01*
X123919Y40669D01*
X123810Y40715D01*
Y40852D01*
X123919Y40897D01*
X124039Y41018D01*
X131785D01*
X132015Y40788D01*
D02*
G37*
G36*
X138750Y27171D02*
Y26382D01*
X137858D01*
X137738Y26503D01*
X137563Y26575D01*
X137374D01*
X137200Y26503D01*
X137145Y26447D01*
X137094Y26457D01*
X137094Y26457D01*
X119179D01*
X119153Y26519D01*
X119050Y26622D01*
X119031Y26700D01*
X119050Y26778D01*
X119140Y26868D01*
X138150D01*
X138150Y26868D01*
X138258Y26889D01*
X138350Y26950D01*
X138623Y27224D01*
X138750Y27171D01*
D02*
G37*
D23*
X125684Y94384D02*
D03*
D28*
X133250Y31525D02*
Y50885D01*
Y31525D02*
X136500Y28275D01*
X144879Y24000D02*
X158510D01*
X144500Y24379D02*
X144879Y24000D01*
X158510D02*
X159250Y24740D01*
X138150Y27150D02*
X139881Y28881D01*
X140800D01*
X118751Y27150D02*
X138150D01*
X138141Y28672D02*
Y30325D01*
X137109Y27640D02*
X138141Y28672D01*
X120015Y27640D02*
X137109D01*
X124500Y48565D02*
X129250Y53315D01*
Y63895D02*
X135624Y70269D01*
X129250Y53315D02*
Y63895D01*
X138902Y46025D02*
Y60264D01*
X136861Y62305D02*
X138902Y60264D01*
X120999Y22912D02*
X125000D01*
X123670Y23538D02*
X139985D01*
X123132Y24076D02*
X123670Y23538D01*
X116475Y27436D02*
X120999Y22912D01*
X123624Y42926D02*
X123661Y42963D01*
X129963D01*
X130000Y43000D01*
X123650Y42100D02*
X131000D01*
X148791Y27100D02*
X160000D01*
X146714Y25023D02*
X148791Y27100D01*
X148604Y29140D02*
X158600D01*
X145691Y26227D02*
X148604Y29140D01*
X148750Y30069D02*
X159700D01*
X135750Y21302D02*
Y21408D01*
X132750Y18302D02*
X135750Y21302D01*
X89751Y11035D02*
X113406D01*
X115747Y13376D02*
X122541D01*
X113406Y11035D02*
X115747Y13376D01*
X116475Y27436D02*
Y35521D01*
X121500Y37444D02*
Y50645D01*
X124500Y53645D01*
X117506Y82000D02*
X118114Y81392D01*
Y36469D02*
Y81392D01*
X117506Y38456D02*
Y78289D01*
X117500Y78295D02*
X117506Y78289D01*
Y38456D02*
X117512Y38450D01*
X119353Y70086D02*
Y76515D01*
X118751Y79500D02*
X119249D01*
X122361Y76388D02*
Y76388D01*
X119249Y79500D02*
X122361Y76388D01*
Y76388D02*
X123249Y75500D01*
X124134D01*
X118751Y35669D02*
Y79500D01*
X129752Y12249D02*
Y19262D01*
Y12249D02*
X131251Y10750D01*
X129752Y19262D02*
X132500Y22010D01*
X44750Y74870D02*
X90886Y28734D01*
X87620Y28000D02*
X99750D01*
X90886Y28734D02*
X101500D01*
X44750Y70870D02*
X87620Y28000D01*
X103606Y40014D02*
X104000D01*
X66750Y76870D02*
X103606Y40014D01*
X104000Y24076D02*
Y40014D01*
X114341Y50355D01*
X118751Y28000D02*
X119656D01*
X120015Y27640D01*
X137469Y26100D02*
X140484D01*
X118751Y26250D02*
X118826Y26175D01*
X137094D02*
X137169Y26100D01*
X118826Y26175D02*
X137094D01*
X144500Y24379D02*
Y27100D01*
X122541Y13376D02*
X131175Y22010D01*
X140800Y28881D02*
Y30869D01*
X124024Y28800D02*
X126198Y30974D01*
X118751Y28800D02*
X124024D01*
X121500Y37444D02*
X127894Y31050D01*
X119353Y34184D02*
Y70086D01*
X124195D01*
X119353Y34184D02*
X119387Y34150D01*
X123650Y40267D02*
X131700D01*
X123650Y41300D02*
X131902D01*
X123375Y47285D02*
X126100D01*
X115710Y23948D02*
X121356Y18302D01*
X112250Y23948D02*
X115710D01*
X131902Y41300D02*
X132500Y40702D01*
X114341Y37655D02*
X116475Y35521D01*
X140180Y46025D02*
Y58495D01*
X132500Y39665D02*
Y40702D01*
D29*
X137391Y51500D02*
Y59165D01*
X131711Y64845D02*
X137391Y59165D01*
Y39109D02*
Y51500D01*
X77251Y17750D02*
X106842D01*
X110500Y21408D01*
X112250D01*
X77251Y16035D02*
Y17750D01*
X37716D02*
X40750D01*
X36001Y16035D02*
X37716Y17750D01*
X137391Y39109D02*
X143500Y33000D01*
Y24740D02*
Y33000D01*
X116100Y98021D02*
X116121Y98000D01*
X122750D01*
X40750Y17750D02*
X77251D01*
X40750D02*
Y29956D01*
X38155Y32551D02*
X40750Y29956D01*
X129168Y22735D02*
X141495D01*
X143500Y24740D01*
X128875Y22442D02*
X129168Y22735D01*
X128875Y21408D02*
Y22442D01*
X118751Y15750D02*
X123217D01*
X128875Y21408D01*
X93900Y91325D02*
X127405D01*
X132264Y96184D02*
Y98000D01*
X127405Y91325D02*
X132264Y96184D01*
Y98000D02*
X133250Y98986D01*
X110500Y28734D02*
X114341Y32575D01*
X110500Y21408D02*
Y28734D01*
X117663Y15995D02*
X118505D01*
X112250Y21408D02*
X117663Y15995D01*
X118505D02*
X118751Y15750D01*
X125136Y100500D02*
X126021D01*
X124371Y99621D02*
Y99735D01*
X122750Y98000D02*
X124371Y99621D01*
Y99735D02*
X125136Y100500D01*
X133250Y98986D02*
Y100500D01*
X110750Y95384D02*
Y101750D01*
X109430Y103070D02*
X110750Y101750D01*
X103021Y103070D02*
X109430D01*
X102800Y102849D02*
X103021Y103070D01*
X102800Y100900D02*
Y102849D01*
D30*
X102383Y98750D02*
Y98823D01*
X102517Y98957D01*
Y99026D01*
X102907Y99415D01*
X103271D01*
X103460Y99604D01*
Y100891D01*
X103450Y100900D02*
X103460Y100891D01*
X103183Y98750D02*
X103217Y98785D01*
X103532D01*
X104090Y99343D01*
Y100891D02*
X104100Y100900D01*
X104090Y99343D02*
Y100891D01*
D31*
X38131Y78295D02*
D03*
X119600Y100260D02*
D03*
X114341Y78295D02*
D03*
D32*
X38131Y75755D02*
D03*
Y73215D02*
D03*
Y70675D02*
D03*
Y68135D02*
D03*
Y65595D02*
D03*
Y63055D02*
D03*
Y60515D02*
D03*
Y57975D02*
D03*
Y55435D02*
D03*
Y52895D02*
D03*
Y50355D02*
D03*
Y47815D02*
D03*
Y45275D02*
D03*
Y42735D02*
D03*
Y40195D02*
D03*
Y37655D02*
D03*
Y35115D02*
D03*
Y32575D02*
D03*
Y30035D02*
D03*
X119600Y102540D02*
D03*
X114341Y30035D02*
D03*
Y32575D02*
D03*
Y35115D02*
D03*
Y37655D02*
D03*
Y40195D02*
D03*
Y42735D02*
D03*
Y45275D02*
D03*
Y47815D02*
D03*
Y50355D02*
D03*
Y52895D02*
D03*
Y55435D02*
D03*
Y57975D02*
D03*
Y60515D02*
D03*
Y63055D02*
D03*
Y65595D02*
D03*
Y68135D02*
D03*
Y70675D02*
D03*
Y73215D02*
D03*
Y75755D02*
D03*
D33*
X44750Y84870D02*
D03*
Y82870D02*
D03*
Y80870D02*
D03*
Y78870D02*
D03*
Y76870D02*
D03*
Y72870D02*
D03*
Y68870D02*
D03*
Y66870D02*
D03*
X66750Y78870D02*
D03*
Y74870D02*
D03*
Y72870D02*
D03*
Y70870D02*
D03*
Y68870D02*
D03*
Y66870D02*
D03*
Y76870D02*
D03*
Y80870D02*
D03*
Y82870D02*
D03*
Y84870D02*
D03*
X44750Y70870D02*
D03*
Y74870D02*
D03*
D34*
X126821Y80975D02*
D03*
Y83515D02*
D03*
X112250Y21408D02*
D03*
Y18868D02*
D03*
Y16328D02*
D03*
Y13788D02*
D03*
D35*
X138520Y85000D02*
D03*
X143520D02*
D03*
D36*
X77251Y16035D02*
D03*
X89751Y11035D02*
D03*
Y16035D02*
D03*
X77251Y11035D02*
D03*
X118751Y15750D02*
D03*
X131251Y10750D02*
D03*
Y15750D02*
D03*
X118751Y10750D02*
D03*
X48501Y16035D02*
D03*
X36001Y11035D02*
D03*
X48501D02*
D03*
X36001Y16035D02*
D03*
D37*
X112250Y23948D02*
D03*
D38*
X147488Y72184D02*
D03*
D39*
X142408D02*
D03*
X144948Y69644D02*
D03*
D40*
X106600Y101950D02*
D03*
X101600D02*
D03*
D41*
X107975Y104700D02*
D03*
X100225D02*
D03*
D42*
X107825Y100900D02*
D03*
X100375D02*
D03*
D43*
X125000Y22912D02*
D03*
X139985Y23538D02*
D03*
X127625Y21908D02*
D03*
X111105Y83718D02*
D03*
X130000Y43000D02*
D03*
X131000Y42100D02*
D03*
X143500Y33000D02*
D03*
X148750Y30069D02*
D03*
X135750Y21408D02*
D03*
X132750Y18302D02*
D03*
X124500Y53645D02*
D03*
X117506Y82000D02*
D03*
X118751Y79500D02*
D03*
X117500Y78295D02*
D03*
X119353Y76515D02*
D03*
X103183Y98750D02*
D03*
X102383D02*
D03*
X116100Y98021D02*
D03*
X136861Y62305D02*
D03*
X99750Y28000D02*
D03*
X101500Y28734D02*
D03*
X92825Y85966D02*
D03*
X104000Y24076D02*
D03*
X136500Y28275D02*
D03*
X137469Y26100D02*
D03*
X131175Y22010D02*
D03*
X132500D02*
D03*
X144500Y27100D02*
D03*
X140800Y28881D02*
D03*
X138141Y30325D02*
D03*
X127894Y31050D02*
D03*
X126198Y30974D02*
D03*
X123624Y42926D02*
D03*
X123650Y42100D02*
D03*
Y41300D02*
D03*
Y40267D02*
D03*
X123375Y47285D02*
D03*
X117512Y38450D02*
D03*
X118114Y36469D02*
D03*
X118751Y35669D02*
D03*
X119387Y34150D02*
D03*
X121356Y18302D02*
D03*
X118751Y28800D02*
D03*
Y28000D02*
D03*
Y27150D02*
D03*
Y26250D02*
D03*
X123132Y24076D02*
D03*
X126100Y47285D02*
D03*
X124500Y48565D02*
D03*
X135626Y70269D02*
D03*
X146714Y25023D02*
D03*
X140180Y46025D02*
D03*
X138902D02*
D03*
X140180Y58495D02*
D03*
X133250Y50885D02*
D03*
X131700Y40267D02*
D03*
X132500Y39665D02*
D03*
X145691Y26227D02*
D03*
X159250Y24740D02*
D03*
X160000Y27100D02*
D03*
X158600Y29140D02*
D03*
X159700Y30069D02*
D03*
X128875Y21408D02*
D03*
X137391Y51500D02*
D03*
X93900Y91325D02*
D03*
X131711Y64845D02*
D03*
X132264Y98000D02*
D03*
X110750Y95384D02*
D03*
D44*
X153000Y88000D02*
D03*
X159500Y75000D02*
D03*
X153000Y62000D02*
D03*
X159500Y49000D02*
D03*
X153000Y36000D02*
D03*
Y10000D02*
D03*
X146500Y75000D02*
D03*
X140000Y62000D02*
D03*
Y10000D02*
D03*
X127000Y88000D02*
D03*
X133500Y75000D02*
D03*
X127000Y62000D02*
D03*
Y36000D02*
D03*
Y10000D02*
D03*
X114000D02*
D03*
X107500Y75000D02*
D03*
X101000Y62000D02*
D03*
X107500Y49000D02*
D03*
X101000Y36000D02*
D03*
Y10000D02*
D03*
X94500Y75000D02*
D03*
X88000Y36000D02*
D03*
X94500Y23000D02*
D03*
X88000Y10000D02*
D03*
X81500Y75000D02*
D03*
X75000Y62000D02*
D03*
X81500Y49000D02*
D03*
X75000Y36000D02*
D03*
X81500Y23000D02*
D03*
X75000Y10000D02*
D03*
X62000Y62000D02*
D03*
X68500Y49000D02*
D03*
X62000Y36000D02*
D03*
X68500Y23000D02*
D03*
X62000Y10000D02*
D03*
X55500Y75000D02*
D03*
X49000Y62000D02*
D03*
X55500Y49000D02*
D03*
X49000Y36000D02*
D03*
X55500Y23000D02*
D03*
X42500Y75000D02*
D03*
X36000Y62000D02*
D03*
X42500Y49000D02*
D03*
X36000Y36000D02*
D03*
X42500Y23000D02*
D03*
X29500Y75000D02*
D03*
X23000Y62000D02*
D03*
X29500Y49000D02*
D03*
X23000Y36000D02*
D03*
X29500Y23000D02*
D03*
X23000Y10000D02*
D03*
X16500Y75000D02*
D03*
X10000Y62000D02*
D03*
X16500Y49000D02*
D03*
X10000Y36000D02*
D03*
X16500Y23000D02*
D03*
X10000Y10000D02*
D03*
D45*
X124684Y93384D02*
D03*
X125684D02*
D03*
X126684D02*
D03*
X124684Y94384D02*
D03*
Y95384D02*
D03*
X125684Y94384D02*
D03*
Y95384D02*
D03*
X126684Y94384D02*
D03*
Y95384D02*
D03*
D46*
X126021Y100500D02*
D03*
X140800Y26100D02*
D03*
X133250Y100500D02*
D03*
X124195Y70086D02*
D03*
X124134Y75500D02*
D03*
X140800Y30869D02*
D03*
X140000Y100500D02*
D03*
X92200Y99469D02*
D03*
X63500Y3500D02*
D03*
D47*
X159250Y43750D02*
D03*
D48*
X104750Y100900D02*
D03*
X102800D02*
D03*
X104100D02*
D03*
X103450D02*
D03*
X105400D02*
D03*
%TF.MD5,374fe65fd703895a4590e9caf78c68ef*%
M02*
