%TF.GenerationSoftware,Altium Limited,Altium Designer,21.6.1 (37)*%
G04 Layer_Color=255*
%FSLAX43Y43*%
%MOMM*%
%TF.SameCoordinates,2DC9C271-DD38-4FBD-9B37-034AA9505664*%
%TF.FilePolarity,Positive*%
%TF.FileFunction,Pads,Bot*%
%TF.Part,Single*%
G01*
G75*
%TA.AperFunction,SMDPad,CuDef*%
%ADD23R,3.100X3.100*%
%TA.AperFunction,ComponentPad*%
%ADD31R,1.500X1.500*%
%ADD32C,1.500*%
%ADD33C,1.200*%
%ADD34C,1.600*%
%ADD35C,1.400*%
%ADD36C,1.800*%
%ADD37R,1.600X1.600*%
%ADD38R,1.250X1.250*%
%ADD39C,1.250*%
%ADD40C,0.800*%
%ADD41O,1.150X1.800*%
%ADD42O,1.450X2.000*%
%TA.AperFunction,SMDPad,CuDef*%
%ADD46R,3.800X2.030*%
%ADD47R,2.030X3.800*%
%ADD48R,0.450X1.300*%
D23*
X125684Y94384D02*
D03*
D31*
X38131Y78295D02*
D03*
X119600Y100260D02*
D03*
X114341Y78295D02*
D03*
D32*
X38131Y75755D02*
D03*
Y73215D02*
D03*
Y70675D02*
D03*
Y68135D02*
D03*
Y65595D02*
D03*
Y63055D02*
D03*
Y60515D02*
D03*
Y57975D02*
D03*
Y55435D02*
D03*
Y52895D02*
D03*
Y50355D02*
D03*
Y47815D02*
D03*
Y45275D02*
D03*
Y42735D02*
D03*
Y40195D02*
D03*
Y37655D02*
D03*
Y35115D02*
D03*
Y32575D02*
D03*
Y30035D02*
D03*
X119600Y102540D02*
D03*
X114341Y30035D02*
D03*
Y32575D02*
D03*
Y35115D02*
D03*
Y37655D02*
D03*
Y40195D02*
D03*
Y42735D02*
D03*
Y45275D02*
D03*
Y47815D02*
D03*
Y50355D02*
D03*
Y52895D02*
D03*
Y55435D02*
D03*
Y57975D02*
D03*
Y60515D02*
D03*
Y63055D02*
D03*
Y65595D02*
D03*
Y68135D02*
D03*
Y70675D02*
D03*
Y73215D02*
D03*
Y75755D02*
D03*
D33*
X44750Y84870D02*
D03*
Y82870D02*
D03*
Y80870D02*
D03*
Y78870D02*
D03*
Y76870D02*
D03*
Y72870D02*
D03*
Y68870D02*
D03*
Y66870D02*
D03*
X66750Y78870D02*
D03*
Y74870D02*
D03*
Y72870D02*
D03*
Y70870D02*
D03*
Y68870D02*
D03*
Y66870D02*
D03*
Y76870D02*
D03*
Y80870D02*
D03*
Y82870D02*
D03*
Y84870D02*
D03*
X44750Y70870D02*
D03*
Y74870D02*
D03*
D34*
X126821Y80975D02*
D03*
Y83515D02*
D03*
X112250Y21408D02*
D03*
Y18868D02*
D03*
Y16328D02*
D03*
Y13788D02*
D03*
D35*
X138520Y85000D02*
D03*
X143520D02*
D03*
D36*
X77251Y16035D02*
D03*
X89751Y11035D02*
D03*
Y16035D02*
D03*
X77251Y11035D02*
D03*
X118751Y15750D02*
D03*
X131251Y10750D02*
D03*
Y15750D02*
D03*
X118751Y10750D02*
D03*
X48501Y16035D02*
D03*
X36001Y11035D02*
D03*
X48501D02*
D03*
X36001Y16035D02*
D03*
D37*
X112250Y23948D02*
D03*
D38*
X147488Y72184D02*
D03*
D39*
X142408D02*
D03*
X144948Y69644D02*
D03*
D40*
X106600Y101950D02*
D03*
X101600D02*
D03*
D41*
X107975Y104700D02*
D03*
X100225D02*
D03*
D42*
X107825Y100900D02*
D03*
X100375D02*
D03*
D46*
X126021Y100500D02*
D03*
X140800Y26100D02*
D03*
X133250Y100500D02*
D03*
X124195Y70086D02*
D03*
X124134Y75500D02*
D03*
X140800Y30869D02*
D03*
X140000Y100500D02*
D03*
X92200Y99469D02*
D03*
X63500Y3500D02*
D03*
D47*
X159250Y43750D02*
D03*
D48*
X104750Y100900D02*
D03*
X102800D02*
D03*
X104100D02*
D03*
X103450D02*
D03*
X105400D02*
D03*
%TF.MD5,19814be9e4156085baed24f6be945ce3*%
M02*
